<?xml version="1.0" encoding="utf-8" standalone="no"?>
<!DOCTYPE svg PUBLIC "-//W3C//DTD SVG 1.1//EN"
  "http://www.w3.org/Graphics/SVG/1.1/DTD/svg11.dtd">
<svg xmlns:xlink="http://www.w3.org/1999/xlink" width="443.337484pt" height="273.997634pt" viewBox="0 0 443.337484 273.997634" xmlns="http://www.w3.org/2000/svg" version="1.1">
 <metadata>
  <rdf:RDF xmlns:dc="http://purl.org/dc/elements/1.1/" xmlns:cc="http://creativecommons.org/ns#" xmlns:rdf="http://www.w3.org/1999/02/22-rdf-syntax-ns#">
   <cc:Work>
    <dc:type rdf:resource="http://purl.org/dc/dcmitype/StillImage"/>
    <dc:date>2022-03-06T15:24:56.411373</dc:date>
    <dc:format>image/svg+xml</dc:format>
    <dc:creator>
     <cc:Agent>
      <dc:title>Matplotlib v3.5.0, https://matplotlib.org/</dc:title>
     </cc:Agent>
    </dc:creator>
   </cc:Work>
  </rdf:RDF>
 </metadata>
 <defs>
  <style type="text/css">*{stroke-linejoin: round; stroke-linecap: butt}</style>
 </defs>
 <g id="figure_1">
  <g id="patch_1">
   <path d="M 0 273.997634 
L 443.337484 273.997634 
L 443.337484 0 
L 0 0 
z
" style="fill: #ffffff"/>
  </g>
  <g id="axes_1">
   <g id="patch_2">
    <path d="M 66.365971 218.209617 
L 222.834236 218.209617 
L 222.834236 28.645892 
L 66.365971 28.645892 
z
" style="fill: #ffffff"/>
   </g>
   <g id="line2d_1">
    <path d="M 66.365971 126.611947 
L 444.337484 126.611947 
" clip-path="url(#pabda2e1e33)" style="fill: none; stroke: #000000; stroke-width: 1.3; stroke-linecap: round"/>
   </g>
   <g id="matplotlib.axis_1">
    <g id="xtick_1">
     <g id="line2d_2">
      <defs>
       <path id="me8d8718710" d="M 0 0 
L 0 6 
" style="stroke: #262626; stroke-width: 0.8"/>
      </defs>
      <g>
       <use xlink:href="#me8d8718710" x="73.478165" y="218.209617" style="fill: #262626; stroke: #262626; stroke-width: 0.8"/>
      </g>
     </g>
     <g id="text_1">
      <!-- $\mathdefault{50}$ -->
      <g style="fill: #262626" transform="translate(67.998697 235.319964)scale(0.11 -0.11)">
       <defs>
        <path id="CMR17-35" d="M 730 3750 
C 794 3724 1056 3641 1325 3641 
C 1920 3641 2246 3961 2432 4140 
C 2432 4191 2432 4224 2394 4224 
C 2387 4224 2374 4224 2323 4198 
C 2099 4102 1837 4032 1517 4032 
C 1325 4032 1037 4055 723 4191 
C 653 4224 640 4224 634 4224 
C 602 4224 595 4217 595 4090 
L 595 2231 
C 595 2113 595 2080 659 2080 
C 691 2080 704 2093 736 2139 
C 941 2435 1222 2560 1542 2560 
C 1766 2560 2246 2415 2246 1293 
C 2246 1087 2246 716 2054 422 
C 1894 159 1645 25 1370 25 
C 947 25 518 319 403 812 
C 429 806 480 793 506 793 
C 589 793 749 838 749 1036 
C 749 1209 627 1280 506 1280 
C 358 1280 262 1190 262 1011 
C 262 454 704 -128 1382 -128 
C 2042 -128 2669 441 2669 1267 
C 2669 2054 2170 2662 1549 2662 
C 1222 2662 947 2540 730 2304 
L 730 3750 
z
" transform="scale(0.015625)"/>
        <path id="CMR17-30" d="M 2688 2038 
C 2688 2430 2682 3099 2413 3613 
C 2176 4063 1798 4224 1466 4224 
C 1158 4224 768 4082 525 3620 
C 269 3137 243 2539 243 2038 
C 243 1671 250 1112 448 623 
C 723 -39 1216 -128 1466 -128 
C 1760 -128 2208 -7 2470 604 
C 2662 1048 2688 1568 2688 2038 
z
M 1466 -26 
C 1056 -26 813 328 723 816 
C 653 1196 653 1749 653 2109 
C 653 2604 653 3015 736 3407 
C 858 3954 1216 4121 1466 4121 
C 1728 4121 2067 3947 2189 3420 
C 2272 3054 2278 2623 2278 2109 
C 2278 1691 2278 1176 2202 797 
C 2067 96 1690 -26 1466 -26 
z
" transform="scale(0.015625)"/>
       </defs>
       <use xlink:href="#CMR17-35" transform="scale(0.996264)"/>
       <use xlink:href="#CMR17-30" transform="translate(45.690477 0)scale(0.996264)"/>
      </g>
     </g>
    </g>
    <g id="xtick_2">
     <g id="line2d_3">
      <g>
       <use xlink:href="#me8d8718710" x="105.806319" y="218.209617" style="fill: #262626; stroke: #262626; stroke-width: 0.8"/>
      </g>
     </g>
     <g id="text_2">
      <!-- $\mathdefault{75}$ -->
      <g style="fill: #262626" transform="translate(100.326851 235.319964)scale(0.11 -0.11)">
       <defs>
        <path id="CMR17-37" d="M 2886 3955 
L 2886 4096 
L 1382 4096 
C 634 4096 621 4166 595 4288 
L 480 4288 
L 294 3104 
L 410 3104 
C 429 3226 474 3552 550 3673 
C 589 3724 1062 3724 1171 3724 
L 2579 3724 
L 1869 2670 
C 1395 1961 1069 1003 1069 166 
C 1069 89 1069 -128 1299 -128 
C 1530 -128 1530 89 1530 172 
L 1530 466 
C 1530 1514 1709 2204 2003 2644 
L 2886 3955 
z
" transform="scale(0.015625)"/>
       </defs>
       <use xlink:href="#CMR17-37" transform="scale(0.996264)"/>
       <use xlink:href="#CMR17-35" transform="translate(45.690477 0)scale(0.996264)"/>
      </g>
     </g>
    </g>
    <g id="xtick_3">
     <g id="line2d_4">
      <g>
       <use xlink:href="#me8d8718710" x="138.134473" y="218.209617" style="fill: #262626; stroke: #262626; stroke-width: 0.8"/>
      </g>
     </g>
     <g id="text_3">
      <!-- $\mathdefault{100}$ -->
      <g style="fill: #262626" transform="translate(129.915272 235.319964)scale(0.11 -0.11)">
       <defs>
        <path id="CMR17-31" d="M 1702 4083 
C 1702 4217 1696 4224 1606 4224 
C 1357 3927 979 3833 621 3820 
C 602 3820 570 3820 563 3808 
C 557 3795 557 3782 557 3648 
C 755 3648 1088 3686 1344 3839 
L 1344 467 
C 1344 243 1331 166 781 166 
L 589 166 
L 589 0 
C 896 6 1216 12 1523 12 
C 1830 12 2150 6 2458 0 
L 2458 166 
L 2266 166 
C 1715 166 1702 236 1702 467 
L 1702 4083 
z
" transform="scale(0.015625)"/>
       </defs>
       <use xlink:href="#CMR17-31" transform="scale(0.996264)"/>
       <use xlink:href="#CMR17-30" transform="translate(45.690477 0)scale(0.996264)"/>
       <use xlink:href="#CMR17-30" transform="translate(91.380954 0)scale(0.996264)"/>
      </g>
     </g>
    </g>
    <g id="xtick_4">
     <g id="line2d_5">
      <g>
       <use xlink:href="#me8d8718710" x="170.462626" y="218.209617" style="fill: #262626; stroke: #262626; stroke-width: 0.8"/>
      </g>
     </g>
     <g id="text_4">
      <!-- $\mathdefault{125}$ -->
      <g style="fill: #262626" transform="translate(162.243426 235.319964)scale(0.11 -0.11)">
       <defs>
        <path id="CMR17-32" d="M 2669 990 
L 2554 990 
C 2490 537 2438 460 2413 422 
C 2381 371 1920 371 1830 371 
L 602 371 
C 832 620 1280 1073 1824 1596 
C 2214 1966 2669 2400 2669 3033 
C 2669 3788 2067 4224 1395 4224 
C 691 4224 262 3603 262 3027 
C 262 2777 448 2745 525 2745 
C 589 2745 781 2783 781 3007 
C 781 3206 614 3264 525 3264 
C 486 3264 448 3257 422 3244 
C 544 3788 915 4057 1306 4057 
C 1862 4057 2227 3616 2227 3033 
C 2227 2477 1901 1998 1536 1583 
L 262 147 
L 262 0 
L 2515 0 
L 2669 990 
z
" transform="scale(0.015625)"/>
       </defs>
       <use xlink:href="#CMR17-31" transform="scale(0.996264)"/>
       <use xlink:href="#CMR17-32" transform="translate(45.690477 0)scale(0.996264)"/>
       <use xlink:href="#CMR17-35" transform="translate(91.380954 0)scale(0.996264)"/>
      </g>
     </g>
    </g>
    <g id="xtick_5">
     <g id="line2d_6">
      <g>
       <use xlink:href="#me8d8718710" x="202.79078" y="218.209617" style="fill: #262626; stroke: #262626; stroke-width: 0.8"/>
      </g>
     </g>
     <g id="text_5">
      <!-- $\mathdefault{150}$ -->
      <g style="fill: #262626" transform="translate(194.571579 235.319964)scale(0.11 -0.11)">
       <use xlink:href="#CMR17-31" transform="scale(0.996264)"/>
       <use xlink:href="#CMR17-35" transform="translate(45.690477 0)scale(0.996264)"/>
       <use xlink:href="#CMR17-30" transform="translate(91.380954 0)scale(0.996264)"/>
      </g>
     </g>
    </g>
   </g>
   <g id="matplotlib.axis_2">
    <g id="ytick_1">
     <g id="line2d_7">
      <path d="M 66.365971 190.12116 
L 222.834236 190.12116 
" clip-path="url(#pabda2e1e33)" style="fill: none; stroke: #cccccc; stroke-width: 0.8; stroke-linecap: round"/>
     </g>
     <g id="line2d_8">
      <defs>
       <path id="mc76bd016c9" d="M 0 0 
L -6 0 
" style="stroke: #262626; stroke-width: 0.8"/>
      </defs>
      <g>
       <use xlink:href="#mc76bd016c9" x="66.365971" y="190.12116" style="fill: #262626; stroke: #262626; stroke-width: 0.8"/>
      </g>
     </g>
     <g id="text_6">
      <!-- $-10\%$ -->
      <g style="fill: #262626" transform="translate(28.250987 193.926333)scale(0.11 -0.11)">
       <defs>
        <path id="CMSY10-0" d="M 4218 1472 
C 4326 1472 4442 1472 4442 1600 
C 4442 1728 4326 1728 4218 1728 
L 755 1728 
C 646 1728 531 1728 531 1600 
C 531 1472 646 1472 755 1472 
L 4218 1472 
z
" transform="scale(0.015625)"/>
        <path id="CMR17-25" d="M 4640 928 
C 4640 1670 4275 2214 3846 2214 
C 3411 2214 2970 1708 2970 928 
C 2970 147 3405 -359 3846 -359 
C 4275 -359 4640 179 4640 928 
z
M 3853 -256 
C 3686 -256 3270 -103 3270 928 
C 3270 1964 3686 2112 3853 2112 
C 4205 2112 4525 1606 4525 928 
C 4525 249 4205 -256 3853 -256 
z
M 4083 4572 
C 4128 4644 4134 4651 4134 4684 
C 4134 4761 4077 4800 4026 4800 
C 3962 4800 3936 4755 3891 4703 
C 3520 4155 3008 4096 2746 4096 
C 2106 4096 1715 4479 1594 4598 
C 1510 4677 1389 4800 1171 4800 
C 736 4800 294 4281 294 3496 
C 294 2718 730 2214 1171 2214 
C 1600 2214 1965 2750 1965 3496 
C 1965 3936 1830 4241 1811 4281 
C 2202 4025 2586 3993 2752 3993 
C 3162 3993 3456 4148 3616 4261 
L 3622 4254 
L 858 -122 
C 800 -212 800 -224 800 -244 
C 800 -314 858 -359 915 -359 
C 973 -359 992 -327 1037 -256 
L 4083 4572 
z
M 1178 2316 
C 1011 2316 595 2469 595 3496 
C 595 4545 1011 4697 1178 4697 
C 1530 4697 1850 4175 1850 3496 
C 1850 2820 1530 2316 1178 2316 
z
" transform="scale(0.015625)"/>
       </defs>
       <use xlink:href="#CMSY10-0" transform="scale(0.996264)"/>
       <use xlink:href="#CMR17-31" transform="translate(77.487468 0)scale(0.996264)"/>
       <use xlink:href="#CMR17-30" transform="translate(123.177945 0)scale(0.996264)"/>
       <use xlink:href="#CMR17-25" transform="translate(168.868422 0)scale(0.996264)"/>
      </g>
     </g>
    </g>
    <g id="ytick_2">
     <g id="line2d_9">
      <path d="M 66.365971 158.366553 
L 222.834236 158.366553 
" clip-path="url(#pabda2e1e33)" style="fill: none; stroke: #cccccc; stroke-width: 0.8; stroke-linecap: round"/>
     </g>
     <g id="line2d_10">
      <g>
       <use xlink:href="#mc76bd016c9" x="66.365971" y="158.366553" style="fill: #262626; stroke: #262626; stroke-width: 0.8"/>
      </g>
     </g>
     <g id="text_7">
      <!-- $-5\%$ -->
      <g style="fill: #262626" transform="translate(33.730454 162.171727)scale(0.11 -0.11)">
       <use xlink:href="#CMSY10-0" transform="scale(0.996264)"/>
       <use xlink:href="#CMR17-35" transform="translate(77.487468 0)scale(0.996264)"/>
       <use xlink:href="#CMR17-25" transform="translate(123.177945 0)scale(0.996264)"/>
      </g>
     </g>
    </g>
    <g id="ytick_3">
     <g id="line2d_11">
      <path d="M 66.365971 126.611947 
L 222.834236 126.611947 
" clip-path="url(#pabda2e1e33)" style="fill: none; stroke: #cccccc; stroke-width: 0.8; stroke-linecap: round"/>
     </g>
     <g id="line2d_12">
      <g>
       <use xlink:href="#mc76bd016c9" x="66.365971" y="126.611947" style="fill: #262626; stroke: #262626; stroke-width: 0.8"/>
      </g>
     </g>
     <g id="text_8">
      <!-- $0\%$ -->
      <g style="fill: #262626" transform="translate(42.254063 130.417121)scale(0.11 -0.11)">
       <use xlink:href="#CMR17-30" transform="scale(0.996264)"/>
       <use xlink:href="#CMR17-25" transform="translate(45.690477 0)scale(0.996264)"/>
      </g>
     </g>
    </g>
    <g id="ytick_4">
     <g id="line2d_13">
      <path d="M 66.365971 94.857341 
L 222.834236 94.857341 
" clip-path="url(#pabda2e1e33)" style="fill: none; stroke: #cccccc; stroke-width: 0.8; stroke-linecap: round"/>
     </g>
     <g id="line2d_14">
      <g>
       <use xlink:href="#mc76bd016c9" x="66.365971" y="94.857341" style="fill: #262626; stroke: #262626; stroke-width: 0.8"/>
      </g>
     </g>
     <g id="text_9">
      <!-- $5\%$ -->
      <g style="fill: #262626" transform="translate(42.254063 98.662515)scale(0.11 -0.11)">
       <use xlink:href="#CMR17-35" transform="scale(0.996264)"/>
       <use xlink:href="#CMR17-25" transform="translate(45.690477 0)scale(0.996264)"/>
      </g>
     </g>
    </g>
    <g id="ytick_5">
     <g id="line2d_15">
      <path d="M 66.365971 63.102735 
L 222.834236 63.102735 
" clip-path="url(#pabda2e1e33)" style="fill: none; stroke: #cccccc; stroke-width: 0.8; stroke-linecap: round"/>
     </g>
     <g id="line2d_16">
      <g>
       <use xlink:href="#mc76bd016c9" x="66.365971" y="63.102735" style="fill: #262626; stroke: #262626; stroke-width: 0.8"/>
      </g>
     </g>
     <g id="text_10">
      <!-- $10\%$ -->
      <g style="fill: #262626" transform="translate(36.774596 66.907909)scale(0.11 -0.11)">
       <use xlink:href="#CMR17-31" transform="scale(0.996264)"/>
       <use xlink:href="#CMR17-30" transform="translate(45.690477 0)scale(0.996264)"/>
       <use xlink:href="#CMR17-25" transform="translate(91.380954 0)scale(0.996264)"/>
      </g>
     </g>
    </g>
    <g id="ytick_6">
     <g id="line2d_17">
      <path d="M 66.365971 31.348129 
L 222.834236 31.348129 
" clip-path="url(#pabda2e1e33)" style="fill: none; stroke: #cccccc; stroke-width: 0.8; stroke-linecap: round"/>
     </g>
     <g id="line2d_18">
      <g>
       <use xlink:href="#mc76bd016c9" x="66.365971" y="31.348129" style="fill: #262626; stroke: #262626; stroke-width: 0.8"/>
      </g>
     </g>
     <g id="text_11">
      <!-- $15\%$ -->
      <g style="fill: #262626" transform="translate(36.774596 35.153303)scale(0.11 -0.11)">
       <use xlink:href="#CMR17-31" transform="scale(0.996264)"/>
       <use xlink:href="#CMR17-35" transform="translate(45.690477 0)scale(0.996264)"/>
       <use xlink:href="#CMR17-25" transform="translate(91.380954 0)scale(0.996264)"/>
      </g>
     </g>
    </g>
    <g id="text_12">
     <!-- \textbf{Margin \%} -->
     <g style="fill: #262626" transform="translate(21.926376 150.965973)rotate(-90)scale(0.12 -0.12)">
      <defs>
       <path id="CMSSBX10-4d" d="M 3552 2080 
C 3418 1756 3181 1171 3130 948 
L 3123 948 
C 3066 1177 2803 1807 2669 2144 
L 1850 4154 
C 1741 4416 1536 4416 1421 4416 
L 890 4416 
C 659 4416 582 4345 582 4109 
L 582 306 
C 582 76 653 0 890 0 
L 1062 0 
C 1306 0 1370 83 1370 306 
L 1370 3594 
L 1376 3594 
C 1446 3308 1734 2602 1888 2226 
L 2630 414 
C 2746 140 2899 140 3117 140 
C 3334 140 3488 140 3603 414 
L 4422 2411 
C 4486 2564 4832 3429 4877 3594 
L 4883 3594 
L 4883 306 
C 4883 102 4928 0 5190 0 
L 5363 0 
C 5606 0 5670 83 5670 306 
L 5670 4109 
C 5670 4313 5626 4416 5363 4416 
L 4826 4416 
C 4666 4416 4506 4403 4397 4141 
L 3552 2080 
z
" transform="scale(0.015625)"/>
       <path id="CMSSBX10-61" d="M 2970 2047 
C 2970 3065 1997 3072 1677 3072 
C 1376 3072 1056 3046 627 2867 
C 493 2809 461 2790 461 2719 
C 461 2675 499 2300 506 2248 
C 512 2209 544 2177 589 2177 
C 621 2177 640 2196 659 2215 
C 934 2507 1254 2649 1651 2649 
C 1997 2649 2099 2436 2099 2054 
L 2099 1827 
C 1875 1827 198 1814 198 862 
C 198 409 557 -64 1120 -64 
C 1338 -64 1818 0 2118 442 
L 2118 313 
C 2118 108 2163 6 2426 6 
L 2662 6 
C 2906 6 2970 89 2970 313 
L 2970 2047 
z
M 2099 998 
C 2099 396 1491 396 1472 396 
C 1203 396 1030 629 1030 875 
C 1030 1510 1920 1555 2099 1562 
L 2099 998 
z
" transform="scale(0.015625)"/>
       <path id="CMSSBX10-72" d="M 1242 1456 
C 1242 2057 1747 2304 2150 2329 
C 2266 2335 2278 2335 2278 2502 
L 2278 2803 
C 2278 2931 2278 2976 2163 2976 
C 1984 2976 1517 2911 1216 2222 
L 1210 2222 
L 1210 2636 
C 1210 2841 1165 2944 902 2944 
L 698 2944 
C 467 2944 390 2873 390 2636 
L 390 305 
C 390 76 461 0 698 0 
L 934 0 
C 1178 0 1242 83 1242 305 
L 1242 1456 
z
" transform="scale(0.015625)"/>
       <path id="CMSSBX10-67" d="M 1280 569 
C 1050 569 960 569 870 651 
C 845 678 736 780 736 953 
C 736 998 742 1011 749 1049 
C 1050 883 1427 883 1562 883 
C 1830 883 2848 883 2848 1942 
C 2848 2315 2707 2540 2650 2611 
C 2758 2611 2982 2611 3245 2540 
C 3270 2527 3315 2514 3334 2514 
C 3386 2514 3418 2553 3418 2598 
C 3418 2623 3386 2777 3373 2841 
C 3347 2995 3347 3008 3232 3008 
C 3034 3008 2714 2931 2470 2783 
C 2170 2982 1837 3008 1562 3008 
C 1293 3008 275 3008 275 1948 
C 275 1691 346 1369 589 1158 
C 416 921 416 658 416 624 
C 416 499 454 288 589 115 
C 493 76 160 -39 160 -451 
C 160 -651 256 -986 659 -1172 
C 1024 -1338 1453 -1344 1754 -1344 
C 2131 -1344 3354 -1344 3354 -432 
C 3354 569 2451 569 1587 569 
L 1280 569 
z
M 1562 1344 
C 1114 1344 1094 1588 1094 1942 
C 1094 2296 1114 2547 1562 2547 
C 2010 2547 2029 2302 2029 1948 
C 2029 1594 2010 1344 1562 1344 
z
M 1907 -128 
C 2426 -128 2694 -219 2694 -451 
C 2694 -884 1965 -884 1760 -884 
C 1504 -884 819 -884 819 -432 
C 819 -128 1018 -128 1165 -128 
L 1907 -128 
z
" transform="scale(0.015625)"/>
       <path id="CMSSBX10-69" d="M 653 4480 
C 448 4480 346 4441 346 4185 
L 346 3891 
C 346 3686 410 3603 646 3603 
L 979 3603 
C 1286 3603 1286 3737 1286 4038 
C 1286 4345 1286 4480 979 4480 
L 653 4480 
z
M 1242 2635 
C 1242 2841 1197 2944 934 2944 
L 698 2944 
C 467 2944 390 2873 390 2635 
L 390 308 
C 390 76 461 0 698 0 
L 934 0 
C 1178 0 1242 83 1242 308 
L 1242 2635 
z
" transform="scale(0.015625)"/>
       <path id="CMSSBX10-6e" d="M 3200 2085 
C 3200 2745 2918 3008 2266 3008 
C 1594 3008 1306 2521 1222 2348 
L 1216 2348 
L 1216 2668 
C 1216 2873 1171 2975 909 2975 
L 691 2975 
C 461 2975 384 2905 384 2668 
L 384 307 
C 384 76 454 0 691 0 
L 947 0 
C 1190 0 1254 83 1254 307 
L 1254 1725 
C 1254 2284 1626 2547 1958 2547 
C 2266 2547 2330 2399 2330 2072 
L 2330 307 
C 2330 102 2374 0 2637 0 
L 2893 0 
C 3136 0 3200 83 3200 307 
L 3200 2085 
z
" transform="scale(0.015625)"/>
       <path id="CMSSBX10-25" d="M 5235 4332 
C 5312 4435 5312 4511 5312 4531 
C 5312 4671 5197 4800 5043 4800 
C 4909 4800 4838 4703 4806 4665 
L 1370 83 
C 1325 19 1286 -26 1286 -116 
C 1286 -263 1408 -384 1555 -384 
C 1690 -384 1760 -295 1792 -250 
L 5235 4332 
z
M 6189 918 
C 6189 1466 6042 2227 5043 2227 
C 4288 2227 3878 1804 3878 924 
C 3878 318 4070 -384 5043 -384 
C 5920 -384 6189 207 6189 918 
z
M 5037 76 
C 4646 76 4646 520 4646 924 
C 4646 1322 4646 1766 5037 1766 
C 5459 1766 5459 1133 5459 924 
C 5459 709 5459 76 5037 76 
z
M 2701 3510 
C 2701 4045 2554 4800 1555 4800 
C 800 4800 390 4377 390 3516 
C 390 2923 582 2227 1555 2227 
C 2432 2227 2701 2815 2701 3510 
z
M 1549 2688 
C 1158 2688 1158 3121 1158 3510 
C 1158 3905 1158 4339 1549 4339 
C 1971 4339 1971 3720 1971 3516 
C 1971 3306 1971 2688 1549 2688 
z
" transform="scale(0.015625)"/>
      </defs>
      <use xlink:href="#CMSSBX10-4d" transform="scale(0.996264)"/>
      <use xlink:href="#CMSSBX10-61" transform="translate(97.413021 0)scale(0.996264)"/>
      <use xlink:href="#CMSSBX10-72" transform="translate(146.67306 0)scale(0.996264)"/>
      <use xlink:href="#CMSSBX10-67" transform="translate(183.75647 0)scale(0.996264)"/>
      <use xlink:href="#CMSSBX10-69" transform="translate(238.551294 0)scale(0.996264)"/>
      <use xlink:href="#CMSSBX10-6e" transform="translate(264.011513 0)scale(0.996264)"/>
      <use xlink:href="#CMSSBX10-25" transform="translate(356.443184 0)scale(0.996264)"/>
     </g>
    </g>
   </g>
   <g id="line2d_19">
    <path d="M 73.478165 209.593084 
L 74.771291 205.475446 
L 76.064417 201.516178 
L 77.357543 197.706316 
L 78.650669 194.037561 
L 79.943796 190.502215 
L 81.236922 187.093131 
L 82.530048 183.803664 
L 83.823174 180.627627 
L 85.1163 177.559253 
L 86.409426 174.593157 
L 87.702552 171.724311 
L 88.995679 168.948008 
L 90.288805 166.259841 
L 91.581931 163.65568 
L 92.875057 161.131647 
L 94.168183 158.6841 
L 95.461309 156.309613 
L 96.754436 154.004965 
L 98.047562 151.767118 
L 99.340688 149.593209 
L 100.633814 147.480538 
L 101.92694 145.426552 
L 103.220066 143.428839 
L 104.513192 141.485118 
L 105.806319 139.59323 
L 107.099445 137.751129 
L 108.392571 135.956874 
L 109.685697 134.208626 
L 110.978823 132.504638 
L 112.271949 130.843249 
L 113.565076 129.222882 
L 114.858202 127.642036 
L 116.151328 126.099283 
L 117.444454 124.593262 
L 118.73758 123.122677 
L 120.030706 121.686291 
L 121.323833 120.282926 
L 122.616959 118.911455 
L 123.910085 117.570805 
L 125.203211 116.259946 
L 126.496337 114.977897 
L 127.789463 113.723719 
L 129.082589 112.496513 
L 130.375716 111.295417 
L 131.668842 110.119608 
L 132.961968 108.968294 
L 134.255094 107.840719 
L 135.54822 106.736156 
L 136.841346 105.653907 
L 138.134473 104.593304 
L 139.427599 103.553702 
L 140.720725 102.534484 
L 142.013851 101.535058 
L 143.306977 100.55485 
L 144.600103 99.593314 
L 145.893229 98.64992 
L 147.186356 97.724159 
L 148.479482 96.815542 
L 149.772608 95.923597 
L 151.065734 95.047869 
L 152.35886 94.18792 
L 153.651986 93.343327 
L 154.945113 92.513683 
L 156.238239 91.698594 
L 157.531365 90.89768 
L 158.824491 90.110575 
L 160.117617 89.336925 
L 161.410743 88.576388 
L 162.703869 87.828633 
L 163.996996 87.09334 
L 165.290122 86.370201 
L 166.583248 85.658917 
L 167.876374 84.959198 
L 169.1695 84.270765 
L 170.462626 83.593348 
L 171.755753 82.926682 
L 173.048879 82.270516 
L 174.342005 81.624602 
L 175.635131 80.988702 
L 176.928257 80.362585 
L 178.221383 79.746027 
L 179.51451 79.138811 
L 180.807636 78.540726 
L 182.100762 77.951568 
L 183.393888 77.371138 
L 184.687014 76.799244 
L 185.98014 76.235699 
L 187.273266 75.680321 
L 188.566393 75.132934 
L 189.859519 74.593366 
L 191.152645 74.061453 
L 192.445771 73.537031 
L 193.738897 73.019943 
L 195.032023 72.510037 
L 196.32515 72.007165 
L 197.618276 71.511181 
L 198.911402 71.021945 
L 200.204528 70.539321 
L 201.497654 70.063174 
L 202.79078 69.593377 
L 204.083906 69.129802 
L 205.377033 68.672326 
L 206.670159 68.220831 
L 207.963285 67.775199 
L 209.256411 67.335317 
L 210.549537 66.901075 
L 211.842663 66.472364 
L 213.13579 66.04908 
L 214.428916 65.631121 
L 215.722042 65.218386 
" clip-path="url(#pabda2e1e33)" style="fill: none; stroke: #207720; stroke-width: 1.5; stroke-linecap: round"/>
   </g>
   <g id="line2d_20">
    <path d="M 73.478165 141.854158 
L 74.771291 139.064734 
L 76.064417 136.382595 
L 77.357543 133.80167 
L 78.650669 131.316334 
L 79.943796 128.921373 
L 81.236922 126.611947 
L 82.530048 124.383554 
L 83.823174 122.232002 
L 85.1163 120.153383 
L 86.409426 118.144052 
L 87.702552 116.200601 
L 88.995679 114.319842 
L 90.288805 112.498789 
L 91.581931 110.734644 
L 92.875057 109.024781 
L 94.168183 107.366732 
L 95.461309 105.758176 
L 96.754436 104.196931 
L 98.047562 102.68094 
L 99.340688 101.208263 
L 100.633814 99.777069 
L 101.92694 98.385631 
L 103.220066 97.032314 
L 104.513192 95.715574 
L 105.806319 94.433947 
L 107.099445 93.186046 
L 108.392571 91.970559 
L 109.685697 90.786238 
L 110.978823 89.6319 
L 112.271949 88.50642 
L 113.565076 87.40873 
L 114.858202 86.337813 
L 116.151328 85.292701 
L 117.444454 84.272473 
L 118.73758 83.27625 
L 120.030706 82.303195 
L 121.323833 81.352509 
L 122.616959 80.42343 
L 123.910085 79.515228 
L 125.203211 78.627209 
L 126.496337 77.758707 
L 127.789463 76.909086 
L 129.082589 76.077736 
L 130.375716 75.264074 
L 131.668842 74.467542 
L 132.961968 73.687604 
L 134.255094 72.923747 
L 135.54822 72.17548 
L 136.841346 71.442329 
L 138.134473 70.723841 
L 139.427599 70.01958 
L 140.720725 69.329129 
L 142.013851 68.652084 
L 143.306977 67.988059 
L 144.600103 67.336683 
L 145.893229 66.697596 
L 147.186356 66.070455 
L 148.479482 65.454928 
L 149.772608 64.850695 
L 151.065734 64.257448 
L 152.35886 63.67489 
L 153.651986 63.102735 
L 154.945113 62.540707 
L 156.238239 61.988539 
L 157.531365 61.445973 
L 158.824491 60.912762 
L 160.117617 60.388666 
L 161.410743 59.873453 
L 162.703869 59.366899 
L 163.996996 58.868788 
L 165.290122 58.37891 
L 166.583248 57.897062 
L 167.876374 57.42305 
L 169.1695 56.956683 
L 170.462626 56.497777 
L 171.755753 56.046156 
L 173.048879 55.601647 
L 174.342005 55.164084 
L 175.635131 54.733304 
L 176.928257 54.309152 
L 178.221383 53.891476 
L 179.51451 53.480127 
L 180.807636 53.074965 
L 182.100762 52.67585 
L 183.393888 52.282647 
L 184.687014 51.895227 
L 185.98014 51.513463 
L 187.273266 51.137232 
L 188.566393 50.766414 
L 189.859519 50.400893 
L 191.152645 50.040557 
L 192.445771 49.685296 
L 193.738897 49.335004 
L 195.032023 48.989577 
L 196.32515 48.648915 
L 197.618276 48.312919 
L 198.911402 47.981494 
L 200.204528 47.654549 
L 201.497654 47.331991 
L 202.79078 47.013735 
L 204.083906 46.699694 
L 205.377033 46.389785 
L 206.670159 46.083927 
L 207.963285 45.782041 
L 209.256411 45.484051 
L 210.549537 45.189881 
L 211.842663 44.899458 
L 213.13579 44.612712 
L 214.428916 44.329572 
L 215.722042 44.049972 
" clip-path="url(#pabda2e1e33)" style="fill: none; stroke: #234990; stroke-width: 1.5; stroke-linecap: round"/>
   </g>
   <g id="line2d_21">
    <path d="M 73.478165 120.134008 
L 74.771291 117.770469 
L 76.064417 115.497835 
L 77.357543 113.310961 
L 78.650669 111.205083 
L 79.943796 109.175782 
L 81.236922 107.218956 
L 82.530048 105.33079 
L 83.823174 103.507734 
L 85.1163 101.746476 
L 86.409426 100.043927 
L 87.702552 98.397199 
L 88.995679 96.803591 
L 90.288805 95.260574 
L 91.581931 93.765777 
L 92.875057 92.316973 
L 94.168183 90.912072 
L 95.461309 89.549109 
L 96.754436 88.226232 
L 98.047562 86.9417 
L 99.340688 85.693869 
L 100.633814 84.481188 
L 101.92694 83.302193 
L 103.220066 82.155499 
L 104.513192 81.039797 
L 105.806319 79.953846 
L 107.099445 78.896474 
L 108.392571 77.866565 
L 109.685697 76.863065 
L 110.978823 75.884969 
L 112.271949 74.931326 
L 113.565076 74.00123 
L 114.858202 73.093819 
L 116.151328 72.208273 
L 117.444454 71.343812 
L 118.73758 70.499691 
L 120.030706 69.6752 
L 121.323833 68.869664 
L 122.616959 68.082435 
L 123.910085 67.312897 
L 125.203211 66.560459 
L 126.496337 65.824559 
L 127.789463 65.104656 
L 129.082589 64.400235 
L 130.375716 63.710802 
L 131.668842 63.035884 
L 132.961968 62.375026 
L 134.255094 61.727794 
L 135.54822 61.09377 
L 136.841346 60.472556 
L 138.134473 59.863765 
L 139.427599 59.26703 
L 140.720725 58.681996 
L 142.013851 58.108322 
L 143.306977 57.545679 
L 144.600103 56.993754 
L 145.893229 56.452242 
L 147.186356 55.920852 
L 148.479482 55.399303 
L 149.772608 54.887323 
L 151.065734 54.384653 
L 152.35886 53.891039 
L 153.651986 53.40624 
L 154.945113 52.930021 
L 156.238239 52.462157 
L 157.531365 52.00243 
L 158.824491 51.550629 
L 160.117617 51.106551 
L 161.410743 50.67 
L 162.703869 50.240786 
L 163.996996 49.818725 
L 165.290122 49.403641 
L 166.583248 48.995361 
L 167.876374 48.59372 
L 169.1695 48.198557 
L 170.462626 47.809717 
L 171.755753 47.427049 
L 173.048879 47.050407 
L 174.342005 46.67965 
L 175.635131 46.314641 
L 176.928257 45.955248 
L 178.221383 45.601342 
L 179.51451 45.252798 
L 180.807636 44.909495 
L 182.100762 44.571316 
L 183.393888 44.238147 
L 184.687014 43.909878 
L 185.98014 43.586401 
L 187.273266 43.267612 
L 188.566393 42.95341 
L 189.859519 42.643696 
L 191.152645 42.338376 
L 192.445771 42.037356 
L 193.738897 41.740546 
L 195.032023 41.447858 
L 196.32515 41.159208 
L 197.618276 40.874511 
L 198.911402 40.593688 
L 200.204528 40.31666 
L 201.497654 40.04335 
L 202.79078 39.773685 
L 204.083906 39.507591 
L 205.377033 39.244998 
L 206.670159 38.985838 
L 207.963285 38.730044 
L 209.256411 38.47755 
L 210.549537 38.228294 
L 211.842663 37.982213 
L 213.13579 37.739246 
L 214.428916 37.499336 
L 215.722042 37.262425 
" clip-path="url(#pabda2e1e33)" style="fill: none; stroke: #e23726; stroke-width: 1.5; stroke-linecap: round"/>
   </g>
   <g id="patch_3">
    <path d="M 66.365971 218.209617 
L 66.365971 28.645892 
" style="fill: none; stroke: #262626; stroke-width: 1.25; stroke-linejoin: miter; stroke-linecap: square"/>
   </g>
   <g id="patch_4">
    <path d="M 222.834236 218.209617 
L 222.834236 28.645892 
" style="fill: none; stroke: #262626; stroke-width: 1.25; stroke-linejoin: miter; stroke-linecap: square"/>
   </g>
   <g id="patch_5">
    <path d="M 66.365971 218.209617 
L 222.834236 218.209617 
" style="fill: none; stroke: #262626; stroke-width: 1.25; stroke-linejoin: miter; stroke-linecap: square"/>
   </g>
   <g id="patch_6">
    <path d="M 66.365971 28.645892 
L 222.834236 28.645892 
" style="fill: none; stroke: #262626; stroke-width: 1.25; stroke-linejoin: miter; stroke-linecap: square"/>
   </g>
   <g id="text_13">
    <!-- \textbf{Albstadt} -->
    <g style="fill: #262626" transform="translate(117.638306 22.645892)scale(0.14 -0.14)">
     <defs>
      <path id="CMSSBX10-41" d="M 3034 4142 
C 2938 4416 2752 4416 2624 4416 
L 2061 4416 
C 1933 4416 1747 4416 1651 4142 
L 301 299 
C 269 216 269 204 269 172 
C 269 0 429 0 518 0 
L 749 0 
C 864 0 1062 0 1152 255 
L 1402 960 
L 3174 960 
L 3392 350 
C 3469 128 3514 0 3821 0 
L 4166 0 
C 4256 0 4416 0 4416 172 
C 4416 204 4416 216 4384 299 
L 3034 4142 
z
M 2054 2858 
C 2150 3137 2234 3379 2285 3608 
L 2291 3608 
C 2323 3455 2323 3442 2374 3296 
L 2982 1510 
L 1594 1510 
L 2054 2858 
z
" transform="scale(0.015625)"/>
      <path id="CMSSBX10-6c" d="M 1242 4109 
C 1242 4313 1197 4416 934 4416 
L 698 4416 
C 467 4416 390 4345 390 4109 
L 390 306 
C 390 76 461 0 698 0 
L 934 0 
C 1178 0 1242 83 1242 306 
L 1242 4109 
z
" transform="scale(0.015625)"/>
      <path id="CMSSBX10-62" d="M 1242 4113 
C 1242 4313 1197 4416 934 4416 
L 698 4416 
C 467 4416 390 4345 390 4113 
L 390 313 
C 390 83 461 6 698 6 
L 954 6 
C 1062 6 1254 6 1261 256 
C 1555 -64 1882 -64 1984 -64 
C 3347 -64 3347 1164 3347 1484 
C 3347 1791 3347 3008 2144 3008 
C 1619 3008 1299 2713 1242 2649 
L 1242 4113 
z
M 1261 2323 
C 1344 2399 1536 2547 1830 2547 
C 2477 2547 2477 1958 2477 1478 
C 2477 1004 2477 396 1760 396 
C 1491 396 1331 556 1261 646 
L 1261 2323 
z
" transform="scale(0.015625)"/>
      <path id="CMSSBX10-73" d="M 2534 914 
C 2534 1277 2342 1503 2227 1607 
C 1971 1840 1747 1879 1478 1931 
C 1126 1995 870 2047 870 2300 
C 870 2565 1082 2617 1331 2617 
C 1760 2617 1990 2455 2157 2313 
C 2221 2248 2234 2248 2259 2248 
C 2323 2248 2336 2306 2342 2332 
C 2355 2384 2419 2745 2419 2777 
C 2419 2879 2080 2969 2010 2995 
C 1754 3065 1549 3072 1382 3072 
C 1094 3072 237 3072 237 2151 
C 237 1833 378 1639 550 1484 
C 774 1277 1024 1231 1389 1160 
C 1574 1128 1901 1069 1901 784 
C 1901 480 1651 435 1402 435 
C 1120 435 762 519 461 882 
C 429 914 410 933 371 933 
C 307 933 294 875 288 836 
C 275 746 198 377 198 313 
C 198 198 672 51 678 44 
C 1030 -64 1293 -64 1402 -64 
C 1728 -64 2534 -39 2534 914 
z
" transform="scale(0.015625)"/>
      <path id="CMSSBX10-74" d="M 1395 2483 
L 1965 2483 
C 2042 2483 2272 2483 2272 2713 
C 2272 2944 2042 2944 1965 2944 
L 1395 2944 
L 1395 3470 
C 1395 3673 1350 3776 1088 3776 
L 890 3776 
C 659 3776 582 3705 582 3470 
L 582 2944 
L 435 2944 
C 365 2944 128 2944 128 2713 
C 128 2483 358 2483 435 2483 
L 563 2483 
L 563 858 
C 563 211 794 -64 1235 -64 
C 1293 -64 1574 -64 1907 38 
C 2016 70 2387 185 2387 307 
C 2387 326 2374 371 2336 505 
C 2304 634 2291 672 2234 672 
C 2202 672 2195 666 2157 627 
C 2086 576 1914 435 1645 435 
C 1491 435 1395 544 1395 968 
L 1395 2483 
z
" transform="scale(0.015625)"/>
      <path id="CMSSBX10-64" d="M 3194 4113 
C 3194 4313 3149 4416 2886 4416 
L 2650 4416 
C 2406 4416 2342 4332 2342 4113 
L 2342 2687 
C 2054 2963 1734 3008 1536 3008 
C 237 3008 237 1779 237 1465 
C 237 1171 237 -64 1504 -64 
C 1773 -64 2048 12 2323 307 
C 2323 70 2413 6 2630 6 
L 2886 6 
C 3130 6 3194 89 3194 313 
L 3194 4113 
z
M 2323 806 
C 2323 697 2323 640 2138 512 
C 1978 409 1830 396 1754 396 
C 1107 396 1107 985 1107 1465 
C 1107 1945 1107 2547 1824 2547 
C 2010 2547 2182 2483 2323 2348 
L 2323 806 
z
" transform="scale(0.015625)"/>
     </defs>
     <use xlink:href="#CMSSBX10-41" transform="scale(0.996264)"/>
     <use xlink:href="#CMSSBX10-6c" transform="translate(73.059766 0)scale(0.996264)"/>
     <use xlink:href="#CMSSBX10-62" transform="translate(98.519985 0)scale(0.996264)"/>
     <use xlink:href="#CMSSBX10-73" transform="translate(154.421773 0)scale(0.996264)"/>
     <use xlink:href="#CMSSBX10-74" transform="translate(196.431138 0)scale(0.996264)"/>
     <use xlink:href="#CMSSBX10-61" transform="translate(236.697042 0)scale(0.996264)"/>
     <use xlink:href="#CMSSBX10-64" transform="translate(289.001237 0)scale(0.996264)"/>
     <use xlink:href="#CMSSBX10-74" transform="translate(344.903025 0)scale(0.996264)"/>
    </g>
   </g>
  </g>
  <g id="axes_2">
   <g id="patch_7">
    <path d="M 273.90922 218.209617 
L 430.377484 218.209617 
L 430.377484 28.645892 
L 273.90922 28.645892 
z
" style="fill: #ffffff"/>
   </g>
   <g id="line2d_22">
    <path d="M 273.90922 124.39344 
L 444.337484 124.39344 
" clip-path="url(#p3a060fdb7f)" style="fill: none; stroke: #000000; stroke-width: 1.3; stroke-linecap: round"/>
   </g>
   <g id="matplotlib.axis_3">
    <g id="xtick_6">
     <g id="line2d_23">
      <g>
       <use xlink:href="#me8d8718710" x="281.021413" y="218.209617" style="fill: #262626; stroke: #262626; stroke-width: 0.8"/>
      </g>
     </g>
     <g id="text_14">
      <!-- $\mathdefault{50}$ -->
      <g style="fill: #262626" transform="translate(275.541946 235.319964)scale(0.11 -0.11)">
       <use xlink:href="#CMR17-35" transform="scale(0.996264)"/>
       <use xlink:href="#CMR17-30" transform="translate(45.690477 0)scale(0.996264)"/>
      </g>
     </g>
    </g>
    <g id="xtick_7">
     <g id="line2d_24">
      <g>
       <use xlink:href="#me8d8718710" x="313.349567" y="218.209617" style="fill: #262626; stroke: #262626; stroke-width: 0.8"/>
      </g>
     </g>
     <g id="text_15">
      <!-- $\mathdefault{75}$ -->
      <g style="fill: #262626" transform="translate(307.8701 235.319964)scale(0.11 -0.11)">
       <use xlink:href="#CMR17-37" transform="scale(0.996264)"/>
       <use xlink:href="#CMR17-35" transform="translate(45.690477 0)scale(0.996264)"/>
      </g>
     </g>
    </g>
    <g id="xtick_8">
     <g id="line2d_25">
      <g>
       <use xlink:href="#me8d8718710" x="345.677721" y="218.209617" style="fill: #262626; stroke: #262626; stroke-width: 0.8"/>
      </g>
     </g>
     <g id="text_16">
      <!-- $\mathdefault{100}$ -->
      <g style="fill: #262626" transform="translate(337.45852 235.319964)scale(0.11 -0.11)">
       <use xlink:href="#CMR17-31" transform="scale(0.996264)"/>
       <use xlink:href="#CMR17-30" transform="translate(45.690477 0)scale(0.996264)"/>
       <use xlink:href="#CMR17-30" transform="translate(91.380954 0)scale(0.996264)"/>
      </g>
     </g>
    </g>
    <g id="xtick_9">
     <g id="line2d_26">
      <g>
       <use xlink:href="#me8d8718710" x="378.005875" y="218.209617" style="fill: #262626; stroke: #262626; stroke-width: 0.8"/>
      </g>
     </g>
     <g id="text_17">
      <!-- $\mathdefault{125}$ -->
      <g style="fill: #262626" transform="translate(369.786674 235.319964)scale(0.11 -0.11)">
       <use xlink:href="#CMR17-31" transform="scale(0.996264)"/>
       <use xlink:href="#CMR17-32" transform="translate(45.690477 0)scale(0.996264)"/>
       <use xlink:href="#CMR17-35" transform="translate(91.380954 0)scale(0.996264)"/>
      </g>
     </g>
    </g>
    <g id="xtick_10">
     <g id="line2d_27">
      <g>
       <use xlink:href="#me8d8718710" x="410.334029" y="218.209617" style="fill: #262626; stroke: #262626; stroke-width: 0.8"/>
      </g>
     </g>
     <g id="text_18">
      <!-- $\mathdefault{150}$ -->
      <g style="fill: #262626" transform="translate(402.114828 235.319964)scale(0.11 -0.11)">
       <use xlink:href="#CMR17-31" transform="scale(0.996264)"/>
       <use xlink:href="#CMR17-35" transform="translate(45.690477 0)scale(0.996264)"/>
       <use xlink:href="#CMR17-30" transform="translate(91.380954 0)scale(0.996264)"/>
      </g>
     </g>
    </g>
   </g>
   <g id="matplotlib.axis_4">
    <g id="ytick_7">
     <g id="line2d_28">
      <path d="M 273.90922 187.049451 
L 430.377484 187.049451 
" clip-path="url(#p3a060fdb7f)" style="fill: none; stroke: #cccccc; stroke-width: 0.8; stroke-linecap: round"/>
     </g>
     <g id="line2d_29">
      <g>
       <use xlink:href="#mc76bd016c9" x="273.90922" y="187.049451" style="fill: #262626; stroke: #262626; stroke-width: 0.8"/>
      </g>
     </g>
     <g id="text_19">
      <!-- $-10\%$ -->
      <g style="fill: #262626" transform="translate(235.794236 190.854625)scale(0.11 -0.11)">
       <use xlink:href="#CMSY10-0" transform="scale(0.996264)"/>
       <use xlink:href="#CMR17-31" transform="translate(77.487468 0)scale(0.996264)"/>
       <use xlink:href="#CMR17-30" transform="translate(123.177945 0)scale(0.996264)"/>
       <use xlink:href="#CMR17-25" transform="translate(168.868422 0)scale(0.996264)"/>
      </g>
     </g>
    </g>
    <g id="ytick_8">
     <g id="line2d_30">
      <path d="M 273.90922 155.721446 
L 430.377484 155.721446 
" clip-path="url(#p3a060fdb7f)" style="fill: none; stroke: #cccccc; stroke-width: 0.8; stroke-linecap: round"/>
     </g>
     <g id="line2d_31">
      <g>
       <use xlink:href="#mc76bd016c9" x="273.90922" y="155.721446" style="fill: #262626; stroke: #262626; stroke-width: 0.8"/>
      </g>
     </g>
     <g id="text_20">
      <!-- $-5\%$ -->
      <g style="fill: #262626" transform="translate(241.273703 159.526619)scale(0.11 -0.11)">
       <use xlink:href="#CMSY10-0" transform="scale(0.996264)"/>
       <use xlink:href="#CMR17-35" transform="translate(77.487468 0)scale(0.996264)"/>
       <use xlink:href="#CMR17-25" transform="translate(123.177945 0)scale(0.996264)"/>
      </g>
     </g>
    </g>
    <g id="ytick_9">
     <g id="line2d_32">
      <path d="M 273.90922 124.39344 
L 430.377484 124.39344 
" clip-path="url(#p3a060fdb7f)" style="fill: none; stroke: #cccccc; stroke-width: 0.8; stroke-linecap: round"/>
     </g>
     <g id="line2d_33">
      <g>
       <use xlink:href="#mc76bd016c9" x="273.90922" y="124.39344" style="fill: #262626; stroke: #262626; stroke-width: 0.8"/>
      </g>
     </g>
     <g id="text_21">
      <!-- $0\%$ -->
      <g style="fill: #262626" transform="translate(249.797312 128.198613)scale(0.11 -0.11)">
       <use xlink:href="#CMR17-30" transform="scale(0.996264)"/>
       <use xlink:href="#CMR17-25" transform="translate(45.690477 0)scale(0.996264)"/>
      </g>
     </g>
    </g>
    <g id="ytick_10">
     <g id="line2d_34">
      <path d="M 273.90922 93.065435 
L 430.377484 93.065435 
" clip-path="url(#p3a060fdb7f)" style="fill: none; stroke: #cccccc; stroke-width: 0.8; stroke-linecap: round"/>
     </g>
     <g id="line2d_35">
      <g>
       <use xlink:href="#mc76bd016c9" x="273.90922" y="93.065435" style="fill: #262626; stroke: #262626; stroke-width: 0.8"/>
      </g>
     </g>
     <g id="text_22">
      <!-- $5\%$ -->
      <g style="fill: #262626" transform="translate(249.797312 96.870608)scale(0.11 -0.11)">
       <use xlink:href="#CMR17-35" transform="scale(0.996264)"/>
       <use xlink:href="#CMR17-25" transform="translate(45.690477 0)scale(0.996264)"/>
      </g>
     </g>
    </g>
    <g id="ytick_11">
     <g id="line2d_36">
      <path d="M 273.90922 61.737429 
L 430.377484 61.737429 
" clip-path="url(#p3a060fdb7f)" style="fill: none; stroke: #cccccc; stroke-width: 0.8; stroke-linecap: round"/>
     </g>
     <g id="line2d_37">
      <g>
       <use xlink:href="#mc76bd016c9" x="273.90922" y="61.737429" style="fill: #262626; stroke: #262626; stroke-width: 0.8"/>
      </g>
     </g>
     <g id="text_23">
      <!-- $10\%$ -->
      <g style="fill: #262626" transform="translate(244.317845 65.542602)scale(0.11 -0.11)">
       <use xlink:href="#CMR17-31" transform="scale(0.996264)"/>
       <use xlink:href="#CMR17-30" transform="translate(45.690477 0)scale(0.996264)"/>
       <use xlink:href="#CMR17-25" transform="translate(91.380954 0)scale(0.996264)"/>
      </g>
     </g>
    </g>
    <g id="ytick_12">
     <g id="line2d_38">
      <path d="M 273.90922 30.409423 
L 430.377484 30.409423 
" clip-path="url(#p3a060fdb7f)" style="fill: none; stroke: #cccccc; stroke-width: 0.8; stroke-linecap: round"/>
     </g>
     <g id="line2d_39">
      <g>
       <use xlink:href="#mc76bd016c9" x="273.90922" y="30.409423" style="fill: #262626; stroke: #262626; stroke-width: 0.8"/>
      </g>
     </g>
     <g id="text_24">
      <!-- $15\%$ -->
      <g style="fill: #262626" transform="translate(244.317845 34.214597)scale(0.11 -0.11)">
       <use xlink:href="#CMR17-31" transform="scale(0.996264)"/>
       <use xlink:href="#CMR17-35" transform="translate(45.690477 0)scale(0.996264)"/>
       <use xlink:href="#CMR17-25" transform="translate(91.380954 0)scale(0.996264)"/>
      </g>
     </g>
    </g>
   </g>
   <g id="line2d_40">
    <path d="M 281.021413 209.593084 
L 282.31454 205.465404 
L 283.607666 201.496481 
L 284.900792 197.677329 
L 286.193918 193.999627 
L 287.487044 190.45566 
L 288.78017 187.038263 
L 290.073297 183.740774 
L 291.366423 180.556992 
L 292.659549 177.481135 
L 293.952675 174.507806 
L 295.245801 171.631964 
L 296.538927 168.848891 
L 297.832053 166.154169 
L 299.12518 163.543657 
L 300.418306 161.013469 
L 301.711432 158.559953 
L 303.004558 156.179676 
L 304.297684 153.869408 
L 305.59081 151.626103 
L 306.883937 149.446894 
L 308.177063 147.32907 
L 309.470189 145.270075 
L 310.763315 143.267491 
L 312.056441 141.31903 
L 313.349567 139.422529 
L 314.642693 137.575935 
L 315.93582 135.777305 
L 317.228946 134.024794 
L 318.522072 132.31665 
L 319.815198 130.651209 
L 321.108324 129.026891 
L 322.40145 127.44219 
L 323.694577 125.895675 
L 324.987703 124.385981 
L 326.280829 122.91181 
L 327.573955 121.471921 
L 328.867081 120.065134 
L 330.160207 118.690319 
L 331.453334 117.346399 
L 332.74646 116.032343 
L 334.039586 114.747168 
L 335.332712 113.489932 
L 336.625838 112.259733 
L 337.918964 111.055708 
L 339.21209 109.877032 
L 340.505217 108.722911 
L 341.798343 107.592586 
L 343.091469 106.485329 
L 344.384595 105.400441 
L 345.677721 104.337251 
L 346.970847 103.295114 
L 348.263974 102.273411 
L 349.5571 101.271547 
L 350.850226 100.28895 
L 352.143352 99.325068 
L 353.436478 98.379374 
L 354.729604 97.451355 
L 356.02273 96.540523 
L 357.315857 95.646402 
L 358.608983 94.768539 
L 359.902109 93.906493 
L 361.195235 93.05984 
L 362.488361 92.228173 
L 363.781487 91.411096 
L 365.074614 90.608229 
L 366.36774 89.819205 
L 367.660866 89.043668 
L 368.953992 88.281276 
L 370.247118 87.531698 
L 371.540244 86.794612 
L 372.833371 86.06971 
L 374.126497 85.356691 
L 375.419623 84.655266 
L 376.712749 83.965154 
L 378.005875 83.286084 
L 379.299001 82.617793 
L 380.592127 81.960027 
L 381.885254 81.312537 
L 383.17838 80.675087 
L 384.471506 80.047443 
L 385.764632 79.429382 
L 387.057758 78.820685 
L 388.350884 78.221142 
L 389.644011 77.630547 
L 390.937137 77.048702 
L 392.230263 76.475413 
L 393.523389 75.910493 
L 394.816515 75.353761 
L 396.109641 74.805039 
L 397.402767 74.264156 
L 398.695894 73.730945 
L 399.98902 73.205244 
L 401.282146 72.686896 
L 402.575272 72.175746 
L 403.868398 71.671648 
L 405.161524 71.174454 
L 406.454651 70.684025 
L 407.747777 70.200224 
L 409.040903 69.722917 
L 410.334029 69.251973 
L 411.627155 68.787268 
L 412.920281 68.328676 
L 414.213407 67.87608 
L 415.506534 67.429361 
L 416.79966 66.988407 
L 418.092786 66.553106 
L 419.385912 66.12335 
L 420.679038 65.699034 
L 421.972164 65.280055 
L 423.265291 64.866314 
" clip-path="url(#p3a060fdb7f)" style="fill: none; stroke: #207720; stroke-width: 1.5; stroke-linecap: round"/>
   </g>
   <g id="line2d_41">
    <path d="M 281.021413 145.320548 
L 282.31454 142.453114 
L 283.607666 139.695966 
L 284.900792 137.042861 
L 286.193918 134.48802 
L 287.487044 132.026081 
L 288.78017 129.65207 
L 290.073297 127.361356 
L 291.366423 125.149633 
L 292.659549 123.012884 
L 293.952675 120.947359 
L 295.245801 118.949557 
L 296.538927 117.0162 
L 297.832053 115.144219 
L 299.12518 113.330738 
L 300.418306 111.573056 
L 301.711432 109.868637 
L 303.004558 108.215097 
L 304.297684 106.61019 
L 305.59081 105.051802 
L 306.883937 103.537939 
L 308.177063 102.066721 
L 309.470189 100.636369 
L 310.763315 99.245205 
L 312.056441 97.891641 
L 313.349567 96.574171 
L 314.642693 95.291372 
L 315.93582 94.041892 
L 317.228946 92.82445 
L 318.522072 91.637829 
L 319.815198 90.480874 
L 321.108324 89.352486 
L 322.40145 88.251619 
L 323.694577 87.177279 
L 324.987703 86.128519 
L 326.280829 85.104435 
L 327.573955 84.104168 
L 328.867081 83.126895 
L 330.160207 82.171833 
L 331.453334 81.238232 
L 332.74646 80.325379 
L 334.039586 79.432588 
L 335.332712 78.559206 
L 336.625838 77.704606 
L 337.918964 76.868189 
L 339.21209 76.049381 
L 340.505217 75.247631 
L 341.798343 74.462413 
L 343.091469 73.693219 
L 344.384595 72.939564 
L 345.677721 72.200983 
L 346.970847 71.477027 
L 348.263974 70.767266 
L 349.5571 70.071287 
L 350.850226 69.388692 
L 352.143352 68.719099 
L 353.436478 68.06214 
L 354.729604 67.41746 
L 356.02273 66.784719 
L 357.315857 66.163588 
L 358.608983 65.55375 
L 359.902109 64.9549 
L 361.195235 64.366744 
L 362.488361 63.788997 
L 363.781487 63.221387 
L 365.074614 62.663648 
L 366.36774 62.115526 
L 367.660866 61.576773 
L 368.953992 61.047151 
L 370.247118 60.52643 
L 371.540244 60.014389 
L 372.833371 59.51081 
L 374.126497 59.015487 
L 375.419623 58.528219 
L 376.712749 58.048809 
L 378.005875 57.57707 
L 379.299001 57.112819 
L 380.592127 56.655878 
L 381.885254 56.206078 
L 383.17838 55.763251 
L 384.471506 55.327237 
L 385.764632 54.89788 
L 387.057758 54.475028 
L 388.350884 54.058534 
L 389.644011 53.648257 
L 390.937137 53.244059 
L 392.230263 52.845804 
L 393.523389 52.453363 
L 394.816515 52.06661 
L 396.109641 51.685421 
L 397.402767 51.309679 
L 398.695894 50.939265 
L 399.98902 50.574069 
L 401.282146 50.213981 
L 402.575272 49.858894 
L 403.868398 49.508704 
L 405.161524 49.163312 
L 406.454651 48.822619 
L 407.747777 48.486529 
L 409.040903 48.154951 
L 410.334029 47.827794 
L 411.627155 47.504971 
L 412.920281 47.186395 
L 414.213407 46.871983 
L 415.506534 46.561655 
L 416.79966 46.255331 
L 418.092786 45.952934 
L 419.385912 45.654389 
L 420.679038 45.359624 
L 421.972164 45.068566 
L 423.265291 44.781146 
" clip-path="url(#p3a060fdb7f)" style="fill: none; stroke: #234990; stroke-width: 1.5; stroke-linecap: round"/>
   </g>
   <g id="line2d_42">
    <path d="M 281.021413 121.26064 
L 282.31454 118.864969 
L 283.607666 116.561439 
L 284.900792 114.344835 
L 286.193918 112.210327 
L 287.487044 110.153438 
L 288.78017 108.170009 
L 290.073297 106.256174 
L 291.366423 104.408333 
L 292.659549 102.623131 
L 293.952675 100.897436 
L 295.245801 99.228321 
L 296.538927 97.613048 
L 297.832053 96.049054 
L 299.12518 94.533935 
L 300.418306 93.065435 
L 301.711432 91.641434 
L 303.004558 90.259941 
L 304.297684 88.919081 
L 305.59081 87.617086 
L 306.883937 86.35229 
L 308.177063 85.123123 
L 309.470189 83.9281 
L 310.763315 82.765816 
L 312.056441 81.634946 
L 313.349567 80.534232 
L 314.642693 79.462485 
L 315.93582 78.418575 
L 317.228946 77.401432 
L 318.522072 76.410039 
L 319.815198 75.443431 
L 321.108324 74.50069 
L 322.40145 73.580943 
L 323.694577 72.683359 
L 324.987703 71.807145 
L 326.280829 70.951548 
L 327.573955 70.115849 
L 328.867081 69.299361 
L 330.160207 68.50143 
L 331.453334 67.72143 
L 332.74646 66.958763 
L 334.039586 66.212858 
L 335.332712 65.483169 
L 336.625838 64.769171 
L 337.918964 64.070366 
L 339.21209 63.386271 
L 340.505217 62.716429 
L 341.798343 62.060398 
L 343.091469 61.417755 
L 344.384595 60.788095 
L 345.677721 60.171029 
L 346.970847 59.566181 
L 348.263974 58.973193 
L 349.5571 58.39172 
L 350.850226 57.821428 
L 352.143352 57.262 
L 353.436478 56.713126 
L 354.729604 56.174512 
L 356.02273 55.645872 
L 357.315857 55.126932 
L 358.608983 54.617428 
L 359.902109 54.117103 
L 361.195235 53.625713 
L 362.488361 53.14302 
L 363.781487 52.668796 
L 365.074614 52.202819 
L 366.36774 51.744875 
L 367.660866 51.29476 
L 368.953992 50.852274 
L 370.247118 50.417225 
L 371.540244 49.989427 
L 372.833371 49.5687 
L 374.126497 49.154869 
L 375.419623 48.747768 
L 376.712749 48.347233 
L 378.005875 47.953107 
L 379.299001 47.565236 
L 380.592127 47.183474 
L 381.885254 46.807676 
L 383.17838 46.437705 
L 384.471506 46.073426 
L 385.764632 45.714709 
L 387.057758 45.361426 
L 388.350884 45.013456 
L 389.644011 44.67068 
L 390.937137 44.332981 
L 392.230263 44.000249 
L 393.523389 43.672375 
L 394.816515 43.349252 
L 396.109641 43.030778 
L 397.402767 42.716854 
L 398.695894 42.407383 
L 399.98902 42.102271 
L 401.282146 41.801425 
L 402.575272 41.504759 
L 403.868398 41.212184 
L 405.161524 40.923617 
L 406.454651 40.638976 
L 407.747777 40.358182 
L 409.040903 40.081157 
L 410.334029 39.807825 
L 411.627155 39.538114 
L 412.920281 39.271951 
L 414.213407 39.009268 
L 415.506534 38.749996 
L 416.79966 38.49407 
L 418.092786 38.241425 
L 419.385912 37.991998 
L 420.679038 37.745729 
L 421.972164 37.502557 
L 423.265291 37.262425 
" clip-path="url(#p3a060fdb7f)" style="fill: none; stroke: #e23726; stroke-width: 1.5; stroke-linecap: round"/>
   </g>
   <g id="patch_8">
    <path d="M 273.90922 218.209617 
L 273.90922 28.645892 
" style="fill: none; stroke: #262626; stroke-width: 1.25; stroke-linejoin: miter; stroke-linecap: square"/>
   </g>
   <g id="patch_9">
    <path d="M 430.377484 218.209617 
L 430.377484 28.645892 
" style="fill: none; stroke: #262626; stroke-width: 1.25; stroke-linejoin: miter; stroke-linecap: square"/>
   </g>
   <g id="patch_10">
    <path d="M 273.90922 218.209617 
L 430.377484 218.209617 
" style="fill: none; stroke: #262626; stroke-width: 1.25; stroke-linejoin: miter; stroke-linecap: square"/>
   </g>
   <g id="patch_11">
    <path d="M 273.90922 28.645892 
L 430.377484 28.645892 
" style="fill: none; stroke: #262626; stroke-width: 1.25; stroke-linejoin: miter; stroke-linecap: square"/>
   </g>
   <g id="text_25">
    <!-- \textbf{Wrzburg} -->
    <g style="fill: #262626" transform="translate(320.809309 22.645892)scale(0.14 -0.14)">
     <defs>
      <path id="CMSSBX10-57" d="M 6464 4109 
C 6490 4198 6490 4224 6490 4230 
C 6490 4416 6317 4416 6227 4416 
L 6093 4416 
C 5965 4416 5786 4416 5709 4135 
L 5030 1629 
C 4941 1304 4883 1094 4826 814 
L 4819 814 
C 4787 986 4787 999 4634 1559 
L 3942 4135 
C 3872 4383 3744 4416 3558 4416 
L 3136 4416 
C 3002 4416 2822 4416 2746 4135 
L 2182 2048 
L 2022 1419 
C 1952 1120 1901 916 1888 814 
L 1882 814 
C 1830 1145 1677 1705 1568 2106 
L 1018 4141 
C 941 4416 755 4416 634 4416 
L 416 4416 
C 326 4416 154 4416 154 4230 
C 154 4224 154 4198 179 4109 
L 1229 267 
C 1299 0 1478 0 1613 0 
L 2035 0 
C 2170 0 2349 0 2426 293 
L 3098 2780 
C 3194 3123 3238 3301 3302 3607 
L 3309 3607 
C 3386 3238 3424 3079 3539 2665 
L 4192 267 
C 4262 0 4442 0 4570 0 
L 5030 0 
C 5165 0 5344 0 5414 267 
L 6464 4109 
z
" transform="scale(0.015625)"/>
      <path id="CMSSBX10-7f" d="M 934 4480 
C 730 4480 627 4441 627 4185 
L 627 4038 
C 627 3801 717 3743 934 3743 
L 1222 3743 
C 1530 3743 1530 3903 1530 4108 
C 1530 4326 1530 4480 1222 4480 
L 934 4480 
z
M 2579 3743 
C 2784 3743 2886 3782 2886 4038 
L 2886 4185 
C 2886 4422 2797 4480 2579 4480 
L 2291 4480 
C 1984 4480 1984 4319 1984 4115 
C 1984 3897 1984 3743 2291 3743 
L 2579 3743 
z
" transform="scale(0.015625)"/>
      <path id="CMSSBX10-75" d="M 3200 2636 
C 3200 2841 3155 2944 2893 2944 
L 2637 2944 
C 2394 2944 2330 2860 2330 2636 
L 2330 1115 
C 2330 692 2106 326 1651 326 
C 1293 326 1254 416 1254 756 
L 1254 2636 
C 1254 2841 1210 2944 947 2944 
L 691 2944 
C 461 2944 384 2873 384 2636 
L 384 814 
C 384 128 755 -64 1421 -64 
C 1594 -64 2048 -64 2349 480 
L 2349 313 
C 2349 108 2394 6 2656 6 
L 2893 6 
C 3136 6 3200 89 3200 313 
L 3200 2636 
z
" transform="scale(0.015625)"/>
      <path id="CMSSBX10-7a" d="M 2726 2457 
C 2790 2540 2803 2572 2803 2675 
C 2803 2944 2605 2944 2496 2944 
L 602 2944 
C 518 2944 294 2944 294 2700 
C 294 2463 499 2463 672 2463 
C 877 2463 1395 2476 1600 2476 
L 1837 2476 
L 275 486 
C 211 403 198 371 198 268 
C 198 0 397 0 506 0 
L 2515 0 
C 2598 0 2822 0 2822 236 
C 2822 480 2624 480 2438 480 
C 2118 480 1779 467 1459 467 
L 1165 467 
L 2726 2457 
z
" transform="scale(0.015625)"/>
     </defs>
     <use xlink:href="#CMSSBX10-57" transform="scale(0.996264)"/>
     <use xlink:href="#CMSSBX10-7f" transform="translate(104.054817 0)scale(0.996264)"/>
     <use xlink:href="#CMSSBX10-75" transform="translate(103.501335 0)scale(0.996264)"/>
     <use xlink:href="#CMSSBX10-72" transform="translate(159.403123 0)scale(0.996264)"/>
     <use xlink:href="#CMSSBX10-7a" transform="translate(196.486534 0)scale(0.996264)"/>
     <use xlink:href="#CMSSBX10-62" transform="translate(243.94773 0)scale(0.996264)"/>
     <use xlink:href="#CMSSBX10-75" transform="translate(299.849518 0)scale(0.996264)"/>
     <use xlink:href="#CMSSBX10-72" transform="translate(355.751306 0)scale(0.996264)"/>
     <use xlink:href="#CMSSBX10-67" transform="translate(392.834716 0)scale(0.996264)"/>
    </g>
   </g>
  </g>
  <g id="text_26">
   <!-- \textbf{Basket size } -->
   <g style="fill: #262626" transform="translate(183.602605 257.973156)scale(0.12 -0.12)">
    <defs>
     <path id="CMSSBX10-42" d="M 890 4416 
C 659 4416 582 4345 582 4108 
L 582 307 
C 582 76 653 0 890 0 
L 2643 0 
C 3117 0 4294 83 4294 1227 
C 4294 2112 3405 2252 3168 2291 
C 3757 2425 4096 2759 4096 3261 
C 4096 4416 2733 4416 2464 4416 
L 890 4416 
z
M 1485 2508 
L 1485 3865 
L 2234 3865 
C 2483 3865 3226 3846 3226 3241 
C 3226 2508 2387 2508 2227 2508 
L 1485 2508 
z
M 1485 550 
L 1485 2048 
L 2291 2048 
C 2515 2048 3405 2048 3405 1239 
C 3405 594 2720 550 2413 550 
L 1485 550 
z
" transform="scale(0.015625)"/>
     <path id="CMSSBX10-6b" d="M 2003 1730 
L 2989 2640 
C 3066 2710 3085 2729 3085 2780 
C 3085 2913 2957 2913 2867 2913 
L 2496 2913 
C 2381 2913 2259 2913 2112 2780 
L 1190 1928 
L 1190 4109 
C 1190 4313 1146 4416 883 4416 
L 749 4416 
C 518 4416 442 4345 442 4109 
L 442 306 
C 442 76 512 0 749 0 
L 864 0 
C 1107 0 1171 83 1171 306 
L 1171 967 
L 1472 1241 
L 2304 159 
C 2413 19 2458 0 2643 0 
L 2950 0 
C 3040 0 3181 0 3181 140 
C 3181 153 3181 198 3117 280 
L 2003 1730 
z
" transform="scale(0.015625)"/>
     <path id="CMSSBX10-65" d="M 2758 1388 
C 2906 1388 3066 1395 3066 1683 
C 3066 2520 2682 3072 1728 3072 
C 704 3072 198 2494 198 1510 
C 198 448 806 -64 1811 -64 
C 2054 -64 2419 -32 2842 179 
C 2982 249 3027 268 3027 345 
C 3027 390 3008 578 3002 630 
C 2976 831 2970 837 2912 837 
C 2886 837 2874 837 2803 772 
C 2426 442 2042 396 1837 396 
C 1114 396 1037 973 1018 1388 
L 2758 1388 
z
M 1024 1728 
C 1043 2124 1171 2611 1728 2611 
C 2240 2611 2336 2234 2355 1728 
L 1024 1728 
z
" transform="scale(0.015625)"/>
     <path id="SFSX3583-bf" d="M 1069 2432 
L 1069 1996 
L 461 1996 
C 422 1996 403 1984 403 1945 
L 403 1696 
C 403 1664 435 1664 474 1664 
L 608 1664 
C 781 1664 947 1657 1120 1657 
C 1171 1014 1722 528 2086 339 
C 2714 6 3424 0 4115 0 
L 5453 0 
C 5510 0 5530 6 5530 64 
L 5530 102 
C 5530 160 5536 217 5536 275 
L 5536 300 
C 5536 358 5530 403 5459 403 
C 4890 401 4333 352 3770 352 
L 3693 352 
C 2893 383 1914 631 1734 1632 
C 1958 1632 2189 1619 2413 1619 
L 2880 1619 
C 3219 1619 3558 1600 3898 1600 
L 4205 1600 
C 4250 1600 4250 1632 4250 1670 
L 4250 1932 
C 4250 1977 4243 1996 4198 1996 
L 1677 1996 
L 1677 2432 
L 4198 2432 
C 4224 2432 4250 2438 4250 2489 
L 4250 2764 
C 4250 2803 4230 2816 4179 2816 
L 4134 2816 
C 4013 2816 3898 2803 3776 2803 
C 3693 2803 3610 2809 3526 2809 
C 3475 2809 3430 2809 3379 2803 
L 2918 2803 
C 2694 2803 2477 2790 2253 2790 
C 2157 2790 2061 2796 1965 2796 
C 1894 2796 1818 2790 1747 2783 
C 2074 3710 2880 3935 3674 3935 
C 4269 3935 4851 3891 5446 3891 
L 5478 3891 
C 5523 3891 5530 3916 5530 3955 
L 5530 4223 
C 5530 4268 5504 4288 5453 4288 
C 5427 4294 5402 4288 5382 4288 
L 4038 4288 
C 2950 4288 1600 4230 1158 2904 
C 1146 2841 1133 2784 1050 2784 
C 1024 2784 992 2790 973 2790 
C 845 2790 710 2784 582 2784 
L 454 2784 
C 410 2784 403 2758 403 2720 
L 403 2489 
C 403 2432 429 2432 480 2432 
L 1069 2432 
z
" transform="scale(0.015625)"/>
    </defs>
    <use xlink:href="#CMSSBX10-42" transform="scale(0.996264)"/>
    <use xlink:href="#CMSSBX10-61" transform="translate(73.059766 0)scale(0.996264)"/>
    <use xlink:href="#CMSSBX10-73" transform="translate(125.363961 0)scale(0.996264)"/>
    <use xlink:href="#CMSSBX10-6b" transform="translate(167.373327 0)scale(0.996264)"/>
    <use xlink:href="#CMSSBX10-65" transform="translate(217.186801 0)scale(0.996264)"/>
    <use xlink:href="#CMSSBX10-74" transform="translate(268.107253 0)scale(0.996264)"/>
    <use xlink:href="#CMSSBX10-73" transform="translate(344.90304 0)scale(0.996264)"/>
    <use xlink:href="#CMSSBX10-69" transform="translate(386.912406 0)scale(0.996264)"/>
    <use xlink:href="#CMSSBX10-7a" transform="translate(412.372624 0)scale(0.996264)"/>
    <use xlink:href="#CMSSBX10-65" transform="translate(459.83382 0)scale(0.996264)"/>
    <use xlink:href="#SFSX3583-bf" transform="translate(547.284156 0)scale(0.996264)"/>
   </g>
  </g>
  <g id="legend_1">
   <g id="patch_12">
    <path d="M 3 272.997634 
L 68.933699 272.997634 
Q 70.933699 272.997634 70.933699 270.997634 
L 70.933699 242.186099 
Q 70.933699 240.186099 68.933699 240.186099 
L 3 240.186099 
Q 1 240.186099 1 242.186099 
L 1 270.997634 
Q 1 272.997634 3 272.997634 
z
" style="fill: #ffffff; opacity: 0.8; stroke: #cccccc; stroke-linejoin: miter"/>
   </g>
   <g id="line2d_43">
    <path d="M 2 244.686099 
L 12 244.686099 
L 22 244.686099 
" style="fill: none; stroke: #207720; stroke-width: 1.5; stroke-linecap: round"/>
   </g>
   <g id="text_27">
    <!-- In Store -->
    <g style="fill: #262626" transform="translate(30 248.186099)scale(0.1 -0.1)">
     <defs>
      <path id="CMSS17-49" d="M 1094 4416 
L 557 4416 
L 557 0 
L 1094 0 
L 1094 4416 
z
" transform="scale(0.015625)"/>
      <path id="CMSS17-6e" d="M 2618 1878 
C 2618 2283 2522 2816 1798 2816 
C 1389 2816 1120 2604 941 2386 
L 941 2783 
L 474 2783 
L 474 0 
L 960 0 
L 960 1556 
C 960 1962 1114 2425 1549 2425 
C 2112 2425 2131 2045 2131 1826 
L 2131 0 
L 2618 0 
L 2618 1878 
z
" transform="scale(0.015625)"/>
      <path id="CMSS17-53" d="M 2797 4230 
C 2515 4396 2208 4544 1690 4544 
C 864 4544 333 3934 333 3309 
C 333 3064 403 2787 653 2504 
C 902 2220 1184 2143 1542 2053 
C 1690 2014 1939 1943 1984 1924 
C 2342 1782 2515 1454 2515 1144 
C 2515 738 2202 307 1645 307 
C 1453 307 890 339 358 829 
L 269 320 
C 794 -64 1363 -128 1651 -128 
C 2438 -128 3002 494 3002 1202 
C 3002 1460 2925 1789 2656 2092 
C 2394 2381 2163 2446 1638 2588 
C 1338 2665 1146 2717 986 2916 
C 877 3058 819 3193 819 3367 
C 819 3728 1126 4121 1690 4121 
C 1971 4121 2336 4063 2707 3715 
L 2797 4230 
z
" transform="scale(0.015625)"/>
      <path id="CMSS17-74" d="M 1069 2380 
L 1901 2380 
L 1901 2752 
L 1069 2752 
L 1069 3520 
L 614 3520 
L 614 2752 
L 109 2752 
L 109 2380 
L 602 2380 
L 602 751 
C 602 384 685 -64 1107 -64 
C 1427 -64 1722 25 2003 172 
L 1901 551 
C 1747 416 1562 339 1363 339 
C 1082 339 1069 699 1069 860 
L 1069 2380 
z
" transform="scale(0.015625)"/>
      <path id="CMSS17-6f" d="M 2829 1356 
C 2829 2175 2221 2816 1504 2816 
C 768 2816 173 2156 173 1356 
C 173 544 787 -64 1498 -64 
C 2227 -64 2829 563 2829 1356 
z
M 1504 339 
C 1050 339 659 710 659 1407 
C 659 2150 1114 2425 1498 2425 
C 1914 2425 2342 2124 2342 1407 
C 2342 684 1926 339 1504 339 
z
" transform="scale(0.015625)"/>
      <path id="CMSS17-72" d="M 954 1369 
C 954 1974 1395 2379 1958 2392 
L 1958 2816 
C 1549 2809 1165 2604 934 2270 
L 934 2783 
L 480 2783 
L 480 0 
L 954 0 
L 954 1369 
z
" transform="scale(0.015625)"/>
      <path id="CMSS17-65" d="M 2502 1375 
C 2502 1587 2490 2001 2285 2347 
C 2061 2713 1696 2816 1421 2816 
C 755 2816 192 2184 192 1363 
C 192 579 774 -64 1510 -64 
C 1798 -64 2150 19 2470 249 
C 2470 275 2458 414 2451 421 
C 2451 433 2432 629 2432 655 
C 2125 408 1773 326 1517 326 
C 1107 326 666 667 646 1375 
L 2502 1375 
z
M 698 1728 
C 781 2086 1062 2425 1421 2425 
C 1517 2425 1965 2412 2080 1728 
L 698 1728 
z
" transform="scale(0.015625)"/>
     </defs>
     <use xlink:href="#CMSS17-49" transform="scale(0.996264)"/>
     <use xlink:href="#CMSS17-6e" transform="translate(25.783926 0)scale(0.996264)"/>
     <use xlink:href="#CMSS17-53" transform="translate(105.217981 0)scale(0.996264)"/>
     <use xlink:href="#CMSS17-74" transform="translate(157.266498 0)scale(0.996264)"/>
     <use xlink:href="#CMSS17-6f" transform="translate(191.098064 0)scale(0.996264)"/>
     <use xlink:href="#CMSS17-72" transform="translate(235.339234 0)scale(0.996264)"/>
     <use xlink:href="#CMSS17-65" transform="translate(267.249006 0)scale(0.996264)"/>
    </g>
   </g>
   <g id="line2d_44">
    <path d="M 2 255.623277 
L 12 255.623277 
L 22 255.623277 
" style="fill: none; stroke: #234990; stroke-width: 1.5; stroke-linecap: round"/>
   </g>
   <g id="text_28">
    <!-- Darkstore -->
    <g style="fill: #262626" transform="translate(30 259.123277)scale(0.1 -0.1)">
     <defs>
      <path id="CMSS17-44" d="M 570 4416 
L 570 0 
L 2144 0 
C 3194 0 4000 981 4000 2169 
C 4000 3396 3194 4416 2144 4416 
L 570 4416 
z
M 1094 358 
L 1094 4057 
L 2003 4057 
C 2861 4057 3475 3275 3475 2169 
C 3475 1108 2867 358 2003 358 
L 1094 358 
z
" transform="scale(0.015625)"/>
      <path id="CMSS17-61" d="M 2406 1789 
C 2406 2399 1978 2816 1402 2816 
C 1120 2816 813 2764 461 2559 
L 499 2133 
C 659 2250 934 2438 1395 2438 
C 1722 2438 1920 2185 1920 1782 
L 1920 1536 
C 896 1504 256 1209 256 711 
C 256 452 416 -64 947 -64 
C 1043 -64 1562 -52 1933 224 
L 1933 -13 
L 2406 -13 
L 2406 1789 
z
M 1920 824 
C 1920 711 1920 559 1728 446 
C 1562 339 1350 326 1261 326 
C 941 326 723 503 723 723 
C 723 1165 1722 1209 1920 1216 
L 1920 824 
z
" transform="scale(0.015625)"/>
      <path id="CMSS17-6b" d="M 1696 1686 
L 2688 2735 
L 2074 2735 
L 954 1552 
L 954 4416 
L 480 4416 
L 480 0 
L 947 0 
L 947 891 
L 1376 1342 
L 2278 0 
L 2822 0 
L 1696 1686 
z
" transform="scale(0.015625)"/>
      <path id="CMSS17-73" d="M 2061 2623 
C 1683 2803 1389 2816 1197 2816 
C 742 2816 198 2655 198 2009 
C 198 1363 902 1222 1094 1183 
C 1389 1126 1715 1062 1715 742 
C 1715 339 1254 339 1171 339 
C 915 339 563 409 243 639 
L 166 211 
C 531 0 883 -64 1178 -64 
C 1965 -64 2163 416 2163 780 
C 2163 1094 1984 1305 1862 1401 
C 1651 1567 1574 1587 1050 1695 
C 960 1708 646 1779 646 2067 
C 646 2431 1050 2431 1139 2431 
C 1555 2431 1811 2303 1984 2207 
L 2061 2623 
z
" transform="scale(0.015625)"/>
     </defs>
     <use xlink:href="#CMSS17-44" transform="scale(0.996264)"/>
     <use xlink:href="#CMSS17-61" transform="translate(67.542842 0)scale(0.996264)"/>
     <use xlink:href="#CMSS17-72" transform="translate(109.862308 0)scale(0.996264)"/>
     <use xlink:href="#CMSS17-6b" transform="translate(141.772081 0)scale(0.996264)"/>
     <use xlink:href="#CMSS17-73" transform="translate(187.37457 0)scale(0.996264)"/>
     <use xlink:href="#CMSS17-74" transform="translate(223.288112 0)scale(0.996264)"/>
     <use xlink:href="#CMSS17-6f" transform="translate(257.119679 0)scale(0.996264)"/>
     <use xlink:href="#CMSS17-72" transform="translate(301.360848 0)scale(0.996264)"/>
     <use xlink:href="#CMSS17-65" transform="translate(333.270621 0)scale(0.996264)"/>
    </g>
   </g>
   <g id="line2d_45">
    <path d="M 2 266.560456 
L 12 266.560456 
L 22 266.560456 
" style="fill: none; stroke: #e23726; stroke-width: 1.5; stroke-linecap: round"/>
   </g>
   <g id="text_29">
    <!-- FC -->
    <g style="fill: #262626" transform="translate(30 270.060456)scale(0.1 -0.1)">
     <defs>
      <path id="CMSS17-46" d="M 2918 1984 
L 2918 2374 
L 1101 2374 
L 1101 3993 
L 1882 3993 
C 1958 3993 2035 3987 2112 3987 
L 3168 3987 
L 3168 4403 
L 563 4403 
L 563 0 
L 1101 0 
L 1101 1984 
L 2918 1984 
z
" transform="scale(0.015625)"/>
      <path id="CMSS17-43" d="M 3501 705 
C 3072 416 2874 332 2355 332 
C 1459 332 934 1304 934 2191 
C 934 3137 1472 4070 2381 4070 
C 2790 4070 3059 3954 3386 3748 
L 3475 4255 
C 3168 4409 2778 4480 2387 4480 
C 1158 4480 397 3343 397 2191 
C 397 924 1299 -77 2323 -77 
C 2874 -77 3066 -32 3539 268 
L 3501 705 
z
" transform="scale(0.015625)"/>
     </defs>
     <use xlink:href="#CMSS17-46" transform="scale(0.996264)"/>
     <use xlink:href="#CMSS17-43" transform="translate(50.687105 0)scale(0.996264)"/>
    </g>
   </g>
  </g>
 </g>
 <defs>
  <clipPath id="pabda2e1e33">
   <rect x="66.365971" y="28.645892" width="156.468265" height="189.563725"/>
  </clipPath>
  <clipPath id="p3a060fdb7f">
   <rect x="273.90922" y="28.645892" width="156.468265" height="189.563725"/>
  </clipPath>
 </defs>
</svg>
