<?xml version="1.0" encoding="utf-8" standalone="no"?>
<!DOCTYPE svg PUBLIC "-//W3C//DTD SVG 1.1//EN"
  "http://www.w3.org/Graphics/SVG/1.1/DTD/svg11.dtd">
<svg xmlns:xlink="http://www.w3.org/1999/xlink" width="478.206725pt" height="295.54801pt" viewBox="0 0 478.206725 295.54801" xmlns="http://www.w3.org/2000/svg" version="1.1">
 <metadata>
  <rdf:RDF xmlns:dc="http://purl.org/dc/elements/1.1/" xmlns:cc="http://creativecommons.org/ns#" xmlns:rdf="http://www.w3.org/1999/02/22-rdf-syntax-ns#">
   <cc:Work>
    <dc:type rdf:resource="http://purl.org/dc/dcmitype/StillImage"/>
    <dc:date>2022-04-03T19:57:17.878813</dc:date>
    <dc:format>image/svg+xml</dc:format>
    <dc:creator>
     <cc:Agent>
      <dc:title>Matplotlib v3.5.0, https://matplotlib.org/</dc:title>
     </cc:Agent>
    </dc:creator>
   </cc:Work>
  </rdf:RDF>
 </metadata>
 <defs>
  <style type="text/css">*{stroke-linejoin: round; stroke-linecap: butt}</style>
 </defs>
 <g id="figure_1">
  <g id="patch_1">
   <path d="M 0 295.54801 
L 478.206725 295.54801 
L 478.206725 0 
L 0 0 
z
" style="fill: #ffffff"/>
  </g>
  <g id="axes_1">
   <g id="patch_2">
    <path d="M 69.410113 239.759993 
L 237.760136 239.759993 
L 237.760136 28.645892 
L 69.410113 28.645892 
z
" style="fill: #ffffff"/>
   </g>
   <g id="line2d_1">
    <path d="M 69.410113 147.166089 
L 479.206725 147.166089 
" clip-path="url(#p19b7c9197e)" style="fill: none; stroke: #000000; stroke-width: 1.3; stroke-linecap: round"/>
   </g>
   <g id="LineCollection_1">
    <path d="M 117.917746 239.759993 
L 117.917746 142.841961 
" clip-path="url(#p19b7c9197e)" style="fill: none; stroke-dasharray: 4.81,2.08; stroke-dashoffset: 0; stroke: #808080; stroke-width: 1.3"/>
   </g>
   <g id="LineCollection_2">
    <path d="M 69.410113 142.841961 
L 117.917746 142.841961 
" clip-path="url(#p19b7c9197e)" style="fill: none; stroke-dasharray: 4.81,2.08; stroke-dashoffset: 0; stroke: #808080; stroke-width: 1.3"/>
   </g>
   <g id="LineCollection_3">
    <path d="M 117.917746 239.759993 
L 117.917746 93.461624 
" clip-path="url(#p19b7c9197e)" style="fill: none; stroke-dasharray: 4.81,2.08; stroke-dashoffset: 0; stroke: #808080; stroke-width: 1.3"/>
   </g>
   <g id="LineCollection_4">
    <path d="M 69.410113 93.461624 
L 117.917746 93.461624 
" clip-path="url(#p19b7c9197e)" style="fill: none; stroke-dasharray: 4.81,2.08; stroke-dashoffset: 0; stroke: #808080; stroke-width: 1.3"/>
   </g>
   <g id="LineCollection_5">
    <path d="M 117.917746 239.759993 
L 117.917746 77.628067 
" clip-path="url(#p19b7c9197e)" style="fill: none; stroke-dasharray: 4.81,2.08; stroke-dashoffset: 0; stroke: #808080; stroke-width: 1.3"/>
   </g>
   <g id="LineCollection_6">
    <path d="M 69.410113 77.628067 
L 117.917746 77.628067 
" clip-path="url(#p19b7c9197e)" style="fill: none; stroke-dasharray: 4.81,2.08; stroke-dashoffset: 0; stroke: #808080; stroke-width: 1.3"/>
   </g>
   <g id="matplotlib.axis_1">
    <g id="xtick_1">
     <g id="line2d_2">
      <defs>
       <path id="mb4f78bebd7" d="M 0 0 
L 0 6 
" style="stroke: #262626; stroke-width: 0.8"/>
      </defs>
      <g>
       <use xlink:href="#mb4f78bebd7" x="89.383844" y="239.759993" style="fill: #262626; stroke: #262626; stroke-width: 0.8"/>
      </g>
     </g>
     <g id="text_1">
      <!-- $\mathdefault{60}$ -->
      <g style="fill: #262626" transform="translate(83.904377 256.870339)scale(0.11 -0.11)">
       <defs>
        <path id="CMR17-36" d="M 678 2198 
C 678 3712 1395 4076 1811 4076 
C 1946 4076 2272 4049 2400 3782 
C 2298 3782 2106 3782 2106 3558 
C 2106 3385 2246 3328 2336 3328 
C 2394 3328 2566 3353 2566 3571 
C 2566 3987 2246 4224 1805 4224 
C 1043 4224 243 3411 243 2011 
C 243 257 966 -128 1478 -128 
C 2099 -128 2688 431 2688 1295 
C 2688 2101 2170 2688 1517 2688 
C 1126 2688 838 2430 678 1979 
L 678 2198 
z
M 1478 25 
C 691 25 691 1212 691 1450 
C 691 1914 909 2585 1504 2585 
C 1613 2585 1926 2585 2138 2140 
C 2253 1889 2253 1624 2253 1302 
C 2253 954 2253 696 2118 438 
C 1978 173 1773 25 1478 25 
z
" transform="scale(0.015625)"/>
        <path id="CMR17-30" d="M 2688 2038 
C 2688 2430 2682 3099 2413 3613 
C 2176 4063 1798 4224 1466 4224 
C 1158 4224 768 4082 525 3620 
C 269 3137 243 2539 243 2038 
C 243 1671 250 1112 448 623 
C 723 -39 1216 -128 1466 -128 
C 1760 -128 2208 -7 2470 604 
C 2662 1048 2688 1568 2688 2038 
z
M 1466 -26 
C 1056 -26 813 328 723 816 
C 653 1196 653 1749 653 2109 
C 653 2604 653 3015 736 3407 
C 858 3954 1216 4121 1466 4121 
C 1728 4121 2067 3947 2189 3420 
C 2272 3054 2278 2623 2278 2109 
C 2278 1691 2278 1176 2202 797 
C 2067 96 1690 -26 1466 -26 
z
" transform="scale(0.015625)"/>
       </defs>
       <use xlink:href="#CMR17-36" transform="scale(0.996264)"/>
       <use xlink:href="#CMR17-30" transform="translate(45.690477 0)scale(0.996264)"/>
      </g>
     </g>
    </g>
    <g id="xtick_2">
     <g id="line2d_3">
      <g>
       <use xlink:href="#mb4f78bebd7" x="117.917746" y="239.759993" style="fill: #262626; stroke: #262626; stroke-width: 0.8"/>
      </g>
     </g>
     <g id="text_2">
      <!-- $\mathdefault{80}$ -->
      <g style="fill: #262626" transform="translate(112.438279 256.870339)scale(0.11 -0.11)">
       <defs>
        <path id="CMR17-38" d="M 1741 2289 
C 2144 2494 2554 2803 2554 3298 
C 2554 3884 1990 4224 1472 4224 
C 890 4224 378 3800 378 3215 
C 378 3054 416 2777 666 2533 
C 730 2469 998 2276 1171 2154 
C 883 2006 211 1652 211 945 
C 211 282 838 -128 1459 -128 
C 2144 -128 2720 366 2720 1022 
C 2720 1607 2330 1877 2074 2051 
L 1741 2289 
z
M 902 2855 
C 851 2887 595 3086 595 3388 
C 595 3781 998 4076 1459 4076 
C 1965 4076 2336 3716 2336 3298 
C 2336 2700 1670 2359 1638 2359 
C 1632 2359 1626 2359 1574 2398 
L 902 2855 
z
M 2080 1536 
C 2176 1466 2483 1253 2483 861 
C 2483 385 2010 25 1472 25 
C 890 25 448 443 448 951 
C 448 1459 838 1884 1280 2083 
L 2080 1536 
z
" transform="scale(0.015625)"/>
       </defs>
       <use xlink:href="#CMR17-38" transform="scale(0.996264)"/>
       <use xlink:href="#CMR17-30" transform="translate(45.690477 0)scale(0.996264)"/>
      </g>
     </g>
    </g>
    <g id="xtick_3">
     <g id="line2d_4">
      <g>
       <use xlink:href="#mb4f78bebd7" x="146.451649" y="239.759993" style="fill: #262626; stroke: #262626; stroke-width: 0.8"/>
      </g>
     </g>
     <g id="text_3">
      <!-- $\mathdefault{100}$ -->
      <g style="fill: #262626" transform="translate(138.232448 256.870339)scale(0.11 -0.11)">
       <defs>
        <path id="CMR17-31" d="M 1702 4083 
C 1702 4217 1696 4224 1606 4224 
C 1357 3927 979 3833 621 3820 
C 602 3820 570 3820 563 3808 
C 557 3795 557 3782 557 3648 
C 755 3648 1088 3686 1344 3839 
L 1344 467 
C 1344 243 1331 166 781 166 
L 589 166 
L 589 0 
C 896 6 1216 12 1523 12 
C 1830 12 2150 6 2458 0 
L 2458 166 
L 2266 166 
C 1715 166 1702 236 1702 467 
L 1702 4083 
z
" transform="scale(0.015625)"/>
       </defs>
       <use xlink:href="#CMR17-31" transform="scale(0.996264)"/>
       <use xlink:href="#CMR17-30" transform="translate(45.690477 0)scale(0.996264)"/>
       <use xlink:href="#CMR17-30" transform="translate(91.380954 0)scale(0.996264)"/>
      </g>
     </g>
    </g>
    <g id="xtick_4">
     <g id="line2d_5">
      <g>
       <use xlink:href="#mb4f78bebd7" x="174.985551" y="239.759993" style="fill: #262626; stroke: #262626; stroke-width: 0.8"/>
      </g>
     </g>
     <g id="text_4">
      <!-- $\mathdefault{120}$ -->
      <g style="fill: #262626" transform="translate(166.76635 256.870339)scale(0.11 -0.11)">
       <defs>
        <path id="CMR17-32" d="M 2669 990 
L 2554 990 
C 2490 537 2438 460 2413 422 
C 2381 371 1920 371 1830 371 
L 602 371 
C 832 620 1280 1073 1824 1596 
C 2214 1966 2669 2400 2669 3033 
C 2669 3788 2067 4224 1395 4224 
C 691 4224 262 3603 262 3027 
C 262 2777 448 2745 525 2745 
C 589 2745 781 2783 781 3007 
C 781 3206 614 3264 525 3264 
C 486 3264 448 3257 422 3244 
C 544 3788 915 4057 1306 4057 
C 1862 4057 2227 3616 2227 3033 
C 2227 2477 1901 1998 1536 1583 
L 262 147 
L 262 0 
L 2515 0 
L 2669 990 
z
" transform="scale(0.015625)"/>
       </defs>
       <use xlink:href="#CMR17-31" transform="scale(0.996264)"/>
       <use xlink:href="#CMR17-32" transform="translate(45.690477 0)scale(0.996264)"/>
       <use xlink:href="#CMR17-30" transform="translate(91.380954 0)scale(0.996264)"/>
      </g>
     </g>
    </g>
    <g id="xtick_5">
     <g id="line2d_6">
      <g>
       <use xlink:href="#mb4f78bebd7" x="203.519453" y="239.759993" style="fill: #262626; stroke: #262626; stroke-width: 0.8"/>
      </g>
     </g>
     <g id="text_5">
      <!-- $\mathdefault{140}$ -->
      <g style="fill: #262626" transform="translate(195.300252 256.870339)scale(0.11 -0.11)">
       <defs>
        <path id="CMR17-34" d="M 2150 4147 
C 2150 4281 2144 4288 2029 4288 
L 128 1254 
L 128 1088 
L 1779 1088 
L 1779 460 
C 1779 230 1766 166 1318 166 
L 1197 166 
L 1197 0 
C 1402 12 1747 12 1965 12 
C 2182 12 2528 12 2733 0 
L 2733 166 
L 2611 166 
C 2163 166 2150 230 2150 460 
L 2150 1088 
L 2803 1088 
L 2803 1254 
L 2150 1254 
L 2150 4147 
z
M 1798 3723 
L 1798 1254 
L 256 1254 
L 1798 3723 
z
" transform="scale(0.015625)"/>
       </defs>
       <use xlink:href="#CMR17-31" transform="scale(0.996264)"/>
       <use xlink:href="#CMR17-34" transform="translate(45.690477 0)scale(0.996264)"/>
       <use xlink:href="#CMR17-30" transform="translate(91.380954 0)scale(0.996264)"/>
      </g>
     </g>
    </g>
    <g id="xtick_6">
     <g id="line2d_7">
      <g>
       <use xlink:href="#mb4f78bebd7" x="232.053355" y="239.759993" style="fill: #262626; stroke: #262626; stroke-width: 0.8"/>
      </g>
     </g>
     <g id="text_6">
      <!-- $\mathdefault{160}$ -->
      <g style="fill: #262626" transform="translate(223.834155 256.870339)scale(0.11 -0.11)">
       <use xlink:href="#CMR17-31" transform="scale(0.996264)"/>
       <use xlink:href="#CMR17-36" transform="translate(45.690477 0)scale(0.996264)"/>
       <use xlink:href="#CMR17-30" transform="translate(91.380954 0)scale(0.996264)"/>
      </g>
     </g>
    </g>
   </g>
   <g id="matplotlib.axis_2">
    <g id="ytick_1">
     <g id="line2d_8">
      <path d="M 69.410113 221.241212 
L 237.760136 221.241212 
" clip-path="url(#p19b7c9197e)" style="fill: none; stroke: #cccccc; stroke-width: 0.8; stroke-linecap: round"/>
     </g>
     <g id="line2d_9">
      <defs>
       <path id="m3943df39df" d="M 0 0 
L -6 0 
" style="stroke: #262626; stroke-width: 0.8"/>
      </defs>
      <g>
       <use xlink:href="#m3943df39df" x="69.410113" y="221.241212" style="fill: #262626; stroke: #262626; stroke-width: 0.8"/>
      </g>
     </g>
     <g id="text_7">
      <!-- $-10\%$ -->
      <g style="fill: #262626" transform="translate(31.295129 225.046385)scale(0.11 -0.11)">
       <defs>
        <path id="CMSY10-0" d="M 4218 1472 
C 4326 1472 4442 1472 4442 1600 
C 4442 1728 4326 1728 4218 1728 
L 755 1728 
C 646 1728 531 1728 531 1600 
C 531 1472 646 1472 755 1472 
L 4218 1472 
z
" transform="scale(0.015625)"/>
        <path id="CMR17-25" d="M 4640 928 
C 4640 1670 4275 2214 3846 2214 
C 3411 2214 2970 1708 2970 928 
C 2970 147 3405 -359 3846 -359 
C 4275 -359 4640 179 4640 928 
z
M 3853 -256 
C 3686 -256 3270 -103 3270 928 
C 3270 1964 3686 2112 3853 2112 
C 4205 2112 4525 1606 4525 928 
C 4525 249 4205 -256 3853 -256 
z
M 4083 4572 
C 4128 4644 4134 4651 4134 4684 
C 4134 4761 4077 4800 4026 4800 
C 3962 4800 3936 4755 3891 4703 
C 3520 4155 3008 4096 2746 4096 
C 2106 4096 1715 4479 1594 4598 
C 1510 4677 1389 4800 1171 4800 
C 736 4800 294 4281 294 3496 
C 294 2718 730 2214 1171 2214 
C 1600 2214 1965 2750 1965 3496 
C 1965 3936 1830 4241 1811 4281 
C 2202 4025 2586 3993 2752 3993 
C 3162 3993 3456 4148 3616 4261 
L 3622 4254 
L 858 -122 
C 800 -212 800 -224 800 -244 
C 800 -314 858 -359 915 -359 
C 973 -359 992 -327 1037 -256 
L 4083 4572 
z
M 1178 2316 
C 1011 2316 595 2469 595 3496 
C 595 4545 1011 4697 1178 4697 
C 1530 4697 1850 4175 1850 3496 
C 1850 2820 1530 2316 1178 2316 
z
" transform="scale(0.015625)"/>
       </defs>
       <use xlink:href="#CMSY10-0" transform="scale(0.996264)"/>
       <use xlink:href="#CMR17-31" transform="translate(77.487468 0)scale(0.996264)"/>
       <use xlink:href="#CMR17-30" transform="translate(123.177945 0)scale(0.996264)"/>
       <use xlink:href="#CMR17-25" transform="translate(168.868422 0)scale(0.996264)"/>
      </g>
     </g>
    </g>
    <g id="ytick_2">
     <g id="line2d_10">
      <path d="M 69.410113 202.722431 
L 237.760136 202.722431 
" clip-path="url(#p19b7c9197e)" style="fill: none; stroke: #cccccc; stroke-width: 0.8; stroke-linecap: round"/>
     </g>
     <g id="line2d_11">
      <g>
       <use xlink:href="#m3943df39df" x="69.410113" y="202.722431" style="fill: #262626; stroke: #262626; stroke-width: 0.8"/>
      </g>
     </g>
     <g id="text_8">
      <!-- $-7.5\%$ -->
      <g style="fill: #262626" transform="translate(28.250987 206.527604)scale(0.11 -0.11)">
       <defs>
        <path id="CMR17-37" d="M 2886 3955 
L 2886 4096 
L 1382 4096 
C 634 4096 621 4166 595 4288 
L 480 4288 
L 294 3104 
L 410 3104 
C 429 3226 474 3552 550 3673 
C 589 3724 1062 3724 1171 3724 
L 2579 3724 
L 1869 2670 
C 1395 1961 1069 1003 1069 166 
C 1069 89 1069 -128 1299 -128 
C 1530 -128 1530 89 1530 172 
L 1530 466 
C 1530 1514 1709 2204 2003 2644 
L 2886 3955 
z
" transform="scale(0.015625)"/>
        <path id="CMMI12-3a" d="M 1178 307 
C 1178 492 1024 620 870 620 
C 685 620 557 467 557 313 
C 557 128 710 0 864 0 
C 1050 0 1178 153 1178 307 
z
" transform="scale(0.015625)"/>
        <path id="CMR17-35" d="M 730 3750 
C 794 3724 1056 3641 1325 3641 
C 1920 3641 2246 3961 2432 4140 
C 2432 4191 2432 4224 2394 4224 
C 2387 4224 2374 4224 2323 4198 
C 2099 4102 1837 4032 1517 4032 
C 1325 4032 1037 4055 723 4191 
C 653 4224 640 4224 634 4224 
C 602 4224 595 4217 595 4090 
L 595 2231 
C 595 2113 595 2080 659 2080 
C 691 2080 704 2093 736 2139 
C 941 2435 1222 2560 1542 2560 
C 1766 2560 2246 2415 2246 1293 
C 2246 1087 2246 716 2054 422 
C 1894 159 1645 25 1370 25 
C 947 25 518 319 403 812 
C 429 806 480 793 506 793 
C 589 793 749 838 749 1036 
C 749 1209 627 1280 506 1280 
C 358 1280 262 1190 262 1011 
C 262 454 704 -128 1382 -128 
C 2042 -128 2669 441 2669 1267 
C 2669 2054 2170 2662 1549 2662 
C 1222 2662 947 2540 730 2304 
L 730 3750 
z
" transform="scale(0.015625)"/>
       </defs>
       <use xlink:href="#CMSY10-0" transform="scale(0.996264)"/>
       <use xlink:href="#CMR17-37" transform="translate(77.487468 0)scale(0.996264)"/>
       <use xlink:href="#CMMI12-3a" transform="translate(123.177945 0)scale(0.996264)"/>
       <use xlink:href="#CMR17-35" transform="translate(150.275122 0)scale(0.996264)"/>
       <use xlink:href="#CMR17-25" transform="translate(195.965599 0)scale(0.996264)"/>
      </g>
     </g>
    </g>
    <g id="ytick_3">
     <g id="line2d_12">
      <path d="M 69.410113 184.20365 
L 237.760136 184.20365 
" clip-path="url(#p19b7c9197e)" style="fill: none; stroke: #cccccc; stroke-width: 0.8; stroke-linecap: round"/>
     </g>
     <g id="line2d_13">
      <g>
       <use xlink:href="#m3943df39df" x="69.410113" y="184.20365" style="fill: #262626; stroke: #262626; stroke-width: 0.8"/>
      </g>
     </g>
     <g id="text_9">
      <!-- $-5\%$ -->
      <g style="fill: #262626" transform="translate(36.774596 188.008824)scale(0.11 -0.11)">
       <use xlink:href="#CMSY10-0" transform="scale(0.996264)"/>
       <use xlink:href="#CMR17-35" transform="translate(77.487468 0)scale(0.996264)"/>
       <use xlink:href="#CMR17-25" transform="translate(123.177945 0)scale(0.996264)"/>
      </g>
     </g>
    </g>
    <g id="ytick_4">
     <g id="line2d_14">
      <path d="M 69.410113 165.684869 
L 237.760136 165.684869 
" clip-path="url(#p19b7c9197e)" style="fill: none; stroke: #cccccc; stroke-width: 0.8; stroke-linecap: round"/>
     </g>
     <g id="line2d_15">
      <g>
       <use xlink:href="#m3943df39df" x="69.410113" y="165.684869" style="fill: #262626; stroke: #262626; stroke-width: 0.8"/>
      </g>
     </g>
     <g id="text_10">
      <!-- $-2.5\%$ -->
      <g style="fill: #262626" transform="translate(28.250987 169.490043)scale(0.11 -0.11)">
       <use xlink:href="#CMSY10-0" transform="scale(0.996264)"/>
       <use xlink:href="#CMR17-32" transform="translate(77.487468 0)scale(0.996264)"/>
       <use xlink:href="#CMMI12-3a" transform="translate(123.177945 0)scale(0.996264)"/>
       <use xlink:href="#CMR17-35" transform="translate(150.275122 0)scale(0.996264)"/>
       <use xlink:href="#CMR17-25" transform="translate(195.965599 0)scale(0.996264)"/>
      </g>
     </g>
    </g>
    <g id="ytick_5">
     <g id="line2d_16">
      <path d="M 69.410113 147.166089 
L 237.760136 147.166089 
" clip-path="url(#p19b7c9197e)" style="fill: none; stroke: #cccccc; stroke-width: 0.8; stroke-linecap: round"/>
     </g>
     <g id="line2d_17">
      <g>
       <use xlink:href="#m3943df39df" x="69.410113" y="147.166089" style="fill: #262626; stroke: #262626; stroke-width: 0.8"/>
      </g>
     </g>
     <g id="text_11">
      <!-- $0\%$ -->
      <g style="fill: #262626" transform="translate(45.298205 150.971262)scale(0.11 -0.11)">
       <use xlink:href="#CMR17-30" transform="scale(0.996264)"/>
       <use xlink:href="#CMR17-25" transform="translate(45.690477 0)scale(0.996264)"/>
      </g>
     </g>
    </g>
    <g id="ytick_6">
     <g id="line2d_18">
      <path d="M 69.410113 128.647308 
L 237.760136 128.647308 
" clip-path="url(#p19b7c9197e)" style="fill: none; stroke: #cccccc; stroke-width: 0.8; stroke-linecap: round"/>
     </g>
     <g id="line2d_19">
      <g>
       <use xlink:href="#m3943df39df" x="69.410113" y="128.647308" style="fill: #262626; stroke: #262626; stroke-width: 0.8"/>
      </g>
     </g>
     <g id="text_12">
      <!-- $2.5\%$ -->
      <g style="fill: #262626" transform="translate(36.774596 132.452481)scale(0.11 -0.11)">
       <use xlink:href="#CMR17-32" transform="scale(0.996264)"/>
       <use xlink:href="#CMMI12-3a" transform="translate(45.690477 0)scale(0.996264)"/>
       <use xlink:href="#CMR17-35" transform="translate(72.787654 0)scale(0.996264)"/>
       <use xlink:href="#CMR17-25" transform="translate(118.478131 0)scale(0.996264)"/>
      </g>
     </g>
    </g>
    <g id="ytick_7">
     <g id="line2d_20">
      <path d="M 69.410113 110.128527 
L 237.760136 110.128527 
" clip-path="url(#p19b7c9197e)" style="fill: none; stroke: #cccccc; stroke-width: 0.8; stroke-linecap: round"/>
     </g>
     <g id="line2d_21">
      <g>
       <use xlink:href="#m3943df39df" x="69.410113" y="110.128527" style="fill: #262626; stroke: #262626; stroke-width: 0.8"/>
      </g>
     </g>
     <g id="text_13">
      <!-- $5\%$ -->
      <g style="fill: #262626" transform="translate(45.298205 113.9337)scale(0.11 -0.11)">
       <use xlink:href="#CMR17-35" transform="scale(0.996264)"/>
       <use xlink:href="#CMR17-25" transform="translate(45.690477 0)scale(0.996264)"/>
      </g>
     </g>
    </g>
    <g id="ytick_8">
     <g id="line2d_22">
      <path d="M 69.410113 91.609746 
L 237.760136 91.609746 
" clip-path="url(#p19b7c9197e)" style="fill: none; stroke: #cccccc; stroke-width: 0.8; stroke-linecap: round"/>
     </g>
     <g id="line2d_23">
      <g>
       <use xlink:href="#m3943df39df" x="69.410113" y="91.609746" style="fill: #262626; stroke: #262626; stroke-width: 0.8"/>
      </g>
     </g>
     <g id="text_14">
      <!-- $7.5\%$ -->
      <g style="fill: #262626" transform="translate(36.774596 95.41492)scale(0.11 -0.11)">
       <use xlink:href="#CMR17-37" transform="scale(0.996264)"/>
       <use xlink:href="#CMMI12-3a" transform="translate(45.690477 0)scale(0.996264)"/>
       <use xlink:href="#CMR17-35" transform="translate(72.787654 0)scale(0.996264)"/>
       <use xlink:href="#CMR17-25" transform="translate(118.478131 0)scale(0.996264)"/>
      </g>
     </g>
    </g>
    <g id="ytick_9">
     <g id="line2d_24">
      <path d="M 69.410113 73.090966 
L 237.760136 73.090966 
" clip-path="url(#p19b7c9197e)" style="fill: none; stroke: #cccccc; stroke-width: 0.8; stroke-linecap: round"/>
     </g>
     <g id="line2d_25">
      <g>
       <use xlink:href="#m3943df39df" x="69.410113" y="73.090966" style="fill: #262626; stroke: #262626; stroke-width: 0.8"/>
      </g>
     </g>
     <g id="text_15">
      <!-- $10\%$ -->
      <g style="fill: #262626" transform="translate(39.818738 76.896139)scale(0.11 -0.11)">
       <use xlink:href="#CMR17-31" transform="scale(0.996264)"/>
       <use xlink:href="#CMR17-30" transform="translate(45.690477 0)scale(0.996264)"/>
       <use xlink:href="#CMR17-25" transform="translate(91.380954 0)scale(0.996264)"/>
      </g>
     </g>
    </g>
    <g id="ytick_10">
     <g id="line2d_26">
      <path d="M 69.410113 54.572185 
L 237.760136 54.572185 
" clip-path="url(#p19b7c9197e)" style="fill: none; stroke: #cccccc; stroke-width: 0.8; stroke-linecap: round"/>
     </g>
     <g id="line2d_27">
      <g>
       <use xlink:href="#m3943df39df" x="69.410113" y="54.572185" style="fill: #262626; stroke: #262626; stroke-width: 0.8"/>
      </g>
     </g>
     <g id="text_16">
      <!-- $12.5\%$ -->
      <g style="fill: #262626" transform="translate(31.295129 58.377358)scale(0.11 -0.11)">
       <use xlink:href="#CMR17-31" transform="scale(0.996264)"/>
       <use xlink:href="#CMR17-32" transform="translate(45.690477 0)scale(0.996264)"/>
       <use xlink:href="#CMMI12-3a" transform="translate(91.380954 0)scale(0.996264)"/>
       <use xlink:href="#CMR17-35" transform="translate(118.478131 0)scale(0.996264)"/>
       <use xlink:href="#CMR17-25" transform="translate(164.168608 0)scale(0.996264)"/>
      </g>
     </g>
    </g>
    <g id="ytick_11">
     <g id="line2d_28">
      <path d="M 69.410113 36.053404 
L 237.760136 36.053404 
" clip-path="url(#p19b7c9197e)" style="fill: none; stroke: #cccccc; stroke-width: 0.8; stroke-linecap: round"/>
     </g>
     <g id="line2d_29">
      <g>
       <use xlink:href="#m3943df39df" x="69.410113" y="36.053404" style="fill: #262626; stroke: #262626; stroke-width: 0.8"/>
      </g>
     </g>
     <g id="text_17">
      <!-- $15\%$ -->
      <g style="fill: #262626" transform="translate(39.818738 39.858577)scale(0.11 -0.11)">
       <use xlink:href="#CMR17-31" transform="scale(0.996264)"/>
       <use xlink:href="#CMR17-35" transform="translate(45.690477 0)scale(0.996264)"/>
       <use xlink:href="#CMR17-25" transform="translate(91.380954 0)scale(0.996264)"/>
      </g>
     </g>
    </g>
    <g id="text_18">
     <!-- \textbf{Margin \%} -->
     <g style="fill: #262626" transform="translate(21.926376 161.741161)rotate(-90)scale(0.12 -0.12)">
      <defs>
       <path id="CMSSBX10-4d" d="M 3552 2080 
C 3418 1756 3181 1171 3130 948 
L 3123 948 
C 3066 1177 2803 1807 2669 2144 
L 1850 4154 
C 1741 4416 1536 4416 1421 4416 
L 890 4416 
C 659 4416 582 4345 582 4109 
L 582 306 
C 582 76 653 0 890 0 
L 1062 0 
C 1306 0 1370 83 1370 306 
L 1370 3594 
L 1376 3594 
C 1446 3308 1734 2602 1888 2226 
L 2630 414 
C 2746 140 2899 140 3117 140 
C 3334 140 3488 140 3603 414 
L 4422 2411 
C 4486 2564 4832 3429 4877 3594 
L 4883 3594 
L 4883 306 
C 4883 102 4928 0 5190 0 
L 5363 0 
C 5606 0 5670 83 5670 306 
L 5670 4109 
C 5670 4313 5626 4416 5363 4416 
L 4826 4416 
C 4666 4416 4506 4403 4397 4141 
L 3552 2080 
z
" transform="scale(0.015625)"/>
       <path id="CMSSBX10-61" d="M 2970 2047 
C 2970 3065 1997 3072 1677 3072 
C 1376 3072 1056 3046 627 2867 
C 493 2809 461 2790 461 2719 
C 461 2675 499 2300 506 2248 
C 512 2209 544 2177 589 2177 
C 621 2177 640 2196 659 2215 
C 934 2507 1254 2649 1651 2649 
C 1997 2649 2099 2436 2099 2054 
L 2099 1827 
C 1875 1827 198 1814 198 862 
C 198 409 557 -64 1120 -64 
C 1338 -64 1818 0 2118 442 
L 2118 313 
C 2118 108 2163 6 2426 6 
L 2662 6 
C 2906 6 2970 89 2970 313 
L 2970 2047 
z
M 2099 998 
C 2099 396 1491 396 1472 396 
C 1203 396 1030 629 1030 875 
C 1030 1510 1920 1555 2099 1562 
L 2099 998 
z
" transform="scale(0.015625)"/>
       <path id="CMSSBX10-72" d="M 1242 1456 
C 1242 2057 1747 2304 2150 2329 
C 2266 2335 2278 2335 2278 2502 
L 2278 2803 
C 2278 2931 2278 2976 2163 2976 
C 1984 2976 1517 2911 1216 2222 
L 1210 2222 
L 1210 2636 
C 1210 2841 1165 2944 902 2944 
L 698 2944 
C 467 2944 390 2873 390 2636 
L 390 305 
C 390 76 461 0 698 0 
L 934 0 
C 1178 0 1242 83 1242 305 
L 1242 1456 
z
" transform="scale(0.015625)"/>
       <path id="CMSSBX10-67" d="M 1280 569 
C 1050 569 960 569 870 651 
C 845 678 736 780 736 953 
C 736 998 742 1011 749 1049 
C 1050 883 1427 883 1562 883 
C 1830 883 2848 883 2848 1942 
C 2848 2315 2707 2540 2650 2611 
C 2758 2611 2982 2611 3245 2540 
C 3270 2527 3315 2514 3334 2514 
C 3386 2514 3418 2553 3418 2598 
C 3418 2623 3386 2777 3373 2841 
C 3347 2995 3347 3008 3232 3008 
C 3034 3008 2714 2931 2470 2783 
C 2170 2982 1837 3008 1562 3008 
C 1293 3008 275 3008 275 1948 
C 275 1691 346 1369 589 1158 
C 416 921 416 658 416 624 
C 416 499 454 288 589 115 
C 493 76 160 -39 160 -451 
C 160 -651 256 -986 659 -1172 
C 1024 -1338 1453 -1344 1754 -1344 
C 2131 -1344 3354 -1344 3354 -432 
C 3354 569 2451 569 1587 569 
L 1280 569 
z
M 1562 1344 
C 1114 1344 1094 1588 1094 1942 
C 1094 2296 1114 2547 1562 2547 
C 2010 2547 2029 2302 2029 1948 
C 2029 1594 2010 1344 1562 1344 
z
M 1907 -128 
C 2426 -128 2694 -219 2694 -451 
C 2694 -884 1965 -884 1760 -884 
C 1504 -884 819 -884 819 -432 
C 819 -128 1018 -128 1165 -128 
L 1907 -128 
z
" transform="scale(0.015625)"/>
       <path id="CMSSBX10-69" d="M 653 4480 
C 448 4480 346 4441 346 4185 
L 346 3891 
C 346 3686 410 3603 646 3603 
L 979 3603 
C 1286 3603 1286 3737 1286 4038 
C 1286 4345 1286 4480 979 4480 
L 653 4480 
z
M 1242 2635 
C 1242 2841 1197 2944 934 2944 
L 698 2944 
C 467 2944 390 2873 390 2635 
L 390 308 
C 390 76 461 0 698 0 
L 934 0 
C 1178 0 1242 83 1242 308 
L 1242 2635 
z
" transform="scale(0.015625)"/>
       <path id="CMSSBX10-6e" d="M 3200 2085 
C 3200 2745 2918 3008 2266 3008 
C 1594 3008 1306 2521 1222 2348 
L 1216 2348 
L 1216 2668 
C 1216 2873 1171 2975 909 2975 
L 691 2975 
C 461 2975 384 2905 384 2668 
L 384 307 
C 384 76 454 0 691 0 
L 947 0 
C 1190 0 1254 83 1254 307 
L 1254 1725 
C 1254 2284 1626 2547 1958 2547 
C 2266 2547 2330 2399 2330 2072 
L 2330 307 
C 2330 102 2374 0 2637 0 
L 2893 0 
C 3136 0 3200 83 3200 307 
L 3200 2085 
z
" transform="scale(0.015625)"/>
       <path id="CMSSBX10-25" d="M 5235 4332 
C 5312 4435 5312 4511 5312 4531 
C 5312 4671 5197 4800 5043 4800 
C 4909 4800 4838 4703 4806 4665 
L 1370 83 
C 1325 19 1286 -26 1286 -116 
C 1286 -263 1408 -384 1555 -384 
C 1690 -384 1760 -295 1792 -250 
L 5235 4332 
z
M 6189 918 
C 6189 1466 6042 2227 5043 2227 
C 4288 2227 3878 1804 3878 924 
C 3878 318 4070 -384 5043 -384 
C 5920 -384 6189 207 6189 918 
z
M 5037 76 
C 4646 76 4646 520 4646 924 
C 4646 1322 4646 1766 5037 1766 
C 5459 1766 5459 1133 5459 924 
C 5459 709 5459 76 5037 76 
z
M 2701 3510 
C 2701 4045 2554 4800 1555 4800 
C 800 4800 390 4377 390 3516 
C 390 2923 582 2227 1555 2227 
C 2432 2227 2701 2815 2701 3510 
z
M 1549 2688 
C 1158 2688 1158 3121 1158 3510 
C 1158 3905 1158 4339 1549 4339 
C 1971 4339 1971 3720 1971 3516 
C 1971 3306 1971 2688 1549 2688 
z
" transform="scale(0.015625)"/>
      </defs>
      <use xlink:href="#CMSSBX10-4d" transform="scale(0.996264)"/>
      <use xlink:href="#CMSSBX10-61" transform="translate(97.413021 0)scale(0.996264)"/>
      <use xlink:href="#CMSSBX10-72" transform="translate(146.67306 0)scale(0.996264)"/>
      <use xlink:href="#CMSSBX10-67" transform="translate(183.75647 0)scale(0.996264)"/>
      <use xlink:href="#CMSSBX10-69" transform="translate(238.551294 0)scale(0.996264)"/>
      <use xlink:href="#CMSSBX10-6e" transform="translate(264.011513 0)scale(0.996264)"/>
      <use xlink:href="#CMSSBX10-25" transform="translate(356.443184 0)scale(0.996264)"/>
     </g>
    </g>
   </g>
   <g id="line2d_30">
    <path d="M 75.116893 229.13762 
L 76.543588 224.625428 
L 77.970283 220.286782 
L 79.396978 216.111859 
L 80.823674 212.091562 
L 82.250369 208.217458 
L 83.677064 204.481715 
L 85.103759 200.877051 
L 86.530454 197.396685 
L 87.957149 194.034298 
L 89.383844 190.78399 
L 90.810539 187.64025 
L 92.237234 184.597921 
L 93.66393 181.652174 
L 95.090625 178.798481 
L 96.51732 176.032594 
L 97.944015 173.350522 
L 99.37071 170.748512 
L 100.797405 168.223032 
L 102.2241 165.770754 
L 103.650795 163.388541 
L 105.07749 161.073432 
L 106.504186 158.822632 
L 107.930881 156.633498 
L 109.357576 154.50353 
L 110.784271 152.430361 
L 112.210966 150.411749 
L 113.637661 148.445568 
L 115.064356 146.529802 
L 116.491051 144.662537 
L 117.917746 142.841953 
L 119.344442 141.066322 
L 120.771137 139.333999 
L 122.197832 137.643419 
L 123.624527 135.993091 
L 125.051222 134.381594 
L 126.477917 132.807574 
L 127.904612 131.269738 
L 129.331307 129.766852 
L 130.758002 128.29774 
L 132.184698 126.861274 
L 133.611393 125.45638 
L 135.038088 124.082026 
L 136.464783 122.737228 
L 137.891478 121.421043 
L 139.318173 120.132567 
L 140.744868 118.870935 
L 142.171563 117.635315 
L 143.598258 116.424913 
L 145.024954 115.238962 
L 146.451649 114.076731 
L 147.878344 112.937514 
L 149.305039 111.820635 
L 150.731734 110.725443 
L 152.158429 109.651312 
L 153.585124 108.597641 
L 155.011819 107.563851 
L 156.438515 106.549383 
L 157.86521 105.553702 
L 159.291905 104.576291 
L 160.7186 103.61665 
L 162.145295 102.674301 
L 163.57199 101.748779 
L 164.998685 100.839638 
L 166.42538 99.946447 
L 167.852075 99.068789 
L 169.278771 98.206264 
L 170.705466 97.358482 
L 172.132161 96.52507 
L 173.558856 95.705665 
L 174.985551 94.899916 
L 176.412246 94.107486 
L 177.838941 93.328046 
L 179.265636 92.56128 
L 180.692331 91.806882 
L 182.119027 91.064553 
L 183.545722 90.334008 
L 184.972417 89.614967 
L 186.399112 88.907162 
L 187.825807 88.21033 
L 189.252502 87.524218 
L 190.679197 86.848582 
L 192.105892 86.183182 
L 193.532587 85.527789 
L 194.959283 84.882177 
L 196.385978 84.24613 
L 197.812673 83.619437 
L 199.239368 83.001893 
L 200.666063 82.393298 
L 202.092758 81.79346 
L 203.519453 81.202192 
L 204.946148 80.61931 
L 206.372843 80.044637 
L 207.799539 79.478002 
L 209.226234 78.919237 
L 210.652929 78.368179 
L 212.079624 77.82467 
L 213.506319 77.288556 
L 214.933014 76.759686 
L 216.359709 76.237915 
L 217.786404 75.723102 
L 219.213099 75.215106 
L 220.639795 74.713796 
L 222.06649 74.219038 
L 223.493185 73.730705 
L 224.91988 73.248674 
L 226.346575 72.772822 
L 227.77327 72.303033 
L 229.199965 71.83919 
L 230.62666 71.381181 
L 232.053355 70.928898 
" clip-path="url(#p19b7c9197e)" style="fill: none; stroke: #207720; stroke-width: 1.5; stroke-linecap: round"/>
   </g>
   <g id="line2d_31">
    <path d="M 75.116893 150.129094 
L 76.543588 147.166089 
L 77.970283 144.317046 
L 79.396978 141.575513 
L 80.823674 138.935519 
L 82.250369 136.391525 
L 83.677064 133.938388 
L 85.103759 131.571326 
L 86.530454 129.285887 
L 87.957149 127.07792 
L 89.383844 124.943552 
L 90.810539 122.879163 
L 92.237234 120.881368 
L 93.66393 118.946994 
L 95.090625 117.07307 
L 96.51732 115.256805 
L 97.944015 113.495578 
L 99.37071 111.786925 
L 100.797405 110.128527 
L 102.2241 108.518198 
L 103.650795 106.953879 
L 105.07749 105.433625 
L 106.504186 103.9556 
L 107.930881 102.518069 
L 109.357576 101.119391 
L 110.784271 99.75801 
L 112.210966 98.432455 
L 113.637661 97.14133 
L 115.064356 95.883311 
L 116.491051 94.657141 
L 117.917746 93.461624 
L 119.344442 92.295627 
L 120.771137 91.158069 
L 122.197832 90.047921 
L 123.624527 88.964206 
L 125.051222 87.90599 
L 126.477917 86.872384 
L 127.904612 85.862539 
L 129.331307 84.875644 
L 130.758002 83.910927 
L 132.184698 82.967649 
L 133.611393 82.045101 
L 135.038088 81.142609 
L 136.464783 80.259526 
L 137.891478 79.395231 
L 139.318173 78.549133 
L 140.744868 77.720661 
L 142.171563 76.909271 
L 143.598258 76.11444 
L 145.024954 75.335666 
L 146.451649 74.572468 
L 147.878344 73.824383 
L 149.305039 73.090966 
L 150.731734 72.37179 
L 152.158429 71.666444 
L 153.585124 70.974533 
L 155.011819 70.295678 
L 156.438515 69.629511 
L 157.86521 68.975681 
L 159.291905 68.333848 
L 160.7186 67.703684 
L 162.145295 67.084874 
L 163.57199 66.477115 
L 164.998685 65.880113 
L 166.42538 65.293584 
L 167.852075 64.717256 
L 169.278771 64.150864 
L 170.705466 63.594155 
L 172.132161 63.046881 
L 173.558856 62.508805 
L 174.985551 61.979697 
L 176.412246 61.459335 
L 177.838941 60.947503 
L 179.265636 60.443993 
L 180.692331 59.948605 
L 182.119027 59.461143 
L 183.545722 58.981418 
L 184.972417 58.509248 
L 186.399112 58.044456 
L 187.825807 57.58687 
L 189.252502 57.136324 
L 190.679197 56.692656 
L 192.105892 56.25571 
L 193.532587 55.825335 
L 194.959283 55.401384 
L 196.385978 54.983713 
L 197.812673 54.572185 
L 199.239368 54.166664 
L 200.666063 53.76702 
L 202.092758 53.373127 
L 203.519453 52.984861 
L 204.946148 52.602102 
L 206.372843 52.224734 
L 207.799539 51.852644 
L 209.226234 51.485721 
L 210.652929 51.12386 
L 212.079624 50.766956 
L 213.506319 50.414907 
L 214.933014 50.067616 
L 216.359709 49.724987 
L 217.786404 49.386926 
L 219.213099 49.053343 
L 220.639795 48.724149 
L 222.06649 48.399258 
L 223.493185 48.078586 
L 224.91988 47.762052 
L 226.346575 47.449577 
L 227.77327 47.141082 
L 229.199965 46.836492 
L 230.62666 46.535733 
L 232.053355 46.238733 
" clip-path="url(#p19b7c9197e)" style="fill: none; stroke: #234990; stroke-width: 1.5; stroke-linecap: round"/>
   </g>
   <g id="line2d_32">
    <path d="M 75.116893 124.795402 
L 76.543588 122.329136 
L 77.970283 119.957726 
L 79.396978 117.675804 
L 80.823674 115.478397 
L 82.250369 113.360896 
L 83.677064 111.31902 
L 85.103759 109.348789 
L 86.530454 107.446497 
L 87.957149 105.608689 
L 89.383844 103.832142 
L 90.810539 102.113842 
L 92.237234 100.450971 
L 93.66393 98.840889 
L 95.090625 97.281123 
L 96.51732 95.769349 
L 97.944015 94.303387 
L 99.37071 92.881185 
L 100.797405 91.500812 
L 102.2241 90.16045 
L 103.650795 88.858385 
L 105.07749 87.592997 
L 106.504186 86.362758 
L 107.930881 85.166225 
L 109.357576 84.002031 
L 110.784271 82.868882 
L 112.210966 81.765552 
L 113.637661 80.690881 
L 115.064356 79.643765 
L 116.491051 78.623158 
L 117.917746 77.628067 
L 119.344442 76.657546 
L 120.771137 75.710696 
L 122.197832 74.786661 
L 123.624527 73.884628 
L 125.051222 73.003818 
L 126.477917 72.143493 
L 127.904612 71.302945 
L 129.331307 70.481501 
L 130.758002 69.678516 
L 132.184698 68.893375 
L 133.611393 68.12549 
L 135.038088 67.374298 
L 136.464783 66.639261 
L 137.891478 65.919863 
L 139.318173 65.21561 
L 140.744868 64.526029 
L 142.171563 63.850667 
L 143.598258 63.189087 
L 145.024954 62.540872 
L 146.451649 61.905622 
L 147.878344 61.282951 
L 149.305039 60.672489 
L 150.731734 60.073881 
L 152.158429 59.486784 
L 153.585124 58.910871 
L 155.011819 58.345823 
L 156.438515 57.791337 
L 157.86521 57.24712 
L 159.291905 56.712888 
L 160.7186 56.188369 
L 162.145295 55.673301 
L 163.57199 55.167431 
L 164.998685 54.670515 
L 166.42538 54.182316 
L 167.852075 53.702607 
L 169.278771 53.23117 
L 170.705466 52.767791 
L 172.132161 52.312266 
L 173.558856 51.864397 
L 174.985551 51.423992 
L 176.412246 50.990867 
L 177.838941 50.564842 
L 179.265636 50.145744 
L 180.692331 49.733407 
L 182.119027 49.327666 
L 183.545722 48.928366 
L 184.972417 48.535354 
L 186.399112 48.148483 
L 187.825807 47.767609 
L 189.252502 47.392596 
L 190.679197 47.023308 
L 192.105892 46.659615 
L 193.532587 46.301391 
L 194.959283 45.948514 
L 196.385978 45.600864 
L 197.812673 45.258327 
L 199.239368 44.920791 
L 200.666063 44.588146 
L 202.092758 44.260288 
L 203.519453 43.937114 
L 204.946148 43.618523 
L 206.372843 43.30442 
L 207.799539 42.994709 
L 209.226234 42.6893 
L 210.652929 42.388104 
L 212.079624 42.091034 
L 213.506319 41.798005 
L 214.933014 41.508937 
L 216.359709 41.223748 
L 217.786404 40.942362 
L 219.213099 40.664703 
L 220.639795 40.390697 
L 222.06649 40.120273 
L 223.493185 39.853362 
L 224.91988 39.589894 
L 226.346575 39.329804 
L 227.77327 39.073027 
L 229.199965 38.8195 
L 230.62666 38.569163 
L 232.053355 38.321955 
" clip-path="url(#p19b7c9197e)" style="fill: none; stroke: #e23726; stroke-width: 1.5; stroke-linecap: round"/>
   </g>
   <g id="patch_3">
    <path d="M 69.410113 239.759993 
L 69.410113 28.645892 
" style="fill: none; stroke: #262626; stroke-width: 1.25; stroke-linejoin: miter; stroke-linecap: square"/>
   </g>
   <g id="patch_4">
    <path d="M 237.760136 239.759993 
L 237.760136 28.645892 
" style="fill: none; stroke: #262626; stroke-width: 1.25; stroke-linejoin: miter; stroke-linecap: square"/>
   </g>
   <g id="patch_5">
    <path d="M 69.410113 239.759993 
L 237.760136 239.759993 
" style="fill: none; stroke: #262626; stroke-width: 1.25; stroke-linejoin: miter; stroke-linecap: square"/>
   </g>
   <g id="patch_6">
    <path d="M 69.410113 28.645892 
L 237.760136 28.645892 
" style="fill: none; stroke: #262626; stroke-width: 1.25; stroke-linejoin: miter; stroke-linecap: square"/>
   </g>
   <g id="text_19">
    <!-- \textbf{Albstadt} -->
    <g style="fill: #262626" transform="translate(126.623327 22.645892)scale(0.14 -0.14)">
     <defs>
      <path id="CMSSBX10-41" d="M 3034 4142 
C 2938 4416 2752 4416 2624 4416 
L 2061 4416 
C 1933 4416 1747 4416 1651 4142 
L 301 299 
C 269 216 269 204 269 172 
C 269 0 429 0 518 0 
L 749 0 
C 864 0 1062 0 1152 255 
L 1402 960 
L 3174 960 
L 3392 350 
C 3469 128 3514 0 3821 0 
L 4166 0 
C 4256 0 4416 0 4416 172 
C 4416 204 4416 216 4384 299 
L 3034 4142 
z
M 2054 2858 
C 2150 3137 2234 3379 2285 3608 
L 2291 3608 
C 2323 3455 2323 3442 2374 3296 
L 2982 1510 
L 1594 1510 
L 2054 2858 
z
" transform="scale(0.015625)"/>
      <path id="CMSSBX10-6c" d="M 1242 4109 
C 1242 4313 1197 4416 934 4416 
L 698 4416 
C 467 4416 390 4345 390 4109 
L 390 306 
C 390 76 461 0 698 0 
L 934 0 
C 1178 0 1242 83 1242 306 
L 1242 4109 
z
" transform="scale(0.015625)"/>
      <path id="CMSSBX10-62" d="M 1242 4113 
C 1242 4313 1197 4416 934 4416 
L 698 4416 
C 467 4416 390 4345 390 4113 
L 390 313 
C 390 83 461 6 698 6 
L 954 6 
C 1062 6 1254 6 1261 256 
C 1555 -64 1882 -64 1984 -64 
C 3347 -64 3347 1164 3347 1484 
C 3347 1791 3347 3008 2144 3008 
C 1619 3008 1299 2713 1242 2649 
L 1242 4113 
z
M 1261 2323 
C 1344 2399 1536 2547 1830 2547 
C 2477 2547 2477 1958 2477 1478 
C 2477 1004 2477 396 1760 396 
C 1491 396 1331 556 1261 646 
L 1261 2323 
z
" transform="scale(0.015625)"/>
      <path id="CMSSBX10-73" d="M 2534 914 
C 2534 1277 2342 1503 2227 1607 
C 1971 1840 1747 1879 1478 1931 
C 1126 1995 870 2047 870 2300 
C 870 2565 1082 2617 1331 2617 
C 1760 2617 1990 2455 2157 2313 
C 2221 2248 2234 2248 2259 2248 
C 2323 2248 2336 2306 2342 2332 
C 2355 2384 2419 2745 2419 2777 
C 2419 2879 2080 2969 2010 2995 
C 1754 3065 1549 3072 1382 3072 
C 1094 3072 237 3072 237 2151 
C 237 1833 378 1639 550 1484 
C 774 1277 1024 1231 1389 1160 
C 1574 1128 1901 1069 1901 784 
C 1901 480 1651 435 1402 435 
C 1120 435 762 519 461 882 
C 429 914 410 933 371 933 
C 307 933 294 875 288 836 
C 275 746 198 377 198 313 
C 198 198 672 51 678 44 
C 1030 -64 1293 -64 1402 -64 
C 1728 -64 2534 -39 2534 914 
z
" transform="scale(0.015625)"/>
      <path id="CMSSBX10-74" d="M 1395 2483 
L 1965 2483 
C 2042 2483 2272 2483 2272 2713 
C 2272 2944 2042 2944 1965 2944 
L 1395 2944 
L 1395 3470 
C 1395 3673 1350 3776 1088 3776 
L 890 3776 
C 659 3776 582 3705 582 3470 
L 582 2944 
L 435 2944 
C 365 2944 128 2944 128 2713 
C 128 2483 358 2483 435 2483 
L 563 2483 
L 563 858 
C 563 211 794 -64 1235 -64 
C 1293 -64 1574 -64 1907 38 
C 2016 70 2387 185 2387 307 
C 2387 326 2374 371 2336 505 
C 2304 634 2291 672 2234 672 
C 2202 672 2195 666 2157 627 
C 2086 576 1914 435 1645 435 
C 1491 435 1395 544 1395 968 
L 1395 2483 
z
" transform="scale(0.015625)"/>
      <path id="CMSSBX10-64" d="M 3194 4113 
C 3194 4313 3149 4416 2886 4416 
L 2650 4416 
C 2406 4416 2342 4332 2342 4113 
L 2342 2687 
C 2054 2963 1734 3008 1536 3008 
C 237 3008 237 1779 237 1465 
C 237 1171 237 -64 1504 -64 
C 1773 -64 2048 12 2323 307 
C 2323 70 2413 6 2630 6 
L 2886 6 
C 3130 6 3194 89 3194 313 
L 3194 4113 
z
M 2323 806 
C 2323 697 2323 640 2138 512 
C 1978 409 1830 396 1754 396 
C 1107 396 1107 985 1107 1465 
C 1107 1945 1107 2547 1824 2547 
C 2010 2547 2182 2483 2323 2348 
L 2323 806 
z
" transform="scale(0.015625)"/>
     </defs>
     <use xlink:href="#CMSSBX10-41" transform="scale(0.996264)"/>
     <use xlink:href="#CMSSBX10-6c" transform="translate(73.059766 0)scale(0.996264)"/>
     <use xlink:href="#CMSSBX10-62" transform="translate(98.519985 0)scale(0.996264)"/>
     <use xlink:href="#CMSSBX10-73" transform="translate(154.421773 0)scale(0.996264)"/>
     <use xlink:href="#CMSSBX10-74" transform="translate(196.431138 0)scale(0.996264)"/>
     <use xlink:href="#CMSSBX10-61" transform="translate(236.697042 0)scale(0.996264)"/>
     <use xlink:href="#CMSSBX10-64" transform="translate(289.001237 0)scale(0.996264)"/>
     <use xlink:href="#CMSSBX10-74" transform="translate(344.903025 0)scale(0.996264)"/>
    </g>
   </g>
  </g>
  <g id="axes_2">
   <g id="patch_7">
    <path d="M 294.387981 239.759993 
L 462.738005 239.759993 
L 462.738005 28.645892 
L 294.387981 28.645892 
z
" style="fill: #ffffff"/>
   </g>
   <g id="line2d_33">
    <path d="M 294.387981 147.166089 
L 479.206725 147.166089 
" clip-path="url(#p77e25122b7)" style="fill: none; stroke: #000000; stroke-width: 1.3; stroke-linecap: round"/>
   </g>
   <g id="LineCollection_7">
    <path d="M 342.895615 239.759993 
L 342.895615 145.304959 
" clip-path="url(#p77e25122b7)" style="fill: none; stroke-dasharray: 4.81,2.08; stroke-dashoffset: 0; stroke: #808080; stroke-width: 1.3"/>
   </g>
   <g id="LineCollection_8">
    <path d="M 294.387981 145.304959 
L 342.895615 145.304959 
" clip-path="url(#p77e25122b7)" style="fill: none; stroke-dasharray: 4.81,2.08; stroke-dashoffset: 0; stroke: #808080; stroke-width: 1.3"/>
   </g>
   <g id="LineCollection_9">
    <path d="M 342.895615 239.759993 
L 342.895615 97.813612 
" clip-path="url(#p77e25122b7)" style="fill: none; stroke-dasharray: 4.81,2.08; stroke-dashoffset: 0; stroke: #808080; stroke-width: 1.3"/>
   </g>
   <g id="LineCollection_10">
    <path d="M 294.387981 97.813612 
L 342.895615 97.813612 
" clip-path="url(#p77e25122b7)" style="fill: none; stroke-dasharray: 4.81,2.08; stroke-dashoffset: 0; stroke: #808080; stroke-width: 1.3"/>
   </g>
   <g id="LineCollection_11">
    <path d="M 342.895615 239.759993 
L 342.895615 80.035508 
" clip-path="url(#p77e25122b7)" style="fill: none; stroke-dasharray: 4.81,2.08; stroke-dashoffset: 0; stroke: #808080; stroke-width: 1.3"/>
   </g>
   <g id="LineCollection_12">
    <path d="M 294.387981 80.035508 
L 342.895615 80.035508 
" clip-path="url(#p77e25122b7)" style="fill: none; stroke-dasharray: 4.81,2.08; stroke-dashoffset: 0; stroke: #808080; stroke-width: 1.3"/>
   </g>
   <g id="matplotlib.axis_3">
    <g id="xtick_7">
     <g id="line2d_34">
      <g>
       <use xlink:href="#mb4f78bebd7" x="314.361713" y="239.759993" style="fill: #262626; stroke: #262626; stroke-width: 0.8"/>
      </g>
     </g>
     <g id="text_20">
      <!-- $\mathdefault{60}$ -->
      <g style="fill: #262626" transform="translate(308.882246 256.870339)scale(0.11 -0.11)">
       <use xlink:href="#CMR17-36" transform="scale(0.996264)"/>
       <use xlink:href="#CMR17-30" transform="translate(45.690477 0)scale(0.996264)"/>
      </g>
     </g>
    </g>
    <g id="xtick_8">
     <g id="line2d_35">
      <g>
       <use xlink:href="#mb4f78bebd7" x="342.895615" y="239.759993" style="fill: #262626; stroke: #262626; stroke-width: 0.8"/>
      </g>
     </g>
     <g id="text_21">
      <!-- $\mathdefault{80}$ -->
      <g style="fill: #262626" transform="translate(337.416148 256.870339)scale(0.11 -0.11)">
       <use xlink:href="#CMR17-38" transform="scale(0.996264)"/>
       <use xlink:href="#CMR17-30" transform="translate(45.690477 0)scale(0.996264)"/>
      </g>
     </g>
    </g>
    <g id="xtick_9">
     <g id="line2d_36">
      <g>
       <use xlink:href="#mb4f78bebd7" x="371.429518" y="239.759993" style="fill: #262626; stroke: #262626; stroke-width: 0.8"/>
      </g>
     </g>
     <g id="text_22">
      <!-- $\mathdefault{100}$ -->
      <g style="fill: #262626" transform="translate(363.210317 256.870339)scale(0.11 -0.11)">
       <use xlink:href="#CMR17-31" transform="scale(0.996264)"/>
       <use xlink:href="#CMR17-30" transform="translate(45.690477 0)scale(0.996264)"/>
       <use xlink:href="#CMR17-30" transform="translate(91.380954 0)scale(0.996264)"/>
      </g>
     </g>
    </g>
    <g id="xtick_10">
     <g id="line2d_37">
      <g>
       <use xlink:href="#mb4f78bebd7" x="399.96342" y="239.759993" style="fill: #262626; stroke: #262626; stroke-width: 0.8"/>
      </g>
     </g>
     <g id="text_23">
      <!-- $\mathdefault{120}$ -->
      <g style="fill: #262626" transform="translate(391.744219 256.870339)scale(0.11 -0.11)">
       <use xlink:href="#CMR17-31" transform="scale(0.996264)"/>
       <use xlink:href="#CMR17-32" transform="translate(45.690477 0)scale(0.996264)"/>
       <use xlink:href="#CMR17-30" transform="translate(91.380954 0)scale(0.996264)"/>
      </g>
     </g>
    </g>
    <g id="xtick_11">
     <g id="line2d_38">
      <g>
       <use xlink:href="#mb4f78bebd7" x="428.497322" y="239.759993" style="fill: #262626; stroke: #262626; stroke-width: 0.8"/>
      </g>
     </g>
     <g id="text_24">
      <!-- $\mathdefault{140}$ -->
      <g style="fill: #262626" transform="translate(420.278121 256.870339)scale(0.11 -0.11)">
       <use xlink:href="#CMR17-31" transform="scale(0.996264)"/>
       <use xlink:href="#CMR17-34" transform="translate(45.690477 0)scale(0.996264)"/>
       <use xlink:href="#CMR17-30" transform="translate(91.380954 0)scale(0.996264)"/>
      </g>
     </g>
    </g>
    <g id="xtick_12">
     <g id="line2d_39">
      <g>
       <use xlink:href="#mb4f78bebd7" x="457.031224" y="239.759993" style="fill: #262626; stroke: #262626; stroke-width: 0.8"/>
      </g>
     </g>
     <g id="text_25">
      <!-- $\mathdefault{160}$ -->
      <g style="fill: #262626" transform="translate(448.812023 256.870339)scale(0.11 -0.11)">
       <use xlink:href="#CMR17-31" transform="scale(0.996264)"/>
       <use xlink:href="#CMR17-36" transform="translate(45.690477 0)scale(0.996264)"/>
       <use xlink:href="#CMR17-30" transform="translate(91.380954 0)scale(0.996264)"/>
      </g>
     </g>
    </g>
   </g>
   <g id="matplotlib.axis_4">
    <g id="ytick_12">
     <g id="line2d_40">
      <path d="M 294.387981 221.241212 
L 462.738005 221.241212 
" clip-path="url(#p77e25122b7)" style="fill: none; stroke: #cccccc; stroke-width: 0.8; stroke-linecap: round"/>
     </g>
     <g id="line2d_41">
      <g>
       <use xlink:href="#m3943df39df" x="294.387981" y="221.241212" style="fill: #262626; stroke: #262626; stroke-width: 0.8"/>
      </g>
     </g>
     <g id="text_26">
      <!-- $-10\%$ -->
      <g style="fill: #262626" transform="translate(256.272998 225.046385)scale(0.11 -0.11)">
       <use xlink:href="#CMSY10-0" transform="scale(0.996264)"/>
       <use xlink:href="#CMR17-31" transform="translate(77.487468 0)scale(0.996264)"/>
       <use xlink:href="#CMR17-30" transform="translate(123.177945 0)scale(0.996264)"/>
       <use xlink:href="#CMR17-25" transform="translate(168.868422 0)scale(0.996264)"/>
      </g>
     </g>
    </g>
    <g id="ytick_13">
     <g id="line2d_42">
      <path d="M 294.387981 202.722431 
L 462.738005 202.722431 
" clip-path="url(#p77e25122b7)" style="fill: none; stroke: #cccccc; stroke-width: 0.8; stroke-linecap: round"/>
     </g>
     <g id="line2d_43">
      <g>
       <use xlink:href="#m3943df39df" x="294.387981" y="202.722431" style="fill: #262626; stroke: #262626; stroke-width: 0.8"/>
      </g>
     </g>
     <g id="text_27">
      <!-- $-7.5\%$ -->
      <g style="fill: #262626" transform="translate(253.228856 206.527604)scale(0.11 -0.11)">
       <use xlink:href="#CMSY10-0" transform="scale(0.996264)"/>
       <use xlink:href="#CMR17-37" transform="translate(77.487468 0)scale(0.996264)"/>
       <use xlink:href="#CMMI12-3a" transform="translate(123.177945 0)scale(0.996264)"/>
       <use xlink:href="#CMR17-35" transform="translate(150.275122 0)scale(0.996264)"/>
       <use xlink:href="#CMR17-25" transform="translate(195.965599 0)scale(0.996264)"/>
      </g>
     </g>
    </g>
    <g id="ytick_14">
     <g id="line2d_44">
      <path d="M 294.387981 184.20365 
L 462.738005 184.20365 
" clip-path="url(#p77e25122b7)" style="fill: none; stroke: #cccccc; stroke-width: 0.8; stroke-linecap: round"/>
     </g>
     <g id="line2d_45">
      <g>
       <use xlink:href="#m3943df39df" x="294.387981" y="184.20365" style="fill: #262626; stroke: #262626; stroke-width: 0.8"/>
      </g>
     </g>
     <g id="text_28">
      <!-- $-5\%$ -->
      <g style="fill: #262626" transform="translate(261.752465 188.008824)scale(0.11 -0.11)">
       <use xlink:href="#CMSY10-0" transform="scale(0.996264)"/>
       <use xlink:href="#CMR17-35" transform="translate(77.487468 0)scale(0.996264)"/>
       <use xlink:href="#CMR17-25" transform="translate(123.177945 0)scale(0.996264)"/>
      </g>
     </g>
    </g>
    <g id="ytick_15">
     <g id="line2d_46">
      <path d="M 294.387981 165.684869 
L 462.738005 165.684869 
" clip-path="url(#p77e25122b7)" style="fill: none; stroke: #cccccc; stroke-width: 0.8; stroke-linecap: round"/>
     </g>
     <g id="line2d_47">
      <g>
       <use xlink:href="#m3943df39df" x="294.387981" y="165.684869" style="fill: #262626; stroke: #262626; stroke-width: 0.8"/>
      </g>
     </g>
     <g id="text_29">
      <!-- $-2.5\%$ -->
      <g style="fill: #262626" transform="translate(253.228856 169.490043)scale(0.11 -0.11)">
       <use xlink:href="#CMSY10-0" transform="scale(0.996264)"/>
       <use xlink:href="#CMR17-32" transform="translate(77.487468 0)scale(0.996264)"/>
       <use xlink:href="#CMMI12-3a" transform="translate(123.177945 0)scale(0.996264)"/>
       <use xlink:href="#CMR17-35" transform="translate(150.275122 0)scale(0.996264)"/>
       <use xlink:href="#CMR17-25" transform="translate(195.965599 0)scale(0.996264)"/>
      </g>
     </g>
    </g>
    <g id="ytick_16">
     <g id="line2d_48">
      <path d="M 294.387981 147.166089 
L 462.738005 147.166089 
" clip-path="url(#p77e25122b7)" style="fill: none; stroke: #cccccc; stroke-width: 0.8; stroke-linecap: round"/>
     </g>
     <g id="line2d_49">
      <g>
       <use xlink:href="#m3943df39df" x="294.387981" y="147.166089" style="fill: #262626; stroke: #262626; stroke-width: 0.8"/>
      </g>
     </g>
     <g id="text_30">
      <!-- $0\%$ -->
      <g style="fill: #262626" transform="translate(270.276074 150.971262)scale(0.11 -0.11)">
       <use xlink:href="#CMR17-30" transform="scale(0.996264)"/>
       <use xlink:href="#CMR17-25" transform="translate(45.690477 0)scale(0.996264)"/>
      </g>
     </g>
    </g>
    <g id="ytick_17">
     <g id="line2d_50">
      <path d="M 294.387981 128.647308 
L 462.738005 128.647308 
" clip-path="url(#p77e25122b7)" style="fill: none; stroke: #cccccc; stroke-width: 0.8; stroke-linecap: round"/>
     </g>
     <g id="line2d_51">
      <g>
       <use xlink:href="#m3943df39df" x="294.387981" y="128.647308" style="fill: #262626; stroke: #262626; stroke-width: 0.8"/>
      </g>
     </g>
     <g id="text_31">
      <!-- $2.5\%$ -->
      <g style="fill: #262626" transform="translate(261.752465 132.452481)scale(0.11 -0.11)">
       <use xlink:href="#CMR17-32" transform="scale(0.996264)"/>
       <use xlink:href="#CMMI12-3a" transform="translate(45.690477 0)scale(0.996264)"/>
       <use xlink:href="#CMR17-35" transform="translate(72.787654 0)scale(0.996264)"/>
       <use xlink:href="#CMR17-25" transform="translate(118.478131 0)scale(0.996264)"/>
      </g>
     </g>
    </g>
    <g id="ytick_18">
     <g id="line2d_52">
      <path d="M 294.387981 110.128527 
L 462.738005 110.128527 
" clip-path="url(#p77e25122b7)" style="fill: none; stroke: #cccccc; stroke-width: 0.8; stroke-linecap: round"/>
     </g>
     <g id="line2d_53">
      <g>
       <use xlink:href="#m3943df39df" x="294.387981" y="110.128527" style="fill: #262626; stroke: #262626; stroke-width: 0.8"/>
      </g>
     </g>
     <g id="text_32">
      <!-- $5\%$ -->
      <g style="fill: #262626" transform="translate(270.276074 113.9337)scale(0.11 -0.11)">
       <use xlink:href="#CMR17-35" transform="scale(0.996264)"/>
       <use xlink:href="#CMR17-25" transform="translate(45.690477 0)scale(0.996264)"/>
      </g>
     </g>
    </g>
    <g id="ytick_19">
     <g id="line2d_54">
      <path d="M 294.387981 91.609746 
L 462.738005 91.609746 
" clip-path="url(#p77e25122b7)" style="fill: none; stroke: #cccccc; stroke-width: 0.8; stroke-linecap: round"/>
     </g>
     <g id="line2d_55">
      <g>
       <use xlink:href="#m3943df39df" x="294.387981" y="91.609746" style="fill: #262626; stroke: #262626; stroke-width: 0.8"/>
      </g>
     </g>
     <g id="text_33">
      <!-- $7.5\%$ -->
      <g style="fill: #262626" transform="translate(261.752465 95.41492)scale(0.11 -0.11)">
       <use xlink:href="#CMR17-37" transform="scale(0.996264)"/>
       <use xlink:href="#CMMI12-3a" transform="translate(45.690477 0)scale(0.996264)"/>
       <use xlink:href="#CMR17-35" transform="translate(72.787654 0)scale(0.996264)"/>
       <use xlink:href="#CMR17-25" transform="translate(118.478131 0)scale(0.996264)"/>
      </g>
     </g>
    </g>
    <g id="ytick_20">
     <g id="line2d_56">
      <path d="M 294.387981 73.090966 
L 462.738005 73.090966 
" clip-path="url(#p77e25122b7)" style="fill: none; stroke: #cccccc; stroke-width: 0.8; stroke-linecap: round"/>
     </g>
     <g id="line2d_57">
      <g>
       <use xlink:href="#m3943df39df" x="294.387981" y="73.090966" style="fill: #262626; stroke: #262626; stroke-width: 0.8"/>
      </g>
     </g>
     <g id="text_34">
      <!-- $10\%$ -->
      <g style="fill: #262626" transform="translate(264.796607 76.896139)scale(0.11 -0.11)">
       <use xlink:href="#CMR17-31" transform="scale(0.996264)"/>
       <use xlink:href="#CMR17-30" transform="translate(45.690477 0)scale(0.996264)"/>
       <use xlink:href="#CMR17-25" transform="translate(91.380954 0)scale(0.996264)"/>
      </g>
     </g>
    </g>
    <g id="ytick_21">
     <g id="line2d_58">
      <path d="M 294.387981 54.572185 
L 462.738005 54.572185 
" clip-path="url(#p77e25122b7)" style="fill: none; stroke: #cccccc; stroke-width: 0.8; stroke-linecap: round"/>
     </g>
     <g id="line2d_59">
      <g>
       <use xlink:href="#m3943df39df" x="294.387981" y="54.572185" style="fill: #262626; stroke: #262626; stroke-width: 0.8"/>
      </g>
     </g>
     <g id="text_35">
      <!-- $12.5\%$ -->
      <g style="fill: #262626" transform="translate(256.272998 58.377358)scale(0.11 -0.11)">
       <use xlink:href="#CMR17-31" transform="scale(0.996264)"/>
       <use xlink:href="#CMR17-32" transform="translate(45.690477 0)scale(0.996264)"/>
       <use xlink:href="#CMMI12-3a" transform="translate(91.380954 0)scale(0.996264)"/>
       <use xlink:href="#CMR17-35" transform="translate(118.478131 0)scale(0.996264)"/>
       <use xlink:href="#CMR17-25" transform="translate(164.168608 0)scale(0.996264)"/>
      </g>
     </g>
    </g>
    <g id="ytick_22">
     <g id="line2d_60">
      <path d="M 294.387981 36.053404 
L 462.738005 36.053404 
" clip-path="url(#p77e25122b7)" style="fill: none; stroke: #cccccc; stroke-width: 0.8; stroke-linecap: round"/>
     </g>
     <g id="line2d_61">
      <g>
       <use xlink:href="#m3943df39df" x="294.387981" y="36.053404" style="fill: #262626; stroke: #262626; stroke-width: 0.8"/>
      </g>
     </g>
     <g id="text_36">
      <!-- $15\%$ -->
      <g style="fill: #262626" transform="translate(264.796607 39.858577)scale(0.11 -0.11)">
       <use xlink:href="#CMR17-31" transform="scale(0.996264)"/>
       <use xlink:href="#CMR17-35" transform="translate(45.690477 0)scale(0.996264)"/>
       <use xlink:href="#CMR17-25" transform="translate(91.380954 0)scale(0.996264)"/>
      </g>
     </g>
    </g>
   </g>
   <g id="line2d_62">
    <path d="M 300.094762 233.078417 
L 301.521457 228.488954 
L 302.948152 224.07601 
L 304.374847 219.829592 
L 305.801542 215.740448 
L 307.228238 211.800001 
L 308.654933 208.000284 
L 310.081628 204.33389 
L 311.508323 200.793924 
L 312.935018 197.373956 
L 314.361713 194.067988 
L 315.788408 190.870411 
L 317.215103 187.775983 
L 318.641798 184.77979 
L 320.068494 181.877228 
L 321.495189 179.063976 
L 322.921884 176.335974 
L 324.348579 173.689405 
L 325.775274 171.120676 
L 327.201969 168.626403 
L 328.628664 166.203395 
L 330.055359 163.848641 
L 331.482054 161.559297 
L 332.90875 159.332674 
L 334.335445 157.16623 
L 335.76214 155.057558 
L 337.188835 153.004378 
L 338.61553 151.004527 
L 340.042225 149.055954 
L 341.46892 147.156712 
L 342.895615 145.304951 
L 344.32231 143.498913 
L 345.749006 141.736924 
L 347.175701 140.017393 
L 348.602396 138.338803 
L 350.029091 136.69971 
L 351.455786 135.098734 
L 352.882481 133.534563 
L 354.309176 132.005941 
L 355.735871 130.511671 
L 357.162566 129.050606 
L 358.589262 127.621652 
L 360.015957 126.223763 
L 361.442652 124.855936 
L 362.869347 123.517212 
L 364.296042 122.206671 
L 365.722737 120.923433 
L 367.149432 119.666654 
L 368.576127 118.435523 
L 370.002822 117.229264 
L 371.429518 116.047129 
L 372.856213 114.888404 
L 374.282908 113.752398 
L 375.709603 112.638451 
L 377.136298 111.545926 
L 378.562993 110.474211 
L 379.989688 109.422717 
L 381.416383 108.390877 
L 382.843078 107.378145 
L 384.269774 106.383996 
L 385.696469 105.407922 
L 387.123164 104.449434 
L 388.549859 103.508063 
L 389.976554 102.583353 
L 391.403249 101.674866 
L 392.829944 100.782179 
L 394.256639 99.904883 
L 395.683335 99.042583 
L 397.11003 98.194899 
L 398.536725 97.361462 
L 399.96342 96.541915 
L 401.390115 95.735914 
L 402.81681 94.943127 
L 404.243505 94.16323 
L 405.6702 93.395913 
L 407.096895 92.640872 
L 408.523591 91.897816 
L 409.950286 91.166462 
L 411.376981 90.446535 
L 412.803676 89.73777 
L 414.230371 89.039909 
L 415.657066 88.352703 
L 417.083761 87.675908 
L 418.510456 87.009291 
L 419.937151 86.352624 
L 421.363847 85.705685 
L 422.790542 85.068259 
L 424.217237 84.44014 
L 425.643932 83.821123 
L 427.070627 83.211013 
L 428.497322 82.609619 
L 429.924017 82.016755 
L 431.350712 81.432242 
L 432.777407 80.855903 
L 434.204103 80.28757 
L 435.630798 79.727075 
L 437.057493 79.174258 
L 438.484188 78.628963 
L 439.910883 78.091036 
L 441.337578 77.56033 
L 442.764273 77.0367 
L 444.190968 76.520006 
L 445.617663 76.01011 
L 447.044359 75.50688 
L 448.471054 75.010185 
L 449.897749 74.519899 
L 451.324444 74.035898 
L 452.751139 73.558063 
L 454.177834 73.086277 
L 455.604529 72.620425 
L 457.031224 72.160397 
" clip-path="url(#p77e25122b7)" style="fill: none; stroke: #207720; stroke-width: 1.5; stroke-linecap: round"/>
   </g>
   <g id="line2d_63">
    <path d="M 300.094762 157.092155 
L 301.521457 153.99262 
L 302.948152 151.012297 
L 304.374847 148.144439 
L 305.801542 145.382799 
L 307.228238 142.721581 
L 308.654933 140.155407 
L 310.081628 137.679275 
L 311.508323 135.288526 
L 312.935018 132.978819 
L 314.361713 130.746103 
L 315.788408 128.586591 
L 317.215103 126.49674 
L 318.641798 124.473234 
L 320.068494 122.512962 
L 321.495189 120.613006 
L 322.921884 118.770625 
L 324.348579 116.98324 
L 325.775274 115.248425 
L 327.201969 113.563895 
L 328.628664 111.927494 
L 330.055359 110.337189 
L 331.482054 108.79106 
L 332.90875 107.28729 
L 334.335445 105.824162 
L 335.76214 104.400051 
L 337.188835 103.013417 
L 338.61553 101.662799 
L 340.042225 100.346812 
L 341.46892 99.064142 
L 342.895615 97.813538 
L 344.32231 96.593813 
L 345.749006 95.403838 
L 347.175701 94.242537 
L 348.602396 93.108886 
L 350.029091 92.001909 
L 351.455786 90.920675 
L 352.882481 89.864298 
L 354.309176 88.831929 
L 355.735871 87.82276 
L 357.162566 86.836016 
L 358.589262 85.870959 
L 360.015957 84.926882 
L 361.442652 84.003107 
L 362.869347 83.098988 
L 364.296042 82.213902 
L 365.722737 81.347255 
L 367.149432 80.498478 
L 368.576127 79.667022 
L 370.002822 78.852364 
L 371.429518 78.053999 
L 372.856213 77.271443 
L 374.282908 76.504231 
L 375.709603 75.751917 
L 377.136298 75.01407 
L 378.562993 74.290277 
L 379.989688 73.580141 
L 381.416383 72.883278 
L 382.843078 72.199321 
L 384.269774 71.527912 
L 385.696469 70.868712 
L 387.123164 70.221389 
L 388.549859 69.585625 
L 389.976554 68.961114 
L 391.403249 68.347559 
L 392.829944 67.744674 
L 394.256639 67.152184 
L 395.683335 66.569822 
L 397.11003 65.997331 
L 398.536725 65.434461 
L 399.96342 64.880973 
L 401.390115 64.336633 
L 402.81681 63.801216 
L 404.243505 63.274506 
L 405.6702 62.756291 
L 407.096895 62.246368 
L 408.523591 61.744538 
L 409.950286 61.250611 
L 411.376981 60.764402 
L 412.803676 60.285731 
L 414.230371 59.814424 
L 415.657066 59.350313 
L 417.083761 58.893234 
L 418.510456 58.443028 
L 419.937151 57.999541 
L 421.363847 57.562625 
L 422.790542 57.132134 
L 424.217237 56.707927 
L 425.643932 56.289869 
L 427.070627 55.877825 
L 428.497322 55.471668 
L 429.924017 55.071272 
L 431.350712 54.676516 
L 432.777407 54.28728 
L 434.204103 53.903451 
L 435.630798 53.524916 
L 437.057493 53.151566 
L 438.484188 52.783296 
L 439.910883 52.420002 
L 441.337578 52.061585 
L 442.764273 51.707947 
L 444.190968 51.358992 
L 445.617663 51.01463 
L 447.044359 50.674768 
L 448.471054 50.339321 
L 449.897749 50.008201 
L 451.324444 49.681327 
L 452.751139 49.358617 
L 454.177834 49.039992 
L 455.604529 48.725375 
L 457.031224 48.41469 
" clip-path="url(#p77e25122b7)" style="fill: none; stroke: #234990; stroke-width: 1.5; stroke-linecap: round"/>
   </g>
   <g id="line2d_64">
    <path d="M 300.094762 128.647308 
L 301.521457 126.105514 
L 302.948152 123.661482 
L 304.374847 121.309678 
L 305.801542 119.044977 
L 307.228238 116.862629 
L 308.654933 114.758222 
L 310.081628 112.727654 
L 311.508323 110.767106 
L 312.935018 108.873017 
L 314.361713 107.042064 
L 315.788408 105.271142 
L 317.215103 103.557347 
L 318.641798 101.897958 
L 320.068494 100.290425 
L 321.495189 98.732354 
L 322.921884 97.221498 
L 324.348579 95.755742 
L 325.775274 94.333096 
L 327.201969 92.951687 
L 328.628664 91.609746 
L 330.055359 90.305607 
L 331.482054 89.037693 
L 332.90875 87.804517 
L 334.335445 86.60467 
L 335.76214 85.436819 
L 337.188835 84.299701 
L 338.61553 83.192119 
L 340.042225 82.112936 
L 341.46892 81.061074 
L 342.895615 80.035508 
L 344.32231 79.035266 
L 345.749006 78.059419 
L 347.175701 77.107087 
L 348.602396 76.177429 
L 350.029091 75.269646 
L 351.455786 74.382974 
L 352.882481 73.516685 
L 354.309176 72.670084 
L 355.735871 71.842508 
L 357.162566 71.033323 
L 358.589262 70.241922 
L 360.015957 69.467726 
L 361.442652 68.710179 
L 362.869347 67.96875 
L 364.296042 67.24293 
L 365.722737 66.532231 
L 367.149432 65.836185 
L 368.576127 65.154345 
L 370.002822 64.48628 
L 371.429518 63.831575 
L 372.856213 63.189835 
L 374.282908 62.560678 
L 375.709603 61.943738 
L 377.136298 61.338662 
L 378.562993 60.745112 
L 379.989688 60.16276 
L 381.416383 59.591294 
L 382.843078 59.03041 
L 384.269774 58.479817 
L 385.696469 57.939236 
L 387.123164 57.408394 
L 388.549859 56.887032 
L 389.976554 56.374898 
L 391.403249 55.871748 
L 392.829944 55.377349 
L 394.256639 54.891474 
L 395.683335 54.413905 
L 397.11003 53.944429 
L 398.536725 53.482845 
L 399.96342 53.028953 
L 401.390115 52.582564 
L 402.81681 52.143492 
L 404.243505 51.71156 
L 405.6702 51.286595 
L 407.096895 50.868429 
L 408.523591 50.4569 
L 409.950286 50.051852 
L 411.376981 49.653134 
L 412.803676 49.260596 
L 414.230371 48.874098 
L 415.657066 48.493501 
L 417.083761 48.11867 
L 418.510456 47.749476 
L 419.937151 47.385792 
L 421.363847 47.027496 
L 422.790542 46.674469 
L 424.217237 46.326596 
L 425.643932 45.983765 
L 427.070627 45.645866 
L 428.497322 45.312794 
L 429.924017 44.984447 
L 431.350712 44.660725 
L 432.777407 44.34153 
L 434.204103 44.026768 
L 435.630798 43.716348 
L 437.057493 43.41018 
L 438.484188 43.108178 
L 439.910883 42.810256 
L 441.337578 42.516334 
L 442.764273 42.226331 
L 444.190968 41.940169 
L 445.617663 41.657772 
L 447.044359 41.379066 
L 448.471054 41.103981 
L 449.897749 40.832444 
L 451.324444 40.564389 
L 452.751139 40.299749 
L 454.177834 40.038458 
L 455.604529 39.780454 
L 457.031224 39.525675 
" clip-path="url(#p77e25122b7)" style="fill: none; stroke: #e23726; stroke-width: 1.5; stroke-linecap: round"/>
   </g>
   <g id="patch_8">
    <path d="M 294.387981 239.759993 
L 294.387981 28.645892 
" style="fill: none; stroke: #262626; stroke-width: 1.25; stroke-linejoin: miter; stroke-linecap: square"/>
   </g>
   <g id="patch_9">
    <path d="M 462.738005 239.759993 
L 462.738005 28.645892 
" style="fill: none; stroke: #262626; stroke-width: 1.25; stroke-linejoin: miter; stroke-linecap: square"/>
   </g>
   <g id="patch_10">
    <path d="M 294.387981 239.759993 
L 462.738005 239.759993 
" style="fill: none; stroke: #262626; stroke-width: 1.25; stroke-linejoin: miter; stroke-linecap: square"/>
   </g>
   <g id="patch_11">
    <path d="M 294.387981 28.645892 
L 462.738005 28.645892 
" style="fill: none; stroke: #262626; stroke-width: 1.25; stroke-linejoin: miter; stroke-linecap: square"/>
   </g>
   <g id="text_37">
    <!-- \textbf{Wrzburg} -->
    <g style="fill: #262626" transform="translate(347.22895 22.645892)scale(0.14 -0.14)">
     <defs>
      <path id="CMSSBX10-57" d="M 6464 4109 
C 6490 4198 6490 4224 6490 4230 
C 6490 4416 6317 4416 6227 4416 
L 6093 4416 
C 5965 4416 5786 4416 5709 4135 
L 5030 1629 
C 4941 1304 4883 1094 4826 814 
L 4819 814 
C 4787 986 4787 999 4634 1559 
L 3942 4135 
C 3872 4383 3744 4416 3558 4416 
L 3136 4416 
C 3002 4416 2822 4416 2746 4135 
L 2182 2048 
L 2022 1419 
C 1952 1120 1901 916 1888 814 
L 1882 814 
C 1830 1145 1677 1705 1568 2106 
L 1018 4141 
C 941 4416 755 4416 634 4416 
L 416 4416 
C 326 4416 154 4416 154 4230 
C 154 4224 154 4198 179 4109 
L 1229 267 
C 1299 0 1478 0 1613 0 
L 2035 0 
C 2170 0 2349 0 2426 293 
L 3098 2780 
C 3194 3123 3238 3301 3302 3607 
L 3309 3607 
C 3386 3238 3424 3079 3539 2665 
L 4192 267 
C 4262 0 4442 0 4570 0 
L 5030 0 
C 5165 0 5344 0 5414 267 
L 6464 4109 
z
" transform="scale(0.015625)"/>
      <path id="CMSSBX10-7f" d="M 934 4480 
C 730 4480 627 4441 627 4185 
L 627 4038 
C 627 3801 717 3743 934 3743 
L 1222 3743 
C 1530 3743 1530 3903 1530 4108 
C 1530 4326 1530 4480 1222 4480 
L 934 4480 
z
M 2579 3743 
C 2784 3743 2886 3782 2886 4038 
L 2886 4185 
C 2886 4422 2797 4480 2579 4480 
L 2291 4480 
C 1984 4480 1984 4319 1984 4115 
C 1984 3897 1984 3743 2291 3743 
L 2579 3743 
z
" transform="scale(0.015625)"/>
      <path id="CMSSBX10-75" d="M 3200 2636 
C 3200 2841 3155 2944 2893 2944 
L 2637 2944 
C 2394 2944 2330 2860 2330 2636 
L 2330 1115 
C 2330 692 2106 326 1651 326 
C 1293 326 1254 416 1254 756 
L 1254 2636 
C 1254 2841 1210 2944 947 2944 
L 691 2944 
C 461 2944 384 2873 384 2636 
L 384 814 
C 384 128 755 -64 1421 -64 
C 1594 -64 2048 -64 2349 480 
L 2349 313 
C 2349 108 2394 6 2656 6 
L 2893 6 
C 3136 6 3200 89 3200 313 
L 3200 2636 
z
" transform="scale(0.015625)"/>
      <path id="CMSSBX10-7a" d="M 2726 2457 
C 2790 2540 2803 2572 2803 2675 
C 2803 2944 2605 2944 2496 2944 
L 602 2944 
C 518 2944 294 2944 294 2700 
C 294 2463 499 2463 672 2463 
C 877 2463 1395 2476 1600 2476 
L 1837 2476 
L 275 486 
C 211 403 198 371 198 268 
C 198 0 397 0 506 0 
L 2515 0 
C 2598 0 2822 0 2822 236 
C 2822 480 2624 480 2438 480 
C 2118 480 1779 467 1459 467 
L 1165 467 
L 2726 2457 
z
" transform="scale(0.015625)"/>
     </defs>
     <use xlink:href="#CMSSBX10-57" transform="scale(0.996264)"/>
     <use xlink:href="#CMSSBX10-7f" transform="translate(104.054817 0)scale(0.996264)"/>
     <use xlink:href="#CMSSBX10-75" transform="translate(103.501335 0)scale(0.996264)"/>
     <use xlink:href="#CMSSBX10-72" transform="translate(159.403123 0)scale(0.996264)"/>
     <use xlink:href="#CMSSBX10-7a" transform="translate(196.486534 0)scale(0.996264)"/>
     <use xlink:href="#CMSSBX10-62" transform="translate(243.94773 0)scale(0.996264)"/>
     <use xlink:href="#CMSSBX10-75" transform="translate(299.849518 0)scale(0.996264)"/>
     <use xlink:href="#CMSSBX10-72" transform="translate(355.751306 0)scale(0.996264)"/>
     <use xlink:href="#CMSSBX10-67" transform="translate(392.834716 0)scale(0.996264)"/>
    </g>
   </g>
  </g>
  <g id="text_38">
   <!-- \textbf{Basket size } -->
   <g style="fill: #262626" transform="translate(201.037225 278.446013)scale(0.12 -0.12)">
    <defs>
     <path id="CMSSBX10-42" d="M 890 4416 
C 659 4416 582 4345 582 4108 
L 582 307 
C 582 76 653 0 890 0 
L 2643 0 
C 3117 0 4294 83 4294 1227 
C 4294 2112 3405 2252 3168 2291 
C 3757 2425 4096 2759 4096 3261 
C 4096 4416 2733 4416 2464 4416 
L 890 4416 
z
M 1485 2508 
L 1485 3865 
L 2234 3865 
C 2483 3865 3226 3846 3226 3241 
C 3226 2508 2387 2508 2227 2508 
L 1485 2508 
z
M 1485 550 
L 1485 2048 
L 2291 2048 
C 2515 2048 3405 2048 3405 1239 
C 3405 594 2720 550 2413 550 
L 1485 550 
z
" transform="scale(0.015625)"/>
     <path id="CMSSBX10-6b" d="M 2003 1730 
L 2989 2640 
C 3066 2710 3085 2729 3085 2780 
C 3085 2913 2957 2913 2867 2913 
L 2496 2913 
C 2381 2913 2259 2913 2112 2780 
L 1190 1928 
L 1190 4109 
C 1190 4313 1146 4416 883 4416 
L 749 4416 
C 518 4416 442 4345 442 4109 
L 442 306 
C 442 76 512 0 749 0 
L 864 0 
C 1107 0 1171 83 1171 306 
L 1171 967 
L 1472 1241 
L 2304 159 
C 2413 19 2458 0 2643 0 
L 2950 0 
C 3040 0 3181 0 3181 140 
C 3181 153 3181 198 3117 280 
L 2003 1730 
z
" transform="scale(0.015625)"/>
     <path id="CMSSBX10-65" d="M 2758 1388 
C 2906 1388 3066 1395 3066 1683 
C 3066 2520 2682 3072 1728 3072 
C 704 3072 198 2494 198 1510 
C 198 448 806 -64 1811 -64 
C 2054 -64 2419 -32 2842 179 
C 2982 249 3027 268 3027 345 
C 3027 390 3008 578 3002 630 
C 2976 831 2970 837 2912 837 
C 2886 837 2874 837 2803 772 
C 2426 442 2042 396 1837 396 
C 1114 396 1037 973 1018 1388 
L 2758 1388 
z
M 1024 1728 
C 1043 2124 1171 2611 1728 2611 
C 2240 2611 2336 2234 2355 1728 
L 1024 1728 
z
" transform="scale(0.015625)"/>
     <path id="SFSX3583-bf" d="M 1069 2432 
L 1069 1996 
L 461 1996 
C 422 1996 403 1984 403 1945 
L 403 1696 
C 403 1664 435 1664 474 1664 
L 608 1664 
C 781 1664 947 1657 1120 1657 
C 1171 1014 1722 528 2086 339 
C 2714 6 3424 0 4115 0 
L 5453 0 
C 5510 0 5530 6 5530 64 
L 5530 102 
C 5530 160 5536 217 5536 275 
L 5536 300 
C 5536 358 5530 403 5459 403 
C 4890 401 4333 352 3770 352 
L 3693 352 
C 2893 383 1914 631 1734 1632 
C 1958 1632 2189 1619 2413 1619 
L 2880 1619 
C 3219 1619 3558 1600 3898 1600 
L 4205 1600 
C 4250 1600 4250 1632 4250 1670 
L 4250 1932 
C 4250 1977 4243 1996 4198 1996 
L 1677 1996 
L 1677 2432 
L 4198 2432 
C 4224 2432 4250 2438 4250 2489 
L 4250 2764 
C 4250 2803 4230 2816 4179 2816 
L 4134 2816 
C 4013 2816 3898 2803 3776 2803 
C 3693 2803 3610 2809 3526 2809 
C 3475 2809 3430 2809 3379 2803 
L 2918 2803 
C 2694 2803 2477 2790 2253 2790 
C 2157 2790 2061 2796 1965 2796 
C 1894 2796 1818 2790 1747 2783 
C 2074 3710 2880 3935 3674 3935 
C 4269 3935 4851 3891 5446 3891 
L 5478 3891 
C 5523 3891 5530 3916 5530 3955 
L 5530 4223 
C 5530 4268 5504 4288 5453 4288 
C 5427 4294 5402 4288 5382 4288 
L 4038 4288 
C 2950 4288 1600 4230 1158 2904 
C 1146 2841 1133 2784 1050 2784 
C 1024 2784 992 2790 973 2790 
C 845 2790 710 2784 582 2784 
L 454 2784 
C 410 2784 403 2758 403 2720 
L 403 2489 
C 403 2432 429 2432 480 2432 
L 1069 2432 
z
" transform="scale(0.015625)"/>
    </defs>
    <use xlink:href="#CMSSBX10-42" transform="scale(0.996264)"/>
    <use xlink:href="#CMSSBX10-61" transform="translate(73.059766 0)scale(0.996264)"/>
    <use xlink:href="#CMSSBX10-73" transform="translate(125.363961 0)scale(0.996264)"/>
    <use xlink:href="#CMSSBX10-6b" transform="translate(167.373327 0)scale(0.996264)"/>
    <use xlink:href="#CMSSBX10-65" transform="translate(217.186801 0)scale(0.996264)"/>
    <use xlink:href="#CMSSBX10-74" transform="translate(268.107253 0)scale(0.996264)"/>
    <use xlink:href="#CMSSBX10-73" transform="translate(344.90304 0)scale(0.996264)"/>
    <use xlink:href="#CMSSBX10-69" transform="translate(386.912406 0)scale(0.996264)"/>
    <use xlink:href="#CMSSBX10-7a" transform="translate(412.372624 0)scale(0.996264)"/>
    <use xlink:href="#CMSSBX10-65" transform="translate(459.83382 0)scale(0.996264)"/>
    <use xlink:href="#SFSX3583-bf" transform="translate(547.284156 0)scale(0.996264)"/>
   </g>
  </g>
  <g id="legend_1">
   <g id="line2d_65">
    <path d="M 327.063588 281.116607 
L 337.059588 281.116607 
L 347.055588 281.116607 
" style="fill: none; stroke-dasharray: 4.81,2.08; stroke-dashoffset: 0; stroke: #808080; stroke-width: 1.3"/>
   </g>
   <g id="text_39">
    <!-- Assumed Base Basket Size -->
    <g style="fill: #262626" transform="translate(355.052388 284.615207)scale(0.09996 -0.09996)">
     <defs>
      <path id="CMSS17-41" d="M 2272 4416 
L 1722 4416 
L 166 0 
L 653 0 
L 1101 1280 
L 2816 1280 
L 3270 0 
L 3827 0 
L 2272 4416 
z
M 2694 1638 
L 1222 1638 
C 1530 2530 1914 3638 1958 3924 
L 1965 3924 
C 2010 3663 2138 3281 2246 2956 
L 2694 1638 
z
" transform="scale(0.015625)"/>
      <path id="CMSS17-73" d="M 2061 2623 
C 1683 2803 1389 2816 1197 2816 
C 742 2816 198 2655 198 2009 
C 198 1363 902 1222 1094 1183 
C 1389 1126 1715 1062 1715 742 
C 1715 339 1254 339 1171 339 
C 915 339 563 409 243 639 
L 166 211 
C 531 0 883 -64 1178 -64 
C 1965 -64 2163 416 2163 780 
C 2163 1094 1984 1305 1862 1401 
C 1651 1567 1574 1587 1050 1695 
C 960 1708 646 1779 646 2067 
C 646 2431 1050 2431 1139 2431 
C 1555 2431 1811 2303 1984 2207 
L 2061 2623 
z
" transform="scale(0.015625)"/>
      <path id="CMSS17-75" d="M 2618 2752 
L 2131 2752 
L 2131 976 
C 2131 500 1786 307 1421 307 
C 998 307 960 448 960 712 
L 960 2752 
L 474 2752 
L 474 680 
C 474 179 646 -64 1088 -64 
C 1306 -64 1798 -13 2144 307 
L 2144 -13 
L 2618 -13 
L 2618 2752 
z
" transform="scale(0.015625)"/>
      <path id="CMSS17-6d" d="M 4288 1878 
C 4288 2309 4179 2816 3462 2816 
C 2982 2816 2694 2515 2566 2328 
C 2451 2668 2182 2816 1798 2816 
C 1363 2816 1088 2566 941 2386 
L 941 2783 
L 474 2783 
L 474 0 
L 960 0 
L 960 1556 
C 960 1936 1101 2425 1555 2425 
C 2138 2425 2138 2013 2138 1826 
L 2138 0 
L 2624 0 
L 2624 1556 
C 2624 1936 2765 2425 3219 2425 
C 3802 2425 3802 2013 3802 1826 
L 3802 0 
L 4288 0 
L 4288 1878 
z
" transform="scale(0.015625)"/>
      <path id="CMSS17-65" d="M 2502 1375 
C 2502 1587 2490 2001 2285 2347 
C 2061 2713 1696 2816 1421 2816 
C 755 2816 192 2184 192 1363 
C 192 579 774 -64 1510 -64 
C 1798 -64 2150 19 2470 249 
C 2470 275 2458 414 2451 421 
C 2451 433 2432 629 2432 655 
C 2125 408 1773 326 1517 326 
C 1107 326 666 667 646 1375 
L 2502 1375 
z
M 698 1728 
C 781 2086 1062 2425 1421 2425 
C 1517 2425 1965 2412 2080 1728 
L 698 1728 
z
" transform="scale(0.015625)"/>
      <path id="CMSS17-64" d="M 2611 4416 
L 2138 4416 
L 2138 2495 
C 1939 2662 1613 2816 1254 2816 
C 672 2816 211 2179 211 1375 
C 211 572 666 -64 1235 -64 
C 1677 -64 1971 172 2125 307 
L 2125 -13 
L 2611 -13 
L 2611 4416 
z
M 2125 851 
C 2125 760 2125 663 1926 488 
C 1798 378 1645 326 1498 326 
C 1152 326 698 585 698 1369 
C 698 2185 1210 2425 1562 2425 
C 1798 2425 1990 2308 2125 2114 
L 2125 851 
z
" transform="scale(0.015625)"/>
      <path id="CMSS17-42" d="M 570 4416 
L 570 0 
L 2163 0 
C 3034 0 3667 575 3667 1200 
C 3667 1684 3251 2175 2502 2316 
C 3334 2559 3501 3039 3501 3311 
C 3501 3880 2874 4416 1997 4416 
L 570 4416 
z
M 1088 2496 
L 1088 4057 
L 1824 4057 
C 2483 4057 3002 3722 3002 3305 
C 3002 2925 2592 2496 1766 2496 
L 1088 2496 
z
M 1088 358 
L 1088 2105 
L 1939 2105 
C 2630 2105 3162 1678 3162 1206 
C 3162 772 2694 358 1984 358 
L 1088 358 
z
" transform="scale(0.015625)"/>
      <path id="CMSS17-61" d="M 2406 1789 
C 2406 2399 1978 2816 1402 2816 
C 1120 2816 813 2764 461 2559 
L 499 2133 
C 659 2250 934 2438 1395 2438 
C 1722 2438 1920 2185 1920 1782 
L 1920 1536 
C 896 1504 256 1209 256 711 
C 256 452 416 -64 947 -64 
C 1043 -64 1562 -52 1933 224 
L 1933 -13 
L 2406 -13 
L 2406 1789 
z
M 1920 824 
C 1920 711 1920 559 1728 446 
C 1562 339 1350 326 1261 326 
C 941 326 723 503 723 723 
C 723 1165 1722 1209 1920 1216 
L 1920 824 
z
" transform="scale(0.015625)"/>
      <path id="CMSS17-6b" d="M 1696 1686 
L 2688 2735 
L 2074 2735 
L 954 1552 
L 954 4416 
L 480 4416 
L 480 0 
L 947 0 
L 947 891 
L 1376 1342 
L 2278 0 
L 2822 0 
L 1696 1686 
z
" transform="scale(0.015625)"/>
      <path id="CMSS17-74" d="M 1069 2380 
L 1901 2380 
L 1901 2752 
L 1069 2752 
L 1069 3520 
L 614 3520 
L 614 2752 
L 109 2752 
L 109 2380 
L 602 2380 
L 602 751 
C 602 384 685 -64 1107 -64 
C 1427 -64 1722 25 2003 172 
L 1901 551 
C 1747 416 1562 339 1363 339 
C 1082 339 1069 699 1069 860 
L 1069 2380 
z
" transform="scale(0.015625)"/>
      <path id="CMSS17-53" d="M 2797 4230 
C 2515 4396 2208 4544 1690 4544 
C 864 4544 333 3934 333 3309 
C 333 3064 403 2787 653 2504 
C 902 2220 1184 2143 1542 2053 
C 1690 2014 1939 1943 1984 1924 
C 2342 1782 2515 1454 2515 1144 
C 2515 738 2202 307 1645 307 
C 1453 307 890 339 358 829 
L 269 320 
C 794 -64 1363 -128 1651 -128 
C 2438 -128 3002 494 3002 1202 
C 3002 1460 2925 1789 2656 2092 
C 2394 2381 2163 2446 1638 2588 
C 1338 2665 1146 2717 986 2916 
C 877 3058 819 3193 819 3367 
C 819 3728 1126 4121 1690 4121 
C 1971 4121 2336 4063 2707 3715 
L 2797 4230 
z
" transform="scale(0.015625)"/>
      <path id="CMSS17-69" d="M 979 4224 
L 442 4224 
L 442 3686 
L 979 3686 
L 979 4224 
z
M 947 2752 
L 474 2752 
L 474 0 
L 947 0 
L 947 2752 
z
" transform="scale(0.015625)"/>
      <path id="CMSS17-7a" d="M 2400 2502 
L 2400 2752 
L 250 2752 
L 250 2367 
L 1069 2367 
C 1146 2367 1222 2374 1299 2374 
L 1747 2374 
L 166 262 
L 166 0 
L 2419 0 
L 2419 396 
L 1549 396 
C 1472 396 1395 390 1318 390 
L 826 390 
L 2400 2502 
z
" transform="scale(0.015625)"/>
     </defs>
     <use xlink:href="#CMSS17-41" transform="scale(0.996264)"/>
     <use xlink:href="#CMSS17-73" transform="translate(62.217855 0)scale(0.996264)"/>
     <use xlink:href="#CMSS17-73" transform="translate(98.131397 0)scale(0.996264)"/>
     <use xlink:href="#CMSS17-75" transform="translate(134.044939 0)scale(0.996264)"/>
     <use xlink:href="#CMSS17-6d" transform="translate(182.249882 0)scale(0.996264)"/>
     <use xlink:href="#CMSS17-65" transform="translate(256.479136 0)scale(0.996264)"/>
     <use xlink:href="#CMSS17-64" transform="translate(298.117959 0)scale(0.996264)"/>
     <use xlink:href="#CMSS17-42" transform="translate(377.552014 0)scale(0.996264)"/>
     <use xlink:href="#CMSS17-61" transform="translate(439.890055 0)scale(0.996264)"/>
     <use xlink:href="#CMSS17-73" transform="translate(484.811975 0)scale(0.996264)"/>
     <use xlink:href="#CMSS17-65" transform="translate(520.725517 0)scale(0.996264)"/>
     <use xlink:href="#CMSS17-42" transform="translate(593.593452 0)scale(0.996264)"/>
     <use xlink:href="#CMSS17-61" transform="translate(655.931492 0)scale(0.996264)"/>
     <use xlink:href="#CMSS17-73" transform="translate(700.853413 0)scale(0.996264)"/>
     <use xlink:href="#CMSS17-6b" transform="translate(736.766955 0)scale(0.996264)"/>
     <use xlink:href="#CMSS17-65" transform="translate(779.76699 0)scale(0.996264)"/>
     <use xlink:href="#CMSS17-74" transform="translate(821.405812 0)scale(0.996264)"/>
     <use xlink:href="#CMSS17-53" transform="translate(886.466492 0)scale(0.996264)"/>
     <use xlink:href="#CMSS17-69" transform="translate(938.515008 0)scale(0.996264)"/>
     <use xlink:href="#CMSS17-7a" transform="translate(960.695731 0)scale(0.996264)"/>
     <use xlink:href="#CMSS17-65" transform="translate(1001.373603 0)scale(0.996264)"/>
    </g>
   </g>
  </g>
  <g id="legend_2">
   <g id="patch_12">
    <path d="M 3 294.54801 
L 68.933699 294.54801 
Q 70.933699 294.54801 70.933699 292.54801 
L 70.933699 263.736475 
Q 70.933699 261.736475 68.933699 261.736475 
L 3 261.736475 
Q 1 261.736475 1 263.736475 
L 1 292.54801 
Q 1 294.54801 3 294.54801 
z
" style="fill: #ffffff; opacity: 0.8; stroke: #cccccc; stroke-linejoin: miter"/>
   </g>
   <g id="line2d_66">
    <path d="M 2 266.236475 
L 12 266.236475 
L 22 266.236475 
" style="fill: none; stroke: #207720; stroke-width: 1.5; stroke-linecap: round"/>
   </g>
   <g id="text_40">
    <!-- In Store -->
    <g style="fill: #262626" transform="translate(30 269.736475)scale(0.1 -0.1)">
     <defs>
      <path id="CMSS17-49" d="M 1094 4416 
L 557 4416 
L 557 0 
L 1094 0 
L 1094 4416 
z
" transform="scale(0.015625)"/>
      <path id="CMSS17-6e" d="M 2618 1878 
C 2618 2283 2522 2816 1798 2816 
C 1389 2816 1120 2604 941 2386 
L 941 2783 
L 474 2783 
L 474 0 
L 960 0 
L 960 1556 
C 960 1962 1114 2425 1549 2425 
C 2112 2425 2131 2045 2131 1826 
L 2131 0 
L 2618 0 
L 2618 1878 
z
" transform="scale(0.015625)"/>
      <path id="CMSS17-6f" d="M 2829 1356 
C 2829 2175 2221 2816 1504 2816 
C 768 2816 173 2156 173 1356 
C 173 544 787 -64 1498 -64 
C 2227 -64 2829 563 2829 1356 
z
M 1504 339 
C 1050 339 659 710 659 1407 
C 659 2150 1114 2425 1498 2425 
C 1914 2425 2342 2124 2342 1407 
C 2342 684 1926 339 1504 339 
z
" transform="scale(0.015625)"/>
      <path id="CMSS17-72" d="M 954 1369 
C 954 1974 1395 2379 1958 2392 
L 1958 2816 
C 1549 2809 1165 2604 934 2270 
L 934 2783 
L 480 2783 
L 480 0 
L 954 0 
L 954 1369 
z
" transform="scale(0.015625)"/>
     </defs>
     <use xlink:href="#CMSS17-49" transform="scale(0.996264)"/>
     <use xlink:href="#CMSS17-6e" transform="translate(25.783926 0)scale(0.996264)"/>
     <use xlink:href="#CMSS17-53" transform="translate(105.217981 0)scale(0.996264)"/>
     <use xlink:href="#CMSS17-74" transform="translate(157.266498 0)scale(0.996264)"/>
     <use xlink:href="#CMSS17-6f" transform="translate(191.098064 0)scale(0.996264)"/>
     <use xlink:href="#CMSS17-72" transform="translate(235.339234 0)scale(0.996264)"/>
     <use xlink:href="#CMSS17-65" transform="translate(267.249006 0)scale(0.996264)"/>
    </g>
   </g>
   <g id="line2d_67">
    <path d="M 2 277.173653 
L 12 277.173653 
L 22 277.173653 
" style="fill: none; stroke: #234990; stroke-width: 1.5; stroke-linecap: round"/>
   </g>
   <g id="text_41">
    <!-- Darkstore -->
    <g style="fill: #262626" transform="translate(30 280.673653)scale(0.1 -0.1)">
     <defs>
      <path id="CMSS17-44" d="M 570 4416 
L 570 0 
L 2144 0 
C 3194 0 4000 981 4000 2169 
C 4000 3396 3194 4416 2144 4416 
L 570 4416 
z
M 1094 358 
L 1094 4057 
L 2003 4057 
C 2861 4057 3475 3275 3475 2169 
C 3475 1108 2867 358 2003 358 
L 1094 358 
z
" transform="scale(0.015625)"/>
     </defs>
     <use xlink:href="#CMSS17-44" transform="scale(0.996264)"/>
     <use xlink:href="#CMSS17-61" transform="translate(67.542842 0)scale(0.996264)"/>
     <use xlink:href="#CMSS17-72" transform="translate(109.862308 0)scale(0.996264)"/>
     <use xlink:href="#CMSS17-6b" transform="translate(141.772081 0)scale(0.996264)"/>
     <use xlink:href="#CMSS17-73" transform="translate(187.37457 0)scale(0.996264)"/>
     <use xlink:href="#CMSS17-74" transform="translate(223.288112 0)scale(0.996264)"/>
     <use xlink:href="#CMSS17-6f" transform="translate(257.119679 0)scale(0.996264)"/>
     <use xlink:href="#CMSS17-72" transform="translate(301.360848 0)scale(0.996264)"/>
     <use xlink:href="#CMSS17-65" transform="translate(333.270621 0)scale(0.996264)"/>
    </g>
   </g>
   <g id="line2d_68">
    <path d="M 2 288.110831 
L 12 288.110831 
L 22 288.110831 
" style="fill: none; stroke: #e23726; stroke-width: 1.5; stroke-linecap: round"/>
   </g>
   <g id="text_42">
    <!-- FC -->
    <g style="fill: #262626" transform="translate(30 291.610831)scale(0.1 -0.1)">
     <defs>
      <path id="CMSS17-46" d="M 2918 1984 
L 2918 2374 
L 1101 2374 
L 1101 3993 
L 1882 3993 
C 1958 3993 2035 3987 2112 3987 
L 3168 3987 
L 3168 4403 
L 563 4403 
L 563 0 
L 1101 0 
L 1101 1984 
L 2918 1984 
z
" transform="scale(0.015625)"/>
      <path id="CMSS17-43" d="M 3501 705 
C 3072 416 2874 332 2355 332 
C 1459 332 934 1304 934 2191 
C 934 3137 1472 4070 2381 4070 
C 2790 4070 3059 3954 3386 3748 
L 3475 4255 
C 3168 4409 2778 4480 2387 4480 
C 1158 4480 397 3343 397 2191 
C 397 924 1299 -77 2323 -77 
C 2874 -77 3066 -32 3539 268 
L 3501 705 
z
" transform="scale(0.015625)"/>
     </defs>
     <use xlink:href="#CMSS17-46" transform="scale(0.996264)"/>
     <use xlink:href="#CMSS17-43" transform="translate(50.687105 0)scale(0.996264)"/>
    </g>
   </g>
  </g>
 </g>
 <defs>
  <clipPath id="p19b7c9197e">
   <rect x="69.410113" y="28.645892" width="168.350023" height="211.114101"/>
  </clipPath>
  <clipPath id="p77e25122b7">
   <rect x="294.387981" y="28.645892" width="168.350023" height="211.114101"/>
  </clipPath>
 </defs>
</svg>
