<?xml version="1.0" encoding="utf-8" standalone="no"?>
<!DOCTYPE svg PUBLIC "-//W3C//DTD SVG 1.1//EN"
  "http://www.w3.org/Graphics/SVG/1.1/DTD/svg11.dtd">
<svg xmlns:xlink="http://www.w3.org/1999/xlink" width="443.337484pt" height="273.997634pt" viewBox="0 0 443.337484 273.997634" xmlns="http://www.w3.org/2000/svg" version="1.1">
 <metadata>
  <rdf:RDF xmlns:dc="http://purl.org/dc/elements/1.1/" xmlns:cc="http://creativecommons.org/ns#" xmlns:rdf="http://www.w3.org/1999/02/22-rdf-syntax-ns#">
   <cc:Work>
    <dc:type rdf:resource="http://purl.org/dc/dcmitype/StillImage"/>
    <dc:date>2022-02-28T00:28:42.849975</dc:date>
    <dc:format>image/svg+xml</dc:format>
    <dc:creator>
     <cc:Agent>
      <dc:title>Matplotlib v3.5.0, https://matplotlib.org/</dc:title>
     </cc:Agent>
    </dc:creator>
   </cc:Work>
  </rdf:RDF>
 </metadata>
 <defs>
  <style type="text/css">*{stroke-linejoin: round; stroke-linecap: butt}</style>
 </defs>
 <g id="figure_1">
  <g id="patch_1">
   <path d="M 0 273.997634 
L 443.337484 273.997634 
L 443.337484 0 
L 0 0 
z
" style="fill: #ffffff"/>
  </g>
  <g id="axes_1">
   <g id="patch_2">
    <path d="M 116.338766 261.037634 
L 430.377484 261.037634 
L 430.377484 12.96 
L 116.338766 12.96 
z
" style="fill: #ffffff"/>
   </g>
   <g id="matplotlib.axis_1">
    <g id="xtick_1">
     <g id="line2d_1">
      <path d="M 116.338766 261.037634 
L 116.338766 12.96 
" clip-path="url(#p978269b192)" style="fill: none; stroke: #cccccc; stroke-width: 0.8; stroke-linecap: round"/>
     </g>
     <g id="line2d_2"/>
    </g>
    <g id="xtick_2">
     <g id="line2d_3">
      <path d="M 172.417108 261.037634 
L 172.417108 12.96 
" clip-path="url(#p978269b192)" style="fill: none; stroke: #cccccc; stroke-width: 0.8; stroke-linecap: round"/>
     </g>
     <g id="line2d_4"/>
    </g>
    <g id="xtick_3">
     <g id="line2d_5">
      <path d="M 228.495451 261.037634 
L 228.495451 12.96 
" clip-path="url(#p978269b192)" style="fill: none; stroke: #cccccc; stroke-width: 0.8; stroke-linecap: round"/>
     </g>
     <g id="line2d_6"/>
    </g>
    <g id="xtick_4">
     <g id="line2d_7">
      <path d="M 284.573794 261.037634 
L 284.573794 12.96 
" clip-path="url(#p978269b192)" style="fill: none; stroke: #cccccc; stroke-width: 0.8; stroke-linecap: round"/>
     </g>
     <g id="line2d_8"/>
    </g>
    <g id="xtick_5">
     <g id="line2d_9">
      <path d="M 340.652136 261.037634 
L 340.652136 12.96 
" clip-path="url(#p978269b192)" style="fill: none; stroke: #cccccc; stroke-width: 0.8; stroke-linecap: round"/>
     </g>
     <g id="line2d_10"/>
    </g>
    <g id="xtick_6">
     <g id="line2d_11">
      <path d="M 396.730479 261.037634 
L 396.730479 12.96 
" clip-path="url(#p978269b192)" style="fill: none; stroke: #cccccc; stroke-width: 0.8; stroke-linecap: round"/>
     </g>
     <g id="line2d_12"/>
    </g>
   </g>
   <g id="matplotlib.axis_2">
    <g id="ytick_1">
     <g id="line2d_13"/>
    </g>
    <g id="ytick_2">
     <g id="line2d_14"/>
     <g id="text_1">
      <!-- \textbf{Basket Profitability} -->
      <g style="fill: #008000" transform="translate(16.360395 235.17732)scale(0.11 -0.11)">
       <defs>
        <path id="CMSSBX10-42" d="M 890 4416 
C 659 4416 582 4345 582 4108 
L 582 307 
C 582 76 653 0 890 0 
L 2643 0 
C 3117 0 4294 83 4294 1227 
C 4294 2112 3405 2252 3168 2291 
C 3757 2425 4096 2759 4096 3261 
C 4096 4416 2733 4416 2464 4416 
L 890 4416 
z
M 1485 2508 
L 1485 3865 
L 2234 3865 
C 2483 3865 3226 3846 3226 3241 
C 3226 2508 2387 2508 2227 2508 
L 1485 2508 
z
M 1485 550 
L 1485 2048 
L 2291 2048 
C 2515 2048 3405 2048 3405 1239 
C 3405 594 2720 550 2413 550 
L 1485 550 
z
" transform="scale(0.015625)"/>
        <path id="CMSSBX10-61" d="M 2970 2047 
C 2970 3065 1997 3072 1677 3072 
C 1376 3072 1056 3046 627 2867 
C 493 2809 461 2790 461 2719 
C 461 2675 499 2300 506 2248 
C 512 2209 544 2177 589 2177 
C 621 2177 640 2196 659 2215 
C 934 2507 1254 2649 1651 2649 
C 1997 2649 2099 2436 2099 2054 
L 2099 1827 
C 1875 1827 198 1814 198 862 
C 198 409 557 -64 1120 -64 
C 1338 -64 1818 0 2118 442 
L 2118 313 
C 2118 108 2163 6 2426 6 
L 2662 6 
C 2906 6 2970 89 2970 313 
L 2970 2047 
z
M 2099 998 
C 2099 396 1491 396 1472 396 
C 1203 396 1030 629 1030 875 
C 1030 1510 1920 1555 2099 1562 
L 2099 998 
z
" transform="scale(0.015625)"/>
        <path id="CMSSBX10-73" d="M 2534 914 
C 2534 1277 2342 1503 2227 1607 
C 1971 1840 1747 1879 1478 1931 
C 1126 1995 870 2047 870 2300 
C 870 2565 1082 2617 1331 2617 
C 1760 2617 1990 2455 2157 2313 
C 2221 2248 2234 2248 2259 2248 
C 2323 2248 2336 2306 2342 2332 
C 2355 2384 2419 2745 2419 2777 
C 2419 2879 2080 2969 2010 2995 
C 1754 3065 1549 3072 1382 3072 
C 1094 3072 237 3072 237 2151 
C 237 1833 378 1639 550 1484 
C 774 1277 1024 1231 1389 1160 
C 1574 1128 1901 1069 1901 784 
C 1901 480 1651 435 1402 435 
C 1120 435 762 519 461 882 
C 429 914 410 933 371 933 
C 307 933 294 875 288 836 
C 275 746 198 377 198 313 
C 198 198 672 51 678 44 
C 1030 -64 1293 -64 1402 -64 
C 1728 -64 2534 -39 2534 914 
z
" transform="scale(0.015625)"/>
        <path id="CMSSBX10-6b" d="M 2003 1730 
L 2989 2640 
C 3066 2710 3085 2729 3085 2780 
C 3085 2913 2957 2913 2867 2913 
L 2496 2913 
C 2381 2913 2259 2913 2112 2780 
L 1190 1928 
L 1190 4109 
C 1190 4313 1146 4416 883 4416 
L 749 4416 
C 518 4416 442 4345 442 4109 
L 442 306 
C 442 76 512 0 749 0 
L 864 0 
C 1107 0 1171 83 1171 306 
L 1171 967 
L 1472 1241 
L 2304 159 
C 2413 19 2458 0 2643 0 
L 2950 0 
C 3040 0 3181 0 3181 140 
C 3181 153 3181 198 3117 280 
L 2003 1730 
z
" transform="scale(0.015625)"/>
        <path id="CMSSBX10-65" d="M 2758 1388 
C 2906 1388 3066 1395 3066 1683 
C 3066 2520 2682 3072 1728 3072 
C 704 3072 198 2494 198 1510 
C 198 448 806 -64 1811 -64 
C 2054 -64 2419 -32 2842 179 
C 2982 249 3027 268 3027 345 
C 3027 390 3008 578 3002 630 
C 2976 831 2970 837 2912 837 
C 2886 837 2874 837 2803 772 
C 2426 442 2042 396 1837 396 
C 1114 396 1037 973 1018 1388 
L 2758 1388 
z
M 1024 1728 
C 1043 2124 1171 2611 1728 2611 
C 2240 2611 2336 2234 2355 1728 
L 1024 1728 
z
" transform="scale(0.015625)"/>
        <path id="CMSSBX10-74" d="M 1395 2483 
L 1965 2483 
C 2042 2483 2272 2483 2272 2713 
C 2272 2944 2042 2944 1965 2944 
L 1395 2944 
L 1395 3470 
C 1395 3673 1350 3776 1088 3776 
L 890 3776 
C 659 3776 582 3705 582 3470 
L 582 2944 
L 435 2944 
C 365 2944 128 2944 128 2713 
C 128 2483 358 2483 435 2483 
L 563 2483 
L 563 858 
C 563 211 794 -64 1235 -64 
C 1293 -64 1574 -64 1907 38 
C 2016 70 2387 185 2387 307 
C 2387 326 2374 371 2336 505 
C 2304 634 2291 672 2234 672 
C 2202 672 2195 666 2157 627 
C 2086 576 1914 435 1645 435 
C 1491 435 1395 544 1395 968 
L 1395 2483 
z
" transform="scale(0.015625)"/>
        <path id="CMSSBX10-50" d="M 1523 1728 
L 2496 1728 
C 3501 1728 4102 2150 4102 3052 
C 4102 3999 3475 4416 2490 4416 
L 890 4416 
C 659 4416 582 4345 582 4108 
L 582 308 
C 582 76 653 0 890 0 
L 1216 0 
C 1459 0 1523 83 1523 308 
L 1523 1728 
z
M 2291 3865 
C 3130 3865 3213 3490 3213 3052 
C 3213 2633 3142 2233 2285 2233 
L 1504 2233 
L 1504 3865 
L 2291 3865 
z
" transform="scale(0.015625)"/>
        <path id="CMSSBX10-72" d="M 1242 1456 
C 1242 2057 1747 2304 2150 2329 
C 2266 2335 2278 2335 2278 2502 
L 2278 2803 
C 2278 2931 2278 2976 2163 2976 
C 1984 2976 1517 2911 1216 2222 
L 1210 2222 
L 1210 2636 
C 1210 2841 1165 2944 902 2944 
L 698 2944 
C 467 2944 390 2873 390 2636 
L 390 305 
C 390 76 461 0 698 0 
L 934 0 
C 1178 0 1242 83 1242 305 
L 1242 1456 
z
" transform="scale(0.015625)"/>
        <path id="CMSSBX10-6f" d="M 3315 1458 
C 3315 2520 2803 3072 1760 3072 
C 691 3072 198 2500 198 1458 
C 198 403 749 -64 1754 -64 
C 2758 -64 3315 396 3315 1458 
z
M 1760 435 
C 1069 435 1069 1018 1069 1536 
C 1069 2034 1069 2611 1754 2611 
C 2445 2611 2445 2041 2445 1536 
C 2445 1024 2445 435 1760 435 
z
" transform="scale(0.015625)"/>
        <path id="CMSSBX10-c" d="M 3360 4172 
C 3360 4377 3315 4480 3053 4480 
L 2797 4480 
C 2554 4480 2490 4396 2490 4172 
L 2490 3916 
C 2490 3711 2534 3609 2797 3609 
L 3053 3609 
C 3296 3609 3360 3692 3360 3916 
L 3360 4172 
z
M 2502 308 
C 2502 102 2547 0 2810 0 
L 3046 0 
C 3290 0 3354 83 3354 308 
L 3354 2636 
C 3354 2841 3309 2944 3046 2944 
L 2810 2944 
C 2566 2944 2502 2860 2502 2636 
L 2502 308 
z
M 1382 3692 
C 1382 3871 1395 4083 1594 4083 
C 1811 4083 1875 3942 1914 3865 
C 1926 3839 1946 3801 1990 3801 
C 2074 3801 2074 3871 2074 3974 
L 2074 4300 
C 2074 4447 2074 4460 1914 4499 
C 1754 4544 1677 4544 1581 4544 
C 915 4544 550 4191 550 3484 
L 550 2944 
C 416 2944 192 2944 192 2713 
C 192 2483 410 2483 550 2483 
L 550 308 
C 550 76 621 0 858 0 
L 1094 0 
C 1338 0 1402 83 1402 308 
L 1402 2483 
L 1766 2483 
C 1843 2483 2074 2483 2074 2713 
C 2074 2944 1843 2944 1766 2944 
L 1382 2944 
L 1382 3692 
z
" transform="scale(0.015625)"/>
        <path id="CMSSBX10-62" d="M 1242 4113 
C 1242 4313 1197 4416 934 4416 
L 698 4416 
C 467 4416 390 4345 390 4113 
L 390 313 
C 390 83 461 6 698 6 
L 954 6 
C 1062 6 1254 6 1261 256 
C 1555 -64 1882 -64 1984 -64 
C 3347 -64 3347 1164 3347 1484 
C 3347 1791 3347 3008 2144 3008 
C 1619 3008 1299 2713 1242 2649 
L 1242 4113 
z
M 1261 2323 
C 1344 2399 1536 2547 1830 2547 
C 2477 2547 2477 1958 2477 1478 
C 2477 1004 2477 396 1760 396 
C 1491 396 1331 556 1261 646 
L 1261 2323 
z
" transform="scale(0.015625)"/>
        <path id="CMSSBX10-69" d="M 653 4480 
C 448 4480 346 4441 346 4185 
L 346 3891 
C 346 3686 410 3603 646 3603 
L 979 3603 
C 1286 3603 1286 3737 1286 4038 
C 1286 4345 1286 4480 979 4480 
L 653 4480 
z
M 1242 2635 
C 1242 2841 1197 2944 934 2944 
L 698 2944 
C 467 2944 390 2873 390 2635 
L 390 308 
C 390 76 461 0 698 0 
L 934 0 
C 1178 0 1242 83 1242 308 
L 1242 2635 
z
" transform="scale(0.015625)"/>
        <path id="CMSSBX10-6c" d="M 1242 4109 
C 1242 4313 1197 4416 934 4416 
L 698 4416 
C 467 4416 390 4345 390 4109 
L 390 306 
C 390 76 461 0 698 0 
L 934 0 
C 1178 0 1242 83 1242 306 
L 1242 4109 
z
" transform="scale(0.015625)"/>
        <path id="CMSSBX10-79" d="M 2995 2641 
C 3027 2725 3027 2738 3027 2770 
C 3027 2944 2854 2944 2771 2944 
L 2630 2944 
C 2528 2944 2387 2944 2291 2796 
C 2272 2764 1754 1332 1722 897 
L 1715 897 
C 1683 1215 1421 1818 1146 2440 
C 966 2847 922 2944 602 2944 
L 435 2944 
C 346 2944 186 2944 186 2777 
C 186 2751 205 2705 218 2673 
L 1427 -23 
C 1376 -159 1357 -230 1338 -295 
C 1261 -509 1152 -800 806 -800 
C 595 -800 448 -710 378 -664 
C 346 -645 333 -638 314 -638 
C 282 -638 230 -658 230 -736 
C 230 -788 269 -1229 288 -1255 
C 346 -1332 691 -1344 794 -1344 
C 1587 -1344 1901 -587 1952 -431 
L 2995 2641 
z
" transform="scale(0.015625)"/>
       </defs>
       <use xlink:href="#CMSSBX10-42" transform="scale(0.996264)"/>
       <use xlink:href="#CMSSBX10-61" transform="translate(73.059766 0)scale(0.996264)"/>
       <use xlink:href="#CMSSBX10-73" transform="translate(125.363961 0)scale(0.996264)"/>
       <use xlink:href="#CMSSBX10-6b" transform="translate(167.373327 0)scale(0.996264)"/>
       <use xlink:href="#CMSSBX10-65" transform="translate(217.186801 0)scale(0.996264)"/>
       <use xlink:href="#CMSSBX10-74" transform="translate(268.107253 0)scale(0.996264)"/>
       <use xlink:href="#CMSSBX10-50" transform="translate(344.90304 0)scale(0.996264)"/>
       <use xlink:href="#CMSSBX10-72" transform="translate(414.918649 0)scale(0.996264)"/>
       <use xlink:href="#CMSSBX10-6f" transform="translate(452.00206 0)scale(0.996264)"/>
       <use xlink:href="#CMSSBX10-c" transform="translate(506.796884 0)scale(0.996264)"/>
       <use xlink:href="#CMSSBX10-74" transform="translate(565.189393 0)scale(0.996264)"/>
       <use xlink:href="#CMSSBX10-61" transform="translate(605.455296 0)scale(0.996264)"/>
       <use xlink:href="#CMSSBX10-62" transform="translate(657.759491 0)scale(0.996264)"/>
       <use xlink:href="#CMSSBX10-69" transform="translate(713.661279 0)scale(0.996264)"/>
       <use xlink:href="#CMSSBX10-6c" transform="translate(739.121498 0)scale(0.996264)"/>
       <use xlink:href="#CMSSBX10-69" transform="translate(764.581717 0)scale(0.996264)"/>
       <use xlink:href="#CMSSBX10-74" transform="translate(790.041936 0)scale(0.996264)"/>
       <use xlink:href="#CMSSBX10-79" transform="translate(827.263682 0)scale(0.996264)"/>
      </g>
     </g>
    </g>
    <g id="ytick_3">
     <g id="line2d_15"/>
     <g id="text_2">
      <!-- Marketing Cost -->
      <g style="fill: #ff0000" transform="translate(42.610316 212.928205)scale(0.11 -0.11)">
       <defs>
        <path id="CMSS17-4d" d="M 3194 2373 
L 2886 1476 
C 2835 1311 2662 795 2624 592 
L 2618 592 
C 2598 719 2560 853 2458 1177 
C 2400 1368 2336 1565 2272 1743 
L 1325 4416 
L 576 4416 
L 576 0 
L 1075 0 
L 1075 3899 
L 1082 3899 
C 1082 3893 1139 3613 1530 2500 
L 2374 102 
L 2848 102 
L 3610 2233 
C 3661 2379 3821 2843 3891 3066 
C 3955 3257 4115 3728 4154 3912 
L 4160 3912 
L 4160 0 
L 4666 0 
L 4666 4416 
L 3923 4416 
L 3194 2373 
z
" transform="scale(0.015625)"/>
        <path id="CMSS17-61" d="M 2406 1789 
C 2406 2399 1978 2816 1402 2816 
C 1120 2816 813 2764 461 2559 
L 499 2133 
C 659 2250 934 2438 1395 2438 
C 1722 2438 1920 2185 1920 1782 
L 1920 1536 
C 896 1504 256 1209 256 711 
C 256 452 416 -64 947 -64 
C 1043 -64 1562 -52 1933 224 
L 1933 -13 
L 2406 -13 
L 2406 1789 
z
M 1920 824 
C 1920 711 1920 559 1728 446 
C 1562 339 1350 326 1261 326 
C 941 326 723 503 723 723 
C 723 1165 1722 1209 1920 1216 
L 1920 824 
z
" transform="scale(0.015625)"/>
        <path id="CMSS17-72" d="M 954 1369 
C 954 1974 1395 2379 1958 2392 
L 1958 2816 
C 1549 2809 1165 2604 934 2270 
L 934 2783 
L 480 2783 
L 480 0 
L 954 0 
L 954 1369 
z
" transform="scale(0.015625)"/>
        <path id="CMSS17-6b" d="M 1696 1686 
L 2688 2735 
L 2074 2735 
L 954 1552 
L 954 4416 
L 480 4416 
L 480 0 
L 947 0 
L 947 891 
L 1376 1342 
L 2278 0 
L 2822 0 
L 1696 1686 
z
" transform="scale(0.015625)"/>
        <path id="CMSS17-65" d="M 2502 1375 
C 2502 1587 2490 2001 2285 2347 
C 2061 2713 1696 2816 1421 2816 
C 755 2816 192 2184 192 1363 
C 192 579 774 -64 1510 -64 
C 1798 -64 2150 19 2470 249 
C 2470 275 2458 414 2451 421 
C 2451 433 2432 629 2432 655 
C 2125 408 1773 326 1517 326 
C 1107 326 666 667 646 1375 
L 2502 1375 
z
M 698 1728 
C 781 2086 1062 2425 1421 2425 
C 1517 2425 1965 2412 2080 1728 
L 698 1728 
z
" transform="scale(0.015625)"/>
        <path id="CMSS17-74" d="M 1069 2380 
L 1901 2380 
L 1901 2752 
L 1069 2752 
L 1069 3520 
L 614 3520 
L 614 2752 
L 109 2752 
L 109 2380 
L 602 2380 
L 602 751 
C 602 384 685 -64 1107 -64 
C 1427 -64 1722 25 2003 172 
L 1901 551 
C 1747 416 1562 339 1363 339 
C 1082 339 1069 699 1069 860 
L 1069 2380 
z
" transform="scale(0.015625)"/>
        <path id="CMSS17-69" d="M 979 4224 
L 442 4224 
L 442 3686 
L 979 3686 
L 979 4224 
z
M 947 2752 
L 474 2752 
L 474 0 
L 947 0 
L 947 2752 
z
" transform="scale(0.015625)"/>
        <path id="CMSS17-6e" d="M 2618 1878 
C 2618 2283 2522 2816 1798 2816 
C 1389 2816 1120 2604 941 2386 
L 941 2783 
L 474 2783 
L 474 0 
L 960 0 
L 960 1556 
C 960 1962 1114 2425 1549 2425 
C 2112 2425 2131 2045 2131 1826 
L 2131 0 
L 2618 0 
L 2618 1878 
z
" transform="scale(0.015625)"/>
        <path id="CMSS17-67" d="M 2848 2816 
C 2483 2809 2170 2739 1914 2617 
C 1702 2783 1485 2816 1338 2816 
C 781 2816 358 2356 358 1824 
C 358 1481 550 1222 563 1209 
C 448 1049 384 876 384 684 
C 384 460 474 300 544 211 
C 211 6 166 -308 166 -429 
C 166 -896 749 -1280 1498 -1280 
C 2253 -1280 2835 -896 2835 -423 
C 2835 460 1856 467 1587 467 
L 1069 467 
C 973 467 717 467 717 793 
C 717 921 774 1004 781 1011 
C 877 940 1075 832 1338 832 
C 1869 832 2310 1279 2310 1824 
C 2310 2128 2170 2349 2112 2425 
L 2131 2425 
C 2150 2425 2419 2444 2515 2444 
C 2720 2444 2739 2438 2918 2419 
L 2848 2816 
z
M 1338 1184 
C 1120 1184 813 1317 813 1824 
C 813 2375 1165 2463 1331 2463 
C 1549 2463 1856 2330 1856 1824 
C 1856 1272 1504 1184 1338 1184 
z
M 1581 0 
C 1734 0 2381 0 2381 -436 
C 2381 -711 1984 -928 1504 -928 
C 1018 -928 621 -717 621 -429 
C 621 -397 621 0 1062 0 
L 1581 0 
z
" transform="scale(0.015625)"/>
        <path id="CMSS17-43" d="M 3501 705 
C 3072 416 2874 332 2355 332 
C 1459 332 934 1304 934 2191 
C 934 3137 1472 4070 2381 4070 
C 2790 4070 3059 3954 3386 3748 
L 3475 4255 
C 3168 4409 2778 4480 2387 4480 
C 1158 4480 397 3343 397 2191 
C 397 924 1299 -77 2323 -77 
C 2874 -77 3066 -32 3539 268 
L 3501 705 
z
" transform="scale(0.015625)"/>
        <path id="CMSS17-6f" d="M 2829 1356 
C 2829 2175 2221 2816 1504 2816 
C 768 2816 173 2156 173 1356 
C 173 544 787 -64 1498 -64 
C 2227 -64 2829 563 2829 1356 
z
M 1504 339 
C 1050 339 659 710 659 1407 
C 659 2150 1114 2425 1498 2425 
C 1914 2425 2342 2124 2342 1407 
C 2342 684 1926 339 1504 339 
z
" transform="scale(0.015625)"/>
        <path id="CMSS17-73" d="M 2061 2623 
C 1683 2803 1389 2816 1197 2816 
C 742 2816 198 2655 198 2009 
C 198 1363 902 1222 1094 1183 
C 1389 1126 1715 1062 1715 742 
C 1715 339 1254 339 1171 339 
C 915 339 563 409 243 639 
L 166 211 
C 531 0 883 -64 1178 -64 
C 1965 -64 2163 416 2163 780 
C 2163 1094 1984 1305 1862 1401 
C 1651 1567 1574 1587 1050 1695 
C 960 1708 646 1779 646 2067 
C 646 2431 1050 2431 1139 2431 
C 1555 2431 1811 2303 1984 2207 
L 2061 2623 
z
" transform="scale(0.015625)"/>
       </defs>
       <use xlink:href="#CMSS17-4d" transform="scale(0.996264)"/>
       <use xlink:href="#CMSS17-61" transform="translate(81.67603 0)scale(0.996264)"/>
       <use xlink:href="#CMSS17-72" transform="translate(123.995497 0)scale(0.996264)"/>
       <use xlink:href="#CMSS17-6b" transform="translate(155.905269 0)scale(0.996264)"/>
       <use xlink:href="#CMSS17-65" transform="translate(198.905304 0)scale(0.996264)"/>
       <use xlink:href="#CMSS17-74" transform="translate(240.544127 0)scale(0.996264)"/>
       <use xlink:href="#CMSS17-69" transform="translate(274.375693 0)scale(0.996264)"/>
       <use xlink:href="#CMSS17-6e" transform="translate(296.556416 0)scale(0.996264)"/>
       <use xlink:href="#CMSS17-67" transform="translate(344.761359 0)scale(0.996264)"/>
       <use xlink:href="#CMSS17-43" transform="translate(422.834096 0)scale(0.996264)"/>
       <use xlink:href="#CMSS17-6f" transform="translate(482.689867 0)scale(0.996264)"/>
       <use xlink:href="#CMSS17-73" transform="translate(529.533491 0)scale(0.996264)"/>
       <use xlink:href="#CMSS17-74" transform="translate(565.447033 0)scale(0.996264)"/>
      </g>
     </g>
    </g>
    <g id="ytick_4">
     <g id="line2d_16"/>
     <g id="text_3">
      <!-- Fixed Cost -->
      <g style="fill: #ff0000" transform="translate(64.101973 190.67909)scale(0.11 -0.11)">
       <defs>
        <path id="CMSS17-46" d="M 2918 1984 
L 2918 2374 
L 1101 2374 
L 1101 3993 
L 1882 3993 
C 1958 3993 2035 3987 2112 3987 
L 3168 3987 
L 3168 4403 
L 563 4403 
L 563 0 
L 1101 0 
L 1101 1984 
L 2918 1984 
z
" transform="scale(0.015625)"/>
        <path id="CMSS17-78" d="M 1587 1420 
L 2656 2752 
L 2099 2752 
L 1363 1785 
L 602 2752 
L 32 2752 
L 1139 1420 
L 0 0 
L 563 0 
L 1363 1126 
L 2195 0 
L 2758 0 
L 1587 1420 
z
" transform="scale(0.015625)"/>
        <path id="CMSS17-64" d="M 2611 4416 
L 2138 4416 
L 2138 2495 
C 1939 2662 1613 2816 1254 2816 
C 672 2816 211 2179 211 1375 
C 211 572 666 -64 1235 -64 
C 1677 -64 1971 172 2125 307 
L 2125 -13 
L 2611 -13 
L 2611 4416 
z
M 2125 851 
C 2125 760 2125 663 1926 488 
C 1798 378 1645 326 1498 326 
C 1152 326 698 585 698 1369 
C 698 2185 1210 2425 1562 2425 
C 1798 2425 1990 2308 2125 2114 
L 2125 851 
z
" transform="scale(0.015625)"/>
       </defs>
       <use xlink:href="#CMSS17-46" transform="scale(0.996264)"/>
       <use xlink:href="#CMSS17-69" transform="translate(53.289559 0)scale(0.996264)"/>
       <use xlink:href="#CMSS17-78" transform="translate(75.470282 0)scale(0.996264)"/>
       <use xlink:href="#CMSS17-65" transform="translate(118.470424 0)scale(0.996264)"/>
       <use xlink:href="#CMSS17-64" transform="translate(160.109246 0)scale(0.996264)"/>
       <use xlink:href="#CMSS17-43" transform="translate(239.543302 0)scale(0.996264)"/>
       <use xlink:href="#CMSS17-6f" transform="translate(299.399074 0)scale(0.996264)"/>
       <use xlink:href="#CMSS17-73" transform="translate(346.242697 0)scale(0.996264)"/>
       <use xlink:href="#CMSS17-74" transform="translate(382.156239 0)scale(0.996264)"/>
      </g>
     </g>
    </g>
    <g id="ytick_5">
     <g id="line2d_17"/>
     <g id="text_4">
      <!-- Delivery Cost -->
      <g style="fill: #ff0000" transform="translate(51.803625 168.429975)scale(0.11 -0.11)">
       <defs>
        <path id="CMSS17-44" d="M 570 4416 
L 570 0 
L 2144 0 
C 3194 0 4000 981 4000 2169 
C 4000 3396 3194 4416 2144 4416 
L 570 4416 
z
M 1094 358 
L 1094 4057 
L 2003 4057 
C 2861 4057 3475 3275 3475 2169 
C 3475 1108 2867 358 2003 358 
L 1094 358 
z
" transform="scale(0.015625)"/>
        <path id="CMSS17-6c" d="M 947 4416 
L 474 4416 
L 474 0 
L 947 0 
L 947 4416 
z
" transform="scale(0.015625)"/>
        <path id="CMSS17-76" d="M 2675 2752 
L 2176 2752 
L 1747 1555 
C 1613 1164 1421 627 1389 352 
L 1382 352 
C 1370 467 1318 633 1286 748 
C 1248 889 1197 1056 1158 1171 
L 595 2752 
L 83 2752 
L 1094 0 
L 1664 0 
L 2675 2752 
z
" transform="scale(0.015625)"/>
        <path id="CMSS17-79" d="M 2675 2752 
L 2176 2752 
C 1632 1293 1446 701 1434 383 
L 1427 383 
C 1408 695 1126 1459 902 2006 
L 602 2752 
L 83 2752 
L 1216 14 
C 1146 -177 1043 -464 1011 -527 
C 870 -884 774 -884 672 -884 
C 646 -884 442 -877 211 -807 
L 250 -1229 
C 410 -1261 570 -1280 685 -1280 
C 845 -1280 1165 -1280 1459 -495 
L 2675 2752 
z
" transform="scale(0.015625)"/>
       </defs>
       <use xlink:href="#CMSS17-44" transform="scale(0.996264)"/>
       <use xlink:href="#CMSS17-65" transform="translate(67.542842 0)scale(0.996264)"/>
       <use xlink:href="#CMSS17-6c" transform="translate(109.181664 0)scale(0.996264)"/>
       <use xlink:href="#CMSS17-69" transform="translate(131.362387 0)scale(0.996264)"/>
       <use xlink:href="#CMSS17-76" transform="translate(153.54311 0)scale(0.996264)"/>
       <use xlink:href="#CMSS17-65" transform="translate(196.543252 0)scale(0.996264)"/>
       <use xlink:href="#CMSS17-72" transform="translate(238.182074 0)scale(0.996264)"/>
       <use xlink:href="#CMSS17-79" transform="translate(270.091846 0)scale(0.996264)"/>
       <use xlink:href="#CMSS17-43" transform="translate(344.321101 0)scale(0.996264)"/>
       <use xlink:href="#CMSS17-6f" transform="translate(404.176872 0)scale(0.996264)"/>
       <use xlink:href="#CMSS17-73" transform="translate(451.020496 0)scale(0.996264)"/>
       <use xlink:href="#CMSS17-74" transform="translate(486.934038 0)scale(0.996264)"/>
      </g>
     </g>
    </g>
    <g id="ytick_6">
     <g id="line2d_18"/>
     <g id="text_5">
      <!-- Variable Warehousing -->
      <g style="fill: #ff0000" transform="translate(14.056246 146.18086)scale(0.11 -0.11)">
       <defs>
        <path id="CMSS17-56" d="M 3910 4416 
L 3411 4416 
L 2304 1361 
C 2272 1272 2074 687 2035 484 
L 2029 484 
C 1978 725 1773 1291 1664 1603 
L 922 3670 
L 646 4416 
L 83 4416 
L 1715 0 
L 2278 0 
L 3910 4416 
z
" transform="scale(0.015625)"/>
        <path id="CMSS17-62" d="M 954 4416 
L 480 4416 
L 480 -13 
L 966 -13 
L 966 275 
C 1210 38 1504 -64 1766 -64 
C 2381 -64 2880 559 2880 1382 
C 2880 2133 2496 2816 1926 2816 
C 1523 2816 1165 2649 954 2476 
L 954 4416 
z
M 966 2095 
C 1107 2276 1306 2425 1587 2425 
C 1965 2425 2394 2146 2394 1382 
C 2394 566 1882 326 1530 326 
C 1402 326 1267 358 1139 468 
C 966 624 966 721 966 812 
L 966 2095 
z
" transform="scale(0.015625)"/>
        <path id="CMSS17-57" d="M 5581 4416 
L 5094 4416 
L 4557 2436 
C 4474 2118 4397 1800 4320 1482 
C 4205 1012 4122 681 4109 516 
L 4102 516 
C 4090 687 4006 1050 3904 1457 
C 3827 1794 3744 2131 3654 2462 
L 3123 4416 
L 2586 4416 
L 2080 2564 
L 1824 1552 
C 1632 751 1626 636 1613 509 
L 1606 509 
C 1606 547 1581 757 1402 1501 
C 1312 1870 1222 2246 1126 2602 
L 634 4416 
L 83 4416 
L 1299 0 
L 1830 0 
L 2336 1838 
L 2592 2850 
C 2765 3562 2803 3740 2816 3899 
L 2822 3899 
C 2822 3874 2880 3473 3130 2544 
L 3808 0 
L 4365 0 
L 5581 4416 
z
" transform="scale(0.015625)"/>
        <path id="CMSS17-68" d="M 2618 1878 
C 2618 2283 2522 2816 1798 2816 
C 1395 2816 1133 2617 947 2399 
L 947 4416 
L 474 4416 
L 474 0 
L 960 0 
L 960 1556 
C 960 1962 1114 2425 1549 2425 
C 2112 2425 2131 2045 2131 1826 
L 2131 0 
L 2618 0 
L 2618 1878 
z
" transform="scale(0.015625)"/>
        <path id="CMSS17-75" d="M 2618 2752 
L 2131 2752 
L 2131 976 
C 2131 500 1786 307 1421 307 
C 998 307 960 448 960 712 
L 960 2752 
L 474 2752 
L 474 680 
C 474 179 646 -64 1088 -64 
C 1306 -64 1798 -13 2144 307 
L 2144 -13 
L 2618 -13 
L 2618 2752 
z
" transform="scale(0.015625)"/>
       </defs>
       <use xlink:href="#CMSS17-56" transform="scale(0.996264)"/>
       <use xlink:href="#CMSS17-61" transform="translate(59.615401 0)scale(0.996264)"/>
       <use xlink:href="#CMSS17-72" transform="translate(101.934868 0)scale(0.996264)"/>
       <use xlink:href="#CMSS17-69" transform="translate(133.84464 0)scale(0.996264)"/>
       <use xlink:href="#CMSS17-61" transform="translate(156.025363 0)scale(0.996264)"/>
       <use xlink:href="#CMSS17-62" transform="translate(200.947284 0)scale(0.996264)"/>
       <use xlink:href="#CMSS17-6c" transform="translate(249.152227 0)scale(0.996264)"/>
       <use xlink:href="#CMSS17-65" transform="translate(271.33295 0)scale(0.996264)"/>
       <use xlink:href="#CMSS17-57" transform="translate(344.200885 0)scale(0.996264)"/>
       <use xlink:href="#CMSS17-61" transform="translate(429.840597 0)scale(0.996264)"/>
       <use xlink:href="#CMSS17-72" transform="translate(472.160064 0)scale(0.996264)"/>
       <use xlink:href="#CMSS17-65" transform="translate(504.069836 0)scale(0.996264)"/>
       <use xlink:href="#CMSS17-68" transform="translate(545.708658 0)scale(0.996264)"/>
       <use xlink:href="#CMSS17-6f" transform="translate(593.913602 0)scale(0.996264)"/>
       <use xlink:href="#CMSS17-75" transform="translate(640.757225 0)scale(0.996264)"/>
       <use xlink:href="#CMSS17-73" transform="translate(688.962168 0)scale(0.996264)"/>
       <use xlink:href="#CMSS17-69" transform="translate(724.87571 0)scale(0.996264)"/>
       <use xlink:href="#CMSS17-6e" transform="translate(747.056433 0)scale(0.996264)"/>
       <use xlink:href="#CMSS17-67" transform="translate(795.261376 0)scale(0.996264)"/>
      </g>
     </g>
    </g>
    <g id="ytick_7">
     <g id="line2d_19"/>
     <g id="text_6">
      <!-- \textbf{Gross Margin} -->
      <g style="fill: #008000" transform="translate(46.244819 123.931745)scale(0.11 -0.11)">
       <defs>
        <path id="CMSSBX10-47" d="M 4224 1996 
C 4224 2022 4205 2080 4147 2080 
L 2835 2080 
C 2784 2080 2739 2067 2739 1990 
L 2739 1536 
C 2739 1497 2771 1472 2810 1472 
L 3347 1472 
L 3347 646 
C 3290 608 2861 569 2765 569 
C 1690 569 1338 1246 1338 2235 
C 1338 3203 1683 3903 2726 3903 
C 3270 3903 3533 3767 3910 3410 
C 3930 3391 3949 3384 3968 3384 
C 4000 3384 4032 3410 4045 3469 
L 4160 4127 
C 4166 4159 4173 4198 4115 4230 
C 3923 4332 3450 4544 2765 4544 
C 1069 4544 397 3676 397 2235 
C 397 646 1235 -64 2726 -64 
C 3405 -64 4045 147 4224 294 
L 4224 1996 
z
" transform="scale(0.015625)"/>
        <path id="CMSSBX10-4d" d="M 3552 2080 
C 3418 1756 3181 1171 3130 948 
L 3123 948 
C 3066 1177 2803 1807 2669 2144 
L 1850 4154 
C 1741 4416 1536 4416 1421 4416 
L 890 4416 
C 659 4416 582 4345 582 4109 
L 582 306 
C 582 76 653 0 890 0 
L 1062 0 
C 1306 0 1370 83 1370 306 
L 1370 3594 
L 1376 3594 
C 1446 3308 1734 2602 1888 2226 
L 2630 414 
C 2746 140 2899 140 3117 140 
C 3334 140 3488 140 3603 414 
L 4422 2411 
C 4486 2564 4832 3429 4877 3594 
L 4883 3594 
L 4883 306 
C 4883 102 4928 0 5190 0 
L 5363 0 
C 5606 0 5670 83 5670 306 
L 5670 4109 
C 5670 4313 5626 4416 5363 4416 
L 4826 4416 
C 4666 4416 4506 4403 4397 4141 
L 3552 2080 
z
" transform="scale(0.015625)"/>
        <path id="CMSSBX10-67" d="M 1280 569 
C 1050 569 960 569 870 651 
C 845 678 736 780 736 953 
C 736 998 742 1011 749 1049 
C 1050 883 1427 883 1562 883 
C 1830 883 2848 883 2848 1942 
C 2848 2315 2707 2540 2650 2611 
C 2758 2611 2982 2611 3245 2540 
C 3270 2527 3315 2514 3334 2514 
C 3386 2514 3418 2553 3418 2598 
C 3418 2623 3386 2777 3373 2841 
C 3347 2995 3347 3008 3232 3008 
C 3034 3008 2714 2931 2470 2783 
C 2170 2982 1837 3008 1562 3008 
C 1293 3008 275 3008 275 1948 
C 275 1691 346 1369 589 1158 
C 416 921 416 658 416 624 
C 416 499 454 288 589 115 
C 493 76 160 -39 160 -451 
C 160 -651 256 -986 659 -1172 
C 1024 -1338 1453 -1344 1754 -1344 
C 2131 -1344 3354 -1344 3354 -432 
C 3354 569 2451 569 1587 569 
L 1280 569 
z
M 1562 1344 
C 1114 1344 1094 1588 1094 1942 
C 1094 2296 1114 2547 1562 2547 
C 2010 2547 2029 2302 2029 1948 
C 2029 1594 2010 1344 1562 1344 
z
M 1907 -128 
C 2426 -128 2694 -219 2694 -451 
C 2694 -884 1965 -884 1760 -884 
C 1504 -884 819 -884 819 -432 
C 819 -128 1018 -128 1165 -128 
L 1907 -128 
z
" transform="scale(0.015625)"/>
        <path id="CMSSBX10-6e" d="M 3200 2085 
C 3200 2745 2918 3008 2266 3008 
C 1594 3008 1306 2521 1222 2348 
L 1216 2348 
L 1216 2668 
C 1216 2873 1171 2975 909 2975 
L 691 2975 
C 461 2975 384 2905 384 2668 
L 384 307 
C 384 76 454 0 691 0 
L 947 0 
C 1190 0 1254 83 1254 307 
L 1254 1725 
C 1254 2284 1626 2547 1958 2547 
C 2266 2547 2330 2399 2330 2072 
L 2330 307 
C 2330 102 2374 0 2637 0 
L 2893 0 
C 3136 0 3200 83 3200 307 
L 3200 2085 
z
" transform="scale(0.015625)"/>
       </defs>
       <use xlink:href="#CMSSBX10-47" transform="scale(0.996264)"/>
       <use xlink:href="#CMSSBX10-72" transform="translate(73.059766 0)scale(0.996264)"/>
       <use xlink:href="#CMSSBX10-6f" transform="translate(110.143176 0)scale(0.996264)"/>
       <use xlink:href="#CMSSBX10-73" transform="translate(164.938001 0)scale(0.996264)"/>
       <use xlink:href="#CMSSBX10-73" transform="translate(206.947367 0)scale(0.996264)"/>
       <use xlink:href="#CMSSBX10-4d" transform="translate(285.486615 0)scale(0.996264)"/>
       <use xlink:href="#CMSSBX10-61" transform="translate(382.899637 0)scale(0.996264)"/>
       <use xlink:href="#CMSSBX10-72" transform="translate(432.159675 0)scale(0.996264)"/>
       <use xlink:href="#CMSSBX10-67" transform="translate(469.243085 0)scale(0.996264)"/>
       <use xlink:href="#CMSSBX10-69" transform="translate(524.03791 0)scale(0.996264)"/>
       <use xlink:href="#CMSSBX10-6e" transform="translate(549.498128 0)scale(0.996264)"/>
      </g>
     </g>
    </g>
    <g id="ytick_8">
     <g id="line2d_20"/>
     <g id="text_7">
      <!-- Delivery Income -->
      <g style="fill: #262626" transform="translate(39.809662 101.682629)scale(0.11 -0.11)">
       <defs>
        <path id="CMSS17-49" d="M 1094 4416 
L 557 4416 
L 557 0 
L 1094 0 
L 1094 4416 
z
" transform="scale(0.015625)"/>
        <path id="CMSS17-63" d="M 2464 2540 
C 2464 2585 2170 2713 2093 2739 
C 1882 2816 1613 2816 1542 2816 
C 710 2816 211 2092 211 1363 
C 211 595 768 -64 1517 -64 
C 1946 -64 2253 76 2502 243 
L 2464 665 
C 2189 454 1869 339 1523 339 
C 1024 339 698 774 698 1369 
C 698 1830 909 2412 1549 2412 
C 1901 2412 2099 2342 2394 2143 
L 2464 2540 
z
" transform="scale(0.015625)"/>
        <path id="CMSS17-6d" d="M 4288 1878 
C 4288 2309 4179 2816 3462 2816 
C 2982 2816 2694 2515 2566 2328 
C 2451 2668 2182 2816 1798 2816 
C 1363 2816 1088 2566 941 2386 
L 941 2783 
L 474 2783 
L 474 0 
L 960 0 
L 960 1556 
C 960 1936 1101 2425 1555 2425 
C 2138 2425 2138 2013 2138 1826 
L 2138 0 
L 2624 0 
L 2624 1556 
C 2624 1936 2765 2425 3219 2425 
C 3802 2425 3802 2013 3802 1826 
L 3802 0 
L 4288 0 
L 4288 1878 
z
" transform="scale(0.015625)"/>
       </defs>
       <use xlink:href="#CMSS17-44" transform="scale(0.996264)"/>
       <use xlink:href="#CMSS17-65" transform="translate(67.542842 0)scale(0.996264)"/>
       <use xlink:href="#CMSS17-6c" transform="translate(109.181664 0)scale(0.996264)"/>
       <use xlink:href="#CMSS17-69" transform="translate(131.362387 0)scale(0.996264)"/>
       <use xlink:href="#CMSS17-76" transform="translate(153.54311 0)scale(0.996264)"/>
       <use xlink:href="#CMSS17-65" transform="translate(196.543252 0)scale(0.996264)"/>
       <use xlink:href="#CMSS17-72" transform="translate(238.182074 0)scale(0.996264)"/>
       <use xlink:href="#CMSS17-79" transform="translate(270.091846 0)scale(0.996264)"/>
       <use xlink:href="#CMSS17-49" transform="translate(344.321101 0)scale(0.996264)"/>
       <use xlink:href="#CMSS17-6e" transform="translate(370.105026 0)scale(0.996264)"/>
       <use xlink:href="#CMSS17-63" transform="translate(418.309969 0)scale(0.996264)"/>
       <use xlink:href="#CMSS17-6f" transform="translate(459.948791 0)scale(0.996264)"/>
       <use xlink:href="#CMSS17-6d" transform="translate(506.792415 0)scale(0.996264)"/>
       <use xlink:href="#CMSS17-65" transform="translate(581.021669 0)scale(0.996264)"/>
      </g>
     </g>
    </g>
    <g id="ytick_9">
     <g id="line2d_21"/>
     <g id="text_8">
      <!-- Marketing Income -->
      <g style="fill: #262626" transform="translate(30.616353 79.433514)scale(0.11 -0.11)">
       <use xlink:href="#CMSS17-4d" transform="scale(0.996264)"/>
       <use xlink:href="#CMSS17-61" transform="translate(81.67603 0)scale(0.996264)"/>
       <use xlink:href="#CMSS17-72" transform="translate(123.995497 0)scale(0.996264)"/>
       <use xlink:href="#CMSS17-6b" transform="translate(155.905269 0)scale(0.996264)"/>
       <use xlink:href="#CMSS17-65" transform="translate(198.905304 0)scale(0.996264)"/>
       <use xlink:href="#CMSS17-74" transform="translate(240.544127 0)scale(0.996264)"/>
       <use xlink:href="#CMSS17-69" transform="translate(274.375693 0)scale(0.996264)"/>
       <use xlink:href="#CMSS17-6e" transform="translate(296.556416 0)scale(0.996264)"/>
       <use xlink:href="#CMSS17-67" transform="translate(344.761359 0)scale(0.996264)"/>
       <use xlink:href="#CMSS17-49" transform="translate(422.834096 0)scale(0.996264)"/>
       <use xlink:href="#CMSS17-6e" transform="translate(448.618021 0)scale(0.996264)"/>
       <use xlink:href="#CMSS17-63" transform="translate(496.822964 0)scale(0.996264)"/>
       <use xlink:href="#CMSS17-6f" transform="translate(538.461786 0)scale(0.996264)"/>
       <use xlink:href="#CMSS17-6d" transform="translate(585.30541 0)scale(0.996264)"/>
       <use xlink:href="#CMSS17-65" transform="translate(659.534664 0)scale(0.996264)"/>
      </g>
     </g>
    </g>
    <g id="ytick_10">
     <g id="line2d_22"/>
     <g id="text_9">
      <!-- COGS -->
      <g style="fill: #ff0000" transform="translate(84.375997 57.184399)scale(0.11 -0.11)">
       <defs>
        <path id="CMSS17-4f" d="M 4096 2201 
C 4096 3541 3219 4544 2214 4544 
C 1210 4544 333 3535 333 2201 
C 333 855 1222 -128 2214 -128 
C 3206 -128 4096 855 4096 2201 
z
M 2214 275 
C 1510 275 870 1067 870 2285 
C 870 3470 1549 4140 2214 4140 
C 2880 4140 3558 3470 3558 2285 
C 3558 1061 2912 275 2214 275 
z
" transform="scale(0.015625)"/>
        <path id="CMSS17-47" d="M 3610 1868 
L 2336 1868 
L 2336 1472 
L 3123 1472 
L 3123 473 
C 2874 403 2618 352 2362 352 
C 1466 352 934 1311 934 2220 
C 934 3123 1491 4070 2362 4070 
C 2854 4070 3130 3916 3469 3660 
L 3552 4172 
C 3130 4390 2867 4480 2387 4480 
C 1146 4480 397 3353 397 2201 
C 397 1100 1152 -64 2349 -64 
C 2797 -64 3213 51 3610 249 
L 3610 1868 
z
" transform="scale(0.015625)"/>
        <path id="CMSS17-53" d="M 2797 4230 
C 2515 4396 2208 4544 1690 4544 
C 864 4544 333 3934 333 3309 
C 333 3064 403 2787 653 2504 
C 902 2220 1184 2143 1542 2053 
C 1690 2014 1939 1943 1984 1924 
C 2342 1782 2515 1454 2515 1144 
C 2515 738 2202 307 1645 307 
C 1453 307 890 339 358 829 
L 269 320 
C 794 -64 1363 -128 1651 -128 
C 2438 -128 3002 494 3002 1202 
C 3002 1460 2925 1789 2656 2092 
C 2394 2381 2163 2446 1638 2588 
C 1338 2665 1146 2717 986 2916 
C 877 3058 819 3193 819 3367 
C 819 3728 1126 4121 1690 4121 
C 1971 4121 2336 4063 2707 3715 
L 2797 4230 
z
" transform="scale(0.015625)"/>
       </defs>
       <use xlink:href="#CMSS17-43" transform="scale(0.996264)"/>
       <use xlink:href="#CMSS17-4f" transform="translate(59.855772 0)scale(0.996264)"/>
       <use xlink:href="#CMSS17-47" transform="translate(128.880027 0)scale(0.996264)"/>
       <use xlink:href="#CMSS17-53" transform="translate(191.338252 0)scale(0.996264)"/>
      </g>
     </g>
    </g>
    <g id="ytick_11">
     <g id="line2d_23"/>
     <g id="text_10">
      <!-- \textbf{Overall Order Value} -->
      <g style="fill: #262626" transform="translate(12.96 34.935284)scale(0.11 -0.11)">
       <defs>
        <path id="CMSSBX10-4f" d="M 4685 2207 
C 4685 3498 4218 4608 2541 4608 
C 768 4608 390 3383 390 2207 
C 390 1006 806 -128 2534 -128 
C 4186 -128 4685 891 4685 2207 
z
M 2541 384 
C 1331 384 1331 1726 1331 2310 
C 1331 2875 1331 4108 2534 4108 
C 3744 4108 3744 2888 3744 2310 
C 3744 1739 3744 384 2541 384 
z
" transform="scale(0.015625)"/>
        <path id="CMSSBX10-76" d="M 2995 2642 
C 3027 2732 3027 2745 3027 2764 
C 3027 2944 2867 2944 2771 2944 
L 2637 2944 
C 2368 2944 2298 2847 2240 2668 
L 1606 726 
L 973 2668 
C 928 2803 883 2944 576 2944 
L 422 2944 
C 326 2944 166 2944 166 2764 
C 166 2745 166 2732 198 2642 
L 960 269 
C 1050 0 1248 0 1363 0 
L 1830 0 
C 1946 0 2144 0 2234 269 
L 2995 2642 
z
" transform="scale(0.015625)"/>
        <path id="CMSSBX10-64" d="M 3194 4113 
C 3194 4313 3149 4416 2886 4416 
L 2650 4416 
C 2406 4416 2342 4332 2342 4113 
L 2342 2687 
C 2054 2963 1734 3008 1536 3008 
C 237 3008 237 1779 237 1465 
C 237 1171 237 -64 1504 -64 
C 1773 -64 2048 12 2323 307 
C 2323 70 2413 6 2630 6 
L 2886 6 
C 3130 6 3194 89 3194 313 
L 3194 4113 
z
M 2323 806 
C 2323 697 2323 640 2138 512 
C 1978 409 1830 396 1754 396 
C 1107 396 1107 985 1107 1465 
C 1107 1945 1107 2547 1824 2547 
C 2010 2547 2182 2483 2323 2348 
L 2323 806 
z
" transform="scale(0.015625)"/>
        <path id="CMSSBX10-56" d="M 4480 4128 
C 4506 4205 4512 4211 4512 4243 
C 4512 4416 4352 4416 4262 4416 
L 4013 4416 
C 3878 4416 3693 4416 3590 4135 
L 2726 1775 
L 2394 795 
C 2387 814 2317 1037 2221 1298 
L 1184 4141 
C 1082 4416 902 4416 768 4416 
L 422 4416 
C 333 4416 173 4416 173 4243 
C 173 4211 179 4205 205 4128 
L 1638 267 
C 1734 0 1920 0 2048 0 
L 2637 0 
C 2771 0 2950 0 3053 280 
L 4480 4128 
z
" transform="scale(0.015625)"/>
        <path id="CMSSBX10-75" d="M 3200 2636 
C 3200 2841 3155 2944 2893 2944 
L 2637 2944 
C 2394 2944 2330 2860 2330 2636 
L 2330 1115 
C 2330 692 2106 326 1651 326 
C 1293 326 1254 416 1254 756 
L 1254 2636 
C 1254 2841 1210 2944 947 2944 
L 691 2944 
C 461 2944 384 2873 384 2636 
L 384 814 
C 384 128 755 -64 1421 -64 
C 1594 -64 2048 -64 2349 480 
L 2349 313 
C 2349 108 2394 6 2656 6 
L 2893 6 
C 3136 6 3200 89 3200 313 
L 3200 2636 
z
" transform="scale(0.015625)"/>
       </defs>
       <use xlink:href="#CMSSBX10-4f" transform="scale(0.996264)"/>
       <use xlink:href="#CMSSBX10-76" transform="translate(79.14808 0)scale(0.996264)"/>
       <use xlink:href="#CMSSBX10-65" transform="translate(128.961554 0)scale(0.996264)"/>
       <use xlink:href="#CMSSBX10-72" transform="translate(179.882007 0)scale(0.996264)"/>
       <use xlink:href="#CMSSBX10-61" transform="translate(216.965417 0)scale(0.996264)"/>
       <use xlink:href="#CMSSBX10-6c" transform="translate(269.269612 0)scale(0.996264)"/>
       <use xlink:href="#CMSSBX10-6c" transform="translate(294.729831 0)scale(0.996264)"/>
       <use xlink:href="#CMSSBX10-4f" transform="translate(356.719933 0)scale(0.996264)"/>
       <use xlink:href="#CMSSBX10-72" transform="translate(435.868013 0)scale(0.996264)"/>
       <use xlink:href="#CMSSBX10-64" transform="translate(472.951423 0)scale(0.996264)"/>
       <use xlink:href="#CMSSBX10-65" transform="translate(528.853211 0)scale(0.996264)"/>
       <use xlink:href="#CMSSBX10-72" transform="translate(579.773664 0)scale(0.996264)"/>
       <use xlink:href="#CMSSBX10-56" transform="translate(653.386957 0)scale(0.996264)"/>
       <use xlink:href="#CMSSBX10-61" transform="translate(723.402566 0)scale(0.996264)"/>
       <use xlink:href="#CMSSBX10-6c" transform="translate(775.706761 0)scale(0.996264)"/>
       <use xlink:href="#CMSSBX10-75" transform="translate(801.16698 0)scale(0.996264)"/>
       <use xlink:href="#CMSSBX10-65" transform="translate(857.068768 0)scale(0.996264)"/>
      </g>
     </g>
    </g>
   </g>
   <g id="BrokenBarHCollection_1">
    <path d="M 116.338766 38.546482 
L 116.338766 23.713739 
L 396.730479 23.713739 
L 396.730479 38.546482 
L 116.338766 38.546482 
z
" clip-path="url(#p978269b192)" style="fill: #808080"/>
   </g>
   <g id="BrokenBarHCollection_2">
    <path d="M 172.417108 60.795598 
L 172.417108 45.962854 
L 396.730479 45.962854 
L 396.730479 60.795598 
L 172.417108 60.795598 
z
" clip-path="url(#p978269b192)" style="fill: #ff0000; fill-opacity: 0.75"/>
   </g>
   <g id="BrokenBarHCollection_3">
    <path d="M 172.417108 83.044713 
L 172.417108 68.211969 
L 175.221026 68.211969 
L 175.221026 83.044713 
L 172.417108 83.044713 
z
" clip-path="url(#p978269b192)" style="fill-opacity: 0.75"/>
   </g>
   <g id="BrokenBarHCollection_4">
    <path d="M 175.221026 105.293828 
L 175.221026 90.461084 
L 183.632777 90.461084 
L 183.632777 105.293828 
L 175.221026 105.293828 
z
" clip-path="url(#p978269b192)" style="fill-opacity: 0.75"/>
   </g>
   <g id="BrokenBarHCollection_5">
    <path d="M 116.338766 127.542943 
L 116.338766 112.7102 
L 183.632777 112.7102 
L 183.632777 127.542943 
L 116.338766 127.542943 
z
" clip-path="url(#p978269b192)" style="fill: #008000; fill-opacity: 0.75"/>
   </g>
   <g id="BrokenBarHCollection_6">
    <path d="M 151.107338 149.792058 
L 151.107338 134.959315 
L 183.632777 134.959315 
L 183.632777 149.792058 
L 151.107338 149.792058 
z
" clip-path="url(#p978269b192)" style="fill: #ff0000; fill-opacity: 0.75"/>
   </g>
   <g id="BrokenBarHCollection_7">
    <path d="M 143.536762 172.041173 
L 143.536762 157.20843 
L 151.107338 157.20843 
L 151.107338 172.041173 
L 143.536762 172.041173 
z
" clip-path="url(#p978269b192)" style="fill: #ff0000; fill-opacity: 0.75"/>
   </g>
   <g id="BrokenBarHCollection_8">
    <path d="M 130.07796 194.290288 
L 130.07796 179.457545 
L 143.536762 179.457545 
L 143.536762 194.290288 
L 130.07796 194.290288 
z
" clip-path="url(#p978269b192)" style="fill: #ff0000; fill-opacity: 0.75"/>
   </g>
   <g id="BrokenBarHCollection_9">
    <path d="M 125.872084 216.539404 
L 125.872084 201.70666 
L 130.07796 201.70666 
L 130.07796 216.539404 
L 125.872084 216.539404 
z
" clip-path="url(#p978269b192)" style="fill: #ff0000; fill-opacity: 0.75"/>
   </g>
   <g id="BrokenBarHCollection_10">
    <path d="M 116.338766 238.788519 
L 116.338766 223.955775 
L 125.872084 223.955775 
L 125.872084 238.788519 
L 116.338766 238.788519 
z
" clip-path="url(#p978269b192)" style="fill: #008000; fill-opacity: 0.75"/>
   </g>
   <g id="line2d_24">
    <path d="M 9.565601 17.780642 
L 430.377484 17.780642 
" style="fill: none; stroke: #000000; stroke-width: 2; stroke-linecap: round"/>
   </g>
   <g id="line2d_25">
    <path d="M 9.565601 43.070469 
L 430.377484 43.070469 
" style="fill: none; stroke: #000000; stroke-width: 2; stroke-linecap: round"/>
   </g>
   <g id="line2d_26">
    <path d="M 9.565601 109.002014 
L 430.377484 109.002014 
" style="fill: none; stroke: #000000; stroke-width: 2; stroke-linecap: round"/>
   </g>
   <g id="line2d_27">
    <path d="M 9.565601 131.251129 
L 430.377484 131.251129 
" style="fill: none; stroke: #000000; stroke-width: 2; stroke-linecap: round"/>
   </g>
   <g id="line2d_28">
    <path d="M 9.565601 220.247589 
L 430.377484 220.247589 
" style="fill: none; stroke: #000000; stroke-width: 2; stroke-linecap: round"/>
   </g>
   <g id="line2d_29">
    <path d="M 9.565601 242.496705 
L 430.377484 242.496705 
" style="fill: none; stroke: #000000; stroke-width: 2; stroke-linecap: round"/>
   </g>
   <g id="patch_3">
    <path d="M 116.338766 261.037634 
L 116.338766 12.96 
" style="fill: none; stroke: #262626; stroke-width: 1.25; stroke-linejoin: miter; stroke-linecap: square"/>
   </g>
   <g id="patch_4">
    <path d="M 430.377484 261.037634 
L 430.377484 12.96 
" style="fill: none; stroke: #262626; stroke-width: 1.25; stroke-linejoin: miter; stroke-linecap: square"/>
   </g>
   <g id="patch_5">
    <path d="M 116.338766 261.037634 
L 430.377484 261.037634 
" style="fill: none; stroke: #262626; stroke-width: 1.25; stroke-linejoin: miter; stroke-linecap: square"/>
   </g>
   <g id="patch_6">
    <path d="M 116.338766 12.96 
L 430.377484 12.96 
" style="fill: none; stroke: #262626; stroke-width: 1.25; stroke-linejoin: miter; stroke-linecap: square"/>
   </g>
   <g id="text_11">
    <!-- \textbf{100.0} -->
    <g style="fill: #262626" transform="translate(399.534396 34.838297)scale(0.12 -0.12)">
     <defs>
      <path id="CMSSBX10-31" d="M 2272 4297 
C 2272 4421 2272 4608 1990 4608 
C 1862 4608 1837 4595 1760 4518 
C 1645 4414 1402 4173 768 4160 
C 653 4160 486 4115 486 3929 
C 486 3698 710 3698 794 3698 
C 986 3698 1210 3731 1395 3782 
L 1395 460 
L 896 460 
C 813 460 589 460 589 230 
C 589 0 813 0 896 0 
L 2720 0 
C 2790 0 3027 0 3027 230 
C 3027 460 2790 460 2720 460 
L 2272 460 
L 2272 4297 
z
" transform="scale(0.015625)"/>
      <path id="CMSSBX10-30" d="M 3238 2214 
C 3238 3094 3238 4608 1760 4608 
C 275 4608 275 3107 275 2214 
C 275 1334 275 -128 1754 -128 
C 3238 -128 3238 1321 3238 2214 
z
M 1754 332 
C 1280 332 1210 923 1190 1097 
C 1146 1437 1146 2041 1146 2304 
C 1146 2683 1146 3094 1184 3408 
C 1203 3582 1267 4147 1754 4147 
C 2227 4147 2304 3607 2323 3479 
C 2368 3152 2368 2644 2368 2304 
C 2368 1938 2368 1437 2323 1084 
C 2304 917 2234 332 1754 332 
z
" transform="scale(0.015625)"/>
      <path id="CMSSBX10-2e" d="M 1395 665 
C 1395 832 1389 838 1222 838 
L 730 838 
C 563 838 557 832 557 665 
L 557 172 
C 557 6 563 0 730 0 
L 1222 0 
C 1389 0 1395 6 1395 172 
L 1395 665 
z
" transform="scale(0.015625)"/>
     </defs>
     <use xlink:href="#CMSSBX10-31" transform="scale(0.996264)"/>
     <use xlink:href="#CMSSBX10-30" transform="translate(54.794825 0)scale(0.996264)"/>
     <use xlink:href="#CMSSBX10-30" transform="translate(109.589649 0)scale(0.996264)"/>
     <use xlink:href="#CMSSBX10-2e" transform="translate(164.384474 0)scale(0.996264)"/>
     <use xlink:href="#CMSSBX10-30" transform="translate(194.826043 0)scale(0.996264)"/>
    </g>
   </g>
   <g id="text_12">
    <!-- \textbf{-80.0} -->
    <g style="fill: #ff0000; opacity: 0.75" transform="translate(399.534396 57.087412)scale(0.12 -0.12)">
     <defs>
      <path id="CMSSBX10-2d" d="M 1645 1216 
C 1722 1216 1952 1216 1952 1446 
C 1952 1676 1722 1676 1645 1676 
L 384 1676 
C 307 1676 77 1676 77 1446 
C 77 1216 307 1216 384 1216 
L 1645 1216 
z
" transform="scale(0.015625)"/>
      <path id="CMSSBX10-38" d="M 2432 2400 
C 3046 2604 3123 3058 3123 3350 
C 3123 4300 2522 4608 1760 4608 
C 1062 4608 390 4358 390 3350 
C 390 3006 506 2592 1082 2400 
C 422 2214 294 1710 294 1308 
C 294 313 832 -128 1754 -128 
C 2720 -128 3219 352 3219 1308 
C 3219 1889 2944 2252 2432 2400 
z
M 1760 2636 
C 1222 2636 1210 2954 1210 3344 
C 1210 3791 1248 4038 1754 4038 
C 2259 4038 2304 3804 2304 3344 
C 2304 2967 2298 2636 1760 2636 
z
M 1760 473 
C 1197 473 1184 830 1184 1321 
C 1184 1736 1184 2176 1754 2176 
C 2330 2176 2330 1742 2330 1321 
C 2330 843 2317 473 1760 473 
z
" transform="scale(0.015625)"/>
     </defs>
     <use xlink:href="#CMSSBX10-2d" transform="scale(0.996264)"/>
     <use xlink:href="#CMSSBX10-38" transform="translate(36.529883 0)scale(0.996264)"/>
     <use xlink:href="#CMSSBX10-30" transform="translate(91.324708 0)scale(0.996264)"/>
     <use xlink:href="#CMSSBX10-2e" transform="translate(146.119532 0)scale(0.996264)"/>
     <use xlink:href="#CMSSBX10-30" transform="translate(176.561101 0)scale(0.996264)"/>
    </g>
   </g>
   <g id="text_13">
    <!-- \textbf{1.0} -->
    <g style="opacity: 0.75" transform="translate(178.024943 79.336527)scale(0.12 -0.12)">
     <use xlink:href="#CMSSBX10-31" transform="scale(0.996264)"/>
     <use xlink:href="#CMSSBX10-2e" transform="translate(54.794825 0)scale(0.996264)"/>
     <use xlink:href="#CMSSBX10-30" transform="translate(85.236394 0)scale(0.996264)"/>
    </g>
   </g>
   <g id="text_14">
    <!-- \textbf{3.0} -->
    <g style="opacity: 0.75" transform="translate(189.240611 101.585642)scale(0.12 -0.12)">
     <defs>
      <path id="CMSSBX10-33" d="M 614 3571 
C 666 3493 698 3493 710 3493 
C 755 3493 768 3519 800 3564 
C 1126 4038 1581 4038 1664 4038 
C 2074 4038 2131 3824 2131 3506 
C 2131 3415 2131 3103 1933 2857 
C 1779 2675 1619 2662 1427 2649 
C 1357 2643 1235 2636 1216 2624 
C 1171 2604 1171 2566 1171 2464 
L 1171 2348 
C 1171 2182 1178 2176 1344 2176 
L 1626 2176 
C 2208 2176 2278 1812 2278 1321 
C 2278 894 2234 473 1651 473 
C 1446 473 973 518 544 919 
C 486 977 480 983 454 983 
C 390 983 378 926 371 913 
C 371 907 294 505 294 473 
C 294 390 845 -128 1683 -128 
C 2784 -128 3219 460 3219 1308 
C 3219 1882 2912 2272 2336 2419 
C 2854 2701 3027 3123 3027 3493 
C 3027 4524 2112 4608 1696 4608 
C 819 4608 390 3980 390 3928 
C 390 3889 429 3837 435 3830 
L 614 3571 
z
" transform="scale(0.015625)"/>
     </defs>
     <use xlink:href="#CMSSBX10-33" transform="scale(0.996264)"/>
     <use xlink:href="#CMSSBX10-2e" transform="translate(54.794825 0)scale(0.996264)"/>
     <use xlink:href="#CMSSBX10-30" transform="translate(85.236394 0)scale(0.996264)"/>
    </g>
   </g>
   <g id="text_15">
    <!-- \textbf{24.0} -->
    <g style="fill: #008000; opacity: 0.75" transform="translate(188.679828 123.834757)scale(0.12 -0.12)">
     <defs>
      <path id="CMSSBX10-32" d="M 416 544 
C 352 480 352 467 352 358 
L 352 307 
C 352 76 422 0 659 0 
L 2854 0 
C 3098 0 3162 83 3162 307 
L 3162 384 
C 3162 486 3162 608 3027 665 
C 2982 691 2778 691 2650 691 
C 2509 691 2355 684 2214 684 
L 1178 684 
L 2022 1491 
C 2118 1574 2362 1774 2458 1865 
C 2810 2213 3162 2555 3162 3129 
C 3162 3916 2598 4608 1658 4608 
C 1434 4608 1069 4575 762 4326 
C 704 4281 410 4051 294 3619 
L 614 3206 
C 653 3155 672 3129 717 3129 
C 774 3129 787 3174 806 3252 
C 934 3697 1152 3967 1562 3967 
C 2061 3967 2266 3510 2266 3116 
C 2266 2703 2022 2271 1638 1858 
L 416 544 
z
" transform="scale(0.015625)"/>
      <path id="CMSSBX10-34" d="M 250 1657 
C 198 1561 198 1542 198 1427 
L 198 1267 
C 198 1062 243 960 506 960 
L 1946 960 
L 1946 303 
C 1946 102 1990 0 2253 0 
L 2432 0 
C 2675 0 2739 83 2739 303 
L 2739 960 
L 3008 960 
C 3206 960 3315 1004 3315 1260 
C 3315 1497 3232 1561 3008 1561 
L 2739 1561 
L 2739 4109 
C 2739 4339 2669 4416 2432 4416 
L 1965 4416 
C 1843 4416 1747 4416 1670 4268 
L 250 1657 
z
M 864 1561 
C 1888 3438 1946 3636 1978 3745 
L 1984 3745 
L 1984 1561 
L 864 1561 
z
" transform="scale(0.015625)"/>
     </defs>
     <use xlink:href="#CMSSBX10-32" transform="scale(0.996264)"/>
     <use xlink:href="#CMSSBX10-34" transform="translate(54.794825 0)scale(0.996264)"/>
     <use xlink:href="#CMSSBX10-2e" transform="translate(109.589649 0)scale(0.996264)"/>
     <use xlink:href="#CMSSBX10-30" transform="translate(140.031218 0)scale(0.996264)"/>
    </g>
   </g>
   <g id="text_16">
    <!-- \textbf{-11.6} -->
    <g style="fill: #ff0000; opacity: 0.75" transform="translate(188.679828 146.083872)scale(0.12 -0.12)">
     <defs>
      <path id="CMSSBX10-36" d="M 2765 4300 
C 2765 4454 2765 4460 2541 4543 
C 2374 4608 2202 4608 2138 4608 
C 294 4608 294 2758 294 2193 
C 294 1532 294 -128 1786 -128 
C 2278 -128 2586 -7 2848 288 
C 3181 659 3219 1025 3219 1526 
C 3219 1892 3219 3084 1971 3084 
C 1619 3084 1363 2886 1190 2514 
C 1222 3091 1229 3233 1325 3490 
C 1510 3980 1933 4038 2157 4038 
C 2272 4038 2438 4018 2592 3935 
C 2637 3903 2656 3890 2688 3890 
C 2765 3890 2765 3967 2765 4063 
L 2765 4300 
z
M 1779 473 
C 1274 473 1203 1051 1203 1603 
C 1203 2136 1357 2624 1811 2624 
C 2323 2624 2323 2168 2323 1532 
C 2323 903 2323 473 1779 473 
z
" transform="scale(0.015625)"/>
     </defs>
     <use xlink:href="#CMSSBX10-2d" transform="scale(0.996264)"/>
     <use xlink:href="#CMSSBX10-31" transform="translate(36.529883 0)scale(0.996264)"/>
     <use xlink:href="#CMSSBX10-31" transform="translate(91.324708 0)scale(0.996264)"/>
     <use xlink:href="#CMSSBX10-2e" transform="translate(146.119532 0)scale(0.996264)"/>
     <use xlink:href="#CMSSBX10-36" transform="translate(176.561101 0)scale(0.996264)"/>
    </g>
   </g>
   <g id="text_17">
    <!-- \textbf{-2.7} -->
    <g style="fill: #ff0000; opacity: 0.75" transform="translate(154.191647 168.332987)scale(0.12 -0.12)">
     <defs>
      <path id="CMSSBX10-37" d="M 2349 3788 
C 915 2197 915 573 915 244 
C 915 38 960 -64 1222 -64 
L 1517 -64 
C 1619 -64 1824 -64 1824 186 
C 1843 1784 2400 2951 3168 3923 
C 3219 3987 3219 4038 3219 4153 
C 3219 4294 3219 4467 2950 4473 
C 2733 4480 1446 4480 1133 4480 
L 730 4480 
C 422 4480 294 4480 294 4172 
L 294 4089 
C 294 3987 294 3865 429 3807 
C 474 3782 685 3782 819 3782 
C 966 3782 1120 3788 1267 3788 
L 2349 3788 
z
" transform="scale(0.015625)"/>
     </defs>
     <use xlink:href="#CMSSBX10-2d" transform="scale(0.996264)"/>
     <use xlink:href="#CMSSBX10-32" transform="translate(36.529883 0)scale(0.996264)"/>
     <use xlink:href="#CMSSBX10-2e" transform="translate(91.324708 0)scale(0.996264)"/>
     <use xlink:href="#CMSSBX10-37" transform="translate(121.766277 0)scale(0.996264)"/>
    </g>
   </g>
   <g id="text_18">
    <!-- \textbf{-4.8} -->
    <g style="fill: #ff0000; opacity: 0.75" transform="translate(146.901463 190.582103)scale(0.12 -0.12)">
     <use xlink:href="#CMSSBX10-2d" transform="scale(0.996264)"/>
     <use xlink:href="#CMSSBX10-34" transform="translate(36.529883 0)scale(0.996264)"/>
     <use xlink:href="#CMSSBX10-2e" transform="translate(91.324708 0)scale(0.996264)"/>
     <use xlink:href="#CMSSBX10-38" transform="translate(121.766277 0)scale(0.996264)"/>
    </g>
   </g>
   <g id="text_19">
    <!-- \textbf{-1.5} -->
    <g style="fill: #ff0000; opacity: 0.75" transform="translate(130.358351 212.831218)scale(0.12 -0.12)">
     <defs>
      <path id="CMSSBX10-35" d="M 1363 3775 
L 2618 3775 
C 2918 3775 2925 3923 2925 4095 
C 2925 4262 2925 4416 2618 4416 
L 838 4416 
C 634 4416 531 4377 531 4121 
L 531 2184 
C 531 1899 678 1893 851 1893 
C 1018 1893 1075 1893 1165 2045 
C 1318 2292 1536 2419 1805 2419 
C 2221 2419 2221 1937 2221 1443 
C 2221 955 2221 473 1549 473 
C 1350 473 915 530 659 1031 
C 640 1069 621 1107 576 1107 
C 525 1107 512 1075 474 1024 
C 384 879 237 657 237 613 
C 237 562 653 -128 1568 -128 
C 2598 -128 3162 390 3162 1417 
C 3162 2254 2810 2880 1830 2880 
C 1670 2880 1517 2854 1363 2796 
L 1363 3775 
z
" transform="scale(0.015625)"/>
     </defs>
     <use xlink:href="#CMSSBX10-2d" transform="scale(0.996264)"/>
     <use xlink:href="#CMSSBX10-31" transform="translate(36.529883 0)scale(0.996264)"/>
     <use xlink:href="#CMSSBX10-2e" transform="translate(91.324708 0)scale(0.996264)"/>
     <use xlink:href="#CMSSBX10-35" transform="translate(121.766277 0)scale(0.996264)"/>
    </g>
   </g>
   <g id="text_20">
    <!-- \textbf{3.4} -->
    <g style="fill: #008000; opacity: 0.75" transform="translate(127.554434 235.080333)scale(0.12 -0.12)">
     <use xlink:href="#CMSSBX10-33" transform="scale(0.996264)"/>
     <use xlink:href="#CMSSBX10-2e" transform="translate(54.794825 0)scale(0.996264)"/>
     <use xlink:href="#CMSSBX10-34" transform="translate(85.236394 0)scale(0.996264)"/>
    </g>
   </g>
  </g>
 </g>
 <defs>
  <clipPath id="p978269b192">
   <rect x="116.338766" y="12.96" width="314.038719" height="248.077634"/>
  </clipPath>
 </defs>
</svg>
