<?xml version="1.0" encoding="utf-8" standalone="no"?>
<!DOCTYPE svg PUBLIC "-//W3C//DTD SVG 1.1//EN"
  "http://www.w3.org/Graphics/SVG/1.1/DTD/svg11.dtd">
<svg xmlns:xlink="http://www.w3.org/1999/xlink" width="443.337484pt" height="273.997634pt" viewBox="0 0 443.337484 273.997634" xmlns="http://www.w3.org/2000/svg" version="1.1">
 <metadata>
  <rdf:RDF xmlns:dc="http://purl.org/dc/elements/1.1/" xmlns:cc="http://creativecommons.org/ns#" xmlns:rdf="http://www.w3.org/1999/02/22-rdf-syntax-ns#">
   <cc:Work>
    <dc:type rdf:resource="http://purl.org/dc/dcmitype/StillImage"/>
    <dc:date>2022-03-06T17:04:55.225406</dc:date>
    <dc:format>image/svg+xml</dc:format>
    <dc:creator>
     <cc:Agent>
      <dc:title>Matplotlib v3.5.0, https://matplotlib.org/</dc:title>
     </cc:Agent>
    </dc:creator>
   </cc:Work>
  </rdf:RDF>
 </metadata>
 <defs>
  <style type="text/css">*{stroke-linejoin: round; stroke-linecap: butt}</style>
 </defs>
 <g id="figure_1">
  <g id="patch_1">
   <path d="M 0 273.997634 
L 443.337484 273.997634 
L 443.337484 0 
L 0 0 
z
" style="fill: #ffffff"/>
  </g>
  <g id="axes_1">
   <g id="patch_2">
    <path d="M 62.657648 218.209617 
L 172.000217 218.209617 
L 172.000217 28.645876 
L 62.657648 28.645876 
z
" style="fill: #ffffff"/>
   </g>
   <g id="line2d_1">
    <path d="M 62.657648 43.369274 
L 444.337484 43.369274 
" clip-path="url(#p7fefd5e9aa)" style="fill: none; stroke-dasharray: 4.07,1.76; stroke-dashoffset: 0; stroke: #808080; stroke-width: 1.1"/>
   </g>
   <g id="matplotlib.axis_1">
    <g id="xtick_1">
     <g id="line2d_2">
      <defs>
       <path id="m8b1fd43664" d="M 0 0 
L 0 6 
" style="stroke: #262626; stroke-width: 0.8"/>
      </defs>
      <g>
       <use xlink:href="#m8b1fd43664" x="67.627765" y="218.209617" style="fill: #262626; stroke: #262626; stroke-width: 0.8"/>
      </g>
     </g>
     <g id="text_1">
      <!-- $\mathdefault{0}$ -->
      <g style="fill: #262626" transform="translate(64.888031 235.319964)scale(0.11 -0.11)">
       <defs>
        <path id="CMR17-30" d="M 2688 2038 
C 2688 2430 2682 3099 2413 3613 
C 2176 4063 1798 4224 1466 4224 
C 1158 4224 768 4082 525 3620 
C 269 3137 243 2539 243 2038 
C 243 1671 250 1112 448 623 
C 723 -39 1216 -128 1466 -128 
C 1760 -128 2208 -7 2470 604 
C 2662 1048 2688 1568 2688 2038 
z
M 1466 -26 
C 1056 -26 813 328 723 816 
C 653 1196 653 1749 653 2109 
C 653 2604 653 3015 736 3407 
C 858 3954 1216 4121 1466 4121 
C 1728 4121 2067 3947 2189 3420 
C 2272 3054 2278 2623 2278 2109 
C 2278 1691 2278 1176 2202 797 
C 2067 96 1690 -26 1466 -26 
z
" transform="scale(0.015625)"/>
       </defs>
       <use xlink:href="#CMR17-30" transform="scale(0.996264)"/>
      </g>
     </g>
    </g>
    <g id="xtick_2">
     <g id="line2d_3">
      <g>
       <use xlink:href="#m8b1fd43664" x="89.717173" y="218.209617" style="fill: #262626; stroke: #262626; stroke-width: 0.8"/>
      </g>
     </g>
     <g id="text_2">
      <!-- $\mathdefault{2}$ -->
      <g style="fill: #262626" transform="translate(86.977439 235.319964)scale(0.11 -0.11)">
       <defs>
        <path id="CMR17-32" d="M 2669 990 
L 2554 990 
C 2490 537 2438 460 2413 422 
C 2381 371 1920 371 1830 371 
L 602 371 
C 832 620 1280 1073 1824 1596 
C 2214 1966 2669 2400 2669 3033 
C 2669 3788 2067 4224 1395 4224 
C 691 4224 262 3603 262 3027 
C 262 2777 448 2745 525 2745 
C 589 2745 781 2783 781 3007 
C 781 3206 614 3264 525 3264 
C 486 3264 448 3257 422 3244 
C 544 3788 915 4057 1306 4057 
C 1862 4057 2227 3616 2227 3033 
C 2227 2477 1901 1998 1536 1583 
L 262 147 
L 262 0 
L 2515 0 
L 2669 990 
z
" transform="scale(0.015625)"/>
       </defs>
       <use xlink:href="#CMR17-32" transform="scale(0.996264)"/>
      </g>
     </g>
    </g>
    <g id="xtick_3">
     <g id="line2d_4">
      <g>
       <use xlink:href="#m8b1fd43664" x="111.806581" y="218.209617" style="fill: #262626; stroke: #262626; stroke-width: 0.8"/>
      </g>
     </g>
     <g id="text_3">
      <!-- $\mathdefault{4}$ -->
      <g style="fill: #262626" transform="translate(109.066847 235.319964)scale(0.11 -0.11)">
       <defs>
        <path id="CMR17-34" d="M 2150 4147 
C 2150 4281 2144 4288 2029 4288 
L 128 1254 
L 128 1088 
L 1779 1088 
L 1779 460 
C 1779 230 1766 166 1318 166 
L 1197 166 
L 1197 0 
C 1402 12 1747 12 1965 12 
C 2182 12 2528 12 2733 0 
L 2733 166 
L 2611 166 
C 2163 166 2150 230 2150 460 
L 2150 1088 
L 2803 1088 
L 2803 1254 
L 2150 1254 
L 2150 4147 
z
M 1798 3723 
L 1798 1254 
L 256 1254 
L 1798 3723 
z
" transform="scale(0.015625)"/>
       </defs>
       <use xlink:href="#CMR17-34" transform="scale(0.996264)"/>
      </g>
     </g>
    </g>
    <g id="xtick_4">
     <g id="line2d_5">
      <g>
       <use xlink:href="#m8b1fd43664" x="133.895989" y="218.209617" style="fill: #262626; stroke: #262626; stroke-width: 0.8"/>
      </g>
     </g>
     <g id="text_4">
      <!-- $\mathdefault{6}$ -->
      <g style="fill: #262626" transform="translate(131.156255 235.319964)scale(0.11 -0.11)">
       <defs>
        <path id="CMR17-36" d="M 678 2198 
C 678 3712 1395 4076 1811 4076 
C 1946 4076 2272 4049 2400 3782 
C 2298 3782 2106 3782 2106 3558 
C 2106 3385 2246 3328 2336 3328 
C 2394 3328 2566 3353 2566 3571 
C 2566 3987 2246 4224 1805 4224 
C 1043 4224 243 3411 243 2011 
C 243 257 966 -128 1478 -128 
C 2099 -128 2688 431 2688 1295 
C 2688 2101 2170 2688 1517 2688 
C 1126 2688 838 2430 678 1979 
L 678 2198 
z
M 1478 25 
C 691 25 691 1212 691 1450 
C 691 1914 909 2585 1504 2585 
C 1613 2585 1926 2585 2138 2140 
C 2253 1889 2253 1624 2253 1302 
C 2253 954 2253 696 2118 438 
C 1978 173 1773 25 1478 25 
z
" transform="scale(0.015625)"/>
       </defs>
       <use xlink:href="#CMR17-36" transform="scale(0.996264)"/>
      </g>
     </g>
    </g>
    <g id="xtick_5">
     <g id="line2d_6">
      <g>
       <use xlink:href="#m8b1fd43664" x="155.985397" y="218.209617" style="fill: #262626; stroke: #262626; stroke-width: 0.8"/>
      </g>
     </g>
     <g id="text_5">
      <!-- $\mathdefault{8}$ -->
      <g style="fill: #262626" transform="translate(153.245663 235.319964)scale(0.11 -0.11)">
       <defs>
        <path id="CMR17-38" d="M 1741 2289 
C 2144 2494 2554 2803 2554 3298 
C 2554 3884 1990 4224 1472 4224 
C 890 4224 378 3800 378 3215 
C 378 3054 416 2777 666 2533 
C 730 2469 998 2276 1171 2154 
C 883 2006 211 1652 211 945 
C 211 282 838 -128 1459 -128 
C 2144 -128 2720 366 2720 1022 
C 2720 1607 2330 1877 2074 2051 
L 1741 2289 
z
M 902 2855 
C 851 2887 595 3086 595 3388 
C 595 3781 998 4076 1459 4076 
C 1965 4076 2336 3716 2336 3298 
C 2336 2700 1670 2359 1638 2359 
C 1632 2359 1626 2359 1574 2398 
L 902 2855 
z
M 2080 1536 
C 2176 1466 2483 1253 2483 861 
C 2483 385 2010 25 1472 25 
C 890 25 448 443 448 951 
C 448 1459 838 1884 1280 2083 
L 2080 1536 
z
" transform="scale(0.015625)"/>
       </defs>
       <use xlink:href="#CMR17-38" transform="scale(0.996264)"/>
      </g>
     </g>
    </g>
   </g>
   <g id="matplotlib.axis_2">
    <g id="ytick_1">
     <g id="line2d_7">
      <defs>
       <path id="md927d122b0" d="M 0 0 
L -6 0 
" style="stroke: #262626; stroke-width: 0.8"/>
      </defs>
      <g>
       <use xlink:href="#md927d122b0" x="62.657648" y="218.209617" style="fill: #262626; stroke: #262626; stroke-width: 0.8"/>
      </g>
     </g>
     <g id="text_6">
      <!-- $0\%$ -->
      <g style="fill: #262626" transform="translate(38.54574 222.01479)scale(0.11 -0.11)">
       <defs>
        <path id="CMR17-25" d="M 4640 928 
C 4640 1670 4275 2214 3846 2214 
C 3411 2214 2970 1708 2970 928 
C 2970 147 3405 -359 3846 -359 
C 4275 -359 4640 179 4640 928 
z
M 3853 -256 
C 3686 -256 3270 -103 3270 928 
C 3270 1964 3686 2112 3853 2112 
C 4205 2112 4525 1606 4525 928 
C 4525 249 4205 -256 3853 -256 
z
M 4083 4572 
C 4128 4644 4134 4651 4134 4684 
C 4134 4761 4077 4800 4026 4800 
C 3962 4800 3936 4755 3891 4703 
C 3520 4155 3008 4096 2746 4096 
C 2106 4096 1715 4479 1594 4598 
C 1510 4677 1389 4800 1171 4800 
C 736 4800 294 4281 294 3496 
C 294 2718 730 2214 1171 2214 
C 1600 2214 1965 2750 1965 3496 
C 1965 3936 1830 4241 1811 4281 
C 2202 4025 2586 3993 2752 3993 
C 3162 3993 3456 4148 3616 4261 
L 3622 4254 
L 858 -122 
C 800 -212 800 -224 800 -244 
C 800 -314 858 -359 915 -359 
C 973 -359 992 -327 1037 -256 
L 4083 4572 
z
M 1178 2316 
C 1011 2316 595 2469 595 3496 
C 595 4545 1011 4697 1178 4697 
C 1530 4697 1850 4175 1850 3496 
C 1850 2820 1530 2316 1178 2316 
z
" transform="scale(0.015625)"/>
       </defs>
       <use xlink:href="#CMR17-30" transform="scale(0.996264)"/>
       <use xlink:href="#CMR17-25" transform="translate(45.690477 0)scale(0.996264)"/>
      </g>
     </g>
    </g>
    <g id="ytick_2">
     <g id="line2d_8">
      <g>
       <use xlink:href="#md927d122b0" x="62.657648" y="181.401124" style="fill: #262626; stroke: #262626; stroke-width: 0.8"/>
      </g>
     </g>
     <g id="text_7">
      <!-- $20\%$ -->
      <g style="fill: #262626" transform="translate(33.066273 185.206297)scale(0.11 -0.11)">
       <use xlink:href="#CMR17-32" transform="scale(0.996264)"/>
       <use xlink:href="#CMR17-30" transform="translate(45.690477 0)scale(0.996264)"/>
       <use xlink:href="#CMR17-25" transform="translate(91.380954 0)scale(0.996264)"/>
      </g>
     </g>
    </g>
    <g id="ytick_3">
     <g id="line2d_9">
      <g>
       <use xlink:href="#md927d122b0" x="62.657648" y="144.59263" style="fill: #262626; stroke: #262626; stroke-width: 0.8"/>
      </g>
     </g>
     <g id="text_8">
      <!-- $40\%$ -->
      <g style="fill: #262626" transform="translate(33.066273 148.397804)scale(0.11 -0.11)">
       <use xlink:href="#CMR17-34" transform="scale(0.996264)"/>
       <use xlink:href="#CMR17-30" transform="translate(45.690477 0)scale(0.996264)"/>
       <use xlink:href="#CMR17-25" transform="translate(91.380954 0)scale(0.996264)"/>
      </g>
     </g>
    </g>
    <g id="ytick_4">
     <g id="line2d_10">
      <g>
       <use xlink:href="#md927d122b0" x="62.657648" y="107.784137" style="fill: #262626; stroke: #262626; stroke-width: 0.8"/>
      </g>
     </g>
     <g id="text_9">
      <!-- $60\%$ -->
      <g style="fill: #262626" transform="translate(33.066273 111.58931)scale(0.11 -0.11)">
       <use xlink:href="#CMR17-36" transform="scale(0.996264)"/>
       <use xlink:href="#CMR17-30" transform="translate(45.690477 0)scale(0.996264)"/>
       <use xlink:href="#CMR17-25" transform="translate(91.380954 0)scale(0.996264)"/>
      </g>
     </g>
    </g>
    <g id="ytick_5">
     <g id="line2d_11">
      <g>
       <use xlink:href="#md927d122b0" x="62.657648" y="70.975644" style="fill: #262626; stroke: #262626; stroke-width: 0.8"/>
      </g>
     </g>
     <g id="text_10">
      <!-- $80\%$ -->
      <g style="fill: #262626" transform="translate(33.066273 74.780817)scale(0.11 -0.11)">
       <use xlink:href="#CMR17-38" transform="scale(0.996264)"/>
       <use xlink:href="#CMR17-30" transform="translate(45.690477 0)scale(0.996264)"/>
       <use xlink:href="#CMR17-25" transform="translate(91.380954 0)scale(0.996264)"/>
      </g>
     </g>
    </g>
    <g id="ytick_6">
     <g id="line2d_12">
      <g>
       <use xlink:href="#md927d122b0" x="62.657648" y="34.16715" style="fill: #262626; stroke: #262626; stroke-width: 0.8"/>
      </g>
     </g>
     <g id="text_11">
      <!-- $100\%$ -->
      <g style="fill: #262626" transform="translate(27.586806 37.972324)scale(0.11 -0.11)">
       <defs>
        <path id="CMR17-31" d="M 1702 4083 
C 1702 4217 1696 4224 1606 4224 
C 1357 3927 979 3833 621 3820 
C 602 3820 570 3820 563 3808 
C 557 3795 557 3782 557 3648 
C 755 3648 1088 3686 1344 3839 
L 1344 467 
C 1344 243 1331 166 781 166 
L 589 166 
L 589 0 
C 896 6 1216 12 1523 12 
C 1830 12 2150 6 2458 0 
L 2458 166 
L 2266 166 
C 1715 166 1702 236 1702 467 
L 1702 4083 
z
" transform="scale(0.015625)"/>
       </defs>
       <use xlink:href="#CMR17-31" transform="scale(0.996264)"/>
       <use xlink:href="#CMR17-30" transform="translate(45.690477 0)scale(0.996264)"/>
       <use xlink:href="#CMR17-30" transform="translate(91.380954 0)scale(0.996264)"/>
       <use xlink:href="#CMR17-25" transform="translate(137.071431 0)scale(0.996264)"/>
      </g>
     </g>
    </g>
    <g id="text_12">
     <!-- \textbf{Customer Coverage} -->
     <g style="fill: #262626" transform="translate(21.262195 177.09843)rotate(-90)scale(0.12 -0.12)">
      <defs>
       <path id="CMSSBX10-43" d="M 4096 917 
C 4096 969 4051 995 4026 995 
C 3872 995 3686 576 2784 576 
C 1658 576 1338 1272 1338 2239 
C 1338 3200 1683 3897 2733 3897 
C 3302 3897 3603 3671 3776 3529 
C 3814 3497 3834 3471 3878 3471 
C 3904 3471 3936 3503 3942 3529 
L 4070 4243 
C 4077 4268 4070 4294 4019 4313 
C 3642 4454 3251 4544 2752 4544 
C 1190 4544 390 3781 390 2246 
C 390 666 1203 -64 2758 -64 
C 3302 -64 3642 12 4109 300 
C 4160 332 4147 377 4147 377 
L 4096 917 
z
" transform="scale(0.015625)"/>
       <path id="CMSSBX10-75" d="M 3200 2636 
C 3200 2841 3155 2944 2893 2944 
L 2637 2944 
C 2394 2944 2330 2860 2330 2636 
L 2330 1115 
C 2330 692 2106 326 1651 326 
C 1293 326 1254 416 1254 756 
L 1254 2636 
C 1254 2841 1210 2944 947 2944 
L 691 2944 
C 461 2944 384 2873 384 2636 
L 384 814 
C 384 128 755 -64 1421 -64 
C 1594 -64 2048 -64 2349 480 
L 2349 313 
C 2349 108 2394 6 2656 6 
L 2893 6 
C 3136 6 3200 89 3200 313 
L 3200 2636 
z
" transform="scale(0.015625)"/>
       <path id="CMSSBX10-73" d="M 2534 914 
C 2534 1277 2342 1503 2227 1607 
C 1971 1840 1747 1879 1478 1931 
C 1126 1995 870 2047 870 2300 
C 870 2565 1082 2617 1331 2617 
C 1760 2617 1990 2455 2157 2313 
C 2221 2248 2234 2248 2259 2248 
C 2323 2248 2336 2306 2342 2332 
C 2355 2384 2419 2745 2419 2777 
C 2419 2879 2080 2969 2010 2995 
C 1754 3065 1549 3072 1382 3072 
C 1094 3072 237 3072 237 2151 
C 237 1833 378 1639 550 1484 
C 774 1277 1024 1231 1389 1160 
C 1574 1128 1901 1069 1901 784 
C 1901 480 1651 435 1402 435 
C 1120 435 762 519 461 882 
C 429 914 410 933 371 933 
C 307 933 294 875 288 836 
C 275 746 198 377 198 313 
C 198 198 672 51 678 44 
C 1030 -64 1293 -64 1402 -64 
C 1728 -64 2534 -39 2534 914 
z
" transform="scale(0.015625)"/>
       <path id="CMSSBX10-74" d="M 1395 2483 
L 1965 2483 
C 2042 2483 2272 2483 2272 2713 
C 2272 2944 2042 2944 1965 2944 
L 1395 2944 
L 1395 3470 
C 1395 3673 1350 3776 1088 3776 
L 890 3776 
C 659 3776 582 3705 582 3470 
L 582 2944 
L 435 2944 
C 365 2944 128 2944 128 2713 
C 128 2483 358 2483 435 2483 
L 563 2483 
L 563 858 
C 563 211 794 -64 1235 -64 
C 1293 -64 1574 -64 1907 38 
C 2016 70 2387 185 2387 307 
C 2387 326 2374 371 2336 505 
C 2304 634 2291 672 2234 672 
C 2202 672 2195 666 2157 627 
C 2086 576 1914 435 1645 435 
C 1491 435 1395 544 1395 968 
L 1395 2483 
z
" transform="scale(0.015625)"/>
       <path id="CMSSBX10-6f" d="M 3315 1458 
C 3315 2520 2803 3072 1760 3072 
C 691 3072 198 2500 198 1458 
C 198 403 749 -64 1754 -64 
C 2758 -64 3315 396 3315 1458 
z
M 1760 435 
C 1069 435 1069 1018 1069 1536 
C 1069 2034 1069 2611 1754 2611 
C 2445 2611 2445 2041 2445 1536 
C 2445 1024 2445 435 1760 435 
z
" transform="scale(0.015625)"/>
       <path id="CMSSBX10-6d" d="M 5158 2059 
C 5158 2713 4877 2976 4224 2976 
C 3770 2976 3418 2764 3187 2344 
C 3085 2956 2541 2976 2272 2976 
C 2150 2976 1882 2976 1594 2764 
C 1395 2617 1267 2413 1222 2318 
L 1216 2318 
L 1216 2636 
C 1216 2841 1171 2944 909 2944 
L 691 2944 
C 461 2944 384 2873 384 2636 
L 384 305 
C 384 76 454 0 691 0 
L 947 0 
C 1190 0 1254 83 1254 305 
L 1254 1704 
C 1254 2274 1645 2515 1958 2515 
C 2266 2515 2336 2382 2336 2046 
L 2336 305 
C 2336 76 2406 0 2643 0 
L 2899 0 
C 3142 0 3206 83 3206 305 
L 3206 1704 
C 3206 2274 3597 2515 3910 2515 
C 4218 2515 4288 2382 4288 2046 
L 4288 305 
C 4288 76 4358 0 4595 0 
L 4851 0 
C 5094 0 5158 83 5158 305 
L 5158 2059 
z
" transform="scale(0.015625)"/>
       <path id="CMSSBX10-65" d="M 2758 1388 
C 2906 1388 3066 1395 3066 1683 
C 3066 2520 2682 3072 1728 3072 
C 704 3072 198 2494 198 1510 
C 198 448 806 -64 1811 -64 
C 2054 -64 2419 -32 2842 179 
C 2982 249 3027 268 3027 345 
C 3027 390 3008 578 3002 630 
C 2976 831 2970 837 2912 837 
C 2886 837 2874 837 2803 772 
C 2426 442 2042 396 1837 396 
C 1114 396 1037 973 1018 1388 
L 2758 1388 
z
M 1024 1728 
C 1043 2124 1171 2611 1728 2611 
C 2240 2611 2336 2234 2355 1728 
L 1024 1728 
z
" transform="scale(0.015625)"/>
       <path id="CMSSBX10-72" d="M 1242 1456 
C 1242 2057 1747 2304 2150 2329 
C 2266 2335 2278 2335 2278 2502 
L 2278 2803 
C 2278 2931 2278 2976 2163 2976 
C 1984 2976 1517 2911 1216 2222 
L 1210 2222 
L 1210 2636 
C 1210 2841 1165 2944 902 2944 
L 698 2944 
C 467 2944 390 2873 390 2636 
L 390 305 
C 390 76 461 0 698 0 
L 934 0 
C 1178 0 1242 83 1242 305 
L 1242 1456 
z
" transform="scale(0.015625)"/>
       <path id="CMSSBX10-76" d="M 2995 2642 
C 3027 2732 3027 2745 3027 2764 
C 3027 2944 2867 2944 2771 2944 
L 2637 2944 
C 2368 2944 2298 2847 2240 2668 
L 1606 726 
L 973 2668 
C 928 2803 883 2944 576 2944 
L 422 2944 
C 326 2944 166 2944 166 2764 
C 166 2745 166 2732 198 2642 
L 960 269 
C 1050 0 1248 0 1363 0 
L 1830 0 
C 1946 0 2144 0 2234 269 
L 2995 2642 
z
" transform="scale(0.015625)"/>
       <path id="CMSSBX10-61" d="M 2970 2047 
C 2970 3065 1997 3072 1677 3072 
C 1376 3072 1056 3046 627 2867 
C 493 2809 461 2790 461 2719 
C 461 2675 499 2300 506 2248 
C 512 2209 544 2177 589 2177 
C 621 2177 640 2196 659 2215 
C 934 2507 1254 2649 1651 2649 
C 1997 2649 2099 2436 2099 2054 
L 2099 1827 
C 1875 1827 198 1814 198 862 
C 198 409 557 -64 1120 -64 
C 1338 -64 1818 0 2118 442 
L 2118 313 
C 2118 108 2163 6 2426 6 
L 2662 6 
C 2906 6 2970 89 2970 313 
L 2970 2047 
z
M 2099 998 
C 2099 396 1491 396 1472 396 
C 1203 396 1030 629 1030 875 
C 1030 1510 1920 1555 2099 1562 
L 2099 998 
z
" transform="scale(0.015625)"/>
       <path id="CMSSBX10-67" d="M 1280 569 
C 1050 569 960 569 870 651 
C 845 678 736 780 736 953 
C 736 998 742 1011 749 1049 
C 1050 883 1427 883 1562 883 
C 1830 883 2848 883 2848 1942 
C 2848 2315 2707 2540 2650 2611 
C 2758 2611 2982 2611 3245 2540 
C 3270 2527 3315 2514 3334 2514 
C 3386 2514 3418 2553 3418 2598 
C 3418 2623 3386 2777 3373 2841 
C 3347 2995 3347 3008 3232 3008 
C 3034 3008 2714 2931 2470 2783 
C 2170 2982 1837 3008 1562 3008 
C 1293 3008 275 3008 275 1948 
C 275 1691 346 1369 589 1158 
C 416 921 416 658 416 624 
C 416 499 454 288 589 115 
C 493 76 160 -39 160 -451 
C 160 -651 256 -986 659 -1172 
C 1024 -1338 1453 -1344 1754 -1344 
C 2131 -1344 3354 -1344 3354 -432 
C 3354 569 2451 569 1587 569 
L 1280 569 
z
M 1562 1344 
C 1114 1344 1094 1588 1094 1942 
C 1094 2296 1114 2547 1562 2547 
C 2010 2547 2029 2302 2029 1948 
C 2029 1594 2010 1344 1562 1344 
z
M 1907 -128 
C 2426 -128 2694 -219 2694 -451 
C 2694 -884 1965 -884 1760 -884 
C 1504 -884 819 -884 819 -432 
C 819 -128 1018 -128 1165 -128 
L 1907 -128 
z
" transform="scale(0.015625)"/>
      </defs>
      <use xlink:href="#CMSSBX10-43" transform="scale(0.996264)"/>
      <use xlink:href="#CMSSBX10-75" transform="translate(70.015609 0)scale(0.996264)"/>
      <use xlink:href="#CMSSBX10-73" transform="translate(125.917397 0)scale(0.996264)"/>
      <use xlink:href="#CMSSBX10-74" transform="translate(167.926763 0)scale(0.996264)"/>
      <use xlink:href="#CMSSBX10-6f" transform="translate(208.192666 0)scale(0.996264)"/>
      <use xlink:href="#CMSSBX10-6d" transform="translate(262.987491 0)scale(0.996264)"/>
      <use xlink:href="#CMSSBX10-65" transform="translate(349.330848 0)scale(0.996264)"/>
      <use xlink:href="#CMSSBX10-72" transform="translate(400.251301 0)scale(0.996264)"/>
      <use xlink:href="#CMSSBX10-43" transform="translate(473.864594 0)scale(0.996264)"/>
      <use xlink:href="#CMSSBX10-6f" transform="translate(543.880203 0)scale(0.996264)"/>
      <use xlink:href="#CMSSBX10-76" transform="translate(598.675028 0)scale(0.996264)"/>
      <use xlink:href="#CMSSBX10-65" transform="translate(648.488502 0)scale(0.996264)"/>
      <use xlink:href="#CMSSBX10-72" transform="translate(699.408955 0)scale(0.996264)"/>
      <use xlink:href="#CMSSBX10-61" transform="translate(736.492365 0)scale(0.996264)"/>
      <use xlink:href="#CMSSBX10-67" transform="translate(788.79656 0)scale(0.996264)"/>
      <use xlink:href="#CMSSBX10-65" transform="translate(843.591385 0)scale(0.996264)"/>
     </g>
    </g>
   </g>
   <g id="line2d_13">
    <path d="M 67.627765 218.209617 
L 78.672469 134.470295 
L 89.717173 74.104366 
L 100.761877 50.915015 
L 111.806581 40.976722 
L 122.851285 39.872467 
L 133.895989 34.90332 
L 144.940693 35.455448 
L 155.985397 35.087363 
L 167.030101 34.90332 
" clip-path="url(#p7fefd5e9aa)" style="fill: none; stroke: #1f77b4; stroke-width: 1.5; stroke-linecap: round"/>
   </g>
   <g id="line2d_14">
    <path d="M 67.627765 218.209617 
L 78.672469 122.139449 
L 89.717173 81.834149 
L 100.761877 68.399049 
L 111.806581 52.01927 
L 122.851285 47.602251 
L 133.895989 39.136297 
L 144.940693 40.792679 
L 155.985397 37.848 
L 167.030101 37.11183 
" clip-path="url(#p7fefd5e9aa)" style="fill: none; stroke: #ff7f0e; stroke-width: 1.5; stroke-linecap: round"/>
   </g>
   <g id="patch_3">
    <path d="M 62.657648 218.209617 
L 62.657648 28.645876 
" style="fill: none; stroke: #262626; stroke-width: 1.25; stroke-linejoin: miter; stroke-linecap: square"/>
   </g>
   <g id="patch_4">
    <path d="M 172.000217 218.209617 
L 172.000217 28.645876 
" style="fill: none; stroke: #262626; stroke-width: 1.25; stroke-linejoin: miter; stroke-linecap: square"/>
   </g>
   <g id="patch_5">
    <path d="M 62.657648 218.209617 
L 172.000217 218.209617 
" style="fill: none; stroke: #262626; stroke-width: 1.25; stroke-linejoin: miter; stroke-linecap: square"/>
   </g>
   <g id="patch_6">
    <path d="M 62.657648 28.645876 
L 172.000217 28.645876 
" style="fill: none; stroke: #262626; stroke-width: 1.25; stroke-linejoin: miter; stroke-linecap: square"/>
   </g>
   <g id="patch_7">
    <path d="M 144.940693 65.951985 
Q 144.940693 55.659925 144.940693 46.4859 
" style="fill: none; stroke: #000000; stroke-linecap: round"/>
    <path d="M 142.940693 50.4859 
L 144.940693 46.4859 
L 146.940693 50.4859 
" style="fill: none; stroke: #000000; stroke-linecap: round"/>
   </g>
   <g id="text_13">
    <g id="patch_8">
     <path d="M 124.793968 83.306452 
L 165.087417 83.306452 
Q 168.087417 83.306452 168.087417 80.306452 
L 168.087417 71.450775 
Q 168.087417 68.450775 165.087417 68.450775 
L 124.793968 68.450775 
Q 121.793968 68.450775 121.793968 71.450775 
L 121.793968 80.306452 
Q 121.793968 83.306452 124.793968 83.306452 
z
" style="fill: #e6e6e6; stroke: #000000; stroke-linejoin: miter"/>
    </g>
    <!-- 95\% Cov. -->
    <g style="fill: #262626" transform="translate(124.793968 78.369274)scale(0.1 -0.1)">
     <defs>
      <path id="CMSS17-39" d="M 435 172 
C 614 19 845 -128 1235 -128 
C 2010 -128 2752 738 2752 2136 
C 2752 3987 1952 4288 1523 4288 
C 1094 4288 819 4095 582 3789 
C 301 3438 250 3125 250 2761 
C 250 2327 326 2059 506 1753 
C 749 1356 973 1273 1222 1273 
C 1600 1273 1978 1459 2234 1778 
C 2189 908 1798 268 1235 268 
C 1005 268 819 340 634 516 
L 435 172 
z
M 2214 2774 
C 2221 2729 2221 2646 2221 2621 
C 2221 2085 1914 1664 1466 1664 
C 1171 1664 1018 1817 902 2015 
C 762 2263 755 2506 755 2761 
C 755 3010 755 3284 934 3559 
C 1069 3757 1235 3897 1523 3897 
C 2112 3897 2208 3036 2214 2774 
z
" transform="scale(0.015625)"/>
      <path id="CMSS17-35" d="M 934 3814 
L 2502 3814 
L 2502 4224 
L 467 4224 
L 467 1830 
L 896 1830 
C 1011 2103 1248 2304 1555 2304 
C 1843 2304 2163 2044 2163 1299 
C 2163 502 1709 268 1376 268 
C 966 268 589 521 422 871 
L 218 508 
C 512 51 992 -128 1376 -128 
C 2118 -128 2701 508 2701 1286 
C 2701 2083 2182 2694 1562 2694 
C 1338 2694 1120 2617 934 2464 
L 934 3814 
z
" transform="scale(0.015625)"/>
      <path id="CMSS17-25" d="M 3923 4582 
C 3962 4646 3962 4678 3962 4684 
C 3962 4755 3904 4800 3853 4800 
C 3782 4800 3750 4748 3718 4684 
L 1101 -109 
C 1088 -135 1062 -173 1062 -212 
C 1062 -282 1120 -327 1178 -327 
C 1235 -327 1248 -301 1299 -212 
L 3923 4582 
z
M 4678 953 
C 4678 1690 4282 2233 3846 2233 
C 3418 2233 3008 1703 3008 953 
C 3008 203 3418 -327 3846 -327 
C 4288 -327 4678 216 4678 953 
z
M 3846 64 
C 3712 64 3494 184 3494 953 
C 3494 1716 3712 1843 3846 1843 
C 4083 1843 4211 1379 4211 953 
C 4211 527 4083 64 3846 64 
z
M 2003 3516 
C 2003 4256 1606 4800 1171 4800 
C 742 4800 333 4269 333 3516 
C 333 2764 742 2233 1171 2233 
C 1613 2233 2003 2777 2003 3516 
z
M 1171 2624 
C 1037 2624 819 2745 819 3516 
C 819 4282 1037 4409 1171 4409 
C 1408 4409 1536 3944 1536 3516 
C 1536 3089 1408 2624 1171 2624 
z
" transform="scale(0.015625)"/>
      <path id="CMSS17-43" d="M 3501 705 
C 3072 416 2874 332 2355 332 
C 1459 332 934 1304 934 2191 
C 934 3137 1472 4070 2381 4070 
C 2790 4070 3059 3954 3386 3748 
L 3475 4255 
C 3168 4409 2778 4480 2387 4480 
C 1158 4480 397 3343 397 2191 
C 397 924 1299 -77 2323 -77 
C 2874 -77 3066 -32 3539 268 
L 3501 705 
z
" transform="scale(0.015625)"/>
      <path id="CMSS17-6f" d="M 2829 1356 
C 2829 2175 2221 2816 1504 2816 
C 768 2816 173 2156 173 1356 
C 173 544 787 -64 1498 -64 
C 2227 -64 2829 563 2829 1356 
z
M 1504 339 
C 1050 339 659 710 659 1407 
C 659 2150 1114 2425 1498 2425 
C 1914 2425 2342 2124 2342 1407 
C 2342 684 1926 339 1504 339 
z
" transform="scale(0.015625)"/>
      <path id="CMSS17-76" d="M 2675 2752 
L 2176 2752 
L 1747 1555 
C 1613 1164 1421 627 1389 352 
L 1382 352 
C 1370 467 1318 633 1286 748 
C 1248 889 1197 1056 1158 1171 
L 595 2752 
L 83 2752 
L 1094 0 
L 1664 0 
L 2675 2752 
z
" transform="scale(0.015625)"/>
      <path id="CMSS17-2e" d="M 1088 512 
L 576 512 
L 576 0 
L 1088 0 
L 1088 512 
z
" transform="scale(0.015625)"/>
     </defs>
     <use xlink:href="#CMSS17-39" transform="scale(0.996264)"/>
     <use xlink:href="#CMSS17-35" transform="translate(46.843624 0)scale(0.996264)"/>
     <use xlink:href="#CMSS17-25" transform="translate(93.687247 0)scale(0.996264)"/>
     <use xlink:href="#CMSS17-43" transform="translate(202.989096 0)scale(0.996264)"/>
     <use xlink:href="#CMSS17-6f" transform="translate(262.844868 0)scale(0.996264)"/>
     <use xlink:href="#CMSS17-76" transform="translate(309.688491 0)scale(0.996264)"/>
     <use xlink:href="#CMSS17-2e" transform="translate(352.688633 0)scale(0.996264)"/>
    </g>
   </g>
   <g id="text_14">
    <!-- \textbf{Scenario A} -->
    <g style="fill: #262626" transform="translate(82.84695 22.645876)scale(0.14 -0.14)">
     <defs>
      <path id="CMSSBX10-53" d="M 1728 2843 
C 1587 2875 1190 3023 1190 3389 
C 1190 3935 1734 3948 1952 3948 
C 2310 3948 2630 3865 2944 3556 
C 3046 3460 3053 3453 3078 3453 
C 3117 3453 3149 3473 3168 3569 
L 3264 4127 
C 3277 4179 3277 4191 3277 4211 
C 3277 4262 3270 4268 3110 4351 
C 2656 4575 2278 4608 1952 4608 
C 1382 4608 390 4473 390 3274 
C 390 2817 627 2522 749 2394 
C 1075 2059 1376 1995 1875 1880 
C 2234 1796 2374 1764 2515 1635 
C 2579 1571 2714 1436 2714 1192 
C 2714 588 2163 569 1952 569 
C 1414 569 947 788 627 1077 
C 550 1154 538 1154 512 1154 
C 474 1154 442 1134 422 1038 
L 326 480 
C 314 428 314 416 314 396 
C 314 262 979 32 1011 19 
C 1440 -116 1786 -128 1952 -128 
C 2912 -128 3514 300 3514 1295 
C 3514 2015 2982 2554 2342 2702 
L 1728 2843 
z
" transform="scale(0.015625)"/>
      <path id="CMSSBX10-63" d="M 2925 326 
C 2925 396 2899 694 2886 778 
C 2886 797 2874 862 2810 862 
C 2784 862 2771 862 2707 797 
C 2598 700 2298 435 1773 435 
C 1107 435 1107 1089 1107 1504 
C 1107 2028 1139 2572 1792 2572 
C 2208 2572 2381 2469 2611 2274 
C 2688 2203 2701 2203 2726 2203 
C 2790 2203 2803 2261 2810 2287 
C 2822 2339 2886 2700 2886 2732 
C 2886 2790 2842 2815 2733 2867 
C 2426 3007 2234 3072 1786 3072 
C 832 3072 237 2623 237 1491 
C 237 416 787 -64 1754 -64 
C 1926 -64 2310 -58 2739 160 
C 2918 256 2925 262 2925 326 
z
" transform="scale(0.015625)"/>
      <path id="CMSSBX10-6e" d="M 3200 2085 
C 3200 2745 2918 3008 2266 3008 
C 1594 3008 1306 2521 1222 2348 
L 1216 2348 
L 1216 2668 
C 1216 2873 1171 2975 909 2975 
L 691 2975 
C 461 2975 384 2905 384 2668 
L 384 307 
C 384 76 454 0 691 0 
L 947 0 
C 1190 0 1254 83 1254 307 
L 1254 1725 
C 1254 2284 1626 2547 1958 2547 
C 2266 2547 2330 2399 2330 2072 
L 2330 307 
C 2330 102 2374 0 2637 0 
L 2893 0 
C 3136 0 3200 83 3200 307 
L 3200 2085 
z
" transform="scale(0.015625)"/>
      <path id="CMSSBX10-69" d="M 653 4480 
C 448 4480 346 4441 346 4185 
L 346 3891 
C 346 3686 410 3603 646 3603 
L 979 3603 
C 1286 3603 1286 3737 1286 4038 
C 1286 4345 1286 4480 979 4480 
L 653 4480 
z
M 1242 2635 
C 1242 2841 1197 2944 934 2944 
L 698 2944 
C 467 2944 390 2873 390 2635 
L 390 308 
C 390 76 461 0 698 0 
L 934 0 
C 1178 0 1242 83 1242 308 
L 1242 2635 
z
" transform="scale(0.015625)"/>
      <path id="CMSSBX10-41" d="M 3034 4142 
C 2938 4416 2752 4416 2624 4416 
L 2061 4416 
C 1933 4416 1747 4416 1651 4142 
L 301 299 
C 269 216 269 204 269 172 
C 269 0 429 0 518 0 
L 749 0 
C 864 0 1062 0 1152 255 
L 1402 960 
L 3174 960 
L 3392 350 
C 3469 128 3514 0 3821 0 
L 4166 0 
C 4256 0 4416 0 4416 172 
C 4416 204 4416 216 4384 299 
L 3034 4142 
z
M 2054 2858 
C 2150 3137 2234 3379 2285 3608 
L 2291 3608 
C 2323 3455 2323 3442 2374 3296 
L 2982 1510 
L 1594 1510 
L 2054 2858 
z
" transform="scale(0.015625)"/>
     </defs>
     <use xlink:href="#CMSSBX10-53" transform="scale(0.996264)"/>
     <use xlink:href="#CMSSBX10-63" transform="translate(60.883138 0)scale(0.996264)"/>
     <use xlink:href="#CMSSBX10-65" transform="translate(109.589649 0)scale(0.996264)"/>
     <use xlink:href="#CMSSBX10-6e" transform="translate(160.510102 0)scale(0.996264)"/>
     <use xlink:href="#CMSSBX10-61" transform="translate(216.41189 0)scale(0.996264)"/>
     <use xlink:href="#CMSSBX10-72" transform="translate(265.671928 0)scale(0.996264)"/>
     <use xlink:href="#CMSSBX10-69" transform="translate(302.755338 0)scale(0.996264)"/>
     <use xlink:href="#CMSSBX10-6f" transform="translate(328.215557 0)scale(0.996264)"/>
     <use xlink:href="#CMSSBX10-41" transform="translate(419.540265 0)scale(0.996264)"/>
    </g>
   </g>
  </g>
  <g id="axes_2">
   <g id="patch_9">
    <path d="M 191.846282 218.209617 
L 301.188851 218.209617 
L 301.188851 28.645876 
L 191.846282 28.645876 
z
" style="fill: #ffffff"/>
   </g>
   <g id="line2d_15">
    <path d="M 191.846282 61.77352 
L 444.337484 61.77352 
" clip-path="url(#pc209cc3308)" style="fill: none; stroke-dasharray: 4.07,1.76; stroke-dashoffset: 0; stroke: #808080; stroke-width: 1.1"/>
   </g>
   <g id="matplotlib.axis_3">
    <g id="xtick_6">
     <g id="line2d_16">
      <g>
       <use xlink:href="#m8b1fd43664" x="196.816398" y="218.209617" style="fill: #262626; stroke: #262626; stroke-width: 0.8"/>
      </g>
     </g>
     <g id="text_15">
      <!-- $\mathdefault{0}$ -->
      <g style="fill: #262626" transform="translate(194.076665 235.319964)scale(0.11 -0.11)">
       <use xlink:href="#CMR17-30" transform="scale(0.996264)"/>
      </g>
     </g>
    </g>
    <g id="xtick_7">
     <g id="line2d_17">
      <g>
       <use xlink:href="#m8b1fd43664" x="221.666982" y="218.209617" style="fill: #262626; stroke: #262626; stroke-width: 0.8"/>
      </g>
     </g>
     <g id="text_16">
      <!-- $\mathdefault{6}$ -->
      <g style="fill: #262626" transform="translate(218.927249 235.319964)scale(0.11 -0.11)">
       <use xlink:href="#CMR17-36" transform="scale(0.996264)"/>
      </g>
     </g>
    </g>
    <g id="xtick_8">
     <g id="line2d_18">
      <g>
       <use xlink:href="#m8b1fd43664" x="246.517566" y="218.209617" style="fill: #262626; stroke: #262626; stroke-width: 0.8"/>
      </g>
     </g>
     <g id="text_17">
      <!-- $\mathdefault{12}$ -->
      <g style="fill: #262626" transform="translate(241.038099 235.319964)scale(0.11 -0.11)">
       <use xlink:href="#CMR17-31" transform="scale(0.996264)"/>
       <use xlink:href="#CMR17-32" transform="translate(45.690477 0)scale(0.996264)"/>
      </g>
     </g>
    </g>
    <g id="xtick_9">
     <g id="line2d_19">
      <g>
       <use xlink:href="#m8b1fd43664" x="271.36815" y="218.209617" style="fill: #262626; stroke: #262626; stroke-width: 0.8"/>
      </g>
     </g>
     <g id="text_18">
      <!-- $\mathdefault{18}$ -->
      <g style="fill: #262626" transform="translate(265.888683 235.319964)scale(0.11 -0.11)">
       <use xlink:href="#CMR17-31" transform="scale(0.996264)"/>
       <use xlink:href="#CMR17-38" transform="translate(45.690477 0)scale(0.996264)"/>
      </g>
     </g>
    </g>
    <g id="xtick_10">
     <g id="line2d_20">
      <g>
       <use xlink:href="#m8b1fd43664" x="296.218734" y="218.209617" style="fill: #262626; stroke: #262626; stroke-width: 0.8"/>
      </g>
     </g>
     <g id="text_19">
      <!-- $\mathdefault{24}$ -->
      <g style="fill: #262626" transform="translate(290.739267 235.319964)scale(0.11 -0.11)">
       <use xlink:href="#CMR17-32" transform="scale(0.996264)"/>
       <use xlink:href="#CMR17-34" transform="translate(45.690477 0)scale(0.996264)"/>
      </g>
     </g>
    </g>
   </g>
   <g id="matplotlib.axis_4">
    <g id="ytick_7">
     <g id="line2d_21">
      <g>
       <use xlink:href="#md927d122b0" x="191.846282" y="218.209617" style="fill: #262626; stroke: #262626; stroke-width: 0.8"/>
      </g>
     </g>
    </g>
    <g id="ytick_8">
     <g id="line2d_22">
      <g>
       <use xlink:href="#md927d122b0" x="191.846282" y="181.401124" style="fill: #262626; stroke: #262626; stroke-width: 0.8"/>
      </g>
     </g>
    </g>
    <g id="ytick_9">
     <g id="line2d_23">
      <g>
       <use xlink:href="#md927d122b0" x="191.846282" y="144.59263" style="fill: #262626; stroke: #262626; stroke-width: 0.8"/>
      </g>
     </g>
    </g>
    <g id="ytick_10">
     <g id="line2d_24">
      <g>
       <use xlink:href="#md927d122b0" x="191.846282" y="107.784137" style="fill: #262626; stroke: #262626; stroke-width: 0.8"/>
      </g>
     </g>
    </g>
    <g id="ytick_11">
     <g id="line2d_25">
      <g>
       <use xlink:href="#md927d122b0" x="191.846282" y="70.975644" style="fill: #262626; stroke: #262626; stroke-width: 0.8"/>
      </g>
     </g>
    </g>
    <g id="ytick_12">
     <g id="line2d_26">
      <g>
       <use xlink:href="#md927d122b0" x="191.846282" y="34.16715" style="fill: #262626; stroke: #262626; stroke-width: 0.8"/>
      </g>
     </g>
    </g>
   </g>
   <g id="line2d_27">
    <path d="M 196.816398 218.209617 
L 200.958162 174.959637 
L 205.099926 138.703271 
L 209.24169 112.017114 
L 213.383454 90.85223 
L 217.525218 84.962871 
L 221.666982 71.343729 
L 225.808746 63.429903 
L 229.95051 58.644798 
L 234.092274 57.356501 
L 238.234038 55.700119 
L 242.375802 50.178845 
L 246.517566 45.393741 
L 250.65933 42.817146 
L 254.801094 41.712892 
L 258.942858 40.976722 
L 263.084622 40.976722 
L 267.226386 39.136297 
L 271.36815 38.032042 
L 275.509914 36.743745 
L 279.651678 36.743745 
L 283.793442 36.927787 
L 287.935206 36.743745 
L 292.07697 36.007575 
L 296.218734 35.087363 
" clip-path="url(#pc209cc3308)" style="fill: none; stroke: #1f77b4; stroke-width: 1.5; stroke-linecap: round"/>
   </g>
   <g id="line2d_28">
    <path d="M 196.816398 218.209617 
L 200.958162 170.910703 
L 205.099926 142.016036 
L 209.24169 124.347959 
L 213.383454 97.109674 
L 217.525218 96.373504 
L 221.666982 89.563933 
L 225.808746 82.938404 
L 229.95051 74.656493 
L 234.092274 67.478837 
L 238.234038 61.037351 
L 242.375802 54.779907 
L 246.517566 54.779907 
L 250.65933 52.387355 
L 254.801094 49.626718 
L 258.942858 48.706505 
L 263.084622 46.129911 
L 267.226386 43.553316 
L 271.36815 41.712892 
L 275.509914 40.424594 
L 279.651678 40.424594 
L 283.793442 40.424594 
L 287.935206 40.424594 
L 292.07697 40.240552 
L 296.218734 40.240552 
" clip-path="url(#pc209cc3308)" style="fill: none; stroke: #ff7f0e; stroke-width: 1.5; stroke-linecap: round"/>
   </g>
   <g id="patch_10">
    <path d="M 191.846282 218.209617 
L 191.846282 28.645876 
" style="fill: none; stroke: #262626; stroke-width: 1.25; stroke-linejoin: miter; stroke-linecap: square"/>
   </g>
   <g id="patch_11">
    <path d="M 301.188851 218.209617 
L 301.188851 28.645876 
" style="fill: none; stroke: #262626; stroke-width: 1.25; stroke-linejoin: miter; stroke-linecap: square"/>
   </g>
   <g id="patch_12">
    <path d="M 191.846282 218.209617 
L 301.188851 218.209617 
" style="fill: none; stroke: #262626; stroke-width: 1.25; stroke-linejoin: miter; stroke-linecap: square"/>
   </g>
   <g id="patch_13">
    <path d="M 191.846282 28.645876 
L 301.188851 28.645876 
" style="fill: none; stroke: #262626; stroke-width: 1.25; stroke-linejoin: miter; stroke-linecap: square"/>
   </g>
   <g id="patch_14">
    <path d="M 271.36815 84.356232 
Q 271.36815 74.064172 271.36815 64.890146 
" style="fill: none; stroke: #000000; stroke-linecap: round"/>
    <path d="M 269.36815 68.890146 
L 271.36815 64.890146 
L 273.36815 68.890146 
" style="fill: none; stroke: #000000; stroke-linecap: round"/>
   </g>
   <g id="text_20">
    <g id="patch_15">
     <path d="M 251.221426 101.710699 
L 291.514875 101.710699 
Q 294.514875 101.710699 294.514875 98.710699 
L 294.514875 89.855022 
Q 294.514875 86.855022 291.514875 86.855022 
L 251.221426 86.855022 
Q 248.221426 86.855022 248.221426 89.855022 
L 248.221426 98.710699 
Q 248.221426 101.710699 251.221426 101.710699 
z
" style="fill: #e6e6e6; stroke: #000000; stroke-linejoin: miter"/>
    </g>
    <!-- 85\% Cov. -->
    <g style="fill: #262626" transform="translate(251.221426 96.77352)scale(0.1 -0.1)">
     <defs>
      <path id="CMSS17-38" d="M 1933 2246 
C 2419 2406 2669 2793 2669 3174 
C 2669 3774 2157 4288 1504 4288 
C 826 4288 333 3755 333 3174 
C 333 2799 576 2412 1069 2246 
C 442 2003 250 1516 250 1152 
C 250 448 819 -128 1498 -128 
C 2202 -128 2752 460 2752 1152 
C 2752 1574 2502 2022 1933 2246 
z
M 1504 2438 
C 1075 2438 787 2728 787 3167 
C 787 3613 1075 3897 1504 3897 
C 1901 3897 2214 3639 2214 3167 
C 2214 2703 1907 2438 1504 2438 
z
M 1504 268 
C 1139 268 749 518 749 1158 
C 749 1817 1184 2048 1498 2048 
C 1843 2048 2253 1804 2253 1158 
C 2253 492 1830 268 1504 268 
z
" transform="scale(0.015625)"/>
     </defs>
     <use xlink:href="#CMSS17-38" transform="scale(0.996264)"/>
     <use xlink:href="#CMSS17-35" transform="translate(46.843624 0)scale(0.996264)"/>
     <use xlink:href="#CMSS17-25" transform="translate(93.687247 0)scale(0.996264)"/>
     <use xlink:href="#CMSS17-43" transform="translate(202.989096 0)scale(0.996264)"/>
     <use xlink:href="#CMSS17-6f" transform="translate(262.844868 0)scale(0.996264)"/>
     <use xlink:href="#CMSS17-76" transform="translate(309.688491 0)scale(0.996264)"/>
     <use xlink:href="#CMSS17-2e" transform="translate(352.688633 0)scale(0.996264)"/>
    </g>
   </g>
   <g id="text_21">
    <!-- \textbf{Scenario B} -->
    <g style="fill: #262626" transform="translate(212.035584 22.645876)scale(0.14 -0.14)">
     <defs>
      <path id="CMSSBX10-42" d="M 890 4416 
C 659 4416 582 4345 582 4108 
L 582 307 
C 582 76 653 0 890 0 
L 2643 0 
C 3117 0 4294 83 4294 1227 
C 4294 2112 3405 2252 3168 2291 
C 3757 2425 4096 2759 4096 3261 
C 4096 4416 2733 4416 2464 4416 
L 890 4416 
z
M 1485 2508 
L 1485 3865 
L 2234 3865 
C 2483 3865 3226 3846 3226 3241 
C 3226 2508 2387 2508 2227 2508 
L 1485 2508 
z
M 1485 550 
L 1485 2048 
L 2291 2048 
C 2515 2048 3405 2048 3405 1239 
C 3405 594 2720 550 2413 550 
L 1485 550 
z
" transform="scale(0.015625)"/>
     </defs>
     <use xlink:href="#CMSSBX10-53" transform="scale(0.996264)"/>
     <use xlink:href="#CMSSBX10-63" transform="translate(60.883138 0)scale(0.996264)"/>
     <use xlink:href="#CMSSBX10-65" transform="translate(109.589649 0)scale(0.996264)"/>
     <use xlink:href="#CMSSBX10-6e" transform="translate(160.510102 0)scale(0.996264)"/>
     <use xlink:href="#CMSSBX10-61" transform="translate(216.41189 0)scale(0.996264)"/>
     <use xlink:href="#CMSSBX10-72" transform="translate(265.671928 0)scale(0.996264)"/>
     <use xlink:href="#CMSSBX10-69" transform="translate(302.755338 0)scale(0.996264)"/>
     <use xlink:href="#CMSSBX10-6f" transform="translate(328.215557 0)scale(0.996264)"/>
     <use xlink:href="#CMSSBX10-42" transform="translate(419.540265 0)scale(0.996264)"/>
    </g>
   </g>
  </g>
  <g id="axes_3">
   <g id="patch_16">
    <path d="M 321.034915 218.209617 
L 430.377484 218.209617 
L 430.377484 28.645876 
L 321.034915 28.645876 
z
" style="fill: #ffffff"/>
   </g>
   <g id="line2d_29">
    <path d="M 321.034915 80.177767 
L 444.337484 80.177767 
" clip-path="url(#p51ffaf2b57)" style="fill: none; stroke-dasharray: 4.07,1.76; stroke-dashoffset: 0; stroke: #808080; stroke-width: 1.1"/>
   </g>
   <g id="matplotlib.axis_5">
    <g id="xtick_11">
     <g id="line2d_30">
      <g>
       <use xlink:href="#m8b1fd43664" x="326.005032" y="218.209617" style="fill: #262626; stroke: #262626; stroke-width: 0.8"/>
      </g>
     </g>
     <g id="text_22">
      <!-- $\mathdefault{0}$ -->
      <g style="fill: #262626" transform="translate(323.265298 235.319964)scale(0.11 -0.11)">
       <use xlink:href="#CMR17-30" transform="scale(0.996264)"/>
      </g>
     </g>
    </g>
    <g id="xtick_12">
     <g id="line2d_31">
      <g>
       <use xlink:href="#m8b1fd43664" x="349.393817" y="218.209617" style="fill: #262626; stroke: #262626; stroke-width: 0.8"/>
      </g>
     </g>
     <g id="text_23">
      <!-- $\mathdefault{12}$ -->
      <g style="fill: #262626" transform="translate(343.91435 235.319964)scale(0.11 -0.11)">
       <use xlink:href="#CMR17-31" transform="scale(0.996264)"/>
       <use xlink:href="#CMR17-32" transform="translate(45.690477 0)scale(0.996264)"/>
      </g>
     </g>
    </g>
    <g id="xtick_13">
     <g id="line2d_32">
      <g>
       <use xlink:href="#m8b1fd43664" x="372.782602" y="218.209617" style="fill: #262626; stroke: #262626; stroke-width: 0.8"/>
      </g>
     </g>
     <g id="text_24">
      <!-- $\mathdefault{24}$ -->
      <g style="fill: #262626" transform="translate(367.303134 235.319964)scale(0.11 -0.11)">
       <use xlink:href="#CMR17-32" transform="scale(0.996264)"/>
       <use xlink:href="#CMR17-34" transform="translate(45.690477 0)scale(0.996264)"/>
      </g>
     </g>
    </g>
    <g id="xtick_14">
     <g id="line2d_33">
      <g>
       <use xlink:href="#m8b1fd43664" x="396.171387" y="218.209617" style="fill: #262626; stroke: #262626; stroke-width: 0.8"/>
      </g>
     </g>
     <g id="text_25">
      <!-- $\mathdefault{36}$ -->
      <g style="fill: #262626" transform="translate(390.691919 235.319964)scale(0.11 -0.11)">
       <defs>
        <path id="CMR17-33" d="M 1414 2176 
C 1984 2176 2234 1673 2234 1094 
C 2234 322 1824 25 1453 25 
C 1114 25 563 193 390 691 
C 422 678 454 678 486 678 
C 640 678 755 780 755 947 
C 755 1132 614 1216 486 1216 
C 378 1216 211 1164 211 927 
C 211 335 787 -128 1466 -128 
C 2176 -128 2720 432 2720 1087 
C 2720 1718 2208 2176 1600 2246 
C 2086 2347 2554 2776 2554 3353 
C 2554 3856 2048 4224 1472 4224 
C 890 4224 378 3862 378 3347 
C 378 3123 544 3084 627 3084 
C 762 3084 877 3167 877 3334 
C 877 3500 762 3584 627 3584 
C 602 3584 570 3584 544 3571 
C 730 3999 1235 4076 1459 4076 
C 1683 4076 2106 3966 2106 3347 
C 2106 3167 2080 2851 1862 2574 
C 1670 2329 1453 2316 1242 2297 
C 1210 2297 1062 2284 1037 2284 
C 992 2278 966 2272 966 2227 
C 966 2182 973 2176 1101 2176 
L 1414 2176 
z
" transform="scale(0.015625)"/>
       </defs>
       <use xlink:href="#CMR17-33" transform="scale(0.996264)"/>
       <use xlink:href="#CMR17-36" transform="translate(45.690477 0)scale(0.996264)"/>
      </g>
     </g>
    </g>
    <g id="xtick_15">
     <g id="line2d_34">
      <g>
       <use xlink:href="#m8b1fd43664" x="419.560171" y="218.209617" style="fill: #262626; stroke: #262626; stroke-width: 0.8"/>
      </g>
     </g>
     <g id="text_26">
      <!-- $\mathdefault{48}$ -->
      <g style="fill: #262626" transform="translate(414.080704 235.319964)scale(0.11 -0.11)">
       <use xlink:href="#CMR17-34" transform="scale(0.996264)"/>
       <use xlink:href="#CMR17-38" transform="translate(45.690477 0)scale(0.996264)"/>
      </g>
     </g>
    </g>
   </g>
   <g id="matplotlib.axis_6">
    <g id="ytick_13">
     <g id="line2d_35">
      <g>
       <use xlink:href="#md927d122b0" x="321.034915" y="218.209617" style="fill: #262626; stroke: #262626; stroke-width: 0.8"/>
      </g>
     </g>
    </g>
    <g id="ytick_14">
     <g id="line2d_36">
      <g>
       <use xlink:href="#md927d122b0" x="321.034915" y="181.401124" style="fill: #262626; stroke: #262626; stroke-width: 0.8"/>
      </g>
     </g>
    </g>
    <g id="ytick_15">
     <g id="line2d_37">
      <g>
       <use xlink:href="#md927d122b0" x="321.034915" y="144.59263" style="fill: #262626; stroke: #262626; stroke-width: 0.8"/>
      </g>
     </g>
    </g>
    <g id="ytick_16">
     <g id="line2d_38">
      <g>
       <use xlink:href="#md927d122b0" x="321.034915" y="107.784137" style="fill: #262626; stroke: #262626; stroke-width: 0.8"/>
      </g>
     </g>
    </g>
    <g id="ytick_17">
     <g id="line2d_39">
      <g>
       <use xlink:href="#md927d122b0" x="321.034915" y="70.975644" style="fill: #262626; stroke: #262626; stroke-width: 0.8"/>
      </g>
     </g>
    </g>
    <g id="ytick_18">
     <g id="line2d_40">
      <g>
       <use xlink:href="#md927d122b0" x="321.034915" y="34.16715" style="fill: #262626; stroke: #262626; stroke-width: 0.8"/>
      </g>
     </g>
    </g>
   </g>
   <g id="line2d_41">
    <path d="M 326.005032 218.209617 
L 327.954097 199.989413 
L 329.903163 184.529846 
L 331.852228 169.254321 
L 333.801294 154.346881 
L 335.750359 145.3288 
L 337.699424 134.10221 
L 339.64849 129.133063 
L 341.597555 121.035195 
L 343.546621 112.385199 
L 345.495686 101.526693 
L 347.444751 95.637334 
L 349.393817 89.37989 
L 351.342882 82.570319 
L 353.291948 80.177767 
L 355.241013 75.760748 
L 357.190078 72.079899 
L 359.139144 69.319262 
L 361.088209 65.086285 
L 363.037275 64.166072 
L 364.98634 62.693733 
L 366.935405 59.565011 
L 368.884471 59.380968 
L 370.833536 57.356501 
L 372.782602 54.963949 
L 374.731667 53.491609 
L 376.680732 52.387355 
L 378.629798 51.651185 
L 380.578863 50.730972 
L 382.527929 48.890548 
L 384.476994 47.418208 
L 386.42606 47.050123 
L 388.375125 46.866081 
L 390.32419 46.313953 
L 392.273256 45.761826 
L 394.222321 44.289486 
L 396.171387 43.369274 
L 398.120452 43.185231 
L 400.069517 43.001189 
L 402.018583 42.817146 
L 403.967648 41.896934 
L 405.916714 40.792679 
L 407.865779 40.240552 
L 409.814844 40.056509 
L 411.76391 40.608637 
L 413.712975 39.872467 
L 415.662041 40.240552 
L 417.611106 39.688424 
L 419.560171 39.32034 
L 421.509237 39.32034 
L 423.458302 39.32034 
L 425.407368 38.768212 
" clip-path="url(#p51ffaf2b57)" style="fill: none; stroke: #1f77b4; stroke-width: 1.5; stroke-linecap: round"/>
   </g>
   <g id="line2d_42">
    <path d="M 326.005032 218.209617 
L 327.954097 209.191536 
L 329.903163 193.916011 
L 331.852228 189.31495 
L 333.801294 187.10644 
L 335.750359 164.837302 
L 337.699424 159.316028 
L 339.64849 154.162839 
L 341.597555 149.929862 
L 343.546621 141.095823 
L 345.495686 135.022422 
L 347.444751 129.501148 
L 349.393817 120.66711 
L 351.342882 118.826685 
L 353.291948 117.354345 
L 355.241013 110.912859 
L 357.190078 106.127755 
L 359.139144 102.999033 
L 361.088209 101.526693 
L 363.037275 98.029886 
L 364.98634 94.164995 
L 366.935405 91.036273 
L 368.884471 87.723508 
L 370.833536 83.306489 
L 372.782602 80.729894 
L 374.731667 78.88947 
L 376.680732 76.496918 
L 378.629798 72.632026 
L 380.578863 71.159686 
L 382.527929 70.607559 
L 384.476994 69.503304 
L 386.42606 67.110752 
L 388.375125 65.45437 
L 390.32419 64.902242 
L 392.273256 63.24586 
L 394.222321 62.141605 
L 396.171387 61.957563 
L 398.120452 59.749053 
L 400.069517 58.644798 
L 402.018583 58.276714 
L 403.967648 58.092671 
L 405.916714 58.092671 
L 407.865779 56.620331 
L 409.814844 55.147992 
L 411.76391 54.411822 
L 413.712975 54.043737 
L 415.662041 53.491609 
L 417.611106 52.939482 
L 419.560171 52.75544 
L 421.509237 51.835227 
L 423.458302 51.467142 
" clip-path="url(#p51ffaf2b57)" style="fill: none; stroke: #ff7f0e; stroke-width: 1.5; stroke-linecap: round"/>
   </g>
   <g id="patch_17">
    <path d="M 321.034915 218.209617 
L 321.034915 28.645876 
" style="fill: none; stroke: #262626; stroke-width: 1.25; stroke-linejoin: miter; stroke-linecap: square"/>
   </g>
   <g id="patch_18">
    <path d="M 430.377484 218.209617 
L 430.377484 28.645876 
" style="fill: none; stroke: #262626; stroke-width: 1.25; stroke-linejoin: miter; stroke-linecap: square"/>
   </g>
   <g id="patch_19">
    <path d="M 321.034915 218.209617 
L 430.377484 218.209617 
" style="fill: none; stroke: #262626; stroke-width: 1.25; stroke-linejoin: miter; stroke-linecap: square"/>
   </g>
   <g id="patch_20">
    <path d="M 321.034915 28.645876 
L 430.377484 28.645876 
" style="fill: none; stroke: #262626; stroke-width: 1.25; stroke-linejoin: miter; stroke-linecap: square"/>
   </g>
   <g id="patch_21">
    <path d="M 402.018583 102.760478 
Q 402.018583 92.468419 402.018583 83.294393 
" style="fill: none; stroke: #000000; stroke-linecap: round"/>
    <path d="M 400.018583 87.294393 
L 402.018583 83.294393 
L 404.018583 87.294393 
" style="fill: none; stroke: #000000; stroke-linecap: round"/>
   </g>
   <g id="text_27">
    <g id="patch_22">
     <path d="M 381.871858 120.114945 
L 422.165307 120.114945 
Q 425.165307 120.114945 425.165307 117.114945 
L 425.165307 108.259269 
Q 425.165307 105.259269 422.165307 105.259269 
L 381.871858 105.259269 
Q 378.871858 105.259269 378.871858 108.259269 
L 378.871858 117.114945 
Q 378.871858 120.114945 381.871858 120.114945 
z
" style="fill: #e6e6e6; stroke: #000000; stroke-linejoin: miter"/>
    </g>
    <!-- 75\% Cov. -->
    <g style="fill: #262626" transform="translate(381.871858 115.177767)scale(0.1 -0.1)">
     <defs>
      <path id="CMSS17-37" d="M 1389 3788 
C 1466 3788 1542 3795 1619 3795 
L 2355 3795 
C 1440 2715 915 1350 915 -64 
L 1427 -64 
C 1427 1305 1875 2695 2752 3807 
L 2752 4224 
L 250 4224 
L 250 3788 
L 1389 3788 
z
" transform="scale(0.015625)"/>
     </defs>
     <use xlink:href="#CMSS17-37" transform="scale(0.996264)"/>
     <use xlink:href="#CMSS17-35" transform="translate(46.843624 0)scale(0.996264)"/>
     <use xlink:href="#CMSS17-25" transform="translate(93.687247 0)scale(0.996264)"/>
     <use xlink:href="#CMSS17-43" transform="translate(202.989096 0)scale(0.996264)"/>
     <use xlink:href="#CMSS17-6f" transform="translate(262.844868 0)scale(0.996264)"/>
     <use xlink:href="#CMSS17-76" transform="translate(309.688491 0)scale(0.996264)"/>
     <use xlink:href="#CMSS17-2e" transform="translate(352.688633 0)scale(0.996264)"/>
    </g>
   </g>
   <g id="text_28">
    <!-- \textbf{Scenario C} -->
    <g style="fill: #262626" transform="translate(341.437308 22.645876)scale(0.14 -0.14)">
     <use xlink:href="#CMSSBX10-53" transform="scale(0.996264)"/>
     <use xlink:href="#CMSSBX10-63" transform="translate(60.883138 0)scale(0.996264)"/>
     <use xlink:href="#CMSSBX10-65" transform="translate(109.589649 0)scale(0.996264)"/>
     <use xlink:href="#CMSSBX10-6e" transform="translate(160.510102 0)scale(0.996264)"/>
     <use xlink:href="#CMSSBX10-61" transform="translate(216.41189 0)scale(0.996264)"/>
     <use xlink:href="#CMSSBX10-72" transform="translate(265.671928 0)scale(0.996264)"/>
     <use xlink:href="#CMSSBX10-69" transform="translate(302.755338 0)scale(0.996264)"/>
     <use xlink:href="#CMSSBX10-6f" transform="translate(328.215557 0)scale(0.996264)"/>
     <use xlink:href="#CMSSBX10-43" transform="translate(419.540265 0)scale(0.996264)"/>
    </g>
   </g>
  </g>
  <g id="text_29">
   <!-- \textbf{PUL Count} -->
   <g style="fill: #262626" transform="translate(190.626649 257.973156)scale(0.12 -0.12)">
    <defs>
     <path id="CMSSBX10-50" d="M 1523 1728 
L 2496 1728 
C 3501 1728 4102 2150 4102 3052 
C 4102 3999 3475 4416 2490 4416 
L 890 4416 
C 659 4416 582 4345 582 4108 
L 582 308 
C 582 76 653 0 890 0 
L 1216 0 
C 1459 0 1523 83 1523 308 
L 1523 1728 
z
M 2291 3865 
C 3130 3865 3213 3490 3213 3052 
C 3213 2633 3142 2233 2285 2233 
L 1504 2233 
L 1504 3865 
L 2291 3865 
z
" transform="scale(0.015625)"/>
     <path id="CMSSBX10-55" d="M 4301 4110 
C 4301 4313 4256 4416 3994 4416 
L 3738 4416 
C 3494 4416 3430 4332 3430 4110 
L 3430 1455 
C 3430 834 3245 422 2464 422 
C 1722 422 1523 796 1523 1449 
L 1523 4110 
C 1523 4313 1478 4416 1216 4416 
L 890 4416 
C 659 4416 582 4345 582 4110 
L 582 1474 
C 582 134 1645 -128 2458 -128 
C 3187 -128 4301 89 4301 1468 
L 4301 4110 
z
" transform="scale(0.015625)"/>
     <path id="CMSSBX10-4c" d="M 1523 646 
L 1523 4110 
C 1523 4313 1478 4416 1216 4416 
L 890 4416 
C 659 4416 582 4345 582 4110 
L 582 307 
C 582 76 653 0 890 0 
L 3110 0 
C 3354 0 3418 83 3418 307 
L 3418 364 
C 3418 512 3411 671 3117 671 
L 1523 646 
z
" transform="scale(0.015625)"/>
    </defs>
    <use xlink:href="#CMSSBX10-50" transform="scale(0.996264)"/>
    <use xlink:href="#CMSSBX10-55" transform="translate(70.015609 0)scale(0.996264)"/>
    <use xlink:href="#CMSSBX10-4c" transform="translate(146.119532 0)scale(0.996264)"/>
    <use xlink:href="#CMSSBX10-43" transform="translate(240.488397 0)scale(0.996264)"/>
    <use xlink:href="#CMSSBX10-6f" transform="translate(310.504006 0)scale(0.996264)"/>
    <use xlink:href="#CMSSBX10-75" transform="translate(365.298831 0)scale(0.996264)"/>
    <use xlink:href="#CMSSBX10-6e" transform="translate(421.200619 0)scale(0.996264)"/>
    <use xlink:href="#CMSSBX10-74" transform="translate(477.102407 0)scale(0.996264)"/>
   </g>
  </g>
  <g id="legend_1">
   <g id="line2d_43">
    <path d="M 8.9964 248.633428 
L 18.9924 248.633428 
L 28.9884 248.633428 
" style="fill: none; stroke: #1f77b4; stroke-width: 1.5; stroke-linecap: round"/>
   </g>
   <g id="text_30">
    <!-- Albstadt -->
    <g style="fill: #262626" transform="translate(36.9852 252.132028)scale(0.09996 -0.09996)">
     <defs>
      <path id="CMSS17-41" d="M 2272 4416 
L 1722 4416 
L 166 0 
L 653 0 
L 1101 1280 
L 2816 1280 
L 3270 0 
L 3827 0 
L 2272 4416 
z
M 2694 1638 
L 1222 1638 
C 1530 2530 1914 3638 1958 3924 
L 1965 3924 
C 2010 3663 2138 3281 2246 2956 
L 2694 1638 
z
" transform="scale(0.015625)"/>
      <path id="CMSS17-6c" d="M 947 4416 
L 474 4416 
L 474 0 
L 947 0 
L 947 4416 
z
" transform="scale(0.015625)"/>
      <path id="CMSS17-62" d="M 954 4416 
L 480 4416 
L 480 -13 
L 966 -13 
L 966 275 
C 1210 38 1504 -64 1766 -64 
C 2381 -64 2880 559 2880 1382 
C 2880 2133 2496 2816 1926 2816 
C 1523 2816 1165 2649 954 2476 
L 954 4416 
z
M 966 2095 
C 1107 2276 1306 2425 1587 2425 
C 1965 2425 2394 2146 2394 1382 
C 2394 566 1882 326 1530 326 
C 1402 326 1267 358 1139 468 
C 966 624 966 721 966 812 
L 966 2095 
z
" transform="scale(0.015625)"/>
      <path id="CMSS17-73" d="M 2061 2623 
C 1683 2803 1389 2816 1197 2816 
C 742 2816 198 2655 198 2009 
C 198 1363 902 1222 1094 1183 
C 1389 1126 1715 1062 1715 742 
C 1715 339 1254 339 1171 339 
C 915 339 563 409 243 639 
L 166 211 
C 531 0 883 -64 1178 -64 
C 1965 -64 2163 416 2163 780 
C 2163 1094 1984 1305 1862 1401 
C 1651 1567 1574 1587 1050 1695 
C 960 1708 646 1779 646 2067 
C 646 2431 1050 2431 1139 2431 
C 1555 2431 1811 2303 1984 2207 
L 2061 2623 
z
" transform="scale(0.015625)"/>
      <path id="CMSS17-74" d="M 1069 2380 
L 1901 2380 
L 1901 2752 
L 1069 2752 
L 1069 3520 
L 614 3520 
L 614 2752 
L 109 2752 
L 109 2380 
L 602 2380 
L 602 751 
C 602 384 685 -64 1107 -64 
C 1427 -64 1722 25 2003 172 
L 1901 551 
C 1747 416 1562 339 1363 339 
C 1082 339 1069 699 1069 860 
L 1069 2380 
z
" transform="scale(0.015625)"/>
      <path id="CMSS17-61" d="M 2406 1789 
C 2406 2399 1978 2816 1402 2816 
C 1120 2816 813 2764 461 2559 
L 499 2133 
C 659 2250 934 2438 1395 2438 
C 1722 2438 1920 2185 1920 1782 
L 1920 1536 
C 896 1504 256 1209 256 711 
C 256 452 416 -64 947 -64 
C 1043 -64 1562 -52 1933 224 
L 1933 -13 
L 2406 -13 
L 2406 1789 
z
M 1920 824 
C 1920 711 1920 559 1728 446 
C 1562 339 1350 326 1261 326 
C 941 326 723 503 723 723 
C 723 1165 1722 1209 1920 1216 
L 1920 824 
z
" transform="scale(0.015625)"/>
      <path id="CMSS17-64" d="M 2611 4416 
L 2138 4416 
L 2138 2495 
C 1939 2662 1613 2816 1254 2816 
C 672 2816 211 2179 211 1375 
C 211 572 666 -64 1235 -64 
C 1677 -64 1971 172 2125 307 
L 2125 -13 
L 2611 -13 
L 2611 4416 
z
M 2125 851 
C 2125 760 2125 663 1926 488 
C 1798 378 1645 326 1498 326 
C 1152 326 698 585 698 1369 
C 698 2185 1210 2425 1562 2425 
C 1798 2425 1990 2308 2125 2114 
L 2125 851 
z
" transform="scale(0.015625)"/>
     </defs>
     <use xlink:href="#CMSS17-41" transform="scale(0.996264)"/>
     <use xlink:href="#CMSS17-6c" transform="translate(62.217855 0)scale(0.996264)"/>
     <use xlink:href="#CMSS17-62" transform="translate(84.398578 0)scale(0.996264)"/>
     <use xlink:href="#CMSS17-73" transform="translate(132.603521 0)scale(0.996264)"/>
     <use xlink:href="#CMSS17-74" transform="translate(168.517063 0)scale(0.996264)"/>
     <use xlink:href="#CMSS17-61" transform="translate(202.34863 0)scale(0.996264)"/>
     <use xlink:href="#CMSS17-64" transform="translate(247.27055 0)scale(0.996264)"/>
     <use xlink:href="#CMSS17-74" transform="translate(295.475494 0)scale(0.996264)"/>
    </g>
   </g>
   <g id="line2d_44">
    <path d="M 8.9964 259.566231 
L 18.9924 259.566231 
L 28.9884 259.566231 
" style="fill: none; stroke: #ff7f0e; stroke-width: 1.5; stroke-linecap: round"/>
   </g>
   <g id="text_31">
    <!-- Wrzburg -->
    <g style="fill: #262626" transform="translate(36.9852 263.064831)scale(0.09996 -0.09996)">
     <defs>
      <path id="CMSS17-57" d="M 5581 4416 
L 5094 4416 
L 4557 2436 
C 4474 2118 4397 1800 4320 1482 
C 4205 1012 4122 681 4109 516 
L 4102 516 
C 4090 687 4006 1050 3904 1457 
C 3827 1794 3744 2131 3654 2462 
L 3123 4416 
L 2586 4416 
L 2080 2564 
L 1824 1552 
C 1632 751 1626 636 1613 509 
L 1606 509 
C 1606 547 1581 757 1402 1501 
C 1312 1870 1222 2246 1126 2602 
L 634 4416 
L 83 4416 
L 1299 0 
L 1830 0 
L 2336 1838 
L 2592 2850 
C 2765 3562 2803 3740 2816 3899 
L 2822 3899 
C 2822 3874 2880 3473 3130 2544 
L 3808 0 
L 4365 0 
L 5581 4416 
z
" transform="scale(0.015625)"/>
      <path id="CMSS17-7f" d="M 1178 4224 
L 659 4224 
L 659 3705 
L 1178 3705 
L 1178 4224 
z
M 2342 4224 
L 1824 4224 
L 1824 3705 
L 2342 3705 
L 2342 4224 
z
" transform="scale(0.015625)"/>
      <path id="CMSS17-75" d="M 2618 2752 
L 2131 2752 
L 2131 976 
C 2131 500 1786 307 1421 307 
C 998 307 960 448 960 712 
L 960 2752 
L 474 2752 
L 474 680 
C 474 179 646 -64 1088 -64 
C 1306 -64 1798 -13 2144 307 
L 2144 -13 
L 2618 -13 
L 2618 2752 
z
" transform="scale(0.015625)"/>
      <path id="CMSS17-72" d="M 954 1369 
C 954 1974 1395 2379 1958 2392 
L 1958 2816 
C 1549 2809 1165 2604 934 2270 
L 934 2783 
L 480 2783 
L 480 0 
L 954 0 
L 954 1369 
z
" transform="scale(0.015625)"/>
      <path id="CMSS17-7a" d="M 2400 2502 
L 2400 2752 
L 250 2752 
L 250 2367 
L 1069 2367 
C 1146 2367 1222 2374 1299 2374 
L 1747 2374 
L 166 262 
L 166 0 
L 2419 0 
L 2419 396 
L 1549 396 
C 1472 396 1395 390 1318 390 
L 826 390 
L 2400 2502 
z
" transform="scale(0.015625)"/>
      <path id="CMSS17-67" d="M 2848 2816 
C 2483 2809 2170 2739 1914 2617 
C 1702 2783 1485 2816 1338 2816 
C 781 2816 358 2356 358 1824 
C 358 1481 550 1222 563 1209 
C 448 1049 384 876 384 684 
C 384 460 474 300 544 211 
C 211 6 166 -308 166 -429 
C 166 -896 749 -1280 1498 -1280 
C 2253 -1280 2835 -896 2835 -423 
C 2835 460 1856 467 1587 467 
L 1069 467 
C 973 467 717 467 717 793 
C 717 921 774 1004 781 1011 
C 877 940 1075 832 1338 832 
C 1869 832 2310 1279 2310 1824 
C 2310 2128 2170 2349 2112 2425 
L 2131 2425 
C 2150 2425 2419 2444 2515 2444 
C 2720 2444 2739 2438 2918 2419 
L 2848 2816 
z
M 1338 1184 
C 1120 1184 813 1317 813 1824 
C 813 2375 1165 2463 1331 2463 
C 1549 2463 1856 2330 1856 1824 
C 1856 1272 1504 1184 1338 1184 
z
M 1581 0 
C 1734 0 2381 0 2381 -436 
C 2381 -711 1984 -928 1504 -928 
C 1018 -928 621 -717 621 -429 
C 621 -397 621 0 1062 0 
L 1581 0 
z
" transform="scale(0.015625)"/>
     </defs>
     <use xlink:href="#CMSS17-57" transform="scale(0.996264)"/>
     <use xlink:href="#CMSS17-7f" transform="translate(88.922826 0)scale(0.996264)"/>
     <use xlink:href="#CMSS17-75" transform="translate(88.242166 0)scale(0.996264)"/>
     <use xlink:href="#CMSS17-72" transform="translate(136.447109 0)scale(0.996264)"/>
     <use xlink:href="#CMSS17-7a" transform="translate(168.356882 0)scale(0.996264)"/>
     <use xlink:href="#CMSS17-62" transform="translate(209.034754 0)scale(0.996264)"/>
     <use xlink:href="#CMSS17-75" transform="translate(257.239697 0)scale(0.996264)"/>
     <use xlink:href="#CMSS17-72" transform="translate(305.44464 0)scale(0.996264)"/>
     <use xlink:href="#CMSS17-67" transform="translate(337.354413 0)scale(0.996264)"/>
    </g>
   </g>
  </g>
 </g>
 <defs>
  <clipPath id="p7fefd5e9aa">
   <rect x="62.657648" y="28.645876" width="109.342569" height="189.563741"/>
  </clipPath>
  <clipPath id="pc209cc3308">
   <rect x="191.846282" y="28.645876" width="109.342569" height="189.563741"/>
  </clipPath>
  <clipPath id="p51ffaf2b57">
   <rect x="321.034915" y="28.645876" width="109.342569" height="189.563741"/>
  </clipPath>
 </defs>
</svg>
