<svg xmlns="http://www.w3.org/2000/svg" xmlns:xlink="http://www.w3.org/1999/xlink" x="0" y="0" width="661.9885864257812" height="182.91192626953125" style="
        width:661.9885864257812px;
        height:182.91192626953125px;
        background: transparent;
        fill: none;
">
        
        
        <svg xmlns="http://www.w3.org/2000/svg" class="role-diagram-draw-area"><g class="shapes-region" style="stroke: black; fill: none;"><g class="grouped-shape"><g class="composite-shape"><path class="real" d=" M232.47,115 L322.47,115 L322.47,175 L232.47,175 Z" style="stroke-width: 1; stroke: rgb(0, 0, 0); fill: rgb(245, 166, 35); fill-opacity: 1;"/></g></g><g class="composite-shape"><path class="real" d=" M347.47,115 L437.47,115 L437.47,175 L347.47,175 Z" style="stroke-width: 1; stroke: rgb(0, 0, 0); fill: rgb(245, 166, 35); fill-opacity: 1;"/></g><g class="grouped-shape"><g class="composite-shape"><path class="real" d=" M462.47,115 L552.47,115 L552.47,175 L462.47,175 Z" style="stroke-width: 1; stroke: rgb(0, 0, 0); fill: rgb(245, 166, 35); fill-opacity: 1;"/></g></g><g class="composite-shape"><path class="real" d=" M568,145 C568,140.78 571.43,137.36 575.65,137.36 C579.87,137.36 583.3,140.78 583.3,145 C583.3,149.22 579.87,152.64 575.65,152.64 C571.43,152.64 568,149.22 568,145 Z" style="stroke-width: 1; stroke: rgb(0, 0, 0); fill: rgb(245, 166, 35); fill-opacity: 1;"/></g><g class="grouped-shape"><g class="composite-shape"><path class="real" d=" M2.47,5 L92.47,5 L92.47,65 L2.47,65 Z" style="stroke-width: 1; stroke: rgb(0, 0, 0); fill: rgb(0, 44, 97); fill-opacity: 1;"/></g></g><g class="grouped-shape"><g class="composite-shape"><path class="real" d=" M117.47,5 L207.47,5 L207.47,65 L117.47,65 Z" style="stroke-width: 1; stroke: rgb(0, 0, 0); fill: rgb(0, 44, 97); fill-opacity: 1;"/></g></g><g class="grouped-shape"><g class="composite-shape"><path class="real" d=" M232.47,5 L322.47,5 L322.47,65 L232.47,65 Z" style="stroke-width: 1; stroke: rgb(0, 0, 0); fill: rgb(0, 44, 97); fill-opacity: 1;"/></g></g><g class="composite-shape"><path class="real" d=" M347.47,5 L437.47,5 L437.47,65 L347.47,65 Z" style="stroke-width: 1; stroke: rgb(0, 0, 0); fill: rgb(0, 44, 97); fill-opacity: 1;"/></g><g class="grouped-shape"><g class="composite-shape"><path class="real" d=" M462.47,5 L552.47,5 L552.47,65 L462.47,65 Z" style="stroke-width: 1; stroke: rgb(0, 0, 0); fill: rgb(0, 44, 97); fill-opacity: 1;"/></g></g><g class="arrow-line"><path class="connection real" stroke-dasharray="" d="  M92.2,34.27 L117.2,34.95" style="stroke: rgb(0, 0, 0); stroke-width: 1; fill: none; fill-opacity: 1;"/><g stroke="none" fill="#000" transform="matrix(-0.9996388064091798,-0.02687483434051921,0.02687483434051921,-0.9996388064091798,119.19891357421876,35.00000000000001)" style="stroke: none; fill: rgb(0, 0, 0); stroke-width: 1;"><path d=" M12,-3 L0,0 L12,3 Z"/></g></g><g class="arrow-line"><path class="connection real" stroke-dasharray="" d="  M437.2,36.27 L462.2,36.95" style="stroke: rgb(0, 0, 0); stroke-width: 1; fill: none; fill-opacity: 1;"/><g stroke="none" fill="#000" transform="matrix(-0.9996388064091798,-0.02687483434051921,0.02687483434051921,-0.9996388064091798,464.1989135742188,37.00000000000001)" style="stroke: none; fill: rgb(0, 0, 0); stroke-width: 1;"><path d=" M12,-3 L0,0 L12,3 Z"/></g></g><g class="arrow-line"><path class="connection real" stroke-dasharray="" d="  M323.2,34.27 L348.2,34.95" style="stroke: rgb(0, 0, 0); stroke-width: 1; fill: none; fill-opacity: 1;"/><g stroke="none" fill="#000" transform="matrix(-0.9996388064091798,-0.02687483434051921,0.02687483434051921,-0.9996388064091798,350.19891357421875,34.99999999999999)" style="stroke: none; fill: rgb(0, 0, 0); stroke-width: 1;"><path d=" M12,-3 L0,0 L12,3 Z"/></g></g><g class="arrow-line"><path class="connection real" stroke-dasharray="" d="  M208.2,35 L233.2,35.67" style="stroke: rgb(0, 0, 0); stroke-width: 1; fill: none; fill-opacity: 1;"/><g stroke="none" fill="#000" transform="matrix(-0.9996388064091798,-0.02687483434051921,0.02687483434051921,-0.9996388064091798,235.19891357421878,35.727264404296875)" style="stroke: none; fill: rgb(0, 0, 0); stroke-width: 1;"><path d=" M12,-3 L0,0 L12,3 Z"/></g></g><g class="arrow-line"><path class="connection real" stroke-dasharray="" d="  M48.2,63.27 L47.2,145 L229.2,145" style="stroke: rgb(0, 0, 0); stroke-width: 1; fill: none; fill-opacity: 1;"/><g stroke="none" fill="#000" transform="matrix(-1,1.2246467991473532e-16,-1.2246467991473532e-16,-1,231.19891357421872,145.00000000000003)" style="stroke: none; fill: rgb(0, 0, 0); stroke-width: 1;"><path d=" M12,-3 L0,0 L12,3 Z"/></g></g><g class="arrow-line"><path class="connection real" stroke-dasharray="" d="  M437.2,145 L462.2,145.67" style="stroke: rgb(0, 0, 0); stroke-width: 1; fill: none; fill-opacity: 1;"/><g stroke="none" fill="#000" transform="matrix(-0.9996388064091798,-0.02687483434051921,0.02687483434051921,-0.9996388064091798,464.19891357421875,145.72726440429688)" style="stroke: none; fill: rgb(0, 0, 0); stroke-width: 1;"><path d=" M12,-3 L0,0 L12,3 Z"/></g></g><g class="arrow-line"><path class="connection real" stroke-dasharray="" d="  M322.2,145 L347.2,145.67" style="stroke: rgb(0, 0, 0); stroke-width: 1; fill: none; fill-opacity: 1;"/><g stroke="none" fill="#000" transform="matrix(-0.9996388064091798,-0.02687483434051921,0.02687483434051921,-0.9996388064091798,349.1989135742188,145.72726440429685)" style="stroke: none; fill: rgb(0, 0, 0); stroke-width: 1;"><path d=" M12,-3 L0,0 L12,3 Z"/></g></g><g class="composite-shape"><path class="real" d=" M567,35 C567,30.78 570.43,27.36 574.65,27.36 C578.87,27.36 582.3,30.78 582.3,35 C582.3,39.22 578.87,42.64 574.65,42.64 C570.43,42.64 567,39.22 567,35 Z" style="stroke-width: 1; stroke: rgb(0, 0, 0); fill: rgb(0, 44, 97); fill-opacity: 1;"/></g><g/></g><g/><g/><g/></svg>
        <svg xmlns="http://www.w3.org/2000/svg" xmlns:xlink="http://www.w3.org/1999/xlink" width="660" height="180.9232940673828" style="width:660px;height:180.9232940673828px;font-family:Asana-Math, Asana;background:transparent;"><g><g><g><g transform="matrix(1,0,0,1,243.977294921875,30.894882202148438)"><path transform="matrix(0.015,0,0,-0.015,0,0)" d="M35 0C70 3 144 3 182 3C220 3 295 3 330 0L330 31L306 31C229 31 227 42 227 78L227 316L396 316C516 316 624 397 624 497C624 595 525 683 388 683L35 683L35 652L59 652C136 652 138 641 138 605L138 78C138 42 136 31 59 31L35 31ZM224 342L224 612C224 645 226 652 273 652L362 652C521 652 521 546 521 497C521 450 521 342 362 342ZM755 616C755 589 777 563 808 563C836 563 861 584 861 616C861 648 836 669 808 669C777 669 755 642 755 616ZM713 0C745 1 799 3 823 3C858 3 893 1 927 0L927 31C861 31 857 36 857 75L857 442L717 431L717 400C782 400 791 394 791 345L791 76C791 31 780 31 713 31ZM991 216C991 88 1090 -11 1206 -11C1340 -11 1372 109 1372 119C1372 129 1362 129 1359 129C1350 129 1348 125 1346 119C1317 26 1252 14 1215 14C1162 14 1074 57 1074 218C1074 381 1156 423 1209 423C1218 423 1281 422 1316 386C1275 383 1269 353 1269 340C1269 314 1287 294 1315 294C1341 294 1361 311 1361 341C1361 409 1285 448 1208 448C1083 448 991 340 991 216ZM1401 0C1434 1 1481 3 1510 3C1540 3 1580 2 1620 0L1620 31C1553 31 1542 31 1542 76L1542 179L1606 234C1683 128 1725 72 1725 54C1725 35 1708 31 1689 31L1689 0C1717 1 1776 3 1797 3C1826 3 1855 2 1884 0L1884 31C1847 31 1825 31 1787 84L1660 263C1659 265 1654 271 1654 274C1654 278 1725 338 1735 346C1798 397 1840 399 1861 400L1861 431C1832 428 1819 428 1791 428C1755 428 1693 430 1679 431L1679 400C1698 399 1708 388 1708 375C1708 355 1694 343 1686 336L1545 214L1545 694L1401 683L1401 652C1471 652 1479 645 1479 596L1479 76C1479 31 1468 31 1401 31ZM1957 -236C1957 -242 1960 -248 1966 -248C1974 -248 1977 -243 1985 -221L2339 723C2340 727 2342 732 2342 736C2342 744 2336 748 2332 748C2321 748 2317 730 2314 723L1961 -220C1957 -231 1957 -233 1957 -236ZM2435 0C2470 3 2544 3 2582 3C2620 3 2695 3 2730 0L2730 31L2706 31C2629 31 2627 42 2627 78L2627 316L2796 316C2916 316 3024 397 3024 497C3024 595 2925 683 2788 683L2435 683L2435 652L2459 652C2536 652 2538 641 2538 605L2538 78C2538 42 2536 31 2459 31L2435 31ZM2624 342L2624 612C2624 645 2626 652 2673 652L2762 652C2921 652 2921 546 2921 497C2921 450 2921 342 2762 342ZM3094 95C3094 14 3191 -11 3254 -11C3320 -11 3366 29 3385 76C3389 36 3416 -6 3463 -6C3484 -6 3545 8 3545 89L3545 145L3520 145L3520 89C3520 31 3495 25 3484 25C3451 25 3447 70 3447 75L3447 275C3447 317 3447 356 3411 393C3372 432 3322 448 3274 448C3192 448 3123 401 3123 335C3123 305 3143 288 3169 288C3197 288 3215 308 3215 334C3215 346 3210 379 3164 380C3191 415 3240 426 3272 426C3321 426 3378 387 3378 298L3378 261C3327 258 3257 255 3194 225C3119 191 3094 139 3094 95ZM3171 96C3171 151 3213 234 3378 240L3378 140C3378 45 3306 11 3261 11C3212 11 3171 46 3171 96ZM3586 216C3586 88 3685 -11 3801 -11C3935 -11 3967 109 3967 119C3967 129 3957 129 3954 129C3945 129 3943 125 3941 119C3912 26 3847 14 3810 14C3757 14 3669 57 3669 218C3669 381 3751 423 3804 423C3813 423 3876 422 3911 386C3870 383 3864 353 3864 340C3864 314 3882 294 3910 294C3936 294 3956 311 3956 341C3956 409 3880 448 3803 448C3678 448 3586 340 3586 216ZM3996 0C4029 1 4076 3 4105 3C4135 3 4175 2 4215 0L4215 31C4148 31 4137 31 4137 76L4137 179L4201 234C4278 128 4320 72 4320 54C4320 35 4303 31 4284 31L4284 0C4312 1 4371 3 4392 3C4421 3 4450 2 4479 0L4479 31C4442 31 4420 31 4382 84L4255 263C4254 265 4249 271 4249 274C4249 278 4320 338 4330 346C4393 397 4435 399 4456 400L4456 431C4427 428 4414 428 4386 428C4350 428 4288 430 4274 431L4274 400C4293 399 4303 388 4303 375C4303 355 4289 343 4281 336L4140 214L4140 694L3996 683L3996 652C4066 652 4074 645 4074 596L4074 76C4074 31 4063 31 3996 31Z" stroke="rgb(255,255,255)" stroke-opacity="1" stroke-width="0" fill="rgb(255,255,255)" fill-opacity="1"></path></g></g></g><g><g><g transform="matrix(1,0,0,1,259.53125,52.79829406738281)"><path transform="matrix(0.015,0,0,-0.015,0,0)" d="M28 0C63 3 142 3 180 3C219 3 298 3 333 0L333 31L307 31C228 31 225 42 225 78L225 605C225 641 228 652 307 652L333 652L333 683C298 680 219 680 181 680C142 680 63 680 28 683L28 652L54 652C133 652 136 641 136 605L136 78C136 42 133 31 54 31L28 31ZM380 400L465 400L465 124C465 1 558 -11 594 -11C665 -11 693 60 693 124L693 181L668 181L668 126C668 52 638 14 601 14C534 14 534 105 534 122L534 400L677 400L677 431L534 431L534 615L509 615C508 533 478 426 380 422ZM777 220C777 86 882 -11 997 -11C1119 -11 1164 100 1164 119C1164 129 1156 131 1151 131C1142 131 1140 125 1138 117C1103 14 1013 14 1003 14C953 14 913 44 890 81C860 129 860 195 860 231L1139 231C1161 231 1164 231 1164 252C1164 351 1110 448 985 448C869 448 777 345 777 220ZM861 252C867 401 951 426 985 426C1088 426 1098 291 1098 252ZM1225 0C1260 1 1311 3 1338 3C1364 3 1416 1 1450 0L1450 31C1383 31 1372 31 1372 76L1372 260C1372 364 1443 420 1507 420C1570 420 1581 366 1581 309L1581 76C1581 31 1570 31 1503 31L1503 0C1538 1 1589 3 1616 3C1642 3 1694 1 1728 0L1728 31C1661 31 1650 31 1650 76L1650 260C1650 364 1721 420 1785 420C1848 420 1859 366 1859 309L1859 76C1859 31 1848 31 1781 31L1781 0C1816 1 1867 3 1894 3C1920 3 1972 1 2006 0L2006 31C1954 31 1929 31 1928 61L1928 252C1928 338 1928 369 1897 405C1883 422 1850 442 1792 442C1708 442 1664 382 1647 344C1633 431 1559 442 1514 442C1441 442 1394 399 1366 337L1366 442L1225 431L1225 400C1295 400 1303 393 1303 344L1303 76C1303 31 1292 31 1225 31ZM2059 13C2059 -4 2059 -11 2070 -11C2075 -11 2076 -10 2095 9C2097 11 2097 13 2115 32C2159 -10 2204 -11 2225 -11C2340 -11 2386 56 2386 128C2386 181 2356 211 2344 223C2311 255 2272 263 2230 271C2174 282 2107 295 2107 353C2107 388 2133 429 2219 429C2329 429 2334 339 2336 308C2337 299 2346 299 2348 299C2361 299 2361 304 2361 323L2361 424C2361 441 2361 448 2350 448C2345 448 2343 448 2330 436C2327 432 2317 423 2313 420C2275 448 2234 448 2219 448C2097 448 2059 381 2059 325C2059 290 2075 262 2102 240C2134 214 2162 208 2234 194C2256 190 2338 174 2338 102C2338 51 2303 11 2225 11C2141 11 2105 68 2086 153C2083 166 2082 170 2072 170C2059 170 2059 163 2059 145Z" stroke="rgb(255,255,255)" stroke-opacity="1" stroke-width="0" fill="rgb(255,255,255)" fill-opacity="1"></path></g></g></g></g><g><g><g><g transform="matrix(1,0,0,1,471.97442626953125,31.903396606445312)"><path transform="matrix(0.015,0,0,-0.015,0,0)" d="M369 452L394 452C408 613 423 646 574 646C592 646 618 646 628 644C649 640 649 629 649 606L649 79C649 45 649 31 544 31L504 31L504 0C545 3 647 3 693 3C739 3 842 3 883 0L883 31L843 31C738 31 738 45 738 79L738 606C738 626 738 640 756 644C767 646 794 646 813 646C964 646 979 613 993 452L1018 452L999 677L388 677ZM1000 0C1039 1 1086 3 1114 3C1154 3 1201 3 1241 0L1241 31L1220 31C1146 31 1144 42 1144 78L1144 232C1144 331 1186 420 1262 420C1269 420 1271 420 1273 419C1270 418 1250 406 1250 380C1250 352 1271 337 1293 337C1311 337 1336 349 1336 381C1336 413 1305 442 1262 442C1189 442 1153 375 1139 332L1139 442L1000 431L1000 400C1070 400 1078 393 1078 344L1078 76C1078 31 1067 31 1000 31ZM1405 95C1405 14 1502 -11 1565 -11C1631 -11 1677 29 1696 76C1700 36 1727 -6 1774 -6C1795 -6 1856 8 1856 89L1856 145L1831 145L1831 89C1831 31 1806 25 1795 25C1762 25 1758 70 1758 75L1758 275C1758 317 1758 356 1722 393C1683 432 1633 448 1585 448C1503 448 1434 401 1434 335C1434 305 1454 288 1480 288C1508 288 1526 308 1526 334C1526 346 1521 379 1475 380C1502 415 1551 426 1583 426C1632 426 1689 387 1689 298L1689 261C1638 258 1568 255 1505 225C1430 191 1405 139 1405 95ZM1482 96C1482 151 1524 234 1689 240L1689 140C1689 45 1617 11 1572 11C1523 11 1482 46 1482 96ZM1895 0C1930 1 1981 3 2008 3C2034 3 2086 1 2120 0L2120 31C2053 31 2042 31 2042 76L2042 260C2042 364 2113 420 2177 420C2240 420 2251 366 2251 309L2251 76C2251 31 2240 31 2173 31L2173 0C2208 1 2259 3 2286 3C2312 3 2364 1 2398 0L2398 31C2346 31 2321 31 2320 61L2320 252C2320 338 2320 369 2289 405C2275 422 2242 442 2184 442C2111 442 2064 399 2036 337L2036 442L1895 431L1895 400C1965 400 1973 393 1973 344L1973 76C1973 31 1962 31 1895 31ZM2451 13C2451 -4 2451 -11 2462 -11C2467 -11 2468 -10 2487 9C2489 11 2489 13 2507 32C2551 -10 2596 -11 2617 -11C2732 -11 2778 56 2778 128C2778 181 2748 211 2736 223C2703 255 2664 263 2622 271C2566 282 2499 295 2499 353C2499 388 2525 429 2611 429C2721 429 2726 339 2728 308C2729 299 2738 299 2740 299C2753 299 2753 304 2753 323L2753 424C2753 441 2753 448 2742 448C2737 448 2735 448 2722 436C2719 432 2709 423 2705 420C2667 448 2626 448 2611 448C2489 448 2451 381 2451 325C2451 290 2467 262 2494 240C2526 214 2554 208 2626 194C2648 190 2730 174 2730 102C2730 51 2695 11 2617 11C2533 11 2497 68 2478 153C2475 166 2474 170 2464 170C2451 170 2451 163 2451 145ZM2840 -163L2840 -194C2874 -193 2926 -191 2952 -191C2979 -191 3030 -193 3065 -194L3065 -163C2998 -163 2987 -163 2987 -118L2987 50L2987 59C2992 43 3034 -11 3110 -11C3229 -11 3333 87 3333 216C3333 343 3236 442 3124 442C3046 442 3004 398 2984 376L2984 442L2840 431L2840 400C2911 400 2918 394 2918 350L2918 -118C2918 -163 2907 -163 2840 -163ZM2987 114L2987 337C3016 388 3065 417 3116 417C3189 417 3250 329 3250 216C3250 95 3180 11 3106 11C3066 11 3028 31 3001 72C2987 93 2987 94 2987 114ZM3423 214C3423 85 3527 -11 3644 -11C3765 -11 3866 87 3866 214C3866 342 3766 448 3645 448C3520 448 3423 339 3423 214ZM3506 222C3506 261 3506 315 3530 359C3557 405 3604 426 3644 426C3688 426 3731 404 3757 361C3783 318 3783 260 3783 222C3783 186 3783 132 3761 88C3739 43 3695 14 3645 14C3602 14 3558 35 3531 81C3506 125 3506 186 3506 222ZM3923 0C3962 1 4009 3 4037 3C4077 3 4124 3 4164 0L4164 31L4143 31C4069 31 4067 42 4067 78L4067 232C4067 331 4109 420 4185 420C4192 420 4194 420 4196 419C4193 418 4173 406 4173 380C4173 352 4194 337 4216 337C4234 337 4259 349 4259 381C4259 413 4228 442 4185 442C4112 442 4076 375 4062 332L4062 442L3923 431L3923 400C3993 400 4001 393 4001 344L4001 76C4001 31 3990 31 3923 31ZM4305 400L4390 400L4390 124C4390 1 4483 -11 4519 -11C4590 -11 4618 60 4618 124L4618 181L4593 181L4593 126C4593 52 4563 14 4526 14C4459 14 4459 105 4459 122L4459 400L4602 400L4602 431L4459 431L4459 615L4434 615C4433 533 4403 426 4305 422Z" stroke="rgb(255,255,255)" stroke-opacity="1" stroke-width="0" fill="rgb(255,255,255)" fill-opacity="1"></path></g></g></g><g><g><g transform="matrix(1,0,0,1,488.06817626953125,53.80680847167969)"><path transform="matrix(0.015,0,0,-0.015,0,0)" d="M33 0C68 3 142 3 180 3C218 3 293 3 328 0L328 31L304 31C227 31 225 42 225 78L225 340L524 340L524 78C524 42 522 31 445 31L421 31L421 0C456 3 530 3 568 3C606 3 681 3 716 0L716 31L692 31C615 31 613 42 613 78L613 605C613 641 615 652 692 652L716 652L716 683C681 680 607 680 569 680C531 680 456 680 421 683L421 652L445 652C522 652 524 641 524 605L524 371L225 371L225 605C225 641 227 652 304 652L328 652L328 683C293 680 219 680 181 680C143 680 68 680 33 683L33 652L57 652C134 652 136 641 136 605L136 78C136 42 134 31 57 31L33 31ZM778 214C778 85 882 -11 999 -11C1120 -11 1221 87 1221 214C1221 342 1121 448 1000 448C875 448 778 339 778 214ZM861 222C861 261 861 315 885 359C912 405 959 426 999 426C1043 426 1086 404 1112 361C1138 318 1138 260 1138 222C1138 186 1138 132 1116 88C1094 43 1050 14 1000 14C957 14 913 35 886 81C861 125 861 186 861 222ZM1282 0C1317 1 1368 3 1395 3C1421 3 1473 1 1507 0L1507 31C1440 31 1429 31 1429 76L1429 260C1429 364 1500 420 1564 420C1627 420 1638 366 1638 309L1638 76C1638 31 1627 31 1560 31L1560 0C1595 1 1646 3 1673 3C1699 3 1751 1 1785 0L1785 31C1718 31 1707 31 1707 76L1707 260C1707 364 1778 420 1842 420C1905 420 1916 366 1916 309L1916 76C1916 31 1905 31 1838 31L1838 0C1873 1 1924 3 1951 3C1977 3 2029 1 2063 0L2063 31C2011 31 1986 31 1985 61L1985 252C1985 338 1985 369 1954 405C1940 422 1907 442 1849 442C1765 442 1721 382 1704 344C1690 431 1616 442 1571 442C1498 442 1451 399 1423 337L1423 442L1282 431L1282 400C1352 400 1360 393 1360 344L1360 76C1360 31 1349 31 1282 31ZM2111 220C2111 86 2216 -11 2331 -11C2453 -11 2498 100 2498 119C2498 129 2490 131 2485 131C2476 131 2474 125 2472 117C2437 14 2347 14 2337 14C2287 14 2247 44 2224 81C2194 129 2194 195 2194 231L2473 231C2495 231 2498 231 2498 252C2498 351 2444 448 2319 448C2203 448 2111 345 2111 220ZM2195 252C2201 401 2285 426 2319 426C2422 426 2432 291 2432 252Z" stroke="rgb(255,255,255)" stroke-opacity="1" stroke-width="0" fill="rgb(255,255,255)" fill-opacity="1"></path></g></g></g></g><g><g><g><g transform="matrix(1,0,0,1,14.97161865234375,30.894882202148438)"><path transform="matrix(0.015,0,0,-0.015,0,0)" d="M389 2C389 -15 389 -22 400 -22C407 -22 408 -20 415 -9C415 -8 418 -5 451 48C482 14 546 -22 635 -22C752 -22 832 76 832 186C832 286 766 368 682 388L554 419C492 434 453 488 453 546C453 616 507 677 585 677C752 677 774 513 780 468C781 462 781 456 792 456C805 456 805 461 805 480L805 681C805 698 805 705 794 705C787 705 786 704 779 692L744 635C714 664 673 705 584 705C473 705 389 617 389 511C389 428 442 355 520 328C531 324 582 312 652 295C679 288 709 281 737 244C758 218 768 185 768 152C768 81 718 9 634 9C605 9 529 14 476 63C418 117 415 181 414 217C413 227 405 227 402 227C389 227 389 220 389 202ZM920 0C955 1 1006 3 1033 3C1059 3 1111 1 1145 0L1145 31C1078 31 1067 31 1067 76L1067 260C1067 364 1138 420 1202 420C1265 420 1276 366 1276 309L1276 76C1276 31 1265 31 1198 31L1198 0C1233 1 1284 3 1311 3C1337 3 1389 1 1423 0L1423 31C1371 31 1346 31 1345 61L1345 252C1345 338 1345 369 1314 405C1300 422 1267 442 1209 442C1125 442 1081 382 1065 346L1064 346L1064 694L920 683L920 652C990 652 998 645 998 596L998 76C998 31 987 31 920 31ZM1471 214C1471 85 1575 -11 1692 -11C1813 -11 1914 87 1914 214C1914 342 1814 448 1693 448C1568 448 1471 339 1471 214ZM1554 222C1554 261 1554 315 1578 359C1605 405 1652 426 1692 426C1736 426 1779 404 1805 361C1831 318 1831 260 1831 222C1831 186 1831 132 1809 88C1787 43 1743 14 1693 14C1650 14 1606 35 1579 81C1554 125 1554 186 1554 222ZM1971 -163L1971 -194C2005 -193 2057 -191 2083 -191C2110 -191 2161 -193 2196 -194L2196 -163C2129 -163 2118 -163 2118 -118L2118 50L2118 59C2123 43 2165 -11 2241 -11C2360 -11 2464 87 2464 216C2464 343 2367 442 2255 442C2177 442 2135 398 2115 376L2115 442L1971 431L1971 400C2042 400 2049 394 2049 350L2049 -118C2049 -163 2038 -163 1971 -163ZM2118 114L2118 337C2147 388 2196 417 2247 417C2320 417 2381 329 2381 216C2381 95 2311 11 2237 11C2197 11 2159 31 2132 72C2118 93 2118 94 2118 114ZM2526 -163L2526 -194C2560 -193 2612 -191 2638 -191C2665 -191 2716 -193 2751 -194L2751 -163C2684 -163 2673 -163 2673 -118L2673 50L2673 59C2678 43 2720 -11 2796 -11C2915 -11 3019 87 3019 216C3019 343 2922 442 2810 442C2732 442 2690 398 2670 376L2670 442L2526 431L2526 400C2597 400 2604 394 2604 350L2604 -118C2604 -163 2593 -163 2526 -163ZM2673 114L2673 337C2702 388 2751 417 2802 417C2875 417 2936 329 2936 216C2936 95 2866 11 2792 11C2752 11 2714 31 2687 72C2673 93 2673 94 2673 114ZM3128 616C3128 589 3150 563 3181 563C3209 563 3234 584 3234 616C3234 648 3209 669 3181 669C3150 669 3128 642 3128 616ZM3086 0C3118 1 3172 3 3196 3C3231 3 3266 1 3300 0L3300 31C3234 31 3230 36 3230 75L3230 442L3090 431L3090 400C3155 400 3164 394 3164 345L3164 76C3164 31 3153 31 3086 31ZM3362 0C3397 1 3448 3 3475 3C3501 3 3553 1 3587 0L3587 31C3520 31 3509 31 3509 76L3509 260C3509 364 3580 420 3644 420C3707 420 3718 366 3718 309L3718 76C3718 31 3707 31 3640 31L3640 0C3675 1 3726 3 3753 3C3779 3 3831 1 3865 0L3865 31C3813 31 3788 31 3787 61L3787 252C3787 338 3787 369 3756 405C3742 422 3709 442 3651 442C3578 442 3531 399 3503 337L3503 442L3362 431L3362 400C3432 400 3440 393 3440 344L3440 76C3440 31 3429 31 3362 31ZM3913 -79C3913 -151 4012 -206 4134 -206C4252 -206 4356 -155 4356 -77C4356 -42 4342 9 4291 37C4238 65 4180 65 4119 65C4094 65 4051 65 4044 66C4012 70 3991 101 3991 133C3991 137 3991 160 4008 180C4047 152 4088 149 4107 149C4200 149 4269 218 4269 295C4269 332 4253 369 4228 392C4264 426 4300 431 4318 431C4320 431 4325 431 4328 430C4317 426 4312 415 4312 403C4312 386 4325 374 4341 374C4351 374 4370 381 4370 404C4370 421 4358 453 4319 453C4299 453 4255 447 4213 406C4171 439 4129 442 4107 442C4014 442 3945 373 3945 296C3945 252 3967 214 3992 193C3979 178 3961 145 3961 110C3961 79 3974 41 4005 21C3945 4 3913 -39 3913 -79ZM3965 -79C3965 -33 4003 4 4047 7L4106 7C4192 7 4304 7 4304 -79C4304 -133 4233 -183 4135 -183C4034 -183 3965 -132 3965 -79ZM4020 295C4020 322 4021 354 4036 379C4044 391 4067 419 4107 419C4194 419 4194 319 4194 296C4194 269 4193 237 4178 212C4170 200 4147 172 4107 172C4020 172 4020 272 4020 295Z" stroke="rgb(255,255,255)" stroke-opacity="1" stroke-width="0" fill="rgb(255,255,255)" fill-opacity="1"></path></g></g></g><g><g><g transform="matrix(1,0,0,1,35.227294921875,52.79829406738281)"><path transform="matrix(0.015,0,0,-0.015,0,0)" d="M33 0L554 0L582 258L557 258C546 156 532 31 356 31L274 31C227 31 225 38 225 71L225 604C225 638 225 652 320 652L353 652L353 683C317 680 226 680 185 680C146 680 68 680 33 683L33 652L57 652C134 652 136 641 136 605L136 78C136 42 134 31 57 31L33 31ZM700 616C700 589 722 563 753 563C781 563 806 584 806 616C806 648 781 669 753 669C722 669 700 642 700 616ZM658 0C690 1 744 3 768 3C803 3 838 1 872 0L872 31C806 31 802 36 802 75L802 442L662 431L662 400C727 400 736 394 736 345L736 76C736 31 725 31 658 31ZM935 13C935 -4 935 -11 946 -11C951 -11 952 -10 971 9C973 11 973 13 991 32C1035 -10 1080 -11 1101 -11C1216 -11 1262 56 1262 128C1262 181 1232 211 1220 223C1187 255 1148 263 1106 271C1050 282 983 295 983 353C983 388 1009 429 1095 429C1205 429 1210 339 1212 308C1213 299 1222 299 1224 299C1237 299 1237 304 1237 323L1237 424C1237 441 1237 448 1226 448C1221 448 1219 448 1206 436C1203 432 1193 423 1189 420C1151 448 1110 448 1095 448C973 448 935 381 935 325C935 290 951 262 978 240C1010 214 1038 208 1110 194C1132 190 1214 174 1214 102C1214 51 1179 11 1101 11C1017 11 981 68 962 153C959 166 958 170 948 170C935 170 935 163 935 145ZM1315 400L1400 400L1400 124C1400 1 1493 -11 1529 -11C1600 -11 1628 60 1628 124L1628 181L1603 181L1603 126C1603 52 1573 14 1536 14C1469 14 1469 105 1469 122L1469 400L1612 400L1612 431L1469 431L1469 615L1444 615C1443 533 1413 426 1315 422Z" stroke="rgb(255,255,255)" stroke-opacity="1" stroke-width="0" fill="rgb(255,255,255)" fill-opacity="1"></path></g></g></g></g><g><g><g><g transform="matrix(1,0,0,1,130.9801025390625,30.894882202148438)"><path transform="matrix(0.015,0,0,-0.015,0,0)" d="M369 452L394 452C408 613 423 646 574 646C592 646 618 646 628 644C649 640 649 629 649 606L649 79C649 45 649 31 544 31L504 31L504 0C545 3 647 3 693 3C739 3 842 3 883 0L883 31L843 31C738 31 738 45 738 79L738 606C738 626 738 640 756 644C767 646 794 646 813 646C964 646 979 613 993 452L1018 452L999 677L388 677ZM1000 0C1039 1 1086 3 1114 3C1154 3 1201 3 1241 0L1241 31L1220 31C1146 31 1144 42 1144 78L1144 232C1144 331 1186 420 1262 420C1269 420 1271 420 1273 419C1270 418 1250 406 1250 380C1250 352 1271 337 1293 337C1311 337 1336 349 1336 381C1336 413 1305 442 1262 442C1189 442 1153 375 1139 332L1139 442L1000 431L1000 400C1070 400 1078 393 1078 344L1078 76C1078 31 1067 31 1000 31ZM1405 95C1405 14 1502 -11 1565 -11C1631 -11 1677 29 1696 76C1700 36 1727 -6 1774 -6C1795 -6 1856 8 1856 89L1856 145L1831 145L1831 89C1831 31 1806 25 1795 25C1762 25 1758 70 1758 75L1758 275C1758 317 1758 356 1722 393C1683 432 1633 448 1585 448C1503 448 1434 401 1434 335C1434 305 1454 288 1480 288C1508 288 1526 308 1526 334C1526 346 1521 379 1475 380C1502 415 1551 426 1583 426C1632 426 1689 387 1689 298L1689 261C1638 258 1568 255 1505 225C1430 191 1405 139 1405 95ZM1482 96C1482 151 1524 234 1689 240L1689 140C1689 45 1617 11 1572 11C1523 11 1482 46 1482 96ZM1854 400C1917 400 1921 394 1934 363L2078 8C2084 -6 2086 -11 2099 -11C2112 -11 2116 -2 2120 8L2251 333C2260 356 2277 399 2343 400L2343 431C2320 429 2291 428 2268 428C2244 428 2198 430 2181 431L2181 400C2218 399 2229 376 2229 357C2229 348 2227 344 2223 333L2121 78L2009 357C2003 370 2003 372 2003 374C2003 400 2042 400 2060 400L2060 431C2030 430 1974 428 1951 428C1924 428 1884 429 1854 431ZM2362 220C2362 86 2467 -11 2582 -11C2704 -11 2749 100 2749 119C2749 129 2741 131 2736 131C2727 131 2725 125 2723 117C2688 14 2598 14 2588 14C2538 14 2498 44 2475 81C2445 129 2445 195 2445 231L2724 231C2746 231 2749 231 2749 252C2749 351 2695 448 2570 448C2454 448 2362 345 2362 220ZM2446 252C2452 401 2536 426 2570 426C2673 426 2683 291 2683 252ZM2811 0C2844 1 2897 3 2922 3C2947 3 2996 1 3033 0L3033 31C2966 31 2955 31 2955 76L2955 694L2811 683L2811 652C2881 652 2889 645 2889 596L2889 76C2889 31 2878 31 2811 31ZM3407 400L3492 400L3492 124C3492 1 3585 -11 3621 -11C3692 -11 3720 60 3720 124L3720 181L3695 181L3695 126C3695 52 3665 14 3628 14C3561 14 3561 105 3561 122L3561 400L3704 400L3704 431L3561 431L3561 615L3536 615C3535 533 3505 426 3407 422ZM3804 214C3804 85 3908 -11 4025 -11C4146 -11 4247 87 4247 214C4247 342 4147 448 4026 448C3901 448 3804 339 3804 214ZM3887 222C3887 261 3887 315 3911 359C3938 405 3985 426 4025 426C4069 426 4112 404 4138 361C4164 318 4164 260 4164 222C4164 186 4164 132 4142 88C4120 43 4076 14 4026 14C3983 14 3939 35 3912 81C3887 125 3887 186 3887 222Z" stroke="rgb(255,255,255)" stroke-opacity="1" stroke-width="0" fill="rgb(255,255,255)" fill-opacity="1"></path></g></g></g><g><g><g transform="matrix(1,0,0,1,145.96588134765625,52.79829406738281)"><path transform="matrix(0.015,0,0,-0.015,0,0)" d="M56 2C56 -15 56 -22 67 -22C74 -22 75 -20 82 -9C82 -8 85 -5 118 48C149 14 213 -22 302 -22C419 -22 499 76 499 186C499 286 433 368 349 388L221 419C159 434 120 488 120 546C120 616 174 677 252 677C419 677 441 513 447 468C448 462 448 456 459 456C472 456 472 461 472 480L472 681C472 698 472 705 461 705C454 705 453 704 446 692L411 635C381 664 340 705 251 705C140 705 56 617 56 511C56 428 109 355 187 328C198 324 249 312 319 295C346 288 376 281 404 244C425 218 435 185 435 152C435 81 385 9 301 9C272 9 196 14 143 63C85 117 82 181 81 217C80 227 72 227 69 227C56 227 56 220 56 202ZM574 400L659 400L659 124C659 1 752 -11 788 -11C859 -11 887 60 887 124L887 181L862 181L862 126C862 52 832 14 795 14C728 14 728 105 728 122L728 400L871 400L871 431L728 431L728 615L703 615C702 533 672 426 574 422ZM971 214C971 85 1075 -11 1192 -11C1313 -11 1414 87 1414 214C1414 342 1314 448 1193 448C1068 448 971 339 971 214ZM1054 222C1054 261 1054 315 1078 359C1105 405 1152 426 1192 426C1236 426 1279 404 1305 361C1331 318 1331 260 1331 222C1331 186 1331 132 1309 88C1287 43 1243 14 1193 14C1150 14 1106 35 1079 81C1054 125 1054 186 1054 222ZM1471 0C1510 1 1557 3 1585 3C1625 3 1672 3 1712 0L1712 31L1691 31C1617 31 1615 42 1615 78L1615 232C1615 331 1657 420 1733 420C1740 420 1742 420 1744 419C1741 418 1721 406 1721 380C1721 352 1742 337 1764 337C1782 337 1807 349 1807 381C1807 413 1776 442 1733 442C1660 442 1624 375 1610 332L1610 442L1471 431L1471 400C1541 400 1549 393 1549 344L1549 76C1549 31 1538 31 1471 31ZM1862 220C1862 86 1967 -11 2082 -11C2204 -11 2249 100 2249 119C2249 129 2241 131 2236 131C2227 131 2225 125 2223 117C2188 14 2098 14 2088 14C2038 14 1998 44 1975 81C1945 129 1945 195 1945 231L2224 231C2246 231 2249 231 2249 252C2249 351 2195 448 2070 448C1954 448 1862 345 1862 220ZM1946 252C1952 401 2036 426 2070 426C2173 426 2183 291 2183 252Z" stroke="rgb(255,255,255)" stroke-opacity="1" stroke-width="0" fill="rgb(255,255,255)" fill-opacity="1"></path></g></g></g></g><g><g><g><g transform="matrix(1,0,0,1,243.977294921875,140.89488220214844)"><path transform="matrix(0.015,0,0,-0.015,0,0)" d="M35 0C70 3 144 3 182 3C220 3 295 3 330 0L330 31L306 31C229 31 227 42 227 78L227 316L396 316C516 316 624 397 624 497C624 595 525 683 388 683L35 683L35 652L59 652C136 652 138 641 138 605L138 78C138 42 136 31 59 31L35 31ZM224 342L224 612C224 645 226 652 273 652L362 652C521 652 521 546 521 497C521 450 521 342 362 342ZM755 616C755 589 777 563 808 563C836 563 861 584 861 616C861 648 836 669 808 669C777 669 755 642 755 616ZM713 0C745 1 799 3 823 3C858 3 893 1 927 0L927 31C861 31 857 36 857 75L857 442L717 431L717 400C782 400 791 394 791 345L791 76C791 31 780 31 713 31ZM991 216C991 88 1090 -11 1206 -11C1340 -11 1372 109 1372 119C1372 129 1362 129 1359 129C1350 129 1348 125 1346 119C1317 26 1252 14 1215 14C1162 14 1074 57 1074 218C1074 381 1156 423 1209 423C1218 423 1281 422 1316 386C1275 383 1269 353 1269 340C1269 314 1287 294 1315 294C1341 294 1361 311 1361 341C1361 409 1285 448 1208 448C1083 448 991 340 991 216ZM1401 0C1434 1 1481 3 1510 3C1540 3 1580 2 1620 0L1620 31C1553 31 1542 31 1542 76L1542 179L1606 234C1683 128 1725 72 1725 54C1725 35 1708 31 1689 31L1689 0C1717 1 1776 3 1797 3C1826 3 1855 2 1884 0L1884 31C1847 31 1825 31 1787 84L1660 263C1659 265 1654 271 1654 274C1654 278 1725 338 1735 346C1798 397 1840 399 1861 400L1861 431C1832 428 1819 428 1791 428C1755 428 1693 430 1679 431L1679 400C1698 399 1708 388 1708 375C1708 355 1694 343 1686 336L1545 214L1545 694L1401 683L1401 652C1471 652 1479 645 1479 596L1479 76C1479 31 1468 31 1401 31ZM1957 -236C1957 -242 1960 -248 1966 -248C1974 -248 1977 -243 1985 -221L2339 723C2340 727 2342 732 2342 736C2342 744 2336 748 2332 748C2321 748 2317 730 2314 723L1961 -220C1957 -231 1957 -233 1957 -236ZM2435 0C2470 3 2544 3 2582 3C2620 3 2695 3 2730 0L2730 31L2706 31C2629 31 2627 42 2627 78L2627 316L2796 316C2916 316 3024 397 3024 497C3024 595 2925 683 2788 683L2435 683L2435 652L2459 652C2536 652 2538 641 2538 605L2538 78C2538 42 2536 31 2459 31L2435 31ZM2624 342L2624 612C2624 645 2626 652 2673 652L2762 652C2921 652 2921 546 2921 497C2921 450 2921 342 2762 342ZM3094 95C3094 14 3191 -11 3254 -11C3320 -11 3366 29 3385 76C3389 36 3416 -6 3463 -6C3484 -6 3545 8 3545 89L3545 145L3520 145L3520 89C3520 31 3495 25 3484 25C3451 25 3447 70 3447 75L3447 275C3447 317 3447 356 3411 393C3372 432 3322 448 3274 448C3192 448 3123 401 3123 335C3123 305 3143 288 3169 288C3197 288 3215 308 3215 334C3215 346 3210 379 3164 380C3191 415 3240 426 3272 426C3321 426 3378 387 3378 298L3378 261C3327 258 3257 255 3194 225C3119 191 3094 139 3094 95ZM3171 96C3171 151 3213 234 3378 240L3378 140C3378 45 3306 11 3261 11C3212 11 3171 46 3171 96ZM3586 216C3586 88 3685 -11 3801 -11C3935 -11 3967 109 3967 119C3967 129 3957 129 3954 129C3945 129 3943 125 3941 119C3912 26 3847 14 3810 14C3757 14 3669 57 3669 218C3669 381 3751 423 3804 423C3813 423 3876 422 3911 386C3870 383 3864 353 3864 340C3864 314 3882 294 3910 294C3936 294 3956 311 3956 341C3956 409 3880 448 3803 448C3678 448 3586 340 3586 216ZM3996 0C4029 1 4076 3 4105 3C4135 3 4175 2 4215 0L4215 31C4148 31 4137 31 4137 76L4137 179L4201 234C4278 128 4320 72 4320 54C4320 35 4303 31 4284 31L4284 0C4312 1 4371 3 4392 3C4421 3 4450 2 4479 0L4479 31C4442 31 4420 31 4382 84L4255 263C4254 265 4249 271 4249 274C4249 278 4320 338 4330 346C4393 397 4435 399 4456 400L4456 431C4427 428 4414 428 4386 428C4350 428 4288 430 4274 431L4274 400C4293 399 4303 388 4303 375C4303 355 4289 343 4281 336L4140 214L4140 694L3996 683L3996 652C4066 652 4074 645 4074 596L4074 76C4074 31 4063 31 3996 31Z" stroke="rgb(0,0,0)" stroke-opacity="1" stroke-width="0" fill="rgb(0,0,0)" fill-opacity="1"></path></g></g></g><g><g><g transform="matrix(1,0,0,1,257.03125,162.7982940673828)"><path transform="matrix(0.015,0,0,-0.015,0,0)" d="M28 0C63 3 142 3 180 3C219 3 298 3 333 0L333 31L307 31C228 31 225 42 225 78L225 605C225 641 228 652 307 652L333 652L333 683C298 680 219 680 181 680C142 680 63 680 28 683L28 652L54 652C133 652 136 641 136 605L136 78C136 42 133 31 54 31L28 31ZM380 400L465 400L465 124C465 1 558 -11 594 -11C665 -11 693 60 693 124L693 181L668 181L668 126C668 52 638 14 601 14C534 14 534 105 534 122L534 400L677 400L677 431L534 431L534 615L509 615C508 533 478 426 380 422ZM777 220C777 86 882 -11 997 -11C1119 -11 1164 100 1164 119C1164 129 1156 131 1151 131C1142 131 1140 125 1138 117C1103 14 1013 14 1003 14C953 14 913 44 890 81C860 129 860 195 860 231L1139 231C1161 231 1164 231 1164 252C1164 351 1110 448 985 448C869 448 777 345 777 220ZM861 252C867 401 951 426 985 426C1088 426 1098 291 1098 252ZM1225 0C1260 1 1311 3 1338 3C1364 3 1416 1 1450 0L1450 31C1383 31 1372 31 1372 76L1372 260C1372 364 1443 420 1507 420C1570 420 1581 366 1581 309L1581 76C1581 31 1570 31 1503 31L1503 0C1538 1 1589 3 1616 3C1642 3 1694 1 1728 0L1728 31C1661 31 1650 31 1650 76L1650 260C1650 364 1721 420 1785 420C1848 420 1859 366 1859 309L1859 76C1859 31 1848 31 1781 31L1781 0C1816 1 1867 3 1894 3C1920 3 1972 1 2006 0L2006 31C1954 31 1929 31 1928 61L1928 252C1928 338 1928 369 1897 405C1883 422 1850 442 1792 442C1708 442 1664 382 1647 344C1633 431 1559 442 1514 442C1441 442 1394 399 1366 337L1366 442L1225 431L1225 400C1295 400 1303 393 1303 344L1303 76C1303 31 1292 31 1225 31ZM2059 13C2059 -4 2059 -11 2070 -11C2075 -11 2076 -10 2095 9C2097 11 2097 13 2115 32C2159 -10 2204 -11 2225 -11C2340 -11 2386 56 2386 128C2386 181 2356 211 2344 223C2311 255 2272 263 2230 271C2174 282 2107 295 2107 353C2107 388 2133 429 2219 429C2329 429 2334 339 2336 308C2337 299 2346 299 2348 299C2361 299 2361 304 2361 323L2361 424C2361 441 2361 448 2350 448C2345 448 2343 448 2330 436C2327 432 2317 423 2313 420C2275 448 2234 448 2219 448C2097 448 2059 381 2059 325C2059 290 2075 262 2102 240C2134 214 2162 208 2234 194C2256 190 2338 174 2338 102C2338 51 2303 11 2225 11C2141 11 2105 68 2086 153C2083 166 2082 170 2072 170C2059 170 2059 163 2059 145Z" stroke="rgb(0,0,0)" stroke-opacity="1" stroke-width="0" fill="rgb(0,0,0)" fill-opacity="1"></path></g></g></g></g><g><g><g><g transform="matrix(1,0,0,1,486.69036865234375,140.89488220214844)"><path transform="matrix(0.015,0,0,-0.015,0,0)" d="M33 0C68 3 142 3 180 3C218 3 293 3 328 0L328 31L304 31C227 31 225 42 225 78L225 340L524 340L524 78C524 42 522 31 445 31L421 31L421 0C456 3 530 3 568 3C606 3 681 3 716 0L716 31L692 31C615 31 613 42 613 78L613 605C613 641 615 652 692 652L716 652L716 683C681 680 607 680 569 680C531 680 456 680 421 683L421 652L445 652C522 652 524 641 524 605L524 371L225 371L225 605C225 641 227 652 304 652L328 652L328 683C293 680 219 680 181 680C143 680 68 680 33 683L33 652L57 652C134 652 136 641 136 605L136 78C136 42 134 31 57 31L33 31ZM778 214C778 85 882 -11 999 -11C1120 -11 1221 87 1221 214C1221 342 1121 448 1000 448C875 448 778 339 778 214ZM861 222C861 261 861 315 885 359C912 405 959 426 999 426C1043 426 1086 404 1112 361C1138 318 1138 260 1138 222C1138 186 1138 132 1116 88C1094 43 1050 14 1000 14C957 14 913 35 886 81C861 125 861 186 861 222ZM1282 0C1317 1 1368 3 1395 3C1421 3 1473 1 1507 0L1507 31C1440 31 1429 31 1429 76L1429 260C1429 364 1500 420 1564 420C1627 420 1638 366 1638 309L1638 76C1638 31 1627 31 1560 31L1560 0C1595 1 1646 3 1673 3C1699 3 1751 1 1785 0L1785 31C1718 31 1707 31 1707 76L1707 260C1707 364 1778 420 1842 420C1905 420 1916 366 1916 309L1916 76C1916 31 1905 31 1838 31L1838 0C1873 1 1924 3 1951 3C1977 3 2029 1 2063 0L2063 31C2011 31 1986 31 1985 61L1985 252C1985 338 1985 369 1954 405C1940 422 1907 442 1849 442C1765 442 1721 382 1704 344C1690 431 1616 442 1571 442C1498 442 1451 399 1423 337L1423 442L1282 431L1282 400C1352 400 1360 393 1360 344L1360 76C1360 31 1349 31 1282 31ZM2111 220C2111 86 2216 -11 2331 -11C2453 -11 2498 100 2498 119C2498 129 2490 131 2485 131C2476 131 2474 125 2472 117C2437 14 2347 14 2337 14C2287 14 2247 44 2224 81C2194 129 2194 195 2194 231L2473 231C2495 231 2498 231 2498 252C2498 351 2444 448 2319 448C2203 448 2111 345 2111 220ZM2195 252C2201 401 2285 426 2319 426C2422 426 2432 291 2432 252Z" stroke="rgb(0,0,0)" stroke-opacity="1" stroke-width="0" fill="rgb(0,0,0)" fill-opacity="1"></path></g></g></g><g><g><g transform="matrix(1,0,0,1,480.98004150390625,162.7982940673828)"><path transform="matrix(0.015,0,0,-0.015,0,0)" d="M35 0L401 0C569 0 707 148 707 336C707 526 572 683 401 683L35 683L35 652L59 652C136 652 138 641 138 605L138 78C138 42 136 31 59 31L35 31ZM224 71L224 612C224 645 226 652 273 652L373 652C435 652 504 630 555 559C598 500 607 414 607 336C607 225 588 165 552 116C532 89 475 31 374 31L273 31C226 31 224 38 224 71ZM791 220C791 86 896 -11 1011 -11C1133 -11 1178 100 1178 119C1178 129 1170 131 1165 131C1156 131 1154 125 1152 117C1117 14 1027 14 1017 14C967 14 927 44 904 81C874 129 874 195 874 231L1153 231C1175 231 1178 231 1178 252C1178 351 1124 448 999 448C883 448 791 345 791 220ZM875 252C881 401 965 426 999 426C1102 426 1112 291 1112 252ZM1240 0C1273 1 1326 3 1351 3C1376 3 1425 1 1462 0L1462 31C1395 31 1384 31 1384 76L1384 694L1240 683L1240 652C1310 652 1318 645 1318 596L1318 76C1318 31 1307 31 1240 31ZM1559 616C1559 589 1581 563 1612 563C1640 563 1665 584 1665 616C1665 648 1640 669 1612 669C1581 669 1559 642 1559 616ZM1517 0C1549 1 1603 3 1627 3C1662 3 1697 1 1731 0L1731 31C1665 31 1661 36 1661 75L1661 442L1521 431L1521 400C1586 400 1595 394 1595 345L1595 76C1595 31 1584 31 1517 31ZM1780 400C1843 400 1847 394 1860 363L2004 8C2010 -6 2012 -11 2025 -11C2038 -11 2042 -2 2046 8L2177 333C2186 356 2203 399 2269 400L2269 431C2246 429 2217 428 2194 428C2170 428 2124 430 2107 431L2107 400C2144 399 2155 376 2155 357C2155 348 2153 344 2149 333L2047 78L1935 357C1929 370 1929 372 1929 374C1929 400 1968 400 1986 400L1986 431C1956 430 1900 428 1877 428C1850 428 1810 429 1780 431ZM2288 220C2288 86 2393 -11 2508 -11C2630 -11 2675 100 2675 119C2675 129 2667 131 2662 131C2653 131 2651 125 2649 117C2614 14 2524 14 2514 14C2464 14 2424 44 2401 81C2371 129 2371 195 2371 231L2650 231C2672 231 2675 231 2675 252C2675 351 2621 448 2496 448C2380 448 2288 345 2288 220ZM2372 252C2378 401 2462 426 2496 426C2599 426 2609 291 2609 252ZM2732 0C2771 1 2818 3 2846 3C2886 3 2933 3 2973 0L2973 31L2952 31C2878 31 2876 42 2876 78L2876 232C2876 331 2918 420 2994 420C3001 420 3003 420 3005 419C3002 418 2982 406 2982 380C2982 352 3003 337 3025 337C3043 337 3068 349 3068 381C3068 413 3037 442 2994 442C2921 442 2885 375 2871 332L2871 442L2732 431L2732 400C2802 400 2810 393 2810 344L2810 76C2810 31 2799 31 2732 31ZM3114 -124C3114 -169 3156 -205 3206 -205C3269 -205 3310 -148 3334 -91L3510 336C3536 399 3587 400 3603 400L3603 431C3580 429 3551 428 3528 428C3510 428 3463 430 3441 431L3441 400C3472 399 3488 382 3488 357C3488 347 3487 345 3482 333L3381 87L3270 356C3266 366 3264 370 3264 374C3264 400 3301 400 3320 400L3320 431C3294 430 3228 428 3211 428C3184 428 3144 429 3114 431L3114 400C3162 400 3181 400 3195 365L3345 0C3340 -13 3326 -46 3320 -59C3298 -114 3270 -183 3206 -183C3201 -183 3178 -183 3159 -165C3190 -161 3198 -139 3198 -123C3198 -97 3179 -81 3156 -81C3136 -81 3114 -94 3114 -124Z" stroke="rgb(0,0,0)" stroke-opacity="1" stroke-width="0" fill="rgb(0,0,0)" fill-opacity="1"></path></g></g></g></g><g><g><g><g transform="matrix(1,0,0,1,590.9800415039062,19.309646606445312)"><path transform="matrix(0.0135,0,0,-0.0135,0,0)" d="M56 342C56 135 218 -22 404 -22C567 -22 665 117 665 233C665 243 665 250 652 250C641 250 641 244 640 234C632 91 525 9 416 9C355 9 159 43 159 341C159 640 354 674 415 674C524 674 613 583 633 437C635 423 635 420 649 420C665 420 665 423 665 444L665 681C665 698 665 705 654 705C650 705 646 705 638 693L588 619C551 655 500 705 404 705C217 705 56 546 56 342ZM754 400C832 400 832 397 832 308L832 158C832 80 832 -11 984 -11C1040 -11 1084 17 1113 79L1113 -11L1257 0L1257 31C1187 31 1179 38 1179 87L1179 442L1032 431L1032 400C1102 400 1110 393 1110 344L1110 166C1110 79 1062 11 989 11C905 11 901 58 901 110L901 442L754 431ZM1310 13C1310 -4 1310 -11 1321 -11C1326 -11 1327 -10 1346 9C1348 11 1348 13 1366 32C1410 -10 1455 -11 1476 -11C1591 -11 1637 56 1637 128C1637 181 1607 211 1595 223C1562 255 1523 263 1481 271C1425 282 1358 295 1358 353C1358 388 1384 429 1470 429C1580 429 1585 339 1587 308C1588 299 1597 299 1599 299C1612 299 1612 304 1612 323L1612 424C1612 441 1612 448 1601 448C1596 448 1594 448 1581 436C1578 432 1568 423 1564 420C1526 448 1485 448 1470 448C1348 448 1310 381 1310 325C1310 290 1326 262 1353 240C1385 214 1413 208 1485 194C1507 190 1589 174 1589 102C1589 51 1554 11 1476 11C1392 11 1356 68 1337 153C1334 166 1333 170 1323 170C1310 170 1310 163 1310 145ZM1690 400L1775 400L1775 124C1775 1 1868 -11 1904 -11C1975 -11 2003 60 2003 124L2003 181L1978 181L1978 126C1978 52 1948 14 1911 14C1844 14 1844 105 1844 122L1844 400L1987 400L1987 431L1844 431L1844 615L1819 615C1818 533 1788 426 1690 422ZM2087 214C2087 85 2191 -11 2308 -11C2429 -11 2530 87 2530 214C2530 342 2430 448 2309 448C2184 448 2087 339 2087 214ZM2170 222C2170 261 2170 315 2194 359C2221 405 2268 426 2308 426C2352 426 2395 404 2421 361C2447 318 2447 260 2447 222C2447 186 2447 132 2425 88C2403 43 2359 14 2309 14C2266 14 2222 35 2195 81C2170 125 2170 186 2170 222ZM2591 0C2626 1 2677 3 2704 3C2730 3 2782 1 2816 0L2816 31C2749 31 2738 31 2738 76L2738 260C2738 364 2809 420 2873 420C2936 420 2947 366 2947 309L2947 76C2947 31 2936 31 2869 31L2869 0C2904 1 2955 3 2982 3C3008 3 3060 1 3094 0L3094 31C3027 31 3016 31 3016 76L3016 260C3016 364 3087 420 3151 420C3214 420 3225 366 3225 309L3225 76C3225 31 3214 31 3147 31L3147 0C3182 1 3233 3 3260 3C3286 3 3338 1 3372 0L3372 31C3320 31 3295 31 3294 61L3294 252C3294 338 3294 369 3263 405C3249 422 3216 442 3158 442C3074 442 3030 382 3013 344C2999 431 2925 442 2880 442C2807 442 2760 399 2732 337L2732 442L2591 431L2591 400C2661 400 2669 393 2669 344L2669 76C2669 31 2658 31 2591 31ZM3420 220C3420 86 3525 -11 3640 -11C3762 -11 3807 100 3807 119C3807 129 3799 131 3794 131C3785 131 3783 125 3781 117C3746 14 3656 14 3646 14C3596 14 3556 44 3533 81C3503 129 3503 195 3503 231L3782 231C3804 231 3807 231 3807 252C3807 351 3753 448 3628 448C3512 448 3420 345 3420 220ZM3504 252C3510 401 3594 426 3628 426C3731 426 3741 291 3741 252ZM3864 0C3903 1 3950 3 3978 3C4018 3 4065 3 4105 0L4105 31L4084 31C4010 31 4008 42 4008 78L4008 232C4008 331 4050 420 4126 420C4133 420 4135 420 4137 419C4134 418 4114 406 4114 380C4114 352 4135 337 4157 337C4175 337 4200 349 4200 381C4200 413 4169 442 4126 442C4053 442 4017 375 4003 332L4003 442L3864 431L3864 400C3934 400 3942 393 3942 344L3942 76C3942 31 3931 31 3864 31Z" stroke="rgb(0,0,0)" stroke-opacity="1" stroke-width="0" fill="rgb(0,0,0)" fill-opacity="1"></path></g></g></g><g><g><g transform="matrix(1,0,0,1,590.9800415039062,40.30397033691406)"><path transform="matrix(0.0135,0,0,-0.0135,0,0)" d="M33 0C68 3 146 3 185 3C226 3 317 3 353 0L353 31L320 31C225 31 225 44 225 79L225 325L311 325C407 325 417 293 417 208L442 208L442 473L417 473C417 389 407 356 311 356L225 356L225 609C225 642 227 649 274 649L394 649C544 649 569 593 585 455L610 455L582 680L33 680L33 649L57 649C134 649 136 638 136 602L136 78C136 42 134 31 57 31L33 31ZM601 400C679 400 679 397 679 308L679 158C679 80 679 -11 831 -11C887 -11 931 17 960 79L960 -11L1104 0L1104 31C1034 31 1026 38 1026 87L1026 442L879 431L879 400C949 400 957 393 957 344L957 166C957 79 909 11 836 11C752 11 748 58 748 110L748 442L601 431ZM1156 0C1191 1 1242 3 1269 3C1295 3 1347 1 1381 0L1381 31C1314 31 1303 31 1303 76L1303 260C1303 364 1374 420 1438 420C1501 420 1512 366 1512 309L1512 76C1512 31 1501 31 1434 31L1434 0C1469 1 1520 3 1547 3C1573 3 1625 1 1659 0L1659 31C1607 31 1582 31 1581 61L1581 252C1581 338 1581 369 1550 405C1536 422 1503 442 1445 442C1372 442 1325 399 1297 337L1297 442L1156 431L1156 400C1226 400 1234 393 1234 344L1234 76C1234 31 1223 31 1156 31ZM1713 216C1713 88 1812 -11 1928 -11C2062 -11 2094 109 2094 119C2094 129 2084 129 2081 129C2072 129 2070 125 2068 119C2039 26 1974 14 1937 14C1884 14 1796 57 1796 218C1796 381 1878 423 1931 423C1940 423 2003 422 2038 386C1997 383 1991 353 1991 340C1991 314 2009 294 2037 294C2063 294 2083 311 2083 341C2083 409 2007 448 1930 448C1805 448 1713 340 1713 216ZM2142 400L2227 400L2227 124C2227 1 2320 -11 2356 -11C2427 -11 2455 60 2455 124L2455 181L2430 181L2430 126C2430 52 2400 14 2363 14C2296 14 2296 105 2296 122L2296 400L2439 400L2439 431L2296 431L2296 615L2271 615C2270 533 2240 426 2142 422ZM2586 616C2586 589 2608 563 2639 563C2667 563 2692 584 2692 616C2692 648 2667 669 2639 669C2608 669 2586 642 2586 616ZM2544 0C2576 1 2630 3 2654 3C2689 3 2724 1 2758 0L2758 31C2692 31 2688 36 2688 75L2688 442L2548 431L2548 400C2613 400 2622 394 2622 345L2622 76C2622 31 2611 31 2544 31ZM2816 214C2816 85 2920 -11 3037 -11C3158 -11 3259 87 3259 214C3259 342 3159 448 3038 448C2913 448 2816 339 2816 214ZM2899 222C2899 261 2899 315 2923 359C2950 405 2997 426 3037 426C3081 426 3124 404 3150 361C3176 318 3176 260 3176 222C3176 186 3176 132 3154 88C3132 43 3088 14 3038 14C2995 14 2951 35 2924 81C2899 125 2899 186 2899 222ZM3320 0C3355 1 3406 3 3433 3C3459 3 3511 1 3545 0L3545 31C3478 31 3467 31 3467 76L3467 260C3467 364 3538 420 3602 420C3665 420 3676 366 3676 309L3676 76C3676 31 3665 31 3598 31L3598 0C3633 1 3684 3 3711 3C3737 3 3789 1 3823 0L3823 31C3771 31 3746 31 3745 61L3745 252C3745 338 3745 369 3714 405C3700 422 3667 442 3609 442C3536 442 3489 399 3461 337L3461 442L3320 431L3320 400C3390 400 3398 393 3398 344L3398 76C3398 31 3387 31 3320 31ZM3876 13C3876 -4 3876 -11 3887 -11C3892 -11 3893 -10 3912 9C3914 11 3914 13 3932 32C3976 -10 4021 -11 4042 -11C4157 -11 4203 56 4203 128C4203 181 4173 211 4161 223C4128 255 4089 263 4047 271C3991 282 3924 295 3924 353C3924 388 3950 429 4036 429C4146 429 4151 339 4153 308C4154 299 4163 299 4165 299C4178 299 4178 304 4178 323L4178 424C4178 441 4178 448 4167 448C4162 448 4160 448 4147 436C4144 432 4134 423 4130 420C4092 448 4051 448 4036 448C3914 448 3876 381 3876 325C3876 290 3892 262 3919 240C3951 214 3979 208 4051 194C4073 190 4155 174 4155 102C4155 51 4120 11 4042 11C3958 11 3922 68 3903 153C3900 166 3899 170 3889 170C3876 170 3876 163 3876 145Z" stroke="rgb(0,0,0)" stroke-opacity="1" stroke-width="0" fill="rgb(0,0,0)" fill-opacity="1"></path></g></g></g><g><g><g transform="matrix(1,0,0,1,590.9800415039062,61.29827880859375)"><path transform="matrix(0.0135,0,0,-0.0135,0,0)" d="M99 250C99 172 110 51 165 -62C225 -185 311 -250 321 -250C327 -250 331 -247 331 -240C331 -237 331 -235 314 -218C189 -92 157 97 157 250C157 424 195 598 318 723C331 735 331 737 331 740C331 747 327 750 321 750C311 750 221 682 162 555C111 445 99 334 99 250ZM416 0C451 3 530 3 568 3C607 3 686 3 721 0L721 31L695 31C616 31 613 42 613 78L613 605C613 641 616 652 695 652L721 652L721 683C686 680 607 680 569 680C530 680 451 680 416 683L416 652L442 652C521 652 524 641 524 605L524 78C524 42 521 31 442 31L416 31ZM781 0C816 1 867 3 894 3C920 3 972 1 1006 0L1006 31C939 31 928 31 928 76L928 260C928 364 999 420 1063 420C1126 420 1137 366 1137 309L1137 76C1137 31 1126 31 1059 31L1059 0C1094 1 1145 3 1172 3C1198 3 1250 1 1284 0L1284 31C1232 31 1207 31 1206 61L1206 252C1206 338 1206 369 1175 405C1161 422 1128 442 1070 442C997 442 950 399 922 337L922 442L781 431L781 400C851 400 859 393 859 344L859 76C859 31 848 31 781 31ZM1314 186L1580 186L1580 245L1314 245ZM1693 2C1693 -15 1693 -22 1704 -22C1711 -22 1712 -20 1719 -9C1719 -8 1722 -5 1755 48C1786 14 1850 -22 1939 -22C2056 -22 2136 76 2136 186C2136 286 2070 368 1986 388L1858 419C1796 434 1757 488 1757 546C1757 616 1811 677 1889 677C2056 677 2078 513 2084 468C2085 462 2085 456 2096 456C2109 456 2109 461 2109 480L2109 681C2109 698 2109 705 2098 705C2091 705 2090 704 2083 692L2048 635C2018 664 1977 705 1888 705C1777 705 1693 617 1693 511C1693 428 1746 355 1824 328C1835 324 1886 312 1956 295C1983 288 2013 281 2041 244C2062 218 2072 185 2072 152C2072 81 2022 9 1938 9C1909 9 1833 14 1780 63C1722 117 1719 181 1718 217C1717 227 1709 227 1706 227C1693 227 1693 220 1693 202ZM2211 400L2296 400L2296 124C2296 1 2389 -11 2425 -11C2496 -11 2524 60 2524 124L2524 181L2499 181L2499 126C2499 52 2469 14 2432 14C2365 14 2365 105 2365 122L2365 400L2508 400L2508 431L2365 431L2365 615L2340 615C2339 533 2309 426 2211 422ZM2608 214C2608 85 2712 -11 2829 -11C2950 -11 3051 87 3051 214C3051 342 2951 448 2830 448C2705 448 2608 339 2608 214ZM2691 222C2691 261 2691 315 2715 359C2742 405 2789 426 2829 426C2873 426 2916 404 2942 361C2968 318 2968 260 2968 222C2968 186 2968 132 2946 88C2924 43 2880 14 2830 14C2787 14 2743 35 2716 81C2691 125 2691 186 2691 222ZM3108 0C3147 1 3194 3 3222 3C3262 3 3309 3 3349 0L3349 31L3328 31C3254 31 3252 42 3252 78L3252 232C3252 331 3294 420 3370 420C3377 420 3379 420 3381 419C3378 418 3358 406 3358 380C3358 352 3379 337 3401 337C3419 337 3444 349 3444 381C3444 413 3413 442 3370 442C3297 442 3261 375 3247 332L3247 442L3108 431L3108 400C3178 400 3186 393 3186 344L3186 76C3186 31 3175 31 3108 31ZM3499 220C3499 86 3604 -11 3719 -11C3841 -11 3886 100 3886 119C3886 129 3878 131 3873 131C3864 131 3862 125 3860 117C3825 14 3735 14 3725 14C3675 14 3635 44 3612 81C3582 129 3582 195 3582 231L3861 231C3883 231 3886 231 3886 252C3886 351 3832 448 3707 448C3591 448 3499 345 3499 220ZM3583 252C3589 401 3673 426 3707 426C3810 426 3820 291 3820 252ZM3972 -240C3972 -246 3976 -250 3982 -250C3992 -250 4082 -182 4141 -55C4192 55 4204 166 4204 250C4204 328 4193 449 4138 562C4078 685 3992 750 3982 750C3976 750 3972 746 3972 740C3972 737 3972 735 3991 717C4089 618 4146 459 4146 250C4146 79 4109 -97 3985 -223C3972 -235 3972 -237 3972 -240Z" stroke="rgb(0,0,0)" stroke-opacity="1" stroke-width="0" fill="rgb(0,0,0)" fill-opacity="1"></path></g></g></g></g><g><g><g><g transform="matrix(1,0,0,1,592.9829711914062,140.30397033691406)"><path transform="matrix(0.0135,0,0,-0.0135,0,0)" d="M56 339C56 134 210 -22 388 -22C570 -22 721 137 721 339C721 543 570 705 388 705C209 705 56 545 56 339ZM159 353C159 612 305 680 388 680C475 680 618 609 618 353C618 88 481 4 389 4C293 4 159 92 159 353ZM833 342C833 135 995 -22 1181 -22C1344 -22 1442 117 1442 233C1442 243 1442 250 1429 250C1418 250 1418 244 1417 234C1409 91 1302 9 1193 9C1132 9 936 43 936 341C936 640 1131 674 1192 674C1301 674 1390 583 1410 437C1412 423 1412 420 1426 420C1442 420 1442 423 1442 444L1442 681C1442 698 1442 705 1431 705C1427 705 1423 705 1415 693L1365 619C1328 655 1277 705 1181 705C994 705 833 546 833 342ZM1888 342C1888 137 2048 -22 2238 -22C2311 -22 2391 4 2425 63C2438 41 2478 1 2489 1C2498 1 2498 9 2498 24L2498 198C2498 237 2502 242 2567 242L2567 273C2530 272 2475 270 2445 270C2405 270 2320 270 2284 273L2284 242L2316 242C2406 242 2409 231 2409 194L2409 130C2409 18 2282 9 2254 9C2189 9 1991 44 1991 342C1991 641 2188 674 2248 674C2355 674 2446 584 2466 437C2468 423 2468 420 2482 420C2498 420 2498 423 2498 444L2498 681C2498 698 2498 705 2487 705C2483 705 2479 705 2471 693L2421 619C2389 651 2335 705 2236 705C2050 705 1888 547 1888 342ZM2644 0C2683 1 2730 3 2758 3C2798 3 2845 3 2885 0L2885 31L2864 31C2790 31 2788 42 2788 78L2788 232C2788 331 2830 420 2906 420C2913 420 2915 420 2917 419C2914 418 2894 406 2894 380C2894 352 2915 337 2937 337C2955 337 2980 349 2980 381C2980 413 2949 442 2906 442C2833 442 2797 375 2783 332L2783 442L2644 431L2644 400C2714 400 2722 393 2722 344L2722 76C2722 31 2711 31 2644 31ZM3035 214C3035 85 3139 -11 3256 -11C3377 -11 3478 87 3478 214C3478 342 3378 448 3257 448C3132 448 3035 339 3035 214ZM3118 222C3118 261 3118 315 3142 359C3169 405 3216 426 3256 426C3300 426 3343 404 3369 361C3395 318 3395 260 3395 222C3395 186 3395 132 3373 88C3351 43 3307 14 3257 14C3214 14 3170 35 3143 81C3118 125 3118 186 3118 222ZM3569 216C3569 88 3668 -11 3784 -11C3918 -11 3950 109 3950 119C3950 129 3940 129 3937 129C3928 129 3926 125 3924 119C3895 26 3830 14 3793 14C3740 14 3652 57 3652 218C3652 381 3734 423 3787 423C3796 423 3859 422 3894 386C3853 383 3847 353 3847 340C3847 314 3865 294 3893 294C3919 294 3939 311 3939 341C3939 409 3863 448 3786 448C3661 448 3569 340 3569 216ZM4007 220C4007 86 4112 -11 4227 -11C4349 -11 4394 100 4394 119C4394 129 4386 131 4381 131C4372 131 4370 125 4368 117C4333 14 4243 14 4233 14C4183 14 4143 44 4120 81C4090 129 4090 195 4090 231L4369 231C4391 231 4394 231 4394 252C4394 351 4340 448 4215 448C4099 448 4007 345 4007 220ZM4091 252C4097 401 4181 426 4215 426C4318 426 4328 291 4328 252ZM4451 0C4490 1 4537 3 4565 3C4605 3 4652 3 4692 0L4692 31L4671 31C4597 31 4595 42 4595 78L4595 232C4595 331 4637 420 4713 420C4720 420 4722 420 4724 419C4721 418 4701 406 4701 380C4701 352 4722 337 4744 337C4762 337 4787 349 4787 381C4787 413 4756 442 4713 442C4640 442 4604 375 4590 332L4590 442L4451 431L4451 400C4521 400 4529 393 4529 344L4529 76C4529 31 4518 31 4451 31Z" stroke="rgb(0,0,0)" stroke-opacity="1" stroke-width="0" fill="rgb(0,0,0)" fill-opacity="1"></path></g></g></g><g><g><g transform="matrix(1,0,0,1,592.9829711914062,161.2982940673828)"><path transform="matrix(0.0135,0,0,-0.0135,0,0)" d="M33 0C68 3 146 3 185 3C226 3 317 3 353 0L353 31L320 31C225 31 225 44 225 79L225 325L311 325C407 325 417 293 417 208L442 208L442 473L417 473C417 389 407 356 311 356L225 356L225 609C225 642 227 649 274 649L394 649C544 649 569 593 585 455L610 455L582 680L33 680L33 649L57 649C134 649 136 638 136 602L136 78C136 42 134 31 57 31L33 31ZM601 400C679 400 679 397 679 308L679 158C679 80 679 -11 831 -11C887 -11 931 17 960 79L960 -11L1104 0L1104 31C1034 31 1026 38 1026 87L1026 442L879 431L879 400C949 400 957 393 957 344L957 166C957 79 909 11 836 11C752 11 748 58 748 110L748 442L601 431ZM1156 0C1191 1 1242 3 1269 3C1295 3 1347 1 1381 0L1381 31C1314 31 1303 31 1303 76L1303 260C1303 364 1374 420 1438 420C1501 420 1512 366 1512 309L1512 76C1512 31 1501 31 1434 31L1434 0C1469 1 1520 3 1547 3C1573 3 1625 1 1659 0L1659 31C1607 31 1582 31 1581 61L1581 252C1581 338 1581 369 1550 405C1536 422 1503 442 1445 442C1372 442 1325 399 1297 337L1297 442L1156 431L1156 400C1226 400 1234 393 1234 344L1234 76C1234 31 1223 31 1156 31ZM1713 216C1713 88 1812 -11 1928 -11C2062 -11 2094 109 2094 119C2094 129 2084 129 2081 129C2072 129 2070 125 2068 119C2039 26 1974 14 1937 14C1884 14 1796 57 1796 218C1796 381 1878 423 1931 423C1940 423 2003 422 2038 386C1997 383 1991 353 1991 340C1991 314 2009 294 2037 294C2063 294 2083 311 2083 341C2083 409 2007 448 1930 448C1805 448 1713 340 1713 216ZM2142 400L2227 400L2227 124C2227 1 2320 -11 2356 -11C2427 -11 2455 60 2455 124L2455 181L2430 181L2430 126C2430 52 2400 14 2363 14C2296 14 2296 105 2296 122L2296 400L2439 400L2439 431L2296 431L2296 615L2271 615C2270 533 2240 426 2142 422ZM2586 616C2586 589 2608 563 2639 563C2667 563 2692 584 2692 616C2692 648 2667 669 2639 669C2608 669 2586 642 2586 616ZM2544 0C2576 1 2630 3 2654 3C2689 3 2724 1 2758 0L2758 31C2692 31 2688 36 2688 75L2688 442L2548 431L2548 400C2613 400 2622 394 2622 345L2622 76C2622 31 2611 31 2544 31ZM2816 214C2816 85 2920 -11 3037 -11C3158 -11 3259 87 3259 214C3259 342 3159 448 3038 448C2913 448 2816 339 2816 214ZM2899 222C2899 261 2899 315 2923 359C2950 405 2997 426 3037 426C3081 426 3124 404 3150 361C3176 318 3176 260 3176 222C3176 186 3176 132 3154 88C3132 43 3088 14 3038 14C2995 14 2951 35 2924 81C2899 125 2899 186 2899 222ZM3320 0C3355 1 3406 3 3433 3C3459 3 3511 1 3545 0L3545 31C3478 31 3467 31 3467 76L3467 260C3467 364 3538 420 3602 420C3665 420 3676 366 3676 309L3676 76C3676 31 3665 31 3598 31L3598 0C3633 1 3684 3 3711 3C3737 3 3789 1 3823 0L3823 31C3771 31 3746 31 3745 61L3745 252C3745 338 3745 369 3714 405C3700 422 3667 442 3609 442C3536 442 3489 399 3461 337L3461 442L3320 431L3320 400C3390 400 3398 393 3398 344L3398 76C3398 31 3387 31 3320 31ZM3876 13C3876 -4 3876 -11 3887 -11C3892 -11 3893 -10 3912 9C3914 11 3914 13 3932 32C3976 -10 4021 -11 4042 -11C4157 -11 4203 56 4203 128C4203 181 4173 211 4161 223C4128 255 4089 263 4047 271C3991 282 3924 295 3924 353C3924 388 3950 429 4036 429C4146 429 4151 339 4153 308C4154 299 4163 299 4165 299C4178 299 4178 304 4178 323L4178 424C4178 441 4178 448 4167 448C4162 448 4160 448 4147 436C4144 432 4134 423 4130 420C4092 448 4051 448 4036 448C3914 448 3876 381 3876 325C3876 290 3892 262 3919 240C3951 214 3979 208 4051 194C4073 190 4155 174 4155 102C4155 51 4120 11 4042 11C3958 11 3922 68 3903 153C3900 166 3899 170 3889 170C3876 170 3876 163 3876 145Z" stroke="rgb(0,0,0)" stroke-opacity="1" stroke-width="0" fill="rgb(0,0,0)" fill-opacity="1"></path></g></g></g></g><g><g><g><g transform="matrix(1,0,0,1,359.9715576171875,30.894882202148438)"><path transform="matrix(0.015,0,0,-0.015,0,0)" d="M56 342C56 135 218 -22 404 -22C567 -22 665 117 665 233C665 243 665 250 652 250C641 250 641 244 640 234C632 91 525 9 416 9C355 9 159 43 159 341C159 640 354 674 415 674C524 674 613 583 633 437C635 423 635 420 649 420C665 420 665 423 665 444L665 681C665 698 665 705 654 705C650 705 646 705 638 693L588 619C551 655 500 705 404 705C217 705 56 546 56 342ZM754 0C789 1 840 3 867 3C893 3 945 1 979 0L979 31C912 31 901 31 901 76L901 260C901 364 972 420 1036 420C1099 420 1110 366 1110 309L1110 76C1110 31 1099 31 1032 31L1032 0C1067 1 1118 3 1145 3C1171 3 1223 1 1257 0L1257 31C1205 31 1180 31 1179 61L1179 252C1179 338 1179 369 1148 405C1134 422 1101 442 1043 442C959 442 915 382 899 346L898 346L898 694L754 683L754 652C824 652 832 645 832 596L832 76C832 31 821 31 754 31ZM1305 220C1305 86 1410 -11 1525 -11C1647 -11 1692 100 1692 119C1692 129 1684 131 1679 131C1670 131 1668 125 1666 117C1631 14 1541 14 1531 14C1481 14 1441 44 1418 81C1388 129 1388 195 1388 231L1667 231C1689 231 1692 231 1692 252C1692 351 1638 448 1513 448C1397 448 1305 345 1305 220ZM1389 252C1395 401 1479 426 1513 426C1616 426 1626 291 1626 252ZM1755 216C1755 88 1854 -11 1970 -11C2104 -11 2136 109 2136 119C2136 129 2126 129 2123 129C2114 129 2112 125 2110 119C2081 26 2016 14 1979 14C1926 14 1838 57 1838 218C1838 381 1920 423 1973 423C1982 423 2045 422 2080 386C2039 383 2033 353 2033 340C2033 314 2051 294 2079 294C2105 294 2125 311 2125 341C2125 409 2049 448 1972 448C1847 448 1755 340 1755 216ZM2165 0C2198 1 2245 3 2274 3C2304 3 2344 2 2384 0L2384 31C2317 31 2306 31 2306 76L2306 179L2370 234C2447 128 2489 72 2489 54C2489 35 2472 31 2453 31L2453 0C2481 1 2540 3 2561 3C2590 3 2619 2 2648 0L2648 31C2611 31 2589 31 2551 84L2424 263C2423 265 2418 271 2418 274C2418 278 2489 338 2499 346C2562 397 2604 399 2625 400L2625 431C2596 428 2583 428 2555 428C2519 428 2457 430 2443 431L2443 400C2462 399 2472 388 2472 375C2472 355 2458 343 2450 336L2309 214L2309 694L2165 683L2165 652C2235 652 2243 645 2243 596L2243 76C2243 31 2232 31 2165 31ZM2664 214C2664 85 2768 -11 2885 -11C3006 -11 3107 87 3107 214C3107 342 3007 448 2886 448C2761 448 2664 339 2664 214ZM2747 222C2747 261 2747 315 2771 359C2798 405 2845 426 2885 426C2929 426 2972 404 2998 361C3024 318 3024 260 3024 222C3024 186 3024 132 3002 88C2980 43 2936 14 2886 14C2843 14 2799 35 2772 81C2747 125 2747 186 2747 222ZM3168 400C3246 400 3246 397 3246 308L3246 158C3246 80 3246 -11 3398 -11C3454 -11 3498 17 3527 79L3527 -11L3671 0L3671 31C3601 31 3593 38 3593 87L3593 442L3446 431L3446 400C3516 400 3524 393 3524 344L3524 166C3524 79 3476 11 3403 11C3319 11 3315 58 3315 110L3315 442L3168 431ZM3710 400L3795 400L3795 124C3795 1 3888 -11 3924 -11C3995 -11 4023 60 4023 124L4023 181L3998 181L3998 126C3998 52 3968 14 3931 14C3864 14 3864 105 3864 122L3864 400L4007 400L4007 431L3864 431L3864 615L3839 615C3838 533 3808 426 3710 422ZM4136 -236C4136 -242 4139 -248 4145 -248C4153 -248 4156 -243 4164 -221L4518 723C4519 727 4521 732 4521 736C4521 744 4515 748 4511 748C4500 748 4496 730 4493 723L4140 -220C4136 -231 4136 -233 4136 -236Z" stroke="rgb(255,255,255)" stroke-opacity="1" stroke-width="0" fill="rgb(255,255,255)" fill-opacity="1"></path></g></g></g><g><g><rect x="367.96875" y="37.79829406738281" width="52.68465805053711" height="18.18181800842285" fill="rgb(255,255,255)" fill-opacity="0" stroke="none"></rect><g transform="matrix(1,0,0,1,367.96875,52.79829406738281)"><path transform="matrix(0.015,0,0,-0.015,0,0)" d="M33 0L554 0L582 258L557 258C546 156 532 31 356 31L274 31C227 31 225 38 225 71L225 604C225 638 225 652 320 652L353 652L353 683C317 680 226 680 185 680C146 680 68 680 33 683L33 652L57 652C134 652 136 641 136 605L136 78C136 42 134 31 57 31L33 31ZM653 214C653 85 757 -11 874 -11C995 -11 1096 87 1096 214C1096 342 996 448 875 448C750 448 653 339 653 214ZM736 222C736 261 736 315 760 359C787 405 834 426 874 426C918 426 961 404 987 361C1013 318 1013 260 1013 222C1013 186 1013 132 991 88C969 43 925 14 875 14C832 14 788 35 761 81C736 125 736 186 736 222ZM1167 95C1167 14 1264 -11 1327 -11C1393 -11 1439 29 1458 76C1462 36 1489 -6 1536 -6C1557 -6 1618 8 1618 89L1618 145L1593 145L1593 89C1593 31 1568 25 1557 25C1524 25 1520 70 1520 75L1520 275C1520 317 1520 356 1484 393C1445 432 1395 448 1347 448C1265 448 1196 401 1196 335C1196 305 1216 288 1242 288C1270 288 1288 308 1288 334C1288 346 1283 379 1237 380C1264 415 1313 426 1345 426C1394 426 1451 387 1451 298L1451 261C1400 258 1330 255 1267 225C1192 191 1167 139 1167 95ZM1244 96C1244 151 1286 234 1451 240L1451 140C1451 45 1379 11 1334 11C1285 11 1244 46 1244 96ZM1659 215C1659 88 1757 -11 1871 -11C1935 -11 1980 23 2005 55L2005 -11L2152 0L2152 31C2082 31 2074 38 2074 87L2074 694L1930 683L1930 652C2000 652 2008 645 2008 596L2008 380C1979 416 1936 442 1882 442C1764 442 1659 344 1659 215ZM1742 214C1742 251 1744 311 1773 356C1794 387 1832 420 1886 420C1921 420 1963 405 1994 360C2005 343 2005 341 2005 323L2005 118C2005 100 2005 98 1994 81C1964 33 1919 11 1876 11C1831 11 1795 37 1771 75C1745 116 1742 173 1742 214ZM2255 616C2255 589 2277 563 2308 563C2336 563 2361 584 2361 616C2361 648 2336 669 2308 669C2277 669 2255 642 2255 616ZM2213 0C2245 1 2299 3 2323 3C2358 3 2393 1 2427 0L2427 31C2361 31 2357 36 2357 75L2357 442L2217 431L2217 400C2282 400 2291 394 2291 345L2291 76C2291 31 2280 31 2213 31ZM2489 0C2524 1 2575 3 2602 3C2628 3 2680 1 2714 0L2714 31C2647 31 2636 31 2636 76L2636 260C2636 364 2707 420 2771 420C2834 420 2845 366 2845 309L2845 76C2845 31 2834 31 2767 31L2767 0C2802 1 2853 3 2880 3C2906 3 2958 1 2992 0L2992 31C2940 31 2915 31 2914 61L2914 252C2914 338 2914 369 2883 405C2869 422 2836 442 2778 442C2705 442 2658 399 2630 337L2630 442L2489 431L2489 400C2559 400 2567 393 2567 344L2567 76C2567 31 2556 31 2489 31ZM3040 -79C3040 -151 3139 -206 3261 -206C3379 -206 3483 -155 3483 -77C3483 -42 3469 9 3418 37C3365 65 3307 65 3246 65C3221 65 3178 65 3171 66C3139 70 3118 101 3118 133C3118 137 3118 160 3135 180C3174 152 3215 149 3234 149C3327 149 3396 218 3396 295C3396 332 3380 369 3355 392C3391 426 3427 431 3445 431C3447 431 3452 431 3455 430C3444 426 3439 415 3439 403C3439 386 3452 374 3468 374C3478 374 3497 381 3497 404C3497 421 3485 453 3446 453C3426 453 3382 447 3340 406C3298 439 3256 442 3234 442C3141 442 3072 373 3072 296C3072 252 3094 214 3119 193C3106 178 3088 145 3088 110C3088 79 3101 41 3132 21C3072 4 3040 -39 3040 -79ZM3092 -79C3092 -33 3130 4 3174 7L3233 7C3319 7 3431 7 3431 -79C3431 -133 3360 -183 3262 -183C3161 -183 3092 -132 3092 -79ZM3147 295C3147 322 3148 354 3163 379C3171 391 3194 419 3234 419C3321 419 3321 319 3321 296C3321 269 3320 237 3305 212C3297 200 3274 172 3234 172C3147 172 3147 272 3147 295Z" stroke="rgb(255,255,255)" stroke-opacity="1" stroke-width="0" fill="rgb(255,255,255)" fill-opacity="1"></path></g></g></g></g><g><g><g><g transform="matrix(1,0,0,1,359.9715576171875,140.89488220214844)"><path transform="matrix(0.015,0,0,-0.015,0,0)" d="M56 342C56 135 218 -22 404 -22C567 -22 665 117 665 233C665 243 665 250 652 250C641 250 641 244 640 234C632 91 525 9 416 9C355 9 159 43 159 341C159 640 354 674 415 674C524 674 613 583 633 437C635 423 635 420 649 420C665 420 665 423 665 444L665 681C665 698 665 705 654 705C650 705 646 705 638 693L588 619C551 655 500 705 404 705C217 705 56 546 56 342ZM754 0C789 1 840 3 867 3C893 3 945 1 979 0L979 31C912 31 901 31 901 76L901 260C901 364 972 420 1036 420C1099 420 1110 366 1110 309L1110 76C1110 31 1099 31 1032 31L1032 0C1067 1 1118 3 1145 3C1171 3 1223 1 1257 0L1257 31C1205 31 1180 31 1179 61L1179 252C1179 338 1179 369 1148 405C1134 422 1101 442 1043 442C959 442 915 382 899 346L898 346L898 694L754 683L754 652C824 652 832 645 832 596L832 76C832 31 821 31 754 31ZM1305 220C1305 86 1410 -11 1525 -11C1647 -11 1692 100 1692 119C1692 129 1684 131 1679 131C1670 131 1668 125 1666 117C1631 14 1541 14 1531 14C1481 14 1441 44 1418 81C1388 129 1388 195 1388 231L1667 231C1689 231 1692 231 1692 252C1692 351 1638 448 1513 448C1397 448 1305 345 1305 220ZM1389 252C1395 401 1479 426 1513 426C1616 426 1626 291 1626 252ZM1755 216C1755 88 1854 -11 1970 -11C2104 -11 2136 109 2136 119C2136 129 2126 129 2123 129C2114 129 2112 125 2110 119C2081 26 2016 14 1979 14C1926 14 1838 57 1838 218C1838 381 1920 423 1973 423C1982 423 2045 422 2080 386C2039 383 2033 353 2033 340C2033 314 2051 294 2079 294C2105 294 2125 311 2125 341C2125 409 2049 448 1972 448C1847 448 1755 340 1755 216ZM2165 0C2198 1 2245 3 2274 3C2304 3 2344 2 2384 0L2384 31C2317 31 2306 31 2306 76L2306 179L2370 234C2447 128 2489 72 2489 54C2489 35 2472 31 2453 31L2453 0C2481 1 2540 3 2561 3C2590 3 2619 2 2648 0L2648 31C2611 31 2589 31 2551 84L2424 263C2423 265 2418 271 2418 274C2418 278 2489 338 2499 346C2562 397 2604 399 2625 400L2625 431C2596 428 2583 428 2555 428C2519 428 2457 430 2443 431L2443 400C2462 399 2472 388 2472 375C2472 355 2458 343 2450 336L2309 214L2309 694L2165 683L2165 652C2235 652 2243 645 2243 596L2243 76C2243 31 2232 31 2165 31ZM2664 214C2664 85 2768 -11 2885 -11C3006 -11 3107 87 3107 214C3107 342 3007 448 2886 448C2761 448 2664 339 2664 214ZM2747 222C2747 261 2747 315 2771 359C2798 405 2845 426 2885 426C2929 426 2972 404 2998 361C3024 318 3024 260 3024 222C3024 186 3024 132 3002 88C2980 43 2936 14 2886 14C2843 14 2799 35 2772 81C2747 125 2747 186 2747 222ZM3168 400C3246 400 3246 397 3246 308L3246 158C3246 80 3246 -11 3398 -11C3454 -11 3498 17 3527 79L3527 -11L3671 0L3671 31C3601 31 3593 38 3593 87L3593 442L3446 431L3446 400C3516 400 3524 393 3524 344L3524 166C3524 79 3476 11 3403 11C3319 11 3315 58 3315 110L3315 442L3168 431ZM3710 400L3795 400L3795 124C3795 1 3888 -11 3924 -11C3995 -11 4023 60 4023 124L4023 181L3998 181L3998 126C3998 52 3968 14 3931 14C3864 14 3864 105 3864 122L3864 400L4007 400L4007 431L3864 431L3864 615L3839 615C3838 533 3808 426 3710 422ZM4136 -236C4136 -242 4139 -248 4145 -248C4153 -248 4156 -243 4164 -221L4518 723C4519 727 4521 732 4521 736C4521 744 4515 748 4511 748C4500 748 4496 730 4493 723L4140 -220C4136 -231 4136 -233 4136 -236Z" stroke="rgb(0,0,0)" stroke-opacity="1" stroke-width="0" fill="rgb(0,0,0)" fill-opacity="1"></path></g></g></g><g><g><g transform="matrix(1,0,0,1,367.96875,162.7982940673828)"><path transform="matrix(0.015,0,0,-0.015,0,0)" d="M33 0L554 0L582 258L557 258C546 156 532 31 356 31L274 31C227 31 225 38 225 71L225 604C225 638 225 652 320 652L353 652L353 683C317 680 226 680 185 680C146 680 68 680 33 683L33 652L57 652C134 652 136 641 136 605L136 78C136 42 134 31 57 31L33 31ZM653 214C653 85 757 -11 874 -11C995 -11 1096 87 1096 214C1096 342 996 448 875 448C750 448 653 339 653 214ZM736 222C736 261 736 315 760 359C787 405 834 426 874 426C918 426 961 404 987 361C1013 318 1013 260 1013 222C1013 186 1013 132 991 88C969 43 925 14 875 14C832 14 788 35 761 81C736 125 736 186 736 222ZM1167 95C1167 14 1264 -11 1327 -11C1393 -11 1439 29 1458 76C1462 36 1489 -6 1536 -6C1557 -6 1618 8 1618 89L1618 145L1593 145L1593 89C1593 31 1568 25 1557 25C1524 25 1520 70 1520 75L1520 275C1520 317 1520 356 1484 393C1445 432 1395 448 1347 448C1265 448 1196 401 1196 335C1196 305 1216 288 1242 288C1270 288 1288 308 1288 334C1288 346 1283 379 1237 380C1264 415 1313 426 1345 426C1394 426 1451 387 1451 298L1451 261C1400 258 1330 255 1267 225C1192 191 1167 139 1167 95ZM1244 96C1244 151 1286 234 1451 240L1451 140C1451 45 1379 11 1334 11C1285 11 1244 46 1244 96ZM1659 215C1659 88 1757 -11 1871 -11C1935 -11 1980 23 2005 55L2005 -11L2152 0L2152 31C2082 31 2074 38 2074 87L2074 694L1930 683L1930 652C2000 652 2008 645 2008 596L2008 380C1979 416 1936 442 1882 442C1764 442 1659 344 1659 215ZM1742 214C1742 251 1744 311 1773 356C1794 387 1832 420 1886 420C1921 420 1963 405 1994 360C2005 343 2005 341 2005 323L2005 118C2005 100 2005 98 1994 81C1964 33 1919 11 1876 11C1831 11 1795 37 1771 75C1745 116 1742 173 1742 214ZM2255 616C2255 589 2277 563 2308 563C2336 563 2361 584 2361 616C2361 648 2336 669 2308 669C2277 669 2255 642 2255 616ZM2213 0C2245 1 2299 3 2323 3C2358 3 2393 1 2427 0L2427 31C2361 31 2357 36 2357 75L2357 442L2217 431L2217 400C2282 400 2291 394 2291 345L2291 76C2291 31 2280 31 2213 31ZM2489 0C2524 1 2575 3 2602 3C2628 3 2680 1 2714 0L2714 31C2647 31 2636 31 2636 76L2636 260C2636 364 2707 420 2771 420C2834 420 2845 366 2845 309L2845 76C2845 31 2834 31 2767 31L2767 0C2802 1 2853 3 2880 3C2906 3 2958 1 2992 0L2992 31C2940 31 2915 31 2914 61L2914 252C2914 338 2914 369 2883 405C2869 422 2836 442 2778 442C2705 442 2658 399 2630 337L2630 442L2489 431L2489 400C2559 400 2567 393 2567 344L2567 76C2567 31 2556 31 2489 31ZM3040 -79C3040 -151 3139 -206 3261 -206C3379 -206 3483 -155 3483 -77C3483 -42 3469 9 3418 37C3365 65 3307 65 3246 65C3221 65 3178 65 3171 66C3139 70 3118 101 3118 133C3118 137 3118 160 3135 180C3174 152 3215 149 3234 149C3327 149 3396 218 3396 295C3396 332 3380 369 3355 392C3391 426 3427 431 3445 431C3447 431 3452 431 3455 430C3444 426 3439 415 3439 403C3439 386 3452 374 3468 374C3478 374 3497 381 3497 404C3497 421 3485 453 3446 453C3426 453 3382 447 3340 406C3298 439 3256 442 3234 442C3141 442 3072 373 3072 296C3072 252 3094 214 3119 193C3106 178 3088 145 3088 110C3088 79 3101 41 3132 21C3072 4 3040 -39 3040 -79ZM3092 -79C3092 -33 3130 4 3174 7L3233 7C3319 7 3431 7 3431 -79C3431 -133 3360 -183 3262 -183C3161 -183 3092 -132 3092 -79ZM3147 295C3147 322 3148 354 3163 379C3171 391 3194 419 3234 419C3321 419 3321 319 3321 296C3321 269 3320 237 3305 212C3297 200 3274 172 3234 172C3147 172 3147 272 3147 295Z" stroke="rgb(0,0,0)" stroke-opacity="1" stroke-width="0" fill="rgb(0,0,0)" fill-opacity="1"></path></g></g></g></g></svg>
</svg>
