<?xml version="1.0" encoding="utf-8" standalone="no"?>
<!DOCTYPE svg PUBLIC "-//W3C//DTD SVG 1.1//EN"
  "http://www.w3.org/Graphics/SVG/1.1/DTD/svg11.dtd">
<svg xmlns:xlink="http://www.w3.org/1999/xlink" width="443.337484pt" height="273.997634pt" viewBox="0 0 443.337484 273.997634" xmlns="http://www.w3.org/2000/svg" version="1.1">
 <metadata>
  <rdf:RDF xmlns:dc="http://purl.org/dc/elements/1.1/" xmlns:cc="http://creativecommons.org/ns#" xmlns:rdf="http://www.w3.org/1999/02/22-rdf-syntax-ns#">
   <cc:Work>
    <dc:type rdf:resource="http://purl.org/dc/dcmitype/StillImage"/>
    <dc:date>2022-04-04T16:05:20.598522</dc:date>
    <dc:format>image/svg+xml</dc:format>
    <dc:creator>
     <cc:Agent>
      <dc:title>Matplotlib v3.5.0, https://matplotlib.org/</dc:title>
     </cc:Agent>
    </dc:creator>
   </cc:Work>
  </rdf:RDF>
 </metadata>
 <defs>
  <style type="text/css">*{stroke-linejoin: round; stroke-linecap: butt}</style>
 </defs>
 <g id="figure_1">
  <g id="patch_1">
   <path d="M 0 273.997634 
L 443.337484 273.997634 
L 443.337484 0 
L 0 0 
z
" style="fill: #ffffff"/>
  </g>
  <g id="axes_1">
   <g id="patch_2">
    <path d="M 65.75714 218.209617 
L 217.797647 218.209617 
L 217.797647 28.645892 
L 65.75714 28.645892 
z
" style="fill: #ffffff"/>
   </g>
   <g id="line2d_1">
    <path d="M 65.75714 118.181526 
L 217.797647 118.181526 
" clip-path="url(#pc1ab7e3706)" style="fill: none; stroke: #000000; stroke-width: 1.3; stroke-linecap: round"/>
   </g>
   <g id="matplotlib.axis_1">
    <g id="xtick_1">
     <g id="line2d_2">
      <defs>
       <path id="m4af1413fd2" d="M 0 0 
L 0 6 
" style="stroke: #262626; stroke-width: 0.8"/>
      </defs>
      <g>
       <use xlink:href="#m4af1413fd2" x="72.668072" y="218.209617" style="fill: #262626; stroke: #262626; stroke-width: 0.8"/>
      </g>
     </g>
     <g id="text_1">
      <!-- $25C$ -->
      <g style="fill: #262626" transform="translate(63.272321 235.319964)scale(0.11 -0.11)">
       <defs>
        <path id="CMR17-32" d="M 2669 990 
L 2554 990 
C 2490 537 2438 460 2413 422 
C 2381 371 1920 371 1830 371 
L 602 371 
C 832 620 1280 1073 1824 1596 
C 2214 1966 2669 2400 2669 3033 
C 2669 3788 2067 4224 1395 4224 
C 691 4224 262 3603 262 3027 
C 262 2777 448 2745 525 2745 
C 589 2745 781 2783 781 3007 
C 781 3206 614 3264 525 3264 
C 486 3264 448 3257 422 3244 
C 544 3788 915 4057 1306 4057 
C 1862 4057 2227 3616 2227 3033 
C 2227 2477 1901 1998 1536 1583 
L 262 147 
L 262 0 
L 2515 0 
L 2669 990 
z
" transform="scale(0.015625)"/>
        <path id="CMR17-35" d="M 730 3750 
C 794 3724 1056 3641 1325 3641 
C 1920 3641 2246 3961 2432 4140 
C 2432 4191 2432 4224 2394 4224 
C 2387 4224 2374 4224 2323 4198 
C 2099 4102 1837 4032 1517 4032 
C 1325 4032 1037 4055 723 4191 
C 653 4224 640 4224 634 4224 
C 602 4224 595 4217 595 4090 
L 595 2231 
C 595 2113 595 2080 659 2080 
C 691 2080 704 2093 736 2139 
C 941 2435 1222 2560 1542 2560 
C 1766 2560 2246 2415 2246 1293 
C 2246 1087 2246 716 2054 422 
C 1894 159 1645 25 1370 25 
C 947 25 518 319 403 812 
C 429 806 480 793 506 793 
C 589 793 749 838 749 1036 
C 749 1209 627 1280 506 1280 
C 358 1280 262 1190 262 1011 
C 262 454 704 -128 1382 -128 
C 2042 -128 2669 441 2669 1267 
C 2669 2054 2170 2662 1549 2662 
C 1222 2662 947 2540 730 2304 
L 730 3750 
z
" transform="scale(0.015625)"/>
        <path id="CMMI12-43" d="M 4781 4422 
C 4781 4480 4736 4480 4723 4480 
C 4710 4480 4685 4480 4634 4415 
L 4192 3881 
C 3968 4262 3616 4480 3136 4480 
C 1754 4480 320 3087 320 1594 
C 320 533 1069 -128 2003 -128 
C 2515 -128 2963 89 3334 400 
C 3891 864 4058 1480 4058 1531 
C 4058 1588 4006 1588 3987 1588 
C 3930 1588 3923 1550 3910 1524 
C 3616 533 2752 57 2112 57 
C 1434 57 845 489 845 1391 
C 845 1594 909 2699 1632 3531 
C 1984 3938 2586 4294 3194 4294 
C 3898 4294 4211 3716 4211 3068 
C 4211 2903 4192 2763 4192 2737 
C 4192 2680 4256 2680 4275 2680 
C 4346 2680 4352 2687 4378 2801 
L 4781 4422 
z
" transform="scale(0.015625)"/>
       </defs>
       <use xlink:href="#CMR17-32" transform="scale(0.996264)"/>
       <use xlink:href="#CMR17-35" transform="translate(45.690477 0)scale(0.996264)"/>
       <use xlink:href="#CMMI12-43" transform="translate(91.380954 0)scale(0.996264)"/>
      </g>
     </g>
    </g>
    <g id="xtick_2">
     <g id="line2d_3">
      <g>
       <use xlink:href="#m4af1413fd2" x="118.740953" y="218.209617" style="fill: #262626; stroke: #262626; stroke-width: 0.8"/>
      </g>
     </g>
     <g id="text_2">
      <!-- $50C$ -->
      <g style="fill: #262626" transform="translate(109.345202 235.319964)scale(0.11 -0.11)">
       <defs>
        <path id="CMR17-30" d="M 2688 2038 
C 2688 2430 2682 3099 2413 3613 
C 2176 4063 1798 4224 1466 4224 
C 1158 4224 768 4082 525 3620 
C 269 3137 243 2539 243 2038 
C 243 1671 250 1112 448 623 
C 723 -39 1216 -128 1466 -128 
C 1760 -128 2208 -7 2470 604 
C 2662 1048 2688 1568 2688 2038 
z
M 1466 -26 
C 1056 -26 813 328 723 816 
C 653 1196 653 1749 653 2109 
C 653 2604 653 3015 736 3407 
C 858 3954 1216 4121 1466 4121 
C 1728 4121 2067 3947 2189 3420 
C 2272 3054 2278 2623 2278 2109 
C 2278 1691 2278 1176 2202 797 
C 2067 96 1690 -26 1466 -26 
z
" transform="scale(0.015625)"/>
       </defs>
       <use xlink:href="#CMR17-35" transform="scale(0.996264)"/>
       <use xlink:href="#CMR17-30" transform="translate(45.690477 0)scale(0.996264)"/>
       <use xlink:href="#CMMI12-43" transform="translate(91.380954 0)scale(0.996264)"/>
      </g>
     </g>
    </g>
    <g id="xtick_3">
     <g id="line2d_4">
      <g>
       <use xlink:href="#m4af1413fd2" x="164.813834" y="218.209617" style="fill: #262626; stroke: #262626; stroke-width: 0.8"/>
      </g>
     </g>
     <g id="text_3">
      <!-- $100C$ -->
      <g style="fill: #262626" transform="translate(152.67835 235.319964)scale(0.11 -0.11)">
       <defs>
        <path id="CMR17-31" d="M 1702 4083 
C 1702 4217 1696 4224 1606 4224 
C 1357 3927 979 3833 621 3820 
C 602 3820 570 3820 563 3808 
C 557 3795 557 3782 557 3648 
C 755 3648 1088 3686 1344 3839 
L 1344 467 
C 1344 243 1331 166 781 166 
L 589 166 
L 589 0 
C 896 6 1216 12 1523 12 
C 1830 12 2150 6 2458 0 
L 2458 166 
L 2266 166 
C 1715 166 1702 236 1702 467 
L 1702 4083 
z
" transform="scale(0.015625)"/>
       </defs>
       <use xlink:href="#CMR17-31" transform="scale(0.996264)"/>
       <use xlink:href="#CMR17-30" transform="translate(45.690477 0)scale(0.996264)"/>
       <use xlink:href="#CMR17-30" transform="translate(91.380954 0)scale(0.996264)"/>
       <use xlink:href="#CMMI12-43" transform="translate(137.071431 0)scale(0.996264)"/>
      </g>
     </g>
    </g>
    <g id="xtick_4">
     <g id="line2d_5">
      <g>
       <use xlink:href="#m4af1413fd2" x="210.886715" y="218.209617" style="fill: #262626; stroke: #262626; stroke-width: 0.8"/>
      </g>
     </g>
     <g id="text_4">
      <!-- $150C$ -->
      <g style="fill: #262626" transform="translate(198.751231 235.319964)scale(0.11 -0.11)">
       <use xlink:href="#CMR17-31" transform="scale(0.996264)"/>
       <use xlink:href="#CMR17-35" transform="translate(45.690477 0)scale(0.996264)"/>
       <use xlink:href="#CMR17-30" transform="translate(91.380954 0)scale(0.996264)"/>
       <use xlink:href="#CMMI12-43" transform="translate(137.071431 0)scale(0.996264)"/>
      </g>
     </g>
    </g>
   </g>
   <g id="matplotlib.axis_2">
    <g id="ytick_1">
     <g id="line2d_6">
      <path d="M 65.75714 205.618668 
L 217.797647 205.618668 
" clip-path="url(#pc1ab7e3706)" style="fill: none; stroke: #cccccc; stroke-width: 0.8; stroke-linecap: round"/>
     </g>
     <g id="line2d_7">
      <defs>
       <path id="mb48fae70c5" d="M 0 0 
L -6 0 
" style="stroke: #262626; stroke-width: 0.8"/>
      </defs>
      <g>
       <use xlink:href="#mb48fae70c5" x="65.75714" y="205.618668" style="fill: #262626; stroke: #262626; stroke-width: 0.8"/>
      </g>
     </g>
     <g id="text_5">
      <!-- $\mathdefault{−12.5}$ -->
      <g style="fill: #262626" transform="translate(28.250987 209.423842)scale(0.11 -0.11)">
       <defs>
        <path id="CMSY10-0" d="M 4218 1472 
C 4326 1472 4442 1472 4442 1600 
C 4442 1728 4326 1728 4218 1728 
L 755 1728 
C 646 1728 531 1728 531 1600 
C 531 1472 646 1472 755 1472 
L 4218 1472 
z
" transform="scale(0.015625)"/>
        <path id="CMMI12-3a" d="M 1178 307 
C 1178 492 1024 620 870 620 
C 685 620 557 467 557 313 
C 557 128 710 0 864 0 
C 1050 0 1178 153 1178 307 
z
" transform="scale(0.015625)"/>
       </defs>
       <use xlink:href="#CMSY10-0" transform="scale(0.996264)"/>
       <use xlink:href="#CMR17-31" transform="translate(77.487468 0)scale(0.996264)"/>
       <use xlink:href="#CMR17-32" transform="translate(123.177945 0)scale(0.996264)"/>
       <use xlink:href="#CMMI12-3a" transform="translate(168.868422 0)scale(0.996264)"/>
       <use xlink:href="#CMR17-35" transform="translate(195.965599 0)scale(0.996264)"/>
      </g>
     </g>
    </g>
    <g id="ytick_2">
     <g id="line2d_8">
      <path d="M 65.75714 188.13124 
L 217.797647 188.13124 
" clip-path="url(#pc1ab7e3706)" style="fill: none; stroke: #cccccc; stroke-width: 0.8; stroke-linecap: round"/>
     </g>
     <g id="line2d_9">
      <g>
       <use xlink:href="#mb48fae70c5" x="65.75714" y="188.13124" style="fill: #262626; stroke: #262626; stroke-width: 0.8"/>
      </g>
     </g>
     <g id="text_6">
      <!-- $\mathdefault{−10.0}$ -->
      <g style="fill: #262626" transform="translate(28.250987 191.936413)scale(0.11 -0.11)">
       <use xlink:href="#CMSY10-0" transform="scale(0.996264)"/>
       <use xlink:href="#CMR17-31" transform="translate(77.487468 0)scale(0.996264)"/>
       <use xlink:href="#CMR17-30" transform="translate(123.177945 0)scale(0.996264)"/>
       <use xlink:href="#CMMI12-3a" transform="translate(168.868422 0)scale(0.996264)"/>
       <use xlink:href="#CMR17-30" transform="translate(195.965599 0)scale(0.996264)"/>
      </g>
     </g>
    </g>
    <g id="ytick_3">
     <g id="line2d_10">
      <path d="M 65.75714 170.643811 
L 217.797647 170.643811 
" clip-path="url(#pc1ab7e3706)" style="fill: none; stroke: #cccccc; stroke-width: 0.8; stroke-linecap: round"/>
     </g>
     <g id="line2d_11">
      <g>
       <use xlink:href="#mb48fae70c5" x="65.75714" y="170.643811" style="fill: #262626; stroke: #262626; stroke-width: 0.8"/>
      </g>
     </g>
     <g id="text_7">
      <!-- $\mathdefault{−7.5}$ -->
      <g style="fill: #262626" transform="translate(33.730454 174.448985)scale(0.11 -0.11)">
       <defs>
        <path id="CMR17-37" d="M 2886 3955 
L 2886 4096 
L 1382 4096 
C 634 4096 621 4166 595 4288 
L 480 4288 
L 294 3104 
L 410 3104 
C 429 3226 474 3552 550 3673 
C 589 3724 1062 3724 1171 3724 
L 2579 3724 
L 1869 2670 
C 1395 1961 1069 1003 1069 166 
C 1069 89 1069 -128 1299 -128 
C 1530 -128 1530 89 1530 172 
L 1530 466 
C 1530 1514 1709 2204 2003 2644 
L 2886 3955 
z
" transform="scale(0.015625)"/>
       </defs>
       <use xlink:href="#CMSY10-0" transform="scale(0.996264)"/>
       <use xlink:href="#CMR17-37" transform="translate(77.487468 0)scale(0.996264)"/>
       <use xlink:href="#CMMI12-3a" transform="translate(123.177945 0)scale(0.996264)"/>
       <use xlink:href="#CMR17-35" transform="translate(150.275122 0)scale(0.996264)"/>
      </g>
     </g>
    </g>
    <g id="ytick_4">
     <g id="line2d_12">
      <path d="M 65.75714 153.156383 
L 217.797647 153.156383 
" clip-path="url(#pc1ab7e3706)" style="fill: none; stroke: #cccccc; stroke-width: 0.8; stroke-linecap: round"/>
     </g>
     <g id="line2d_13">
      <g>
       <use xlink:href="#mb48fae70c5" x="65.75714" y="153.156383" style="fill: #262626; stroke: #262626; stroke-width: 0.8"/>
      </g>
     </g>
     <g id="text_8">
      <!-- $\mathdefault{−5.0}$ -->
      <g style="fill: #262626" transform="translate(33.730454 156.961556)scale(0.11 -0.11)">
       <use xlink:href="#CMSY10-0" transform="scale(0.996264)"/>
       <use xlink:href="#CMR17-35" transform="translate(77.487468 0)scale(0.996264)"/>
       <use xlink:href="#CMMI12-3a" transform="translate(123.177945 0)scale(0.996264)"/>
       <use xlink:href="#CMR17-30" transform="translate(150.275122 0)scale(0.996264)"/>
      </g>
     </g>
    </g>
    <g id="ytick_5">
     <g id="line2d_14">
      <path d="M 65.75714 135.668954 
L 217.797647 135.668954 
" clip-path="url(#pc1ab7e3706)" style="fill: none; stroke: #cccccc; stroke-width: 0.8; stroke-linecap: round"/>
     </g>
     <g id="line2d_15">
      <g>
       <use xlink:href="#mb48fae70c5" x="65.75714" y="135.668954" style="fill: #262626; stroke: #262626; stroke-width: 0.8"/>
      </g>
     </g>
     <g id="text_9">
      <!-- $\mathdefault{−2.5}$ -->
      <g style="fill: #262626" transform="translate(33.730454 139.474128)scale(0.11 -0.11)">
       <use xlink:href="#CMSY10-0" transform="scale(0.996264)"/>
       <use xlink:href="#CMR17-32" transform="translate(77.487468 0)scale(0.996264)"/>
       <use xlink:href="#CMMI12-3a" transform="translate(123.177945 0)scale(0.996264)"/>
       <use xlink:href="#CMR17-35" transform="translate(150.275122 0)scale(0.996264)"/>
      </g>
     </g>
    </g>
    <g id="ytick_6">
     <g id="line2d_16">
      <path d="M 65.75714 118.181526 
L 217.797647 118.181526 
" clip-path="url(#pc1ab7e3706)" style="fill: none; stroke: #cccccc; stroke-width: 0.8; stroke-linecap: round"/>
     </g>
     <g id="line2d_17">
      <g>
       <use xlink:href="#mb48fae70c5" x="65.75714" y="118.181526" style="fill: #262626; stroke: #262626; stroke-width: 0.8"/>
      </g>
     </g>
     <g id="text_10">
      <!-- $\mathdefault{0.0}$ -->
      <g style="fill: #262626" transform="translate(42.254063 121.986699)scale(0.11 -0.11)">
       <use xlink:href="#CMR17-30" transform="scale(0.996264)"/>
       <use xlink:href="#CMMI12-3a" transform="translate(45.690477 0)scale(0.996264)"/>
       <use xlink:href="#CMR17-30" transform="translate(72.787654 0)scale(0.996264)"/>
      </g>
     </g>
    </g>
    <g id="ytick_7">
     <g id="line2d_18">
      <path d="M 65.75714 100.694097 
L 217.797647 100.694097 
" clip-path="url(#pc1ab7e3706)" style="fill: none; stroke: #cccccc; stroke-width: 0.8; stroke-linecap: round"/>
     </g>
     <g id="line2d_19">
      <g>
       <use xlink:href="#mb48fae70c5" x="65.75714" y="100.694097" style="fill: #262626; stroke: #262626; stroke-width: 0.8"/>
      </g>
     </g>
     <g id="text_11">
      <!-- $\mathdefault{2.5}$ -->
      <g style="fill: #262626" transform="translate(42.254063 104.499271)scale(0.11 -0.11)">
       <use xlink:href="#CMR17-32" transform="scale(0.996264)"/>
       <use xlink:href="#CMMI12-3a" transform="translate(45.690477 0)scale(0.996264)"/>
       <use xlink:href="#CMR17-35" transform="translate(72.787654 0)scale(0.996264)"/>
      </g>
     </g>
    </g>
    <g id="ytick_8">
     <g id="line2d_20">
      <path d="M 65.75714 83.206669 
L 217.797647 83.206669 
" clip-path="url(#pc1ab7e3706)" style="fill: none; stroke: #cccccc; stroke-width: 0.8; stroke-linecap: round"/>
     </g>
     <g id="line2d_21">
      <g>
       <use xlink:href="#mb48fae70c5" x="65.75714" y="83.206669" style="fill: #262626; stroke: #262626; stroke-width: 0.8"/>
      </g>
     </g>
     <g id="text_12">
      <!-- $\mathdefault{5.0}$ -->
      <g style="fill: #262626" transform="translate(42.254063 87.011842)scale(0.11 -0.11)">
       <use xlink:href="#CMR17-35" transform="scale(0.996264)"/>
       <use xlink:href="#CMMI12-3a" transform="translate(45.690477 0)scale(0.996264)"/>
       <use xlink:href="#CMR17-30" transform="translate(72.787654 0)scale(0.996264)"/>
      </g>
     </g>
    </g>
    <g id="ytick_9">
     <g id="line2d_22">
      <path d="M 65.75714 65.71924 
L 217.797647 65.71924 
" clip-path="url(#pc1ab7e3706)" style="fill: none; stroke: #cccccc; stroke-width: 0.8; stroke-linecap: round"/>
     </g>
     <g id="line2d_23">
      <g>
       <use xlink:href="#mb48fae70c5" x="65.75714" y="65.71924" style="fill: #262626; stroke: #262626; stroke-width: 0.8"/>
      </g>
     </g>
     <g id="text_13">
      <!-- $\mathdefault{7.5}$ -->
      <g style="fill: #262626" transform="translate(42.254063 69.524413)scale(0.11 -0.11)">
       <use xlink:href="#CMR17-37" transform="scale(0.996264)"/>
       <use xlink:href="#CMMI12-3a" transform="translate(45.690477 0)scale(0.996264)"/>
       <use xlink:href="#CMR17-35" transform="translate(72.787654 0)scale(0.996264)"/>
      </g>
     </g>
    </g>
    <g id="ytick_10">
     <g id="line2d_24">
      <path d="M 65.75714 48.231812 
L 217.797647 48.231812 
" clip-path="url(#pc1ab7e3706)" style="fill: none; stroke: #cccccc; stroke-width: 0.8; stroke-linecap: round"/>
     </g>
     <g id="line2d_25">
      <g>
       <use xlink:href="#mb48fae70c5" x="65.75714" y="48.231812" style="fill: #262626; stroke: #262626; stroke-width: 0.8"/>
      </g>
     </g>
     <g id="text_14">
      <!-- $\mathdefault{10.0}$ -->
      <g style="fill: #262626" transform="translate(36.774596 52.036985)scale(0.11 -0.11)">
       <use xlink:href="#CMR17-31" transform="scale(0.996264)"/>
       <use xlink:href="#CMR17-30" transform="translate(45.690477 0)scale(0.996264)"/>
       <use xlink:href="#CMMI12-3a" transform="translate(91.380954 0)scale(0.996264)"/>
       <use xlink:href="#CMR17-30" transform="translate(118.478131 0)scale(0.996264)"/>
      </g>
     </g>
    </g>
    <g id="ytick_11">
     <g id="line2d_26">
      <path d="M 65.75714 30.744383 
L 217.797647 30.744383 
" clip-path="url(#pc1ab7e3706)" style="fill: none; stroke: #cccccc; stroke-width: 0.8; stroke-linecap: round"/>
     </g>
     <g id="line2d_27">
      <g>
       <use xlink:href="#mb48fae70c5" x="65.75714" y="30.744383" style="fill: #262626; stroke: #262626; stroke-width: 0.8"/>
      </g>
     </g>
     <g id="text_15">
      <!-- $\mathdefault{12.5}$ -->
      <g style="fill: #262626" transform="translate(36.774596 34.549556)scale(0.11 -0.11)">
       <use xlink:href="#CMR17-31" transform="scale(0.996264)"/>
       <use xlink:href="#CMR17-32" transform="translate(45.690477 0)scale(0.996264)"/>
       <use xlink:href="#CMMI12-3a" transform="translate(91.380954 0)scale(0.996264)"/>
       <use xlink:href="#CMR17-35" transform="translate(118.478131 0)scale(0.996264)"/>
      </g>
     </g>
    </g>
    <g id="text_16">
     <!-- \textbf{Margin \%} -->
     <g style="fill: #262626" transform="translate(21.926376 150.965973)rotate(-90)scale(0.12 -0.12)">
      <defs>
       <path id="CMSSBX10-4d" d="M 3552 2080 
C 3418 1756 3181 1171 3130 948 
L 3123 948 
C 3066 1177 2803 1807 2669 2144 
L 1850 4154 
C 1741 4416 1536 4416 1421 4416 
L 890 4416 
C 659 4416 582 4345 582 4109 
L 582 306 
C 582 76 653 0 890 0 
L 1062 0 
C 1306 0 1370 83 1370 306 
L 1370 3594 
L 1376 3594 
C 1446 3308 1734 2602 1888 2226 
L 2630 414 
C 2746 140 2899 140 3117 140 
C 3334 140 3488 140 3603 414 
L 4422 2411 
C 4486 2564 4832 3429 4877 3594 
L 4883 3594 
L 4883 306 
C 4883 102 4928 0 5190 0 
L 5363 0 
C 5606 0 5670 83 5670 306 
L 5670 4109 
C 5670 4313 5626 4416 5363 4416 
L 4826 4416 
C 4666 4416 4506 4403 4397 4141 
L 3552 2080 
z
" transform="scale(0.015625)"/>
       <path id="CMSSBX10-61" d="M 2970 2047 
C 2970 3065 1997 3072 1677 3072 
C 1376 3072 1056 3046 627 2867 
C 493 2809 461 2790 461 2719 
C 461 2675 499 2300 506 2248 
C 512 2209 544 2177 589 2177 
C 621 2177 640 2196 659 2215 
C 934 2507 1254 2649 1651 2649 
C 1997 2649 2099 2436 2099 2054 
L 2099 1827 
C 1875 1827 198 1814 198 862 
C 198 409 557 -64 1120 -64 
C 1338 -64 1818 0 2118 442 
L 2118 313 
C 2118 108 2163 6 2426 6 
L 2662 6 
C 2906 6 2970 89 2970 313 
L 2970 2047 
z
M 2099 998 
C 2099 396 1491 396 1472 396 
C 1203 396 1030 629 1030 875 
C 1030 1510 1920 1555 2099 1562 
L 2099 998 
z
" transform="scale(0.015625)"/>
       <path id="CMSSBX10-72" d="M 1242 1456 
C 1242 2057 1747 2304 2150 2329 
C 2266 2335 2278 2335 2278 2502 
L 2278 2803 
C 2278 2931 2278 2976 2163 2976 
C 1984 2976 1517 2911 1216 2222 
L 1210 2222 
L 1210 2636 
C 1210 2841 1165 2944 902 2944 
L 698 2944 
C 467 2944 390 2873 390 2636 
L 390 305 
C 390 76 461 0 698 0 
L 934 0 
C 1178 0 1242 83 1242 305 
L 1242 1456 
z
" transform="scale(0.015625)"/>
       <path id="CMSSBX10-67" d="M 1280 569 
C 1050 569 960 569 870 651 
C 845 678 736 780 736 953 
C 736 998 742 1011 749 1049 
C 1050 883 1427 883 1562 883 
C 1830 883 2848 883 2848 1942 
C 2848 2315 2707 2540 2650 2611 
C 2758 2611 2982 2611 3245 2540 
C 3270 2527 3315 2514 3334 2514 
C 3386 2514 3418 2553 3418 2598 
C 3418 2623 3386 2777 3373 2841 
C 3347 2995 3347 3008 3232 3008 
C 3034 3008 2714 2931 2470 2783 
C 2170 2982 1837 3008 1562 3008 
C 1293 3008 275 3008 275 1948 
C 275 1691 346 1369 589 1158 
C 416 921 416 658 416 624 
C 416 499 454 288 589 115 
C 493 76 160 -39 160 -451 
C 160 -651 256 -986 659 -1172 
C 1024 -1338 1453 -1344 1754 -1344 
C 2131 -1344 3354 -1344 3354 -432 
C 3354 569 2451 569 1587 569 
L 1280 569 
z
M 1562 1344 
C 1114 1344 1094 1588 1094 1942 
C 1094 2296 1114 2547 1562 2547 
C 2010 2547 2029 2302 2029 1948 
C 2029 1594 2010 1344 1562 1344 
z
M 1907 -128 
C 2426 -128 2694 -219 2694 -451 
C 2694 -884 1965 -884 1760 -884 
C 1504 -884 819 -884 819 -432 
C 819 -128 1018 -128 1165 -128 
L 1907 -128 
z
" transform="scale(0.015625)"/>
       <path id="CMSSBX10-69" d="M 653 4480 
C 448 4480 346 4441 346 4185 
L 346 3891 
C 346 3686 410 3603 646 3603 
L 979 3603 
C 1286 3603 1286 3737 1286 4038 
C 1286 4345 1286 4480 979 4480 
L 653 4480 
z
M 1242 2635 
C 1242 2841 1197 2944 934 2944 
L 698 2944 
C 467 2944 390 2873 390 2635 
L 390 308 
C 390 76 461 0 698 0 
L 934 0 
C 1178 0 1242 83 1242 308 
L 1242 2635 
z
" transform="scale(0.015625)"/>
       <path id="CMSSBX10-6e" d="M 3200 2085 
C 3200 2745 2918 3008 2266 3008 
C 1594 3008 1306 2521 1222 2348 
L 1216 2348 
L 1216 2668 
C 1216 2873 1171 2975 909 2975 
L 691 2975 
C 461 2975 384 2905 384 2668 
L 384 307 
C 384 76 454 0 691 0 
L 947 0 
C 1190 0 1254 83 1254 307 
L 1254 1725 
C 1254 2284 1626 2547 1958 2547 
C 2266 2547 2330 2399 2330 2072 
L 2330 307 
C 2330 102 2374 0 2637 0 
L 2893 0 
C 3136 0 3200 83 3200 307 
L 3200 2085 
z
" transform="scale(0.015625)"/>
       <path id="CMSSBX10-25" d="M 5235 4332 
C 5312 4435 5312 4511 5312 4531 
C 5312 4671 5197 4800 5043 4800 
C 4909 4800 4838 4703 4806 4665 
L 1370 83 
C 1325 19 1286 -26 1286 -116 
C 1286 -263 1408 -384 1555 -384 
C 1690 -384 1760 -295 1792 -250 
L 5235 4332 
z
M 6189 918 
C 6189 1466 6042 2227 5043 2227 
C 4288 2227 3878 1804 3878 924 
C 3878 318 4070 -384 5043 -384 
C 5920 -384 6189 207 6189 918 
z
M 5037 76 
C 4646 76 4646 520 4646 924 
C 4646 1322 4646 1766 5037 1766 
C 5459 1766 5459 1133 5459 924 
C 5459 709 5459 76 5037 76 
z
M 2701 3510 
C 2701 4045 2554 4800 1555 4800 
C 800 4800 390 4377 390 3516 
C 390 2923 582 2227 1555 2227 
C 2432 2227 2701 2815 2701 3510 
z
M 1549 2688 
C 1158 2688 1158 3121 1158 3510 
C 1158 3905 1158 4339 1549 4339 
C 1971 4339 1971 3720 1971 3516 
C 1971 3306 1971 2688 1549 2688 
z
" transform="scale(0.015625)"/>
      </defs>
      <use xlink:href="#CMSSBX10-4d" transform="scale(0.996264)"/>
      <use xlink:href="#CMSSBX10-61" transform="translate(97.413021 0)scale(0.996264)"/>
      <use xlink:href="#CMSSBX10-72" transform="translate(146.67306 0)scale(0.996264)"/>
      <use xlink:href="#CMSSBX10-67" transform="translate(183.75647 0)scale(0.996264)"/>
      <use xlink:href="#CMSSBX10-69" transform="translate(238.551294 0)scale(0.996264)"/>
      <use xlink:href="#CMSSBX10-6e" transform="translate(264.011513 0)scale(0.996264)"/>
      <use xlink:href="#CMSSBX10-25" transform="translate(356.443184 0)scale(0.996264)"/>
     </g>
    </g>
   </g>
   <g id="line2d_28">
    <path d="M 72.668072 166.245723 
L 118.740953 118.977204 
L 164.813834 114.098211 
L 210.886715 116.712582 
" clip-path="url(#pc1ab7e3706)" style="fill: none; stroke: #207720; stroke-width: 1.5; stroke-linecap: round"/>
    <defs>
     <path id="mbdc3301b9c" d="M -2 2 
L 2 2 
L 2 -2 
L -2 -2 
z
" style="stroke: #207720; stroke-linejoin: miter"/>
    </defs>
    <g clip-path="url(#pc1ab7e3706)">
     <use xlink:href="#mbdc3301b9c" x="72.668072" y="166.245723" style="fill: #207720; stroke: #207720; stroke-linejoin: miter"/>
     <use xlink:href="#mbdc3301b9c" x="118.740953" y="118.977204" style="fill: #207720; stroke: #207720; stroke-linejoin: miter"/>
     <use xlink:href="#mbdc3301b9c" x="164.813834" y="114.098211" style="fill: #207720; stroke: #207720; stroke-linejoin: miter"/>
     <use xlink:href="#mbdc3301b9c" x="210.886715" y="116.712582" style="fill: #207720; stroke: #207720; stroke-linejoin: miter"/>
    </g>
   </g>
   <g id="line2d_29">
    <path d="M 72.668072 203.36279 
L 118.740953 114.246854 
L 164.813834 67.433008 
L 210.886715 56.083667 
" clip-path="url(#pc1ab7e3706)" style="fill: none; stroke: #234990; stroke-width: 1.5; stroke-linecap: round"/>
    <defs>
     <path id="me0c6d63fba" d="M 0 2 
C 0.530406 2 1.03916 1.789267 1.414214 1.414214 
C 1.789267 1.03916 2 0.530406 2 0 
C 2 -0.530406 1.789267 -1.03916 1.414214 -1.414214 
C 1.03916 -1.789267 0.530406 -2 0 -2 
C -0.530406 -2 -1.03916 -1.789267 -1.414214 -1.414214 
C -1.789267 -1.03916 -2 -0.530406 -2 0 
C -2 0.530406 -1.789267 1.03916 -1.414214 1.414214 
C -1.03916 1.789267 -0.530406 2 0 2 
z
" style="stroke: #234990"/>
    </defs>
    <g clip-path="url(#pc1ab7e3706)">
     <use xlink:href="#me0c6d63fba" x="72.668072" y="203.36279" style="fill: #234990; stroke: #234990"/>
     <use xlink:href="#me0c6d63fba" x="118.740953" y="114.246854" style="fill: #234990; stroke: #234990"/>
     <use xlink:href="#me0c6d63fba" x="164.813834" y="67.433008" style="fill: #234990; stroke: #234990"/>
     <use xlink:href="#me0c6d63fba" x="210.886715" y="56.083667" style="fill: #234990; stroke: #234990"/>
    </g>
   </g>
   <g id="line2d_30">
    <path d="M 72.668072 207.699672 
L 118.740953 104.445151 
L 164.813834 52.49 
L 210.886715 35.553426 
" clip-path="url(#pc1ab7e3706)" style="fill: none; stroke: #e23726; stroke-width: 1.5; stroke-linecap: round"/>
    <defs>
     <path id="m15f36fdb14" d="M -2 2 
L 2 -2 
M -2 -2 
L 2 2 
" style="stroke: #e23726"/>
    </defs>
    <g clip-path="url(#pc1ab7e3706)">
     <use xlink:href="#m15f36fdb14" x="72.668072" y="207.699672" style="fill: #e23726; stroke: #e23726"/>
     <use xlink:href="#m15f36fdb14" x="118.740953" y="104.445151" style="fill: #e23726; stroke: #e23726"/>
     <use xlink:href="#m15f36fdb14" x="164.813834" y="52.49" style="fill: #e23726; stroke: #e23726"/>
     <use xlink:href="#m15f36fdb14" x="210.886715" y="35.553426" style="fill: #e23726; stroke: #e23726"/>
    </g>
   </g>
   <g id="patch_3">
    <path d="M 65.75714 218.209617 
L 65.75714 28.645892 
" style="fill: none; stroke: #262626; stroke-width: 1.25; stroke-linejoin: miter; stroke-linecap: square"/>
   </g>
   <g id="patch_4">
    <path d="M 217.797647 218.209617 
L 217.797647 28.645892 
" style="fill: none; stroke: #262626; stroke-width: 1.25; stroke-linejoin: miter; stroke-linecap: square"/>
   </g>
   <g id="patch_5">
    <path d="M 65.75714 218.209617 
L 217.797647 218.209617 
" style="fill: none; stroke: #262626; stroke-width: 1.25; stroke-linejoin: miter; stroke-linecap: square"/>
   </g>
   <g id="patch_6">
    <path d="M 65.75714 28.645892 
L 217.797647 28.645892 
" style="fill: none; stroke: #262626; stroke-width: 1.25; stroke-linejoin: miter; stroke-linecap: square"/>
   </g>
   <g id="text_17">
    <!-- \textbf{Albstadt} -->
    <g style="fill: #262626" transform="translate(114.815596 22.645892)scale(0.14 -0.14)">
     <defs>
      <path id="CMSSBX10-41" d="M 3034 4142 
C 2938 4416 2752 4416 2624 4416 
L 2061 4416 
C 1933 4416 1747 4416 1651 4142 
L 301 299 
C 269 216 269 204 269 172 
C 269 0 429 0 518 0 
L 749 0 
C 864 0 1062 0 1152 255 
L 1402 960 
L 3174 960 
L 3392 350 
C 3469 128 3514 0 3821 0 
L 4166 0 
C 4256 0 4416 0 4416 172 
C 4416 204 4416 216 4384 299 
L 3034 4142 
z
M 2054 2858 
C 2150 3137 2234 3379 2285 3608 
L 2291 3608 
C 2323 3455 2323 3442 2374 3296 
L 2982 1510 
L 1594 1510 
L 2054 2858 
z
" transform="scale(0.015625)"/>
      <path id="CMSSBX10-6c" d="M 1242 4109 
C 1242 4313 1197 4416 934 4416 
L 698 4416 
C 467 4416 390 4345 390 4109 
L 390 306 
C 390 76 461 0 698 0 
L 934 0 
C 1178 0 1242 83 1242 306 
L 1242 4109 
z
" transform="scale(0.015625)"/>
      <path id="CMSSBX10-62" d="M 1242 4113 
C 1242 4313 1197 4416 934 4416 
L 698 4416 
C 467 4416 390 4345 390 4113 
L 390 313 
C 390 83 461 6 698 6 
L 954 6 
C 1062 6 1254 6 1261 256 
C 1555 -64 1882 -64 1984 -64 
C 3347 -64 3347 1164 3347 1484 
C 3347 1791 3347 3008 2144 3008 
C 1619 3008 1299 2713 1242 2649 
L 1242 4113 
z
M 1261 2323 
C 1344 2399 1536 2547 1830 2547 
C 2477 2547 2477 1958 2477 1478 
C 2477 1004 2477 396 1760 396 
C 1491 396 1331 556 1261 646 
L 1261 2323 
z
" transform="scale(0.015625)"/>
      <path id="CMSSBX10-73" d="M 2534 914 
C 2534 1277 2342 1503 2227 1607 
C 1971 1840 1747 1879 1478 1931 
C 1126 1995 870 2047 870 2300 
C 870 2565 1082 2617 1331 2617 
C 1760 2617 1990 2455 2157 2313 
C 2221 2248 2234 2248 2259 2248 
C 2323 2248 2336 2306 2342 2332 
C 2355 2384 2419 2745 2419 2777 
C 2419 2879 2080 2969 2010 2995 
C 1754 3065 1549 3072 1382 3072 
C 1094 3072 237 3072 237 2151 
C 237 1833 378 1639 550 1484 
C 774 1277 1024 1231 1389 1160 
C 1574 1128 1901 1069 1901 784 
C 1901 480 1651 435 1402 435 
C 1120 435 762 519 461 882 
C 429 914 410 933 371 933 
C 307 933 294 875 288 836 
C 275 746 198 377 198 313 
C 198 198 672 51 678 44 
C 1030 -64 1293 -64 1402 -64 
C 1728 -64 2534 -39 2534 914 
z
" transform="scale(0.015625)"/>
      <path id="CMSSBX10-74" d="M 1395 2483 
L 1965 2483 
C 2042 2483 2272 2483 2272 2713 
C 2272 2944 2042 2944 1965 2944 
L 1395 2944 
L 1395 3470 
C 1395 3673 1350 3776 1088 3776 
L 890 3776 
C 659 3776 582 3705 582 3470 
L 582 2944 
L 435 2944 
C 365 2944 128 2944 128 2713 
C 128 2483 358 2483 435 2483 
L 563 2483 
L 563 858 
C 563 211 794 -64 1235 -64 
C 1293 -64 1574 -64 1907 38 
C 2016 70 2387 185 2387 307 
C 2387 326 2374 371 2336 505 
C 2304 634 2291 672 2234 672 
C 2202 672 2195 666 2157 627 
C 2086 576 1914 435 1645 435 
C 1491 435 1395 544 1395 968 
L 1395 2483 
z
" transform="scale(0.015625)"/>
      <path id="CMSSBX10-64" d="M 3194 4113 
C 3194 4313 3149 4416 2886 4416 
L 2650 4416 
C 2406 4416 2342 4332 2342 4113 
L 2342 2687 
C 2054 2963 1734 3008 1536 3008 
C 237 3008 237 1779 237 1465 
C 237 1171 237 -64 1504 -64 
C 1773 -64 2048 12 2323 307 
C 2323 70 2413 6 2630 6 
L 2886 6 
C 3130 6 3194 89 3194 313 
L 3194 4113 
z
M 2323 806 
C 2323 697 2323 640 2138 512 
C 1978 409 1830 396 1754 396 
C 1107 396 1107 985 1107 1465 
C 1107 1945 1107 2547 1824 2547 
C 2010 2547 2182 2483 2323 2348 
L 2323 806 
z
" transform="scale(0.015625)"/>
     </defs>
     <use xlink:href="#CMSSBX10-41" transform="scale(0.996264)"/>
     <use xlink:href="#CMSSBX10-6c" transform="translate(73.059766 0)scale(0.996264)"/>
     <use xlink:href="#CMSSBX10-62" transform="translate(98.519985 0)scale(0.996264)"/>
     <use xlink:href="#CMSSBX10-73" transform="translate(154.421773 0)scale(0.996264)"/>
     <use xlink:href="#CMSSBX10-74" transform="translate(196.431138 0)scale(0.996264)"/>
     <use xlink:href="#CMSSBX10-61" transform="translate(236.697042 0)scale(0.996264)"/>
     <use xlink:href="#CMSSBX10-64" transform="translate(289.001237 0)scale(0.996264)"/>
     <use xlink:href="#CMSSBX10-74" transform="translate(344.903025 0)scale(0.996264)"/>
    </g>
   </g>
  </g>
  <g id="axes_2">
   <g id="patch_7">
    <path d="M 273.300388 218.209617 
L 425.340896 218.209617 
L 425.340896 28.645892 
L 273.300388 28.645892 
z
" style="fill: #ffffff"/>
   </g>
   <g id="line2d_31">
    <path d="M 273.300388 118.181526 
L 425.340896 118.181526 
" clip-path="url(#p24a1e067ab)" style="fill: none; stroke: #000000; stroke-width: 1.3; stroke-linecap: round"/>
   </g>
   <g id="matplotlib.axis_3">
    <g id="xtick_5">
     <g id="line2d_32">
      <g>
       <use xlink:href="#m4af1413fd2" x="280.21132" y="218.209617" style="fill: #262626; stroke: #262626; stroke-width: 0.8"/>
      </g>
     </g>
     <g id="text_18">
      <!-- $25C$ -->
      <g style="fill: #262626" transform="translate(270.81557 235.319964)scale(0.11 -0.11)">
       <use xlink:href="#CMR17-32" transform="scale(0.996264)"/>
       <use xlink:href="#CMR17-35" transform="translate(45.690477 0)scale(0.996264)"/>
       <use xlink:href="#CMMI12-43" transform="translate(91.380954 0)scale(0.996264)"/>
      </g>
     </g>
    </g>
    <g id="xtick_6">
     <g id="line2d_33">
      <g>
       <use xlink:href="#m4af1413fd2" x="326.284202" y="218.209617" style="fill: #262626; stroke: #262626; stroke-width: 0.8"/>
      </g>
     </g>
     <g id="text_19">
      <!-- $50C$ -->
      <g style="fill: #262626" transform="translate(316.888451 235.319964)scale(0.11 -0.11)">
       <use xlink:href="#CMR17-35" transform="scale(0.996264)"/>
       <use xlink:href="#CMR17-30" transform="translate(45.690477 0)scale(0.996264)"/>
       <use xlink:href="#CMMI12-43" transform="translate(91.380954 0)scale(0.996264)"/>
      </g>
     </g>
    </g>
    <g id="xtick_7">
     <g id="line2d_34">
      <g>
       <use xlink:href="#m4af1413fd2" x="372.357083" y="218.209617" style="fill: #262626; stroke: #262626; stroke-width: 0.8"/>
      </g>
     </g>
     <g id="text_20">
      <!-- $100C$ -->
      <g style="fill: #262626" transform="translate(360.221599 235.319964)scale(0.11 -0.11)">
       <use xlink:href="#CMR17-31" transform="scale(0.996264)"/>
       <use xlink:href="#CMR17-30" transform="translate(45.690477 0)scale(0.996264)"/>
       <use xlink:href="#CMR17-30" transform="translate(91.380954 0)scale(0.996264)"/>
       <use xlink:href="#CMMI12-43" transform="translate(137.071431 0)scale(0.996264)"/>
      </g>
     </g>
    </g>
    <g id="xtick_8">
     <g id="line2d_35">
      <g>
       <use xlink:href="#m4af1413fd2" x="418.429964" y="218.209617" style="fill: #262626; stroke: #262626; stroke-width: 0.8"/>
      </g>
     </g>
     <g id="text_21">
      <!-- $150C$ -->
      <g style="fill: #262626" transform="translate(406.29448 235.319964)scale(0.11 -0.11)">
       <use xlink:href="#CMR17-31" transform="scale(0.996264)"/>
       <use xlink:href="#CMR17-35" transform="translate(45.690477 0)scale(0.996264)"/>
       <use xlink:href="#CMR17-30" transform="translate(91.380954 0)scale(0.996264)"/>
       <use xlink:href="#CMMI12-43" transform="translate(137.071431 0)scale(0.996264)"/>
      </g>
     </g>
    </g>
   </g>
   <g id="matplotlib.axis_4">
    <g id="ytick_12">
     <g id="line2d_36">
      <path d="M 273.300388 205.618668 
L 425.340896 205.618668 
" clip-path="url(#p24a1e067ab)" style="fill: none; stroke: #cccccc; stroke-width: 0.8; stroke-linecap: round"/>
     </g>
     <g id="line2d_37">
      <g>
       <use xlink:href="#mb48fae70c5" x="273.300388" y="205.618668" style="fill: #262626; stroke: #262626; stroke-width: 0.8"/>
      </g>
     </g>
     <g id="text_22">
      <!-- $\mathdefault{−12.5}$ -->
      <g style="fill: #262626" transform="translate(235.794236 209.423842)scale(0.11 -0.11)">
       <use xlink:href="#CMSY10-0" transform="scale(0.996264)"/>
       <use xlink:href="#CMR17-31" transform="translate(77.487468 0)scale(0.996264)"/>
       <use xlink:href="#CMR17-32" transform="translate(123.177945 0)scale(0.996264)"/>
       <use xlink:href="#CMMI12-3a" transform="translate(168.868422 0)scale(0.996264)"/>
       <use xlink:href="#CMR17-35" transform="translate(195.965599 0)scale(0.996264)"/>
      </g>
     </g>
    </g>
    <g id="ytick_13">
     <g id="line2d_38">
      <path d="M 273.300388 188.13124 
L 425.340896 188.13124 
" clip-path="url(#p24a1e067ab)" style="fill: none; stroke: #cccccc; stroke-width: 0.8; stroke-linecap: round"/>
     </g>
     <g id="line2d_39">
      <g>
       <use xlink:href="#mb48fae70c5" x="273.300388" y="188.13124" style="fill: #262626; stroke: #262626; stroke-width: 0.8"/>
      </g>
     </g>
     <g id="text_23">
      <!-- $\mathdefault{−10.0}$ -->
      <g style="fill: #262626" transform="translate(235.794236 191.936413)scale(0.11 -0.11)">
       <use xlink:href="#CMSY10-0" transform="scale(0.996264)"/>
       <use xlink:href="#CMR17-31" transform="translate(77.487468 0)scale(0.996264)"/>
       <use xlink:href="#CMR17-30" transform="translate(123.177945 0)scale(0.996264)"/>
       <use xlink:href="#CMMI12-3a" transform="translate(168.868422 0)scale(0.996264)"/>
       <use xlink:href="#CMR17-30" transform="translate(195.965599 0)scale(0.996264)"/>
      </g>
     </g>
    </g>
    <g id="ytick_14">
     <g id="line2d_40">
      <path d="M 273.300388 170.643811 
L 425.340896 170.643811 
" clip-path="url(#p24a1e067ab)" style="fill: none; stroke: #cccccc; stroke-width: 0.8; stroke-linecap: round"/>
     </g>
     <g id="line2d_41">
      <g>
       <use xlink:href="#mb48fae70c5" x="273.300388" y="170.643811" style="fill: #262626; stroke: #262626; stroke-width: 0.8"/>
      </g>
     </g>
     <g id="text_24">
      <!-- $\mathdefault{−7.5}$ -->
      <g style="fill: #262626" transform="translate(241.273703 174.448985)scale(0.11 -0.11)">
       <use xlink:href="#CMSY10-0" transform="scale(0.996264)"/>
       <use xlink:href="#CMR17-37" transform="translate(77.487468 0)scale(0.996264)"/>
       <use xlink:href="#CMMI12-3a" transform="translate(123.177945 0)scale(0.996264)"/>
       <use xlink:href="#CMR17-35" transform="translate(150.275122 0)scale(0.996264)"/>
      </g>
     </g>
    </g>
    <g id="ytick_15">
     <g id="line2d_42">
      <path d="M 273.300388 153.156383 
L 425.340896 153.156383 
" clip-path="url(#p24a1e067ab)" style="fill: none; stroke: #cccccc; stroke-width: 0.8; stroke-linecap: round"/>
     </g>
     <g id="line2d_43">
      <g>
       <use xlink:href="#mb48fae70c5" x="273.300388" y="153.156383" style="fill: #262626; stroke: #262626; stroke-width: 0.8"/>
      </g>
     </g>
     <g id="text_25">
      <!-- $\mathdefault{−5.0}$ -->
      <g style="fill: #262626" transform="translate(241.273703 156.961556)scale(0.11 -0.11)">
       <use xlink:href="#CMSY10-0" transform="scale(0.996264)"/>
       <use xlink:href="#CMR17-35" transform="translate(77.487468 0)scale(0.996264)"/>
       <use xlink:href="#CMMI12-3a" transform="translate(123.177945 0)scale(0.996264)"/>
       <use xlink:href="#CMR17-30" transform="translate(150.275122 0)scale(0.996264)"/>
      </g>
     </g>
    </g>
    <g id="ytick_16">
     <g id="line2d_44">
      <path d="M 273.300388 135.668954 
L 425.340896 135.668954 
" clip-path="url(#p24a1e067ab)" style="fill: none; stroke: #cccccc; stroke-width: 0.8; stroke-linecap: round"/>
     </g>
     <g id="line2d_45">
      <g>
       <use xlink:href="#mb48fae70c5" x="273.300388" y="135.668954" style="fill: #262626; stroke: #262626; stroke-width: 0.8"/>
      </g>
     </g>
     <g id="text_26">
      <!-- $\mathdefault{−2.5}$ -->
      <g style="fill: #262626" transform="translate(241.273703 139.474128)scale(0.11 -0.11)">
       <use xlink:href="#CMSY10-0" transform="scale(0.996264)"/>
       <use xlink:href="#CMR17-32" transform="translate(77.487468 0)scale(0.996264)"/>
       <use xlink:href="#CMMI12-3a" transform="translate(123.177945 0)scale(0.996264)"/>
       <use xlink:href="#CMR17-35" transform="translate(150.275122 0)scale(0.996264)"/>
      </g>
     </g>
    </g>
    <g id="ytick_17">
     <g id="line2d_46">
      <path d="M 273.300388 118.181526 
L 425.340896 118.181526 
" clip-path="url(#p24a1e067ab)" style="fill: none; stroke: #cccccc; stroke-width: 0.8; stroke-linecap: round"/>
     </g>
     <g id="line2d_47">
      <g>
       <use xlink:href="#mb48fae70c5" x="273.300388" y="118.181526" style="fill: #262626; stroke: #262626; stroke-width: 0.8"/>
      </g>
     </g>
     <g id="text_27">
      <!-- $\mathdefault{0.0}$ -->
      <g style="fill: #262626" transform="translate(249.797312 121.986699)scale(0.11 -0.11)">
       <use xlink:href="#CMR17-30" transform="scale(0.996264)"/>
       <use xlink:href="#CMMI12-3a" transform="translate(45.690477 0)scale(0.996264)"/>
       <use xlink:href="#CMR17-30" transform="translate(72.787654 0)scale(0.996264)"/>
      </g>
     </g>
    </g>
    <g id="ytick_18">
     <g id="line2d_48">
      <path d="M 273.300388 100.694097 
L 425.340896 100.694097 
" clip-path="url(#p24a1e067ab)" style="fill: none; stroke: #cccccc; stroke-width: 0.8; stroke-linecap: round"/>
     </g>
     <g id="line2d_49">
      <g>
       <use xlink:href="#mb48fae70c5" x="273.300388" y="100.694097" style="fill: #262626; stroke: #262626; stroke-width: 0.8"/>
      </g>
     </g>
     <g id="text_28">
      <!-- $\mathdefault{2.5}$ -->
      <g style="fill: #262626" transform="translate(249.797312 104.499271)scale(0.11 -0.11)">
       <use xlink:href="#CMR17-32" transform="scale(0.996264)"/>
       <use xlink:href="#CMMI12-3a" transform="translate(45.690477 0)scale(0.996264)"/>
       <use xlink:href="#CMR17-35" transform="translate(72.787654 0)scale(0.996264)"/>
      </g>
     </g>
    </g>
    <g id="ytick_19">
     <g id="line2d_50">
      <path d="M 273.300388 83.206669 
L 425.340896 83.206669 
" clip-path="url(#p24a1e067ab)" style="fill: none; stroke: #cccccc; stroke-width: 0.8; stroke-linecap: round"/>
     </g>
     <g id="line2d_51">
      <g>
       <use xlink:href="#mb48fae70c5" x="273.300388" y="83.206669" style="fill: #262626; stroke: #262626; stroke-width: 0.8"/>
      </g>
     </g>
     <g id="text_29">
      <!-- $\mathdefault{5.0}$ -->
      <g style="fill: #262626" transform="translate(249.797312 87.011842)scale(0.11 -0.11)">
       <use xlink:href="#CMR17-35" transform="scale(0.996264)"/>
       <use xlink:href="#CMMI12-3a" transform="translate(45.690477 0)scale(0.996264)"/>
       <use xlink:href="#CMR17-30" transform="translate(72.787654 0)scale(0.996264)"/>
      </g>
     </g>
    </g>
    <g id="ytick_20">
     <g id="line2d_52">
      <path d="M 273.300388 65.71924 
L 425.340896 65.71924 
" clip-path="url(#p24a1e067ab)" style="fill: none; stroke: #cccccc; stroke-width: 0.8; stroke-linecap: round"/>
     </g>
     <g id="line2d_53">
      <g>
       <use xlink:href="#mb48fae70c5" x="273.300388" y="65.71924" style="fill: #262626; stroke: #262626; stroke-width: 0.8"/>
      </g>
     </g>
     <g id="text_30">
      <!-- $\mathdefault{7.5}$ -->
      <g style="fill: #262626" transform="translate(249.797312 69.524413)scale(0.11 -0.11)">
       <use xlink:href="#CMR17-37" transform="scale(0.996264)"/>
       <use xlink:href="#CMMI12-3a" transform="translate(45.690477 0)scale(0.996264)"/>
       <use xlink:href="#CMR17-35" transform="translate(72.787654 0)scale(0.996264)"/>
      </g>
     </g>
    </g>
    <g id="ytick_21">
     <g id="line2d_54">
      <path d="M 273.300388 48.231812 
L 425.340896 48.231812 
" clip-path="url(#p24a1e067ab)" style="fill: none; stroke: #cccccc; stroke-width: 0.8; stroke-linecap: round"/>
     </g>
     <g id="line2d_55">
      <g>
       <use xlink:href="#mb48fae70c5" x="273.300388" y="48.231812" style="fill: #262626; stroke: #262626; stroke-width: 0.8"/>
      </g>
     </g>
     <g id="text_31">
      <!-- $\mathdefault{10.0}$ -->
      <g style="fill: #262626" transform="translate(244.317845 52.036985)scale(0.11 -0.11)">
       <use xlink:href="#CMR17-31" transform="scale(0.996264)"/>
       <use xlink:href="#CMR17-30" transform="translate(45.690477 0)scale(0.996264)"/>
       <use xlink:href="#CMMI12-3a" transform="translate(91.380954 0)scale(0.996264)"/>
       <use xlink:href="#CMR17-30" transform="translate(118.478131 0)scale(0.996264)"/>
      </g>
     </g>
    </g>
    <g id="ytick_22">
     <g id="line2d_56">
      <path d="M 273.300388 30.744383 
L 425.340896 30.744383 
" clip-path="url(#p24a1e067ab)" style="fill: none; stroke: #cccccc; stroke-width: 0.8; stroke-linecap: round"/>
     </g>
     <g id="line2d_57">
      <g>
       <use xlink:href="#mb48fae70c5" x="273.300388" y="30.744383" style="fill: #262626; stroke: #262626; stroke-width: 0.8"/>
      </g>
     </g>
     <g id="text_32">
      <!-- $\mathdefault{12.5}$ -->
      <g style="fill: #262626" transform="translate(244.317845 34.549556)scale(0.11 -0.11)">
       <use xlink:href="#CMR17-31" transform="scale(0.996264)"/>
       <use xlink:href="#CMR17-32" transform="translate(45.690477 0)scale(0.996264)"/>
       <use xlink:href="#CMMI12-3a" transform="translate(91.380954 0)scale(0.996264)"/>
       <use xlink:href="#CMR17-35" transform="translate(118.478131 0)scale(0.996264)"/>
      </g>
     </g>
    </g>
   </g>
   <g id="line2d_58">
    <path d="M 280.21132 168.947531 
L 326.284202 121.644037 
L 372.357083 116.424039 
L 418.429964 117.726853 
" clip-path="url(#p24a1e067ab)" style="fill: none; stroke: #207720; stroke-width: 1.5; stroke-linecap: round"/>
    <g clip-path="url(#p24a1e067ab)">
     <use xlink:href="#mbdc3301b9c" x="280.21132" y="168.947531" style="fill: #207720; stroke: #207720; stroke-linejoin: miter"/>
     <use xlink:href="#mbdc3301b9c" x="326.284202" y="121.644037" style="fill: #207720; stroke: #207720; stroke-linejoin: miter"/>
     <use xlink:href="#mbdc3301b9c" x="372.357083" y="116.424039" style="fill: #207720; stroke: #207720; stroke-linejoin: miter"/>
     <use xlink:href="#mbdc3301b9c" x="418.429964" y="117.726853" style="fill: #207720; stroke: #207720; stroke-linejoin: miter"/>
    </g>
   </g>
   <g id="line2d_59">
    <path d="M 280.21132 207.140075 
L 326.284202 118.706149 
L 372.357083 71.577529 
L 418.429964 57.229094 
" clip-path="url(#p24a1e067ab)" style="fill: none; stroke: #234990; stroke-width: 1.5; stroke-linecap: round"/>
    <g clip-path="url(#p24a1e067ab)">
     <use xlink:href="#me0c6d63fba" x="280.21132" y="207.140075" style="fill: #234990; stroke: #234990"/>
     <use xlink:href="#me0c6d63fba" x="326.284202" y="118.706149" style="fill: #234990; stroke: #234990"/>
     <use xlink:href="#me0c6d63fba" x="372.357083" y="71.577529" style="fill: #234990; stroke: #234990"/>
     <use xlink:href="#me0c6d63fba" x="418.429964" y="57.229094" style="fill: #234990; stroke: #234990"/>
    </g>
   </g>
   <g id="line2d_60">
    <path d="M 280.21132 211.86168 
L 326.284202 108.49349 
L 372.357083 54.789597 
L 418.429964 38.377646 
" clip-path="url(#p24a1e067ab)" style="fill: none; stroke: #e23726; stroke-width: 1.5; stroke-linecap: round"/>
    <g clip-path="url(#p24a1e067ab)">
     <use xlink:href="#m15f36fdb14" x="280.21132" y="211.86168" style="fill: #e23726; stroke: #e23726"/>
     <use xlink:href="#m15f36fdb14" x="326.284202" y="108.49349" style="fill: #e23726; stroke: #e23726"/>
     <use xlink:href="#m15f36fdb14" x="372.357083" y="54.789597" style="fill: #e23726; stroke: #e23726"/>
     <use xlink:href="#m15f36fdb14" x="418.429964" y="38.377646" style="fill: #e23726; stroke: #e23726"/>
    </g>
   </g>
   <g id="patch_8">
    <path d="M 273.300388 218.209617 
L 273.300388 28.645892 
" style="fill: none; stroke: #262626; stroke-width: 1.25; stroke-linejoin: miter; stroke-linecap: square"/>
   </g>
   <g id="patch_9">
    <path d="M 425.340896 218.209617 
L 425.340896 28.645892 
" style="fill: none; stroke: #262626; stroke-width: 1.25; stroke-linejoin: miter; stroke-linecap: square"/>
   </g>
   <g id="patch_10">
    <path d="M 273.300388 218.209617 
L 425.340896 218.209617 
" style="fill: none; stroke: #262626; stroke-width: 1.25; stroke-linejoin: miter; stroke-linecap: square"/>
   </g>
   <g id="patch_11">
    <path d="M 273.300388 28.645892 
L 425.340896 28.645892 
" style="fill: none; stroke: #262626; stroke-width: 1.25; stroke-linejoin: miter; stroke-linecap: square"/>
   </g>
   <g id="text_33">
    <!-- \textbf{Würzburg} -->
    <g style="fill: #262626" transform="translate(317.986599 22.645892)scale(0.14 -0.14)">
     <defs>
      <path id="CMSSBX10-57" d="M 6464 4109 
C 6490 4198 6490 4224 6490 4230 
C 6490 4416 6317 4416 6227 4416 
L 6093 4416 
C 5965 4416 5786 4416 5709 4135 
L 5030 1629 
C 4941 1304 4883 1094 4826 814 
L 4819 814 
C 4787 986 4787 999 4634 1559 
L 3942 4135 
C 3872 4383 3744 4416 3558 4416 
L 3136 4416 
C 3002 4416 2822 4416 2746 4135 
L 2182 2048 
L 2022 1419 
C 1952 1120 1901 916 1888 814 
L 1882 814 
C 1830 1145 1677 1705 1568 2106 
L 1018 4141 
C 941 4416 755 4416 634 4416 
L 416 4416 
C 326 4416 154 4416 154 4230 
C 154 4224 154 4198 179 4109 
L 1229 267 
C 1299 0 1478 0 1613 0 
L 2035 0 
C 2170 0 2349 0 2426 293 
L 3098 2780 
C 3194 3123 3238 3301 3302 3607 
L 3309 3607 
C 3386 3238 3424 3079 3539 2665 
L 4192 267 
C 4262 0 4442 0 4570 0 
L 5030 0 
C 5165 0 5344 0 5414 267 
L 6464 4109 
z
" transform="scale(0.015625)"/>
      <path id="CMSSBX10-7f" d="M 934 4480 
C 730 4480 627 4441 627 4185 
L 627 4038 
C 627 3801 717 3743 934 3743 
L 1222 3743 
C 1530 3743 1530 3903 1530 4108 
C 1530 4326 1530 4480 1222 4480 
L 934 4480 
z
M 2579 3743 
C 2784 3743 2886 3782 2886 4038 
L 2886 4185 
C 2886 4422 2797 4480 2579 4480 
L 2291 4480 
C 1984 4480 1984 4319 1984 4115 
C 1984 3897 1984 3743 2291 3743 
L 2579 3743 
z
" transform="scale(0.015625)"/>
      <path id="CMSSBX10-75" d="M 3200 2636 
C 3200 2841 3155 2944 2893 2944 
L 2637 2944 
C 2394 2944 2330 2860 2330 2636 
L 2330 1115 
C 2330 692 2106 326 1651 326 
C 1293 326 1254 416 1254 756 
L 1254 2636 
C 1254 2841 1210 2944 947 2944 
L 691 2944 
C 461 2944 384 2873 384 2636 
L 384 814 
C 384 128 755 -64 1421 -64 
C 1594 -64 2048 -64 2349 480 
L 2349 313 
C 2349 108 2394 6 2656 6 
L 2893 6 
C 3136 6 3200 89 3200 313 
L 3200 2636 
z
" transform="scale(0.015625)"/>
      <path id="CMSSBX10-7a" d="M 2726 2457 
C 2790 2540 2803 2572 2803 2675 
C 2803 2944 2605 2944 2496 2944 
L 602 2944 
C 518 2944 294 2944 294 2700 
C 294 2463 499 2463 672 2463 
C 877 2463 1395 2476 1600 2476 
L 1837 2476 
L 275 486 
C 211 403 198 371 198 268 
C 198 0 397 0 506 0 
L 2515 0 
C 2598 0 2822 0 2822 236 
C 2822 480 2624 480 2438 480 
C 2118 480 1779 467 1459 467 
L 1165 467 
L 2726 2457 
z
" transform="scale(0.015625)"/>
     </defs>
     <use xlink:href="#CMSSBX10-57" transform="scale(0.996264)"/>
     <use xlink:href="#CMSSBX10-7f" transform="translate(104.054817 0)scale(0.996264)"/>
     <use xlink:href="#CMSSBX10-75" transform="translate(103.501335 0)scale(0.996264)"/>
     <use xlink:href="#CMSSBX10-72" transform="translate(159.403123 0)scale(0.996264)"/>
     <use xlink:href="#CMSSBX10-7a" transform="translate(196.486534 0)scale(0.996264)"/>
     <use xlink:href="#CMSSBX10-62" transform="translate(243.94773 0)scale(0.996264)"/>
     <use xlink:href="#CMSSBX10-75" transform="translate(299.849518 0)scale(0.996264)"/>
     <use xlink:href="#CMSSBX10-72" transform="translate(355.751306 0)scale(0.996264)"/>
     <use xlink:href="#CMSSBX10-67" transform="translate(392.834716 0)scale(0.996264)"/>
    </g>
   </g>
  </g>
  <g id="text_34">
   <!-- \textbf{Demand Scenario} -->
   <g style="fill: #262626" transform="translate(173.665169 257.973156)scale(0.12 -0.12)">
    <defs>
     <path id="CMSSBX10-44" d="M 890 4416 
C 659 4416 582 4345 582 4108 
L 582 307 
C 582 76 653 0 890 0 
L 2579 0 
C 4141 0 4685 931 4685 2176 
C 4685 2677 4602 3293 4243 3744 
C 3763 4339 2995 4416 2579 4416 
L 890 4416 
z
M 1504 550 
L 1504 3865 
L 2323 3865 
C 3706 3865 3763 2887 3763 2176 
C 3763 1458 3693 550 2330 550 
L 1504 550 
z
" transform="scale(0.015625)"/>
     <path id="CMSSBX10-65" d="M 2758 1388 
C 2906 1388 3066 1395 3066 1683 
C 3066 2520 2682 3072 1728 3072 
C 704 3072 198 2494 198 1510 
C 198 448 806 -64 1811 -64 
C 2054 -64 2419 -32 2842 179 
C 2982 249 3027 268 3027 345 
C 3027 390 3008 578 3002 630 
C 2976 831 2970 837 2912 837 
C 2886 837 2874 837 2803 772 
C 2426 442 2042 396 1837 396 
C 1114 396 1037 973 1018 1388 
L 2758 1388 
z
M 1024 1728 
C 1043 2124 1171 2611 1728 2611 
C 2240 2611 2336 2234 2355 1728 
L 1024 1728 
z
" transform="scale(0.015625)"/>
     <path id="CMSSBX10-6d" d="M 5158 2059 
C 5158 2713 4877 2976 4224 2976 
C 3770 2976 3418 2764 3187 2344 
C 3085 2956 2541 2976 2272 2976 
C 2150 2976 1882 2976 1594 2764 
C 1395 2617 1267 2413 1222 2318 
L 1216 2318 
L 1216 2636 
C 1216 2841 1171 2944 909 2944 
L 691 2944 
C 461 2944 384 2873 384 2636 
L 384 305 
C 384 76 454 0 691 0 
L 947 0 
C 1190 0 1254 83 1254 305 
L 1254 1704 
C 1254 2274 1645 2515 1958 2515 
C 2266 2515 2336 2382 2336 2046 
L 2336 305 
C 2336 76 2406 0 2643 0 
L 2899 0 
C 3142 0 3206 83 3206 305 
L 3206 1704 
C 3206 2274 3597 2515 3910 2515 
C 4218 2515 4288 2382 4288 2046 
L 4288 305 
C 4288 76 4358 0 4595 0 
L 4851 0 
C 5094 0 5158 83 5158 305 
L 5158 2059 
z
" transform="scale(0.015625)"/>
     <path id="CMSSBX10-53" d="M 1728 2843 
C 1587 2875 1190 3023 1190 3389 
C 1190 3935 1734 3948 1952 3948 
C 2310 3948 2630 3865 2944 3556 
C 3046 3460 3053 3453 3078 3453 
C 3117 3453 3149 3473 3168 3569 
L 3264 4127 
C 3277 4179 3277 4191 3277 4211 
C 3277 4262 3270 4268 3110 4351 
C 2656 4575 2278 4608 1952 4608 
C 1382 4608 390 4473 390 3274 
C 390 2817 627 2522 749 2394 
C 1075 2059 1376 1995 1875 1880 
C 2234 1796 2374 1764 2515 1635 
C 2579 1571 2714 1436 2714 1192 
C 2714 588 2163 569 1952 569 
C 1414 569 947 788 627 1077 
C 550 1154 538 1154 512 1154 
C 474 1154 442 1134 422 1038 
L 326 480 
C 314 428 314 416 314 396 
C 314 262 979 32 1011 19 
C 1440 -116 1786 -128 1952 -128 
C 2912 -128 3514 300 3514 1295 
C 3514 2015 2982 2554 2342 2702 
L 1728 2843 
z
" transform="scale(0.015625)"/>
     <path id="CMSSBX10-63" d="M 2925 326 
C 2925 396 2899 694 2886 778 
C 2886 797 2874 862 2810 862 
C 2784 862 2771 862 2707 797 
C 2598 700 2298 435 1773 435 
C 1107 435 1107 1089 1107 1504 
C 1107 2028 1139 2572 1792 2572 
C 2208 2572 2381 2469 2611 2274 
C 2688 2203 2701 2203 2726 2203 
C 2790 2203 2803 2261 2810 2287 
C 2822 2339 2886 2700 2886 2732 
C 2886 2790 2842 2815 2733 2867 
C 2426 3007 2234 3072 1786 3072 
C 832 3072 237 2623 237 1491 
C 237 416 787 -64 1754 -64 
C 1926 -64 2310 -58 2739 160 
C 2918 256 2925 262 2925 326 
z
" transform="scale(0.015625)"/>
     <path id="CMSSBX10-6f" d="M 3315 1458 
C 3315 2520 2803 3072 1760 3072 
C 691 3072 198 2500 198 1458 
C 198 403 749 -64 1754 -64 
C 2758 -64 3315 396 3315 1458 
z
M 1760 435 
C 1069 435 1069 1018 1069 1536 
C 1069 2034 1069 2611 1754 2611 
C 2445 2611 2445 2041 2445 1536 
C 2445 1024 2445 435 1760 435 
z
" transform="scale(0.015625)"/>
    </defs>
    <use xlink:href="#CMSSBX10-44" transform="scale(0.996264)"/>
    <use xlink:href="#CMSSBX10-65" transform="translate(79.14808 0)scale(0.996264)"/>
    <use xlink:href="#CMSSBX10-6d" transform="translate(130.068533 0)scale(0.996264)"/>
    <use xlink:href="#CMSSBX10-61" transform="translate(216.41189 0)scale(0.996264)"/>
    <use xlink:href="#CMSSBX10-6e" transform="translate(268.716085 0)scale(0.996264)"/>
    <use xlink:href="#CMSSBX10-64" transform="translate(324.617873 0)scale(0.996264)"/>
    <use xlink:href="#CMSSBX10-53" transform="translate(417.049544 0)scale(0.996264)"/>
    <use xlink:href="#CMSSBX10-63" transform="translate(477.932682 0)scale(0.996264)"/>
    <use xlink:href="#CMSSBX10-65" transform="translate(526.639193 0)scale(0.996264)"/>
    <use xlink:href="#CMSSBX10-6e" transform="translate(577.559646 0)scale(0.996264)"/>
    <use xlink:href="#CMSSBX10-61" transform="translate(633.461434 0)scale(0.996264)"/>
    <use xlink:href="#CMSSBX10-72" transform="translate(682.721472 0)scale(0.996264)"/>
    <use xlink:href="#CMSSBX10-69" transform="translate(719.804882 0)scale(0.996264)"/>
    <use xlink:href="#CMSSBX10-6f" transform="translate(745.265101 0)scale(0.996264)"/>
   </g>
  </g>
  <g id="legend_1">
   <g id="patch_12">
    <path d="M 3 272.997634 
L 68.933699 272.997634 
Q 70.933699 272.997634 70.933699 270.997634 
L 70.933699 242.186099 
Q 70.933699 240.186099 68.933699 240.186099 
L 3 240.186099 
Q 1 240.186099 1 242.186099 
L 1 270.997634 
Q 1 272.997634 3 272.997634 
z
" style="fill: #ffffff; opacity: 0.8; stroke: #cccccc; stroke-linejoin: miter"/>
   </g>
   <g id="line2d_61">
    <path d="M 2 244.686099 
L 12 244.686099 
L 22 244.686099 
" style="fill: none; stroke: #207720; stroke-width: 1.5; stroke-linecap: round"/>
    <g>
     <use xlink:href="#mbdc3301b9c" x="12" y="244.686099" style="fill: #207720; stroke: #207720; stroke-linejoin: miter"/>
    </g>
   </g>
   <g id="text_35">
    <!-- In Store -->
    <g style="fill: #262626" transform="translate(30 248.186099)scale(0.1 -0.1)">
     <defs>
      <path id="CMSS17-49" d="M 1094 4416 
L 557 4416 
L 557 0 
L 1094 0 
L 1094 4416 
z
" transform="scale(0.015625)"/>
      <path id="CMSS17-6e" d="M 2618 1878 
C 2618 2283 2522 2816 1798 2816 
C 1389 2816 1120 2604 941 2386 
L 941 2783 
L 474 2783 
L 474 0 
L 960 0 
L 960 1556 
C 960 1962 1114 2425 1549 2425 
C 2112 2425 2131 2045 2131 1826 
L 2131 0 
L 2618 0 
L 2618 1878 
z
" transform="scale(0.015625)"/>
      <path id="CMSS17-53" d="M 2797 4230 
C 2515 4396 2208 4544 1690 4544 
C 864 4544 333 3934 333 3309 
C 333 3064 403 2787 653 2504 
C 902 2220 1184 2143 1542 2053 
C 1690 2014 1939 1943 1984 1924 
C 2342 1782 2515 1454 2515 1144 
C 2515 738 2202 307 1645 307 
C 1453 307 890 339 358 829 
L 269 320 
C 794 -64 1363 -128 1651 -128 
C 2438 -128 3002 494 3002 1202 
C 3002 1460 2925 1789 2656 2092 
C 2394 2381 2163 2446 1638 2588 
C 1338 2665 1146 2717 986 2916 
C 877 3058 819 3193 819 3367 
C 819 3728 1126 4121 1690 4121 
C 1971 4121 2336 4063 2707 3715 
L 2797 4230 
z
" transform="scale(0.015625)"/>
      <path id="CMSS17-74" d="M 1069 2380 
L 1901 2380 
L 1901 2752 
L 1069 2752 
L 1069 3520 
L 614 3520 
L 614 2752 
L 109 2752 
L 109 2380 
L 602 2380 
L 602 751 
C 602 384 685 -64 1107 -64 
C 1427 -64 1722 25 2003 172 
L 1901 551 
C 1747 416 1562 339 1363 339 
C 1082 339 1069 699 1069 860 
L 1069 2380 
z
" transform="scale(0.015625)"/>
      <path id="CMSS17-6f" d="M 2829 1356 
C 2829 2175 2221 2816 1504 2816 
C 768 2816 173 2156 173 1356 
C 173 544 787 -64 1498 -64 
C 2227 -64 2829 563 2829 1356 
z
M 1504 339 
C 1050 339 659 710 659 1407 
C 659 2150 1114 2425 1498 2425 
C 1914 2425 2342 2124 2342 1407 
C 2342 684 1926 339 1504 339 
z
" transform="scale(0.015625)"/>
      <path id="CMSS17-72" d="M 954 1369 
C 954 1974 1395 2379 1958 2392 
L 1958 2816 
C 1549 2809 1165 2604 934 2270 
L 934 2783 
L 480 2783 
L 480 0 
L 954 0 
L 954 1369 
z
" transform="scale(0.015625)"/>
      <path id="CMSS17-65" d="M 2502 1375 
C 2502 1587 2490 2001 2285 2347 
C 2061 2713 1696 2816 1421 2816 
C 755 2816 192 2184 192 1363 
C 192 579 774 -64 1510 -64 
C 1798 -64 2150 19 2470 249 
C 2470 275 2458 414 2451 421 
C 2451 433 2432 629 2432 655 
C 2125 408 1773 326 1517 326 
C 1107 326 666 667 646 1375 
L 2502 1375 
z
M 698 1728 
C 781 2086 1062 2425 1421 2425 
C 1517 2425 1965 2412 2080 1728 
L 698 1728 
z
" transform="scale(0.015625)"/>
     </defs>
     <use xlink:href="#CMSS17-49" transform="scale(0.996264)"/>
     <use xlink:href="#CMSS17-6e" transform="translate(25.783926 0)scale(0.996264)"/>
     <use xlink:href="#CMSS17-53" transform="translate(105.217981 0)scale(0.996264)"/>
     <use xlink:href="#CMSS17-74" transform="translate(157.266498 0)scale(0.996264)"/>
     <use xlink:href="#CMSS17-6f" transform="translate(191.098064 0)scale(0.996264)"/>
     <use xlink:href="#CMSS17-72" transform="translate(235.339234 0)scale(0.996264)"/>
     <use xlink:href="#CMSS17-65" transform="translate(267.249006 0)scale(0.996264)"/>
    </g>
   </g>
   <g id="line2d_62">
    <path d="M 2 255.623277 
L 12 255.623277 
L 22 255.623277 
" style="fill: none; stroke: #234990; stroke-width: 1.5; stroke-linecap: round"/>
    <g>
     <use xlink:href="#me0c6d63fba" x="12" y="255.623277" style="fill: #234990; stroke: #234990"/>
    </g>
   </g>
   <g id="text_36">
    <!-- Darkstore -->
    <g style="fill: #262626" transform="translate(30 259.123277)scale(0.1 -0.1)">
     <defs>
      <path id="CMSS17-44" d="M 570 4416 
L 570 0 
L 2144 0 
C 3194 0 4000 981 4000 2169 
C 4000 3396 3194 4416 2144 4416 
L 570 4416 
z
M 1094 358 
L 1094 4057 
L 2003 4057 
C 2861 4057 3475 3275 3475 2169 
C 3475 1108 2867 358 2003 358 
L 1094 358 
z
" transform="scale(0.015625)"/>
      <path id="CMSS17-61" d="M 2406 1789 
C 2406 2399 1978 2816 1402 2816 
C 1120 2816 813 2764 461 2559 
L 499 2133 
C 659 2250 934 2438 1395 2438 
C 1722 2438 1920 2185 1920 1782 
L 1920 1536 
C 896 1504 256 1209 256 711 
C 256 452 416 -64 947 -64 
C 1043 -64 1562 -52 1933 224 
L 1933 -13 
L 2406 -13 
L 2406 1789 
z
M 1920 824 
C 1920 711 1920 559 1728 446 
C 1562 339 1350 326 1261 326 
C 941 326 723 503 723 723 
C 723 1165 1722 1209 1920 1216 
L 1920 824 
z
" transform="scale(0.015625)"/>
      <path id="CMSS17-6b" d="M 1696 1686 
L 2688 2735 
L 2074 2735 
L 954 1552 
L 954 4416 
L 480 4416 
L 480 0 
L 947 0 
L 947 891 
L 1376 1342 
L 2278 0 
L 2822 0 
L 1696 1686 
z
" transform="scale(0.015625)"/>
      <path id="CMSS17-73" d="M 2061 2623 
C 1683 2803 1389 2816 1197 2816 
C 742 2816 198 2655 198 2009 
C 198 1363 902 1222 1094 1183 
C 1389 1126 1715 1062 1715 742 
C 1715 339 1254 339 1171 339 
C 915 339 563 409 243 639 
L 166 211 
C 531 0 883 -64 1178 -64 
C 1965 -64 2163 416 2163 780 
C 2163 1094 1984 1305 1862 1401 
C 1651 1567 1574 1587 1050 1695 
C 960 1708 646 1779 646 2067 
C 646 2431 1050 2431 1139 2431 
C 1555 2431 1811 2303 1984 2207 
L 2061 2623 
z
" transform="scale(0.015625)"/>
     </defs>
     <use xlink:href="#CMSS17-44" transform="scale(0.996264)"/>
     <use xlink:href="#CMSS17-61" transform="translate(67.542842 0)scale(0.996264)"/>
     <use xlink:href="#CMSS17-72" transform="translate(109.862308 0)scale(0.996264)"/>
     <use xlink:href="#CMSS17-6b" transform="translate(141.772081 0)scale(0.996264)"/>
     <use xlink:href="#CMSS17-73" transform="translate(187.37457 0)scale(0.996264)"/>
     <use xlink:href="#CMSS17-74" transform="translate(223.288112 0)scale(0.996264)"/>
     <use xlink:href="#CMSS17-6f" transform="translate(257.119679 0)scale(0.996264)"/>
     <use xlink:href="#CMSS17-72" transform="translate(301.360848 0)scale(0.996264)"/>
     <use xlink:href="#CMSS17-65" transform="translate(333.270621 0)scale(0.996264)"/>
    </g>
   </g>
   <g id="line2d_63">
    <path d="M 2 266.560456 
L 12 266.560456 
L 22 266.560456 
" style="fill: none; stroke: #e23726; stroke-width: 1.5; stroke-linecap: round"/>
    <g>
     <use xlink:href="#m15f36fdb14" x="12" y="266.560456" style="fill: #e23726; stroke: #e23726"/>
    </g>
   </g>
   <g id="text_37">
    <!-- FC -->
    <g style="fill: #262626" transform="translate(30 270.060456)scale(0.1 -0.1)">
     <defs>
      <path id="CMSS17-46" d="M 2918 1984 
L 2918 2374 
L 1101 2374 
L 1101 3993 
L 1882 3993 
C 1958 3993 2035 3987 2112 3987 
L 3168 3987 
L 3168 4403 
L 563 4403 
L 563 0 
L 1101 0 
L 1101 1984 
L 2918 1984 
z
" transform="scale(0.015625)"/>
      <path id="CMSS17-43" d="M 3501 705 
C 3072 416 2874 332 2355 332 
C 1459 332 934 1304 934 2191 
C 934 3137 1472 4070 2381 4070 
C 2790 4070 3059 3954 3386 3748 
L 3475 4255 
C 3168 4409 2778 4480 2387 4480 
C 1158 4480 397 3343 397 2191 
C 397 924 1299 -77 2323 -77 
C 2874 -77 3066 -32 3539 268 
L 3501 705 
z
" transform="scale(0.015625)"/>
     </defs>
     <use xlink:href="#CMSS17-46" transform="scale(0.996264)"/>
     <use xlink:href="#CMSS17-43" transform="translate(50.687105 0)scale(0.996264)"/>
    </g>
   </g>
  </g>
 </g>
 <defs>
  <clipPath id="pc1ab7e3706">
   <rect x="65.75714" y="28.645892" width="152.040508" height="189.563725"/>
  </clipPath>
  <clipPath id="p24a1e067ab">
   <rect x="273.300388" y="28.645892" width="152.040508" height="189.563725"/>
  </clipPath>
 </defs>
</svg>
