<?xml version="1.0" encoding="utf-8" standalone="no"?>
<!DOCTYPE svg PUBLIC "-//W3C//DTD SVG 1.1//EN"
  "http://www.w3.org/Graphics/SVG/1.1/DTD/svg11.dtd">
<svg xmlns:xlink="http://www.w3.org/1999/xlink" width="498.132005pt" height="307.86251pt" viewBox="0 0 498.132005 307.86251" xmlns="http://www.w3.org/2000/svg" version="1.1">
 <metadata>
  <rdf:RDF xmlns:dc="http://purl.org/dc/elements/1.1/" xmlns:cc="http://creativecommons.org/ns#" xmlns:rdf="http://www.w3.org/1999/02/22-rdf-syntax-ns#">
   <cc:Work>
    <dc:type rdf:resource="http://purl.org/dc/dcmitype/StillImage"/>
    <dc:date>2022-04-02T11:23:46.382893</dc:date>
    <dc:format>image/svg+xml</dc:format>
    <dc:creator>
     <cc:Agent>
      <dc:title>Matplotlib v3.5.0, https://matplotlib.org/</dc:title>
     </cc:Agent>
    </dc:creator>
   </cc:Work>
  </rdf:RDF>
 </metadata>
 <defs>
  <style type="text/css">*{stroke-linejoin: round; stroke-linecap: butt}</style>
 </defs>
 <g id="figure_1">
  <g id="patch_1">
   <path d="M 0 307.86251 
L 498.132005 307.86251 
L 498.132005 0 
L 0 0 
z
" style="fill: #ffffff"/>
  </g>
  <g id="axes_1">
   <g id="patch_2">
    <path d="M 49.374103 252.074493 
L 175.441223 252.074493 
L 175.441223 28.645876 
L 49.374103 28.645876 
z
" style="fill: #ffffff"/>
   </g>
   <g id="matplotlib.axis_1">
    <g id="xtick_1">
     <g id="line2d_1">
      <defs>
       <path id="m494ad0699b" d="M 0 0 
L 0 6 
" style="stroke: #262626; stroke-width: 0.8"/>
      </defs>
      <g>
       <use xlink:href="#m494ad0699b" x="55.104426" y="252.074493" style="fill: #262626; stroke: #262626; stroke-width: 0.8"/>
      </g>
     </g>
     <g id="text_1">
      <!-- $25$C -->
      <g style="fill: #262626" transform="translate(46.124186 269.18484)scale(0.11 -0.11)">
       <defs>
        <path id="CMR17-32" d="M 2669 990 
L 2554 990 
C 2490 537 2438 460 2413 422 
C 2381 371 1920 371 1830 371 
L 602 371 
C 832 620 1280 1073 1824 1596 
C 2214 1966 2669 2400 2669 3033 
C 2669 3788 2067 4224 1395 4224 
C 691 4224 262 3603 262 3027 
C 262 2777 448 2745 525 2745 
C 589 2745 781 2783 781 3007 
C 781 3206 614 3264 525 3264 
C 486 3264 448 3257 422 3244 
C 544 3788 915 4057 1306 4057 
C 1862 4057 2227 3616 2227 3033 
C 2227 2477 1901 1998 1536 1583 
L 262 147 
L 262 0 
L 2515 0 
L 2669 990 
z
" transform="scale(0.015625)"/>
        <path id="CMR17-35" d="M 730 3750 
C 794 3724 1056 3641 1325 3641 
C 1920 3641 2246 3961 2432 4140 
C 2432 4191 2432 4224 2394 4224 
C 2387 4224 2374 4224 2323 4198 
C 2099 4102 1837 4032 1517 4032 
C 1325 4032 1037 4055 723 4191 
C 653 4224 640 4224 634 4224 
C 602 4224 595 4217 595 4090 
L 595 2231 
C 595 2113 595 2080 659 2080 
C 691 2080 704 2093 736 2139 
C 941 2435 1222 2560 1542 2560 
C 1766 2560 2246 2415 2246 1293 
C 2246 1087 2246 716 2054 422 
C 1894 159 1645 25 1370 25 
C 947 25 518 319 403 812 
C 429 806 480 793 506 793 
C 589 793 749 838 749 1036 
C 749 1209 627 1280 506 1280 
C 358 1280 262 1190 262 1011 
C 262 454 704 -128 1382 -128 
C 2042 -128 2669 441 2669 1267 
C 2669 2054 2170 2662 1549 2662 
C 1222 2662 947 2540 730 2304 
L 730 3750 
z
" transform="scale(0.015625)"/>
        <path id="CMSS17-43" d="M 3501 705 
C 3072 416 2874 332 2355 332 
C 1459 332 934 1304 934 2191 
C 934 3137 1472 4070 2381 4070 
C 2790 4070 3059 3954 3386 3748 
L 3475 4255 
C 3168 4409 2778 4480 2387 4480 
C 1158 4480 397 3343 397 2191 
C 397 924 1299 -77 2323 -77 
C 2874 -77 3066 -32 3539 268 
L 3501 705 
z
" transform="scale(0.015625)"/>
       </defs>
       <use xlink:href="#CMR17-32" transform="scale(0.996264)"/>
       <use xlink:href="#CMR17-35" transform="translate(45.690477 0)scale(0.996264)"/>
       <use xlink:href="#CMSS17-43" transform="translate(91.380954 0)scale(0.996264)"/>
      </g>
     </g>
    </g>
    <g id="xtick_2">
     <g id="line2d_2">
      <g>
       <use xlink:href="#m494ad0699b" x="93.306584" y="252.074493" style="fill: #262626; stroke: #262626; stroke-width: 0.8"/>
      </g>
     </g>
     <g id="text_2">
      <!-- $50$C -->
      <g style="fill: #262626" transform="translate(84.326344 269.18484)scale(0.11 -0.11)">
       <defs>
        <path id="CMR17-30" d="M 2688 2038 
C 2688 2430 2682 3099 2413 3613 
C 2176 4063 1798 4224 1466 4224 
C 1158 4224 768 4082 525 3620 
C 269 3137 243 2539 243 2038 
C 243 1671 250 1112 448 623 
C 723 -39 1216 -128 1466 -128 
C 1760 -128 2208 -7 2470 604 
C 2662 1048 2688 1568 2688 2038 
z
M 1466 -26 
C 1056 -26 813 328 723 816 
C 653 1196 653 1749 653 2109 
C 653 2604 653 3015 736 3407 
C 858 3954 1216 4121 1466 4121 
C 1728 4121 2067 3947 2189 3420 
C 2272 3054 2278 2623 2278 2109 
C 2278 1691 2278 1176 2202 797 
C 2067 96 1690 -26 1466 -26 
z
" transform="scale(0.015625)"/>
       </defs>
       <use xlink:href="#CMR17-35" transform="scale(0.996264)"/>
       <use xlink:href="#CMR17-30" transform="translate(45.690477 0)scale(0.996264)"/>
       <use xlink:href="#CMSS17-43" transform="translate(91.380954 0)scale(0.996264)"/>
      </g>
     </g>
    </g>
    <g id="xtick_3">
     <g id="line2d_3">
      <g>
       <use xlink:href="#m494ad0699b" x="131.508742" y="252.074493" style="fill: #262626; stroke: #262626; stroke-width: 0.8"/>
      </g>
     </g>
     <g id="text_3">
      <!-- $100$C -->
      <g style="fill: #262626" transform="translate(119.788768 269.18484)scale(0.11 -0.11)">
       <defs>
        <path id="CMR17-31" d="M 1702 4083 
C 1702 4217 1696 4224 1606 4224 
C 1357 3927 979 3833 621 3820 
C 602 3820 570 3820 563 3808 
C 557 3795 557 3782 557 3648 
C 755 3648 1088 3686 1344 3839 
L 1344 467 
C 1344 243 1331 166 781 166 
L 589 166 
L 589 0 
C 896 6 1216 12 1523 12 
C 1830 12 2150 6 2458 0 
L 2458 166 
L 2266 166 
C 1715 166 1702 236 1702 467 
L 1702 4083 
z
" transform="scale(0.015625)"/>
       </defs>
       <use xlink:href="#CMR17-31" transform="scale(0.996264)"/>
       <use xlink:href="#CMR17-30" transform="translate(45.690477 0)scale(0.996264)"/>
       <use xlink:href="#CMR17-30" transform="translate(91.380954 0)scale(0.996264)"/>
       <use xlink:href="#CMSS17-43" transform="translate(137.071431 0)scale(0.996264)"/>
      </g>
     </g>
    </g>
    <g id="xtick_4">
     <g id="line2d_4">
      <g>
       <use xlink:href="#m494ad0699b" x="169.7109" y="252.074493" style="fill: #262626; stroke: #262626; stroke-width: 0.8"/>
      </g>
     </g>
     <g id="text_4">
      <!-- $150$C -->
      <g style="fill: #262626" transform="translate(157.990926 269.18484)scale(0.11 -0.11)">
       <use xlink:href="#CMR17-31" transform="scale(0.996264)"/>
       <use xlink:href="#CMR17-35" transform="translate(45.690477 0)scale(0.996264)"/>
       <use xlink:href="#CMR17-30" transform="translate(91.380954 0)scale(0.996264)"/>
       <use xlink:href="#CMSS17-43" transform="translate(137.071431 0)scale(0.996264)"/>
      </g>
     </g>
    </g>
   </g>
   <g id="matplotlib.axis_2">
    <g id="ytick_1">
     <g id="line2d_5">
      <path d="M 49.374103 243.463862 
L 175.441223 243.463862 
" clip-path="url(#p0fbb0ec70a)" style="fill: none; stroke: #cccccc; stroke-width: 0.8; stroke-linecap: round"/>
     </g>
     <g id="line2d_6">
      <defs>
       <path id="m5a87b7d2ae" d="M 0 0 
L -6 0 
" style="stroke: #262626; stroke-width: 0.8"/>
      </defs>
      <g>
       <use xlink:href="#m5a87b7d2ae" x="49.374103" y="243.463862" style="fill: #262626; stroke: #262626; stroke-width: 0.8"/>
      </g>
     </g>
     <g id="text_5">
      <!-- $\mathdefault{0}$ -->
      <g style="fill: #262626" transform="translate(34.394635 247.269036)scale(0.11 -0.11)">
       <use xlink:href="#CMR17-30" transform="scale(0.996264)"/>
      </g>
     </g>
    </g>
    <g id="ytick_2">
     <g id="line2d_7">
      <path d="M 49.374103 209.125729 
L 175.441223 209.125729 
" clip-path="url(#p0fbb0ec70a)" style="fill: none; stroke: #cccccc; stroke-width: 0.8; stroke-linecap: round"/>
     </g>
     <g id="line2d_8">
      <g>
       <use xlink:href="#m5a87b7d2ae" x="49.374103" y="209.125729" style="fill: #262626; stroke: #262626; stroke-width: 0.8"/>
      </g>
     </g>
     <g id="text_6">
      <!-- $\mathdefault{5}$ -->
      <g style="fill: #262626" transform="translate(34.394635 212.930903)scale(0.11 -0.11)">
       <use xlink:href="#CMR17-35" transform="scale(0.996264)"/>
      </g>
     </g>
    </g>
    <g id="ytick_3">
     <g id="line2d_9">
      <path d="M 49.374103 174.787596 
L 175.441223 174.787596 
" clip-path="url(#p0fbb0ec70a)" style="fill: none; stroke: #cccccc; stroke-width: 0.8; stroke-linecap: round"/>
     </g>
     <g id="line2d_10">
      <g>
       <use xlink:href="#m5a87b7d2ae" x="49.374103" y="174.787596" style="fill: #262626; stroke: #262626; stroke-width: 0.8"/>
      </g>
     </g>
     <g id="text_7">
      <!-- $\mathdefault{10}$ -->
      <g style="fill: #262626" transform="translate(28.915168 178.59277)scale(0.11 -0.11)">
       <use xlink:href="#CMR17-31" transform="scale(0.996264)"/>
       <use xlink:href="#CMR17-30" transform="translate(45.690477 0)scale(0.996264)"/>
      </g>
     </g>
    </g>
    <g id="ytick_4">
     <g id="line2d_11">
      <path d="M 49.374103 140.449463 
L 175.441223 140.449463 
" clip-path="url(#p0fbb0ec70a)" style="fill: none; stroke: #cccccc; stroke-width: 0.8; stroke-linecap: round"/>
     </g>
     <g id="line2d_12">
      <g>
       <use xlink:href="#m5a87b7d2ae" x="49.374103" y="140.449463" style="fill: #262626; stroke: #262626; stroke-width: 0.8"/>
      </g>
     </g>
     <g id="text_8">
      <!-- $\mathdefault{15}$ -->
      <g style="fill: #262626" transform="translate(28.915168 144.254637)scale(0.11 -0.11)">
       <use xlink:href="#CMR17-31" transform="scale(0.996264)"/>
       <use xlink:href="#CMR17-35" transform="translate(45.690477 0)scale(0.996264)"/>
      </g>
     </g>
    </g>
    <g id="ytick_5">
     <g id="line2d_13">
      <path d="M 49.374103 106.11133 
L 175.441223 106.11133 
" clip-path="url(#p0fbb0ec70a)" style="fill: none; stroke: #cccccc; stroke-width: 0.8; stroke-linecap: round"/>
     </g>
     <g id="line2d_14">
      <g>
       <use xlink:href="#m5a87b7d2ae" x="49.374103" y="106.11133" style="fill: #262626; stroke: #262626; stroke-width: 0.8"/>
      </g>
     </g>
     <g id="text_9">
      <!-- $\mathdefault{20}$ -->
      <g style="fill: #262626" transform="translate(28.915168 109.916504)scale(0.11 -0.11)">
       <use xlink:href="#CMR17-32" transform="scale(0.996264)"/>
       <use xlink:href="#CMR17-30" transform="translate(45.690477 0)scale(0.996264)"/>
      </g>
     </g>
    </g>
    <g id="ytick_6">
     <g id="line2d_15">
      <path d="M 49.374103 71.773197 
L 175.441223 71.773197 
" clip-path="url(#p0fbb0ec70a)" style="fill: none; stroke: #cccccc; stroke-width: 0.8; stroke-linecap: round"/>
     </g>
     <g id="line2d_16">
      <g>
       <use xlink:href="#m5a87b7d2ae" x="49.374103" y="71.773197" style="fill: #262626; stroke: #262626; stroke-width: 0.8"/>
      </g>
     </g>
     <g id="text_10">
      <!-- $\mathdefault{25}$ -->
      <g style="fill: #262626" transform="translate(28.915168 75.578371)scale(0.11 -0.11)">
       <use xlink:href="#CMR17-32" transform="scale(0.996264)"/>
       <use xlink:href="#CMR17-35" transform="translate(45.690477 0)scale(0.996264)"/>
      </g>
     </g>
    </g>
    <g id="ytick_7">
     <g id="line2d_17">
      <path d="M 49.374103 37.435064 
L 175.441223 37.435064 
" clip-path="url(#p0fbb0ec70a)" style="fill: none; stroke: #cccccc; stroke-width: 0.8; stroke-linecap: round"/>
     </g>
     <g id="line2d_18">
      <g>
       <use xlink:href="#m5a87b7d2ae" x="49.374103" y="37.435064" style="fill: #262626; stroke: #262626; stroke-width: 0.8"/>
      </g>
     </g>
     <g id="text_11">
      <!-- $\mathdefault{30}$ -->
      <g style="fill: #262626" transform="translate(28.915168 41.240238)scale(0.11 -0.11)">
       <defs>
        <path id="CMR17-33" d="M 1414 2176 
C 1984 2176 2234 1673 2234 1094 
C 2234 322 1824 25 1453 25 
C 1114 25 563 193 390 691 
C 422 678 454 678 486 678 
C 640 678 755 780 755 947 
C 755 1132 614 1216 486 1216 
C 378 1216 211 1164 211 927 
C 211 335 787 -128 1466 -128 
C 2176 -128 2720 432 2720 1087 
C 2720 1718 2208 2176 1600 2246 
C 2086 2347 2554 2776 2554 3353 
C 2554 3856 2048 4224 1472 4224 
C 890 4224 378 3862 378 3347 
C 378 3123 544 3084 627 3084 
C 762 3084 877 3167 877 3334 
C 877 3500 762 3584 627 3584 
C 602 3584 570 3584 544 3571 
C 730 3999 1235 4076 1459 4076 
C 1683 4076 2106 3966 2106 3347 
C 2106 3167 2080 2851 1862 2574 
C 1670 2329 1453 2316 1242 2297 
C 1210 2297 1062 2284 1037 2284 
C 992 2278 966 2272 966 2227 
C 966 2182 973 2176 1101 2176 
L 1414 2176 
z
" transform="scale(0.015625)"/>
       </defs>
       <use xlink:href="#CMR17-33" transform="scale(0.996264)"/>
       <use xlink:href="#CMR17-30" transform="translate(45.690477 0)scale(0.996264)"/>
      </g>
     </g>
    </g>
    <g id="text_12">
     <!-- \textbf{Average Cost/Order in € -->
     <g style="fill: #262626" transform="translate(21.926376 210.501216)rotate(-90)scale(0.12 -0.12)">
      <defs>
       <path id="CMSSBX10-41" d="M 3034 4142 
C 2938 4416 2752 4416 2624 4416 
L 2061 4416 
C 1933 4416 1747 4416 1651 4142 
L 301 299 
C 269 216 269 204 269 172 
C 269 0 429 0 518 0 
L 749 0 
C 864 0 1062 0 1152 255 
L 1402 960 
L 3174 960 
L 3392 350 
C 3469 128 3514 0 3821 0 
L 4166 0 
C 4256 0 4416 0 4416 172 
C 4416 204 4416 216 4384 299 
L 3034 4142 
z
M 2054 2858 
C 2150 3137 2234 3379 2285 3608 
L 2291 3608 
C 2323 3455 2323 3442 2374 3296 
L 2982 1510 
L 1594 1510 
L 2054 2858 
z
" transform="scale(0.015625)"/>
       <path id="CMSSBX10-76" d="M 2995 2642 
C 3027 2732 3027 2745 3027 2764 
C 3027 2944 2867 2944 2771 2944 
L 2637 2944 
C 2368 2944 2298 2847 2240 2668 
L 1606 726 
L 973 2668 
C 928 2803 883 2944 576 2944 
L 422 2944 
C 326 2944 166 2944 166 2764 
C 166 2745 166 2732 198 2642 
L 960 269 
C 1050 0 1248 0 1363 0 
L 1830 0 
C 1946 0 2144 0 2234 269 
L 2995 2642 
z
" transform="scale(0.015625)"/>
       <path id="CMSSBX10-65" d="M 2758 1388 
C 2906 1388 3066 1395 3066 1683 
C 3066 2520 2682 3072 1728 3072 
C 704 3072 198 2494 198 1510 
C 198 448 806 -64 1811 -64 
C 2054 -64 2419 -32 2842 179 
C 2982 249 3027 268 3027 345 
C 3027 390 3008 578 3002 630 
C 2976 831 2970 837 2912 837 
C 2886 837 2874 837 2803 772 
C 2426 442 2042 396 1837 396 
C 1114 396 1037 973 1018 1388 
L 2758 1388 
z
M 1024 1728 
C 1043 2124 1171 2611 1728 2611 
C 2240 2611 2336 2234 2355 1728 
L 1024 1728 
z
" transform="scale(0.015625)"/>
       <path id="CMSSBX10-72" d="M 1242 1456 
C 1242 2057 1747 2304 2150 2329 
C 2266 2335 2278 2335 2278 2502 
L 2278 2803 
C 2278 2931 2278 2976 2163 2976 
C 1984 2976 1517 2911 1216 2222 
L 1210 2222 
L 1210 2636 
C 1210 2841 1165 2944 902 2944 
L 698 2944 
C 467 2944 390 2873 390 2636 
L 390 305 
C 390 76 461 0 698 0 
L 934 0 
C 1178 0 1242 83 1242 305 
L 1242 1456 
z
" transform="scale(0.015625)"/>
       <path id="CMSSBX10-61" d="M 2970 2047 
C 2970 3065 1997 3072 1677 3072 
C 1376 3072 1056 3046 627 2867 
C 493 2809 461 2790 461 2719 
C 461 2675 499 2300 506 2248 
C 512 2209 544 2177 589 2177 
C 621 2177 640 2196 659 2215 
C 934 2507 1254 2649 1651 2649 
C 1997 2649 2099 2436 2099 2054 
L 2099 1827 
C 1875 1827 198 1814 198 862 
C 198 409 557 -64 1120 -64 
C 1338 -64 1818 0 2118 442 
L 2118 313 
C 2118 108 2163 6 2426 6 
L 2662 6 
C 2906 6 2970 89 2970 313 
L 2970 2047 
z
M 2099 998 
C 2099 396 1491 396 1472 396 
C 1203 396 1030 629 1030 875 
C 1030 1510 1920 1555 2099 1562 
L 2099 998 
z
" transform="scale(0.015625)"/>
       <path id="CMSSBX10-67" d="M 1280 569 
C 1050 569 960 569 870 651 
C 845 678 736 780 736 953 
C 736 998 742 1011 749 1049 
C 1050 883 1427 883 1562 883 
C 1830 883 2848 883 2848 1942 
C 2848 2315 2707 2540 2650 2611 
C 2758 2611 2982 2611 3245 2540 
C 3270 2527 3315 2514 3334 2514 
C 3386 2514 3418 2553 3418 2598 
C 3418 2623 3386 2777 3373 2841 
C 3347 2995 3347 3008 3232 3008 
C 3034 3008 2714 2931 2470 2783 
C 2170 2982 1837 3008 1562 3008 
C 1293 3008 275 3008 275 1948 
C 275 1691 346 1369 589 1158 
C 416 921 416 658 416 624 
C 416 499 454 288 589 115 
C 493 76 160 -39 160 -451 
C 160 -651 256 -986 659 -1172 
C 1024 -1338 1453 -1344 1754 -1344 
C 2131 -1344 3354 -1344 3354 -432 
C 3354 569 2451 569 1587 569 
L 1280 569 
z
M 1562 1344 
C 1114 1344 1094 1588 1094 1942 
C 1094 2296 1114 2547 1562 2547 
C 2010 2547 2029 2302 2029 1948 
C 2029 1594 2010 1344 1562 1344 
z
M 1907 -128 
C 2426 -128 2694 -219 2694 -451 
C 2694 -884 1965 -884 1760 -884 
C 1504 -884 819 -884 819 -432 
C 819 -128 1018 -128 1165 -128 
L 1907 -128 
z
" transform="scale(0.015625)"/>
       <path id="CMSSBX10-43" d="M 4096 917 
C 4096 969 4051 995 4026 995 
C 3872 995 3686 576 2784 576 
C 1658 576 1338 1272 1338 2239 
C 1338 3200 1683 3897 2733 3897 
C 3302 3897 3603 3671 3776 3529 
C 3814 3497 3834 3471 3878 3471 
C 3904 3471 3936 3503 3942 3529 
L 4070 4243 
C 4077 4268 4070 4294 4019 4313 
C 3642 4454 3251 4544 2752 4544 
C 1190 4544 390 3781 390 2246 
C 390 666 1203 -64 2758 -64 
C 3302 -64 3642 12 4109 300 
C 4160 332 4147 377 4147 377 
L 4096 917 
z
" transform="scale(0.015625)"/>
       <path id="CMSSBX10-6f" d="M 3315 1458 
C 3315 2520 2803 3072 1760 3072 
C 691 3072 198 2500 198 1458 
C 198 403 749 -64 1754 -64 
C 2758 -64 3315 396 3315 1458 
z
M 1760 435 
C 1069 435 1069 1018 1069 1536 
C 1069 2034 1069 2611 1754 2611 
C 2445 2611 2445 2041 2445 1536 
C 2445 1024 2445 435 1760 435 
z
" transform="scale(0.015625)"/>
       <path id="CMSSBX10-73" d="M 2534 914 
C 2534 1277 2342 1503 2227 1607 
C 1971 1840 1747 1879 1478 1931 
C 1126 1995 870 2047 870 2300 
C 870 2565 1082 2617 1331 2617 
C 1760 2617 1990 2455 2157 2313 
C 2221 2248 2234 2248 2259 2248 
C 2323 2248 2336 2306 2342 2332 
C 2355 2384 2419 2745 2419 2777 
C 2419 2879 2080 2969 2010 2995 
C 1754 3065 1549 3072 1382 3072 
C 1094 3072 237 3072 237 2151 
C 237 1833 378 1639 550 1484 
C 774 1277 1024 1231 1389 1160 
C 1574 1128 1901 1069 1901 784 
C 1901 480 1651 435 1402 435 
C 1120 435 762 519 461 882 
C 429 914 410 933 371 933 
C 307 933 294 875 288 836 
C 275 746 198 377 198 313 
C 198 198 672 51 678 44 
C 1030 -64 1293 -64 1402 -64 
C 1728 -64 2534 -39 2534 914 
z
" transform="scale(0.015625)"/>
       <path id="CMSSBX10-74" d="M 1395 2483 
L 1965 2483 
C 2042 2483 2272 2483 2272 2713 
C 2272 2944 2042 2944 1965 2944 
L 1395 2944 
L 1395 3470 
C 1395 3673 1350 3776 1088 3776 
L 890 3776 
C 659 3776 582 3705 582 3470 
L 582 2944 
L 435 2944 
C 365 2944 128 2944 128 2713 
C 128 2483 358 2483 435 2483 
L 563 2483 
L 563 858 
C 563 211 794 -64 1235 -64 
C 1293 -64 1574 -64 1907 38 
C 2016 70 2387 185 2387 307 
C 2387 326 2374 371 2336 505 
C 2304 634 2291 672 2234 672 
C 2202 672 2195 666 2157 627 
C 2086 576 1914 435 1645 435 
C 1491 435 1395 544 1395 968 
L 1395 2483 
z
" transform="scale(0.015625)"/>
       <path id="CMSSBX10-2f" d="M 3085 4384 
C 3123 4480 3123 4486 3123 4531 
C 3123 4672 3008 4800 2854 4800 
C 2669 4800 2605 4640 2586 4582 
L 429 -1184 
C 390 -1280 390 -1287 390 -1332 
C 390 -1472 506 -1600 659 -1600 
C 845 -1600 909 -1440 928 -1383 
L 3085 4384 
z
" transform="scale(0.015625)"/>
       <path id="CMSSBX10-4f" d="M 4685 2207 
C 4685 3498 4218 4608 2541 4608 
C 768 4608 390 3383 390 2207 
C 390 1006 806 -128 2534 -128 
C 4186 -128 4685 891 4685 2207 
z
M 2541 384 
C 1331 384 1331 1726 1331 2310 
C 1331 2875 1331 4108 2534 4108 
C 3744 4108 3744 2888 3744 2310 
C 3744 1739 3744 384 2541 384 
z
" transform="scale(0.015625)"/>
       <path id="CMSSBX10-64" d="M 3194 4113 
C 3194 4313 3149 4416 2886 4416 
L 2650 4416 
C 2406 4416 2342 4332 2342 4113 
L 2342 2687 
C 2054 2963 1734 3008 1536 3008 
C 237 3008 237 1779 237 1465 
C 237 1171 237 -64 1504 -64 
C 1773 -64 2048 12 2323 307 
C 2323 70 2413 6 2630 6 
L 2886 6 
C 3130 6 3194 89 3194 313 
L 3194 4113 
z
M 2323 806 
C 2323 697 2323 640 2138 512 
C 1978 409 1830 396 1754 396 
C 1107 396 1107 985 1107 1465 
C 1107 1945 1107 2547 1824 2547 
C 2010 2547 2182 2483 2323 2348 
L 2323 806 
z
" transform="scale(0.015625)"/>
       <path id="CMSSBX10-69" d="M 653 4480 
C 448 4480 346 4441 346 4185 
L 346 3891 
C 346 3686 410 3603 646 3603 
L 979 3603 
C 1286 3603 1286 3737 1286 4038 
C 1286 4345 1286 4480 979 4480 
L 653 4480 
z
M 1242 2635 
C 1242 2841 1197 2944 934 2944 
L 698 2944 
C 467 2944 390 2873 390 2635 
L 390 308 
C 390 76 461 0 698 0 
L 934 0 
C 1178 0 1242 83 1242 308 
L 1242 2635 
z
" transform="scale(0.015625)"/>
       <path id="CMSSBX10-6e" d="M 3200 2085 
C 3200 2745 2918 3008 2266 3008 
C 1594 3008 1306 2521 1222 2348 
L 1216 2348 
L 1216 2668 
C 1216 2873 1171 2975 909 2975 
L 691 2975 
C 461 2975 384 2905 384 2668 
L 384 307 
C 384 76 454 0 691 0 
L 947 0 
C 1190 0 1254 83 1254 307 
L 1254 1725 
C 1254 2284 1626 2547 1958 2547 
C 2266 2547 2330 2399 2330 2072 
L 2330 307 
C 2330 102 2374 0 2637 0 
L 2893 0 
C 3136 0 3200 83 3200 307 
L 3200 2085 
z
" transform="scale(0.015625)"/>
       <path id="SFSX3583-bf" d="M 1069 2432 
L 1069 1996 
L 461 1996 
C 422 1996 403 1984 403 1945 
L 403 1696 
C 403 1664 435 1664 474 1664 
L 608 1664 
C 781 1664 947 1657 1120 1657 
C 1171 1014 1722 528 2086 339 
C 2714 6 3424 0 4115 0 
L 5453 0 
C 5510 0 5530 6 5530 64 
L 5530 102 
C 5530 160 5536 217 5536 275 
L 5536 300 
C 5536 358 5530 403 5459 403 
C 4890 401 4333 352 3770 352 
L 3693 352 
C 2893 383 1914 631 1734 1632 
C 1958 1632 2189 1619 2413 1619 
L 2880 1619 
C 3219 1619 3558 1600 3898 1600 
L 4205 1600 
C 4250 1600 4250 1632 4250 1670 
L 4250 1932 
C 4250 1977 4243 1996 4198 1996 
L 1677 1996 
L 1677 2432 
L 4198 2432 
C 4224 2432 4250 2438 4250 2489 
L 4250 2764 
C 4250 2803 4230 2816 4179 2816 
L 4134 2816 
C 4013 2816 3898 2803 3776 2803 
C 3693 2803 3610 2809 3526 2809 
C 3475 2809 3430 2809 3379 2803 
L 2918 2803 
C 2694 2803 2477 2790 2253 2790 
C 2157 2790 2061 2796 1965 2796 
C 1894 2796 1818 2790 1747 2783 
C 2074 3710 2880 3935 3674 3935 
C 4269 3935 4851 3891 5446 3891 
L 5478 3891 
C 5523 3891 5530 3916 5530 3955 
L 5530 4223 
C 5530 4268 5504 4288 5453 4288 
C 5427 4294 5402 4288 5382 4288 
L 4038 4288 
C 2950 4288 1600 4230 1158 2904 
C 1146 2841 1133 2784 1050 2784 
C 1024 2784 992 2790 973 2790 
C 845 2790 710 2784 582 2784 
L 454 2784 
C 410 2784 403 2758 403 2720 
L 403 2489 
C 403 2432 429 2432 480 2432 
L 1069 2432 
z
" transform="scale(0.015625)"/>
      </defs>
      <use xlink:href="#CMSSBX10-41" transform="scale(0.996264)"/>
      <use xlink:href="#CMSSBX10-76" transform="translate(73.059766 0)scale(0.996264)"/>
      <use xlink:href="#CMSSBX10-65" transform="translate(122.87324 0)scale(0.996264)"/>
      <use xlink:href="#CMSSBX10-72" transform="translate(173.793693 0)scale(0.996264)"/>
      <use xlink:href="#CMSSBX10-61" transform="translate(210.877103 0)scale(0.996264)"/>
      <use xlink:href="#CMSSBX10-67" transform="translate(263.181298 0)scale(0.996264)"/>
      <use xlink:href="#CMSSBX10-65" transform="translate(317.976123 0)scale(0.996264)"/>
      <use xlink:href="#CMSSBX10-43" transform="translate(405.426459 0)scale(0.996264)"/>
      <use xlink:href="#CMSSBX10-6f" transform="translate(475.442068 0)scale(0.996264)"/>
      <use xlink:href="#CMSSBX10-73" transform="translate(530.236892 0)scale(0.996264)"/>
      <use xlink:href="#CMSSBX10-74" transform="translate(572.246258 0)scale(0.996264)"/>
      <use xlink:href="#CMSSBX10-2f" transform="translate(612.512161 0)scale(0.996264)"/>
      <use xlink:href="#CMSSBX10-4f" transform="translate(667.306986 0)scale(0.996264)"/>
      <use xlink:href="#CMSSBX10-72" transform="translate(746.455066 0)scale(0.996264)"/>
      <use xlink:href="#CMSSBX10-64" transform="translate(783.538476 0)scale(0.996264)"/>
      <use xlink:href="#CMSSBX10-65" transform="translate(839.440264 0)scale(0.996264)"/>
      <use xlink:href="#CMSSBX10-72" transform="translate(890.360717 0)scale(0.996264)"/>
      <use xlink:href="#CMSSBX10-69" transform="translate(963.97401 0)scale(0.996264)"/>
      <use xlink:href="#CMSSBX10-6e" transform="translate(989.434229 0)scale(0.996264)"/>
      <use xlink:href="#SFSX3583-bf" transform="translate(1081.8659 0)scale(0.996264)"/>
     </g>
    </g>
   </g>
   <g id="line2d_19">
    <path d="M 55.104426 177.534647 
L 93.306584 210.499255 
L 131.508742 210.499255 
L 169.7109 210.499255 
" clip-path="url(#p0fbb0ec70a)" style="fill: none; stroke: #1f77b4; stroke-width: 1.5; stroke-linecap: round"/>
   </g>
   <g id="line2d_20">
    <path d="M 55.104426 224.01131 
L 93.306584 227.015897 
L 131.508742 228.866722 
L 169.7109 228.890759 
" clip-path="url(#p0fbb0ec70a)" style="fill: none; stroke: #ff7f0e; stroke-width: 1.5; stroke-linecap: round"/>
   </g>
   <g id="line2d_21">
    <path d="M 55.104426 241.918646 
L 93.306584 240.373432 
L 131.508742 238.828214 
L 169.7109 234.810653 
" clip-path="url(#p0fbb0ec70a)" style="fill: none; stroke: #2ca02c; stroke-width: 1.5; stroke-linecap: round"/>
   </g>
   <g id="line2d_22">
    <path d="M 55.104426 158.868438 
L 93.306584 160.035934 
L 131.508742 160.585345 
L 169.7109 160.166419 
" clip-path="url(#p0fbb0ec70a)" style="fill: none; stroke: #d62728; stroke-width: 1.5; stroke-linecap: round"/>
   </g>
   <g id="line2d_23">
    <path d="M 55.104426 71.941454 
L 93.306584 107.532931 
L 131.508742 108.387949 
L 169.7109 103.975499 
" clip-path="url(#p0fbb0ec70a)" style="fill: none; stroke: #000000; stroke-width: 2; stroke-linecap: round"/>
   </g>
   <g id="patch_3">
    <path d="M 49.374103 252.074493 
L 49.374103 28.645876 
" style="fill: none; stroke: #262626; stroke-width: 1.25; stroke-linejoin: miter; stroke-linecap: square"/>
   </g>
   <g id="patch_4">
    <path d="M 175.441223 252.074493 
L 175.441223 28.645876 
" style="fill: none; stroke: #262626; stroke-width: 1.25; stroke-linejoin: miter; stroke-linecap: square"/>
   </g>
   <g id="patch_5">
    <path d="M 49.374103 252.074493 
L 175.441223 252.074493 
" style="fill: none; stroke: #262626; stroke-width: 1.25; stroke-linejoin: miter; stroke-linecap: square"/>
   </g>
   <g id="patch_6">
    <path d="M 49.374103 28.645876 
L 175.441223 28.645876 
" style="fill: none; stroke: #262626; stroke-width: 1.25; stroke-linejoin: miter; stroke-linecap: square"/>
   </g>
   <g id="text_13">
    <!-- \textbf{In Store} -->
    <g style="fill: #262626" transform="translate(86.76896 22.645876)scale(0.14 -0.14)">
     <defs>
      <path id="CMSSBX10-49" d="M 1530 4109 
C 1530 4313 1485 4416 1222 4416 
L 896 4416 
C 666 4416 589 4345 589 4109 
L 589 306 
C 589 76 659 0 896 0 
L 1222 0 
C 1466 0 1530 83 1530 306 
L 1530 4109 
z
" transform="scale(0.015625)"/>
      <path id="CMSSBX10-53" d="M 1728 2843 
C 1587 2875 1190 3023 1190 3389 
C 1190 3935 1734 3948 1952 3948 
C 2310 3948 2630 3865 2944 3556 
C 3046 3460 3053 3453 3078 3453 
C 3117 3453 3149 3473 3168 3569 
L 3264 4127 
C 3277 4179 3277 4191 3277 4211 
C 3277 4262 3270 4268 3110 4351 
C 2656 4575 2278 4608 1952 4608 
C 1382 4608 390 4473 390 3274 
C 390 2817 627 2522 749 2394 
C 1075 2059 1376 1995 1875 1880 
C 2234 1796 2374 1764 2515 1635 
C 2579 1571 2714 1436 2714 1192 
C 2714 588 2163 569 1952 569 
C 1414 569 947 788 627 1077 
C 550 1154 538 1154 512 1154 
C 474 1154 442 1134 422 1038 
L 326 480 
C 314 428 314 416 314 396 
C 314 262 979 32 1011 19 
C 1440 -116 1786 -128 1952 -128 
C 2912 -128 3514 300 3514 1295 
C 3514 2015 2982 2554 2342 2702 
L 1728 2843 
z
" transform="scale(0.015625)"/>
     </defs>
     <use xlink:href="#CMSSBX10-49" transform="scale(0.996264)"/>
     <use xlink:href="#CMSSBX10-6e" transform="translate(32.932184 0)scale(0.996264)"/>
     <use xlink:href="#CMSSBX10-53" transform="translate(125.363855 0)scale(0.996264)"/>
     <use xlink:href="#CMSSBX10-74" transform="translate(186.246993 0)scale(0.996264)"/>
     <use xlink:href="#CMSSBX10-6f" transform="translate(226.512897 0)scale(0.996264)"/>
     <use xlink:href="#CMSSBX10-72" transform="translate(278.263564 0)scale(0.996264)"/>
     <use xlink:href="#CMSSBX10-65" transform="translate(315.346975 0)scale(0.996264)"/>
    </g>
   </g>
  </g>
  <g id="axes_2">
   <g id="patch_7">
    <path d="M 200.96007 252.074493 
L 327.027191 252.074493 
L 327.027191 28.645876 
L 200.96007 28.645876 
z
" style="fill: #ffffff"/>
   </g>
   <g id="matplotlib.axis_3">
    <g id="xtick_5">
     <g id="line2d_24">
      <g>
       <use xlink:href="#m494ad0699b" x="206.690394" y="252.074493" style="fill: #262626; stroke: #262626; stroke-width: 0.8"/>
      </g>
     </g>
     <g id="text_14">
      <!-- $25$C -->
      <g style="fill: #262626" transform="translate(197.710154 269.18484)scale(0.11 -0.11)">
       <use xlink:href="#CMR17-32" transform="scale(0.996264)"/>
       <use xlink:href="#CMR17-35" transform="translate(45.690477 0)scale(0.996264)"/>
       <use xlink:href="#CMSS17-43" transform="translate(91.380954 0)scale(0.996264)"/>
      </g>
     </g>
    </g>
    <g id="xtick_6">
     <g id="line2d_25">
      <g>
       <use xlink:href="#m494ad0699b" x="244.892552" y="252.074493" style="fill: #262626; stroke: #262626; stroke-width: 0.8"/>
      </g>
     </g>
     <g id="text_15">
      <!-- $50$C -->
      <g style="fill: #262626" transform="translate(235.912311 269.18484)scale(0.11 -0.11)">
       <use xlink:href="#CMR17-35" transform="scale(0.996264)"/>
       <use xlink:href="#CMR17-30" transform="translate(45.690477 0)scale(0.996264)"/>
       <use xlink:href="#CMSS17-43" transform="translate(91.380954 0)scale(0.996264)"/>
      </g>
     </g>
    </g>
    <g id="xtick_7">
     <g id="line2d_26">
      <g>
       <use xlink:href="#m494ad0699b" x="283.094709" y="252.074493" style="fill: #262626; stroke: #262626; stroke-width: 0.8"/>
      </g>
     </g>
     <g id="text_16">
      <!-- $100$C -->
      <g style="fill: #262626" transform="translate(271.374736 269.18484)scale(0.11 -0.11)">
       <use xlink:href="#CMR17-31" transform="scale(0.996264)"/>
       <use xlink:href="#CMR17-30" transform="translate(45.690477 0)scale(0.996264)"/>
       <use xlink:href="#CMR17-30" transform="translate(91.380954 0)scale(0.996264)"/>
       <use xlink:href="#CMSS17-43" transform="translate(137.071431 0)scale(0.996264)"/>
      </g>
     </g>
    </g>
    <g id="xtick_8">
     <g id="line2d_27">
      <g>
       <use xlink:href="#m494ad0699b" x="321.296867" y="252.074493" style="fill: #262626; stroke: #262626; stroke-width: 0.8"/>
      </g>
     </g>
     <g id="text_17">
      <!-- $150$C -->
      <g style="fill: #262626" transform="translate(309.576893 269.18484)scale(0.11 -0.11)">
       <use xlink:href="#CMR17-31" transform="scale(0.996264)"/>
       <use xlink:href="#CMR17-35" transform="translate(45.690477 0)scale(0.996264)"/>
       <use xlink:href="#CMR17-30" transform="translate(91.380954 0)scale(0.996264)"/>
       <use xlink:href="#CMSS17-43" transform="translate(137.071431 0)scale(0.996264)"/>
      </g>
     </g>
    </g>
   </g>
   <g id="matplotlib.axis_4">
    <g id="ytick_8">
     <g id="line2d_28">
      <path d="M 200.96007 243.463862 
L 327.027191 243.463862 
" clip-path="url(#p6412c1d9b7)" style="fill: none; stroke: #cccccc; stroke-width: 0.8; stroke-linecap: round"/>
     </g>
     <g id="line2d_29">
      <g>
       <use xlink:href="#m5a87b7d2ae" x="200.96007" y="243.463862" style="fill: #262626; stroke: #262626; stroke-width: 0.8"/>
      </g>
     </g>
    </g>
    <g id="ytick_9">
     <g id="line2d_30">
      <path d="M 200.96007 209.125729 
L 327.027191 209.125729 
" clip-path="url(#p6412c1d9b7)" style="fill: none; stroke: #cccccc; stroke-width: 0.8; stroke-linecap: round"/>
     </g>
     <g id="line2d_31">
      <g>
       <use xlink:href="#m5a87b7d2ae" x="200.96007" y="209.125729" style="fill: #262626; stroke: #262626; stroke-width: 0.8"/>
      </g>
     </g>
    </g>
    <g id="ytick_10">
     <g id="line2d_32">
      <path d="M 200.96007 174.787596 
L 327.027191 174.787596 
" clip-path="url(#p6412c1d9b7)" style="fill: none; stroke: #cccccc; stroke-width: 0.8; stroke-linecap: round"/>
     </g>
     <g id="line2d_33">
      <g>
       <use xlink:href="#m5a87b7d2ae" x="200.96007" y="174.787596" style="fill: #262626; stroke: #262626; stroke-width: 0.8"/>
      </g>
     </g>
    </g>
    <g id="ytick_11">
     <g id="line2d_34">
      <path d="M 200.96007 140.449463 
L 327.027191 140.449463 
" clip-path="url(#p6412c1d9b7)" style="fill: none; stroke: #cccccc; stroke-width: 0.8; stroke-linecap: round"/>
     </g>
     <g id="line2d_35">
      <g>
       <use xlink:href="#m5a87b7d2ae" x="200.96007" y="140.449463" style="fill: #262626; stroke: #262626; stroke-width: 0.8"/>
      </g>
     </g>
    </g>
    <g id="ytick_12">
     <g id="line2d_36">
      <path d="M 200.96007 106.11133 
L 327.027191 106.11133 
" clip-path="url(#p6412c1d9b7)" style="fill: none; stroke: #cccccc; stroke-width: 0.8; stroke-linecap: round"/>
     </g>
     <g id="line2d_37">
      <g>
       <use xlink:href="#m5a87b7d2ae" x="200.96007" y="106.11133" style="fill: #262626; stroke: #262626; stroke-width: 0.8"/>
      </g>
     </g>
    </g>
    <g id="ytick_13">
     <g id="line2d_38">
      <path d="M 200.96007 71.773197 
L 327.027191 71.773197 
" clip-path="url(#p6412c1d9b7)" style="fill: none; stroke: #cccccc; stroke-width: 0.8; stroke-linecap: round"/>
     </g>
     <g id="line2d_39">
      <g>
       <use xlink:href="#m5a87b7d2ae" x="200.96007" y="71.773197" style="fill: #262626; stroke: #262626; stroke-width: 0.8"/>
      </g>
     </g>
    </g>
    <g id="ytick_14">
     <g id="line2d_40">
      <path d="M 200.96007 37.435064 
L 327.027191 37.435064 
" clip-path="url(#p6412c1d9b7)" style="fill: none; stroke: #cccccc; stroke-width: 0.8; stroke-linecap: round"/>
     </g>
     <g id="line2d_41">
      <g>
       <use xlink:href="#m5a87b7d2ae" x="200.96007" y="37.435064" style="fill: #262626; stroke: #262626; stroke-width: 0.8"/>
      </g>
     </g>
    </g>
   </g>
   <g id="line2d_42">
    <path d="M 206.690394 111.605432 
L 244.892552 177.534647 
L 283.094709 210.499255 
L 321.296867 221.487457 
" clip-path="url(#p6412c1d9b7)" style="fill: none; stroke: #1f77b4; stroke-width: 1.5; stroke-linecap: round"/>
   </g>
   <g id="line2d_43">
    <path d="M 206.690394 222.194823 
L 244.892552 225.350497 
L 283.094709 227.651152 
L 321.296867 227.187587 
" clip-path="url(#p6412c1d9b7)" style="fill: none; stroke: #ff7f0e; stroke-width: 1.5; stroke-linecap: round"/>
   </g>
   <g id="line2d_44">
    <path d="M 206.690394 241.918646 
L 244.892552 240.373431 
L 283.094709 238.596432 
L 321.296867 235.892304 
" clip-path="url(#p6412c1d9b7)" style="fill: none; stroke: #2ca02c; stroke-width: 1.5; stroke-linecap: round"/>
   </g>
   <g id="line2d_45">
    <path d="M 206.690394 197.038707 
L 244.892552 197.677396 
L 283.094709 197.986439 
L 321.296867 197.746072 
" clip-path="url(#p6412c1d9b7)" style="fill: none; stroke: #d62728; stroke-width: 1.5; stroke-linecap: round"/>
   </g>
   <g id="line2d_46">
    <path d="M 206.690394 42.36602 
L 244.892552 110.544384 
L 283.094709 144.341691 
L 321.296867 151.921834 
" clip-path="url(#p6412c1d9b7)" style="fill: none; stroke: #000000; stroke-width: 2; stroke-linecap: round"/>
   </g>
   <g id="patch_8">
    <path d="M 200.96007 252.074493 
L 200.96007 28.645876 
" style="fill: none; stroke: #262626; stroke-width: 1.25; stroke-linejoin: miter; stroke-linecap: square"/>
   </g>
   <g id="patch_9">
    <path d="M 327.027191 252.074493 
L 327.027191 28.645876 
" style="fill: none; stroke: #262626; stroke-width: 1.25; stroke-linejoin: miter; stroke-linecap: square"/>
   </g>
   <g id="patch_10">
    <path d="M 200.96007 252.074493 
L 327.027191 252.074493 
" style="fill: none; stroke: #262626; stroke-width: 1.25; stroke-linejoin: miter; stroke-linecap: square"/>
   </g>
   <g id="patch_11">
    <path d="M 200.96007 28.645876 
L 327.027191 28.645876 
" style="fill: none; stroke: #262626; stroke-width: 1.25; stroke-linejoin: miter; stroke-linecap: square"/>
   </g>
   <g id="text_18">
    <!-- \textbf{Darkstore} -->
    <g style="fill: #262626" transform="translate(233.167129 22.645876)scale(0.14 -0.14)">
     <defs>
      <path id="CMSSBX10-44" d="M 890 4416 
C 659 4416 582 4345 582 4108 
L 582 307 
C 582 76 653 0 890 0 
L 2579 0 
C 4141 0 4685 931 4685 2176 
C 4685 2677 4602 3293 4243 3744 
C 3763 4339 2995 4416 2579 4416 
L 890 4416 
z
M 1504 550 
L 1504 3865 
L 2323 3865 
C 3706 3865 3763 2887 3763 2176 
C 3763 1458 3693 550 2330 550 
L 1504 550 
z
" transform="scale(0.015625)"/>
      <path id="CMSSBX10-6b" d="M 2003 1730 
L 2989 2640 
C 3066 2710 3085 2729 3085 2780 
C 3085 2913 2957 2913 2867 2913 
L 2496 2913 
C 2381 2913 2259 2913 2112 2780 
L 1190 1928 
L 1190 4109 
C 1190 4313 1146 4416 883 4416 
L 749 4416 
C 518 4416 442 4345 442 4109 
L 442 306 
C 442 76 512 0 749 0 
L 864 0 
C 1107 0 1171 83 1171 306 
L 1171 967 
L 1472 1241 
L 2304 159 
C 2413 19 2458 0 2643 0 
L 2950 0 
C 3040 0 3181 0 3181 140 
C 3181 153 3181 198 3117 280 
L 2003 1730 
z
" transform="scale(0.015625)"/>
     </defs>
     <use xlink:href="#CMSSBX10-44" transform="scale(0.996264)"/>
     <use xlink:href="#CMSSBX10-61" transform="translate(79.14808 0)scale(0.996264)"/>
     <use xlink:href="#CMSSBX10-72" transform="translate(128.408118 0)scale(0.996264)"/>
     <use xlink:href="#CMSSBX10-6b" transform="translate(165.491528 0)scale(0.996264)"/>
     <use xlink:href="#CMSSBX10-73" transform="translate(218.349159 0)scale(0.996264)"/>
     <use xlink:href="#CMSSBX10-74" transform="translate(260.358525 0)scale(0.996264)"/>
     <use xlink:href="#CMSSBX10-6f" transform="translate(300.624428 0)scale(0.996264)"/>
     <use xlink:href="#CMSSBX10-72" transform="translate(352.375096 0)scale(0.996264)"/>
     <use xlink:href="#CMSSBX10-65" transform="translate(389.458506 0)scale(0.996264)"/>
    </g>
   </g>
  </g>
  <g id="axes_3">
   <g id="patch_12">
    <path d="M 352.546038 252.074493 
L 478.613158 252.074493 
L 478.613158 28.645876 
L 352.546038 28.645876 
z
" style="fill: #ffffff"/>
   </g>
   <g id="matplotlib.axis_5">
    <g id="xtick_9">
     <g id="line2d_47">
      <g>
       <use xlink:href="#m494ad0699b" x="358.276361" y="252.074493" style="fill: #262626; stroke: #262626; stroke-width: 0.8"/>
      </g>
     </g>
     <g id="text_19">
      <!-- $25$C -->
      <g style="fill: #262626" transform="translate(349.296121 269.18484)scale(0.11 -0.11)">
       <use xlink:href="#CMR17-32" transform="scale(0.996264)"/>
       <use xlink:href="#CMR17-35" transform="translate(45.690477 0)scale(0.996264)"/>
       <use xlink:href="#CMSS17-43" transform="translate(91.380954 0)scale(0.996264)"/>
      </g>
     </g>
    </g>
    <g id="xtick_10">
     <g id="line2d_48">
      <g>
       <use xlink:href="#m494ad0699b" x="396.478519" y="252.074493" style="fill: #262626; stroke: #262626; stroke-width: 0.8"/>
      </g>
     </g>
     <g id="text_20">
      <!-- $50$C -->
      <g style="fill: #262626" transform="translate(387.498279 269.18484)scale(0.11 -0.11)">
       <use xlink:href="#CMR17-35" transform="scale(0.996264)"/>
       <use xlink:href="#CMR17-30" transform="translate(45.690477 0)scale(0.996264)"/>
       <use xlink:href="#CMSS17-43" transform="translate(91.380954 0)scale(0.996264)"/>
      </g>
     </g>
    </g>
    <g id="xtick_11">
     <g id="line2d_49">
      <g>
       <use xlink:href="#m494ad0699b" x="434.680677" y="252.074493" style="fill: #262626; stroke: #262626; stroke-width: 0.8"/>
      </g>
     </g>
     <g id="text_21">
      <!-- $100$C -->
      <g style="fill: #262626" transform="translate(422.960703 269.18484)scale(0.11 -0.11)">
       <use xlink:href="#CMR17-31" transform="scale(0.996264)"/>
       <use xlink:href="#CMR17-30" transform="translate(45.690477 0)scale(0.996264)"/>
       <use xlink:href="#CMR17-30" transform="translate(91.380954 0)scale(0.996264)"/>
       <use xlink:href="#CMSS17-43" transform="translate(137.071431 0)scale(0.996264)"/>
      </g>
     </g>
    </g>
    <g id="xtick_12">
     <g id="line2d_50">
      <g>
       <use xlink:href="#m494ad0699b" x="472.882835" y="252.074493" style="fill: #262626; stroke: #262626; stroke-width: 0.8"/>
      </g>
     </g>
     <g id="text_22">
      <!-- $150$C -->
      <g style="fill: #262626" transform="translate(461.162861 269.18484)scale(0.11 -0.11)">
       <use xlink:href="#CMR17-31" transform="scale(0.996264)"/>
       <use xlink:href="#CMR17-35" transform="translate(45.690477 0)scale(0.996264)"/>
       <use xlink:href="#CMR17-30" transform="translate(91.380954 0)scale(0.996264)"/>
       <use xlink:href="#CMSS17-43" transform="translate(137.071431 0)scale(0.996264)"/>
      </g>
     </g>
    </g>
   </g>
   <g id="matplotlib.axis_6">
    <g id="ytick_15">
     <g id="line2d_51">
      <path d="M 352.546038 243.463862 
L 478.613158 243.463862 
" clip-path="url(#p3594ddf769)" style="fill: none; stroke: #cccccc; stroke-width: 0.8; stroke-linecap: round"/>
     </g>
     <g id="line2d_52">
      <g>
       <use xlink:href="#m5a87b7d2ae" x="352.546038" y="243.463862" style="fill: #262626; stroke: #262626; stroke-width: 0.8"/>
      </g>
     </g>
    </g>
    <g id="ytick_16">
     <g id="line2d_53">
      <path d="M 352.546038 209.125729 
L 478.613158 209.125729 
" clip-path="url(#p3594ddf769)" style="fill: none; stroke: #cccccc; stroke-width: 0.8; stroke-linecap: round"/>
     </g>
     <g id="line2d_54">
      <g>
       <use xlink:href="#m5a87b7d2ae" x="352.546038" y="209.125729" style="fill: #262626; stroke: #262626; stroke-width: 0.8"/>
      </g>
     </g>
    </g>
    <g id="ytick_17">
     <g id="line2d_55">
      <path d="M 352.546038 174.787596 
L 478.613158 174.787596 
" clip-path="url(#p3594ddf769)" style="fill: none; stroke: #cccccc; stroke-width: 0.8; stroke-linecap: round"/>
     </g>
     <g id="line2d_56">
      <g>
       <use xlink:href="#m5a87b7d2ae" x="352.546038" y="174.787596" style="fill: #262626; stroke: #262626; stroke-width: 0.8"/>
      </g>
     </g>
    </g>
    <g id="ytick_18">
     <g id="line2d_57">
      <path d="M 352.546038 140.449463 
L 478.613158 140.449463 
" clip-path="url(#p3594ddf769)" style="fill: none; stroke: #cccccc; stroke-width: 0.8; stroke-linecap: round"/>
     </g>
     <g id="line2d_58">
      <g>
       <use xlink:href="#m5a87b7d2ae" x="352.546038" y="140.449463" style="fill: #262626; stroke: #262626; stroke-width: 0.8"/>
      </g>
     </g>
    </g>
    <g id="ytick_19">
     <g id="line2d_59">
      <path d="M 352.546038 106.11133 
L 478.613158 106.11133 
" clip-path="url(#p3594ddf769)" style="fill: none; stroke: #cccccc; stroke-width: 0.8; stroke-linecap: round"/>
     </g>
     <g id="line2d_60">
      <g>
       <use xlink:href="#m5a87b7d2ae" x="352.546038" y="106.11133" style="fill: #262626; stroke: #262626; stroke-width: 0.8"/>
      </g>
     </g>
    </g>
    <g id="ytick_20">
     <g id="line2d_61">
      <path d="M 352.546038 71.773197 
L 478.613158 71.773197 
" clip-path="url(#p3594ddf769)" style="fill: none; stroke: #cccccc; stroke-width: 0.8; stroke-linecap: round"/>
     </g>
     <g id="line2d_62">
      <g>
       <use xlink:href="#m5a87b7d2ae" x="352.546038" y="71.773197" style="fill: #262626; stroke: #262626; stroke-width: 0.8"/>
      </g>
     </g>
    </g>
    <g id="ytick_21">
     <g id="line2d_63">
      <path d="M 352.546038 37.435064 
L 478.613158 37.435064 
" clip-path="url(#p3594ddf769)" style="fill: none; stroke: #cccccc; stroke-width: 0.8; stroke-linecap: round"/>
     </g>
     <g id="line2d_64">
      <g>
       <use xlink:href="#m5a87b7d2ae" x="352.546038" y="37.435064" style="fill: #262626; stroke: #262626; stroke-width: 0.8"/>
      </g>
     </g>
    </g>
   </g>
   <g id="line2d_65">
    <path d="M 358.276361 89.629027 
L 396.478519 166.546444 
L 434.680677 205.005153 
L 472.882835 217.847615 
" clip-path="url(#p3594ddf769)" style="fill: none; stroke: #1f77b4; stroke-width: 1.5; stroke-linecap: round"/>
   </g>
   <g id="line2d_66">
    <path d="M 358.276361 221.535531 
L 396.478519 225.377968 
L 434.680677 227.465726 
L 472.882835 227.58591 
" clip-path="url(#p3594ddf769)" style="fill: none; stroke: #ff7f0e; stroke-width: 1.5; stroke-linecap: round"/>
   </g>
   <g id="line2d_67">
    <path d="M 358.276361 241.918647 
L 396.478519 240.373431 
L 434.680677 238.055607 
L 472.882835 235.815043 
" clip-path="url(#p3594ddf769)" style="fill: none; stroke: #2ca02c; stroke-width: 1.5; stroke-linecap: round"/>
   </g>
   <g id="line2d_68">
    <path d="M 358.276361 216.110106 
L 396.478519 216.494693 
L 434.680677 216.673251 
L 472.882835 216.542766 
" clip-path="url(#p3594ddf769)" style="fill: none; stroke: #d62728; stroke-width: 1.5; stroke-linecap: round"/>
   </g>
   <g id="line2d_69">
    <path d="M 358.276361 38.801723 
L 396.478519 118.400949 
L 434.680677 156.80815 
L 472.882835 167.399747 
" clip-path="url(#p3594ddf769)" style="fill: none; stroke: #000000; stroke-width: 2; stroke-linecap: round"/>
   </g>
   <g id="patch_13">
    <path d="M 352.546038 252.074493 
L 352.546038 28.645876 
" style="fill: none; stroke: #262626; stroke-width: 1.25; stroke-linejoin: miter; stroke-linecap: square"/>
   </g>
   <g id="patch_14">
    <path d="M 478.613158 252.074493 
L 478.613158 28.645876 
" style="fill: none; stroke: #262626; stroke-width: 1.25; stroke-linejoin: miter; stroke-linecap: square"/>
   </g>
   <g id="patch_15">
    <path d="M 352.546038 252.074493 
L 478.613158 252.074493 
" style="fill: none; stroke: #262626; stroke-width: 1.25; stroke-linejoin: miter; stroke-linecap: square"/>
   </g>
   <g id="patch_16">
    <path d="M 352.546038 28.645876 
L 478.613158 28.645876 
" style="fill: none; stroke: #262626; stroke-width: 1.25; stroke-linejoin: miter; stroke-linecap: square"/>
   </g>
   <g id="text_23">
    <!-- \textbf{Fulfillment Centre} -->
    <g style="fill: #262626" transform="translate(357.928845 22.645876)scale(0.14 -0.14)">
     <defs>
      <path id="CMSSBX10-46" d="M 1523 1894 
L 3008 1894 
C 3206 1894 3315 1939 3315 2195 
C 3315 2431 3232 2496 3008 2496 
L 1523 2496 
L 1523 3750 
L 1798 3750 
C 2278 3750 2765 3731 3245 3731 
C 3462 3731 3610 3731 3610 4038 
L 3610 4089 
C 3610 4294 3565 4396 3302 4396 
L 890 4396 
C 659 4396 582 4326 582 4089 
L 582 305 
C 582 76 653 0 890 0 
L 1216 0 
C 1459 0 1523 83 1523 305 
L 1523 1894 
z
" transform="scale(0.015625)"/>
      <path id="CMSSBX10-75" d="M 3200 2636 
C 3200 2841 3155 2944 2893 2944 
L 2637 2944 
C 2394 2944 2330 2860 2330 2636 
L 2330 1115 
C 2330 692 2106 326 1651 326 
C 1293 326 1254 416 1254 756 
L 1254 2636 
C 1254 2841 1210 2944 947 2944 
L 691 2944 
C 461 2944 384 2873 384 2636 
L 384 814 
C 384 128 755 -64 1421 -64 
C 1594 -64 2048 -64 2349 480 
L 2349 313 
C 2349 108 2394 6 2656 6 
L 2893 6 
C 3136 6 3200 89 3200 313 
L 3200 2636 
z
" transform="scale(0.015625)"/>
      <path id="CMSSBX10-6c" d="M 1242 4109 
C 1242 4313 1197 4416 934 4416 
L 698 4416 
C 467 4416 390 4345 390 4109 
L 390 306 
C 390 76 461 0 698 0 
L 934 0 
C 1178 0 1242 83 1242 306 
L 1242 4109 
z
" transform="scale(0.015625)"/>
      <path id="CMSSBX10-c" d="M 3360 4172 
C 3360 4377 3315 4480 3053 4480 
L 2797 4480 
C 2554 4480 2490 4396 2490 4172 
L 2490 3916 
C 2490 3711 2534 3609 2797 3609 
L 3053 3609 
C 3296 3609 3360 3692 3360 3916 
L 3360 4172 
z
M 2502 308 
C 2502 102 2547 0 2810 0 
L 3046 0 
C 3290 0 3354 83 3354 308 
L 3354 2636 
C 3354 2841 3309 2944 3046 2944 
L 2810 2944 
C 2566 2944 2502 2860 2502 2636 
L 2502 308 
z
M 1382 3692 
C 1382 3871 1395 4083 1594 4083 
C 1811 4083 1875 3942 1914 3865 
C 1926 3839 1946 3801 1990 3801 
C 2074 3801 2074 3871 2074 3974 
L 2074 4300 
C 2074 4447 2074 4460 1914 4499 
C 1754 4544 1677 4544 1581 4544 
C 915 4544 550 4191 550 3484 
L 550 2944 
C 416 2944 192 2944 192 2713 
C 192 2483 410 2483 550 2483 
L 550 308 
C 550 76 621 0 858 0 
L 1094 0 
C 1338 0 1402 83 1402 308 
L 1402 2483 
L 1766 2483 
C 1843 2483 2074 2483 2074 2713 
C 2074 2944 1843 2944 1766 2944 
L 1382 2944 
L 1382 3692 
z
" transform="scale(0.015625)"/>
      <path id="CMSSBX10-6d" d="M 5158 2059 
C 5158 2713 4877 2976 4224 2976 
C 3770 2976 3418 2764 3187 2344 
C 3085 2956 2541 2976 2272 2976 
C 2150 2976 1882 2976 1594 2764 
C 1395 2617 1267 2413 1222 2318 
L 1216 2318 
L 1216 2636 
C 1216 2841 1171 2944 909 2944 
L 691 2944 
C 461 2944 384 2873 384 2636 
L 384 305 
C 384 76 454 0 691 0 
L 947 0 
C 1190 0 1254 83 1254 305 
L 1254 1704 
C 1254 2274 1645 2515 1958 2515 
C 2266 2515 2336 2382 2336 2046 
L 2336 305 
C 2336 76 2406 0 2643 0 
L 2899 0 
C 3142 0 3206 83 3206 305 
L 3206 1704 
C 3206 2274 3597 2515 3910 2515 
C 4218 2515 4288 2382 4288 2046 
L 4288 305 
C 4288 76 4358 0 4595 0 
L 4851 0 
C 5094 0 5158 83 5158 305 
L 5158 2059 
z
" transform="scale(0.015625)"/>
     </defs>
     <use xlink:href="#CMSSBX10-46" transform="scale(0.996264)"/>
     <use xlink:href="#CMSSBX10-75" transform="translate(57.838982 0)scale(0.996264)"/>
     <use xlink:href="#CMSSBX10-6c" transform="translate(113.740769 0)scale(0.996264)"/>
     <use xlink:href="#CMSSBX10-c" transform="translate(139.200988 0)scale(0.996264)"/>
     <use xlink:href="#CMSSBX10-6c" transform="translate(197.593497 0)scale(0.996264)"/>
     <use xlink:href="#CMSSBX10-6c" transform="translate(223.053716 0)scale(0.996264)"/>
     <use xlink:href="#CMSSBX10-6d" transform="translate(248.513935 0)scale(0.996264)"/>
     <use xlink:href="#CMSSBX10-65" transform="translate(334.857292 0)scale(0.996264)"/>
     <use xlink:href="#CMSSBX10-6e" transform="translate(385.777744 0)scale(0.996264)"/>
     <use xlink:href="#CMSSBX10-74" transform="translate(441.679532 0)scale(0.996264)"/>
     <use xlink:href="#CMSSBX10-43" transform="translate(518.475319 0)scale(0.996264)"/>
     <use xlink:href="#CMSSBX10-65" transform="translate(588.490928 0)scale(0.996264)"/>
     <use xlink:href="#CMSSBX10-6e" transform="translate(639.411381 0)scale(0.996264)"/>
     <use xlink:href="#CMSSBX10-74" transform="translate(695.313169 0)scale(0.996264)"/>
     <use xlink:href="#CMSSBX10-72" transform="translate(735.579072 0)scale(0.996264)"/>
     <use xlink:href="#CMSSBX10-65" transform="translate(772.662483 0)scale(0.996264)"/>
    </g>
   </g>
  </g>
  <g id="text_24">
   <!-- \textbf{Demand Scenario} -->
   <g style="fill: #262626" transform="translate(201.06243 290.144789)scale(0.12 -0.12)">
    <defs>
     <path id="CMSSBX10-63" d="M 2925 326 
C 2925 396 2899 694 2886 778 
C 2886 797 2874 862 2810 862 
C 2784 862 2771 862 2707 797 
C 2598 700 2298 435 1773 435 
C 1107 435 1107 1089 1107 1504 
C 1107 2028 1139 2572 1792 2572 
C 2208 2572 2381 2469 2611 2274 
C 2688 2203 2701 2203 2726 2203 
C 2790 2203 2803 2261 2810 2287 
C 2822 2339 2886 2700 2886 2732 
C 2886 2790 2842 2815 2733 2867 
C 2426 3007 2234 3072 1786 3072 
C 832 3072 237 2623 237 1491 
C 237 416 787 -64 1754 -64 
C 1926 -64 2310 -58 2739 160 
C 2918 256 2925 262 2925 326 
z
" transform="scale(0.015625)"/>
    </defs>
    <use xlink:href="#CMSSBX10-44" transform="scale(0.996264)"/>
    <use xlink:href="#CMSSBX10-65" transform="translate(79.14808 0)scale(0.996264)"/>
    <use xlink:href="#CMSSBX10-6d" transform="translate(130.068533 0)scale(0.996264)"/>
    <use xlink:href="#CMSSBX10-61" transform="translate(216.41189 0)scale(0.996264)"/>
    <use xlink:href="#CMSSBX10-6e" transform="translate(268.716085 0)scale(0.996264)"/>
    <use xlink:href="#CMSSBX10-64" transform="translate(324.617873 0)scale(0.996264)"/>
    <use xlink:href="#CMSSBX10-53" transform="translate(417.049544 0)scale(0.996264)"/>
    <use xlink:href="#CMSSBX10-63" transform="translate(477.932682 0)scale(0.996264)"/>
    <use xlink:href="#CMSSBX10-65" transform="translate(526.639193 0)scale(0.996264)"/>
    <use xlink:href="#CMSSBX10-6e" transform="translate(577.559646 0)scale(0.996264)"/>
    <use xlink:href="#CMSSBX10-61" transform="translate(633.461434 0)scale(0.996264)"/>
    <use xlink:href="#CMSSBX10-72" transform="translate(682.721472 0)scale(0.996264)"/>
    <use xlink:href="#CMSSBX10-69" transform="translate(719.804882 0)scale(0.996264)"/>
    <use xlink:href="#CMSSBX10-6f" transform="translate(745.265101 0)scale(0.996264)"/>
   </g>
  </g>
  <g id="legend_1">
   <g id="line2d_70">
    <path d="M 24.758389 300.425332 
L 34.758389 300.425332 
L 44.758389 300.425332 
" style="fill: none; stroke: #1f77b4; stroke-width: 1.5; stroke-linecap: round"/>
   </g>
   <g id="text_25">
    <!-- Fixed Cost -->
    <g style="fill: #262626" transform="translate(52.758389 303.925332)scale(0.1 -0.1)">
     <defs>
      <path id="CMSS17-46" d="M 2918 1984 
L 2918 2374 
L 1101 2374 
L 1101 3993 
L 1882 3993 
C 1958 3993 2035 3987 2112 3987 
L 3168 3987 
L 3168 4403 
L 563 4403 
L 563 0 
L 1101 0 
L 1101 1984 
L 2918 1984 
z
" transform="scale(0.015625)"/>
      <path id="CMSS17-69" d="M 979 4224 
L 442 4224 
L 442 3686 
L 979 3686 
L 979 4224 
z
M 947 2752 
L 474 2752 
L 474 0 
L 947 0 
L 947 2752 
z
" transform="scale(0.015625)"/>
      <path id="CMSS17-78" d="M 1587 1420 
L 2656 2752 
L 2099 2752 
L 1363 1785 
L 602 2752 
L 32 2752 
L 1139 1420 
L 0 0 
L 563 0 
L 1363 1126 
L 2195 0 
L 2758 0 
L 1587 1420 
z
" transform="scale(0.015625)"/>
      <path id="CMSS17-65" d="M 2502 1375 
C 2502 1587 2490 2001 2285 2347 
C 2061 2713 1696 2816 1421 2816 
C 755 2816 192 2184 192 1363 
C 192 579 774 -64 1510 -64 
C 1798 -64 2150 19 2470 249 
C 2470 275 2458 414 2451 421 
C 2451 433 2432 629 2432 655 
C 2125 408 1773 326 1517 326 
C 1107 326 666 667 646 1375 
L 2502 1375 
z
M 698 1728 
C 781 2086 1062 2425 1421 2425 
C 1517 2425 1965 2412 2080 1728 
L 698 1728 
z
" transform="scale(0.015625)"/>
      <path id="CMSS17-64" d="M 2611 4416 
L 2138 4416 
L 2138 2495 
C 1939 2662 1613 2816 1254 2816 
C 672 2816 211 2179 211 1375 
C 211 572 666 -64 1235 -64 
C 1677 -64 1971 172 2125 307 
L 2125 -13 
L 2611 -13 
L 2611 4416 
z
M 2125 851 
C 2125 760 2125 663 1926 488 
C 1798 378 1645 326 1498 326 
C 1152 326 698 585 698 1369 
C 698 2185 1210 2425 1562 2425 
C 1798 2425 1990 2308 2125 2114 
L 2125 851 
z
" transform="scale(0.015625)"/>
      <path id="CMSS17-6f" d="M 2829 1356 
C 2829 2175 2221 2816 1504 2816 
C 768 2816 173 2156 173 1356 
C 173 544 787 -64 1498 -64 
C 2227 -64 2829 563 2829 1356 
z
M 1504 339 
C 1050 339 659 710 659 1407 
C 659 2150 1114 2425 1498 2425 
C 1914 2425 2342 2124 2342 1407 
C 2342 684 1926 339 1504 339 
z
" transform="scale(0.015625)"/>
      <path id="CMSS17-73" d="M 2061 2623 
C 1683 2803 1389 2816 1197 2816 
C 742 2816 198 2655 198 2009 
C 198 1363 902 1222 1094 1183 
C 1389 1126 1715 1062 1715 742 
C 1715 339 1254 339 1171 339 
C 915 339 563 409 243 639 
L 166 211 
C 531 0 883 -64 1178 -64 
C 1965 -64 2163 416 2163 780 
C 2163 1094 1984 1305 1862 1401 
C 1651 1567 1574 1587 1050 1695 
C 960 1708 646 1779 646 2067 
C 646 2431 1050 2431 1139 2431 
C 1555 2431 1811 2303 1984 2207 
L 2061 2623 
z
" transform="scale(0.015625)"/>
      <path id="CMSS17-74" d="M 1069 2380 
L 1901 2380 
L 1901 2752 
L 1069 2752 
L 1069 3520 
L 614 3520 
L 614 2752 
L 109 2752 
L 109 2380 
L 602 2380 
L 602 751 
C 602 384 685 -64 1107 -64 
C 1427 -64 1722 25 2003 172 
L 1901 551 
C 1747 416 1562 339 1363 339 
C 1082 339 1069 699 1069 860 
L 1069 2380 
z
" transform="scale(0.015625)"/>
     </defs>
     <use xlink:href="#CMSS17-46" transform="scale(0.996264)"/>
     <use xlink:href="#CMSS17-69" transform="translate(53.289559 0)scale(0.996264)"/>
     <use xlink:href="#CMSS17-78" transform="translate(75.470282 0)scale(0.996264)"/>
     <use xlink:href="#CMSS17-65" transform="translate(118.470424 0)scale(0.996264)"/>
     <use xlink:href="#CMSS17-64" transform="translate(160.109246 0)scale(0.996264)"/>
     <use xlink:href="#CMSS17-43" transform="translate(239.543302 0)scale(0.996264)"/>
     <use xlink:href="#CMSS17-6f" transform="translate(299.399074 0)scale(0.996264)"/>
     <use xlink:href="#CMSS17-73" transform="translate(346.242697 0)scale(0.996264)"/>
     <use xlink:href="#CMSS17-74" transform="translate(382.156239 0)scale(0.996264)"/>
    </g>
   </g>
   <g id="line2d_71">
    <path d="M 117.064531 300.425332 
L 127.064531 300.425332 
L 137.064531 300.425332 
" style="fill: none; stroke: #ff7f0e; stroke-width: 1.5; stroke-linecap: round"/>
   </g>
   <g id="text_26">
    <!-- Delivery Cost -->
    <g style="fill: #262626" transform="translate(145.064531 303.925332)scale(0.1 -0.1)">
     <defs>
      <path id="CMSS17-44" d="M 570 4416 
L 570 0 
L 2144 0 
C 3194 0 4000 981 4000 2169 
C 4000 3396 3194 4416 2144 4416 
L 570 4416 
z
M 1094 358 
L 1094 4057 
L 2003 4057 
C 2861 4057 3475 3275 3475 2169 
C 3475 1108 2867 358 2003 358 
L 1094 358 
z
" transform="scale(0.015625)"/>
      <path id="CMSS17-6c" d="M 947 4416 
L 474 4416 
L 474 0 
L 947 0 
L 947 4416 
z
" transform="scale(0.015625)"/>
      <path id="CMSS17-76" d="M 2675 2752 
L 2176 2752 
L 1747 1555 
C 1613 1164 1421 627 1389 352 
L 1382 352 
C 1370 467 1318 633 1286 748 
C 1248 889 1197 1056 1158 1171 
L 595 2752 
L 83 2752 
L 1094 0 
L 1664 0 
L 2675 2752 
z
" transform="scale(0.015625)"/>
      <path id="CMSS17-72" d="M 954 1369 
C 954 1974 1395 2379 1958 2392 
L 1958 2816 
C 1549 2809 1165 2604 934 2270 
L 934 2783 
L 480 2783 
L 480 0 
L 954 0 
L 954 1369 
z
" transform="scale(0.015625)"/>
      <path id="CMSS17-79" d="M 2675 2752 
L 2176 2752 
C 1632 1293 1446 701 1434 383 
L 1427 383 
C 1408 695 1126 1459 902 2006 
L 602 2752 
L 83 2752 
L 1216 14 
C 1146 -177 1043 -464 1011 -527 
C 870 -884 774 -884 672 -884 
C 646 -884 442 -877 211 -807 
L 250 -1229 
C 410 -1261 570 -1280 685 -1280 
C 845 -1280 1165 -1280 1459 -495 
L 2675 2752 
z
" transform="scale(0.015625)"/>
     </defs>
     <use xlink:href="#CMSS17-44" transform="scale(0.996264)"/>
     <use xlink:href="#CMSS17-65" transform="translate(67.542842 0)scale(0.996264)"/>
     <use xlink:href="#CMSS17-6c" transform="translate(109.181664 0)scale(0.996264)"/>
     <use xlink:href="#CMSS17-69" transform="translate(131.362387 0)scale(0.996264)"/>
     <use xlink:href="#CMSS17-76" transform="translate(153.54311 0)scale(0.996264)"/>
     <use xlink:href="#CMSS17-65" transform="translate(196.543252 0)scale(0.996264)"/>
     <use xlink:href="#CMSS17-72" transform="translate(238.182074 0)scale(0.996264)"/>
     <use xlink:href="#CMSS17-79" transform="translate(270.091846 0)scale(0.996264)"/>
     <use xlink:href="#CMSS17-43" transform="translate(344.321101 0)scale(0.996264)"/>
     <use xlink:href="#CMSS17-6f" transform="translate(404.176872 0)scale(0.996264)"/>
     <use xlink:href="#CMSS17-73" transform="translate(451.020496 0)scale(0.996264)"/>
     <use xlink:href="#CMSS17-74" transform="translate(486.934038 0)scale(0.996264)"/>
    </g>
   </g>
   <g id="line2d_72">
    <path d="M 220.551006 300.425332 
L 230.551006 300.425332 
L 240.551006 300.425332 
" style="fill: none; stroke: #2ca02c; stroke-width: 1.5; stroke-linecap: round"/>
   </g>
   <g id="text_27">
    <!-- Vehicle Cost -->
    <g style="fill: #262626" transform="translate(248.551006 303.925332)scale(0.1 -0.1)">
     <defs>
      <path id="CMSS17-56" d="M 3910 4416 
L 3411 4416 
L 2304 1361 
C 2272 1272 2074 687 2035 484 
L 2029 484 
C 1978 725 1773 1291 1664 1603 
L 922 3670 
L 646 4416 
L 83 4416 
L 1715 0 
L 2278 0 
L 3910 4416 
z
" transform="scale(0.015625)"/>
      <path id="CMSS17-68" d="M 2618 1878 
C 2618 2283 2522 2816 1798 2816 
C 1395 2816 1133 2617 947 2399 
L 947 4416 
L 474 4416 
L 474 0 
L 960 0 
L 960 1556 
C 960 1962 1114 2425 1549 2425 
C 2112 2425 2131 2045 2131 1826 
L 2131 0 
L 2618 0 
L 2618 1878 
z
" transform="scale(0.015625)"/>
      <path id="CMSS17-63" d="M 2464 2540 
C 2464 2585 2170 2713 2093 2739 
C 1882 2816 1613 2816 1542 2816 
C 710 2816 211 2092 211 1363 
C 211 595 768 -64 1517 -64 
C 1946 -64 2253 76 2502 243 
L 2464 665 
C 2189 454 1869 339 1523 339 
C 1024 339 698 774 698 1369 
C 698 1830 909 2412 1549 2412 
C 1901 2412 2099 2342 2394 2143 
L 2464 2540 
z
" transform="scale(0.015625)"/>
     </defs>
     <use xlink:href="#CMSS17-56" transform="scale(0.996264)"/>
     <use xlink:href="#CMSS17-65" transform="translate(59.615401 0)scale(0.996264)"/>
     <use xlink:href="#CMSS17-68" transform="translate(101.254223 0)scale(0.996264)"/>
     <use xlink:href="#CMSS17-69" transform="translate(149.459166 0)scale(0.996264)"/>
     <use xlink:href="#CMSS17-63" transform="translate(171.639889 0)scale(0.996264)"/>
     <use xlink:href="#CMSS17-6c" transform="translate(213.278711 0)scale(0.996264)"/>
     <use xlink:href="#CMSS17-65" transform="translate(235.459434 0)scale(0.996264)"/>
     <use xlink:href="#CMSS17-43" transform="translate(308.327369 0)scale(0.996264)"/>
     <use xlink:href="#CMSS17-6f" transform="translate(368.183141 0)scale(0.996264)"/>
     <use xlink:href="#CMSS17-73" transform="translate(415.026764 0)scale(0.996264)"/>
     <use xlink:href="#CMSS17-74" transform="translate(450.940306 0)scale(0.996264)"/>
    </g>
   </g>
   <g id="line2d_73">
    <path d="M 320.190716 300.425332 
L 330.190716 300.425332 
L 340.190716 300.425332 
" style="fill: none; stroke: #d62728; stroke-width: 1.5; stroke-linecap: round"/>
   </g>
   <g id="text_28">
    <!-- Variable Cost -->
    <g style="fill: #262626" transform="translate(348.190716 303.925332)scale(0.1 -0.1)">
     <defs>
      <path id="CMSS17-61" d="M 2406 1789 
C 2406 2399 1978 2816 1402 2816 
C 1120 2816 813 2764 461 2559 
L 499 2133 
C 659 2250 934 2438 1395 2438 
C 1722 2438 1920 2185 1920 1782 
L 1920 1536 
C 896 1504 256 1209 256 711 
C 256 452 416 -64 947 -64 
C 1043 -64 1562 -52 1933 224 
L 1933 -13 
L 2406 -13 
L 2406 1789 
z
M 1920 824 
C 1920 711 1920 559 1728 446 
C 1562 339 1350 326 1261 326 
C 941 326 723 503 723 723 
C 723 1165 1722 1209 1920 1216 
L 1920 824 
z
" transform="scale(0.015625)"/>
      <path id="CMSS17-62" d="M 954 4416 
L 480 4416 
L 480 -13 
L 966 -13 
L 966 275 
C 1210 38 1504 -64 1766 -64 
C 2381 -64 2880 559 2880 1382 
C 2880 2133 2496 2816 1926 2816 
C 1523 2816 1165 2649 954 2476 
L 954 4416 
z
M 966 2095 
C 1107 2276 1306 2425 1587 2425 
C 1965 2425 2394 2146 2394 1382 
C 2394 566 1882 326 1530 326 
C 1402 326 1267 358 1139 468 
C 966 624 966 721 966 812 
L 966 2095 
z
" transform="scale(0.015625)"/>
     </defs>
     <use xlink:href="#CMSS17-56" transform="scale(0.996264)"/>
     <use xlink:href="#CMSS17-61" transform="translate(59.615401 0)scale(0.996264)"/>
     <use xlink:href="#CMSS17-72" transform="translate(101.934868 0)scale(0.996264)"/>
     <use xlink:href="#CMSS17-69" transform="translate(133.84464 0)scale(0.996264)"/>
     <use xlink:href="#CMSS17-61" transform="translate(156.025363 0)scale(0.996264)"/>
     <use xlink:href="#CMSS17-62" transform="translate(200.947284 0)scale(0.996264)"/>
     <use xlink:href="#CMSS17-6c" transform="translate(249.152227 0)scale(0.996264)"/>
     <use xlink:href="#CMSS17-65" transform="translate(271.33295 0)scale(0.996264)"/>
     <use xlink:href="#CMSS17-43" transform="translate(344.200885 0)scale(0.996264)"/>
     <use xlink:href="#CMSS17-6f" transform="translate(404.056656 0)scale(0.996264)"/>
     <use xlink:href="#CMSS17-73" transform="translate(450.90028 0)scale(0.996264)"/>
     <use xlink:href="#CMSS17-74" transform="translate(486.813822 0)scale(0.996264)"/>
    </g>
   </g>
   <g id="line2d_74">
    <path d="M 423.677161 300.425332 
L 433.677161 300.425332 
L 443.677161 300.425332 
" style="fill: none; stroke: #000000; stroke-width: 2; stroke-linecap: round"/>
   </g>
   <g id="text_29">
    <!-- Total -->
    <g style="fill: #262626" transform="translate(451.677161 303.925332)scale(0.1 -0.1)">
     <defs>
      <path id="CMSS17-54" d="M 2317 3987 
L 2848 3987 
C 2925 3987 3002 3980 3078 3980 
L 3878 3980 
L 3878 4396 
L 218 4396 
L 218 3980 
L 1018 3980 
C 1094 3980 1171 3987 1248 3987 
L 1779 3987 
L 1779 0 
L 2317 0 
L 2317 3987 
z
" transform="scale(0.015625)"/>
     </defs>
     <use xlink:href="#CMSS17-54" transform="scale(0.996264)"/>
     <use xlink:href="#CMSS17-6f" transform="translate(56.012199 0)scale(0.996264)"/>
     <use xlink:href="#CMSS17-74" transform="translate(102.855822 0)scale(0.996264)"/>
     <use xlink:href="#CMSS17-61" transform="translate(136.687389 0)scale(0.996264)"/>
     <use xlink:href="#CMSS17-6c" transform="translate(181.609309 0)scale(0.996264)"/>
    </g>
   </g>
  </g>
 </g>
 <defs>
  <clipPath id="p0fbb0ec70a">
   <rect x="49.374103" y="28.645876" width="126.067121" height="223.428617"/>
  </clipPath>
  <clipPath id="p6412c1d9b7">
   <rect x="200.96007" y="28.645876" width="126.067121" height="223.428617"/>
  </clipPath>
  <clipPath id="p3594ddf769">
   <rect x="352.546038" y="28.645876" width="126.067121" height="223.428617"/>
  </clipPath>
 </defs>
</svg>
