<?xml version="1.0" encoding="utf-8" standalone="no"?>
<!DOCTYPE svg PUBLIC "-//W3C//DTD SVG 1.1//EN"
  "http://www.w3.org/Graphics/SVG/1.1/DTD/svg11.dtd">
<svg xmlns:xlink="http://www.w3.org/1999/xlink" width="443.337484pt" height="273.997634pt" viewBox="0 0 443.337484 273.997634" xmlns="http://www.w3.org/2000/svg" version="1.1">
 <metadata>
  <rdf:RDF xmlns:dc="http://purl.org/dc/elements/1.1/" xmlns:cc="http://creativecommons.org/ns#" xmlns:rdf="http://www.w3.org/1999/02/22-rdf-syntax-ns#">
   <cc:Work>
    <dc:type rdf:resource="http://purl.org/dc/dcmitype/StillImage"/>
    <dc:date>2022-04-26T15:39:36.209656</dc:date>
    <dc:format>image/svg+xml</dc:format>
    <dc:creator>
     <cc:Agent>
      <dc:title>Matplotlib v3.5.0, https://matplotlib.org/</dc:title>
     </cc:Agent>
    </dc:creator>
   </cc:Work>
  </rdf:RDF>
 </metadata>
 <defs>
  <style type="text/css">*{stroke-linejoin: round; stroke-linecap: butt}</style>
 </defs>
 <g id="figure_1">
  <g id="patch_1">
   <path d="M 0 273.997634 
L 443.337484 273.997634 
L 443.337484 0 
L 0 0 
z
" style="fill: #ffffff"/>
  </g>
  <g id="axes_1">
   <g id="patch_2">
    <path d="M 49.374103 218.209587 
L 223.166326 218.209587 
L 223.166326 28.645892 
L 49.374103 28.645892 
z
" style="fill: #ffffff"/>
   </g>
   <g id="matplotlib.axis_1">
    <g id="xtick_1">
     <g id="line2d_1">
      <defs>
       <path id="m02bf95531e" d="M 0 0 
L 0 6 
" style="stroke: #262626; stroke-width: 0.8"/>
      </defs>
      <g>
       <use xlink:href="#m02bf95531e" x="75.290487" y="218.209587" style="fill: #262626; stroke: #262626; stroke-width: 0.8"/>
      </g>
     </g>
     <g id="text_1">
      <!-- In Store -->
      <g style="fill: #262626" transform="translate(57.193039 235.319933)scale(0.11 -0.11)">
       <defs>
        <path id="CMSS17-49" d="M 1094 4416 
L 557 4416 
L 557 0 
L 1094 0 
L 1094 4416 
z
" transform="scale(0.015625)"/>
        <path id="CMSS17-6e" d="M 2618 1878 
C 2618 2283 2522 2816 1798 2816 
C 1389 2816 1120 2604 941 2386 
L 941 2783 
L 474 2783 
L 474 0 
L 960 0 
L 960 1556 
C 960 1962 1114 2425 1549 2425 
C 2112 2425 2131 2045 2131 1826 
L 2131 0 
L 2618 0 
L 2618 1878 
z
" transform="scale(0.015625)"/>
        <path id="CMSS17-53" d="M 2797 4230 
C 2515 4396 2208 4544 1690 4544 
C 864 4544 333 3934 333 3309 
C 333 3064 403 2787 653 2504 
C 902 2220 1184 2143 1542 2053 
C 1690 2014 1939 1943 1984 1924 
C 2342 1782 2515 1454 2515 1144 
C 2515 738 2202 307 1645 307 
C 1453 307 890 339 358 829 
L 269 320 
C 794 -64 1363 -128 1651 -128 
C 2438 -128 3002 494 3002 1202 
C 3002 1460 2925 1789 2656 2092 
C 2394 2381 2163 2446 1638 2588 
C 1338 2665 1146 2717 986 2916 
C 877 3058 819 3193 819 3367 
C 819 3728 1126 4121 1690 4121 
C 1971 4121 2336 4063 2707 3715 
L 2797 4230 
z
" transform="scale(0.015625)"/>
        <path id="CMSS17-74" d="M 1069 2380 
L 1901 2380 
L 1901 2752 
L 1069 2752 
L 1069 3520 
L 614 3520 
L 614 2752 
L 109 2752 
L 109 2380 
L 602 2380 
L 602 751 
C 602 384 685 -64 1107 -64 
C 1427 -64 1722 25 2003 172 
L 1901 551 
C 1747 416 1562 339 1363 339 
C 1082 339 1069 699 1069 860 
L 1069 2380 
z
" transform="scale(0.015625)"/>
        <path id="CMSS17-6f" d="M 2829 1356 
C 2829 2175 2221 2816 1504 2816 
C 768 2816 173 2156 173 1356 
C 173 544 787 -64 1498 -64 
C 2227 -64 2829 563 2829 1356 
z
M 1504 339 
C 1050 339 659 710 659 1407 
C 659 2150 1114 2425 1498 2425 
C 1914 2425 2342 2124 2342 1407 
C 2342 684 1926 339 1504 339 
z
" transform="scale(0.015625)"/>
        <path id="CMSS17-72" d="M 954 1369 
C 954 1974 1395 2379 1958 2392 
L 1958 2816 
C 1549 2809 1165 2604 934 2270 
L 934 2783 
L 480 2783 
L 480 0 
L 954 0 
L 954 1369 
z
" transform="scale(0.015625)"/>
        <path id="CMSS17-65" d="M 2502 1375 
C 2502 1587 2490 2001 2285 2347 
C 2061 2713 1696 2816 1421 2816 
C 755 2816 192 2184 192 1363 
C 192 579 774 -64 1510 -64 
C 1798 -64 2150 19 2470 249 
C 2470 275 2458 414 2451 421 
C 2451 433 2432 629 2432 655 
C 2125 408 1773 326 1517 326 
C 1107 326 666 667 646 1375 
L 2502 1375 
z
M 698 1728 
C 781 2086 1062 2425 1421 2425 
C 1517 2425 1965 2412 2080 1728 
L 698 1728 
z
" transform="scale(0.015625)"/>
       </defs>
       <use xlink:href="#CMSS17-49" transform="scale(0.996264)"/>
       <use xlink:href="#CMSS17-6e" transform="translate(25.783926 0)scale(0.996264)"/>
       <use xlink:href="#CMSS17-53" transform="translate(105.217981 0)scale(0.996264)"/>
       <use xlink:href="#CMSS17-74" transform="translate(157.266498 0)scale(0.996264)"/>
       <use xlink:href="#CMSS17-6f" transform="translate(191.098064 0)scale(0.996264)"/>
       <use xlink:href="#CMSS17-72" transform="translate(235.339234 0)scale(0.996264)"/>
       <use xlink:href="#CMSS17-65" transform="translate(267.249006 0)scale(0.996264)"/>
      </g>
     </g>
    </g>
    <g id="xtick_2">
     <g id="line2d_2">
      <g>
       <use xlink:href="#m02bf95531e" x="136.270214" y="218.209587" style="fill: #262626; stroke: #262626; stroke-width: 0.8"/>
      </g>
     </g>
     <g id="text_2">
      <!-- Darkstore -->
      <g style="fill: #262626" transform="translate(114.306702 235.319933)scale(0.11 -0.11)">
       <defs>
        <path id="CMSS17-44" d="M 570 4416 
L 570 0 
L 2144 0 
C 3194 0 4000 981 4000 2169 
C 4000 3396 3194 4416 2144 4416 
L 570 4416 
z
M 1094 358 
L 1094 4057 
L 2003 4057 
C 2861 4057 3475 3275 3475 2169 
C 3475 1108 2867 358 2003 358 
L 1094 358 
z
" transform="scale(0.015625)"/>
        <path id="CMSS17-61" d="M 2406 1789 
C 2406 2399 1978 2816 1402 2816 
C 1120 2816 813 2764 461 2559 
L 499 2133 
C 659 2250 934 2438 1395 2438 
C 1722 2438 1920 2185 1920 1782 
L 1920 1536 
C 896 1504 256 1209 256 711 
C 256 452 416 -64 947 -64 
C 1043 -64 1562 -52 1933 224 
L 1933 -13 
L 2406 -13 
L 2406 1789 
z
M 1920 824 
C 1920 711 1920 559 1728 446 
C 1562 339 1350 326 1261 326 
C 941 326 723 503 723 723 
C 723 1165 1722 1209 1920 1216 
L 1920 824 
z
" transform="scale(0.015625)"/>
        <path id="CMSS17-6b" d="M 1696 1686 
L 2688 2735 
L 2074 2735 
L 954 1552 
L 954 4416 
L 480 4416 
L 480 0 
L 947 0 
L 947 891 
L 1376 1342 
L 2278 0 
L 2822 0 
L 1696 1686 
z
" transform="scale(0.015625)"/>
        <path id="CMSS17-73" d="M 2061 2623 
C 1683 2803 1389 2816 1197 2816 
C 742 2816 198 2655 198 2009 
C 198 1363 902 1222 1094 1183 
C 1389 1126 1715 1062 1715 742 
C 1715 339 1254 339 1171 339 
C 915 339 563 409 243 639 
L 166 211 
C 531 0 883 -64 1178 -64 
C 1965 -64 2163 416 2163 780 
C 2163 1094 1984 1305 1862 1401 
C 1651 1567 1574 1587 1050 1695 
C 960 1708 646 1779 646 2067 
C 646 2431 1050 2431 1139 2431 
C 1555 2431 1811 2303 1984 2207 
L 2061 2623 
z
" transform="scale(0.015625)"/>
       </defs>
       <use xlink:href="#CMSS17-44" transform="scale(0.996264)"/>
       <use xlink:href="#CMSS17-61" transform="translate(67.542842 0)scale(0.996264)"/>
       <use xlink:href="#CMSS17-72" transform="translate(109.862308 0)scale(0.996264)"/>
       <use xlink:href="#CMSS17-6b" transform="translate(141.772081 0)scale(0.996264)"/>
       <use xlink:href="#CMSS17-73" transform="translate(187.37457 0)scale(0.996264)"/>
       <use xlink:href="#CMSS17-74" transform="translate(223.288112 0)scale(0.996264)"/>
       <use xlink:href="#CMSS17-6f" transform="translate(257.119679 0)scale(0.996264)"/>
       <use xlink:href="#CMSS17-72" transform="translate(301.360848 0)scale(0.996264)"/>
       <use xlink:href="#CMSS17-65" transform="translate(333.270621 0)scale(0.996264)"/>
      </g>
     </g>
    </g>
    <g id="xtick_3">
     <g id="line2d_3">
      <g>
       <use xlink:href="#m02bf95531e" x="197.249942" y="218.209587" style="fill: #262626; stroke: #262626; stroke-width: 0.8"/>
      </g>
     </g>
     <g id="text_3">
      <!-- FC -->
      <g style="fill: #262626" transform="translate(190.781128 235.319933)scale(0.11 -0.11)">
       <defs>
        <path id="CMSS17-46" d="M 2918 1984 
L 2918 2374 
L 1101 2374 
L 1101 3993 
L 1882 3993 
C 1958 3993 2035 3987 2112 3987 
L 3168 3987 
L 3168 4403 
L 563 4403 
L 563 0 
L 1101 0 
L 1101 1984 
L 2918 1984 
z
" transform="scale(0.015625)"/>
        <path id="CMSS17-43" d="M 3501 705 
C 3072 416 2874 332 2355 332 
C 1459 332 934 1304 934 2191 
C 934 3137 1472 4070 2381 4070 
C 2790 4070 3059 3954 3386 3748 
L 3475 4255 
C 3168 4409 2778 4480 2387 4480 
C 1158 4480 397 3343 397 2191 
C 397 924 1299 -77 2323 -77 
C 2874 -77 3066 -32 3539 268 
L 3501 705 
z
" transform="scale(0.015625)"/>
       </defs>
       <use xlink:href="#CMSS17-46" transform="scale(0.996264)"/>
       <use xlink:href="#CMSS17-43" transform="translate(50.687105 0)scale(0.996264)"/>
      </g>
     </g>
    </g>
   </g>
   <g id="matplotlib.axis_2">
    <g id="ytick_1">
     <g id="line2d_4">
      <path d="M 49.374103 207.940902 
L 223.166326 207.940902 
" clip-path="url(#p5aa6adba8f)" style="fill: none; stroke: #cccccc; stroke-width: 0.8; stroke-linecap: round"/>
     </g>
     <g id="line2d_5">
      <defs>
       <path id="m25b89ed4d2" d="M 0 0 
L -6 0 
" style="stroke: #262626; stroke-width: 0.8"/>
      </defs>
      <g>
       <use xlink:href="#m25b89ed4d2" x="49.374103" y="207.940902" style="fill: #262626; stroke: #262626; stroke-width: 0.8"/>
      </g>
     </g>
     <g id="text_4">
      <!-- $\mathdefault{11}$ -->
      <g style="fill: #262626" transform="translate(28.915168 211.746076)scale(0.11 -0.11)">
       <defs>
        <path id="CMR17-31" d="M 1702 4083 
C 1702 4217 1696 4224 1606 4224 
C 1357 3927 979 3833 621 3820 
C 602 3820 570 3820 563 3808 
C 557 3795 557 3782 557 3648 
C 755 3648 1088 3686 1344 3839 
L 1344 467 
C 1344 243 1331 166 781 166 
L 589 166 
L 589 0 
C 896 6 1216 12 1523 12 
C 1830 12 2150 6 2458 0 
L 2458 166 
L 2266 166 
C 1715 166 1702 236 1702 467 
L 1702 4083 
z
" transform="scale(0.015625)"/>
       </defs>
       <use xlink:href="#CMR17-31" transform="scale(0.996264)"/>
       <use xlink:href="#CMR17-31" transform="translate(45.690477 0)scale(0.996264)"/>
      </g>
     </g>
    </g>
    <g id="ytick_2">
     <g id="line2d_6">
      <path d="M 49.374103 189.102218 
L 223.166326 189.102218 
" clip-path="url(#p5aa6adba8f)" style="fill: none; stroke: #cccccc; stroke-width: 0.8; stroke-linecap: round"/>
     </g>
     <g id="line2d_7">
      <g>
       <use xlink:href="#m25b89ed4d2" x="49.374103" y="189.102218" style="fill: #262626; stroke: #262626; stroke-width: 0.8"/>
      </g>
     </g>
     <g id="text_5">
      <!-- $\mathdefault{12}$ -->
      <g style="fill: #262626" transform="translate(28.915168 192.907391)scale(0.11 -0.11)">
       <defs>
        <path id="CMR17-32" d="M 2669 990 
L 2554 990 
C 2490 537 2438 460 2413 422 
C 2381 371 1920 371 1830 371 
L 602 371 
C 832 620 1280 1073 1824 1596 
C 2214 1966 2669 2400 2669 3033 
C 2669 3788 2067 4224 1395 4224 
C 691 4224 262 3603 262 3027 
C 262 2777 448 2745 525 2745 
C 589 2745 781 2783 781 3007 
C 781 3206 614 3264 525 3264 
C 486 3264 448 3257 422 3244 
C 544 3788 915 4057 1306 4057 
C 1862 4057 2227 3616 2227 3033 
C 2227 2477 1901 1998 1536 1583 
L 262 147 
L 262 0 
L 2515 0 
L 2669 990 
z
" transform="scale(0.015625)"/>
       </defs>
       <use xlink:href="#CMR17-31" transform="scale(0.996264)"/>
       <use xlink:href="#CMR17-32" transform="translate(45.690477 0)scale(0.996264)"/>
      </g>
     </g>
    </g>
    <g id="ytick_3">
     <g id="line2d_8">
      <path d="M 49.374103 170.263534 
L 223.166326 170.263534 
" clip-path="url(#p5aa6adba8f)" style="fill: none; stroke: #cccccc; stroke-width: 0.8; stroke-linecap: round"/>
     </g>
     <g id="line2d_9">
      <g>
       <use xlink:href="#m25b89ed4d2" x="49.374103" y="170.263534" style="fill: #262626; stroke: #262626; stroke-width: 0.8"/>
      </g>
     </g>
     <g id="text_6">
      <!-- $\mathdefault{13}$ -->
      <g style="fill: #262626" transform="translate(28.915168 174.068707)scale(0.11 -0.11)">
       <defs>
        <path id="CMR17-33" d="M 1414 2176 
C 1984 2176 2234 1673 2234 1094 
C 2234 322 1824 25 1453 25 
C 1114 25 563 193 390 691 
C 422 678 454 678 486 678 
C 640 678 755 780 755 947 
C 755 1132 614 1216 486 1216 
C 378 1216 211 1164 211 927 
C 211 335 787 -128 1466 -128 
C 2176 -128 2720 432 2720 1087 
C 2720 1718 2208 2176 1600 2246 
C 2086 2347 2554 2776 2554 3353 
C 2554 3856 2048 4224 1472 4224 
C 890 4224 378 3862 378 3347 
C 378 3123 544 3084 627 3084 
C 762 3084 877 3167 877 3334 
C 877 3500 762 3584 627 3584 
C 602 3584 570 3584 544 3571 
C 730 3999 1235 4076 1459 4076 
C 1683 4076 2106 3966 2106 3347 
C 2106 3167 2080 2851 1862 2574 
C 1670 2329 1453 2316 1242 2297 
C 1210 2297 1062 2284 1037 2284 
C 992 2278 966 2272 966 2227 
C 966 2182 973 2176 1101 2176 
L 1414 2176 
z
" transform="scale(0.015625)"/>
       </defs>
       <use xlink:href="#CMR17-31" transform="scale(0.996264)"/>
       <use xlink:href="#CMR17-33" transform="translate(45.690477 0)scale(0.996264)"/>
      </g>
     </g>
    </g>
    <g id="ytick_4">
     <g id="line2d_10">
      <path d="M 49.374103 151.42485 
L 223.166326 151.42485 
" clip-path="url(#p5aa6adba8f)" style="fill: none; stroke: #cccccc; stroke-width: 0.8; stroke-linecap: round"/>
     </g>
     <g id="line2d_11">
      <g>
       <use xlink:href="#m25b89ed4d2" x="49.374103" y="151.42485" style="fill: #262626; stroke: #262626; stroke-width: 0.8"/>
      </g>
     </g>
     <g id="text_7">
      <!-- $\mathdefault{14}$ -->
      <g style="fill: #262626" transform="translate(28.915168 155.230023)scale(0.11 -0.11)">
       <defs>
        <path id="CMR17-34" d="M 2150 4147 
C 2150 4281 2144 4288 2029 4288 
L 128 1254 
L 128 1088 
L 1779 1088 
L 1779 460 
C 1779 230 1766 166 1318 166 
L 1197 166 
L 1197 0 
C 1402 12 1747 12 1965 12 
C 2182 12 2528 12 2733 0 
L 2733 166 
L 2611 166 
C 2163 166 2150 230 2150 460 
L 2150 1088 
L 2803 1088 
L 2803 1254 
L 2150 1254 
L 2150 4147 
z
M 1798 3723 
L 1798 1254 
L 256 1254 
L 1798 3723 
z
" transform="scale(0.015625)"/>
       </defs>
       <use xlink:href="#CMR17-31" transform="scale(0.996264)"/>
       <use xlink:href="#CMR17-34" transform="translate(45.690477 0)scale(0.996264)"/>
      </g>
     </g>
    </g>
    <g id="ytick_5">
     <g id="line2d_12">
      <path d="M 49.374103 132.586165 
L 223.166326 132.586165 
" clip-path="url(#p5aa6adba8f)" style="fill: none; stroke: #cccccc; stroke-width: 0.8; stroke-linecap: round"/>
     </g>
     <g id="line2d_13">
      <g>
       <use xlink:href="#m25b89ed4d2" x="49.374103" y="132.586165" style="fill: #262626; stroke: #262626; stroke-width: 0.8"/>
      </g>
     </g>
     <g id="text_8">
      <!-- $\mathdefault{15}$ -->
      <g style="fill: #262626" transform="translate(28.915168 136.391339)scale(0.11 -0.11)">
       <defs>
        <path id="CMR17-35" d="M 730 3750 
C 794 3724 1056 3641 1325 3641 
C 1920 3641 2246 3961 2432 4140 
C 2432 4191 2432 4224 2394 4224 
C 2387 4224 2374 4224 2323 4198 
C 2099 4102 1837 4032 1517 4032 
C 1325 4032 1037 4055 723 4191 
C 653 4224 640 4224 634 4224 
C 602 4224 595 4217 595 4090 
L 595 2231 
C 595 2113 595 2080 659 2080 
C 691 2080 704 2093 736 2139 
C 941 2435 1222 2560 1542 2560 
C 1766 2560 2246 2415 2246 1293 
C 2246 1087 2246 716 2054 422 
C 1894 159 1645 25 1370 25 
C 947 25 518 319 403 812 
C 429 806 480 793 506 793 
C 589 793 749 838 749 1036 
C 749 1209 627 1280 506 1280 
C 358 1280 262 1190 262 1011 
C 262 454 704 -128 1382 -128 
C 2042 -128 2669 441 2669 1267 
C 2669 2054 2170 2662 1549 2662 
C 1222 2662 947 2540 730 2304 
L 730 3750 
z
" transform="scale(0.015625)"/>
       </defs>
       <use xlink:href="#CMR17-31" transform="scale(0.996264)"/>
       <use xlink:href="#CMR17-35" transform="translate(45.690477 0)scale(0.996264)"/>
      </g>
     </g>
    </g>
    <g id="ytick_6">
     <g id="line2d_14">
      <path d="M 49.374103 113.747481 
L 223.166326 113.747481 
" clip-path="url(#p5aa6adba8f)" style="fill: none; stroke: #cccccc; stroke-width: 0.8; stroke-linecap: round"/>
     </g>
     <g id="line2d_15">
      <g>
       <use xlink:href="#m25b89ed4d2" x="49.374103" y="113.747481" style="fill: #262626; stroke: #262626; stroke-width: 0.8"/>
      </g>
     </g>
     <g id="text_9">
      <!-- $\mathdefault{16}$ -->
      <g style="fill: #262626" transform="translate(28.915168 117.552655)scale(0.11 -0.11)">
       <defs>
        <path id="CMR17-36" d="M 678 2198 
C 678 3712 1395 4076 1811 4076 
C 1946 4076 2272 4049 2400 3782 
C 2298 3782 2106 3782 2106 3558 
C 2106 3385 2246 3328 2336 3328 
C 2394 3328 2566 3353 2566 3571 
C 2566 3987 2246 4224 1805 4224 
C 1043 4224 243 3411 243 2011 
C 243 257 966 -128 1478 -128 
C 2099 -128 2688 431 2688 1295 
C 2688 2101 2170 2688 1517 2688 
C 1126 2688 838 2430 678 1979 
L 678 2198 
z
M 1478 25 
C 691 25 691 1212 691 1450 
C 691 1914 909 2585 1504 2585 
C 1613 2585 1926 2585 2138 2140 
C 2253 1889 2253 1624 2253 1302 
C 2253 954 2253 696 2118 438 
C 1978 173 1773 25 1478 25 
z
" transform="scale(0.015625)"/>
       </defs>
       <use xlink:href="#CMR17-31" transform="scale(0.996264)"/>
       <use xlink:href="#CMR17-36" transform="translate(45.690477 0)scale(0.996264)"/>
      </g>
     </g>
    </g>
    <g id="ytick_7">
     <g id="line2d_16">
      <path d="M 49.374103 94.908797 
L 223.166326 94.908797 
" clip-path="url(#p5aa6adba8f)" style="fill: none; stroke: #cccccc; stroke-width: 0.8; stroke-linecap: round"/>
     </g>
     <g id="line2d_17">
      <g>
       <use xlink:href="#m25b89ed4d2" x="49.374103" y="94.908797" style="fill: #262626; stroke: #262626; stroke-width: 0.8"/>
      </g>
     </g>
     <g id="text_10">
      <!-- $\mathdefault{17}$ -->
      <g style="fill: #262626" transform="translate(28.915168 98.71397)scale(0.11 -0.11)">
       <defs>
        <path id="CMR17-37" d="M 2886 3955 
L 2886 4096 
L 1382 4096 
C 634 4096 621 4166 595 4288 
L 480 4288 
L 294 3104 
L 410 3104 
C 429 3226 474 3552 550 3673 
C 589 3724 1062 3724 1171 3724 
L 2579 3724 
L 1869 2670 
C 1395 1961 1069 1003 1069 166 
C 1069 89 1069 -128 1299 -128 
C 1530 -128 1530 89 1530 172 
L 1530 466 
C 1530 1514 1709 2204 2003 2644 
L 2886 3955 
z
" transform="scale(0.015625)"/>
       </defs>
       <use xlink:href="#CMR17-31" transform="scale(0.996264)"/>
       <use xlink:href="#CMR17-37" transform="translate(45.690477 0)scale(0.996264)"/>
      </g>
     </g>
    </g>
    <g id="ytick_8">
     <g id="line2d_18">
      <path d="M 49.374103 76.070113 
L 223.166326 76.070113 
" clip-path="url(#p5aa6adba8f)" style="fill: none; stroke: #cccccc; stroke-width: 0.8; stroke-linecap: round"/>
     </g>
     <g id="line2d_19">
      <g>
       <use xlink:href="#m25b89ed4d2" x="49.374103" y="76.070113" style="fill: #262626; stroke: #262626; stroke-width: 0.8"/>
      </g>
     </g>
     <g id="text_11">
      <!-- $\mathdefault{18}$ -->
      <g style="fill: #262626" transform="translate(28.915168 79.875286)scale(0.11 -0.11)">
       <defs>
        <path id="CMR17-38" d="M 1741 2289 
C 2144 2494 2554 2803 2554 3298 
C 2554 3884 1990 4224 1472 4224 
C 890 4224 378 3800 378 3215 
C 378 3054 416 2777 666 2533 
C 730 2469 998 2276 1171 2154 
C 883 2006 211 1652 211 945 
C 211 282 838 -128 1459 -128 
C 2144 -128 2720 366 2720 1022 
C 2720 1607 2330 1877 2074 2051 
L 1741 2289 
z
M 902 2855 
C 851 2887 595 3086 595 3388 
C 595 3781 998 4076 1459 4076 
C 1965 4076 2336 3716 2336 3298 
C 2336 2700 1670 2359 1638 2359 
C 1632 2359 1626 2359 1574 2398 
L 902 2855 
z
M 2080 1536 
C 2176 1466 2483 1253 2483 861 
C 2483 385 2010 25 1472 25 
C 890 25 448 443 448 951 
C 448 1459 838 1884 1280 2083 
L 2080 1536 
z
" transform="scale(0.015625)"/>
       </defs>
       <use xlink:href="#CMR17-31" transform="scale(0.996264)"/>
       <use xlink:href="#CMR17-38" transform="translate(45.690477 0)scale(0.996264)"/>
      </g>
     </g>
    </g>
    <g id="ytick_9">
     <g id="line2d_20">
      <path d="M 49.374103 57.231429 
L 223.166326 57.231429 
" clip-path="url(#p5aa6adba8f)" style="fill: none; stroke: #cccccc; stroke-width: 0.8; stroke-linecap: round"/>
     </g>
     <g id="line2d_21">
      <g>
       <use xlink:href="#m25b89ed4d2" x="49.374103" y="57.231429" style="fill: #262626; stroke: #262626; stroke-width: 0.8"/>
      </g>
     </g>
     <g id="text_12">
      <!-- $\mathdefault{19}$ -->
      <g style="fill: #262626" transform="translate(28.915168 61.036602)scale(0.11 -0.11)">
       <defs>
        <path id="CMR17-39" d="M 2253 1871 
C 2253 448 1670 25 1190 25 
C 1043 25 685 43 538 281 
C 704 256 826 345 826 505 
C 826 678 685 736 595 736 
C 538 736 365 710 365 492 
C 365 68 742 -128 1203 -128 
C 1939 -128 2688 665 2688 2090 
C 2688 3857 1971 4224 1485 4224 
C 851 4224 243 3664 243 2800 
C 243 2000 762 1408 1414 1408 
C 1952 1408 2189 1910 2253 2122 
L 2253 1871 
z
M 1427 1510 
C 1254 1510 1011 1542 813 1929 
C 678 2181 678 2477 678 2793 
C 678 3174 678 3438 858 3722 
C 947 3857 1114 4076 1485 4076 
C 2240 4076 2240 2909 2240 2651 
C 2240 2193 2035 1510 1427 1510 
z
" transform="scale(0.015625)"/>
       </defs>
       <use xlink:href="#CMR17-31" transform="scale(0.996264)"/>
       <use xlink:href="#CMR17-39" transform="translate(45.690477 0)scale(0.996264)"/>
      </g>
     </g>
    </g>
    <g id="ytick_10">
     <g id="line2d_22">
      <path d="M 49.374103 38.392744 
L 223.166326 38.392744 
" clip-path="url(#p5aa6adba8f)" style="fill: none; stroke: #cccccc; stroke-width: 0.8; stroke-linecap: round"/>
     </g>
     <g id="line2d_23">
      <g>
       <use xlink:href="#m25b89ed4d2" x="49.374103" y="38.392744" style="fill: #262626; stroke: #262626; stroke-width: 0.8"/>
      </g>
     </g>
     <g id="text_13">
      <!-- $\mathdefault{20}$ -->
      <g style="fill: #262626" transform="translate(28.915168 42.197918)scale(0.11 -0.11)">
       <defs>
        <path id="CMR17-30" d="M 2688 2038 
C 2688 2430 2682 3099 2413 3613 
C 2176 4063 1798 4224 1466 4224 
C 1158 4224 768 4082 525 3620 
C 269 3137 243 2539 243 2038 
C 243 1671 250 1112 448 623 
C 723 -39 1216 -128 1466 -128 
C 1760 -128 2208 -7 2470 604 
C 2662 1048 2688 1568 2688 2038 
z
M 1466 -26 
C 1056 -26 813 328 723 816 
C 653 1196 653 1749 653 2109 
C 653 2604 653 3015 736 3407 
C 858 3954 1216 4121 1466 4121 
C 1728 4121 2067 3947 2189 3420 
C 2272 3054 2278 2623 2278 2109 
C 2278 1691 2278 1176 2202 797 
C 2067 96 1690 -26 1466 -26 
z
" transform="scale(0.015625)"/>
       </defs>
       <use xlink:href="#CMR17-32" transform="scale(0.996264)"/>
       <use xlink:href="#CMR17-30" transform="translate(45.690477 0)scale(0.996264)"/>
      </g>
     </g>
    </g>
    <g id="text_14">
     <!-- \textbf{Cost/Order in €} -->
     <g style="fill: #262626" transform="translate(21.926376 169.243198)rotate(-90)scale(0.12 -0.12)">
      <defs>
       <path id="CMSSBX10-43" d="M 4096 917 
C 4096 969 4051 995 4026 995 
C 3872 995 3686 576 2784 576 
C 1658 576 1338 1272 1338 2239 
C 1338 3200 1683 3897 2733 3897 
C 3302 3897 3603 3671 3776 3529 
C 3814 3497 3834 3471 3878 3471 
C 3904 3471 3936 3503 3942 3529 
L 4070 4243 
C 4077 4268 4070 4294 4019 4313 
C 3642 4454 3251 4544 2752 4544 
C 1190 4544 390 3781 390 2246 
C 390 666 1203 -64 2758 -64 
C 3302 -64 3642 12 4109 300 
C 4160 332 4147 377 4147 377 
L 4096 917 
z
" transform="scale(0.015625)"/>
       <path id="CMSSBX10-6f" d="M 3315 1458 
C 3315 2520 2803 3072 1760 3072 
C 691 3072 198 2500 198 1458 
C 198 403 749 -64 1754 -64 
C 2758 -64 3315 396 3315 1458 
z
M 1760 435 
C 1069 435 1069 1018 1069 1536 
C 1069 2034 1069 2611 1754 2611 
C 2445 2611 2445 2041 2445 1536 
C 2445 1024 2445 435 1760 435 
z
" transform="scale(0.015625)"/>
       <path id="CMSSBX10-73" d="M 2534 914 
C 2534 1277 2342 1503 2227 1607 
C 1971 1840 1747 1879 1478 1931 
C 1126 1995 870 2047 870 2300 
C 870 2565 1082 2617 1331 2617 
C 1760 2617 1990 2455 2157 2313 
C 2221 2248 2234 2248 2259 2248 
C 2323 2248 2336 2306 2342 2332 
C 2355 2384 2419 2745 2419 2777 
C 2419 2879 2080 2969 2010 2995 
C 1754 3065 1549 3072 1382 3072 
C 1094 3072 237 3072 237 2151 
C 237 1833 378 1639 550 1484 
C 774 1277 1024 1231 1389 1160 
C 1574 1128 1901 1069 1901 784 
C 1901 480 1651 435 1402 435 
C 1120 435 762 519 461 882 
C 429 914 410 933 371 933 
C 307 933 294 875 288 836 
C 275 746 198 377 198 313 
C 198 198 672 51 678 44 
C 1030 -64 1293 -64 1402 -64 
C 1728 -64 2534 -39 2534 914 
z
" transform="scale(0.015625)"/>
       <path id="CMSSBX10-74" d="M 1395 2483 
L 1965 2483 
C 2042 2483 2272 2483 2272 2713 
C 2272 2944 2042 2944 1965 2944 
L 1395 2944 
L 1395 3470 
C 1395 3673 1350 3776 1088 3776 
L 890 3776 
C 659 3776 582 3705 582 3470 
L 582 2944 
L 435 2944 
C 365 2944 128 2944 128 2713 
C 128 2483 358 2483 435 2483 
L 563 2483 
L 563 858 
C 563 211 794 -64 1235 -64 
C 1293 -64 1574 -64 1907 38 
C 2016 70 2387 185 2387 307 
C 2387 326 2374 371 2336 505 
C 2304 634 2291 672 2234 672 
C 2202 672 2195 666 2157 627 
C 2086 576 1914 435 1645 435 
C 1491 435 1395 544 1395 968 
L 1395 2483 
z
" transform="scale(0.015625)"/>
       <path id="CMSSBX10-2f" d="M 3085 4384 
C 3123 4480 3123 4486 3123 4531 
C 3123 4672 3008 4800 2854 4800 
C 2669 4800 2605 4640 2586 4582 
L 429 -1184 
C 390 -1280 390 -1287 390 -1332 
C 390 -1472 506 -1600 659 -1600 
C 845 -1600 909 -1440 928 -1383 
L 3085 4384 
z
" transform="scale(0.015625)"/>
       <path id="CMSSBX10-4f" d="M 4685 2207 
C 4685 3498 4218 4608 2541 4608 
C 768 4608 390 3383 390 2207 
C 390 1006 806 -128 2534 -128 
C 4186 -128 4685 891 4685 2207 
z
M 2541 384 
C 1331 384 1331 1726 1331 2310 
C 1331 2875 1331 4108 2534 4108 
C 3744 4108 3744 2888 3744 2310 
C 3744 1739 3744 384 2541 384 
z
" transform="scale(0.015625)"/>
       <path id="CMSSBX10-72" d="M 1242 1456 
C 1242 2057 1747 2304 2150 2329 
C 2266 2335 2278 2335 2278 2502 
L 2278 2803 
C 2278 2931 2278 2976 2163 2976 
C 1984 2976 1517 2911 1216 2222 
L 1210 2222 
L 1210 2636 
C 1210 2841 1165 2944 902 2944 
L 698 2944 
C 467 2944 390 2873 390 2636 
L 390 305 
C 390 76 461 0 698 0 
L 934 0 
C 1178 0 1242 83 1242 305 
L 1242 1456 
z
" transform="scale(0.015625)"/>
       <path id="CMSSBX10-64" d="M 3194 4113 
C 3194 4313 3149 4416 2886 4416 
L 2650 4416 
C 2406 4416 2342 4332 2342 4113 
L 2342 2687 
C 2054 2963 1734 3008 1536 3008 
C 237 3008 237 1779 237 1465 
C 237 1171 237 -64 1504 -64 
C 1773 -64 2048 12 2323 307 
C 2323 70 2413 6 2630 6 
L 2886 6 
C 3130 6 3194 89 3194 313 
L 3194 4113 
z
M 2323 806 
C 2323 697 2323 640 2138 512 
C 1978 409 1830 396 1754 396 
C 1107 396 1107 985 1107 1465 
C 1107 1945 1107 2547 1824 2547 
C 2010 2547 2182 2483 2323 2348 
L 2323 806 
z
" transform="scale(0.015625)"/>
       <path id="CMSSBX10-65" d="M 2758 1388 
C 2906 1388 3066 1395 3066 1683 
C 3066 2520 2682 3072 1728 3072 
C 704 3072 198 2494 198 1510 
C 198 448 806 -64 1811 -64 
C 2054 -64 2419 -32 2842 179 
C 2982 249 3027 268 3027 345 
C 3027 390 3008 578 3002 630 
C 2976 831 2970 837 2912 837 
C 2886 837 2874 837 2803 772 
C 2426 442 2042 396 1837 396 
C 1114 396 1037 973 1018 1388 
L 2758 1388 
z
M 1024 1728 
C 1043 2124 1171 2611 1728 2611 
C 2240 2611 2336 2234 2355 1728 
L 1024 1728 
z
" transform="scale(0.015625)"/>
       <path id="CMSSBX10-69" d="M 653 4480 
C 448 4480 346 4441 346 4185 
L 346 3891 
C 346 3686 410 3603 646 3603 
L 979 3603 
C 1286 3603 1286 3737 1286 4038 
C 1286 4345 1286 4480 979 4480 
L 653 4480 
z
M 1242 2635 
C 1242 2841 1197 2944 934 2944 
L 698 2944 
C 467 2944 390 2873 390 2635 
L 390 308 
C 390 76 461 0 698 0 
L 934 0 
C 1178 0 1242 83 1242 308 
L 1242 2635 
z
" transform="scale(0.015625)"/>
       <path id="CMSSBX10-6e" d="M 3200 2085 
C 3200 2745 2918 3008 2266 3008 
C 1594 3008 1306 2521 1222 2348 
L 1216 2348 
L 1216 2668 
C 1216 2873 1171 2975 909 2975 
L 691 2975 
C 461 2975 384 2905 384 2668 
L 384 307 
C 384 76 454 0 691 0 
L 947 0 
C 1190 0 1254 83 1254 307 
L 1254 1725 
C 1254 2284 1626 2547 1958 2547 
C 2266 2547 2330 2399 2330 2072 
L 2330 307 
C 2330 102 2374 0 2637 0 
L 2893 0 
C 3136 0 3200 83 3200 307 
L 3200 2085 
z
" transform="scale(0.015625)"/>
       <path id="SFSX3583-bf" d="M 1069 2432 
L 1069 1996 
L 461 1996 
C 422 1996 403 1984 403 1945 
L 403 1696 
C 403 1664 435 1664 474 1664 
L 608 1664 
C 781 1664 947 1657 1120 1657 
C 1171 1014 1722 528 2086 339 
C 2714 6 3424 0 4115 0 
L 5453 0 
C 5510 0 5530 6 5530 64 
L 5530 102 
C 5530 160 5536 217 5536 275 
L 5536 300 
C 5536 358 5530 403 5459 403 
C 4890 401 4333 352 3770 352 
L 3693 352 
C 2893 383 1914 631 1734 1632 
C 1958 1632 2189 1619 2413 1619 
L 2880 1619 
C 3219 1619 3558 1600 3898 1600 
L 4205 1600 
C 4250 1600 4250 1632 4250 1670 
L 4250 1932 
C 4250 1977 4243 1996 4198 1996 
L 1677 1996 
L 1677 2432 
L 4198 2432 
C 4224 2432 4250 2438 4250 2489 
L 4250 2764 
C 4250 2803 4230 2816 4179 2816 
L 4134 2816 
C 4013 2816 3898 2803 3776 2803 
C 3693 2803 3610 2809 3526 2809 
C 3475 2809 3430 2809 3379 2803 
L 2918 2803 
C 2694 2803 2477 2790 2253 2790 
C 2157 2790 2061 2796 1965 2796 
C 1894 2796 1818 2790 1747 2783 
C 2074 3710 2880 3935 3674 3935 
C 4269 3935 4851 3891 5446 3891 
L 5478 3891 
C 5523 3891 5530 3916 5530 3955 
L 5530 4223 
C 5530 4268 5504 4288 5453 4288 
C 5427 4294 5402 4288 5382 4288 
L 4038 4288 
C 2950 4288 1600 4230 1158 2904 
C 1146 2841 1133 2784 1050 2784 
C 1024 2784 992 2790 973 2790 
C 845 2790 710 2784 582 2784 
L 454 2784 
C 410 2784 403 2758 403 2720 
L 403 2489 
C 403 2432 429 2432 480 2432 
L 1069 2432 
z
" transform="scale(0.015625)"/>
      </defs>
      <use xlink:href="#CMSSBX10-43" transform="scale(0.996264)"/>
      <use xlink:href="#CMSSBX10-6f" transform="translate(70.015609 0)scale(0.996264)"/>
      <use xlink:href="#CMSSBX10-73" transform="translate(124.810434 0)scale(0.996264)"/>
      <use xlink:href="#CMSSBX10-74" transform="translate(166.819799 0)scale(0.996264)"/>
      <use xlink:href="#CMSSBX10-2f" transform="translate(207.085703 0)scale(0.996264)"/>
      <use xlink:href="#CMSSBX10-4f" transform="translate(261.880527 0)scale(0.996264)"/>
      <use xlink:href="#CMSSBX10-72" transform="translate(341.028607 0)scale(0.996264)"/>
      <use xlink:href="#CMSSBX10-64" transform="translate(378.112018 0)scale(0.996264)"/>
      <use xlink:href="#CMSSBX10-65" transform="translate(434.013806 0)scale(0.996264)"/>
      <use xlink:href="#CMSSBX10-72" transform="translate(484.934258 0)scale(0.996264)"/>
      <use xlink:href="#CMSSBX10-69" transform="translate(558.547552 0)scale(0.996264)"/>
      <use xlink:href="#CMSSBX10-6e" transform="translate(584.007771 0)scale(0.996264)"/>
      <use xlink:href="#SFSX3583-bf" transform="translate(676.439442 0)scale(0.996264)"/>
     </g>
    </g>
   </g>
   <g id="patch_3">
    <path d="M 52.423089 50.072729 
L 76.81498 50.072729 
L 76.81498 41.359837 
L 52.423089 41.359837 
L 52.423089 50.072729 
z
" clip-path="url(#p5aa6adba8f)" style="fill: #1f77b4; stroke: #000000; stroke-linejoin: miter"/>
   </g>
   <g id="line2d_24">
    <path d="M 64.619035 50.072729 
L 64.619035 62.129486 
" clip-path="url(#p5aa6adba8f)" style="fill: none; stroke: #000000; stroke-linecap: round"/>
   </g>
   <g id="line2d_25">
    <path d="M 64.619035 41.359837 
L 64.619035 37.262423 
" clip-path="url(#p5aa6adba8f)" style="fill: none; stroke: #000000; stroke-linecap: round"/>
   </g>
   <g id="line2d_26">
    <path d="M 58.521062 62.129486 
L 70.717007 62.129486 
" clip-path="url(#p5aa6adba8f)" style="fill: none; stroke: #000000; stroke-linecap: round"/>
   </g>
   <g id="line2d_27">
    <path d="M 58.521062 37.262423 
L 70.717007 37.262423 
" clip-path="url(#p5aa6adba8f)" style="fill: none; stroke: #000000; stroke-linecap: round"/>
   </g>
   <g id="line2d_28"/>
   <g id="patch_4">
    <path d="M 113.402817 150.671302 
L 137.794708 150.671302 
L 137.794708 145.537761 
L 113.402817 145.537761 
L 113.402817 150.671302 
z
" clip-path="url(#p5aa6adba8f)" style="fill: #1f77b4; stroke: #000000; stroke-linejoin: miter"/>
   </g>
   <g id="line2d_29">
    <path d="M 125.598762 150.671302 
L 125.598762 153.497105 
" clip-path="url(#p5aa6adba8f)" style="fill: none; stroke: #000000; stroke-linecap: round"/>
   </g>
   <g id="line2d_30">
    <path d="M 125.598762 145.537761 
L 125.598762 141.25196 
" clip-path="url(#p5aa6adba8f)" style="fill: none; stroke: #000000; stroke-linecap: round"/>
   </g>
   <g id="line2d_31">
    <path d="M 119.500789 153.497105 
L 131.696735 153.497105 
" clip-path="url(#p5aa6adba8f)" style="fill: none; stroke: #000000; stroke-linecap: round"/>
   </g>
   <g id="line2d_32">
    <path d="M 119.500789 141.25196 
L 131.696735 141.25196 
" clip-path="url(#p5aa6adba8f)" style="fill: none; stroke: #000000; stroke-linecap: round"/>
   </g>
   <g id="line2d_33"/>
   <g id="patch_5">
    <path d="M 174.382544 183.874483 
L 198.774435 183.874483 
L 198.774435 176.998364 
L 174.382544 176.998364 
L 174.382544 183.874483 
z
" clip-path="url(#p5aa6adba8f)" style="fill: #1f77b4; stroke: #000000; stroke-linejoin: miter"/>
   </g>
   <g id="line2d_34">
    <path d="M 186.57849 183.874483 
L 186.57849 186.088029 
" clip-path="url(#p5aa6adba8f)" style="fill: none; stroke: #000000; stroke-linecap: round"/>
   </g>
   <g id="line2d_35">
    <path d="M 186.57849 176.998364 
L 186.57849 173.654497 
" clip-path="url(#p5aa6adba8f)" style="fill: none; stroke: #000000; stroke-linecap: round"/>
   </g>
   <g id="line2d_36">
    <path d="M 180.480517 186.088029 
L 192.676462 186.088029 
" clip-path="url(#p5aa6adba8f)" style="fill: none; stroke: #000000; stroke-linecap: round"/>
   </g>
   <g id="line2d_37">
    <path d="M 180.480517 173.654497 
L 192.676462 173.654497 
" clip-path="url(#p5aa6adba8f)" style="fill: none; stroke: #000000; stroke-linecap: round"/>
   </g>
   <g id="line2d_38"/>
   <g id="patch_6">
    <path d="M 73.765994 71.942557 
L 98.157885 71.942557 
L 98.157885 62.170932 
L 73.765994 62.170932 
L 73.765994 71.942557 
z
" clip-path="url(#p5aa6adba8f)" style="fill: #ff7f0e; stroke: #000000; stroke-linejoin: miter"/>
   </g>
   <g id="line2d_39">
    <path d="M 85.961939 71.942557 
L 85.961939 73.696439 
" clip-path="url(#p5aa6adba8f)" style="fill: none; stroke: #000000; stroke-linecap: round"/>
   </g>
   <g id="line2d_40">
    <path d="M 85.961939 62.170932 
L 85.961939 61.669823 
" clip-path="url(#p5aa6adba8f)" style="fill: none; stroke: #000000; stroke-linecap: round"/>
   </g>
   <g id="line2d_41">
    <path d="M 79.863966 73.696439 
L 92.059912 73.696439 
" clip-path="url(#p5aa6adba8f)" style="fill: none; stroke: #000000; stroke-linecap: round"/>
   </g>
   <g id="line2d_42">
    <path d="M 79.863966 61.669823 
L 92.059912 61.669823 
" clip-path="url(#p5aa6adba8f)" style="fill: none; stroke: #000000; stroke-linecap: round"/>
   </g>
   <g id="patch_7">
    <path d="M 134.745721 171.729184 
L 159.137612 171.729184 
L 159.137612 166.36581 
L 134.745721 166.36581 
L 134.745721 171.729184 
z
" clip-path="url(#p5aa6adba8f)" style="fill: #ff7f0e; stroke: #000000; stroke-linejoin: miter"/>
   </g>
   <g id="line2d_43">
    <path d="M 146.941667 171.729184 
L 146.941667 172.69184 
" clip-path="url(#p5aa6adba8f)" style="fill: none; stroke: #000000; stroke-linecap: round"/>
   </g>
   <g id="line2d_44">
    <path d="M 146.941667 166.36581 
L 146.941667 166.090765 
" clip-path="url(#p5aa6adba8f)" style="fill: none; stroke: #000000; stroke-linecap: round"/>
   </g>
   <g id="line2d_45">
    <path d="M 140.843694 172.69184 
L 153.03964 172.69184 
" clip-path="url(#p5aa6adba8f)" style="fill: none; stroke: #000000; stroke-linecap: round"/>
   </g>
   <g id="line2d_46">
    <path d="M 140.843694 166.090765 
L 153.03964 166.090765 
" clip-path="url(#p5aa6adba8f)" style="fill: none; stroke: #000000; stroke-linecap: round"/>
   </g>
   <g id="patch_8">
    <path d="M 195.725449 209.026011 
L 220.11734 209.026011 
L 220.11734 205.866763 
L 195.725449 205.866763 
L 195.725449 209.026011 
z
" clip-path="url(#p5aa6adba8f)" style="fill: #ff7f0e; stroke: #000000; stroke-linejoin: miter"/>
   </g>
   <g id="line2d_47">
    <path d="M 207.921394 209.026011 
L 207.921394 209.593055 
" clip-path="url(#p5aa6adba8f)" style="fill: none; stroke: #000000; stroke-linecap: round"/>
   </g>
   <g id="line2d_48">
    <path d="M 207.921394 205.866763 
L 207.921394 205.704751 
" clip-path="url(#p5aa6adba8f)" style="fill: none; stroke: #000000; stroke-linecap: round"/>
   </g>
   <g id="line2d_49">
    <path d="M 201.823422 209.593055 
L 214.019367 209.593055 
" clip-path="url(#p5aa6adba8f)" style="fill: none; stroke: #000000; stroke-linecap: round"/>
   </g>
   <g id="line2d_50">
    <path d="M 201.823422 205.704751 
L 214.019367 205.704751 
" clip-path="url(#p5aa6adba8f)" style="fill: none; stroke: #000000; stroke-linecap: round"/>
   </g>
   <g id="line2d_51">
    <path d="M 52.423089 45.928218 
L 76.81498 45.928218 
" clip-path="url(#p5aa6adba8f)" style="fill: none; stroke: #000000; stroke-linecap: round"/>
   </g>
   <g id="line2d_52">
    <path d="M 113.402817 147.657113 
L 137.794708 147.657113 
" clip-path="url(#p5aa6adba8f)" style="fill: none; stroke: #000000; stroke-linecap: round"/>
   </g>
   <g id="line2d_53">
    <path d="M 174.382544 179.023522 
L 198.774435 179.023522 
" clip-path="url(#p5aa6adba8f)" style="fill: none; stroke: #000000; stroke-linecap: round"/>
   </g>
   <g id="line2d_54">
    <path d="M 73.765994 64.676477 
L 98.157885 64.676477 
" clip-path="url(#p5aa6adba8f)" style="fill: none; stroke: #000000; stroke-linecap: round"/>
   </g>
   <g id="line2d_55">
    <path d="M 134.745721 167.741034 
L 159.137612 167.741034 
" clip-path="url(#p5aa6adba8f)" style="fill: none; stroke: #000000; stroke-linecap: round"/>
   </g>
   <g id="line2d_56">
    <path d="M 195.725449 206.676827 
L 220.11734 206.676827 
" clip-path="url(#p5aa6adba8f)" style="fill: none; stroke: #000000; stroke-linecap: round"/>
   </g>
   <g id="patch_9">
    <path d="M 49.374103 218.209587 
L 49.374103 28.645892 
" style="fill: none; stroke: #262626; stroke-width: 1.25; stroke-linejoin: miter; stroke-linecap: square"/>
   </g>
   <g id="patch_10">
    <path d="M 223.166326 218.209587 
L 223.166326 28.645892 
" style="fill: none; stroke: #262626; stroke-width: 1.25; stroke-linejoin: miter; stroke-linecap: square"/>
   </g>
   <g id="patch_11">
    <path d="M 49.374103 218.209587 
L 223.166326 218.209587 
" style="fill: none; stroke: #262626; stroke-width: 1.25; stroke-linejoin: miter; stroke-linecap: square"/>
   </g>
   <g id="patch_12">
    <path d="M 49.374103 28.645892 
L 223.166326 28.645892 
" style="fill: none; stroke: #262626; stroke-width: 1.25; stroke-linejoin: miter; stroke-linecap: square"/>
   </g>
   <g id="text_15">
    <!-- \textbf{Albstadt} -->
    <g style="fill: #262626" transform="translate(109.308417 22.645892)scale(0.14 -0.14)">
     <defs>
      <path id="CMSSBX10-41" d="M 3034 4142 
C 2938 4416 2752 4416 2624 4416 
L 2061 4416 
C 1933 4416 1747 4416 1651 4142 
L 301 299 
C 269 216 269 204 269 172 
C 269 0 429 0 518 0 
L 749 0 
C 864 0 1062 0 1152 255 
L 1402 960 
L 3174 960 
L 3392 350 
C 3469 128 3514 0 3821 0 
L 4166 0 
C 4256 0 4416 0 4416 172 
C 4416 204 4416 216 4384 299 
L 3034 4142 
z
M 2054 2858 
C 2150 3137 2234 3379 2285 3608 
L 2291 3608 
C 2323 3455 2323 3442 2374 3296 
L 2982 1510 
L 1594 1510 
L 2054 2858 
z
" transform="scale(0.015625)"/>
      <path id="CMSSBX10-6c" d="M 1242 4109 
C 1242 4313 1197 4416 934 4416 
L 698 4416 
C 467 4416 390 4345 390 4109 
L 390 306 
C 390 76 461 0 698 0 
L 934 0 
C 1178 0 1242 83 1242 306 
L 1242 4109 
z
" transform="scale(0.015625)"/>
      <path id="CMSSBX10-62" d="M 1242 4113 
C 1242 4313 1197 4416 934 4416 
L 698 4416 
C 467 4416 390 4345 390 4113 
L 390 313 
C 390 83 461 6 698 6 
L 954 6 
C 1062 6 1254 6 1261 256 
C 1555 -64 1882 -64 1984 -64 
C 3347 -64 3347 1164 3347 1484 
C 3347 1791 3347 3008 2144 3008 
C 1619 3008 1299 2713 1242 2649 
L 1242 4113 
z
M 1261 2323 
C 1344 2399 1536 2547 1830 2547 
C 2477 2547 2477 1958 2477 1478 
C 2477 1004 2477 396 1760 396 
C 1491 396 1331 556 1261 646 
L 1261 2323 
z
" transform="scale(0.015625)"/>
      <path id="CMSSBX10-61" d="M 2970 2047 
C 2970 3065 1997 3072 1677 3072 
C 1376 3072 1056 3046 627 2867 
C 493 2809 461 2790 461 2719 
C 461 2675 499 2300 506 2248 
C 512 2209 544 2177 589 2177 
C 621 2177 640 2196 659 2215 
C 934 2507 1254 2649 1651 2649 
C 1997 2649 2099 2436 2099 2054 
L 2099 1827 
C 1875 1827 198 1814 198 862 
C 198 409 557 -64 1120 -64 
C 1338 -64 1818 0 2118 442 
L 2118 313 
C 2118 108 2163 6 2426 6 
L 2662 6 
C 2906 6 2970 89 2970 313 
L 2970 2047 
z
M 2099 998 
C 2099 396 1491 396 1472 396 
C 1203 396 1030 629 1030 875 
C 1030 1510 1920 1555 2099 1562 
L 2099 998 
z
" transform="scale(0.015625)"/>
     </defs>
     <use xlink:href="#CMSSBX10-41" transform="scale(0.996264)"/>
     <use xlink:href="#CMSSBX10-6c" transform="translate(73.059766 0)scale(0.996264)"/>
     <use xlink:href="#CMSSBX10-62" transform="translate(98.519985 0)scale(0.996264)"/>
     <use xlink:href="#CMSSBX10-73" transform="translate(154.421773 0)scale(0.996264)"/>
     <use xlink:href="#CMSSBX10-74" transform="translate(196.431138 0)scale(0.996264)"/>
     <use xlink:href="#CMSSBX10-61" transform="translate(236.697042 0)scale(0.996264)"/>
     <use xlink:href="#CMSSBX10-64" transform="translate(289.001237 0)scale(0.996264)"/>
     <use xlink:href="#CMSSBX10-74" transform="translate(344.903025 0)scale(0.996264)"/>
    </g>
   </g>
  </g>
  <g id="axes_2">
   <g id="patch_13">
    <path d="M 256.585261 218.209587 
L 430.377484 218.209587 
L 430.377484 28.645892 
L 256.585261 28.645892 
z
" style="fill: #ffffff"/>
   </g>
   <g id="matplotlib.axis_3">
    <g id="xtick_4">
     <g id="line2d_57">
      <g>
       <use xlink:href="#m02bf95531e" x="282.501645" y="218.209587" style="fill: #262626; stroke: #262626; stroke-width: 0.8"/>
      </g>
     </g>
     <g id="text_16">
      <!-- In Store -->
      <g style="fill: #262626" transform="translate(264.404197 235.319933)scale(0.11 -0.11)">
       <use xlink:href="#CMSS17-49" transform="scale(0.996264)"/>
       <use xlink:href="#CMSS17-6e" transform="translate(25.783926 0)scale(0.996264)"/>
       <use xlink:href="#CMSS17-53" transform="translate(105.217981 0)scale(0.996264)"/>
       <use xlink:href="#CMSS17-74" transform="translate(157.266498 0)scale(0.996264)"/>
       <use xlink:href="#CMSS17-6f" transform="translate(191.098064 0)scale(0.996264)"/>
       <use xlink:href="#CMSS17-72" transform="translate(235.339234 0)scale(0.996264)"/>
       <use xlink:href="#CMSS17-65" transform="translate(267.249006 0)scale(0.996264)"/>
      </g>
     </g>
    </g>
    <g id="xtick_5">
     <g id="line2d_58">
      <g>
       <use xlink:href="#m02bf95531e" x="343.481373" y="218.209587" style="fill: #262626; stroke: #262626; stroke-width: 0.8"/>
      </g>
     </g>
     <g id="text_17">
      <!-- Darkstore -->
      <g style="fill: #262626" transform="translate(321.51786 235.319933)scale(0.11 -0.11)">
       <use xlink:href="#CMSS17-44" transform="scale(0.996264)"/>
       <use xlink:href="#CMSS17-61" transform="translate(67.542842 0)scale(0.996264)"/>
       <use xlink:href="#CMSS17-72" transform="translate(109.862308 0)scale(0.996264)"/>
       <use xlink:href="#CMSS17-6b" transform="translate(141.772081 0)scale(0.996264)"/>
       <use xlink:href="#CMSS17-73" transform="translate(187.37457 0)scale(0.996264)"/>
       <use xlink:href="#CMSS17-74" transform="translate(223.288112 0)scale(0.996264)"/>
       <use xlink:href="#CMSS17-6f" transform="translate(257.119679 0)scale(0.996264)"/>
       <use xlink:href="#CMSS17-72" transform="translate(301.360848 0)scale(0.996264)"/>
       <use xlink:href="#CMSS17-65" transform="translate(333.270621 0)scale(0.996264)"/>
      </g>
     </g>
    </g>
    <g id="xtick_6">
     <g id="line2d_59">
      <g>
       <use xlink:href="#m02bf95531e" x="404.4611" y="218.209587" style="fill: #262626; stroke: #262626; stroke-width: 0.8"/>
      </g>
     </g>
     <g id="text_18">
      <!-- FC -->
      <g style="fill: #262626" transform="translate(397.992286 235.319933)scale(0.11 -0.11)">
       <use xlink:href="#CMSS17-46" transform="scale(0.996264)"/>
       <use xlink:href="#CMSS17-43" transform="translate(50.687105 0)scale(0.996264)"/>
      </g>
     </g>
    </g>
   </g>
   <g id="matplotlib.axis_4">
    <g id="ytick_11">
     <g id="line2d_60">
      <path d="M 256.585261 206.753622 
L 430.377484 206.753622 
" clip-path="url(#p73930223ec)" style="fill: none; stroke: #cccccc; stroke-width: 0.8; stroke-linecap: round"/>
     </g>
     <g id="line2d_61">
      <g>
       <use xlink:href="#m25b89ed4d2" x="256.585261" y="206.753622" style="fill: #262626; stroke: #262626; stroke-width: 0.8"/>
      </g>
     </g>
     <g id="text_19">
      <!-- $\mathdefault{11}$ -->
      <g style="fill: #262626" transform="translate(236.126326 210.558795)scale(0.11 -0.11)">
       <use xlink:href="#CMR17-31" transform="scale(0.996264)"/>
       <use xlink:href="#CMR17-31" transform="translate(45.690477 0)scale(0.996264)"/>
      </g>
     </g>
    </g>
    <g id="ytick_12">
     <g id="line2d_62">
      <path d="M 256.585261 188.528762 
L 430.377484 188.528762 
" clip-path="url(#p73930223ec)" style="fill: none; stroke: #cccccc; stroke-width: 0.8; stroke-linecap: round"/>
     </g>
     <g id="line2d_63">
      <g>
       <use xlink:href="#m25b89ed4d2" x="256.585261" y="188.528762" style="fill: #262626; stroke: #262626; stroke-width: 0.8"/>
      </g>
     </g>
     <g id="text_20">
      <!-- $\mathdefault{12}$ -->
      <g style="fill: #262626" transform="translate(236.126326 192.333935)scale(0.11 -0.11)">
       <use xlink:href="#CMR17-31" transform="scale(0.996264)"/>
       <use xlink:href="#CMR17-32" transform="translate(45.690477 0)scale(0.996264)"/>
      </g>
     </g>
    </g>
    <g id="ytick_13">
     <g id="line2d_64">
      <path d="M 256.585261 170.303902 
L 430.377484 170.303902 
" clip-path="url(#p73930223ec)" style="fill: none; stroke: #cccccc; stroke-width: 0.8; stroke-linecap: round"/>
     </g>
     <g id="line2d_65">
      <g>
       <use xlink:href="#m25b89ed4d2" x="256.585261" y="170.303902" style="fill: #262626; stroke: #262626; stroke-width: 0.8"/>
      </g>
     </g>
     <g id="text_21">
      <!-- $\mathdefault{13}$ -->
      <g style="fill: #262626" transform="translate(236.126326 174.109075)scale(0.11 -0.11)">
       <use xlink:href="#CMR17-31" transform="scale(0.996264)"/>
       <use xlink:href="#CMR17-33" transform="translate(45.690477 0)scale(0.996264)"/>
      </g>
     </g>
    </g>
    <g id="ytick_14">
     <g id="line2d_66">
      <path d="M 256.585261 152.079042 
L 430.377484 152.079042 
" clip-path="url(#p73930223ec)" style="fill: none; stroke: #cccccc; stroke-width: 0.8; stroke-linecap: round"/>
     </g>
     <g id="line2d_67">
      <g>
       <use xlink:href="#m25b89ed4d2" x="256.585261" y="152.079042" style="fill: #262626; stroke: #262626; stroke-width: 0.8"/>
      </g>
     </g>
     <g id="text_22">
      <!-- $\mathdefault{14}$ -->
      <g style="fill: #262626" transform="translate(236.126326 155.884215)scale(0.11 -0.11)">
       <use xlink:href="#CMR17-31" transform="scale(0.996264)"/>
       <use xlink:href="#CMR17-34" transform="translate(45.690477 0)scale(0.996264)"/>
      </g>
     </g>
    </g>
    <g id="ytick_15">
     <g id="line2d_68">
      <path d="M 256.585261 133.854182 
L 430.377484 133.854182 
" clip-path="url(#p73930223ec)" style="fill: none; stroke: #cccccc; stroke-width: 0.8; stroke-linecap: round"/>
     </g>
     <g id="line2d_69">
      <g>
       <use xlink:href="#m25b89ed4d2" x="256.585261" y="133.854182" style="fill: #262626; stroke: #262626; stroke-width: 0.8"/>
      </g>
     </g>
     <g id="text_23">
      <!-- $\mathdefault{15}$ -->
      <g style="fill: #262626" transform="translate(236.126326 137.659355)scale(0.11 -0.11)">
       <use xlink:href="#CMR17-31" transform="scale(0.996264)"/>
       <use xlink:href="#CMR17-35" transform="translate(45.690477 0)scale(0.996264)"/>
      </g>
     </g>
    </g>
    <g id="ytick_16">
     <g id="line2d_70">
      <path d="M 256.585261 115.629321 
L 430.377484 115.629321 
" clip-path="url(#p73930223ec)" style="fill: none; stroke: #cccccc; stroke-width: 0.8; stroke-linecap: round"/>
     </g>
     <g id="line2d_71">
      <g>
       <use xlink:href="#m25b89ed4d2" x="256.585261" y="115.629321" style="fill: #262626; stroke: #262626; stroke-width: 0.8"/>
      </g>
     </g>
     <g id="text_24">
      <!-- $\mathdefault{16}$ -->
      <g style="fill: #262626" transform="translate(236.126326 119.434495)scale(0.11 -0.11)">
       <use xlink:href="#CMR17-31" transform="scale(0.996264)"/>
       <use xlink:href="#CMR17-36" transform="translate(45.690477 0)scale(0.996264)"/>
      </g>
     </g>
    </g>
    <g id="ytick_17">
     <g id="line2d_72">
      <path d="M 256.585261 97.404461 
L 430.377484 97.404461 
" clip-path="url(#p73930223ec)" style="fill: none; stroke: #cccccc; stroke-width: 0.8; stroke-linecap: round"/>
     </g>
     <g id="line2d_73">
      <g>
       <use xlink:href="#m25b89ed4d2" x="256.585261" y="97.404461" style="fill: #262626; stroke: #262626; stroke-width: 0.8"/>
      </g>
     </g>
     <g id="text_25">
      <!-- $\mathdefault{17}$ -->
      <g style="fill: #262626" transform="translate(236.126326 101.209635)scale(0.11 -0.11)">
       <use xlink:href="#CMR17-31" transform="scale(0.996264)"/>
       <use xlink:href="#CMR17-37" transform="translate(45.690477 0)scale(0.996264)"/>
      </g>
     </g>
    </g>
    <g id="ytick_18">
     <g id="line2d_74">
      <path d="M 256.585261 79.179601 
L 430.377484 79.179601 
" clip-path="url(#p73930223ec)" style="fill: none; stroke: #cccccc; stroke-width: 0.8; stroke-linecap: round"/>
     </g>
     <g id="line2d_75">
      <g>
       <use xlink:href="#m25b89ed4d2" x="256.585261" y="79.179601" style="fill: #262626; stroke: #262626; stroke-width: 0.8"/>
      </g>
     </g>
     <g id="text_26">
      <!-- $\mathdefault{18}$ -->
      <g style="fill: #262626" transform="translate(236.126326 82.984775)scale(0.11 -0.11)">
       <use xlink:href="#CMR17-31" transform="scale(0.996264)"/>
       <use xlink:href="#CMR17-38" transform="translate(45.690477 0)scale(0.996264)"/>
      </g>
     </g>
    </g>
    <g id="ytick_19">
     <g id="line2d_76">
      <path d="M 256.585261 60.954741 
L 430.377484 60.954741 
" clip-path="url(#p73930223ec)" style="fill: none; stroke: #cccccc; stroke-width: 0.8; stroke-linecap: round"/>
     </g>
     <g id="line2d_77">
      <g>
       <use xlink:href="#m25b89ed4d2" x="256.585261" y="60.954741" style="fill: #262626; stroke: #262626; stroke-width: 0.8"/>
      </g>
     </g>
     <g id="text_27">
      <!-- $\mathdefault{19}$ -->
      <g style="fill: #262626" transform="translate(236.126326 64.759915)scale(0.11 -0.11)">
       <use xlink:href="#CMR17-31" transform="scale(0.996264)"/>
       <use xlink:href="#CMR17-39" transform="translate(45.690477 0)scale(0.996264)"/>
      </g>
     </g>
    </g>
    <g id="ytick_20">
     <g id="line2d_78">
      <path d="M 256.585261 42.729881 
L 430.377484 42.729881 
" clip-path="url(#p73930223ec)" style="fill: none; stroke: #cccccc; stroke-width: 0.8; stroke-linecap: round"/>
     </g>
     <g id="line2d_79">
      <g>
       <use xlink:href="#m25b89ed4d2" x="256.585261" y="42.729881" style="fill: #262626; stroke: #262626; stroke-width: 0.8"/>
      </g>
     </g>
     <g id="text_28">
      <!-- $\mathdefault{20}$ -->
      <g style="fill: #262626" transform="translate(236.126326 46.535055)scale(0.11 -0.11)">
       <use xlink:href="#CMR17-32" transform="scale(0.996264)"/>
       <use xlink:href="#CMR17-30" transform="translate(45.690477 0)scale(0.996264)"/>
      </g>
     </g>
    </g>
   </g>
   <g id="patch_14">
    <path d="M 259.634247 49.199707 
L 284.026138 49.199707 
L 284.026138 42.593195 
L 259.634247 42.593195 
L 259.634247 49.199707 
z
" clip-path="url(#p73930223ec)" style="fill: #1f77b4; stroke: #000000; stroke-linejoin: miter"/>
   </g>
   <g id="line2d_80">
    <path d="M 271.830193 49.199707 
L 271.830193 56.945272 
" clip-path="url(#p73930223ec)" style="fill: none; stroke: #000000; stroke-linecap: round"/>
   </g>
   <g id="line2d_81">
    <path d="M 271.830193 42.593195 
L 271.830193 37.262423 
" clip-path="url(#p73930223ec)" style="fill: none; stroke: #000000; stroke-linecap: round"/>
   </g>
   <g id="line2d_82">
    <path d="M 265.73222 56.945272 
L 277.928165 56.945272 
" clip-path="url(#p73930223ec)" style="fill: none; stroke: #000000; stroke-linecap: round"/>
   </g>
   <g id="line2d_83">
    <path d="M 265.73222 37.262423 
L 277.928165 37.262423 
" clip-path="url(#p73930223ec)" style="fill: none; stroke: #000000; stroke-linecap: round"/>
   </g>
   <g id="line2d_84"/>
   <g id="patch_15">
    <path d="M 320.613975 143.057736 
L 345.005866 143.057736 
L 345.005866 134.856549 
L 320.613975 134.856549 
L 320.613975 143.057736 
z
" clip-path="url(#p73930223ec)" style="fill: #1f77b4; stroke: #000000; stroke-linejoin: miter"/>
   </g>
   <g id="line2d_85">
    <path d="M 332.80992 143.057736 
L 332.80992 146.429335 
" clip-path="url(#p73930223ec)" style="fill: none; stroke: #000000; stroke-linecap: round"/>
   </g>
   <g id="line2d_86">
    <path d="M 332.80992 134.856549 
L 332.80992 133.125187 
" clip-path="url(#p73930223ec)" style="fill: none; stroke: #000000; stroke-linecap: round"/>
   </g>
   <g id="line2d_87">
    <path d="M 326.711948 146.429335 
L 338.907893 146.429335 
" clip-path="url(#p73930223ec)" style="fill: none; stroke: #000000; stroke-linecap: round"/>
   </g>
   <g id="line2d_88">
    <path d="M 326.711948 133.125187 
L 338.907893 133.125187 
" clip-path="url(#p73930223ec)" style="fill: none; stroke: #000000; stroke-linecap: round"/>
   </g>
   <g id="line2d_89"/>
   <g id="patch_16">
    <path d="M 381.593702 176.591478 
L 405.985593 176.591478 
L 405.985593 172.946506 
L 381.593702 172.946506 
L 381.593702 176.591478 
z
" clip-path="url(#p73930223ec)" style="fill: #1f77b4; stroke: #000000; stroke-linejoin: miter"/>
   </g>
   <g id="line2d_90">
    <path d="M 393.789648 176.591478 
L 393.789648 179.051834 
" clip-path="url(#p73930223ec)" style="fill: none; stroke: #000000; stroke-linecap: round"/>
   </g>
   <g id="line2d_91">
    <path d="M 393.789648 172.946506 
L 393.789648 170.850647 
" clip-path="url(#p73930223ec)" style="fill: none; stroke: #000000; stroke-linecap: round"/>
   </g>
   <g id="line2d_92">
    <path d="M 387.691675 179.051834 
L 399.887621 179.051834 
" clip-path="url(#p73930223ec)" style="fill: none; stroke: #000000; stroke-linecap: round"/>
   </g>
   <g id="line2d_93">
    <path d="M 387.691675 170.850647 
L 399.887621 170.850647 
" clip-path="url(#p73930223ec)" style="fill: none; stroke: #000000; stroke-linecap: round"/>
   </g>
   <g id="line2d_94"/>
   <g id="patch_17">
    <path d="M 280.977152 76.267269 
L 305.369043 76.267269 
L 305.369043 65.0444 
L 280.977152 65.0444 
L 280.977152 76.267269 
z
" clip-path="url(#p73930223ec)" style="fill: #ff7f0e; stroke: #000000; stroke-linejoin: miter"/>
   </g>
   <g id="line2d_95">
    <path d="M 293.173097 76.267269 
L 293.173097 81.844076 
" clip-path="url(#p73930223ec)" style="fill: none; stroke: #000000; stroke-linecap: round"/>
   </g>
   <g id="line2d_96">
    <path d="M 293.173097 65.0444 
L 293.173097 63.119855 
" clip-path="url(#p73930223ec)" style="fill: none; stroke: #000000; stroke-linecap: round"/>
   </g>
   <g id="line2d_97">
    <path d="M 287.075125 81.844076 
L 299.27107 81.844076 
" clip-path="url(#p73930223ec)" style="fill: none; stroke: #000000; stroke-linecap: round"/>
   </g>
   <g id="line2d_98">
    <path d="M 287.075125 63.119855 
L 299.27107 63.119855 
" clip-path="url(#p73930223ec)" style="fill: none; stroke: #000000; stroke-linecap: round"/>
   </g>
   <g id="patch_18">
    <path d="M 341.956879 171.709038 
L 366.34877 171.709038 
L 366.34877 167.958362 
L 341.956879 167.958362 
L 341.956879 171.709038 
z
" clip-path="url(#p73930223ec)" style="fill: #ff7f0e; stroke: #000000; stroke-linejoin: miter"/>
   </g>
   <g id="line2d_99">
    <path d="M 354.152825 171.709038 
L 354.152825 174.768992 
" clip-path="url(#p73930223ec)" style="fill: none; stroke: #000000; stroke-linecap: round"/>
   </g>
   <g id="line2d_100">
    <path d="M 354.152825 167.958362 
L 354.152825 167.132776 
" clip-path="url(#p73930223ec)" style="fill: none; stroke: #000000; stroke-linecap: round"/>
   </g>
   <g id="line2d_101">
    <path d="M 348.054852 174.768992 
L 360.250798 174.768992 
" clip-path="url(#p73930223ec)" style="fill: none; stroke: #000000; stroke-linecap: round"/>
   </g>
   <g id="line2d_102">
    <path d="M 348.054852 167.132776 
L 360.250798 167.132776 
" clip-path="url(#p73930223ec)" style="fill: none; stroke: #000000; stroke-linecap: round"/>
   </g>
   <g id="patch_19">
    <path d="M 402.936607 207.790616 
L 427.328498 207.790616 
L 427.328498 205.581763 
L 402.936607 205.581763 
L 402.936607 207.790616 
z
" clip-path="url(#p73930223ec)" style="fill: #ff7f0e; stroke: #000000; stroke-linejoin: miter"/>
   </g>
   <g id="line2d_103">
    <path d="M 415.132553 207.790616 
L 415.132553 209.593055 
" clip-path="url(#p73930223ec)" style="fill: none; stroke: #000000; stroke-linecap: round"/>
   </g>
   <g id="line2d_104">
    <path d="M 415.132553 205.581763 
L 415.132553 205.09516 
" clip-path="url(#p73930223ec)" style="fill: none; stroke: #000000; stroke-linecap: round"/>
   </g>
   <g id="line2d_105">
    <path d="M 409.03458 209.593055 
L 421.230525 209.593055 
" clip-path="url(#p73930223ec)" style="fill: none; stroke: #000000; stroke-linecap: round"/>
   </g>
   <g id="line2d_106">
    <path d="M 409.03458 205.09516 
L 421.230525 205.09516 
" clip-path="url(#p73930223ec)" style="fill: none; stroke: #000000; stroke-linecap: round"/>
   </g>
   <g id="line2d_107">
    <path d="M 259.634247 46.557102 
L 284.026138 46.557102 
" clip-path="url(#p73930223ec)" style="fill: none; stroke: #000000; stroke-linecap: round"/>
   </g>
   <g id="line2d_108">
    <path d="M 320.613975 141.23525 
L 345.005866 141.23525 
" clip-path="url(#p73930223ec)" style="fill: none; stroke: #000000; stroke-linecap: round"/>
   </g>
   <g id="line2d_109">
    <path d="M 381.593702 174.860117 
L 405.985593 174.860117 
" clip-path="url(#p73930223ec)" style="fill: none; stroke: #000000; stroke-linecap: round"/>
   </g>
   <g id="line2d_110">
    <path d="M 280.977152 73.965469 
L 305.369043 73.965469 
" clip-path="url(#p73930223ec)" style="fill: none; stroke: #000000; stroke-linecap: round"/>
   </g>
   <g id="line2d_111">
    <path d="M 341.956879 171.575997 
L 366.34877 171.575997 
" clip-path="url(#p73930223ec)" style="fill: none; stroke: #000000; stroke-linecap: round"/>
   </g>
   <g id="line2d_112">
    <path d="M 402.936607 207.712249 
L 427.328498 207.712249 
" clip-path="url(#p73930223ec)" style="fill: none; stroke: #000000; stroke-linecap: round"/>
   </g>
   <g id="patch_20">
    <path d="M 256.585261 218.209587 
L 256.585261 28.645892 
" style="fill: none; stroke: #262626; stroke-width: 1.25; stroke-linejoin: miter; stroke-linecap: square"/>
   </g>
   <g id="patch_21">
    <path d="M 430.377484 218.209587 
L 430.377484 28.645892 
" style="fill: none; stroke: #262626; stroke-width: 1.25; stroke-linejoin: miter; stroke-linecap: square"/>
   </g>
   <g id="patch_22">
    <path d="M 256.585261 218.209587 
L 430.377484 218.209587 
" style="fill: none; stroke: #262626; stroke-width: 1.25; stroke-linejoin: miter; stroke-linecap: square"/>
   </g>
   <g id="patch_23">
    <path d="M 256.585261 28.645892 
L 430.377484 28.645892 
" style="fill: none; stroke: #262626; stroke-width: 1.25; stroke-linejoin: miter; stroke-linecap: square"/>
   </g>
   <g id="text_29">
    <!-- \textbf{Würzburg} -->
    <g style="fill: #262626" transform="translate(312.14733 22.645892)scale(0.14 -0.14)">
     <defs>
      <path id="CMSSBX10-57" d="M 6464 4109 
C 6490 4198 6490 4224 6490 4230 
C 6490 4416 6317 4416 6227 4416 
L 6093 4416 
C 5965 4416 5786 4416 5709 4135 
L 5030 1629 
C 4941 1304 4883 1094 4826 814 
L 4819 814 
C 4787 986 4787 999 4634 1559 
L 3942 4135 
C 3872 4383 3744 4416 3558 4416 
L 3136 4416 
C 3002 4416 2822 4416 2746 4135 
L 2182 2048 
L 2022 1419 
C 1952 1120 1901 916 1888 814 
L 1882 814 
C 1830 1145 1677 1705 1568 2106 
L 1018 4141 
C 941 4416 755 4416 634 4416 
L 416 4416 
C 326 4416 154 4416 154 4230 
C 154 4224 154 4198 179 4109 
L 1229 267 
C 1299 0 1478 0 1613 0 
L 2035 0 
C 2170 0 2349 0 2426 293 
L 3098 2780 
C 3194 3123 3238 3301 3302 3607 
L 3309 3607 
C 3386 3238 3424 3079 3539 2665 
L 4192 267 
C 4262 0 4442 0 4570 0 
L 5030 0 
C 5165 0 5344 0 5414 267 
L 6464 4109 
z
" transform="scale(0.015625)"/>
      <path id="CMSSBX10-7f" d="M 934 4480 
C 730 4480 627 4441 627 4185 
L 627 4038 
C 627 3801 717 3743 934 3743 
L 1222 3743 
C 1530 3743 1530 3903 1530 4108 
C 1530 4326 1530 4480 1222 4480 
L 934 4480 
z
M 2579 3743 
C 2784 3743 2886 3782 2886 4038 
L 2886 4185 
C 2886 4422 2797 4480 2579 4480 
L 2291 4480 
C 1984 4480 1984 4319 1984 4115 
C 1984 3897 1984 3743 2291 3743 
L 2579 3743 
z
" transform="scale(0.015625)"/>
      <path id="CMSSBX10-75" d="M 3200 2636 
C 3200 2841 3155 2944 2893 2944 
L 2637 2944 
C 2394 2944 2330 2860 2330 2636 
L 2330 1115 
C 2330 692 2106 326 1651 326 
C 1293 326 1254 416 1254 756 
L 1254 2636 
C 1254 2841 1210 2944 947 2944 
L 691 2944 
C 461 2944 384 2873 384 2636 
L 384 814 
C 384 128 755 -64 1421 -64 
C 1594 -64 2048 -64 2349 480 
L 2349 313 
C 2349 108 2394 6 2656 6 
L 2893 6 
C 3136 6 3200 89 3200 313 
L 3200 2636 
z
" transform="scale(0.015625)"/>
      <path id="CMSSBX10-7a" d="M 2726 2457 
C 2790 2540 2803 2572 2803 2675 
C 2803 2944 2605 2944 2496 2944 
L 602 2944 
C 518 2944 294 2944 294 2700 
C 294 2463 499 2463 672 2463 
C 877 2463 1395 2476 1600 2476 
L 1837 2476 
L 275 486 
C 211 403 198 371 198 268 
C 198 0 397 0 506 0 
L 2515 0 
C 2598 0 2822 0 2822 236 
C 2822 480 2624 480 2438 480 
C 2118 480 1779 467 1459 467 
L 1165 467 
L 2726 2457 
z
" transform="scale(0.015625)"/>
      <path id="CMSSBX10-67" d="M 1280 569 
C 1050 569 960 569 870 651 
C 845 678 736 780 736 953 
C 736 998 742 1011 749 1049 
C 1050 883 1427 883 1562 883 
C 1830 883 2848 883 2848 1942 
C 2848 2315 2707 2540 2650 2611 
C 2758 2611 2982 2611 3245 2540 
C 3270 2527 3315 2514 3334 2514 
C 3386 2514 3418 2553 3418 2598 
C 3418 2623 3386 2777 3373 2841 
C 3347 2995 3347 3008 3232 3008 
C 3034 3008 2714 2931 2470 2783 
C 2170 2982 1837 3008 1562 3008 
C 1293 3008 275 3008 275 1948 
C 275 1691 346 1369 589 1158 
C 416 921 416 658 416 624 
C 416 499 454 288 589 115 
C 493 76 160 -39 160 -451 
C 160 -651 256 -986 659 -1172 
C 1024 -1338 1453 -1344 1754 -1344 
C 2131 -1344 3354 -1344 3354 -432 
C 3354 569 2451 569 1587 569 
L 1280 569 
z
M 1562 1344 
C 1114 1344 1094 1588 1094 1942 
C 1094 2296 1114 2547 1562 2547 
C 2010 2547 2029 2302 2029 1948 
C 2029 1594 2010 1344 1562 1344 
z
M 1907 -128 
C 2426 -128 2694 -219 2694 -451 
C 2694 -884 1965 -884 1760 -884 
C 1504 -884 819 -884 819 -432 
C 819 -128 1018 -128 1165 -128 
L 1907 -128 
z
" transform="scale(0.015625)"/>
     </defs>
     <use xlink:href="#CMSSBX10-57" transform="scale(0.996264)"/>
     <use xlink:href="#CMSSBX10-7f" transform="translate(104.054817 0)scale(0.996264)"/>
     <use xlink:href="#CMSSBX10-75" transform="translate(103.501335 0)scale(0.996264)"/>
     <use xlink:href="#CMSSBX10-72" transform="translate(159.403123 0)scale(0.996264)"/>
     <use xlink:href="#CMSSBX10-7a" transform="translate(196.486534 0)scale(0.996264)"/>
     <use xlink:href="#CMSSBX10-62" transform="translate(243.94773 0)scale(0.996264)"/>
     <use xlink:href="#CMSSBX10-75" transform="translate(299.849518 0)scale(0.996264)"/>
     <use xlink:href="#CMSSBX10-72" transform="translate(355.751306 0)scale(0.996264)"/>
     <use xlink:href="#CMSSBX10-67" transform="translate(392.834716 0)scale(0.996264)"/>
    </g>
   </g>
  </g>
  <g id="text_30">
   <!-- \textbf{Facility Types} -->
   <g style="fill: #262626" transform="translate(184.204041 252.493189)scale(0.12 -0.12)">
    <defs>
     <path id="CMSSBX10-46" d="M 1523 1894 
L 3008 1894 
C 3206 1894 3315 1939 3315 2195 
C 3315 2431 3232 2496 3008 2496 
L 1523 2496 
L 1523 3750 
L 1798 3750 
C 2278 3750 2765 3731 3245 3731 
C 3462 3731 3610 3731 3610 4038 
L 3610 4089 
C 3610 4294 3565 4396 3302 4396 
L 890 4396 
C 659 4396 582 4326 582 4089 
L 582 305 
C 582 76 653 0 890 0 
L 1216 0 
C 1459 0 1523 83 1523 305 
L 1523 1894 
z
" transform="scale(0.015625)"/>
     <path id="CMSSBX10-63" d="M 2925 326 
C 2925 396 2899 694 2886 778 
C 2886 797 2874 862 2810 862 
C 2784 862 2771 862 2707 797 
C 2598 700 2298 435 1773 435 
C 1107 435 1107 1089 1107 1504 
C 1107 2028 1139 2572 1792 2572 
C 2208 2572 2381 2469 2611 2274 
C 2688 2203 2701 2203 2726 2203 
C 2790 2203 2803 2261 2810 2287 
C 2822 2339 2886 2700 2886 2732 
C 2886 2790 2842 2815 2733 2867 
C 2426 3007 2234 3072 1786 3072 
C 832 3072 237 2623 237 1491 
C 237 416 787 -64 1754 -64 
C 1926 -64 2310 -58 2739 160 
C 2918 256 2925 262 2925 326 
z
" transform="scale(0.015625)"/>
     <path id="CMSSBX10-79" d="M 2995 2641 
C 3027 2725 3027 2738 3027 2770 
C 3027 2944 2854 2944 2771 2944 
L 2630 2944 
C 2528 2944 2387 2944 2291 2796 
C 2272 2764 1754 1332 1722 897 
L 1715 897 
C 1683 1215 1421 1818 1146 2440 
C 966 2847 922 2944 602 2944 
L 435 2944 
C 346 2944 186 2944 186 2777 
C 186 2751 205 2705 218 2673 
L 1427 -23 
C 1376 -159 1357 -230 1338 -295 
C 1261 -509 1152 -800 806 -800 
C 595 -800 448 -710 378 -664 
C 346 -645 333 -638 314 -638 
C 282 -638 230 -658 230 -736 
C 230 -788 269 -1229 288 -1255 
C 346 -1332 691 -1344 794 -1344 
C 1587 -1344 1901 -587 1952 -431 
L 2995 2641 
z
" transform="scale(0.015625)"/>
     <path id="CMSSBX10-54" d="M 1875 3731 
L 1875 305 
C 1875 76 1946 0 2182 0 
L 2509 0 
C 2752 0 2816 83 2816 305 
L 2816 3731 
C 3098 3731 3814 3711 4096 3711 
C 4275 3711 4429 3711 4429 4019 
L 4429 4070 
C 4429 4275 4384 4377 4122 4377 
L 563 4377 
C 333 4377 256 4307 256 4070 
L 256 4019 
C 256 3711 410 3711 589 3711 
L 1875 3731 
z
" transform="scale(0.015625)"/>
     <path id="CMSSBX10-70" d="M 1261 256 
C 1549 -64 1901 -64 1990 -64 
C 3347 -64 3347 1164 3347 1484 
C 3347 1798 3347 3008 2189 3008 
C 1811 3008 1472 2854 1242 2636 
C 1242 2873 1152 2937 934 2937 
L 698 2937 
C 467 2937 390 2867 390 2630 
L 390 -912 
C 390 -1140 461 -1216 698 -1216 
L 954 -1216 
C 1197 -1216 1261 -1133 1261 -912 
L 1261 256 
z
M 1261 2297 
C 1331 2361 1542 2508 1818 2508 
C 2470 2508 2477 1753 2477 1471 
C 2477 1215 2477 396 1754 396 
C 1606 396 1491 448 1414 505 
C 1261 614 1261 646 1261 761 
L 1261 2297 
z
" transform="scale(0.015625)"/>
    </defs>
    <use xlink:href="#CMSSBX10-46" transform="scale(0.996264)"/>
    <use xlink:href="#CMSSBX10-61" transform="translate(57.838982 0)scale(0.996264)"/>
    <use xlink:href="#CMSSBX10-63" transform="translate(110.143176 0)scale(0.996264)"/>
    <use xlink:href="#CMSSBX10-69" transform="translate(158.849687 0)scale(0.996264)"/>
    <use xlink:href="#CMSSBX10-6c" transform="translate(184.309906 0)scale(0.996264)"/>
    <use xlink:href="#CMSSBX10-69" transform="translate(209.770125 0)scale(0.996264)"/>
    <use xlink:href="#CMSSBX10-74" transform="translate(235.230343 0)scale(0.996264)"/>
    <use xlink:href="#CMSSBX10-79" transform="translate(272.45209 0)scale(0.996264)"/>
    <use xlink:href="#CMSSBX10-54" transform="translate(358.795447 0)scale(0.996264)"/>
    <use xlink:href="#CMSSBX10-79" transform="translate(422.722743 0)scale(0.996264)"/>
    <use xlink:href="#CMSSBX10-70" transform="translate(472.536217 0)scale(0.996264)"/>
    <use xlink:href="#CMSSBX10-65" transform="translate(531.482162 0)scale(0.996264)"/>
    <use xlink:href="#CMSSBX10-73" transform="translate(582.402614 0)scale(0.996264)"/>
   </g>
  </g>
  <g id="legend_1">
   <g id="line2d_113">
    <defs>
     <path id="m0c70ac2051" d="M -5 5 
L 5 5 
L 5 -5 
L -5 -5 
z
" style="stroke: #1f77b4; stroke-opacity: 0.7; stroke-linejoin: miter"/>
    </defs>
    <g>
     <use xlink:href="#m0c70ac2051" x="18.9924" y="248.633428" style="fill: #1f77b4; fill-opacity: 0.7; stroke: #1f77b4; stroke-opacity: 0.7; stroke-linejoin: miter"/>
    </g>
   </g>
   <g id="text_31">
    <!-- Home Delivery -->
    <g style="fill: #262626" transform="translate(36.9852 252.132028)scale(0.09996 -0.09996)">
     <defs>
      <path id="CMSS17-48" d="M 3674 4416 
L 3136 4416 
L 3136 2496 
L 1101 2496 
L 1101 4416 
L 563 4416 
L 563 0 
L 1101 0 
L 1101 2105 
L 3136 2105 
L 3136 0 
L 3674 0 
L 3674 4416 
z
" transform="scale(0.015625)"/>
      <path id="CMSS17-6d" d="M 4288 1878 
C 4288 2309 4179 2816 3462 2816 
C 2982 2816 2694 2515 2566 2328 
C 2451 2668 2182 2816 1798 2816 
C 1363 2816 1088 2566 941 2386 
L 941 2783 
L 474 2783 
L 474 0 
L 960 0 
L 960 1556 
C 960 1936 1101 2425 1555 2425 
C 2138 2425 2138 2013 2138 1826 
L 2138 0 
L 2624 0 
L 2624 1556 
C 2624 1936 2765 2425 3219 2425 
C 3802 2425 3802 2013 3802 1826 
L 3802 0 
L 4288 0 
L 4288 1878 
z
" transform="scale(0.015625)"/>
      <path id="CMSS17-6c" d="M 947 4416 
L 474 4416 
L 474 0 
L 947 0 
L 947 4416 
z
" transform="scale(0.015625)"/>
      <path id="CMSS17-69" d="M 979 4224 
L 442 4224 
L 442 3686 
L 979 3686 
L 979 4224 
z
M 947 2752 
L 474 2752 
L 474 0 
L 947 0 
L 947 2752 
z
" transform="scale(0.015625)"/>
      <path id="CMSS17-76" d="M 2675 2752 
L 2176 2752 
L 1747 1555 
C 1613 1164 1421 627 1389 352 
L 1382 352 
C 1370 467 1318 633 1286 748 
C 1248 889 1197 1056 1158 1171 
L 595 2752 
L 83 2752 
L 1094 0 
L 1664 0 
L 2675 2752 
z
" transform="scale(0.015625)"/>
      <path id="CMSS17-79" d="M 2675 2752 
L 2176 2752 
C 1632 1293 1446 701 1434 383 
L 1427 383 
C 1408 695 1126 1459 902 2006 
L 602 2752 
L 83 2752 
L 1216 14 
C 1146 -177 1043 -464 1011 -527 
C 870 -884 774 -884 672 -884 
C 646 -884 442 -877 211 -807 
L 250 -1229 
C 410 -1261 570 -1280 685 -1280 
C 845 -1280 1165 -1280 1459 -495 
L 2675 2752 
z
" transform="scale(0.015625)"/>
     </defs>
     <use xlink:href="#CMSS17-48" transform="scale(0.996264)"/>
     <use xlink:href="#CMSS17-6f" transform="translate(66.061519 0)scale(0.996264)"/>
     <use xlink:href="#CMSS17-6d" transform="translate(112.905143 0)scale(0.996264)"/>
     <use xlink:href="#CMSS17-65" transform="translate(187.134397 0)scale(0.996264)"/>
     <use xlink:href="#CMSS17-44" transform="translate(260.002332 0)scale(0.996264)"/>
     <use xlink:href="#CMSS17-65" transform="translate(327.545174 0)scale(0.996264)"/>
     <use xlink:href="#CMSS17-6c" transform="translate(369.183996 0)scale(0.996264)"/>
     <use xlink:href="#CMSS17-69" transform="translate(391.364719 0)scale(0.996264)"/>
     <use xlink:href="#CMSS17-76" transform="translate(413.545442 0)scale(0.996264)"/>
     <use xlink:href="#CMSS17-65" transform="translate(456.545583 0)scale(0.996264)"/>
     <use xlink:href="#CMSS17-72" transform="translate(498.184406 0)scale(0.996264)"/>
     <use xlink:href="#CMSS17-79" transform="translate(530.094178 0)scale(0.996264)"/>
    </g>
   </g>
   <g id="line2d_114">
    <defs>
     <path id="mbd225393b5" d="M -5 5 
L 5 5 
L 5 -5 
L -5 -5 
z
" style="stroke: #ff7f0e; stroke-opacity: 0.7; stroke-linejoin: miter"/>
    </defs>
    <g>
     <use xlink:href="#mbd225393b5" x="18.9924" y="259.566231" style="fill: #ff7f0e; fill-opacity: 0.7; stroke: #ff7f0e; stroke-opacity: 0.7; stroke-linejoin: miter"/>
    </g>
   </g>
   <g id="text_32">
    <!-- PULs -->
    <g style="fill: #262626" transform="translate(36.9852 263.064831)scale(0.09996 -0.09996)">
     <defs>
      <path id="CMSS17-50" d="M 2106 1856 
C 2874 1856 3501 2447 3501 3139 
C 3501 3818 2899 4416 2067 4416 
L 570 4416 
L 570 0 
L 1107 0 
L 1107 1856 
L 2106 1856 
z
M 1926 4057 
C 2669 4057 2995 3598 2995 3139 
C 2995 2711 2694 2227 1926 2227 
L 1094 2227 
L 1094 4057 
L 1926 4057 
z
" transform="scale(0.015625)"/>
      <path id="CMSS17-55" d="M 3552 4416 
L 3066 4416 
L 3066 1459 
C 3066 608 2547 230 2074 230 
C 1587 230 1101 627 1101 1452 
L 1101 4416 
L 563 4416 
L 563 1465 
C 563 544 1274 -128 2067 -128 
C 2861 -128 3552 544 3552 1465 
L 3552 4416 
z
" transform="scale(0.015625)"/>
      <path id="CMSS17-4c" d="M 1670 416 
C 1594 416 1517 409 1440 409 
L 1101 409 
L 1101 4416 
L 563 4416 
L 563 0 
L 3002 0 
L 3002 416 
L 1670 416 
z
" transform="scale(0.015625)"/>
     </defs>
     <use xlink:href="#CMSS17-50" transform="scale(0.996264)"/>
     <use xlink:href="#CMSS17-55" transform="translate(59.735586 0)scale(0.996264)"/>
     <use xlink:href="#CMSS17-4c" transform="translate(123.875327 0)scale(0.996264)"/>
     <use xlink:href="#CMSS17-73" transform="translate(174.562432 0)scale(0.996264)"/>
    </g>
   </g>
  </g>
 </g>
 <defs>
  <clipPath id="p5aa6adba8f">
   <rect x="49.374103" y="28.645892" width="173.792224" height="189.563695"/>
  </clipPath>
  <clipPath id="p73930223ec">
   <rect x="256.585261" y="28.645892" width="173.792224" height="189.563695"/>
  </clipPath>
 </defs>
</svg>
