<svg xmlns="http://www.w3.org/2000/svg" xmlns:xlink="http://www.w3.org/1999/xlink" x="0" y="0" width="661.9885864257812" height="236.97442626953125" style="
        width:661.9885864257812px;
        height:236.97442626953125px;
        background: transparent;
        fill: none;
">
        
        
        <svg xmlns="http://www.w3.org/2000/svg" class="role-diagram-draw-area"><g class="shapes-region" style="stroke: black; fill: none;"><g class="composite-shape"><path class="real" d=" M9,42 L79,42 L79,179.58 L9,179.58 Z" style="stroke-width: 2; stroke: rgb(0, 44, 97); stroke-opacity: 1; fill: rgb(0, 44, 97); fill-opacity: 1;"/></g><g class="arrow-line"><path class="connection real" stroke-dasharray="" d="  M78.47,108.79 L124.59,108.41 L132.49,108.34 L135.47,108.32" style="stroke: rgb(0, 0, 0); stroke-width: 1; fill: none; fill-opacity: 1;"/><g stroke="none" fill="#000" transform="matrix(-0.9999663551946484,0.008202955487522444,-0.008202955487522444,-0.9999663551946484,137.47161865234375,108.30256271362306)" style="stroke: none; fill: rgb(0, 0, 0); stroke-width: 1;"><path d=" M12,-3 L0,0 L12,3 Z"/></g></g><g class="composite-shape"><path class="real" d=" M137.47,108.82 L161.17,72.1 L240.17,72.1 L263.88,108.82 L240.17,145.54 L161.17,145.54 Z" style="stroke-width: 1; stroke: rgb(0, 0, 0); fill: rgb(155, 155, 155); fill-opacity: 0.55;"/></g><g class="arrow-line"><path class="connection real" stroke-dasharray="" d="  M263.88,108.82 L302.46,42.75" style="stroke: rgb(0, 0, 0); stroke-width: 1; fill: none; fill-opacity: 1;"/><g stroke="none" fill="#000" transform="matrix(-0.5043769251803373,0.863483594138087,-0.863483594138087,-0.5043769251803373,303.47161865234375,41.022735595703125)" style="stroke: none; fill: rgb(0, 0, 0); stroke-width: 1;"><path d=" M12,-3 L0,0 L12,3 Z"/></g></g><g class="composite-shape"><path class="real" d=" M303.47,41.02 L318.28,17.52 L367.66,17.52 L382.47,41.02 L367.66,64.52 L318.28,64.52 Z" style="stroke-width: 1; stroke: rgb(0, 0, 0); fill: rgb(155, 155, 155); fill-opacity: 0.55;"/></g><g class="composite-shape"><path class="real" d=" M432,87 L517.47,87 L517.47,131.02 L432,131.02 Z" style="stroke-width: 1; stroke: rgb(0, 0, 0); fill: rgb(155, 155, 155); fill-opacity: 0.55;"/></g><g class="composite-shape"><path class="real" d=" M578,42 L648,42 L648,179.6 L578,179.6 Z" style="stroke-width: 2; stroke: rgb(0, 44, 97); stroke-opacity: 1; fill: rgb(0, 44, 97); fill-opacity: 1;"/></g><g class="arrow-line"><path class="connection real" stroke-dasharray="" d="  M263.88,108.82 L422.42,108.79 L430.47,108.79" style="stroke: rgb(0, 0, 0); stroke-width: 1; fill: none; fill-opacity: 1;"/><g stroke="none" fill="#000" transform="matrix(-0.9999999847691291,0.0001745329243145815,-0.0001745329243145815,-0.9999999847691291,432.47161865234375,108.79119491577147)" style="stroke: none; fill: rgb(0, 0, 0); stroke-width: 1;"><path d=" M12,-3 L0,0 L12,3 Z"/></g></g><g class="arrow-line"><path class="connection real" stroke-dasharray="" d="  M382.47,41.02 L431.28,107.18" style="stroke: rgb(0, 0, 0); stroke-width: 1; fill: none; fill-opacity: 1;"/><g stroke="none" fill="#000" transform="matrix(-0.5936998113827053,-0.8046866060548915,0.8046866060548915,-0.5936998113827053,432.47161865234375,108.79119491577148)" style="stroke: none; fill: rgb(0, 0, 0); stroke-width: 1;"><path d=" M12,-3 L0,0 L12,3 Z"/></g></g><g class="composite-shape"><path class="real" d=" M4.47,1.02 L653.06,1.02 L653.06,198.99 L4.47,198.99 Z" style="stroke-width: 2; stroke: rgb(0, 0, 0); fill: none; fill-opacity: 1;"/></g><g class="composite-shape"><path class="real" d=" M464,63 L484.47,63 L484.47,82.02 L464,82.02 Z M481.62,65.85 L466.85,65.85 L466.85,79.17 L481.62,79.17 Z" style="stroke-width: 1; stroke: rgb(0, 0, 0); fill: rgb(245, 166, 35); fill-opacity: 1;"/></g><g class="composite-shape"><path class="real" d=" M21,208 L41.5,208 L41.5,227 L21,227 Z M38.65,210.85 L23.85,210.85 L23.85,224.15 L38.65,224.15 Z" style="stroke-width: 1; stroke: rgb(0, 0, 0); fill: rgb(245, 166, 35); fill-opacity: 1;"/></g><g class="arrow-line"><path class="connection real" stroke-dasharray="6 6" d="  M518.92,108.79 L565.04,108.41 L567.17,108.39 L572.94,108.34 L575.92,108.32" style="stroke: rgb(0, 0, 0); stroke-width: 1; fill: none; fill-opacity: 1;"/><g stroke="none" fill="#000" transform="matrix(-0.9999663551946484,0.008202955487522444,-0.008202955487522444,-0.9999663551946484,577.9204559326173,108.30256271362305)" style="stroke: none; fill: rgb(0, 0, 0); stroke-width: 1;"><path d=" M12,-3 L0,0 L12,3 Z"/></g></g><g class="arrow-line"><path class="connection real" stroke-dasharray="" d="  M158.15,218.5 L184.09,218.42 L191.99,218.35 L194.97,218.33" style="stroke: rgb(0, 0, 0); stroke-width: 1; fill: none; fill-opacity: 1;"/><g stroke="none" fill="#000" transform="matrix(-0.9999663551946484,0.008202955487522444,-0.008202955487522444,-0.9999663551946484,196.97161865234375,218.31108474731442)" style="stroke: none; fill: rgb(0, 0, 0); stroke-width: 1;"><path d=" M12,-3 L0,0 L12,3 Z"/></g></g><g class="arrow-line"><path class="connection real" stroke-dasharray="6 6" d="  M323.15,218.5 L350.53,218.42 L352.66,218.4 L358.43,218.35 L361.41,218.33" style="stroke: rgb(0, 0, 0); stroke-width: 1; fill: none; fill-opacity: 1;"/><g stroke="none" fill="#000" transform="matrix(-0.9999663551946484,0.008202955487522444,-0.008202955487522444,-0.9999663551946484,363.40910339355463,218.31108474731448)" style="stroke: none; fill: rgb(0, 0, 0); stroke-width: 1;"><path d=" M12,-3 L0,0 L12,3 Z"/></g></g><g/></g><g/><g/><g/></svg>
        <svg xmlns="http://www.w3.org/2000/svg" xmlns:xlink="http://www.w3.org/1999/xlink" width="660" height="234.9857940673828" style="width:660px;height:234.9857940673828px;font-family:Asana-Math, Asana;background:transparent;"><g transform="matrix(-1.8369701987210297e-16,-1,1,-1.8369701987210297e-16,-67.98294448852538,152.86931610107425)"><g><g><g transform="matrix(1,0,0,1,15.36932373046875,115.38351440429688)"><path transform="matrix(0.015,0,0,-0.015,0,0)" d="M56 2C56 -15 56 -22 67 -22C74 -22 75 -20 82 -9C82 -8 85 -5 118 48C149 14 213 -22 302 -22C419 -22 499 76 499 186C499 286 433 368 349 388L221 419C159 434 120 488 120 546C120 616 174 677 252 677C419 677 441 513 447 468C448 462 448 456 459 456C472 456 472 461 472 480L472 681C472 698 472 705 461 705C454 705 453 704 446 692L411 635C381 664 340 705 251 705C140 705 56 617 56 511C56 428 109 355 187 328C198 324 249 312 319 295C346 288 376 281 404 244C425 218 435 185 435 152C435 81 385 9 301 9C272 9 196 14 143 63C85 117 82 181 81 217C80 227 72 227 69 227C56 227 56 220 56 202ZM587 400C665 400 665 397 665 308L665 158C665 80 665 -11 817 -11C873 -11 917 17 946 79L946 -11L1090 0L1090 31C1020 31 1012 38 1012 87L1012 442L865 431L865 400C935 400 943 393 943 344L943 166C943 79 895 11 822 11C738 11 734 58 734 110L734 442L587 431ZM1138 -163L1138 -194C1172 -193 1224 -191 1250 -191C1277 -191 1328 -193 1363 -194L1363 -163C1296 -163 1285 -163 1285 -118L1285 50L1285 59C1290 43 1332 -11 1408 -11C1527 -11 1631 87 1631 216C1631 343 1534 442 1422 442C1344 442 1302 398 1282 376L1282 442L1138 431L1138 400C1209 400 1216 394 1216 350L1216 -118C1216 -163 1205 -163 1138 -163ZM1285 114L1285 337C1314 388 1363 417 1414 417C1487 417 1548 329 1548 216C1548 95 1478 11 1404 11C1364 11 1326 31 1299 72C1285 93 1285 94 1285 114ZM1693 -163L1693 -194C1727 -193 1779 -191 1805 -191C1832 -191 1883 -193 1918 -194L1918 -163C1851 -163 1840 -163 1840 -118L1840 50L1840 59C1845 43 1887 -11 1963 -11C2082 -11 2186 87 2186 216C2186 343 2089 442 1977 442C1899 442 1857 398 1837 376L1837 442L1693 431L1693 400C1764 400 1771 394 1771 350L1771 -118C1771 -163 1760 -163 1693 -163ZM1840 114L1840 337C1869 388 1918 417 1969 417C2042 417 2103 329 2103 216C2103 95 2033 11 1959 11C1919 11 1881 31 1854 72C1840 93 1840 94 1840 114ZM2253 0C2286 1 2339 3 2364 3C2389 3 2438 1 2475 0L2475 31C2408 31 2397 31 2397 76L2397 694L2253 683L2253 652C2323 652 2331 645 2331 596L2331 76C2331 31 2320 31 2253 31ZM2572 616C2572 589 2594 563 2625 563C2653 563 2678 584 2678 616C2678 648 2653 669 2625 669C2594 669 2572 642 2572 616ZM2530 0C2562 1 2616 3 2640 3C2675 3 2710 1 2744 0L2744 31C2678 31 2674 36 2674 75L2674 442L2534 431L2534 400C2599 400 2608 394 2608 345L2608 76C2608 31 2597 31 2530 31ZM2802 220C2802 86 2907 -11 3022 -11C3144 -11 3189 100 3189 119C3189 129 3181 131 3176 131C3167 131 3165 125 3163 117C3128 14 3038 14 3028 14C2978 14 2938 44 2915 81C2885 129 2885 195 2885 231L3164 231C3186 231 3189 231 3189 252C3189 351 3135 448 3010 448C2894 448 2802 345 2802 220ZM2886 252C2892 401 2976 426 3010 426C3113 426 3123 291 3123 252ZM3246 0C3285 1 3332 3 3360 3C3400 3 3447 3 3487 0L3487 31L3466 31C3392 31 3390 42 3390 78L3390 232C3390 331 3432 420 3508 420C3515 420 3517 420 3519 419C3516 418 3496 406 3496 380C3496 352 3517 337 3539 337C3557 337 3582 349 3582 381C3582 413 3551 442 3508 442C3435 442 3399 375 3385 332L3385 442L3246 431L3246 400C3316 400 3324 393 3324 344L3324 76C3324 31 3313 31 3246 31Z" stroke="rgb(255,255,255)" stroke-opacity="1" stroke-width="0" fill="rgb(255,255,255)" fill-opacity="1"></path></g></g></g></g><g><g><g><g transform="matrix(1,0,0,1,149.97161865234375,105.30398559570312)"><path transform="matrix(0.0135,0,0,-0.0135,0,0)" d="M56 342C56 135 218 -22 404 -22C567 -22 665 117 665 233C665 243 665 250 652 250C641 250 641 244 640 234C632 91 525 9 416 9C355 9 159 43 159 341C159 640 354 674 415 674C524 674 613 583 633 437C635 423 635 420 649 420C665 420 665 423 665 444L665 681C665 698 665 705 654 705C650 705 646 705 638 693L588 619C551 655 500 705 404 705C217 705 56 546 56 342ZM750 220C750 86 855 -11 970 -11C1092 -11 1137 100 1137 119C1137 129 1129 131 1124 131C1115 131 1113 125 1111 117C1076 14 986 14 976 14C926 14 886 44 863 81C833 129 833 195 833 231L1112 231C1134 231 1137 231 1137 252C1137 351 1083 448 958 448C842 448 750 345 750 220ZM834 252C840 401 924 426 958 426C1061 426 1071 291 1071 252ZM1198 0C1233 1 1284 3 1311 3C1337 3 1389 1 1423 0L1423 31C1356 31 1345 31 1345 76L1345 260C1345 364 1416 420 1480 420C1543 420 1554 366 1554 309L1554 76C1554 31 1543 31 1476 31L1476 0C1511 1 1562 3 1589 3C1615 3 1667 1 1701 0L1701 31C1649 31 1624 31 1623 61L1623 252C1623 338 1623 369 1592 405C1578 422 1545 442 1487 442C1414 442 1367 399 1339 337L1339 442L1198 431L1198 400C1268 400 1276 393 1276 344L1276 76C1276 31 1265 31 1198 31ZM1712 400L1797 400L1797 124C1797 1 1890 -11 1926 -11C1997 -11 2025 60 2025 124L2025 181L2000 181L2000 126C2000 52 1970 14 1933 14C1866 14 1866 105 1866 122L1866 400L2009 400L2009 431L1866 431L1866 615L1841 615C1840 533 1810 426 1712 422ZM2109 0C2148 1 2195 3 2223 3C2263 3 2310 3 2350 0L2350 31L2329 31C2255 31 2253 42 2253 78L2253 232C2253 331 2295 420 2371 420C2378 420 2380 420 2382 419C2379 418 2359 406 2359 380C2359 352 2380 337 2402 337C2420 337 2445 349 2445 381C2445 413 2414 442 2371 442C2298 442 2262 375 2248 332L2248 442L2109 431L2109 400C2179 400 2187 393 2187 344L2187 76C2187 31 2176 31 2109 31ZM2514 95C2514 14 2611 -11 2674 -11C2740 -11 2786 29 2805 76C2809 36 2836 -6 2883 -6C2904 -6 2965 8 2965 89L2965 145L2940 145L2940 89C2940 31 2915 25 2904 25C2871 25 2867 70 2867 75L2867 275C2867 317 2867 356 2831 393C2792 432 2742 448 2694 448C2612 448 2543 401 2543 335C2543 305 2563 288 2589 288C2617 288 2635 308 2635 334C2635 346 2630 379 2584 380C2611 415 2660 426 2692 426C2741 426 2798 387 2798 298L2798 261C2747 258 2677 255 2614 225C2539 191 2514 139 2514 95ZM2591 96C2591 151 2633 234 2798 240L2798 140C2798 45 2726 11 2681 11C2632 11 2591 46 2591 96ZM3005 0C3038 1 3091 3 3116 3C3141 3 3190 1 3227 0L3227 31C3160 31 3149 31 3149 76L3149 694L3005 683L3005 652C3075 652 3083 645 3083 596L3083 76C3083 31 3072 31 3005 31ZM3306 -236C3306 -242 3309 -248 3315 -248C3323 -248 3326 -243 3334 -221L3688 723C3689 727 3691 732 3691 736C3691 744 3685 748 3681 748C3670 748 3666 730 3663 723L3310 -220C3306 -231 3306 -233 3306 -236ZM3784 0C3820 3 3891 3 3930 3C3969 3 4040 3 4076 0L4076 31L4052 31C3975 31 3973 42 3973 78L3973 331L4088 331C4104 331 4146 331 4181 297C4219 261 4219 230 4219 163C4219 98 4219 58 4260 20C4301 -16 4356 -22 4386 -22C4464 -22 4481 60 4481 88C4481 94 4481 105 4468 105C4457 105 4457 96 4456 89C4450 18 4415 0 4390 0C4341 0 4333 51 4319 144L4306 224C4288 288 4239 321 4184 340C4281 364 4359 425 4359 503C4359 599 4245 683 4098 683L3784 683L3784 652L3808 652C3885 652 3887 641 3887 605L3887 78C3887 42 3885 31 3808 31L3784 31ZM3973 353L3973 612C3973 635 3973 647 3995 650C4005 652 4034 652 4054 652C4144 652 4256 648 4256 503C4256 434 4232 353 4084 353ZM4513 220C4513 86 4618 -11 4733 -11C4855 -11 4900 100 4900 119C4900 129 4892 131 4887 131C4878 131 4876 125 4874 117C4839 14 4749 14 4739 14C4689 14 4649 44 4626 81C4596 129 4596 195 4596 231L4875 231C4897 231 4900 231 4900 252C4900 351 4846 448 4721 448C4605 448 4513 345 4513 220ZM4597 252C4603 401 4687 426 4721 426C4824 426 4834 291 4834 252ZM4957 -79C4957 -151 5056 -206 5178 -206C5296 -206 5400 -155 5400 -77C5400 -42 5386 9 5335 37C5282 65 5224 65 5163 65C5138 65 5095 65 5088 66C5056 70 5035 101 5035 133C5035 137 5035 160 5052 180C5091 152 5132 149 5151 149C5244 149 5313 218 5313 295C5313 332 5297 369 5272 392C5308 426 5344 431 5362 431C5364 431 5369 431 5372 430C5361 426 5356 415 5356 403C5356 386 5369 374 5385 374C5395 374 5414 381 5414 404C5414 421 5402 453 5363 453C5343 453 5299 447 5257 406C5215 439 5173 442 5151 442C5058 442 4989 373 4989 296C4989 252 5011 214 5036 193C5023 178 5005 145 5005 110C5005 79 5018 41 5049 21C4989 4 4957 -39 4957 -79ZM5009 -79C5009 -33 5047 4 5091 7L5150 7C5236 7 5348 7 5348 -79C5348 -133 5277 -183 5179 -183C5078 -183 5009 -132 5009 -79ZM5064 295C5064 322 5065 354 5080 379C5088 391 5111 419 5151 419C5238 419 5238 319 5238 296C5238 269 5237 237 5222 212C5214 200 5191 172 5151 172C5064 172 5064 272 5064 295ZM5504 616C5504 589 5526 563 5557 563C5585 563 5610 584 5610 616C5610 648 5585 669 5557 669C5526 669 5504 642 5504 616ZM5462 0C5494 1 5548 3 5572 3C5607 3 5642 1 5676 0L5676 31C5610 31 5606 36 5606 75L5606 442L5466 431L5466 400C5531 400 5540 394 5540 345L5540 76C5540 31 5529 31 5462 31ZM5734 214C5734 85 5838 -11 5955 -11C6076 -11 6177 87 6177 214C6177 342 6077 448 5956 448C5831 448 5734 339 5734 214ZM5817 222C5817 261 5817 315 5841 359C5868 405 5915 426 5955 426C5999 426 6042 404 6068 361C6094 318 6094 260 6094 222C6094 186 6094 132 6072 88C6050 43 6006 14 5956 14C5913 14 5869 35 5842 81C5817 125 5817 186 5817 222ZM6238 0C6273 1 6324 3 6351 3C6377 3 6429 1 6463 0L6463 31C6396 31 6385 31 6385 76L6385 260C6385 364 6456 420 6520 420C6583 420 6594 366 6594 309L6594 76C6594 31 6583 31 6516 31L6516 0C6551 1 6602 3 6629 3C6655 3 6707 1 6741 0L6741 31C6689 31 6664 31 6663 61L6663 252C6663 338 6663 369 6632 405C6618 422 6585 442 6527 442C6454 442 6407 399 6379 337L6379 442L6238 431L6238 400C6308 400 6316 393 6316 344L6316 76C6316 31 6305 31 6238 31ZM6803 95C6803 14 6900 -11 6963 -11C7029 -11 7075 29 7094 76C7098 36 7125 -6 7172 -6C7193 -6 7254 8 7254 89L7254 145L7229 145L7229 89C7229 31 7204 25 7193 25C7160 25 7156 70 7156 75L7156 275C7156 317 7156 356 7120 393C7081 432 7031 448 6983 448C6901 448 6832 401 6832 335C6832 305 6852 288 6878 288C6906 288 6924 308 6924 334C6924 346 6919 379 6873 380C6900 415 6949 426 6981 426C7030 426 7087 387 7087 298L7087 261C7036 258 6966 255 6903 225C6828 191 6803 139 6803 95ZM6880 96C6880 151 6922 234 7087 240L7087 140C7087 45 7015 11 6970 11C6921 11 6880 46 6880 96ZM7294 0C7327 1 7380 3 7405 3C7430 3 7479 1 7516 0L7516 31C7449 31 7438 31 7438 76L7438 694L7294 683L7294 652C7364 652 7372 645 7372 596L7372 76C7372 31 7361 31 7294 31Z" stroke="rgb(0,0,0)" stroke-opacity="1" stroke-width="0" fill="rgb(0,0,0)" fill-opacity="1"></path></g></g></g><g><g><g transform="matrix(1,0,0,1,190.8238525390625,126.29827880859375)"><path transform="matrix(0.0135,0,0,-0.0135,0,0)" d="M35 0L401 0C569 0 707 148 707 336C707 526 572 683 401 683L35 683L35 652L59 652C136 652 138 641 138 605L138 78C138 42 136 31 59 31L35 31ZM224 71L224 612C224 645 226 652 273 652L373 652C435 652 504 630 555 559C598 500 607 414 607 336C607 225 588 165 552 116C532 89 475 31 374 31L273 31C226 31 224 38 224 71ZM819 342C819 135 981 -22 1167 -22C1330 -22 1428 117 1428 233C1428 243 1428 250 1415 250C1404 250 1404 244 1403 234C1395 91 1288 9 1179 9C1118 9 922 43 922 341C922 640 1117 674 1178 674C1287 674 1376 583 1396 437C1398 423 1398 420 1412 420C1428 420 1428 423 1428 444L1428 681C1428 698 1428 705 1417 705C1413 705 1409 705 1401 693L1351 619C1314 655 1263 705 1167 705C980 705 819 546 819 342Z" stroke="rgb(0,0,0)" stroke-opacity="1" stroke-width="0" fill="rgb(0,0,0)" fill-opacity="1"></path></g></g></g></g><g><g><g><g transform="matrix(1,0,0,1,313.977294921875,43.8125)"><path transform="matrix(0.0135,0,0,-0.0135,0,0)" d="M56 342C56 135 218 -22 404 -22C567 -22 665 117 665 233C665 243 665 250 652 250C641 250 641 244 640 234C632 91 525 9 416 9C355 9 159 43 159 341C159 640 354 674 415 674C524 674 613 583 633 437C635 423 635 420 649 420C665 420 665 423 665 444L665 681C665 698 665 705 654 705C650 705 646 705 638 693L588 619C551 655 500 705 404 705C217 705 56 546 56 342ZM750 0C789 1 836 3 864 3C904 3 951 3 991 0L991 31L970 31C896 31 894 42 894 78L894 232C894 331 936 420 1012 420C1019 420 1021 420 1023 419C1020 418 1000 406 1000 380C1000 352 1021 337 1043 337C1061 337 1086 349 1086 381C1086 413 1055 442 1012 442C939 442 903 375 889 332L889 442L750 431L750 400C820 400 828 393 828 344L828 76C828 31 817 31 750 31ZM1141 214C1141 85 1245 -11 1362 -11C1483 -11 1584 87 1584 214C1584 342 1484 448 1363 448C1238 448 1141 339 1141 214ZM1224 222C1224 261 1224 315 1248 359C1275 405 1322 426 1362 426C1406 426 1449 404 1475 361C1501 318 1501 260 1501 222C1501 186 1501 132 1479 88C1457 43 1413 14 1363 14C1320 14 1276 35 1249 81C1224 125 1224 186 1224 222ZM1646 13C1646 -4 1646 -11 1657 -11C1662 -11 1663 -10 1682 9C1684 11 1684 13 1702 32C1746 -10 1791 -11 1812 -11C1927 -11 1973 56 1973 128C1973 181 1943 211 1931 223C1898 255 1859 263 1817 271C1761 282 1694 295 1694 353C1694 388 1720 429 1806 429C1916 429 1921 339 1923 308C1924 299 1933 299 1935 299C1948 299 1948 304 1948 323L1948 424C1948 441 1948 448 1937 448C1932 448 1930 448 1917 436C1914 432 1904 423 1900 420C1862 448 1821 448 1806 448C1684 448 1646 381 1646 325C1646 290 1662 262 1689 240C1721 214 1749 208 1821 194C1843 190 1925 174 1925 102C1925 51 1890 11 1812 11C1728 11 1692 68 1673 153C1670 166 1669 170 1659 170C1646 170 1646 163 1646 145ZM2040 13C2040 -4 2040 -11 2051 -11C2056 -11 2057 -10 2076 9C2078 11 2078 13 2096 32C2140 -10 2185 -11 2206 -11C2321 -11 2367 56 2367 128C2367 181 2337 211 2325 223C2292 255 2253 263 2211 271C2155 282 2088 295 2088 353C2088 388 2114 429 2200 429C2310 429 2315 339 2317 308C2318 299 2327 299 2329 299C2342 299 2342 304 2342 323L2342 424C2342 441 2342 448 2331 448C2326 448 2324 448 2311 436C2308 432 2298 423 2294 420C2256 448 2215 448 2200 448C2078 448 2040 381 2040 325C2040 290 2056 262 2083 240C2115 214 2143 208 2215 194C2237 190 2319 174 2319 102C2319 51 2284 11 2206 11C2122 11 2086 68 2067 153C2064 166 2063 170 2053 170C2040 170 2040 163 2040 145ZM2435 215C2435 88 2533 -11 2647 -11C2711 -11 2756 23 2781 55L2781 -11L2928 0L2928 31C2858 31 2850 38 2850 87L2850 694L2706 683L2706 652C2776 652 2784 645 2784 596L2784 380C2755 416 2712 442 2658 442C2540 442 2435 344 2435 215ZM2518 214C2518 251 2520 311 2549 356C2570 387 2608 420 2662 420C2697 420 2739 405 2770 360C2781 343 2781 341 2781 323L2781 118C2781 100 2781 98 2770 81C2740 33 2695 11 2652 11C2607 11 2571 37 2547 75C2521 116 2518 173 2518 214ZM2984 214C2984 85 3088 -11 3205 -11C3326 -11 3427 87 3427 214C3427 342 3327 448 3206 448C3081 448 2984 339 2984 214ZM3067 222C3067 261 3067 315 3091 359C3118 405 3165 426 3205 426C3249 426 3292 404 3318 361C3344 318 3344 260 3344 222C3344 186 3344 132 3322 88C3300 43 3256 14 3206 14C3163 14 3119 35 3092 81C3067 125 3067 186 3067 222ZM3518 216C3518 88 3617 -11 3733 -11C3867 -11 3899 109 3899 119C3899 129 3889 129 3886 129C3877 129 3875 125 3873 119C3844 26 3779 14 3742 14C3689 14 3601 57 3601 218C3601 381 3683 423 3736 423C3745 423 3808 422 3843 386C3802 383 3796 353 3796 340C3796 314 3814 294 3842 294C3868 294 3888 311 3888 341C3888 409 3812 448 3735 448C3610 448 3518 340 3518 216ZM3928 0C3961 1 4008 3 4037 3C4067 3 4107 2 4147 0L4147 31C4080 31 4069 31 4069 76L4069 179L4133 234C4210 128 4252 72 4252 54C4252 35 4235 31 4216 31L4216 0C4244 1 4303 3 4324 3C4353 3 4382 2 4411 0L4411 31C4374 31 4352 31 4314 84L4187 263C4186 265 4181 271 4181 274C4181 278 4252 338 4262 346C4325 397 4367 399 4388 400L4388 431C4359 428 4346 428 4318 428C4282 428 4220 430 4206 431L4206 400C4225 399 4235 388 4235 375C4235 355 4221 343 4213 336L4072 214L4072 694L3928 683L3928 652C3998 652 4006 645 4006 596L4006 76C4006 31 3995 31 3928 31Z" stroke="rgb(0,0,0)" stroke-opacity="1" stroke-width="0" fill="rgb(0,0,0)" fill-opacity="1"></path></g></g></g></g><g><g><g><g transform="matrix(1,0,0,1,458.97723388671875,113.3011474609375)"><path transform="matrix(0.0135,0,0,-0.0135,0,0)" d="M56 2C56 -15 56 -22 67 -22C74 -22 75 -20 82 -9C82 -8 85 -5 118 48C149 14 213 -22 302 -22C419 -22 499 76 499 186C499 286 433 368 349 388L221 419C159 434 120 488 120 546C120 616 174 677 252 677C419 677 441 513 447 468C448 462 448 456 459 456C472 456 472 461 472 480L472 681C472 698 472 705 461 705C454 705 453 704 446 692L411 635C381 664 340 705 251 705C140 705 56 617 56 511C56 428 109 355 187 328C198 324 249 312 319 295C346 288 376 281 404 244C425 218 435 185 435 152C435 81 385 9 301 9C272 9 196 14 143 63C85 117 82 181 81 217C80 227 72 227 69 227C56 227 56 220 56 202ZM574 400L659 400L659 124C659 1 752 -11 788 -11C859 -11 887 60 887 124L887 181L862 181L862 126C862 52 832 14 795 14C728 14 728 105 728 122L728 400L871 400L871 431L728 431L728 615L703 615C702 533 672 426 574 422ZM971 214C971 85 1075 -11 1192 -11C1313 -11 1414 87 1414 214C1414 342 1314 448 1193 448C1068 448 971 339 971 214ZM1054 222C1054 261 1054 315 1078 359C1105 405 1152 426 1192 426C1236 426 1279 404 1305 361C1331 318 1331 260 1331 222C1331 186 1331 132 1309 88C1287 43 1243 14 1193 14C1150 14 1106 35 1079 81C1054 125 1054 186 1054 222ZM1471 0C1510 1 1557 3 1585 3C1625 3 1672 3 1712 0L1712 31L1691 31C1617 31 1615 42 1615 78L1615 232C1615 331 1657 420 1733 420C1740 420 1742 420 1744 419C1741 418 1721 406 1721 380C1721 352 1742 337 1764 337C1782 337 1807 349 1807 381C1807 413 1776 442 1733 442C1660 442 1624 375 1610 332L1610 442L1471 431L1471 400C1541 400 1549 393 1549 344L1549 76C1549 31 1538 31 1471 31ZM1862 220C1862 86 1967 -11 2082 -11C2204 -11 2249 100 2249 119C2249 129 2241 131 2236 131C2227 131 2225 125 2223 117C2188 14 2098 14 2088 14C2038 14 1998 44 1975 81C1945 129 1945 195 1945 231L2224 231C2246 231 2249 231 2249 252C2249 351 2195 448 2070 448C1954 448 1862 345 1862 220ZM1946 252C1952 401 2036 426 2070 426C2173 426 2183 291 2183 252Z" stroke="rgb(0,0,0)" stroke-opacity="1" stroke-width="0" fill="rgb(0,0,0)" fill-opacity="1"></path></g></g></g></g><g transform="matrix(-1.8369701987210297e-16,-1,1,-1.8369701987210297e-16,503.63638496398937,723.2386455535889)"><g><g><g transform="matrix(1,0,0,1,581.7329711914062,114.75851440429688)"><path transform="matrix(0.015,0,0,-0.015,0,0)" d="M56 342C56 135 218 -22 404 -22C567 -22 665 117 665 233C665 243 665 250 652 250C641 250 641 244 640 234C632 91 525 9 416 9C355 9 159 43 159 341C159 640 354 674 415 674C524 674 613 583 633 437C635 423 635 420 649 420C665 420 665 423 665 444L665 681C665 698 665 705 654 705C650 705 646 705 638 693L588 619C551 655 500 705 404 705C217 705 56 546 56 342ZM754 400C832 400 832 397 832 308L832 158C832 80 832 -11 984 -11C1040 -11 1084 17 1113 79L1113 -11L1257 0L1257 31C1187 31 1179 38 1179 87L1179 442L1032 431L1032 400C1102 400 1110 393 1110 344L1110 166C1110 79 1062 11 989 11C905 11 901 58 901 110L901 442L754 431ZM1310 13C1310 -4 1310 -11 1321 -11C1326 -11 1327 -10 1346 9C1348 11 1348 13 1366 32C1410 -10 1455 -11 1476 -11C1591 -11 1637 56 1637 128C1637 181 1607 211 1595 223C1562 255 1523 263 1481 271C1425 282 1358 295 1358 353C1358 388 1384 429 1470 429C1580 429 1585 339 1587 308C1588 299 1597 299 1599 299C1612 299 1612 304 1612 323L1612 424C1612 441 1612 448 1601 448C1596 448 1594 448 1581 436C1578 432 1568 423 1564 420C1526 448 1485 448 1470 448C1348 448 1310 381 1310 325C1310 290 1326 262 1353 240C1385 214 1413 208 1485 194C1507 190 1589 174 1589 102C1589 51 1554 11 1476 11C1392 11 1356 68 1337 153C1334 166 1333 170 1323 170C1310 170 1310 163 1310 145ZM1690 400L1775 400L1775 124C1775 1 1868 -11 1904 -11C1975 -11 2003 60 2003 124L2003 181L1978 181L1978 126C1978 52 1948 14 1911 14C1844 14 1844 105 1844 122L1844 400L1987 400L1987 431L1844 431L1844 615L1819 615C1818 533 1788 426 1690 422ZM2087 214C2087 85 2191 -11 2308 -11C2429 -11 2530 87 2530 214C2530 342 2430 448 2309 448C2184 448 2087 339 2087 214ZM2170 222C2170 261 2170 315 2194 359C2221 405 2268 426 2308 426C2352 426 2395 404 2421 361C2447 318 2447 260 2447 222C2447 186 2447 132 2425 88C2403 43 2359 14 2309 14C2266 14 2222 35 2195 81C2170 125 2170 186 2170 222ZM2591 0C2626 1 2677 3 2704 3C2730 3 2782 1 2816 0L2816 31C2749 31 2738 31 2738 76L2738 260C2738 364 2809 420 2873 420C2936 420 2947 366 2947 309L2947 76C2947 31 2936 31 2869 31L2869 0C2904 1 2955 3 2982 3C3008 3 3060 1 3094 0L3094 31C3027 31 3016 31 3016 76L3016 260C3016 364 3087 420 3151 420C3214 420 3225 366 3225 309L3225 76C3225 31 3214 31 3147 31L3147 0C3182 1 3233 3 3260 3C3286 3 3338 1 3372 0L3372 31C3320 31 3295 31 3294 61L3294 252C3294 338 3294 369 3263 405C3249 422 3216 442 3158 442C3074 442 3030 382 3013 344C2999 431 2925 442 2880 442C2807 442 2760 399 2732 337L2732 442L2591 431L2591 400C2661 400 2669 393 2669 344L2669 76C2669 31 2658 31 2591 31ZM3420 220C3420 86 3525 -11 3640 -11C3762 -11 3807 100 3807 119C3807 129 3799 131 3794 131C3785 131 3783 125 3781 117C3746 14 3656 14 3646 14C3596 14 3556 44 3533 81C3503 129 3503 195 3503 231L3782 231C3804 231 3807 231 3807 252C3807 351 3753 448 3628 448C3512 448 3420 345 3420 220ZM3504 252C3510 401 3594 426 3628 426C3731 426 3741 291 3741 252ZM3864 0C3903 1 3950 3 3978 3C4018 3 4065 3 4105 0L4105 31L4084 31C4010 31 4008 42 4008 78L4008 232C4008 331 4050 420 4126 420C4133 420 4135 420 4137 419C4134 418 4114 406 4114 380C4114 352 4135 337 4157 337C4175 337 4200 349 4200 381C4200 413 4169 442 4126 442C4053 442 4017 375 4003 332L4003 442L3864 431L3864 400C3934 400 3942 393 3942 344L3942 76C3942 31 3931 31 3864 31Z" stroke="rgb(255,255,255)" stroke-opacity="1" stroke-width="0" fill="rgb(255,255,255)" fill-opacity="1"></path></g></g></g></g><g><g><g><g transform="matrix(1,0,0,1,46.97442626953125,222.39202880859375)"><path transform="matrix(0.0135,0,0,-0.0135,0,0)" d="M36 0L428 0C561 0 651 89 651 183C651 270 569 345 458 357C555 376 624 440 624 514C624 601 532 683 402 683L36 683L36 652L60 652C137 652 139 641 139 605L139 78C139 42 137 31 60 31L36 31ZM222 71L222 344L410 344C509 344 551 251 551 184C551 113 499 31 396 31L271 31C224 31 222 38 222 71ZM222 366L222 612C222 645 224 652 271 652L395 652C492 652 527 567 527 514C527 450 478 366 367 366ZM736 0C775 1 822 3 850 3C890 3 937 3 977 0L977 31L956 31C882 31 880 42 880 78L880 232C880 331 922 420 998 420C1005 420 1007 420 1009 419C1006 418 986 406 986 380C986 352 1007 337 1029 337C1047 337 1072 349 1072 381C1072 413 1041 442 998 442C925 442 889 375 875 332L875 442L736 431L736 400C806 400 814 393 814 344L814 76C814 31 803 31 736 31ZM1127 220C1127 86 1232 -11 1347 -11C1469 -11 1514 100 1514 119C1514 129 1506 131 1501 131C1492 131 1490 125 1488 117C1453 14 1363 14 1353 14C1303 14 1263 44 1240 81C1210 129 1210 195 1210 231L1489 231C1511 231 1514 231 1514 252C1514 351 1460 448 1335 448C1219 448 1127 345 1127 220ZM1211 252C1217 401 1301 426 1335 426C1438 426 1448 291 1448 252ZM1585 95C1585 14 1682 -11 1745 -11C1811 -11 1857 29 1876 76C1880 36 1907 -6 1954 -6C1975 -6 2036 8 2036 89L2036 145L2011 145L2011 89C2011 31 1986 25 1975 25C1942 25 1938 70 1938 75L1938 275C1938 317 1938 356 1902 393C1863 432 1813 448 1765 448C1683 448 1614 401 1614 335C1614 305 1634 288 1660 288C1688 288 1706 308 1706 334C1706 346 1701 379 1655 380C1682 415 1731 426 1763 426C1812 426 1869 387 1869 298L1869 261C1818 258 1748 255 1685 225C1610 191 1585 139 1585 95ZM1662 96C1662 151 1704 234 1869 240L1869 140C1869 45 1797 11 1752 11C1703 11 1662 46 1662 96ZM2071 0C2104 1 2151 3 2180 3C2210 3 2250 2 2290 0L2290 31C2223 31 2212 31 2212 76L2212 179L2276 234C2353 128 2395 72 2395 54C2395 35 2378 31 2359 31L2359 0C2387 1 2446 3 2467 3C2496 3 2525 2 2554 0L2554 31C2517 31 2495 31 2457 84L2330 263C2329 265 2324 271 2324 274C2324 278 2395 338 2405 346C2468 397 2510 399 2531 400L2531 431C2502 428 2489 428 2461 428C2425 428 2363 430 2349 431L2349 400C2368 399 2378 388 2378 375C2378 355 2364 343 2356 336L2215 214L2215 694L2071 683L2071 652C2141 652 2149 645 2149 596L2149 76C2149 31 2138 31 2071 31ZM2580 186L2846 186L2846 245L2580 245ZM2931 214C2931 85 3035 -11 3152 -11C3273 -11 3374 87 3374 214C3374 342 3274 448 3153 448C3028 448 2931 339 2931 214ZM3014 222C3014 261 3014 315 3038 359C3065 405 3112 426 3152 426C3196 426 3239 404 3265 361C3291 318 3291 260 3291 222C3291 186 3291 132 3269 88C3247 43 3203 14 3153 14C3110 14 3066 35 3039 81C3014 125 3014 186 3014 222ZM3431 -163L3431 -194C3465 -193 3517 -191 3543 -191C3570 -191 3621 -193 3656 -194L3656 -163C3589 -163 3578 -163 3578 -118L3578 50L3578 59C3583 43 3625 -11 3701 -11C3820 -11 3924 87 3924 216C3924 343 3827 442 3715 442C3637 442 3595 398 3575 376L3575 442L3431 431L3431 400C3502 400 3509 394 3509 350L3509 -118C3509 -163 3498 -163 3431 -163ZM3578 114L3578 337C3607 388 3656 417 3707 417C3780 417 3841 329 3841 216C3841 95 3771 11 3697 11C3657 11 3619 31 3592 72C3578 93 3578 94 3578 114ZM4014 220C4014 86 4119 -11 4234 -11C4356 -11 4401 100 4401 119C4401 129 4393 131 4388 131C4379 131 4377 125 4375 117C4340 14 4250 14 4240 14C4190 14 4150 44 4127 81C4097 129 4097 195 4097 231L4376 231C4398 231 4401 231 4401 252C4401 351 4347 448 4222 448C4106 448 4014 345 4014 220ZM4098 252C4104 401 4188 426 4222 426C4325 426 4335 291 4335 252ZM4462 0C4497 1 4548 3 4575 3C4601 3 4653 1 4687 0L4687 31C4620 31 4609 31 4609 76L4609 260C4609 364 4680 420 4744 420C4807 420 4818 366 4818 309L4818 76C4818 31 4807 31 4740 31L4740 0C4775 1 4826 3 4853 3C4879 3 4931 1 4965 0L4965 31C4913 31 4888 31 4887 61L4887 252C4887 338 4887 369 4856 405C4842 422 4809 442 4751 442C4678 442 4631 399 4603 337L4603 442L4462 431L4462 400C4532 400 4540 393 4540 344L4540 76C4540 31 4529 31 4462 31ZM5346 -163L5346 -194C5380 -193 5432 -191 5458 -191C5485 -191 5536 -193 5571 -194L5571 -163C5504 -163 5493 -163 5493 -118L5493 50L5493 59C5498 43 5540 -11 5616 -11C5735 -11 5839 87 5839 216C5839 343 5742 442 5630 442C5552 442 5510 398 5490 376L5490 442L5346 431L5346 400C5417 400 5424 394 5424 350L5424 -118C5424 -163 5413 -163 5346 -163ZM5493 114L5493 337C5522 388 5571 417 5622 417C5695 417 5756 329 5756 216C5756 95 5686 11 5612 11C5572 11 5534 31 5507 72C5493 93 5493 94 5493 114ZM5929 214C5929 85 6033 -11 6150 -11C6271 -11 6372 87 6372 214C6372 342 6272 448 6151 448C6026 448 5929 339 5929 214ZM6012 222C6012 261 6012 315 6036 359C6063 405 6110 426 6150 426C6194 426 6237 404 6263 361C6289 318 6289 260 6289 222C6289 186 6289 132 6267 88C6245 43 6201 14 6151 14C6108 14 6064 35 6037 81C6012 125 6012 186 6012 222ZM6476 616C6476 589 6498 563 6529 563C6557 563 6582 584 6582 616C6582 648 6557 669 6529 669C6498 669 6476 642 6476 616ZM6434 0C6466 1 6520 3 6544 3C6579 3 6614 1 6648 0L6648 31C6582 31 6578 36 6578 75L6578 442L6438 431L6438 400C6503 400 6512 394 6512 345L6512 76C6512 31 6501 31 6434 31ZM6710 0C6745 1 6796 3 6823 3C6849 3 6901 1 6935 0L6935 31C6868 31 6857 31 6857 76L6857 260C6857 364 6928 420 6992 420C7055 420 7066 366 7066 309L7066 76C7066 31 7055 31 6988 31L6988 0C7023 1 7074 3 7101 3C7127 3 7179 1 7213 0L7213 31C7161 31 7136 31 7135 61L7135 252C7135 338 7135 369 7104 405C7090 422 7057 442 6999 442C6926 442 6879 399 6851 337L6851 442L6710 431L6710 400C6780 400 6788 393 6788 344L6788 76C6788 31 6777 31 6710 31ZM7224 400L7309 400L7309 124C7309 1 7402 -11 7438 -11C7509 -11 7537 60 7537 124L7537 181L7512 181L7512 126C7512 52 7482 14 7445 14C7378 14 7378 105 7378 122L7378 400L7521 400L7521 431L7378 431L7378 615L7353 615C7352 533 7322 426 7224 422Z" stroke="rgb(0,0,0)" stroke-opacity="1" stroke-width="0" fill="rgb(0,0,0)" fill-opacity="1"></path></g></g></g></g><g><g><g><g transform="matrix(1,0,0,1,202.47161865234375,222.39202880859375)"><path transform="matrix(0.0135,0,0,-0.0135,0,0)" d="M33 0C68 3 146 3 185 3C226 3 317 3 353 0L353 31L320 31C225 31 225 44 225 79L225 325L311 325C407 325 417 293 417 208L442 208L442 473L417 473C417 389 407 356 311 356L225 356L225 609C225 642 227 649 274 649L394 649C544 649 569 593 585 455L610 455L582 680L33 680L33 649L57 649C134 649 136 638 136 602L136 78C136 42 134 31 57 31L33 31ZM685 0C718 1 771 3 796 3C821 3 870 1 907 0L907 31C840 31 829 31 829 76L829 694L685 683L685 652C755 652 763 645 763 596L763 76C763 31 752 31 685 31ZM957 214C957 85 1061 -11 1178 -11C1299 -11 1400 87 1400 214C1400 342 1300 448 1179 448C1054 448 957 339 957 214ZM1040 222C1040 261 1040 315 1064 359C1091 405 1138 426 1178 426C1222 426 1265 404 1291 361C1317 318 1317 260 1317 222C1317 186 1317 132 1295 88C1273 43 1229 14 1179 14C1136 14 1092 35 1065 81C1040 125 1040 186 1040 222ZM1419 400C1469 400 1481 397 1493 365L1619 11C1624 -3 1627 -11 1640 -11C1653 -11 1655 -5 1660 9L1761 292L1863 8C1867 -3 1870 -11 1883 -11C1896 -11 1899 -2 1903 8L2020 336C2038 386 2069 399 2104 400L2104 431C2082 429 2053 428 2031 428C2002 428 1957 430 1938 431L1938 400C1974 399 1996 381 1996 352C1996 346 1996 344 1991 331L1900 75L1801 354C1797 366 1796 368 1796 373C1796 400 1835 400 1855 400L1855 431C1826 430 1775 428 1751 428C1721 428 1692 429 1662 431L1662 400C1699 400 1715 398 1725 385C1730 379 1741 349 1748 330L1662 88L1567 355C1562 367 1562 369 1562 373C1562 400 1601 400 1621 400L1621 431C1591 430 1535 428 1512 428C1508 428 1455 429 1419 431ZM2484 214C2484 85 2588 -11 2705 -11C2826 -11 2927 87 2927 214C2927 342 2827 448 2706 448C2581 448 2484 339 2484 214ZM2567 222C2567 261 2567 315 2591 359C2618 405 2665 426 2705 426C2749 426 2792 404 2818 361C2844 318 2844 260 2844 222C2844 186 2844 132 2822 88C2800 43 2756 14 2706 14C2663 14 2619 35 2592 81C2567 125 2567 186 2567 222ZM2989 400L3068 400L3068 76C3068 31 3057 31 2990 31L2990 0C3029 1 3076 3 3104 3C3144 3 3191 3 3231 0L3231 31L3210 31C3136 31 3134 42 3134 78L3134 400L3248 400L3248 431L3131 431L3131 547C3131 635 3179 683 3223 683C3226 683 3241 683 3256 676C3244 672 3226 659 3226 634C3226 611 3242 591 3269 591C3298 591 3313 611 3313 635C3313 672 3276 705 3223 705C3153 705 3068 652 3068 546L3068 431L2989 431ZM3628 216C3628 88 3727 -11 3843 -11C3977 -11 4009 109 4009 119C4009 129 3999 129 3996 129C3987 129 3985 125 3983 119C3954 26 3889 14 3852 14C3799 14 3711 57 3711 218C3711 381 3793 423 3846 423C3855 423 3918 422 3953 386C3912 383 3906 353 3906 340C3906 314 3924 294 3952 294C3978 294 3998 311 3998 341C3998 409 3922 448 3845 448C3720 448 3628 340 3628 216ZM4080 95C4080 14 4177 -11 4240 -11C4306 -11 4352 29 4371 76C4375 36 4402 -6 4449 -6C4470 -6 4531 8 4531 89L4531 145L4506 145L4506 89C4506 31 4481 25 4470 25C4437 25 4433 70 4433 75L4433 275C4433 317 4433 356 4397 393C4358 432 4308 448 4260 448C4178 448 4109 401 4109 335C4109 305 4129 288 4155 288C4183 288 4201 308 4201 334C4201 346 4196 379 4150 380C4177 415 4226 426 4258 426C4307 426 4364 387 4364 298L4364 261C4313 258 4243 255 4180 225C4105 191 4080 139 4080 95ZM4157 96C4157 151 4199 234 4364 240L4364 140C4364 45 4292 11 4247 11C4198 11 4157 46 4157 96ZM4571 13C4571 -4 4571 -11 4582 -11C4587 -11 4588 -10 4607 9C4609 11 4609 13 4627 32C4671 -10 4716 -11 4737 -11C4852 -11 4898 56 4898 128C4898 181 4868 211 4856 223C4823 255 4784 263 4742 271C4686 282 4619 295 4619 353C4619 388 4645 429 4731 429C4841 429 4846 339 4848 308C4849 299 4858 299 4860 299C4873 299 4873 304 4873 323L4873 424C4873 441 4873 448 4862 448C4857 448 4855 448 4842 436C4839 432 4829 423 4825 420C4787 448 4746 448 4731 448C4609 448 4571 381 4571 325C4571 290 4587 262 4614 240C4646 214 4674 208 4746 194C4768 190 4850 174 4850 102C4850 51 4815 11 4737 11C4653 11 4617 68 4598 153C4595 166 4594 170 4584 170C4571 170 4571 163 4571 145ZM4960 220C4960 86 5065 -11 5180 -11C5302 -11 5347 100 5347 119C5347 129 5339 131 5334 131C5325 131 5323 125 5321 117C5286 14 5196 14 5186 14C5136 14 5096 44 5073 81C5043 129 5043 195 5043 231L5322 231C5344 231 5347 231 5347 252C5347 351 5293 448 5168 448C5052 448 4960 345 4960 220ZM5044 252C5050 401 5134 426 5168 426C5271 426 5281 291 5281 252ZM5737 -163L5737 -194C5771 -193 5823 -191 5849 -191C5876 -191 5927 -193 5962 -194L5962 -163C5895 -163 5884 -163 5884 -118L5884 50L5884 59C5889 43 5931 -11 6007 -11C6126 -11 6230 87 6230 216C6230 343 6133 442 6021 442C5943 442 5901 398 5881 376L5881 442L5737 431L5737 400C5808 400 5815 394 5815 350L5815 -118C5815 -163 5804 -163 5737 -163ZM5884 114L5884 337C5913 388 5962 417 6013 417C6086 417 6147 329 6147 216C6147 95 6077 11 6003 11C5963 11 5925 31 5898 72C5884 93 5884 94 5884 114ZM6306 95C6306 14 6403 -11 6466 -11C6532 -11 6578 29 6597 76C6601 36 6628 -6 6675 -6C6696 -6 6757 8 6757 89L6757 145L6732 145L6732 89C6732 31 6707 25 6696 25C6663 25 6659 70 6659 75L6659 275C6659 317 6659 356 6623 393C6584 432 6534 448 6486 448C6404 448 6335 401 6335 335C6335 305 6355 288 6381 288C6409 288 6427 308 6427 334C6427 346 6422 379 6376 380C6403 415 6452 426 6484 426C6533 426 6590 387 6590 298L6590 261C6539 258 6469 255 6406 225C6331 191 6306 139 6306 95ZM6383 96C6383 151 6425 234 6590 240L6590 140C6590 45 6518 11 6473 11C6424 11 6383 46 6383 96ZM6798 216C6798 88 6897 -11 7013 -11C7147 -11 7179 109 7179 119C7179 129 7169 129 7166 129C7157 129 7155 125 7153 119C7124 26 7059 14 7022 14C6969 14 6881 57 6881 218C6881 381 6963 423 7016 423C7025 423 7088 422 7123 386C7082 383 7076 353 7076 340C7076 314 7094 294 7122 294C7148 294 7168 311 7168 341C7168 409 7092 448 7015 448C6890 448 6798 340 6798 216ZM7208 0C7241 1 7288 3 7317 3C7347 3 7387 2 7427 0L7427 31C7360 31 7349 31 7349 76L7349 179L7413 234C7490 128 7532 72 7532 54C7532 35 7515 31 7496 31L7496 0C7524 1 7583 3 7604 3C7633 3 7662 2 7691 0L7691 31C7654 31 7632 31 7594 84L7467 263C7466 265 7461 271 7461 274C7461 278 7532 338 7542 346C7605 397 7647 399 7668 400L7668 431C7639 428 7626 428 7598 428C7562 428 7500 430 7486 431L7486 400C7505 399 7515 388 7515 375C7515 355 7501 343 7493 336L7352 214L7352 694L7208 683L7208 652C7278 652 7286 645 7286 596L7286 76C7286 31 7275 31 7208 31ZM7740 13C7740 -4 7740 -11 7751 -11C7756 -11 7757 -10 7776 9C7778 11 7778 13 7796 32C7840 -10 7885 -11 7906 -11C8021 -11 8067 56 8067 128C8067 181 8037 211 8025 223C7992 255 7953 263 7911 271C7855 282 7788 295 7788 353C7788 388 7814 429 7900 429C8010 429 8015 339 8017 308C8018 299 8027 299 8029 299C8042 299 8042 304 8042 323L8042 424C8042 441 8042 448 8031 448C8026 448 8024 448 8011 436C8008 432 7998 423 7994 420C7956 448 7915 448 7900 448C7778 448 7740 381 7740 325C7740 290 7756 262 7783 240C7815 214 7843 208 7915 194C7937 190 8019 174 8019 102C8019 51 7984 11 7906 11C7822 11 7786 68 7767 153C7764 166 7763 170 7753 170C7740 170 7740 163 7740 145Z" stroke="rgb(0,0,0)" stroke-opacity="1" stroke-width="0" fill="rgb(0,0,0)" fill-opacity="1"></path></g></g></g></g><g><g><g><g transform="matrix(1,0,0,1,368.4801025390625,222.39202880859375)"><path transform="matrix(0.0135,0,0,-0.0135,0,0)" d="M33 0C68 3 146 3 185 3C226 3 317 3 353 0L353 31L320 31C225 31 225 44 225 79L225 325L311 325C407 325 417 293 417 208L442 208L442 473L417 473C417 389 407 356 311 356L225 356L225 609C225 642 227 649 274 649L394 649C544 649 569 593 585 455L610 455L582 680L33 680L33 649L57 649C134 649 136 638 136 602L136 78C136 42 134 31 57 31L33 31ZM685 0C718 1 771 3 796 3C821 3 870 1 907 0L907 31C840 31 829 31 829 76L829 694L685 683L685 652C755 652 763 645 763 596L763 76C763 31 752 31 685 31ZM957 214C957 85 1061 -11 1178 -11C1299 -11 1400 87 1400 214C1400 342 1300 448 1179 448C1054 448 957 339 957 214ZM1040 222C1040 261 1040 315 1064 359C1091 405 1138 426 1178 426C1222 426 1265 404 1291 361C1317 318 1317 260 1317 222C1317 186 1317 132 1295 88C1273 43 1229 14 1179 14C1136 14 1092 35 1065 81C1040 125 1040 186 1040 222ZM1419 400C1469 400 1481 397 1493 365L1619 11C1624 -3 1627 -11 1640 -11C1653 -11 1655 -5 1660 9L1761 292L1863 8C1867 -3 1870 -11 1883 -11C1896 -11 1899 -2 1903 8L2020 336C2038 386 2069 399 2104 400L2104 431C2082 429 2053 428 2031 428C2002 428 1957 430 1938 431L1938 400C1974 399 1996 381 1996 352C1996 346 1996 344 1991 331L1900 75L1801 354C1797 366 1796 368 1796 373C1796 400 1835 400 1855 400L1855 431C1826 430 1775 428 1751 428C1721 428 1692 429 1662 431L1662 400C1699 400 1715 398 1725 385C1730 379 1741 349 1748 330L1662 88L1567 355C1562 367 1562 369 1562 373C1562 400 1601 400 1621 400L1621 431C1591 430 1535 428 1512 428C1508 428 1455 429 1419 431ZM2484 214C2484 85 2588 -11 2705 -11C2826 -11 2927 87 2927 214C2927 342 2827 448 2706 448C2581 448 2484 339 2484 214ZM2567 222C2567 261 2567 315 2591 359C2618 405 2665 426 2705 426C2749 426 2792 404 2818 361C2844 318 2844 260 2844 222C2844 186 2844 132 2822 88C2800 43 2756 14 2706 14C2663 14 2619 35 2592 81C2567 125 2567 186 2567 222ZM2989 400L3068 400L3068 76C3068 31 3057 31 2990 31L2990 0C3029 1 3076 3 3104 3C3144 3 3191 3 3231 0L3231 31L3210 31C3136 31 3134 42 3134 78L3134 400L3248 400L3248 431L3131 431L3131 547C3131 635 3179 683 3223 683C3226 683 3241 683 3256 676C3244 672 3226 659 3226 634C3226 611 3242 591 3269 591C3298 591 3313 611 3313 635C3313 672 3276 705 3223 705C3153 705 3068 652 3068 546L3068 431L2989 431ZM3628 216C3628 88 3727 -11 3843 -11C3977 -11 4009 109 4009 119C4009 129 3999 129 3996 129C3987 129 3985 125 3983 119C3954 26 3889 14 3852 14C3799 14 3711 57 3711 218C3711 381 3793 423 3846 423C3855 423 3918 422 3953 386C3912 383 3906 353 3906 340C3906 314 3924 294 3952 294C3978 294 3998 311 3998 341C3998 409 3922 448 3845 448C3720 448 3628 340 3628 216ZM4070 400C4148 400 4148 397 4148 308L4148 158C4148 80 4148 -11 4300 -11C4356 -11 4400 17 4429 79L4429 -11L4573 0L4573 31C4503 31 4495 38 4495 87L4495 442L4348 431L4348 400C4418 400 4426 393 4426 344L4426 166C4426 79 4378 11 4305 11C4221 11 4217 58 4217 110L4217 442L4070 431ZM4626 13C4626 -4 4626 -11 4637 -11C4642 -11 4643 -10 4662 9C4664 11 4664 13 4682 32C4726 -10 4771 -11 4792 -11C4907 -11 4953 56 4953 128C4953 181 4923 211 4911 223C4878 255 4839 263 4797 271C4741 282 4674 295 4674 353C4674 388 4700 429 4786 429C4896 429 4901 339 4903 308C4904 299 4913 299 4915 299C4928 299 4928 304 4928 323L4928 424C4928 441 4928 448 4917 448C4912 448 4910 448 4897 436C4894 432 4884 423 4880 420C4842 448 4801 448 4786 448C4664 448 4626 381 4626 325C4626 290 4642 262 4669 240C4701 214 4729 208 4801 194C4823 190 4905 174 4905 102C4905 51 4870 11 4792 11C4708 11 4672 68 4653 153C4650 166 4649 170 4639 170C4626 170 4626 163 4626 145ZM5006 400L5091 400L5091 124C5091 1 5184 -11 5220 -11C5291 -11 5319 60 5319 124L5319 181L5294 181L5294 126C5294 52 5264 14 5227 14C5160 14 5160 105 5160 122L5160 400L5303 400L5303 431L5160 431L5160 615L5135 615C5134 533 5104 426 5006 422ZM5403 214C5403 85 5507 -11 5624 -11C5745 -11 5846 87 5846 214C5846 342 5746 448 5625 448C5500 448 5403 339 5403 214ZM5486 222C5486 261 5486 315 5510 359C5537 405 5584 426 5624 426C5668 426 5711 404 5737 361C5763 318 5763 260 5763 222C5763 186 5763 132 5741 88C5719 43 5675 14 5625 14C5582 14 5538 35 5511 81C5486 125 5486 186 5486 222ZM5907 0C5942 1 5993 3 6020 3C6046 3 6098 1 6132 0L6132 31C6065 31 6054 31 6054 76L6054 260C6054 364 6125 420 6189 420C6252 420 6263 366 6263 309L6263 76C6263 31 6252 31 6185 31L6185 0C6220 1 6271 3 6298 3C6324 3 6376 1 6410 0L6410 31C6343 31 6332 31 6332 76L6332 260C6332 364 6403 420 6467 420C6530 420 6541 366 6541 309L6541 76C6541 31 6530 31 6463 31L6463 0C6498 1 6549 3 6576 3C6602 3 6654 1 6688 0L6688 31C6636 31 6611 31 6610 61L6610 252C6610 338 6610 369 6579 405C6565 422 6532 442 6474 442C6390 442 6346 382 6329 344C6315 431 6241 442 6196 442C6123 442 6076 399 6048 337L6048 442L5907 431L5907 400C5977 400 5985 393 5985 344L5985 76C5985 31 5974 31 5907 31ZM6736 220C6736 86 6841 -11 6956 -11C7078 -11 7123 100 7123 119C7123 129 7115 131 7110 131C7101 131 7099 125 7097 117C7062 14 6972 14 6962 14C6912 14 6872 44 6849 81C6819 129 6819 195 6819 231L7098 231C7120 231 7123 231 7123 252C7123 351 7069 448 6944 448C6828 448 6736 345 6736 220ZM6820 252C6826 401 6910 426 6944 426C7047 426 7057 291 7057 252ZM7180 0C7219 1 7266 3 7294 3C7334 3 7381 3 7421 0L7421 31L7400 31C7326 31 7324 42 7324 78L7324 232C7324 331 7366 420 7442 420C7449 420 7451 420 7453 419C7450 418 7430 406 7430 380C7430 352 7451 337 7473 337C7491 337 7516 349 7516 381C7516 413 7485 442 7442 442C7369 442 7333 375 7319 332L7319 442L7180 431L7180 400C7250 400 7258 393 7258 344L7258 76C7258 31 7247 31 7180 31ZM7908 400C7986 400 7986 397 7986 308L7986 158C7986 80 7986 -11 8138 -11C8194 -11 8238 17 8267 79L8267 -11L8411 0L8411 31C8341 31 8333 38 8333 87L8333 442L8186 431L8186 400C8256 400 8264 393 8264 344L8264 166C8264 79 8216 11 8143 11C8059 11 8055 58 8055 110L8055 442L7908 431ZM8463 0C8498 1 8549 3 8576 3C8602 3 8654 1 8688 0L8688 31C8621 31 8610 31 8610 76L8610 260C8610 364 8681 420 8745 420C8808 420 8819 366 8819 309L8819 76C8819 31 8808 31 8741 31L8741 0C8776 1 8827 3 8854 3C8880 3 8932 1 8966 0L8966 31C8914 31 8889 31 8888 61L8888 252C8888 338 8888 369 8857 405C8843 422 8810 442 8752 442C8679 442 8632 399 8604 337L8604 442L8463 431L8463 400C8533 400 8541 393 8541 344L8541 76C8541 31 8530 31 8463 31ZM9061 616C9061 589 9083 563 9114 563C9142 563 9167 584 9167 616C9167 648 9142 669 9114 669C9083 669 9061 642 9061 616ZM9019 0C9051 1 9105 3 9129 3C9164 3 9199 1 9233 0L9233 31C9167 31 9163 36 9163 75L9163 442L9023 431L9023 400C9088 400 9097 394 9097 345L9097 76C9097 31 9086 31 9019 31ZM9282 400L9367 400L9367 124C9367 1 9460 -11 9496 -11C9567 -11 9595 60 9595 124L9595 181L9570 181L9570 126C9570 52 9540 14 9503 14C9436 14 9436 105 9436 122L9436 400L9579 400L9579 431L9436 431L9436 615L9411 615C9410 533 9380 426 9282 422ZM9684 13C9684 -4 9684 -11 9695 -11C9700 -11 9701 -10 9720 9C9722 11 9722 13 9740 32C9784 -10 9829 -11 9850 -11C9965 -11 10011 56 10011 128C10011 181 9981 211 9969 223C9936 255 9897 263 9855 271C9799 282 9732 295 9732 353C9732 388 9758 429 9844 429C9954 429 9959 339 9961 308C9962 299 9971 299 9973 299C9986 299 9986 304 9986 323L9986 424C9986 441 9986 448 9975 448C9970 448 9968 448 9955 436C9952 432 9942 423 9938 420C9900 448 9859 448 9844 448C9722 448 9684 381 9684 325C9684 290 9700 262 9727 240C9759 214 9787 208 9859 194C9881 190 9963 174 9963 102C9963 51 9928 11 9850 11C9766 11 9730 68 9711 153C9708 166 9707 170 9697 170C9684 170 9684 163 9684 145Z" stroke="rgb(0,0,0)" stroke-opacity="1" stroke-width="0" fill="rgb(0,0,0)" fill-opacity="1"></path></g></g></g></g></svg>
</svg>
