<?xml version="1.0" encoding="utf-8" standalone="no"?>
<!DOCTYPE svg PUBLIC "-//W3C//DTD SVG 1.1//EN"
  "http://www.w3.org/Graphics/SVG/1.1/DTD/svg11.dtd">
<svg xmlns:xlink="http://www.w3.org/1999/xlink" width="478.206725pt" height="295.54801pt" viewBox="0 0 478.206725 295.54801" xmlns="http://www.w3.org/2000/svg" version="1.1">
 <metadata>
  <rdf:RDF xmlns:dc="http://purl.org/dc/elements/1.1/" xmlns:cc="http://creativecommons.org/ns#" xmlns:rdf="http://www.w3.org/1999/02/22-rdf-syntax-ns#">
   <cc:Work>
    <dc:type rdf:resource="http://purl.org/dc/dcmitype/StillImage"/>
    <dc:date>2022-04-11T11:41:11.517768</dc:date>
    <dc:format>image/svg+xml</dc:format>
    <dc:creator>
     <cc:Agent>
      <dc:title>Matplotlib v3.5.0, https://matplotlib.org/</dc:title>
     </cc:Agent>
    </dc:creator>
   </cc:Work>
  </rdf:RDF>
 </metadata>
 <defs>
  <style type="text/css">*{stroke-linejoin: round; stroke-linecap: butt}</style>
 </defs>
 <g id="figure_1">
  <g id="patch_1">
   <path d="M 0 295.54801 
L 478.206725 295.54801 
L 478.206725 0 
L 0 0 
z
" style="fill: #ffffff"/>
  </g>
  <g id="axes_1">
   <g id="patch_2">
    <path d="M 66.365971 239.759962 
L 238.528855 239.759962 
L 238.528855 28.645892 
L 66.365971 28.645892 
z
" style="fill: #ffffff"/>
   </g>
   <g id="line2d_1">
    <path d="M 66.365971 125.155181 
L 479.206725 125.155181 
" clip-path="url(#p4bf17e215d)" style="fill: none; stroke: #000000; stroke-width: 1.3; stroke-linecap: round"/>
   </g>
   <g id="LineCollection_1">
    <path d="M 149.136588 239.759962 
L 149.136588 129.053252 
" clip-path="url(#p4bf17e215d)" style="fill: none; stroke-dasharray: 4.81,2.08; stroke-dashoffset: 0; stroke: #808080; stroke-width: 1.3"/>
   </g>
   <g id="LineCollection_2">
    <path d="M 69.676796 129.053252 
L 149.136588 129.053252 
" clip-path="url(#p4bf17e215d)" style="fill: none; stroke-dasharray: 4.81,2.08; stroke-dashoffset: 0; stroke: #808080; stroke-width: 1.3"/>
   </g>
   <g id="LineCollection_3">
    <path d="M 149.136588 239.759962 
L 149.136588 85.397878 
" clip-path="url(#p4bf17e215d)" style="fill: none; stroke-dasharray: 4.81,2.08; stroke-dashoffset: 0; stroke: #808080; stroke-width: 1.3"/>
   </g>
   <g id="LineCollection_4">
    <path d="M 69.676796 85.397878 
L 149.136588 85.397878 
" clip-path="url(#p4bf17e215d)" style="fill: none; stroke-dasharray: 4.81,2.08; stroke-dashoffset: 0; stroke: #808080; stroke-width: 1.3"/>
   </g>
   <g id="LineCollection_5">
    <path d="M 149.136588 239.759962 
L 149.136588 70.876246 
" clip-path="url(#p4bf17e215d)" style="fill: none; stroke-dasharray: 4.81,2.08; stroke-dashoffset: 0; stroke: #808080; stroke-width: 1.3"/>
   </g>
   <g id="LineCollection_6">
    <path d="M 69.676796 70.876246 
L 149.136588 70.876246 
" clip-path="url(#p4bf17e215d)" style="fill: none; stroke-dasharray: 4.81,2.08; stroke-dashoffset: 0; stroke: #808080; stroke-width: 1.3"/>
   </g>
   <g id="matplotlib.axis_1">
    <g id="xtick_1">
     <g id="line2d_2">
      <defs>
       <path id="m21d48877d2" d="M 0 0 
L 0 6 
" style="stroke: #262626; stroke-width: 0.8"/>
      </defs>
      <g>
       <use xlink:href="#m21d48877d2" x="66.365971" y="239.759962" style="fill: #262626; stroke: #262626; stroke-width: 0.8"/>
      </g>
     </g>
     <g id="text_1">
      <!-- $\mathdefault{0}$ -->
      <g style="fill: #262626" transform="translate(63.626237 256.870309)scale(0.11 -0.11)">
       <defs>
        <path id="CMR17-30" d="M 2688 2038 
C 2688 2430 2682 3099 2413 3613 
C 2176 4063 1798 4224 1466 4224 
C 1158 4224 768 4082 525 3620 
C 269 3137 243 2539 243 2038 
C 243 1671 250 1112 448 623 
C 723 -39 1216 -128 1466 -128 
C 1760 -128 2208 -7 2470 604 
C 2662 1048 2688 1568 2688 2038 
z
M 1466 -26 
C 1056 -26 813 328 723 816 
C 653 1196 653 1749 653 2109 
C 653 2604 653 3015 736 3407 
C 858 3954 1216 4121 1466 4121 
C 1728 4121 2067 3947 2189 3420 
C 2272 3054 2278 2623 2278 2109 
C 2278 1691 2278 1176 2202 797 
C 2067 96 1690 -26 1466 -26 
z
" transform="scale(0.015625)"/>
       </defs>
       <use xlink:href="#CMR17-30" transform="scale(0.996264)"/>
      </g>
     </g>
    </g>
    <g id="xtick_2">
     <g id="line2d_3">
      <g>
       <use xlink:href="#m21d48877d2" x="107.751279" y="239.759962" style="fill: #262626; stroke: #262626; stroke-width: 0.8"/>
      </g>
     </g>
     <g id="text_2">
      <!-- $\mathdefault{25}$ -->
      <g style="fill: #262626" transform="translate(102.271812 256.870309)scale(0.11 -0.11)">
       <defs>
        <path id="CMR17-32" d="M 2669 990 
L 2554 990 
C 2490 537 2438 460 2413 422 
C 2381 371 1920 371 1830 371 
L 602 371 
C 832 620 1280 1073 1824 1596 
C 2214 1966 2669 2400 2669 3033 
C 2669 3788 2067 4224 1395 4224 
C 691 4224 262 3603 262 3027 
C 262 2777 448 2745 525 2745 
C 589 2745 781 2783 781 3007 
C 781 3206 614 3264 525 3264 
C 486 3264 448 3257 422 3244 
C 544 3788 915 4057 1306 4057 
C 1862 4057 2227 3616 2227 3033 
C 2227 2477 1901 1998 1536 1583 
L 262 147 
L 262 0 
L 2515 0 
L 2669 990 
z
" transform="scale(0.015625)"/>
        <path id="CMR17-35" d="M 730 3750 
C 794 3724 1056 3641 1325 3641 
C 1920 3641 2246 3961 2432 4140 
C 2432 4191 2432 4224 2394 4224 
C 2387 4224 2374 4224 2323 4198 
C 2099 4102 1837 4032 1517 4032 
C 1325 4032 1037 4055 723 4191 
C 653 4224 640 4224 634 4224 
C 602 4224 595 4217 595 4090 
L 595 2231 
C 595 2113 595 2080 659 2080 
C 691 2080 704 2093 736 2139 
C 941 2435 1222 2560 1542 2560 
C 1766 2560 2246 2415 2246 1293 
C 2246 1087 2246 716 2054 422 
C 1894 159 1645 25 1370 25 
C 947 25 518 319 403 812 
C 429 806 480 793 506 793 
C 589 793 749 838 749 1036 
C 749 1209 627 1280 506 1280 
C 358 1280 262 1190 262 1011 
C 262 454 704 -128 1382 -128 
C 2042 -128 2669 441 2669 1267 
C 2669 2054 2170 2662 1549 2662 
C 1222 2662 947 2540 730 2304 
L 730 3750 
z
" transform="scale(0.015625)"/>
       </defs>
       <use xlink:href="#CMR17-32" transform="scale(0.996264)"/>
       <use xlink:href="#CMR17-35" transform="translate(45.690477 0)scale(0.996264)"/>
      </g>
     </g>
    </g>
    <g id="xtick_3">
     <g id="line2d_4">
      <g>
       <use xlink:href="#m21d48877d2" x="149.136588" y="239.759962" style="fill: #262626; stroke: #262626; stroke-width: 0.8"/>
      </g>
     </g>
     <g id="text_3">
      <!-- $\mathdefault{50}$ -->
      <g style="fill: #262626" transform="translate(143.657121 256.870309)scale(0.11 -0.11)">
       <use xlink:href="#CMR17-35" transform="scale(0.996264)"/>
       <use xlink:href="#CMR17-30" transform="translate(45.690477 0)scale(0.996264)"/>
      </g>
     </g>
    </g>
    <g id="xtick_4">
     <g id="line2d_5">
      <g>
       <use xlink:href="#m21d48877d2" x="190.521897" y="239.759962" style="fill: #262626; stroke: #262626; stroke-width: 0.8"/>
      </g>
     </g>
     <g id="text_4">
      <!-- $\mathdefault{75}$ -->
      <g style="fill: #262626" transform="translate(185.042429 256.870309)scale(0.11 -0.11)">
       <defs>
        <path id="CMR17-37" d="M 2886 3955 
L 2886 4096 
L 1382 4096 
C 634 4096 621 4166 595 4288 
L 480 4288 
L 294 3104 
L 410 3104 
C 429 3226 474 3552 550 3673 
C 589 3724 1062 3724 1171 3724 
L 2579 3724 
L 1869 2670 
C 1395 1961 1069 1003 1069 166 
C 1069 89 1069 -128 1299 -128 
C 1530 -128 1530 89 1530 172 
L 1530 466 
C 1530 1514 1709 2204 2003 2644 
L 2886 3955 
z
" transform="scale(0.015625)"/>
       </defs>
       <use xlink:href="#CMR17-37" transform="scale(0.996264)"/>
       <use xlink:href="#CMR17-35" transform="translate(45.690477 0)scale(0.996264)"/>
      </g>
     </g>
    </g>
    <g id="xtick_5">
     <g id="line2d_6">
      <g>
       <use xlink:href="#m21d48877d2" x="231.907205" y="239.759962" style="fill: #262626; stroke: #262626; stroke-width: 0.8"/>
      </g>
     </g>
     <g id="text_5">
      <!-- $\mathdefault{100}$ -->
      <g style="fill: #262626" transform="translate(223.688004 256.870309)scale(0.11 -0.11)">
       <defs>
        <path id="CMR17-31" d="M 1702 4083 
C 1702 4217 1696 4224 1606 4224 
C 1357 3927 979 3833 621 3820 
C 602 3820 570 3820 563 3808 
C 557 3795 557 3782 557 3648 
C 755 3648 1088 3686 1344 3839 
L 1344 467 
C 1344 243 1331 166 781 166 
L 589 166 
L 589 0 
C 896 6 1216 12 1523 12 
C 1830 12 2150 6 2458 0 
L 2458 166 
L 2266 166 
C 1715 166 1702 236 1702 467 
L 1702 4083 
z
" transform="scale(0.015625)"/>
       </defs>
       <use xlink:href="#CMR17-31" transform="scale(0.996264)"/>
       <use xlink:href="#CMR17-30" transform="translate(45.690477 0)scale(0.996264)"/>
       <use xlink:href="#CMR17-30" transform="translate(91.380954 0)scale(0.996264)"/>
      </g>
     </g>
    </g>
   </g>
   <g id="matplotlib.axis_2">
    <g id="ytick_1">
     <g id="line2d_7">
      <path d="M 66.365971 215.63264 
L 238.528855 215.63264 
" clip-path="url(#p4bf17e215d)" style="fill: none; stroke: #cccccc; stroke-width: 0.8; stroke-linecap: round"/>
     </g>
     <g id="line2d_8">
      <defs>
       <path id="mec5228de5f" d="M 0 0 
L -6 0 
" style="stroke: #262626; stroke-width: 0.8"/>
      </defs>
      <g>
       <use xlink:href="#mec5228de5f" x="66.365971" y="215.63264" style="fill: #262626; stroke: #262626; stroke-width: 0.8"/>
      </g>
     </g>
     <g id="text_6">
      <!-- $-15\%$ -->
      <g style="fill: #262626" transform="translate(28.250987 219.437813)scale(0.11 -0.11)">
       <defs>
        <path id="CMSY10-0" d="M 4218 1472 
C 4326 1472 4442 1472 4442 1600 
C 4442 1728 4326 1728 4218 1728 
L 755 1728 
C 646 1728 531 1728 531 1600 
C 531 1472 646 1472 755 1472 
L 4218 1472 
z
" transform="scale(0.015625)"/>
        <path id="CMR17-25" d="M 4640 928 
C 4640 1670 4275 2214 3846 2214 
C 3411 2214 2970 1708 2970 928 
C 2970 147 3405 -359 3846 -359 
C 4275 -359 4640 179 4640 928 
z
M 3853 -256 
C 3686 -256 3270 -103 3270 928 
C 3270 1964 3686 2112 3853 2112 
C 4205 2112 4525 1606 4525 928 
C 4525 249 4205 -256 3853 -256 
z
M 4083 4572 
C 4128 4644 4134 4651 4134 4684 
C 4134 4761 4077 4800 4026 4800 
C 3962 4800 3936 4755 3891 4703 
C 3520 4155 3008 4096 2746 4096 
C 2106 4096 1715 4479 1594 4598 
C 1510 4677 1389 4800 1171 4800 
C 736 4800 294 4281 294 3496 
C 294 2718 730 2214 1171 2214 
C 1600 2214 1965 2750 1965 3496 
C 1965 3936 1830 4241 1811 4281 
C 2202 4025 2586 3993 2752 3993 
C 3162 3993 3456 4148 3616 4261 
L 3622 4254 
L 858 -122 
C 800 -212 800 -224 800 -244 
C 800 -314 858 -359 915 -359 
C 973 -359 992 -327 1037 -256 
L 4083 4572 
z
M 1178 2316 
C 1011 2316 595 2469 595 3496 
C 595 4545 1011 4697 1178 4697 
C 1530 4697 1850 4175 1850 3496 
C 1850 2820 1530 2316 1178 2316 
z
" transform="scale(0.015625)"/>
       </defs>
       <use xlink:href="#CMSY10-0" transform="scale(0.996264)"/>
       <use xlink:href="#CMR17-31" transform="translate(77.487468 0)scale(0.996264)"/>
       <use xlink:href="#CMR17-35" transform="translate(123.177945 0)scale(0.996264)"/>
       <use xlink:href="#CMR17-25" transform="translate(168.868422 0)scale(0.996264)"/>
      </g>
     </g>
    </g>
    <g id="ytick_2">
     <g id="line2d_9">
      <path d="M 66.365971 185.473487 
L 238.528855 185.473487 
" clip-path="url(#p4bf17e215d)" style="fill: none; stroke: #cccccc; stroke-width: 0.8; stroke-linecap: round"/>
     </g>
     <g id="line2d_10">
      <g>
       <use xlink:href="#mec5228de5f" x="66.365971" y="185.473487" style="fill: #262626; stroke: #262626; stroke-width: 0.8"/>
      </g>
     </g>
     <g id="text_7">
      <!-- $-10\%$ -->
      <g style="fill: #262626" transform="translate(28.250987 189.27866)scale(0.11 -0.11)">
       <use xlink:href="#CMSY10-0" transform="scale(0.996264)"/>
       <use xlink:href="#CMR17-31" transform="translate(77.487468 0)scale(0.996264)"/>
       <use xlink:href="#CMR17-30" transform="translate(123.177945 0)scale(0.996264)"/>
       <use xlink:href="#CMR17-25" transform="translate(168.868422 0)scale(0.996264)"/>
      </g>
     </g>
    </g>
    <g id="ytick_3">
     <g id="line2d_11">
      <path d="M 66.365971 155.314334 
L 238.528855 155.314334 
" clip-path="url(#p4bf17e215d)" style="fill: none; stroke: #cccccc; stroke-width: 0.8; stroke-linecap: round"/>
     </g>
     <g id="line2d_12">
      <g>
       <use xlink:href="#mec5228de5f" x="66.365971" y="155.314334" style="fill: #262626; stroke: #262626; stroke-width: 0.8"/>
      </g>
     </g>
     <g id="text_8">
      <!-- $-5\%$ -->
      <g style="fill: #262626" transform="translate(33.730454 159.119507)scale(0.11 -0.11)">
       <use xlink:href="#CMSY10-0" transform="scale(0.996264)"/>
       <use xlink:href="#CMR17-35" transform="translate(77.487468 0)scale(0.996264)"/>
       <use xlink:href="#CMR17-25" transform="translate(123.177945 0)scale(0.996264)"/>
      </g>
     </g>
    </g>
    <g id="ytick_4">
     <g id="line2d_13">
      <path d="M 66.365971 125.155181 
L 238.528855 125.155181 
" clip-path="url(#p4bf17e215d)" style="fill: none; stroke: #cccccc; stroke-width: 0.8; stroke-linecap: round"/>
     </g>
     <g id="line2d_14">
      <g>
       <use xlink:href="#mec5228de5f" x="66.365971" y="125.155181" style="fill: #262626; stroke: #262626; stroke-width: 0.8"/>
      </g>
     </g>
     <g id="text_9">
      <!-- $0\%$ -->
      <g style="fill: #262626" transform="translate(42.254063 128.960354)scale(0.11 -0.11)">
       <use xlink:href="#CMR17-30" transform="scale(0.996264)"/>
       <use xlink:href="#CMR17-25" transform="translate(45.690477 0)scale(0.996264)"/>
      </g>
     </g>
    </g>
    <g id="ytick_5">
     <g id="line2d_15">
      <path d="M 66.365971 94.996028 
L 238.528855 94.996028 
" clip-path="url(#p4bf17e215d)" style="fill: none; stroke: #cccccc; stroke-width: 0.8; stroke-linecap: round"/>
     </g>
     <g id="line2d_16">
      <g>
       <use xlink:href="#mec5228de5f" x="66.365971" y="94.996028" style="fill: #262626; stroke: #262626; stroke-width: 0.8"/>
      </g>
     </g>
     <g id="text_10">
      <!-- $5\%$ -->
      <g style="fill: #262626" transform="translate(42.254063 98.801201)scale(0.11 -0.11)">
       <use xlink:href="#CMR17-35" transform="scale(0.996264)"/>
       <use xlink:href="#CMR17-25" transform="translate(45.690477 0)scale(0.996264)"/>
      </g>
     </g>
    </g>
    <g id="ytick_6">
     <g id="line2d_17">
      <path d="M 66.365971 64.836875 
L 238.528855 64.836875 
" clip-path="url(#p4bf17e215d)" style="fill: none; stroke: #cccccc; stroke-width: 0.8; stroke-linecap: round"/>
     </g>
     <g id="line2d_18">
      <g>
       <use xlink:href="#mec5228de5f" x="66.365971" y="64.836875" style="fill: #262626; stroke: #262626; stroke-width: 0.8"/>
      </g>
     </g>
     <g id="text_11">
      <!-- $10\%$ -->
      <g style="fill: #262626" transform="translate(36.774596 68.642049)scale(0.11 -0.11)">
       <use xlink:href="#CMR17-31" transform="scale(0.996264)"/>
       <use xlink:href="#CMR17-30" transform="translate(45.690477 0)scale(0.996264)"/>
       <use xlink:href="#CMR17-25" transform="translate(91.380954 0)scale(0.996264)"/>
      </g>
     </g>
    </g>
    <g id="ytick_7">
     <g id="line2d_19">
      <path d="M 66.365971 34.677722 
L 238.528855 34.677722 
" clip-path="url(#p4bf17e215d)" style="fill: none; stroke: #cccccc; stroke-width: 0.8; stroke-linecap: round"/>
     </g>
     <g id="line2d_20">
      <g>
       <use xlink:href="#mec5228de5f" x="66.365971" y="34.677722" style="fill: #262626; stroke: #262626; stroke-width: 0.8"/>
      </g>
     </g>
     <g id="text_12">
      <!-- $15\%$ -->
      <g style="fill: #262626" transform="translate(36.774596 38.482896)scale(0.11 -0.11)">
       <use xlink:href="#CMR17-31" transform="scale(0.996264)"/>
       <use xlink:href="#CMR17-35" transform="translate(45.690477 0)scale(0.996264)"/>
       <use xlink:href="#CMR17-25" transform="translate(91.380954 0)scale(0.996264)"/>
      </g>
     </g>
    </g>
    <g id="text_13">
     <!-- \textbf{Margin \%} -->
     <g style="fill: #262626" transform="translate(21.926376 161.741146)rotate(-90)scale(0.12 -0.12)">
      <defs>
       <path id="CMSSBX10-4d" d="M 3552 2080 
C 3418 1756 3181 1171 3130 948 
L 3123 948 
C 3066 1177 2803 1807 2669 2144 
L 1850 4154 
C 1741 4416 1536 4416 1421 4416 
L 890 4416 
C 659 4416 582 4345 582 4109 
L 582 306 
C 582 76 653 0 890 0 
L 1062 0 
C 1306 0 1370 83 1370 306 
L 1370 3594 
L 1376 3594 
C 1446 3308 1734 2602 1888 2226 
L 2630 414 
C 2746 140 2899 140 3117 140 
C 3334 140 3488 140 3603 414 
L 4422 2411 
C 4486 2564 4832 3429 4877 3594 
L 4883 3594 
L 4883 306 
C 4883 102 4928 0 5190 0 
L 5363 0 
C 5606 0 5670 83 5670 306 
L 5670 4109 
C 5670 4313 5626 4416 5363 4416 
L 4826 4416 
C 4666 4416 4506 4403 4397 4141 
L 3552 2080 
z
" transform="scale(0.015625)"/>
       <path id="CMSSBX10-61" d="M 2970 2047 
C 2970 3065 1997 3072 1677 3072 
C 1376 3072 1056 3046 627 2867 
C 493 2809 461 2790 461 2719 
C 461 2675 499 2300 506 2248 
C 512 2209 544 2177 589 2177 
C 621 2177 640 2196 659 2215 
C 934 2507 1254 2649 1651 2649 
C 1997 2649 2099 2436 2099 2054 
L 2099 1827 
C 1875 1827 198 1814 198 862 
C 198 409 557 -64 1120 -64 
C 1338 -64 1818 0 2118 442 
L 2118 313 
C 2118 108 2163 6 2426 6 
L 2662 6 
C 2906 6 2970 89 2970 313 
L 2970 2047 
z
M 2099 998 
C 2099 396 1491 396 1472 396 
C 1203 396 1030 629 1030 875 
C 1030 1510 1920 1555 2099 1562 
L 2099 998 
z
" transform="scale(0.015625)"/>
       <path id="CMSSBX10-72" d="M 1242 1456 
C 1242 2057 1747 2304 2150 2329 
C 2266 2335 2278 2335 2278 2502 
L 2278 2803 
C 2278 2931 2278 2976 2163 2976 
C 1984 2976 1517 2911 1216 2222 
L 1210 2222 
L 1210 2636 
C 1210 2841 1165 2944 902 2944 
L 698 2944 
C 467 2944 390 2873 390 2636 
L 390 305 
C 390 76 461 0 698 0 
L 934 0 
C 1178 0 1242 83 1242 305 
L 1242 1456 
z
" transform="scale(0.015625)"/>
       <path id="CMSSBX10-67" d="M 1280 569 
C 1050 569 960 569 870 651 
C 845 678 736 780 736 953 
C 736 998 742 1011 749 1049 
C 1050 883 1427 883 1562 883 
C 1830 883 2848 883 2848 1942 
C 2848 2315 2707 2540 2650 2611 
C 2758 2611 2982 2611 3245 2540 
C 3270 2527 3315 2514 3334 2514 
C 3386 2514 3418 2553 3418 2598 
C 3418 2623 3386 2777 3373 2841 
C 3347 2995 3347 3008 3232 3008 
C 3034 3008 2714 2931 2470 2783 
C 2170 2982 1837 3008 1562 3008 
C 1293 3008 275 3008 275 1948 
C 275 1691 346 1369 589 1158 
C 416 921 416 658 416 624 
C 416 499 454 288 589 115 
C 493 76 160 -39 160 -451 
C 160 -651 256 -986 659 -1172 
C 1024 -1338 1453 -1344 1754 -1344 
C 2131 -1344 3354 -1344 3354 -432 
C 3354 569 2451 569 1587 569 
L 1280 569 
z
M 1562 1344 
C 1114 1344 1094 1588 1094 1942 
C 1094 2296 1114 2547 1562 2547 
C 2010 2547 2029 2302 2029 1948 
C 2029 1594 2010 1344 1562 1344 
z
M 1907 -128 
C 2426 -128 2694 -219 2694 -451 
C 2694 -884 1965 -884 1760 -884 
C 1504 -884 819 -884 819 -432 
C 819 -128 1018 -128 1165 -128 
L 1907 -128 
z
" transform="scale(0.015625)"/>
       <path id="CMSSBX10-69" d="M 653 4480 
C 448 4480 346 4441 346 4185 
L 346 3891 
C 346 3686 410 3603 646 3603 
L 979 3603 
C 1286 3603 1286 3737 1286 4038 
C 1286 4345 1286 4480 979 4480 
L 653 4480 
z
M 1242 2635 
C 1242 2841 1197 2944 934 2944 
L 698 2944 
C 467 2944 390 2873 390 2635 
L 390 308 
C 390 76 461 0 698 0 
L 934 0 
C 1178 0 1242 83 1242 308 
L 1242 2635 
z
" transform="scale(0.015625)"/>
       <path id="CMSSBX10-6e" d="M 3200 2085 
C 3200 2745 2918 3008 2266 3008 
C 1594 3008 1306 2521 1222 2348 
L 1216 2348 
L 1216 2668 
C 1216 2873 1171 2975 909 2975 
L 691 2975 
C 461 2975 384 2905 384 2668 
L 384 307 
C 384 76 454 0 691 0 
L 947 0 
C 1190 0 1254 83 1254 307 
L 1254 1725 
C 1254 2284 1626 2547 1958 2547 
C 2266 2547 2330 2399 2330 2072 
L 2330 307 
C 2330 102 2374 0 2637 0 
L 2893 0 
C 3136 0 3200 83 3200 307 
L 3200 2085 
z
" transform="scale(0.015625)"/>
       <path id="CMSSBX10-25" d="M 5235 4332 
C 5312 4435 5312 4511 5312 4531 
C 5312 4671 5197 4800 5043 4800 
C 4909 4800 4838 4703 4806 4665 
L 1370 83 
C 1325 19 1286 -26 1286 -116 
C 1286 -263 1408 -384 1555 -384 
C 1690 -384 1760 -295 1792 -250 
L 5235 4332 
z
M 6189 918 
C 6189 1466 6042 2227 5043 2227 
C 4288 2227 3878 1804 3878 924 
C 3878 318 4070 -384 5043 -384 
C 5920 -384 6189 207 6189 918 
z
M 5037 76 
C 4646 76 4646 520 4646 924 
C 4646 1322 4646 1766 5037 1766 
C 5459 1766 5459 1133 5459 924 
C 5459 709 5459 76 5037 76 
z
M 2701 3510 
C 2701 4045 2554 4800 1555 4800 
C 800 4800 390 4377 390 3516 
C 390 2923 582 2227 1555 2227 
C 2432 2227 2701 2815 2701 3510 
z
M 1549 2688 
C 1158 2688 1158 3121 1158 3510 
C 1158 3905 1158 4339 1549 4339 
C 1971 4339 1971 3720 1971 3516 
C 1971 3306 1971 2688 1549 2688 
z
" transform="scale(0.015625)"/>
      </defs>
      <use xlink:href="#CMSSBX10-4d" transform="scale(0.996264)"/>
      <use xlink:href="#CMSSBX10-61" transform="translate(97.413021 0)scale(0.996264)"/>
      <use xlink:href="#CMSSBX10-72" transform="translate(146.67306 0)scale(0.996264)"/>
      <use xlink:href="#CMSSBX10-67" transform="translate(183.75647 0)scale(0.996264)"/>
      <use xlink:href="#CMSSBX10-69" transform="translate(238.551294 0)scale(0.996264)"/>
      <use xlink:href="#CMSSBX10-6e" transform="translate(264.011513 0)scale(0.996264)"/>
      <use xlink:href="#CMSSBX10-25" transform="translate(356.443184 0)scale(0.996264)"/>
     </g>
    </g>
   </g>
   <g id="line2d_21">
    <path d="M 74.643033 40.80757 
L 76.298445 42.813154 
L 77.953857 44.818737 
L 79.60927 46.824321 
L 81.264682 48.829905 
L 82.920094 50.835488 
L 84.575507 52.841072 
L 86.230919 54.846656 
L 87.886331 56.852239 
L 89.541744 58.857823 
L 91.197156 60.863407 
L 92.852568 62.86899 
L 94.507981 64.874574 
L 96.163393 66.880158 
L 97.818805 68.885741 
L 99.474218 70.891325 
L 101.12963 72.896909 
L 102.785042 74.902492 
L 104.440455 76.908076 
L 106.095867 78.91366 
L 107.751279 80.919243 
L 109.406692 82.924827 
L 111.062104 84.930411 
L 112.717516 86.935995 
L 114.372929 88.941578 
L 116.028341 90.947162 
L 117.683754 92.952746 
L 119.339166 94.958329 
L 120.994578 96.963913 
L 122.649991 98.969497 
L 124.305403 100.97508 
L 125.960815 102.980664 
L 127.616228 104.986248 
L 129.27164 106.991831 
L 130.927052 108.997415 
L 132.582465 111.002999 
L 134.237877 113.008582 
L 135.893289 115.014166 
L 137.548702 117.01975 
L 139.204114 119.025333 
L 140.859526 121.030917 
L 142.514939 123.036501 
L 144.170351 125.042084 
L 145.825763 127.047668 
L 147.481176 129.053252 
L 149.136588 131.058835 
L 150.792 133.064419 
L 152.447413 135.070003 
L 154.102825 137.075586 
L 155.758237 139.08117 
L 157.41365 141.086754 
L 159.069062 143.092337 
L 160.724474 145.097921 
L 162.379887 147.103505 
L 164.035299 149.109088 
L 165.690711 151.114672 
L 167.346124 153.120256 
L 169.001536 155.125839 
L 170.656948 157.131423 
L 172.312361 159.137007 
L 173.967773 161.14259 
L 175.623186 163.148174 
L 177.278598 165.153758 
L 178.93401 167.159341 
L 180.589423 169.164925 
L 182.244835 171.170509 
L 183.900247 173.176092 
L 185.55566 175.181676 
L 187.211072 177.18726 
L 188.866484 179.192843 
L 190.521897 181.198427 
L 192.177309 183.204011 
L 193.832721 185.209594 
L 195.488134 187.215178 
L 197.143546 189.220762 
L 198.798958 191.226345 
L 200.454371 193.231929 
L 202.109783 195.237513 
L 203.765195 197.243096 
L 205.420608 199.24868 
L 207.07602 201.254264 
L 208.731432 203.259847 
L 210.386845 205.265431 
L 212.042257 207.271015 
L 213.697669 209.276598 
L 215.353082 211.282182 
L 217.008494 213.287766 
L 218.663906 215.293349 
L 220.319319 217.298933 
L 221.974731 219.304517 
L 223.630143 221.3101 
L 225.285556 223.315684 
L 226.940968 225.321268 
L 228.59638 227.326851 
L 230.251793 229.332435 
L 231.907205 231.338019 
" clip-path="url(#p4bf17e215d)" style="fill: none; stroke: #207720; stroke-width: 1.5; stroke-linecap: round"/>
   </g>
   <g id="line2d_22">
    <path d="M 74.643033 36.962278 
L 76.298445 38.063087 
L 77.953857 39.163896 
L 79.60927 40.264705 
L 81.264682 41.365514 
L 82.920094 42.466323 
L 84.575507 43.567133 
L 86.230919 44.667942 
L 87.886331 45.768751 
L 89.541744 46.86956 
L 91.197156 47.970369 
L 92.852568 49.071178 
L 94.507981 50.171987 
L 96.163393 51.272796 
L 97.818805 52.373605 
L 99.474218 53.474414 
L 101.12963 54.575223 
L 102.785042 55.676032 
L 104.440455 56.776842 
L 106.095867 57.877651 
L 107.751279 58.97846 
L 109.406692 60.079269 
L 111.062104 61.180078 
L 112.717516 62.280887 
L 114.372929 63.381696 
L 116.028341 64.482505 
L 117.683754 65.583314 
L 119.339166 66.684123 
L 120.994578 67.784932 
L 122.649991 68.885741 
L 124.305403 69.986551 
L 125.960815 71.08736 
L 127.616228 72.188169 
L 129.27164 73.288978 
L 130.927052 74.389787 
L 132.582465 75.490596 
L 134.237877 76.591405 
L 135.893289 77.692214 
L 137.548702 78.793023 
L 139.204114 79.893832 
L 140.859526 80.994641 
L 142.514939 82.09545 
L 144.170351 83.19626 
L 145.825763 84.297069 
L 147.481176 85.397878 
L 149.136588 86.498687 
L 150.792 87.599496 
L 152.447413 88.700305 
L 154.102825 89.801114 
L 155.758237 90.901923 
L 157.41365 92.002732 
L 159.069062 93.103541 
L 160.724474 94.20435 
L 162.379887 95.305159 
L 164.035299 96.405969 
L 165.690711 97.506778 
L 167.346124 98.607587 
L 169.001536 99.708396 
L 170.656948 100.809205 
L 172.312361 101.910014 
L 173.967773 103.010823 
L 175.623186 104.111632 
L 177.278598 105.212441 
L 178.93401 106.31325 
L 180.589423 107.414059 
L 182.244835 108.514868 
L 183.900247 109.615678 
L 185.55566 110.716487 
L 187.211072 111.817296 
L 188.866484 112.918105 
L 190.521897 114.018914 
L 192.177309 115.119723 
L 193.832721 116.220532 
L 195.488134 117.321341 
L 197.143546 118.42215 
L 198.798958 119.522959 
L 200.454371 120.623768 
L 202.109783 121.724577 
L 203.765195 122.825387 
L 205.420608 123.926196 
L 207.07602 125.027005 
L 208.731432 126.127814 
L 210.386845 127.228623 
L 212.042257 128.329432 
L 213.697669 129.430241 
L 215.353082 130.53105 
L 217.008494 131.631859 
L 218.663906 132.732668 
L 220.319319 133.833477 
L 221.974731 134.934286 
L 223.630143 136.035095 
L 225.285556 137.135905 
L 226.940968 138.236714 
L 228.59638 139.337523 
L 230.251793 140.438332 
L 231.907205 141.539141 
" clip-path="url(#p4bf17e215d)" style="fill: none; stroke: #234990; stroke-width: 1.5; stroke-linecap: round"/>
   </g>
   <g id="line2d_23">
    <path d="M 74.643033 42.345687 
L 76.298445 42.994109 
L 77.953857 43.64253 
L 79.60927 44.290952 
L 81.264682 44.939374 
L 82.920094 45.587796 
L 84.575507 46.236218 
L 86.230919 46.884639 
L 87.886331 47.533061 
L 89.541744 48.181483 
L 91.197156 48.829905 
L 92.852568 49.478327 
L 94.507981 50.126748 
L 96.163393 50.77517 
L 97.818805 51.423592 
L 99.474218 52.072014 
L 101.12963 52.720435 
L 102.785042 53.368857 
L 104.440455 54.017279 
L 106.095867 54.665701 
L 107.751279 55.314123 
L 109.406692 55.962544 
L 111.062104 56.610966 
L 112.717516 57.259388 
L 114.372929 57.90781 
L 116.028341 58.556232 
L 117.683754 59.204653 
L 119.339166 59.853075 
L 120.994578 60.501497 
L 122.649991 61.149919 
L 124.305403 61.798341 
L 125.960815 62.446762 
L 127.616228 63.095184 
L 129.27164 63.743606 
L 130.927052 64.392028 
L 132.582465 65.040449 
L 134.237877 65.688871 
L 135.893289 66.337293 
L 137.548702 66.985715 
L 139.204114 67.634137 
L 140.859526 68.282558 
L 142.514939 68.93098 
L 144.170351 69.579402 
L 145.825763 70.227824 
L 147.481176 70.876246 
L 149.136588 71.524667 
L 150.792 72.173089 
L 152.447413 72.821511 
L 154.102825 73.469933 
L 155.758237 74.118355 
L 157.41365 74.766776 
L 159.069062 75.415198 
L 160.724474 76.06362 
L 162.379887 76.712042 
L 164.035299 77.360463 
L 165.690711 78.008885 
L 167.346124 78.657307 
L 169.001536 79.305729 
L 170.656948 79.954151 
L 172.312361 80.602572 
L 173.967773 81.250994 
L 175.623186 81.899416 
L 177.278598 82.547838 
L 178.93401 83.19626 
L 180.589423 83.844681 
L 182.244835 84.493103 
L 183.900247 85.141525 
L 185.55566 85.789947 
L 187.211072 86.438368 
L 188.866484 87.08679 
L 190.521897 87.735212 
L 192.177309 88.383634 
L 193.832721 89.032056 
L 195.488134 89.680477 
L 197.143546 90.328899 
L 198.798958 90.977321 
L 200.454371 91.625743 
L 202.109783 92.274165 
L 203.765195 92.922586 
L 205.420608 93.571008 
L 207.07602 94.21943 
L 208.731432 94.867852 
L 210.386845 95.516274 
L 212.042257 96.164695 
L 213.697669 96.813117 
L 215.353082 97.461539 
L 217.008494 98.109961 
L 218.663906 98.758382 
L 220.319319 99.406804 
L 221.974731 100.055226 
L 223.630143 100.703648 
L 225.285556 101.35207 
L 226.940968 102.000491 
L 228.59638 102.648913 
L 230.251793 103.297335 
L 231.907205 103.945757 
" clip-path="url(#p4bf17e215d)" style="fill: none; stroke: #e23726; stroke-width: 1.5; stroke-linecap: round"/>
   </g>
   <g id="patch_3">
    <path d="M 66.365971 239.759962 
L 66.365971 28.645892 
" style="fill: none; stroke: #262626; stroke-width: 1.25; stroke-linejoin: miter; stroke-linecap: square"/>
   </g>
   <g id="patch_4">
    <path d="M 238.528855 239.759962 
L 238.528855 28.645892 
" style="fill: none; stroke: #262626; stroke-width: 1.25; stroke-linejoin: miter; stroke-linecap: square"/>
   </g>
   <g id="patch_5">
    <path d="M 66.365971 239.759962 
L 238.528855 239.759962 
" style="fill: none; stroke: #262626; stroke-width: 1.25; stroke-linejoin: miter; stroke-linecap: square"/>
   </g>
   <g id="patch_6">
    <path d="M 66.365971 28.645892 
L 238.528855 28.645892 
" style="fill: none; stroke: #262626; stroke-width: 1.25; stroke-linejoin: miter; stroke-linecap: square"/>
   </g>
   <g id="text_14">
    <!-- \textbf{Albstadt} -->
    <g style="fill: #262626" transform="translate(125.485615 22.645892)scale(0.14 -0.14)">
     <defs>
      <path id="CMSSBX10-41" d="M 3034 4142 
C 2938 4416 2752 4416 2624 4416 
L 2061 4416 
C 1933 4416 1747 4416 1651 4142 
L 301 299 
C 269 216 269 204 269 172 
C 269 0 429 0 518 0 
L 749 0 
C 864 0 1062 0 1152 255 
L 1402 960 
L 3174 960 
L 3392 350 
C 3469 128 3514 0 3821 0 
L 4166 0 
C 4256 0 4416 0 4416 172 
C 4416 204 4416 216 4384 299 
L 3034 4142 
z
M 2054 2858 
C 2150 3137 2234 3379 2285 3608 
L 2291 3608 
C 2323 3455 2323 3442 2374 3296 
L 2982 1510 
L 1594 1510 
L 2054 2858 
z
" transform="scale(0.015625)"/>
      <path id="CMSSBX10-6c" d="M 1242 4109 
C 1242 4313 1197 4416 934 4416 
L 698 4416 
C 467 4416 390 4345 390 4109 
L 390 306 
C 390 76 461 0 698 0 
L 934 0 
C 1178 0 1242 83 1242 306 
L 1242 4109 
z
" transform="scale(0.015625)"/>
      <path id="CMSSBX10-62" d="M 1242 4113 
C 1242 4313 1197 4416 934 4416 
L 698 4416 
C 467 4416 390 4345 390 4113 
L 390 313 
C 390 83 461 6 698 6 
L 954 6 
C 1062 6 1254 6 1261 256 
C 1555 -64 1882 -64 1984 -64 
C 3347 -64 3347 1164 3347 1484 
C 3347 1791 3347 3008 2144 3008 
C 1619 3008 1299 2713 1242 2649 
L 1242 4113 
z
M 1261 2323 
C 1344 2399 1536 2547 1830 2547 
C 2477 2547 2477 1958 2477 1478 
C 2477 1004 2477 396 1760 396 
C 1491 396 1331 556 1261 646 
L 1261 2323 
z
" transform="scale(0.015625)"/>
      <path id="CMSSBX10-73" d="M 2534 914 
C 2534 1277 2342 1503 2227 1607 
C 1971 1840 1747 1879 1478 1931 
C 1126 1995 870 2047 870 2300 
C 870 2565 1082 2617 1331 2617 
C 1760 2617 1990 2455 2157 2313 
C 2221 2248 2234 2248 2259 2248 
C 2323 2248 2336 2306 2342 2332 
C 2355 2384 2419 2745 2419 2777 
C 2419 2879 2080 2969 2010 2995 
C 1754 3065 1549 3072 1382 3072 
C 1094 3072 237 3072 237 2151 
C 237 1833 378 1639 550 1484 
C 774 1277 1024 1231 1389 1160 
C 1574 1128 1901 1069 1901 784 
C 1901 480 1651 435 1402 435 
C 1120 435 762 519 461 882 
C 429 914 410 933 371 933 
C 307 933 294 875 288 836 
C 275 746 198 377 198 313 
C 198 198 672 51 678 44 
C 1030 -64 1293 -64 1402 -64 
C 1728 -64 2534 -39 2534 914 
z
" transform="scale(0.015625)"/>
      <path id="CMSSBX10-74" d="M 1395 2483 
L 1965 2483 
C 2042 2483 2272 2483 2272 2713 
C 2272 2944 2042 2944 1965 2944 
L 1395 2944 
L 1395 3470 
C 1395 3673 1350 3776 1088 3776 
L 890 3776 
C 659 3776 582 3705 582 3470 
L 582 2944 
L 435 2944 
C 365 2944 128 2944 128 2713 
C 128 2483 358 2483 435 2483 
L 563 2483 
L 563 858 
C 563 211 794 -64 1235 -64 
C 1293 -64 1574 -64 1907 38 
C 2016 70 2387 185 2387 307 
C 2387 326 2374 371 2336 505 
C 2304 634 2291 672 2234 672 
C 2202 672 2195 666 2157 627 
C 2086 576 1914 435 1645 435 
C 1491 435 1395 544 1395 968 
L 1395 2483 
z
" transform="scale(0.015625)"/>
      <path id="CMSSBX10-64" d="M 3194 4113 
C 3194 4313 3149 4416 2886 4416 
L 2650 4416 
C 2406 4416 2342 4332 2342 4113 
L 2342 2687 
C 2054 2963 1734 3008 1536 3008 
C 237 3008 237 1779 237 1465 
C 237 1171 237 -64 1504 -64 
C 1773 -64 2048 12 2323 307 
C 2323 70 2413 6 2630 6 
L 2886 6 
C 3130 6 3194 89 3194 313 
L 3194 4113 
z
M 2323 806 
C 2323 697 2323 640 2138 512 
C 1978 409 1830 396 1754 396 
C 1107 396 1107 985 1107 1465 
C 1107 1945 1107 2547 1824 2547 
C 2010 2547 2182 2483 2323 2348 
L 2323 806 
z
" transform="scale(0.015625)"/>
     </defs>
     <use xlink:href="#CMSSBX10-41" transform="scale(0.996264)"/>
     <use xlink:href="#CMSSBX10-6c" transform="translate(73.059766 0)scale(0.996264)"/>
     <use xlink:href="#CMSSBX10-62" transform="translate(98.519985 0)scale(0.996264)"/>
     <use xlink:href="#CMSSBX10-73" transform="translate(154.421773 0)scale(0.996264)"/>
     <use xlink:href="#CMSSBX10-74" transform="translate(196.431138 0)scale(0.996264)"/>
     <use xlink:href="#CMSSBX10-61" transform="translate(236.697042 0)scale(0.996264)"/>
     <use xlink:href="#CMSSBX10-64" transform="translate(289.001237 0)scale(0.996264)"/>
     <use xlink:href="#CMSSBX10-74" transform="translate(344.903025 0)scale(0.996264)"/>
    </g>
   </g>
  </g>
  <g id="axes_2">
   <g id="patch_7">
    <path d="M 291.34384 239.759962 
L 463.506723 239.759962 
L 463.506723 28.645892 
L 291.34384 28.645892 
z
" style="fill: #ffffff"/>
   </g>
   <g id="line2d_24">
    <path d="M 291.34384 125.155181 
L 479.206725 125.155181 
" clip-path="url(#p4dbe2820fc)" style="fill: none; stroke: #000000; stroke-width: 1.3; stroke-linecap: round"/>
   </g>
   <g id="LineCollection_7">
    <path d="M 374.114457 239.759962 
L 374.114457 130.802482 
" clip-path="url(#p4dbe2820fc)" style="fill: none; stroke-dasharray: 4.81,2.08; stroke-dashoffset: 0; stroke: #808080; stroke-width: 1.3"/>
   </g>
   <g id="LineCollection_8">
    <path d="M 294.654664 130.802482 
L 374.114457 130.802482 
" clip-path="url(#p4dbe2820fc)" style="fill: none; stroke-dasharray: 4.81,2.08; stroke-dashoffset: 0; stroke: #808080; stroke-width: 1.3"/>
   </g>
   <g id="LineCollection_9">
    <path d="M 374.114457 239.759962 
L 374.114457 88.979277 
" clip-path="url(#p4dbe2820fc)" style="fill: none; stroke-dasharray: 4.81,2.08; stroke-dashoffset: 0; stroke: #808080; stroke-width: 1.3"/>
   </g>
   <g id="LineCollection_10">
    <path d="M 294.654664 88.979277 
L 374.114457 88.979277 
" clip-path="url(#p4dbe2820fc)" style="fill: none; stroke-dasharray: 4.81,2.08; stroke-dashoffset: 0; stroke: #808080; stroke-width: 1.3"/>
   </g>
   <g id="LineCollection_11">
    <path d="M 374.114457 239.759962 
L 374.114457 72.85167 
" clip-path="url(#p4dbe2820fc)" style="fill: none; stroke-dasharray: 4.81,2.08; stroke-dashoffset: 0; stroke: #808080; stroke-width: 1.3"/>
   </g>
   <g id="LineCollection_12">
    <path d="M 294.654664 72.85167 
L 374.114457 72.85167 
" clip-path="url(#p4dbe2820fc)" style="fill: none; stroke-dasharray: 4.81,2.08; stroke-dashoffset: 0; stroke: #808080; stroke-width: 1.3"/>
   </g>
   <g id="matplotlib.axis_3">
    <g id="xtick_6">
     <g id="line2d_25">
      <g>
       <use xlink:href="#m21d48877d2" x="291.34384" y="239.759962" style="fill: #262626; stroke: #262626; stroke-width: 0.8"/>
      </g>
     </g>
     <g id="text_15">
      <!-- $\mathdefault{0}$ -->
      <g style="fill: #262626" transform="translate(288.604106 256.870309)scale(0.11 -0.11)">
       <use xlink:href="#CMR17-30" transform="scale(0.996264)"/>
      </g>
     </g>
    </g>
    <g id="xtick_7">
     <g id="line2d_26">
      <g>
       <use xlink:href="#m21d48877d2" x="332.729148" y="239.759962" style="fill: #262626; stroke: #262626; stroke-width: 0.8"/>
      </g>
     </g>
     <g id="text_16">
      <!-- $\mathdefault{25}$ -->
      <g style="fill: #262626" transform="translate(327.249681 256.870309)scale(0.11 -0.11)">
       <use xlink:href="#CMR17-32" transform="scale(0.996264)"/>
       <use xlink:href="#CMR17-35" transform="translate(45.690477 0)scale(0.996264)"/>
      </g>
     </g>
    </g>
    <g id="xtick_8">
     <g id="line2d_27">
      <g>
       <use xlink:href="#m21d48877d2" x="374.114457" y="239.759962" style="fill: #262626; stroke: #262626; stroke-width: 0.8"/>
      </g>
     </g>
     <g id="text_17">
      <!-- $\mathdefault{50}$ -->
      <g style="fill: #262626" transform="translate(368.63499 256.870309)scale(0.11 -0.11)">
       <use xlink:href="#CMR17-35" transform="scale(0.996264)"/>
       <use xlink:href="#CMR17-30" transform="translate(45.690477 0)scale(0.996264)"/>
      </g>
     </g>
    </g>
    <g id="xtick_9">
     <g id="line2d_28">
      <g>
       <use xlink:href="#m21d48877d2" x="415.499765" y="239.759962" style="fill: #262626; stroke: #262626; stroke-width: 0.8"/>
      </g>
     </g>
     <g id="text_18">
      <!-- $\mathdefault{75}$ -->
      <g style="fill: #262626" transform="translate(410.020298 256.870309)scale(0.11 -0.11)">
       <use xlink:href="#CMR17-37" transform="scale(0.996264)"/>
       <use xlink:href="#CMR17-35" transform="translate(45.690477 0)scale(0.996264)"/>
      </g>
     </g>
    </g>
    <g id="xtick_10">
     <g id="line2d_29">
      <g>
       <use xlink:href="#m21d48877d2" x="456.885074" y="239.759962" style="fill: #262626; stroke: #262626; stroke-width: 0.8"/>
      </g>
     </g>
     <g id="text_19">
      <!-- $\mathdefault{100}$ -->
      <g style="fill: #262626" transform="translate(448.665873 256.870309)scale(0.11 -0.11)">
       <use xlink:href="#CMR17-31" transform="scale(0.996264)"/>
       <use xlink:href="#CMR17-30" transform="translate(45.690477 0)scale(0.996264)"/>
       <use xlink:href="#CMR17-30" transform="translate(91.380954 0)scale(0.996264)"/>
      </g>
     </g>
    </g>
   </g>
   <g id="matplotlib.axis_4">
    <g id="ytick_8">
     <g id="line2d_30">
      <path d="M 291.34384 215.63264 
L 463.506723 215.63264 
" clip-path="url(#p4dbe2820fc)" style="fill: none; stroke: #cccccc; stroke-width: 0.8; stroke-linecap: round"/>
     </g>
     <g id="line2d_31">
      <g>
       <use xlink:href="#mec5228de5f" x="291.34384" y="215.63264" style="fill: #262626; stroke: #262626; stroke-width: 0.8"/>
      </g>
     </g>
     <g id="text_20">
      <!-- $-15\%$ -->
      <g style="fill: #262626" transform="translate(253.228856 219.437813)scale(0.11 -0.11)">
       <use xlink:href="#CMSY10-0" transform="scale(0.996264)"/>
       <use xlink:href="#CMR17-31" transform="translate(77.487468 0)scale(0.996264)"/>
       <use xlink:href="#CMR17-35" transform="translate(123.177945 0)scale(0.996264)"/>
       <use xlink:href="#CMR17-25" transform="translate(168.868422 0)scale(0.996264)"/>
      </g>
     </g>
    </g>
    <g id="ytick_9">
     <g id="line2d_32">
      <path d="M 291.34384 185.473487 
L 463.506723 185.473487 
" clip-path="url(#p4dbe2820fc)" style="fill: none; stroke: #cccccc; stroke-width: 0.8; stroke-linecap: round"/>
     </g>
     <g id="line2d_33">
      <g>
       <use xlink:href="#mec5228de5f" x="291.34384" y="185.473487" style="fill: #262626; stroke: #262626; stroke-width: 0.8"/>
      </g>
     </g>
     <g id="text_21">
      <!-- $-10\%$ -->
      <g style="fill: #262626" transform="translate(253.228856 189.27866)scale(0.11 -0.11)">
       <use xlink:href="#CMSY10-0" transform="scale(0.996264)"/>
       <use xlink:href="#CMR17-31" transform="translate(77.487468 0)scale(0.996264)"/>
       <use xlink:href="#CMR17-30" transform="translate(123.177945 0)scale(0.996264)"/>
       <use xlink:href="#CMR17-25" transform="translate(168.868422 0)scale(0.996264)"/>
      </g>
     </g>
    </g>
    <g id="ytick_10">
     <g id="line2d_34">
      <path d="M 291.34384 155.314334 
L 463.506723 155.314334 
" clip-path="url(#p4dbe2820fc)" style="fill: none; stroke: #cccccc; stroke-width: 0.8; stroke-linecap: round"/>
     </g>
     <g id="line2d_35">
      <g>
       <use xlink:href="#mec5228de5f" x="291.34384" y="155.314334" style="fill: #262626; stroke: #262626; stroke-width: 0.8"/>
      </g>
     </g>
     <g id="text_22">
      <!-- $-5\%$ -->
      <g style="fill: #262626" transform="translate(258.708323 159.119507)scale(0.11 -0.11)">
       <use xlink:href="#CMSY10-0" transform="scale(0.996264)"/>
       <use xlink:href="#CMR17-35" transform="translate(77.487468 0)scale(0.996264)"/>
       <use xlink:href="#CMR17-25" transform="translate(123.177945 0)scale(0.996264)"/>
      </g>
     </g>
    </g>
    <g id="ytick_11">
     <g id="line2d_36">
      <path d="M 291.34384 125.155181 
L 463.506723 125.155181 
" clip-path="url(#p4dbe2820fc)" style="fill: none; stroke: #cccccc; stroke-width: 0.8; stroke-linecap: round"/>
     </g>
     <g id="line2d_37">
      <g>
       <use xlink:href="#mec5228de5f" x="291.34384" y="125.155181" style="fill: #262626; stroke: #262626; stroke-width: 0.8"/>
      </g>
     </g>
     <g id="text_23">
      <!-- $0\%$ -->
      <g style="fill: #262626" transform="translate(267.231932 128.960354)scale(0.11 -0.11)">
       <use xlink:href="#CMR17-30" transform="scale(0.996264)"/>
       <use xlink:href="#CMR17-25" transform="translate(45.690477 0)scale(0.996264)"/>
      </g>
     </g>
    </g>
    <g id="ytick_12">
     <g id="line2d_38">
      <path d="M 291.34384 94.996028 
L 463.506723 94.996028 
" clip-path="url(#p4dbe2820fc)" style="fill: none; stroke: #cccccc; stroke-width: 0.8; stroke-linecap: round"/>
     </g>
     <g id="line2d_39">
      <g>
       <use xlink:href="#mec5228de5f" x="291.34384" y="94.996028" style="fill: #262626; stroke: #262626; stroke-width: 0.8"/>
      </g>
     </g>
     <g id="text_24">
      <!-- $5\%$ -->
      <g style="fill: #262626" transform="translate(267.231932 98.801201)scale(0.11 -0.11)">
       <use xlink:href="#CMR17-35" transform="scale(0.996264)"/>
       <use xlink:href="#CMR17-25" transform="translate(45.690477 0)scale(0.996264)"/>
      </g>
     </g>
    </g>
    <g id="ytick_13">
     <g id="line2d_40">
      <path d="M 291.34384 64.836875 
L 463.506723 64.836875 
" clip-path="url(#p4dbe2820fc)" style="fill: none; stroke: #cccccc; stroke-width: 0.8; stroke-linecap: round"/>
     </g>
     <g id="line2d_41">
      <g>
       <use xlink:href="#mec5228de5f" x="291.34384" y="64.836875" style="fill: #262626; stroke: #262626; stroke-width: 0.8"/>
      </g>
     </g>
     <g id="text_25">
      <!-- $10\%$ -->
      <g style="fill: #262626" transform="translate(261.752465 68.642049)scale(0.11 -0.11)">
       <use xlink:href="#CMR17-31" transform="scale(0.996264)"/>
       <use xlink:href="#CMR17-30" transform="translate(45.690477 0)scale(0.996264)"/>
       <use xlink:href="#CMR17-25" transform="translate(91.380954 0)scale(0.996264)"/>
      </g>
     </g>
    </g>
    <g id="ytick_14">
     <g id="line2d_42">
      <path d="M 291.34384 34.677722 
L 463.506723 34.677722 
" clip-path="url(#p4dbe2820fc)" style="fill: none; stroke: #cccccc; stroke-width: 0.8; stroke-linecap: round"/>
     </g>
     <g id="line2d_43">
      <g>
       <use xlink:href="#mec5228de5f" x="291.34384" y="34.677722" style="fill: #262626; stroke: #262626; stroke-width: 0.8"/>
      </g>
     </g>
     <g id="text_26">
      <!-- $15\%$ -->
      <g style="fill: #262626" transform="translate(261.752465 38.482896)scale(0.11 -0.11)">
       <use xlink:href="#CMR17-31" transform="scale(0.996264)"/>
       <use xlink:href="#CMR17-35" transform="translate(45.690477 0)scale(0.996264)"/>
       <use xlink:href="#CMR17-25" transform="translate(91.380954 0)scale(0.996264)"/>
      </g>
     </g>
    </g>
   </g>
   <g id="line2d_44">
    <path d="M 299.620901 42.556801 
L 301.276314 44.562385 
L 302.931726 46.567968 
L 304.587139 48.573552 
L 306.242551 50.579136 
L 307.897963 52.584719 
L 309.553376 54.590303 
L 311.208788 56.595887 
L 312.8642 58.60147 
L 314.519613 60.607054 
L 316.175025 62.612638 
L 317.830437 64.618221 
L 319.48585 66.623805 
L 321.141262 68.629389 
L 322.796674 70.634972 
L 324.452087 72.640556 
L 326.107499 74.64614 
L 327.762911 76.651723 
L 329.418324 78.657307 
L 331.073736 80.662891 
L 332.729148 82.668474 
L 334.384561 84.674058 
L 336.039973 86.679642 
L 337.695385 88.685225 
L 339.350798 90.690809 
L 341.00621 92.696393 
L 342.661622 94.701976 
L 344.317035 96.70756 
L 345.972447 98.713144 
L 347.627859 100.718727 
L 349.283272 102.724311 
L 350.938684 104.729895 
L 352.594096 106.735478 
L 354.249509 108.741062 
L 355.904921 110.746646 
L 357.560333 112.752229 
L 359.215746 114.757813 
L 360.871158 116.763397 
L 362.52657 118.76898 
L 364.181983 120.774564 
L 365.837395 122.780148 
L 367.492808 124.785731 
L 369.14822 126.791315 
L 370.803632 128.796899 
L 372.459045 130.802482 
L 374.114457 132.808066 
L 375.769869 134.81365 
L 377.425282 136.819233 
L 379.080694 138.824817 
L 380.736106 140.830401 
L 382.391519 142.835984 
L 384.046931 144.841568 
L 385.702343 146.847152 
L 387.357756 148.852735 
L 389.013168 150.858319 
L 390.66858 152.863903 
L 392.323993 154.869487 
L 393.979405 156.87507 
L 395.634817 158.880654 
L 397.29023 160.886238 
L 398.945642 162.891821 
L 400.601054 164.897405 
L 402.256467 166.902989 
L 403.911879 168.908572 
L 405.567291 170.914156 
L 407.222704 172.91974 
L 408.878116 174.925323 
L 410.533528 176.930907 
L 412.188941 178.936491 
L 413.844353 180.942074 
L 415.499765 182.947658 
L 417.155178 184.953242 
L 418.81059 186.958825 
L 420.466002 188.964409 
L 422.121415 190.969993 
L 423.776827 192.975576 
L 425.43224 194.98116 
L 427.087652 196.986744 
L 428.743064 198.992327 
L 430.398477 200.997911 
L 432.053889 203.003495 
L 433.709301 205.009078 
L 435.364714 207.014662 
L 437.020126 209.020246 
L 438.675538 211.025829 
L 440.330951 213.031413 
L 441.986363 215.036997 
L 443.641775 217.04258 
L 445.297188 219.048164 
L 446.9526 221.053748 
L 448.608012 223.059331 
L 450.263425 225.064915 
L 451.918837 227.070499 
L 453.574249 229.076082 
L 455.229662 231.081666 
L 456.885074 233.08725 
" clip-path="url(#p4dbe2820fc)" style="fill: none; stroke: #207720; stroke-width: 1.5; stroke-linecap: round"/>
   </g>
   <g id="line2d_45">
    <path d="M 299.620901 40.543677 
L 301.276314 41.644487 
L 302.931726 42.745296 
L 304.587139 43.846105 
L 306.242551 44.946914 
L 307.897963 46.047723 
L 309.553376 47.148532 
L 311.208788 48.249341 
L 312.8642 49.35015 
L 314.519613 50.450959 
L 316.175025 51.551768 
L 317.830437 52.652577 
L 319.48585 53.753386 
L 321.141262 54.854196 
L 322.796674 55.955005 
L 324.452087 57.055814 
L 326.107499 58.156623 
L 327.762911 59.257432 
L 329.418324 60.358241 
L 331.073736 61.45905 
L 332.729148 62.559859 
L 334.384561 63.660668 
L 336.039973 64.761477 
L 337.695385 65.862286 
L 339.350798 66.963095 
L 341.00621 68.063905 
L 342.661622 69.164714 
L 344.317035 70.265523 
L 345.972447 71.366332 
L 347.627859 72.467141 
L 349.283272 73.56795 
L 350.938684 74.668759 
L 352.594096 75.769568 
L 354.249509 76.870377 
L 355.904921 77.971186 
L 357.560333 79.071995 
L 359.215746 80.172804 
L 360.871158 81.273614 
L 362.52657 82.374423 
L 364.181983 83.475232 
L 365.837395 84.576041 
L 367.492808 85.67685 
L 369.14822 86.777659 
L 370.803632 87.878468 
L 372.459045 88.979277 
L 374.114457 90.080086 
L 375.769869 91.180895 
L 377.425282 92.281704 
L 379.080694 93.382513 
L 380.736106 94.483323 
L 382.391519 95.584132 
L 384.046931 96.684941 
L 385.702343 97.78575 
L 387.357756 98.886559 
L 389.013168 99.987368 
L 390.66858 101.088177 
L 392.323993 102.188986 
L 393.979405 103.289795 
L 395.634817 104.390604 
L 397.29023 105.491413 
L 398.945642 106.592222 
L 400.601054 107.693032 
L 402.256467 108.793841 
L 403.911879 109.89465 
L 405.567291 110.995459 
L 407.222704 112.096268 
L 408.878116 113.197077 
L 410.533528 114.297886 
L 412.188941 115.398695 
L 413.844353 116.499504 
L 415.499765 117.600313 
L 417.155178 118.701122 
L 418.81059 119.801931 
L 420.466002 120.902741 
L 422.121415 122.00355 
L 423.776827 123.104359 
L 425.43224 124.205168 
L 427.087652 125.305977 
L 428.743064 126.406786 
L 430.398477 127.507595 
L 432.053889 128.608404 
L 433.709301 129.709213 
L 435.364714 130.810022 
L 437.020126 131.910831 
L 438.675538 133.01164 
L 440.330951 134.112449 
L 441.986363 135.213259 
L 443.641775 136.314068 
L 445.297188 137.414877 
L 446.9526 138.515686 
L 448.608012 139.616495 
L 450.263425 140.717304 
L 451.918837 141.818113 
L 453.574249 142.918922 
L 455.229662 144.019731 
L 456.885074 145.12054 
" clip-path="url(#p4dbe2820fc)" style="fill: none; stroke: #234990; stroke-width: 1.5; stroke-linecap: round"/>
   </g>
   <g id="line2d_46">
    <path d="M 299.620901 44.321111 
L 301.276314 44.969533 
L 302.931726 45.617955 
L 304.587139 46.266377 
L 306.242551 46.914799 
L 307.897963 47.56322 
L 309.553376 48.211642 
L 311.208788 48.860064 
L 312.8642 49.508486 
L 314.519613 50.156907 
L 316.175025 50.805329 
L 317.830437 51.453751 
L 319.48585 52.102173 
L 321.141262 52.750595 
L 322.796674 53.399016 
L 324.452087 54.047438 
L 326.107499 54.69586 
L 327.762911 55.344282 
L 329.418324 55.992704 
L 331.073736 56.641125 
L 332.729148 57.289547 
L 334.384561 57.937969 
L 336.039973 58.586391 
L 337.695385 59.234813 
L 339.350798 59.883234 
L 341.00621 60.531656 
L 342.661622 61.180078 
L 344.317035 61.8285 
L 345.972447 62.476921 
L 347.627859 63.125343 
L 349.283272 63.773765 
L 350.938684 64.422187 
L 352.594096 65.070609 
L 354.249509 65.71903 
L 355.904921 66.367452 
L 357.560333 67.015874 
L 359.215746 67.664296 
L 360.871158 68.312718 
L 362.52657 68.961139 
L 364.181983 69.609561 
L 365.837395 70.257983 
L 367.492808 70.906405 
L 369.14822 71.554827 
L 370.803632 72.203248 
L 372.459045 72.85167 
L 374.114457 73.500092 
L 375.769869 74.148514 
L 377.425282 74.796935 
L 379.080694 75.445357 
L 380.736106 76.093779 
L 382.391519 76.742201 
L 384.046931 77.390623 
L 385.702343 78.039044 
L 387.357756 78.687466 
L 389.013168 79.335888 
L 390.66858 79.98431 
L 392.323993 80.632732 
L 393.979405 81.281153 
L 395.634817 81.929575 
L 397.29023 82.577997 
L 398.945642 83.226419 
L 400.601054 83.87484 
L 402.256467 84.523262 
L 403.911879 85.171684 
L 405.567291 85.820106 
L 407.222704 86.468528 
L 408.878116 87.116949 
L 410.533528 87.765371 
L 412.188941 88.413793 
L 413.844353 89.062215 
L 415.499765 89.710637 
L 417.155178 90.359058 
L 418.81059 91.00748 
L 420.466002 91.655902 
L 422.121415 92.304324 
L 423.776827 92.952746 
L 425.43224 93.601167 
L 427.087652 94.249589 
L 428.743064 94.898011 
L 430.398477 95.546433 
L 432.053889 96.194854 
L 433.709301 96.843276 
L 435.364714 97.491698 
L 437.020126 98.14012 
L 438.675538 98.788542 
L 440.330951 99.436963 
L 441.986363 100.085385 
L 443.641775 100.733807 
L 445.297188 101.382229 
L 446.9526 102.030651 
L 448.608012 102.679072 
L 450.263425 103.327494 
L 451.918837 103.975916 
L 453.574249 104.624338 
L 455.229662 105.272759 
L 456.885074 105.921181 
" clip-path="url(#p4dbe2820fc)" style="fill: none; stroke: #e23726; stroke-width: 1.5; stroke-linecap: round"/>
   </g>
   <g id="patch_8">
    <path d="M 291.34384 239.759962 
L 291.34384 28.645892 
" style="fill: none; stroke: #262626; stroke-width: 1.25; stroke-linejoin: miter; stroke-linecap: square"/>
   </g>
   <g id="patch_9">
    <path d="M 463.506723 239.759962 
L 463.506723 28.645892 
" style="fill: none; stroke: #262626; stroke-width: 1.25; stroke-linejoin: miter; stroke-linecap: square"/>
   </g>
   <g id="patch_10">
    <path d="M 291.34384 239.759962 
L 463.506723 239.759962 
" style="fill: none; stroke: #262626; stroke-width: 1.25; stroke-linejoin: miter; stroke-linecap: square"/>
   </g>
   <g id="patch_11">
    <path d="M 291.34384 28.645892 
L 463.506723 28.645892 
" style="fill: none; stroke: #262626; stroke-width: 1.25; stroke-linejoin: miter; stroke-linecap: square"/>
   </g>
   <g id="text_27">
    <!-- \textbf{Wrzburg} -->
    <g style="fill: #262626" transform="translate(346.091239 22.645892)scale(0.14 -0.14)">
     <defs>
      <path id="CMSSBX10-57" d="M 6464 4109 
C 6490 4198 6490 4224 6490 4230 
C 6490 4416 6317 4416 6227 4416 
L 6093 4416 
C 5965 4416 5786 4416 5709 4135 
L 5030 1629 
C 4941 1304 4883 1094 4826 814 
L 4819 814 
C 4787 986 4787 999 4634 1559 
L 3942 4135 
C 3872 4383 3744 4416 3558 4416 
L 3136 4416 
C 3002 4416 2822 4416 2746 4135 
L 2182 2048 
L 2022 1419 
C 1952 1120 1901 916 1888 814 
L 1882 814 
C 1830 1145 1677 1705 1568 2106 
L 1018 4141 
C 941 4416 755 4416 634 4416 
L 416 4416 
C 326 4416 154 4416 154 4230 
C 154 4224 154 4198 179 4109 
L 1229 267 
C 1299 0 1478 0 1613 0 
L 2035 0 
C 2170 0 2349 0 2426 293 
L 3098 2780 
C 3194 3123 3238 3301 3302 3607 
L 3309 3607 
C 3386 3238 3424 3079 3539 2665 
L 4192 267 
C 4262 0 4442 0 4570 0 
L 5030 0 
C 5165 0 5344 0 5414 267 
L 6464 4109 
z
" transform="scale(0.015625)"/>
      <path id="CMSSBX10-7f" d="M 934 4480 
C 730 4480 627 4441 627 4185 
L 627 4038 
C 627 3801 717 3743 934 3743 
L 1222 3743 
C 1530 3743 1530 3903 1530 4108 
C 1530 4326 1530 4480 1222 4480 
L 934 4480 
z
M 2579 3743 
C 2784 3743 2886 3782 2886 4038 
L 2886 4185 
C 2886 4422 2797 4480 2579 4480 
L 2291 4480 
C 1984 4480 1984 4319 1984 4115 
C 1984 3897 1984 3743 2291 3743 
L 2579 3743 
z
" transform="scale(0.015625)"/>
      <path id="CMSSBX10-75" d="M 3200 2636 
C 3200 2841 3155 2944 2893 2944 
L 2637 2944 
C 2394 2944 2330 2860 2330 2636 
L 2330 1115 
C 2330 692 2106 326 1651 326 
C 1293 326 1254 416 1254 756 
L 1254 2636 
C 1254 2841 1210 2944 947 2944 
L 691 2944 
C 461 2944 384 2873 384 2636 
L 384 814 
C 384 128 755 -64 1421 -64 
C 1594 -64 2048 -64 2349 480 
L 2349 313 
C 2349 108 2394 6 2656 6 
L 2893 6 
C 3136 6 3200 89 3200 313 
L 3200 2636 
z
" transform="scale(0.015625)"/>
      <path id="CMSSBX10-7a" d="M 2726 2457 
C 2790 2540 2803 2572 2803 2675 
C 2803 2944 2605 2944 2496 2944 
L 602 2944 
C 518 2944 294 2944 294 2700 
C 294 2463 499 2463 672 2463 
C 877 2463 1395 2476 1600 2476 
L 1837 2476 
L 275 486 
C 211 403 198 371 198 268 
C 198 0 397 0 506 0 
L 2515 0 
C 2598 0 2822 0 2822 236 
C 2822 480 2624 480 2438 480 
C 2118 480 1779 467 1459 467 
L 1165 467 
L 2726 2457 
z
" transform="scale(0.015625)"/>
     </defs>
     <use xlink:href="#CMSSBX10-57" transform="scale(0.996264)"/>
     <use xlink:href="#CMSSBX10-7f" transform="translate(104.054817 0)scale(0.996264)"/>
     <use xlink:href="#CMSSBX10-75" transform="translate(103.501335 0)scale(0.996264)"/>
     <use xlink:href="#CMSSBX10-72" transform="translate(159.403123 0)scale(0.996264)"/>
     <use xlink:href="#CMSSBX10-7a" transform="translate(196.486534 0)scale(0.996264)"/>
     <use xlink:href="#CMSSBX10-62" transform="translate(243.94773 0)scale(0.996264)"/>
     <use xlink:href="#CMSSBX10-75" transform="translate(299.849518 0)scale(0.996264)"/>
     <use xlink:href="#CMSSBX10-72" transform="translate(355.751306 0)scale(0.996264)"/>
     <use xlink:href="#CMSSBX10-67" transform="translate(392.834716 0)scale(0.996264)"/>
    </g>
   </g>
  </g>
  <g id="text_28">
   <!-- \textbf{Items per Order} -->
   <g style="fill: #262626" transform="translate(195.146314 278.445998)scale(0.12 -0.12)">
    <defs>
     <path id="CMSSBX10-49" d="M 1530 4109 
C 1530 4313 1485 4416 1222 4416 
L 896 4416 
C 666 4416 589 4345 589 4109 
L 589 306 
C 589 76 659 0 896 0 
L 1222 0 
C 1466 0 1530 83 1530 306 
L 1530 4109 
z
" transform="scale(0.015625)"/>
     <path id="CMSSBX10-65" d="M 2758 1388 
C 2906 1388 3066 1395 3066 1683 
C 3066 2520 2682 3072 1728 3072 
C 704 3072 198 2494 198 1510 
C 198 448 806 -64 1811 -64 
C 2054 -64 2419 -32 2842 179 
C 2982 249 3027 268 3027 345 
C 3027 390 3008 578 3002 630 
C 2976 831 2970 837 2912 837 
C 2886 837 2874 837 2803 772 
C 2426 442 2042 396 1837 396 
C 1114 396 1037 973 1018 1388 
L 2758 1388 
z
M 1024 1728 
C 1043 2124 1171 2611 1728 2611 
C 2240 2611 2336 2234 2355 1728 
L 1024 1728 
z
" transform="scale(0.015625)"/>
     <path id="CMSSBX10-6d" d="M 5158 2059 
C 5158 2713 4877 2976 4224 2976 
C 3770 2976 3418 2764 3187 2344 
C 3085 2956 2541 2976 2272 2976 
C 2150 2976 1882 2976 1594 2764 
C 1395 2617 1267 2413 1222 2318 
L 1216 2318 
L 1216 2636 
C 1216 2841 1171 2944 909 2944 
L 691 2944 
C 461 2944 384 2873 384 2636 
L 384 305 
C 384 76 454 0 691 0 
L 947 0 
C 1190 0 1254 83 1254 305 
L 1254 1704 
C 1254 2274 1645 2515 1958 2515 
C 2266 2515 2336 2382 2336 2046 
L 2336 305 
C 2336 76 2406 0 2643 0 
L 2899 0 
C 3142 0 3206 83 3206 305 
L 3206 1704 
C 3206 2274 3597 2515 3910 2515 
C 4218 2515 4288 2382 4288 2046 
L 4288 305 
C 4288 76 4358 0 4595 0 
L 4851 0 
C 5094 0 5158 83 5158 305 
L 5158 2059 
z
" transform="scale(0.015625)"/>
     <path id="CMSSBX10-70" d="M 1261 256 
C 1549 -64 1901 -64 1990 -64 
C 3347 -64 3347 1164 3347 1484 
C 3347 1798 3347 3008 2189 3008 
C 1811 3008 1472 2854 1242 2636 
C 1242 2873 1152 2937 934 2937 
L 698 2937 
C 467 2937 390 2867 390 2630 
L 390 -912 
C 390 -1140 461 -1216 698 -1216 
L 954 -1216 
C 1197 -1216 1261 -1133 1261 -912 
L 1261 256 
z
M 1261 2297 
C 1331 2361 1542 2508 1818 2508 
C 2470 2508 2477 1753 2477 1471 
C 2477 1215 2477 396 1754 396 
C 1606 396 1491 448 1414 505 
C 1261 614 1261 646 1261 761 
L 1261 2297 
z
" transform="scale(0.015625)"/>
     <path id="CMSSBX10-4f" d="M 4685 2207 
C 4685 3498 4218 4608 2541 4608 
C 768 4608 390 3383 390 2207 
C 390 1006 806 -128 2534 -128 
C 4186 -128 4685 891 4685 2207 
z
M 2541 384 
C 1331 384 1331 1726 1331 2310 
C 1331 2875 1331 4108 2534 4108 
C 3744 4108 3744 2888 3744 2310 
C 3744 1739 3744 384 2541 384 
z
" transform="scale(0.015625)"/>
    </defs>
    <use xlink:href="#CMSSBX10-49" transform="scale(0.996264)"/>
    <use xlink:href="#CMSSBX10-74" transform="translate(32.932184 0)scale(0.996264)"/>
    <use xlink:href="#CMSSBX10-65" transform="translate(73.198087 0)scale(0.996264)"/>
    <use xlink:href="#CMSSBX10-6d" transform="translate(124.11854 0)scale(0.996264)"/>
    <use xlink:href="#CMSSBX10-73" transform="translate(210.461897 0)scale(0.996264)"/>
    <use xlink:href="#CMSSBX10-70" transform="translate(289.001146 0)scale(0.996264)"/>
    <use xlink:href="#CMSSBX10-65" transform="translate(347.947091 0)scale(0.996264)"/>
    <use xlink:href="#CMSSBX10-72" transform="translate(398.867543 0)scale(0.996264)"/>
    <use xlink:href="#CMSSBX10-4f" transform="translate(472.480837 0)scale(0.996264)"/>
    <use xlink:href="#CMSSBX10-72" transform="translate(551.628917 0)scale(0.996264)"/>
    <use xlink:href="#CMSSBX10-64" transform="translate(588.712327 0)scale(0.996264)"/>
    <use xlink:href="#CMSSBX10-65" transform="translate(644.614115 0)scale(0.996264)"/>
    <use xlink:href="#CMSSBX10-72" transform="translate(695.534568 0)scale(0.996264)"/>
   </g>
  </g>
  <g id="legend_1">
   <g id="line2d_47">
    <path d="M 318.190049 281.116607 
L 328.186049 281.116607 
L 338.182049 281.116607 
" style="fill: none; stroke-dasharray: 4.81,2.08; stroke-dashoffset: 0; stroke: #808080; stroke-width: 1.3"/>
   </g>
   <g id="text_29">
    <!-- Average Basket Composition -->
    <g style="fill: #262626" transform="translate(346.178849 284.615207)scale(0.09996 -0.09996)">
     <defs>
      <path id="CMSS17-41" d="M 2272 4416 
L 1722 4416 
L 166 0 
L 653 0 
L 1101 1280 
L 2816 1280 
L 3270 0 
L 3827 0 
L 2272 4416 
z
M 2694 1638 
L 1222 1638 
C 1530 2530 1914 3638 1958 3924 
L 1965 3924 
C 2010 3663 2138 3281 2246 2956 
L 2694 1638 
z
" transform="scale(0.015625)"/>
      <path id="CMSS17-76" d="M 2675 2752 
L 2176 2752 
L 1747 1555 
C 1613 1164 1421 627 1389 352 
L 1382 352 
C 1370 467 1318 633 1286 748 
C 1248 889 1197 1056 1158 1171 
L 595 2752 
L 83 2752 
L 1094 0 
L 1664 0 
L 2675 2752 
z
" transform="scale(0.015625)"/>
      <path id="CMSS17-65" d="M 2502 1375 
C 2502 1587 2490 2001 2285 2347 
C 2061 2713 1696 2816 1421 2816 
C 755 2816 192 2184 192 1363 
C 192 579 774 -64 1510 -64 
C 1798 -64 2150 19 2470 249 
C 2470 275 2458 414 2451 421 
C 2451 433 2432 629 2432 655 
C 2125 408 1773 326 1517 326 
C 1107 326 666 667 646 1375 
L 2502 1375 
z
M 698 1728 
C 781 2086 1062 2425 1421 2425 
C 1517 2425 1965 2412 2080 1728 
L 698 1728 
z
" transform="scale(0.015625)"/>
      <path id="CMSS17-72" d="M 954 1369 
C 954 1974 1395 2379 1958 2392 
L 1958 2816 
C 1549 2809 1165 2604 934 2270 
L 934 2783 
L 480 2783 
L 480 0 
L 954 0 
L 954 1369 
z
" transform="scale(0.015625)"/>
      <path id="CMSS17-61" d="M 2406 1789 
C 2406 2399 1978 2816 1402 2816 
C 1120 2816 813 2764 461 2559 
L 499 2133 
C 659 2250 934 2438 1395 2438 
C 1722 2438 1920 2185 1920 1782 
L 1920 1536 
C 896 1504 256 1209 256 711 
C 256 452 416 -64 947 -64 
C 1043 -64 1562 -52 1933 224 
L 1933 -13 
L 2406 -13 
L 2406 1789 
z
M 1920 824 
C 1920 711 1920 559 1728 446 
C 1562 339 1350 326 1261 326 
C 941 326 723 503 723 723 
C 723 1165 1722 1209 1920 1216 
L 1920 824 
z
" transform="scale(0.015625)"/>
      <path id="CMSS17-67" d="M 2848 2816 
C 2483 2809 2170 2739 1914 2617 
C 1702 2783 1485 2816 1338 2816 
C 781 2816 358 2356 358 1824 
C 358 1481 550 1222 563 1209 
C 448 1049 384 876 384 684 
C 384 460 474 300 544 211 
C 211 6 166 -308 166 -429 
C 166 -896 749 -1280 1498 -1280 
C 2253 -1280 2835 -896 2835 -423 
C 2835 460 1856 467 1587 467 
L 1069 467 
C 973 467 717 467 717 793 
C 717 921 774 1004 781 1011 
C 877 940 1075 832 1338 832 
C 1869 832 2310 1279 2310 1824 
C 2310 2128 2170 2349 2112 2425 
L 2131 2425 
C 2150 2425 2419 2444 2515 2444 
C 2720 2444 2739 2438 2918 2419 
L 2848 2816 
z
M 1338 1184 
C 1120 1184 813 1317 813 1824 
C 813 2375 1165 2463 1331 2463 
C 1549 2463 1856 2330 1856 1824 
C 1856 1272 1504 1184 1338 1184 
z
M 1581 0 
C 1734 0 2381 0 2381 -436 
C 2381 -711 1984 -928 1504 -928 
C 1018 -928 621 -717 621 -429 
C 621 -397 621 0 1062 0 
L 1581 0 
z
" transform="scale(0.015625)"/>
      <path id="CMSS17-42" d="M 570 4416 
L 570 0 
L 2163 0 
C 3034 0 3667 575 3667 1200 
C 3667 1684 3251 2175 2502 2316 
C 3334 2559 3501 3039 3501 3311 
C 3501 3880 2874 4416 1997 4416 
L 570 4416 
z
M 1088 2496 
L 1088 4057 
L 1824 4057 
C 2483 4057 3002 3722 3002 3305 
C 3002 2925 2592 2496 1766 2496 
L 1088 2496 
z
M 1088 358 
L 1088 2105 
L 1939 2105 
C 2630 2105 3162 1678 3162 1206 
C 3162 772 2694 358 1984 358 
L 1088 358 
z
" transform="scale(0.015625)"/>
      <path id="CMSS17-73" d="M 2061 2623 
C 1683 2803 1389 2816 1197 2816 
C 742 2816 198 2655 198 2009 
C 198 1363 902 1222 1094 1183 
C 1389 1126 1715 1062 1715 742 
C 1715 339 1254 339 1171 339 
C 915 339 563 409 243 639 
L 166 211 
C 531 0 883 -64 1178 -64 
C 1965 -64 2163 416 2163 780 
C 2163 1094 1984 1305 1862 1401 
C 1651 1567 1574 1587 1050 1695 
C 960 1708 646 1779 646 2067 
C 646 2431 1050 2431 1139 2431 
C 1555 2431 1811 2303 1984 2207 
L 2061 2623 
z
" transform="scale(0.015625)"/>
      <path id="CMSS17-6b" d="M 1696 1686 
L 2688 2735 
L 2074 2735 
L 954 1552 
L 954 4416 
L 480 4416 
L 480 0 
L 947 0 
L 947 891 
L 1376 1342 
L 2278 0 
L 2822 0 
L 1696 1686 
z
" transform="scale(0.015625)"/>
      <path id="CMSS17-74" d="M 1069 2380 
L 1901 2380 
L 1901 2752 
L 1069 2752 
L 1069 3520 
L 614 3520 
L 614 2752 
L 109 2752 
L 109 2380 
L 602 2380 
L 602 751 
C 602 384 685 -64 1107 -64 
C 1427 -64 1722 25 2003 172 
L 1901 551 
C 1747 416 1562 339 1363 339 
C 1082 339 1069 699 1069 860 
L 1069 2380 
z
" transform="scale(0.015625)"/>
      <path id="CMSS17-43" d="M 3501 705 
C 3072 416 2874 332 2355 332 
C 1459 332 934 1304 934 2191 
C 934 3137 1472 4070 2381 4070 
C 2790 4070 3059 3954 3386 3748 
L 3475 4255 
C 3168 4409 2778 4480 2387 4480 
C 1158 4480 397 3343 397 2191 
C 397 924 1299 -77 2323 -77 
C 2874 -77 3066 -32 3539 268 
L 3501 705 
z
" transform="scale(0.015625)"/>
      <path id="CMSS17-6f" d="M 2829 1356 
C 2829 2175 2221 2816 1504 2816 
C 768 2816 173 2156 173 1356 
C 173 544 787 -64 1498 -64 
C 2227 -64 2829 563 2829 1356 
z
M 1504 339 
C 1050 339 659 710 659 1407 
C 659 2150 1114 2425 1498 2425 
C 1914 2425 2342 2124 2342 1407 
C 2342 684 1926 339 1504 339 
z
" transform="scale(0.015625)"/>
      <path id="CMSS17-6d" d="M 4288 1878 
C 4288 2309 4179 2816 3462 2816 
C 2982 2816 2694 2515 2566 2328 
C 2451 2668 2182 2816 1798 2816 
C 1363 2816 1088 2566 941 2386 
L 941 2783 
L 474 2783 
L 474 0 
L 960 0 
L 960 1556 
C 960 1936 1101 2425 1555 2425 
C 2138 2425 2138 2013 2138 1826 
L 2138 0 
L 2624 0 
L 2624 1556 
C 2624 1936 2765 2425 3219 2425 
C 3802 2425 3802 2013 3802 1826 
L 3802 0 
L 4288 0 
L 4288 1878 
z
" transform="scale(0.015625)"/>
      <path id="CMSS17-70" d="M 966 275 
C 1178 70 1466 -64 1773 -64 
C 2368 -64 2880 553 2880 1382 
C 2880 2147 2496 2816 1946 2816 
C 1626 2816 1242 2700 954 2470 
L 954 2764 
L 480 2764 
L 480 -1280 
L 966 -1280 
L 966 275 
z
M 966 2088 
C 1018 2166 1235 2412 1587 2412 
C 2035 2412 2394 1946 2394 1382 
C 2394 741 1958 326 1530 326 
C 1402 326 1267 358 1139 468 
C 966 624 966 721 966 812 
L 966 2088 
z
" transform="scale(0.015625)"/>
      <path id="CMSS17-69" d="M 979 4224 
L 442 4224 
L 442 3686 
L 979 3686 
L 979 4224 
z
M 947 2752 
L 474 2752 
L 474 0 
L 947 0 
L 947 2752 
z
" transform="scale(0.015625)"/>
      <path id="CMSS17-6e" d="M 2618 1878 
C 2618 2283 2522 2816 1798 2816 
C 1389 2816 1120 2604 941 2386 
L 941 2783 
L 474 2783 
L 474 0 
L 960 0 
L 960 1556 
C 960 1962 1114 2425 1549 2425 
C 2112 2425 2131 2045 2131 1826 
L 2131 0 
L 2618 0 
L 2618 1878 
z
" transform="scale(0.015625)"/>
     </defs>
     <use xlink:href="#CMSS17-41" transform="scale(0.996264)"/>
     <use xlink:href="#CMSS17-76" transform="translate(62.217855 0)scale(0.996264)"/>
     <use xlink:href="#CMSS17-65" transform="translate(105.217997 0)scale(0.996264)"/>
     <use xlink:href="#CMSS17-72" transform="translate(146.856819 0)scale(0.996264)"/>
     <use xlink:href="#CMSS17-61" transform="translate(178.766591 0)scale(0.996264)"/>
     <use xlink:href="#CMSS17-67" transform="translate(223.688512 0)scale(0.996264)"/>
     <use xlink:href="#CMSS17-65" transform="translate(270.532135 0)scale(0.996264)"/>
     <use xlink:href="#CMSS17-42" transform="translate(343.40007 0)scale(0.996264)"/>
     <use xlink:href="#CMSS17-61" transform="translate(405.73811 0)scale(0.996264)"/>
     <use xlink:href="#CMSS17-73" transform="translate(450.660031 0)scale(0.996264)"/>
     <use xlink:href="#CMSS17-6b" transform="translate(486.573573 0)scale(0.996264)"/>
     <use xlink:href="#CMSS17-65" transform="translate(529.573608 0)scale(0.996264)"/>
     <use xlink:href="#CMSS17-74" transform="translate(571.21243 0)scale(0.996264)"/>
     <use xlink:href="#CMSS17-43" transform="translate(636.27311 0)scale(0.996264)"/>
     <use xlink:href="#CMSS17-6f" transform="translate(696.128881 0)scale(0.996264)"/>
     <use xlink:href="#CMSS17-6d" transform="translate(742.972505 0)scale(0.996264)"/>
     <use xlink:href="#CMSS17-70" transform="translate(817.201759 0)scale(0.996264)"/>
     <use xlink:href="#CMSS17-6f" transform="translate(868.009141 0)scale(0.996264)"/>
     <use xlink:href="#CMSS17-73" transform="translate(914.852765 0)scale(0.996264)"/>
     <use xlink:href="#CMSS17-69" transform="translate(950.766307 0)scale(0.996264)"/>
     <use xlink:href="#CMSS17-74" transform="translate(972.94703 0)scale(0.996264)"/>
     <use xlink:href="#CMSS17-69" transform="translate(1006.778596 0)scale(0.996264)"/>
     <use xlink:href="#CMSS17-6f" transform="translate(1028.959319 0)scale(0.996264)"/>
     <use xlink:href="#CMSS17-6e" transform="translate(1075.802943 0)scale(0.996264)"/>
    </g>
   </g>
  </g>
  <g id="legend_2">
   <g id="patch_12">
    <path d="M 3 294.54801 
L 68.933699 294.54801 
Q 70.933699 294.54801 70.933699 292.54801 
L 70.933699 263.736475 
Q 70.933699 261.736475 68.933699 261.736475 
L 3 261.736475 
Q 1 261.736475 1 263.736475 
L 1 292.54801 
Q 1 294.54801 3 294.54801 
z
" style="fill: #ffffff; opacity: 0.8; stroke: #cccccc; stroke-linejoin: miter"/>
   </g>
   <g id="line2d_48">
    <path d="M 2 266.236475 
L 12 266.236475 
L 22 266.236475 
" style="fill: none; stroke: #207720; stroke-width: 1.5; stroke-linecap: round"/>
   </g>
   <g id="text_30">
    <!-- In Store -->
    <g style="fill: #262626" transform="translate(30 269.736475)scale(0.1 -0.1)">
     <defs>
      <path id="CMSS17-49" d="M 1094 4416 
L 557 4416 
L 557 0 
L 1094 0 
L 1094 4416 
z
" transform="scale(0.015625)"/>
      <path id="CMSS17-53" d="M 2797 4230 
C 2515 4396 2208 4544 1690 4544 
C 864 4544 333 3934 333 3309 
C 333 3064 403 2787 653 2504 
C 902 2220 1184 2143 1542 2053 
C 1690 2014 1939 1943 1984 1924 
C 2342 1782 2515 1454 2515 1144 
C 2515 738 2202 307 1645 307 
C 1453 307 890 339 358 829 
L 269 320 
C 794 -64 1363 -128 1651 -128 
C 2438 -128 3002 494 3002 1202 
C 3002 1460 2925 1789 2656 2092 
C 2394 2381 2163 2446 1638 2588 
C 1338 2665 1146 2717 986 2916 
C 877 3058 819 3193 819 3367 
C 819 3728 1126 4121 1690 4121 
C 1971 4121 2336 4063 2707 3715 
L 2797 4230 
z
" transform="scale(0.015625)"/>
     </defs>
     <use xlink:href="#CMSS17-49" transform="scale(0.996264)"/>
     <use xlink:href="#CMSS17-6e" transform="translate(25.783926 0)scale(0.996264)"/>
     <use xlink:href="#CMSS17-53" transform="translate(105.217981 0)scale(0.996264)"/>
     <use xlink:href="#CMSS17-74" transform="translate(157.266498 0)scale(0.996264)"/>
     <use xlink:href="#CMSS17-6f" transform="translate(191.098064 0)scale(0.996264)"/>
     <use xlink:href="#CMSS17-72" transform="translate(235.339234 0)scale(0.996264)"/>
     <use xlink:href="#CMSS17-65" transform="translate(267.249006 0)scale(0.996264)"/>
    </g>
   </g>
   <g id="line2d_49">
    <path d="M 2 277.173653 
L 12 277.173653 
L 22 277.173653 
" style="fill: none; stroke: #234990; stroke-width: 1.5; stroke-linecap: round"/>
   </g>
   <g id="text_31">
    <!-- Darkstore -->
    <g style="fill: #262626" transform="translate(30 280.673653)scale(0.1 -0.1)">
     <defs>
      <path id="CMSS17-44" d="M 570 4416 
L 570 0 
L 2144 0 
C 3194 0 4000 981 4000 2169 
C 4000 3396 3194 4416 2144 4416 
L 570 4416 
z
M 1094 358 
L 1094 4057 
L 2003 4057 
C 2861 4057 3475 3275 3475 2169 
C 3475 1108 2867 358 2003 358 
L 1094 358 
z
" transform="scale(0.015625)"/>
     </defs>
     <use xlink:href="#CMSS17-44" transform="scale(0.996264)"/>
     <use xlink:href="#CMSS17-61" transform="translate(67.542842 0)scale(0.996264)"/>
     <use xlink:href="#CMSS17-72" transform="translate(109.862308 0)scale(0.996264)"/>
     <use xlink:href="#CMSS17-6b" transform="translate(141.772081 0)scale(0.996264)"/>
     <use xlink:href="#CMSS17-73" transform="translate(187.37457 0)scale(0.996264)"/>
     <use xlink:href="#CMSS17-74" transform="translate(223.288112 0)scale(0.996264)"/>
     <use xlink:href="#CMSS17-6f" transform="translate(257.119679 0)scale(0.996264)"/>
     <use xlink:href="#CMSS17-72" transform="translate(301.360848 0)scale(0.996264)"/>
     <use xlink:href="#CMSS17-65" transform="translate(333.270621 0)scale(0.996264)"/>
    </g>
   </g>
   <g id="line2d_50">
    <path d="M 2 288.110831 
L 12 288.110831 
L 22 288.110831 
" style="fill: none; stroke: #e23726; stroke-width: 1.5; stroke-linecap: round"/>
   </g>
   <g id="text_32">
    <!-- FC -->
    <g style="fill: #262626" transform="translate(30 291.610831)scale(0.1 -0.1)">
     <defs>
      <path id="CMSS17-46" d="M 2918 1984 
L 2918 2374 
L 1101 2374 
L 1101 3993 
L 1882 3993 
C 1958 3993 2035 3987 2112 3987 
L 3168 3987 
L 3168 4403 
L 563 4403 
L 563 0 
L 1101 0 
L 1101 1984 
L 2918 1984 
z
" transform="scale(0.015625)"/>
     </defs>
     <use xlink:href="#CMSS17-46" transform="scale(0.996264)"/>
     <use xlink:href="#CMSS17-43" transform="translate(50.687105 0)scale(0.996264)"/>
    </g>
   </g>
  </g>
 </g>
 <defs>
  <clipPath id="p4bf17e215d">
   <rect x="66.365971" y="28.645892" width="172.162884" height="211.114071"/>
  </clipPath>
  <clipPath id="p4dbe2820fc">
   <rect x="291.34384" y="28.645892" width="172.162884" height="211.114071"/>
  </clipPath>
 </defs>
</svg>
