<?xml version="1.0" encoding="utf-8" standalone="no"?>
<!DOCTYPE svg PUBLIC "-//W3C//DTD SVG 1.1//EN"
  "http://www.w3.org/Graphics/SVG/1.1/DTD/svg11.dtd">
<svg xmlns:xlink="http://www.w3.org/1999/xlink" width="443.337484pt" height="273.997634pt" viewBox="0 0 443.337484 273.997634" xmlns="http://www.w3.org/2000/svg" version="1.1">
 <metadata>
  <rdf:RDF xmlns:dc="http://purl.org/dc/elements/1.1/" xmlns:cc="http://creativecommons.org/ns#" xmlns:rdf="http://www.w3.org/1999/02/22-rdf-syntax-ns#">
   <cc:Work>
    <dc:type rdf:resource="http://purl.org/dc/dcmitype/StillImage"/>
    <dc:date>2022-03-08T15:21:00.597793</dc:date>
    <dc:format>image/svg+xml</dc:format>
    <dc:creator>
     <cc:Agent>
      <dc:title>Matplotlib v3.5.0, https://matplotlib.org/</dc:title>
     </cc:Agent>
    </dc:creator>
   </cc:Work>
  </rdf:RDF>
 </metadata>
 <defs>
  <style type="text/css">*{stroke-linejoin: round; stroke-linecap: butt}</style>
 </defs>
 <g id="figure_1">
  <g id="patch_1">
   <path d="M 0 273.997634 
L 443.337484 273.997634 
L 443.337484 0 
L 0 0 
z
" style="fill: #ffffff"/>
  </g>
  <g id="axes_1">
   <g id="patch_2">
    <path d="M 69.410113 218.209587 
L 222.834236 218.209587 
L 222.834236 28.645892 
L 69.410113 28.645892 
z
" style="fill: #ffffff"/>
   </g>
   <g id="line2d_1">
    <path d="M 69.410113 172.618318 
L 444.337484 172.618318 
" clip-path="url(#p2429c0b834)" style="fill: none; stroke: #000000; stroke-width: 1.3; stroke-linecap: round"/>
   </g>
   <g id="LineCollection_1">
    <path d="M 86.670326 218.209587 
L 86.670326 131.019885 
" clip-path="url(#p2429c0b834)" style="fill: none; stroke-dasharray: 4.81,2.08; stroke-dashoffset: 0; stroke: #808080; stroke-width: 1.3"/>
   </g>
   <g id="LineCollection_2">
    <path d="M 61.738906 131.019645 
L 86.670326 131.019645 
" clip-path="url(#p2429c0b834)" style="fill: none; stroke-dasharray: 4.81,2.08; stroke-dashoffset: 0; stroke: #808080; stroke-width: 1.3"/>
   </g>
   <g id="LineCollection_3">
    <path d="M 109.683945 218.209587 
L 109.683945 66.985749 
" clip-path="url(#p2429c0b834)" style="fill: none; stroke-dasharray: 4.81,2.08; stroke-dashoffset: 0; stroke: #808080; stroke-width: 1.3"/>
   </g>
   <g id="LineCollection_4">
    <path d="M 61.738906 66.985749 
L 109.683945 66.985749 
" clip-path="url(#p2429c0b834)" style="fill: none; stroke-dasharray: 4.81,2.08; stroke-dashoffset: 0; stroke: #808080; stroke-width: 1.3"/>
   </g>
   <g id="LineCollection_5">
    <path d="M 176.806999 218.209587 
L 176.806999 46.498473 
" clip-path="url(#p2429c0b834)" style="fill: none; stroke-dasharray: 4.81,2.08; stroke-dashoffset: 0; stroke: #808080; stroke-width: 1.3"/>
   </g>
   <g id="LineCollection_6">
    <path d="M 61.738906 46.498473 
L 176.806999 46.498473 
" clip-path="url(#p2429c0b834)" style="fill: none; stroke-dasharray: 4.81,2.08; stroke-dashoffset: 0; stroke: #808080; stroke-width: 1.3"/>
   </g>
   <g id="matplotlib.axis_1">
    <g id="xtick_1">
     <g id="line2d_2">
      <defs>
       <path id="m237079359a" d="M 0 0 
L 0 6 
" style="stroke: #262626; stroke-width: 0.8"/>
      </defs>
      <g>
       <use xlink:href="#m237079359a" x="86.670326" y="218.209587" style="fill: #262626; stroke: #262626; stroke-width: 0.8"/>
      </g>
     </g>
     <g id="text_1">
      <!-- $\mathdefault{65}$ -->
      <g style="fill: #262626" transform="translate(81.190859 235.319933)scale(0.11 -0.11)">
       <defs>
        <path id="CMR17-36" d="M 678 2198 
C 678 3712 1395 4076 1811 4076 
C 1946 4076 2272 4049 2400 3782 
C 2298 3782 2106 3782 2106 3558 
C 2106 3385 2246 3328 2336 3328 
C 2394 3328 2566 3353 2566 3571 
C 2566 3987 2246 4224 1805 4224 
C 1043 4224 243 3411 243 2011 
C 243 257 966 -128 1478 -128 
C 2099 -128 2688 431 2688 1295 
C 2688 2101 2170 2688 1517 2688 
C 1126 2688 838 2430 678 1979 
L 678 2198 
z
M 1478 25 
C 691 25 691 1212 691 1450 
C 691 1914 909 2585 1504 2585 
C 1613 2585 1926 2585 2138 2140 
C 2253 1889 2253 1624 2253 1302 
C 2253 954 2253 696 2118 438 
C 1978 173 1773 25 1478 25 
z
" transform="scale(0.015625)"/>
        <path id="CMR17-35" d="M 730 3750 
C 794 3724 1056 3641 1325 3641 
C 1920 3641 2246 3961 2432 4140 
C 2432 4191 2432 4224 2394 4224 
C 2387 4224 2374 4224 2323 4198 
C 2099 4102 1837 4032 1517 4032 
C 1325 4032 1037 4055 723 4191 
C 653 4224 640 4224 634 4224 
C 602 4224 595 4217 595 4090 
L 595 2231 
C 595 2113 595 2080 659 2080 
C 691 2080 704 2093 736 2139 
C 941 2435 1222 2560 1542 2560 
C 1766 2560 2246 2415 2246 1293 
C 2246 1087 2246 716 2054 422 
C 1894 159 1645 25 1370 25 
C 947 25 518 319 403 812 
C 429 806 480 793 506 793 
C 589 793 749 838 749 1036 
C 749 1209 627 1280 506 1280 
C 358 1280 262 1190 262 1011 
C 262 454 704 -128 1382 -128 
C 2042 -128 2669 441 2669 1267 
C 2669 2054 2170 2662 1549 2662 
C 1222 2662 947 2540 730 2304 
L 730 3750 
z
" transform="scale(0.015625)"/>
       </defs>
       <use xlink:href="#CMR17-36" transform="scale(0.996264)"/>
       <use xlink:href="#CMR17-35" transform="translate(45.690477 0)scale(0.996264)"/>
      </g>
     </g>
    </g>
    <g id="xtick_2">
     <g id="line2d_3">
      <g>
       <use xlink:href="#m237079359a" x="111.601746" y="218.209587" style="fill: #262626; stroke: #262626; stroke-width: 0.8"/>
      </g>
     </g>
     <g id="text_2">
      <!-- $\mathdefault{130}$ -->
      <g style="fill: #262626" transform="translate(103.382546 235.319933)scale(0.11 -0.11)">
       <defs>
        <path id="CMR17-31" d="M 1702 4083 
C 1702 4217 1696 4224 1606 4224 
C 1357 3927 979 3833 621 3820 
C 602 3820 570 3820 563 3808 
C 557 3795 557 3782 557 3648 
C 755 3648 1088 3686 1344 3839 
L 1344 467 
C 1344 243 1331 166 781 166 
L 589 166 
L 589 0 
C 896 6 1216 12 1523 12 
C 1830 12 2150 6 2458 0 
L 2458 166 
L 2266 166 
C 1715 166 1702 236 1702 467 
L 1702 4083 
z
" transform="scale(0.015625)"/>
        <path id="CMR17-33" d="M 1414 2176 
C 1984 2176 2234 1673 2234 1094 
C 2234 322 1824 25 1453 25 
C 1114 25 563 193 390 691 
C 422 678 454 678 486 678 
C 640 678 755 780 755 947 
C 755 1132 614 1216 486 1216 
C 378 1216 211 1164 211 927 
C 211 335 787 -128 1466 -128 
C 2176 -128 2720 432 2720 1087 
C 2720 1718 2208 2176 1600 2246 
C 2086 2347 2554 2776 2554 3353 
C 2554 3856 2048 4224 1472 4224 
C 890 4224 378 3862 378 3347 
C 378 3123 544 3084 627 3084 
C 762 3084 877 3167 877 3334 
C 877 3500 762 3584 627 3584 
C 602 3584 570 3584 544 3571 
C 730 3999 1235 4076 1459 4076 
C 1683 4076 2106 3966 2106 3347 
C 2106 3167 2080 2851 1862 2574 
C 1670 2329 1453 2316 1242 2297 
C 1210 2297 1062 2284 1037 2284 
C 992 2278 966 2272 966 2227 
C 966 2182 973 2176 1101 2176 
L 1414 2176 
z
" transform="scale(0.015625)"/>
        <path id="CMR17-30" d="M 2688 2038 
C 2688 2430 2682 3099 2413 3613 
C 2176 4063 1798 4224 1466 4224 
C 1158 4224 768 4082 525 3620 
C 269 3137 243 2539 243 2038 
C 243 1671 250 1112 448 623 
C 723 -39 1216 -128 1466 -128 
C 1760 -128 2208 -7 2470 604 
C 2662 1048 2688 1568 2688 2038 
z
M 1466 -26 
C 1056 -26 813 328 723 816 
C 653 1196 653 1749 653 2109 
C 653 2604 653 3015 736 3407 
C 858 3954 1216 4121 1466 4121 
C 1728 4121 2067 3947 2189 3420 
C 2272 3054 2278 2623 2278 2109 
C 2278 1691 2278 1176 2202 797 
C 2067 96 1690 -26 1466 -26 
z
" transform="scale(0.015625)"/>
       </defs>
       <use xlink:href="#CMR17-31" transform="scale(0.996264)"/>
       <use xlink:href="#CMR17-33" transform="translate(45.690477 0)scale(0.996264)"/>
       <use xlink:href="#CMR17-30" transform="translate(91.380954 0)scale(0.996264)"/>
      </g>
     </g>
    </g>
    <g id="xtick_3">
     <g id="line2d_4">
      <g>
       <use xlink:href="#m237079359a" x="136.533166" y="218.209587" style="fill: #262626; stroke: #262626; stroke-width: 0.8"/>
      </g>
     </g>
     <g id="text_3">
      <!-- $\mathdefault{195}$ -->
      <g style="fill: #262626" transform="translate(128.313966 235.319933)scale(0.11 -0.11)">
       <defs>
        <path id="CMR17-39" d="M 2253 1871 
C 2253 448 1670 25 1190 25 
C 1043 25 685 43 538 281 
C 704 256 826 345 826 505 
C 826 678 685 736 595 736 
C 538 736 365 710 365 492 
C 365 68 742 -128 1203 -128 
C 1939 -128 2688 665 2688 2090 
C 2688 3857 1971 4224 1485 4224 
C 851 4224 243 3664 243 2800 
C 243 2000 762 1408 1414 1408 
C 1952 1408 2189 1910 2253 2122 
L 2253 1871 
z
M 1427 1510 
C 1254 1510 1011 1542 813 1929 
C 678 2181 678 2477 678 2793 
C 678 3174 678 3438 858 3722 
C 947 3857 1114 4076 1485 4076 
C 2240 4076 2240 2909 2240 2651 
C 2240 2193 2035 1510 1427 1510 
z
" transform="scale(0.015625)"/>
       </defs>
       <use xlink:href="#CMR17-31" transform="scale(0.996264)"/>
       <use xlink:href="#CMR17-39" transform="translate(45.690477 0)scale(0.996264)"/>
       <use xlink:href="#CMR17-35" transform="translate(91.380954 0)scale(0.996264)"/>
      </g>
     </g>
    </g>
    <g id="xtick_4">
     <g id="line2d_5">
      <g>
       <use xlink:href="#m237079359a" x="161.464586" y="218.209587" style="fill: #262626; stroke: #262626; stroke-width: 0.8"/>
      </g>
     </g>
     <g id="text_4">
      <!-- $\mathdefault{260}$ -->
      <g style="fill: #262626" transform="translate(153.245386 235.319933)scale(0.11 -0.11)">
       <defs>
        <path id="CMR17-32" d="M 2669 990 
L 2554 990 
C 2490 537 2438 460 2413 422 
C 2381 371 1920 371 1830 371 
L 602 371 
C 832 620 1280 1073 1824 1596 
C 2214 1966 2669 2400 2669 3033 
C 2669 3788 2067 4224 1395 4224 
C 691 4224 262 3603 262 3027 
C 262 2777 448 2745 525 2745 
C 589 2745 781 2783 781 3007 
C 781 3206 614 3264 525 3264 
C 486 3264 448 3257 422 3244 
C 544 3788 915 4057 1306 4057 
C 1862 4057 2227 3616 2227 3033 
C 2227 2477 1901 1998 1536 1583 
L 262 147 
L 262 0 
L 2515 0 
L 2669 990 
z
" transform="scale(0.015625)"/>
       </defs>
       <use xlink:href="#CMR17-32" transform="scale(0.996264)"/>
       <use xlink:href="#CMR17-36" transform="translate(45.690477 0)scale(0.996264)"/>
       <use xlink:href="#CMR17-30" transform="translate(91.380954 0)scale(0.996264)"/>
      </g>
     </g>
    </g>
    <g id="xtick_5">
     <g id="line2d_6">
      <g>
       <use xlink:href="#m237079359a" x="186.396006" y="218.209587" style="fill: #262626; stroke: #262626; stroke-width: 0.8"/>
      </g>
     </g>
     <g id="text_5">
      <!-- $\mathdefault{325}$ -->
      <g style="fill: #262626" transform="translate(178.176806 235.319933)scale(0.11 -0.11)">
       <use xlink:href="#CMR17-33" transform="scale(0.996264)"/>
       <use xlink:href="#CMR17-32" transform="translate(45.690477 0)scale(0.996264)"/>
       <use xlink:href="#CMR17-35" transform="translate(91.380954 0)scale(0.996264)"/>
      </g>
     </g>
    </g>
    <g id="xtick_6">
     <g id="line2d_7">
      <g>
       <use xlink:href="#m237079359a" x="211.327427" y="218.209587" style="fill: #262626; stroke: #262626; stroke-width: 0.8"/>
      </g>
     </g>
     <g id="text_6">
      <!-- $\mathdefault{390}$ -->
      <g style="fill: #262626" transform="translate(203.108226 235.319933)scale(0.11 -0.11)">
       <use xlink:href="#CMR17-33" transform="scale(0.996264)"/>
       <use xlink:href="#CMR17-39" transform="translate(45.690477 0)scale(0.996264)"/>
       <use xlink:href="#CMR17-30" transform="translate(91.380954 0)scale(0.996264)"/>
      </g>
     </g>
    </g>
   </g>
   <g id="matplotlib.axis_2">
    <g id="ytick_1">
     <g id="line2d_8">
      <path d="M 69.410113 202.612574 
L 222.834236 202.612574 
" clip-path="url(#p2429c0b834)" style="fill: none; stroke: #cccccc; stroke-width: 0.8; stroke-linecap: round"/>
     </g>
     <g id="line2d_9">
      <defs>
       <path id="m7731bd9d3b" d="M 0 0 
L -6 0 
" style="stroke: #262626; stroke-width: 0.8"/>
      </defs>
      <g>
       <use xlink:href="#m7731bd9d3b" x="69.410113" y="202.612574" style="fill: #262626; stroke: #262626; stroke-width: 0.8"/>
      </g>
     </g>
     <g id="text_7">
      <!-- $-2.5\%$ -->
      <g style="fill: #262626" transform="translate(28.250987 206.417747)scale(0.11 -0.11)">
       <defs>
        <path id="CMSY10-0" d="M 4218 1472 
C 4326 1472 4442 1472 4442 1600 
C 4442 1728 4326 1728 4218 1728 
L 755 1728 
C 646 1728 531 1728 531 1600 
C 531 1472 646 1472 755 1472 
L 4218 1472 
z
" transform="scale(0.015625)"/>
        <path id="CMMI12-3a" d="M 1178 307 
C 1178 492 1024 620 870 620 
C 685 620 557 467 557 313 
C 557 128 710 0 864 0 
C 1050 0 1178 153 1178 307 
z
" transform="scale(0.015625)"/>
        <path id="CMR17-25" d="M 4640 928 
C 4640 1670 4275 2214 3846 2214 
C 3411 2214 2970 1708 2970 928 
C 2970 147 3405 -359 3846 -359 
C 4275 -359 4640 179 4640 928 
z
M 3853 -256 
C 3686 -256 3270 -103 3270 928 
C 3270 1964 3686 2112 3853 2112 
C 4205 2112 4525 1606 4525 928 
C 4525 249 4205 -256 3853 -256 
z
M 4083 4572 
C 4128 4644 4134 4651 4134 4684 
C 4134 4761 4077 4800 4026 4800 
C 3962 4800 3936 4755 3891 4703 
C 3520 4155 3008 4096 2746 4096 
C 2106 4096 1715 4479 1594 4598 
C 1510 4677 1389 4800 1171 4800 
C 736 4800 294 4281 294 3496 
C 294 2718 730 2214 1171 2214 
C 1600 2214 1965 2750 1965 3496 
C 1965 3936 1830 4241 1811 4281 
C 2202 4025 2586 3993 2752 3993 
C 3162 3993 3456 4148 3616 4261 
L 3622 4254 
L 858 -122 
C 800 -212 800 -224 800 -244 
C 800 -314 858 -359 915 -359 
C 973 -359 992 -327 1037 -256 
L 4083 4572 
z
M 1178 2316 
C 1011 2316 595 2469 595 3496 
C 595 4545 1011 4697 1178 4697 
C 1530 4697 1850 4175 1850 3496 
C 1850 2820 1530 2316 1178 2316 
z
" transform="scale(0.015625)"/>
       </defs>
       <use xlink:href="#CMSY10-0" transform="scale(0.996264)"/>
       <use xlink:href="#CMR17-32" transform="translate(77.487468 0)scale(0.996264)"/>
       <use xlink:href="#CMMI12-3a" transform="translate(123.177945 0)scale(0.996264)"/>
       <use xlink:href="#CMR17-35" transform="translate(150.275122 0)scale(0.996264)"/>
       <use xlink:href="#CMR17-25" transform="translate(195.965599 0)scale(0.996264)"/>
      </g>
     </g>
    </g>
    <g id="ytick_2">
     <g id="line2d_10">
      <path d="M 69.410113 172.618318 
L 222.834236 172.618318 
" clip-path="url(#p2429c0b834)" style="fill: none; stroke: #cccccc; stroke-width: 0.8; stroke-linecap: round"/>
     </g>
     <g id="line2d_11">
      <g>
       <use xlink:href="#m7731bd9d3b" x="69.410113" y="172.618318" style="fill: #262626; stroke: #262626; stroke-width: 0.8"/>
      </g>
     </g>
     <g id="text_8">
      <!-- $0\%$ -->
      <g style="fill: #262626" transform="translate(45.298205 176.423492)scale(0.11 -0.11)">
       <use xlink:href="#CMR17-30" transform="scale(0.996264)"/>
       <use xlink:href="#CMR17-25" transform="translate(45.690477 0)scale(0.996264)"/>
      </g>
     </g>
    </g>
    <g id="ytick_3">
     <g id="line2d_12">
      <path d="M 69.410113 142.624063 
L 222.834236 142.624063 
" clip-path="url(#p2429c0b834)" style="fill: none; stroke: #cccccc; stroke-width: 0.8; stroke-linecap: round"/>
     </g>
     <g id="line2d_13">
      <g>
       <use xlink:href="#m7731bd9d3b" x="69.410113" y="142.624063" style="fill: #262626; stroke: #262626; stroke-width: 0.8"/>
      </g>
     </g>
     <g id="text_9">
      <!-- $2.5\%$ -->
      <g style="fill: #262626" transform="translate(36.774596 146.429236)scale(0.11 -0.11)">
       <use xlink:href="#CMR17-32" transform="scale(0.996264)"/>
       <use xlink:href="#CMMI12-3a" transform="translate(45.690477 0)scale(0.996264)"/>
       <use xlink:href="#CMR17-35" transform="translate(72.787654 0)scale(0.996264)"/>
       <use xlink:href="#CMR17-25" transform="translate(118.478131 0)scale(0.996264)"/>
      </g>
     </g>
    </g>
    <g id="ytick_4">
     <g id="line2d_14">
      <path d="M 69.410113 112.629807 
L 222.834236 112.629807 
" clip-path="url(#p2429c0b834)" style="fill: none; stroke: #cccccc; stroke-width: 0.8; stroke-linecap: round"/>
     </g>
     <g id="line2d_15">
      <g>
       <use xlink:href="#m7731bd9d3b" x="69.410113" y="112.629807" style="fill: #262626; stroke: #262626; stroke-width: 0.8"/>
      </g>
     </g>
     <g id="text_10">
      <!-- $5\%$ -->
      <g style="fill: #262626" transform="translate(45.298205 116.43498)scale(0.11 -0.11)">
       <use xlink:href="#CMR17-35" transform="scale(0.996264)"/>
       <use xlink:href="#CMR17-25" transform="translate(45.690477 0)scale(0.996264)"/>
      </g>
     </g>
    </g>
    <g id="ytick_5">
     <g id="line2d_16">
      <path d="M 69.410113 82.635552 
L 222.834236 82.635552 
" clip-path="url(#p2429c0b834)" style="fill: none; stroke: #cccccc; stroke-width: 0.8; stroke-linecap: round"/>
     </g>
     <g id="line2d_17">
      <g>
       <use xlink:href="#m7731bd9d3b" x="69.410113" y="82.635552" style="fill: #262626; stroke: #262626; stroke-width: 0.8"/>
      </g>
     </g>
     <g id="text_11">
      <!-- $7.5\%$ -->
      <g style="fill: #262626" transform="translate(36.774596 86.440725)scale(0.11 -0.11)">
       <defs>
        <path id="CMR17-37" d="M 2886 3955 
L 2886 4096 
L 1382 4096 
C 634 4096 621 4166 595 4288 
L 480 4288 
L 294 3104 
L 410 3104 
C 429 3226 474 3552 550 3673 
C 589 3724 1062 3724 1171 3724 
L 2579 3724 
L 1869 2670 
C 1395 1961 1069 1003 1069 166 
C 1069 89 1069 -128 1299 -128 
C 1530 -128 1530 89 1530 172 
L 1530 466 
C 1530 1514 1709 2204 2003 2644 
L 2886 3955 
z
" transform="scale(0.015625)"/>
       </defs>
       <use xlink:href="#CMR17-37" transform="scale(0.996264)"/>
       <use xlink:href="#CMMI12-3a" transform="translate(45.690477 0)scale(0.996264)"/>
       <use xlink:href="#CMR17-35" transform="translate(72.787654 0)scale(0.996264)"/>
       <use xlink:href="#CMR17-25" transform="translate(118.478131 0)scale(0.996264)"/>
      </g>
     </g>
    </g>
    <g id="ytick_6">
     <g id="line2d_18">
      <path d="M 69.410113 52.641296 
L 222.834236 52.641296 
" clip-path="url(#p2429c0b834)" style="fill: none; stroke: #cccccc; stroke-width: 0.8; stroke-linecap: round"/>
     </g>
     <g id="line2d_19">
      <g>
       <use xlink:href="#m7731bd9d3b" x="69.410113" y="52.641296" style="fill: #262626; stroke: #262626; stroke-width: 0.8"/>
      </g>
     </g>
     <g id="text_12">
      <!-- $10\%$ -->
      <g style="fill: #262626" transform="translate(39.818738 56.446469)scale(0.11 -0.11)">
       <use xlink:href="#CMR17-31" transform="scale(0.996264)"/>
       <use xlink:href="#CMR17-30" transform="translate(45.690477 0)scale(0.996264)"/>
       <use xlink:href="#CMR17-25" transform="translate(91.380954 0)scale(0.996264)"/>
      </g>
     </g>
    </g>
    <g id="text_13">
     <!-- \textbf{Margin \%} -->
     <g style="fill: #262626" transform="translate(21.926376 150.965958)rotate(-90)scale(0.12 -0.12)">
      <defs>
       <path id="CMSSBX10-4d" d="M 3552 2080 
C 3418 1756 3181 1171 3130 948 
L 3123 948 
C 3066 1177 2803 1807 2669 2144 
L 1850 4154 
C 1741 4416 1536 4416 1421 4416 
L 890 4416 
C 659 4416 582 4345 582 4109 
L 582 306 
C 582 76 653 0 890 0 
L 1062 0 
C 1306 0 1370 83 1370 306 
L 1370 3594 
L 1376 3594 
C 1446 3308 1734 2602 1888 2226 
L 2630 414 
C 2746 140 2899 140 3117 140 
C 3334 140 3488 140 3603 414 
L 4422 2411 
C 4486 2564 4832 3429 4877 3594 
L 4883 3594 
L 4883 306 
C 4883 102 4928 0 5190 0 
L 5363 0 
C 5606 0 5670 83 5670 306 
L 5670 4109 
C 5670 4313 5626 4416 5363 4416 
L 4826 4416 
C 4666 4416 4506 4403 4397 4141 
L 3552 2080 
z
" transform="scale(0.015625)"/>
       <path id="CMSSBX10-61" d="M 2970 2047 
C 2970 3065 1997 3072 1677 3072 
C 1376 3072 1056 3046 627 2867 
C 493 2809 461 2790 461 2719 
C 461 2675 499 2300 506 2248 
C 512 2209 544 2177 589 2177 
C 621 2177 640 2196 659 2215 
C 934 2507 1254 2649 1651 2649 
C 1997 2649 2099 2436 2099 2054 
L 2099 1827 
C 1875 1827 198 1814 198 862 
C 198 409 557 -64 1120 -64 
C 1338 -64 1818 0 2118 442 
L 2118 313 
C 2118 108 2163 6 2426 6 
L 2662 6 
C 2906 6 2970 89 2970 313 
L 2970 2047 
z
M 2099 998 
C 2099 396 1491 396 1472 396 
C 1203 396 1030 629 1030 875 
C 1030 1510 1920 1555 2099 1562 
L 2099 998 
z
" transform="scale(0.015625)"/>
       <path id="CMSSBX10-72" d="M 1242 1456 
C 1242 2057 1747 2304 2150 2329 
C 2266 2335 2278 2335 2278 2502 
L 2278 2803 
C 2278 2931 2278 2976 2163 2976 
C 1984 2976 1517 2911 1216 2222 
L 1210 2222 
L 1210 2636 
C 1210 2841 1165 2944 902 2944 
L 698 2944 
C 467 2944 390 2873 390 2636 
L 390 305 
C 390 76 461 0 698 0 
L 934 0 
C 1178 0 1242 83 1242 305 
L 1242 1456 
z
" transform="scale(0.015625)"/>
       <path id="CMSSBX10-67" d="M 1280 569 
C 1050 569 960 569 870 651 
C 845 678 736 780 736 953 
C 736 998 742 1011 749 1049 
C 1050 883 1427 883 1562 883 
C 1830 883 2848 883 2848 1942 
C 2848 2315 2707 2540 2650 2611 
C 2758 2611 2982 2611 3245 2540 
C 3270 2527 3315 2514 3334 2514 
C 3386 2514 3418 2553 3418 2598 
C 3418 2623 3386 2777 3373 2841 
C 3347 2995 3347 3008 3232 3008 
C 3034 3008 2714 2931 2470 2783 
C 2170 2982 1837 3008 1562 3008 
C 1293 3008 275 3008 275 1948 
C 275 1691 346 1369 589 1158 
C 416 921 416 658 416 624 
C 416 499 454 288 589 115 
C 493 76 160 -39 160 -451 
C 160 -651 256 -986 659 -1172 
C 1024 -1338 1453 -1344 1754 -1344 
C 2131 -1344 3354 -1344 3354 -432 
C 3354 569 2451 569 1587 569 
L 1280 569 
z
M 1562 1344 
C 1114 1344 1094 1588 1094 1942 
C 1094 2296 1114 2547 1562 2547 
C 2010 2547 2029 2302 2029 1948 
C 2029 1594 2010 1344 1562 1344 
z
M 1907 -128 
C 2426 -128 2694 -219 2694 -451 
C 2694 -884 1965 -884 1760 -884 
C 1504 -884 819 -884 819 -432 
C 819 -128 1018 -128 1165 -128 
L 1907 -128 
z
" transform="scale(0.015625)"/>
       <path id="CMSSBX10-69" d="M 653 4480 
C 448 4480 346 4441 346 4185 
L 346 3891 
C 346 3686 410 3603 646 3603 
L 979 3603 
C 1286 3603 1286 3737 1286 4038 
C 1286 4345 1286 4480 979 4480 
L 653 4480 
z
M 1242 2635 
C 1242 2841 1197 2944 934 2944 
L 698 2944 
C 467 2944 390 2873 390 2635 
L 390 308 
C 390 76 461 0 698 0 
L 934 0 
C 1178 0 1242 83 1242 308 
L 1242 2635 
z
" transform="scale(0.015625)"/>
       <path id="CMSSBX10-6e" d="M 3200 2085 
C 3200 2745 2918 3008 2266 3008 
C 1594 3008 1306 2521 1222 2348 
L 1216 2348 
L 1216 2668 
C 1216 2873 1171 2975 909 2975 
L 691 2975 
C 461 2975 384 2905 384 2668 
L 384 307 
C 384 76 454 0 691 0 
L 947 0 
C 1190 0 1254 83 1254 307 
L 1254 1725 
C 1254 2284 1626 2547 1958 2547 
C 2266 2547 2330 2399 2330 2072 
L 2330 307 
C 2330 102 2374 0 2637 0 
L 2893 0 
C 3136 0 3200 83 3200 307 
L 3200 2085 
z
" transform="scale(0.015625)"/>
       <path id="CMSSBX10-25" d="M 5235 4332 
C 5312 4435 5312 4511 5312 4531 
C 5312 4671 5197 4800 5043 4800 
C 4909 4800 4838 4703 4806 4665 
L 1370 83 
C 1325 19 1286 -26 1286 -116 
C 1286 -263 1408 -384 1555 -384 
C 1690 -384 1760 -295 1792 -250 
L 5235 4332 
z
M 6189 918 
C 6189 1466 6042 2227 5043 2227 
C 4288 2227 3878 1804 3878 924 
C 3878 318 4070 -384 5043 -384 
C 5920 -384 6189 207 6189 918 
z
M 5037 76 
C 4646 76 4646 520 4646 924 
C 4646 1322 4646 1766 5037 1766 
C 5459 1766 5459 1133 5459 924 
C 5459 709 5459 76 5037 76 
z
M 2701 3510 
C 2701 4045 2554 4800 1555 4800 
C 800 4800 390 4377 390 3516 
C 390 2923 582 2227 1555 2227 
C 2432 2227 2701 2815 2701 3510 
z
M 1549 2688 
C 1158 2688 1158 3121 1158 3510 
C 1158 3905 1158 4339 1549 4339 
C 1971 4339 1971 3720 1971 3516 
C 1971 3306 1971 2688 1549 2688 
z
" transform="scale(0.015625)"/>
      </defs>
      <use xlink:href="#CMSSBX10-4d" transform="scale(0.996264)"/>
      <use xlink:href="#CMSSBX10-61" transform="translate(97.413021 0)scale(0.996264)"/>
      <use xlink:href="#CMSSBX10-72" transform="translate(146.67306 0)scale(0.996264)"/>
      <use xlink:href="#CMSSBX10-67" transform="translate(183.75647 0)scale(0.996264)"/>
      <use xlink:href="#CMSSBX10-69" transform="translate(238.551294 0)scale(0.996264)"/>
      <use xlink:href="#CMSSBX10-6e" transform="translate(264.011513 0)scale(0.996264)"/>
      <use xlink:href="#CMSSBX10-25" transform="translate(356.443184 0)scale(0.996264)"/>
     </g>
    </g>
   </g>
   <g id="line2d_20">
    <path d="M 77.081319 208.7398 
L 80.916922 168.521103 
L 84.752525 141.889803 
L 88.588128 122.32395 
L 92.423731 108.193057 
L 96.259334 96.779643 
L 100.094937 88.083708 
L 103.93054 80.474765 
L 107.766143 74.49631 
L 111.601746 69.061351 
L 115.43735 64.713384 
L 119.272953 60.908913 
" clip-path="url(#p2429c0b834)" style="fill: none; stroke: #207720; stroke-width: 1.5; stroke-linecap: round"/>
   </g>
   <g id="line2d_21">
    <path d="M 100.094937 83.311742 
L 105.848342 72.427427 
L 111.601746 64.26419 
L 117.355151 58.277817 
L 123.108556 52.835659 
L 128.86196 48.481933 
L 134.615365 44.672422 
L 140.36877 41.407128 
" clip-path="url(#p2429c0b834)" style="fill: none; stroke: #234990; stroke-width: 1.5; stroke-linecap: round"/>
   </g>
   <g id="line2d_22">
    <path d="M 138.450968 59.559171 
L 146.122174 55.749661 
L 153.79338 53.028582 
L 161.464586 50.307503 
L 169.135793 48.13064 
L 176.806999 46.497993 
L 184.478205 44.865345 
L 192.149411 43.232698 
L 199.820617 41.600051 
L 207.491823 40.511619 
L 215.16303 39.423188 
" clip-path="url(#p2429c0b834)" style="fill: none; stroke: #e23726; stroke-width: 1.5; stroke-linecap: round"/>
   </g>
   <g id="patch_3">
    <path d="M 69.410113 218.209587 
L 69.410113 28.645892 
" style="fill: none; stroke: #262626; stroke-width: 1.25; stroke-linejoin: miter; stroke-linecap: square"/>
   </g>
   <g id="patch_4">
    <path d="M 222.834236 218.209587 
L 222.834236 28.645892 
" style="fill: none; stroke: #262626; stroke-width: 1.25; stroke-linejoin: miter; stroke-linecap: square"/>
   </g>
   <g id="patch_5">
    <path d="M 69.410113 218.209587 
L 222.834236 218.209587 
" style="fill: none; stroke: #262626; stroke-width: 1.25; stroke-linejoin: miter; stroke-linecap: square"/>
   </g>
   <g id="patch_6">
    <path d="M 69.410113 28.645892 
L 222.834236 28.645892 
" style="fill: none; stroke: #262626; stroke-width: 1.25; stroke-linejoin: miter; stroke-linecap: square"/>
   </g>
   <g id="text_14">
    <!-- \textbf{Albstadt} -->
    <g style="fill: #262626" transform="translate(119.160377 22.645892)scale(0.14 -0.14)">
     <defs>
      <path id="CMSSBX10-41" d="M 3034 4142 
C 2938 4416 2752 4416 2624 4416 
L 2061 4416 
C 1933 4416 1747 4416 1651 4142 
L 301 299 
C 269 216 269 204 269 172 
C 269 0 429 0 518 0 
L 749 0 
C 864 0 1062 0 1152 255 
L 1402 960 
L 3174 960 
L 3392 350 
C 3469 128 3514 0 3821 0 
L 4166 0 
C 4256 0 4416 0 4416 172 
C 4416 204 4416 216 4384 299 
L 3034 4142 
z
M 2054 2858 
C 2150 3137 2234 3379 2285 3608 
L 2291 3608 
C 2323 3455 2323 3442 2374 3296 
L 2982 1510 
L 1594 1510 
L 2054 2858 
z
" transform="scale(0.015625)"/>
      <path id="CMSSBX10-6c" d="M 1242 4109 
C 1242 4313 1197 4416 934 4416 
L 698 4416 
C 467 4416 390 4345 390 4109 
L 390 306 
C 390 76 461 0 698 0 
L 934 0 
C 1178 0 1242 83 1242 306 
L 1242 4109 
z
" transform="scale(0.015625)"/>
      <path id="CMSSBX10-62" d="M 1242 4113 
C 1242 4313 1197 4416 934 4416 
L 698 4416 
C 467 4416 390 4345 390 4113 
L 390 313 
C 390 83 461 6 698 6 
L 954 6 
C 1062 6 1254 6 1261 256 
C 1555 -64 1882 -64 1984 -64 
C 3347 -64 3347 1164 3347 1484 
C 3347 1791 3347 3008 2144 3008 
C 1619 3008 1299 2713 1242 2649 
L 1242 4113 
z
M 1261 2323 
C 1344 2399 1536 2547 1830 2547 
C 2477 2547 2477 1958 2477 1478 
C 2477 1004 2477 396 1760 396 
C 1491 396 1331 556 1261 646 
L 1261 2323 
z
" transform="scale(0.015625)"/>
      <path id="CMSSBX10-73" d="M 2534 914 
C 2534 1277 2342 1503 2227 1607 
C 1971 1840 1747 1879 1478 1931 
C 1126 1995 870 2047 870 2300 
C 870 2565 1082 2617 1331 2617 
C 1760 2617 1990 2455 2157 2313 
C 2221 2248 2234 2248 2259 2248 
C 2323 2248 2336 2306 2342 2332 
C 2355 2384 2419 2745 2419 2777 
C 2419 2879 2080 2969 2010 2995 
C 1754 3065 1549 3072 1382 3072 
C 1094 3072 237 3072 237 2151 
C 237 1833 378 1639 550 1484 
C 774 1277 1024 1231 1389 1160 
C 1574 1128 1901 1069 1901 784 
C 1901 480 1651 435 1402 435 
C 1120 435 762 519 461 882 
C 429 914 410 933 371 933 
C 307 933 294 875 288 836 
C 275 746 198 377 198 313 
C 198 198 672 51 678 44 
C 1030 -64 1293 -64 1402 -64 
C 1728 -64 2534 -39 2534 914 
z
" transform="scale(0.015625)"/>
      <path id="CMSSBX10-74" d="M 1395 2483 
L 1965 2483 
C 2042 2483 2272 2483 2272 2713 
C 2272 2944 2042 2944 1965 2944 
L 1395 2944 
L 1395 3470 
C 1395 3673 1350 3776 1088 3776 
L 890 3776 
C 659 3776 582 3705 582 3470 
L 582 2944 
L 435 2944 
C 365 2944 128 2944 128 2713 
C 128 2483 358 2483 435 2483 
L 563 2483 
L 563 858 
C 563 211 794 -64 1235 -64 
C 1293 -64 1574 -64 1907 38 
C 2016 70 2387 185 2387 307 
C 2387 326 2374 371 2336 505 
C 2304 634 2291 672 2234 672 
C 2202 672 2195 666 2157 627 
C 2086 576 1914 435 1645 435 
C 1491 435 1395 544 1395 968 
L 1395 2483 
z
" transform="scale(0.015625)"/>
      <path id="CMSSBX10-64" d="M 3194 4113 
C 3194 4313 3149 4416 2886 4416 
L 2650 4416 
C 2406 4416 2342 4332 2342 4113 
L 2342 2687 
C 2054 2963 1734 3008 1536 3008 
C 237 3008 237 1779 237 1465 
C 237 1171 237 -64 1504 -64 
C 1773 -64 2048 12 2323 307 
C 2323 70 2413 6 2630 6 
L 2886 6 
C 3130 6 3194 89 3194 313 
L 3194 4113 
z
M 2323 806 
C 2323 697 2323 640 2138 512 
C 1978 409 1830 396 1754 396 
C 1107 396 1107 985 1107 1465 
C 1107 1945 1107 2547 1824 2547 
C 2010 2547 2182 2483 2323 2348 
L 2323 806 
z
" transform="scale(0.015625)"/>
     </defs>
     <use xlink:href="#CMSSBX10-41" transform="scale(0.996264)"/>
     <use xlink:href="#CMSSBX10-6c" transform="translate(73.059766 0)scale(0.996264)"/>
     <use xlink:href="#CMSSBX10-62" transform="translate(98.519985 0)scale(0.996264)"/>
     <use xlink:href="#CMSSBX10-73" transform="translate(154.421773 0)scale(0.996264)"/>
     <use xlink:href="#CMSSBX10-74" transform="translate(196.431138 0)scale(0.996264)"/>
     <use xlink:href="#CMSSBX10-61" transform="translate(236.697042 0)scale(0.996264)"/>
     <use xlink:href="#CMSSBX10-64" transform="translate(289.001237 0)scale(0.996264)"/>
     <use xlink:href="#CMSSBX10-74" transform="translate(344.903025 0)scale(0.996264)"/>
    </g>
   </g>
  </g>
  <g id="axes_2">
   <g id="patch_7">
    <path d="M 276.953361 218.209587 
L 430.377484 218.209587 
L 430.377484 28.645892 
L 276.953361 28.645892 
z
" style="fill: #ffffff"/>
   </g>
   <g id="line2d_23">
    <path d="M 276.953361 172.618318 
L 444.337484 172.618318 
" clip-path="url(#pe59eee3309)" style="fill: none; stroke: #000000; stroke-width: 1.3; stroke-linecap: round"/>
   </g>
   <g id="LineCollection_7">
    <path d="M 294.213575 218.209587 
L 294.213575 134.225671 
" clip-path="url(#pe59eee3309)" style="fill: none; stroke-dasharray: 4.81,2.08; stroke-dashoffset: 0; stroke: #808080; stroke-width: 1.3"/>
   </g>
   <g id="LineCollection_8">
    <path d="M 269.282155 134.225671 
L 294.213575 134.225671 
" clip-path="url(#pe59eee3309)" style="fill: none; stroke-dasharray: 4.81,2.08; stroke-dashoffset: 0; stroke: #808080; stroke-width: 1.3"/>
   </g>
   <g id="LineCollection_9">
    <path d="M 317.227194 218.209587 
L 317.227194 72.807034 
" clip-path="url(#pe59eee3309)" style="fill: none; stroke-dasharray: 4.81,2.08; stroke-dashoffset: 0; stroke: #808080; stroke-width: 1.3"/>
   </g>
   <g id="LineCollection_10">
    <path d="M 269.282155 72.807034 
L 317.227194 72.807034 
" clip-path="url(#pe59eee3309)" style="fill: none; stroke-dasharray: 4.81,2.08; stroke-dashoffset: 0; stroke: #808080; stroke-width: 1.3"/>
   </g>
   <g id="LineCollection_11">
    <path d="M 384.350247 218.209587 
L 384.350247 49.641391 
" clip-path="url(#pe59eee3309)" style="fill: none; stroke-dasharray: 4.81,2.08; stroke-dashoffset: 0; stroke: #808080; stroke-width: 1.3"/>
   </g>
   <g id="LineCollection_12">
    <path d="M 269.282155 49.641391 
L 384.350247 49.641391 
" clip-path="url(#pe59eee3309)" style="fill: none; stroke-dasharray: 4.81,2.08; stroke-dashoffset: 0; stroke: #808080; stroke-width: 1.3"/>
   </g>
   <g id="matplotlib.axis_3">
    <g id="xtick_7">
     <g id="line2d_24">
      <g>
       <use xlink:href="#m237079359a" x="294.213575" y="218.209587" style="fill: #262626; stroke: #262626; stroke-width: 0.8"/>
      </g>
     </g>
     <g id="text_15">
      <!-- $\mathdefault{65}$ -->
      <g style="fill: #262626" transform="translate(288.734108 235.319933)scale(0.11 -0.11)">
       <use xlink:href="#CMR17-36" transform="scale(0.996264)"/>
       <use xlink:href="#CMR17-35" transform="translate(45.690477 0)scale(0.996264)"/>
      </g>
     </g>
    </g>
    <g id="xtick_8">
     <g id="line2d_25">
      <g>
       <use xlink:href="#m237079359a" x="319.144995" y="218.209587" style="fill: #262626; stroke: #262626; stroke-width: 0.8"/>
      </g>
     </g>
     <g id="text_16">
      <!-- $\mathdefault{130}$ -->
      <g style="fill: #262626" transform="translate(310.925794 235.319933)scale(0.11 -0.11)">
       <use xlink:href="#CMR17-31" transform="scale(0.996264)"/>
       <use xlink:href="#CMR17-33" transform="translate(45.690477 0)scale(0.996264)"/>
       <use xlink:href="#CMR17-30" transform="translate(91.380954 0)scale(0.996264)"/>
      </g>
     </g>
    </g>
    <g id="xtick_9">
     <g id="line2d_26">
      <g>
       <use xlink:href="#m237079359a" x="344.076415" y="218.209587" style="fill: #262626; stroke: #262626; stroke-width: 0.8"/>
      </g>
     </g>
     <g id="text_17">
      <!-- $\mathdefault{195}$ -->
      <g style="fill: #262626" transform="translate(335.857214 235.319933)scale(0.11 -0.11)">
       <use xlink:href="#CMR17-31" transform="scale(0.996264)"/>
       <use xlink:href="#CMR17-39" transform="translate(45.690477 0)scale(0.996264)"/>
       <use xlink:href="#CMR17-35" transform="translate(91.380954 0)scale(0.996264)"/>
      </g>
     </g>
    </g>
    <g id="xtick_10">
     <g id="line2d_27">
      <g>
       <use xlink:href="#m237079359a" x="369.007835" y="218.209587" style="fill: #262626; stroke: #262626; stroke-width: 0.8"/>
      </g>
     </g>
     <g id="text_18">
      <!-- $\mathdefault{260}$ -->
      <g style="fill: #262626" transform="translate(360.788634 235.319933)scale(0.11 -0.11)">
       <use xlink:href="#CMR17-32" transform="scale(0.996264)"/>
       <use xlink:href="#CMR17-36" transform="translate(45.690477 0)scale(0.996264)"/>
       <use xlink:href="#CMR17-30" transform="translate(91.380954 0)scale(0.996264)"/>
      </g>
     </g>
    </g>
    <g id="xtick_11">
     <g id="line2d_28">
      <g>
       <use xlink:href="#m237079359a" x="393.939255" y="218.209587" style="fill: #262626; stroke: #262626; stroke-width: 0.8"/>
      </g>
     </g>
     <g id="text_19">
      <!-- $\mathdefault{325}$ -->
      <g style="fill: #262626" transform="translate(385.720054 235.319933)scale(0.11 -0.11)">
       <use xlink:href="#CMR17-33" transform="scale(0.996264)"/>
       <use xlink:href="#CMR17-32" transform="translate(45.690477 0)scale(0.996264)"/>
       <use xlink:href="#CMR17-35" transform="translate(91.380954 0)scale(0.996264)"/>
      </g>
     </g>
    </g>
    <g id="xtick_12">
     <g id="line2d_29">
      <g>
       <use xlink:href="#m237079359a" x="418.870675" y="218.209587" style="fill: #262626; stroke: #262626; stroke-width: 0.8"/>
      </g>
     </g>
     <g id="text_20">
      <!-- $\mathdefault{390}$ -->
      <g style="fill: #262626" transform="translate(410.651474 235.319933)scale(0.11 -0.11)">
       <use xlink:href="#CMR17-33" transform="scale(0.996264)"/>
       <use xlink:href="#CMR17-39" transform="translate(45.690477 0)scale(0.996264)"/>
       <use xlink:href="#CMR17-30" transform="translate(91.380954 0)scale(0.996264)"/>
      </g>
     </g>
    </g>
   </g>
   <g id="matplotlib.axis_4">
    <g id="ytick_7">
     <g id="line2d_30">
      <path d="M 276.953361 202.612574 
L 430.377484 202.612574 
" clip-path="url(#pe59eee3309)" style="fill: none; stroke: #cccccc; stroke-width: 0.8; stroke-linecap: round"/>
     </g>
     <g id="line2d_31">
      <g>
       <use xlink:href="#m7731bd9d3b" x="276.953361" y="202.612574" style="fill: #262626; stroke: #262626; stroke-width: 0.8"/>
      </g>
     </g>
     <g id="text_21">
      <!-- $-2.5\%$ -->
      <g style="fill: #262626" transform="translate(235.794236 206.417747)scale(0.11 -0.11)">
       <use xlink:href="#CMSY10-0" transform="scale(0.996264)"/>
       <use xlink:href="#CMR17-32" transform="translate(77.487468 0)scale(0.996264)"/>
       <use xlink:href="#CMMI12-3a" transform="translate(123.177945 0)scale(0.996264)"/>
       <use xlink:href="#CMR17-35" transform="translate(150.275122 0)scale(0.996264)"/>
       <use xlink:href="#CMR17-25" transform="translate(195.965599 0)scale(0.996264)"/>
      </g>
     </g>
    </g>
    <g id="ytick_8">
     <g id="line2d_32">
      <path d="M 276.953361 172.618318 
L 430.377484 172.618318 
" clip-path="url(#pe59eee3309)" style="fill: none; stroke: #cccccc; stroke-width: 0.8; stroke-linecap: round"/>
     </g>
     <g id="line2d_33">
      <g>
       <use xlink:href="#m7731bd9d3b" x="276.953361" y="172.618318" style="fill: #262626; stroke: #262626; stroke-width: 0.8"/>
      </g>
     </g>
     <g id="text_22">
      <!-- $0\%$ -->
      <g style="fill: #262626" transform="translate(252.841454 176.423492)scale(0.11 -0.11)">
       <use xlink:href="#CMR17-30" transform="scale(0.996264)"/>
       <use xlink:href="#CMR17-25" transform="translate(45.690477 0)scale(0.996264)"/>
      </g>
     </g>
    </g>
    <g id="ytick_9">
     <g id="line2d_34">
      <path d="M 276.953361 142.624063 
L 430.377484 142.624063 
" clip-path="url(#pe59eee3309)" style="fill: none; stroke: #cccccc; stroke-width: 0.8; stroke-linecap: round"/>
     </g>
     <g id="line2d_35">
      <g>
       <use xlink:href="#m7731bd9d3b" x="276.953361" y="142.624063" style="fill: #262626; stroke: #262626; stroke-width: 0.8"/>
      </g>
     </g>
     <g id="text_23">
      <!-- $2.5\%$ -->
      <g style="fill: #262626" transform="translate(244.317845 146.429236)scale(0.11 -0.11)">
       <use xlink:href="#CMR17-32" transform="scale(0.996264)"/>
       <use xlink:href="#CMMI12-3a" transform="translate(45.690477 0)scale(0.996264)"/>
       <use xlink:href="#CMR17-35" transform="translate(72.787654 0)scale(0.996264)"/>
       <use xlink:href="#CMR17-25" transform="translate(118.478131 0)scale(0.996264)"/>
      </g>
     </g>
    </g>
    <g id="ytick_10">
     <g id="line2d_36">
      <path d="M 276.953361 112.629807 
L 430.377484 112.629807 
" clip-path="url(#pe59eee3309)" style="fill: none; stroke: #cccccc; stroke-width: 0.8; stroke-linecap: round"/>
     </g>
     <g id="line2d_37">
      <g>
       <use xlink:href="#m7731bd9d3b" x="276.953361" y="112.629807" style="fill: #262626; stroke: #262626; stroke-width: 0.8"/>
      </g>
     </g>
     <g id="text_24">
      <!-- $5\%$ -->
      <g style="fill: #262626" transform="translate(252.841454 116.43498)scale(0.11 -0.11)">
       <use xlink:href="#CMR17-35" transform="scale(0.996264)"/>
       <use xlink:href="#CMR17-25" transform="translate(45.690477 0)scale(0.996264)"/>
      </g>
     </g>
    </g>
    <g id="ytick_11">
     <g id="line2d_38">
      <path d="M 276.953361 82.635552 
L 430.377484 82.635552 
" clip-path="url(#pe59eee3309)" style="fill: none; stroke: #cccccc; stroke-width: 0.8; stroke-linecap: round"/>
     </g>
     <g id="line2d_39">
      <g>
       <use xlink:href="#m7731bd9d3b" x="276.953361" y="82.635552" style="fill: #262626; stroke: #262626; stroke-width: 0.8"/>
      </g>
     </g>
     <g id="text_25">
      <!-- $7.5\%$ -->
      <g style="fill: #262626" transform="translate(244.317845 86.440725)scale(0.11 -0.11)">
       <use xlink:href="#CMR17-37" transform="scale(0.996264)"/>
       <use xlink:href="#CMMI12-3a" transform="translate(45.690477 0)scale(0.996264)"/>
       <use xlink:href="#CMR17-35" transform="translate(72.787654 0)scale(0.996264)"/>
       <use xlink:href="#CMR17-25" transform="translate(118.478131 0)scale(0.996264)"/>
      </g>
     </g>
    </g>
    <g id="ytick_12">
     <g id="line2d_40">
      <path d="M 276.953361 52.641296 
L 430.377484 52.641296 
" clip-path="url(#pe59eee3309)" style="fill: none; stroke: #cccccc; stroke-width: 0.8; stroke-linecap: round"/>
     </g>
     <g id="line2d_41">
      <g>
       <use xlink:href="#m7731bd9d3b" x="276.953361" y="52.641296" style="fill: #262626; stroke: #262626; stroke-width: 0.8"/>
      </g>
     </g>
     <g id="text_26">
      <!-- $10\%$ -->
      <g style="fill: #262626" transform="translate(247.361986 56.446469)scale(0.11 -0.11)">
       <use xlink:href="#CMR17-31" transform="scale(0.996264)"/>
       <use xlink:href="#CMR17-30" transform="translate(45.690477 0)scale(0.996264)"/>
       <use xlink:href="#CMR17-25" transform="translate(91.380954 0)scale(0.996264)"/>
      </g>
     </g>
    </g>
   </g>
   <g id="line2d_42">
    <path d="M 284.624567 212.161185 
L 288.460171 171.82707 
L 292.295774 145.119345 
L 296.131377 125.497343 
L 299.96698 111.325897 
L 303.802583 99.879729 
L 307.638186 91.158839 
L 311.473789 83.528061 
L 315.309392 77.532449 
L 319.144995 72.081893 
L 322.980598 67.721448 
L 326.816201 63.906059 
" clip-path="url(#pe59eee3309)" style="fill: none; stroke: #207720; stroke-width: 1.5; stroke-linecap: round"/>
   </g>
   <g id="line2d_43">
    <path d="M 307.638186 89.158462 
L 313.391591 78.25735 
L 319.144995 70.081516 
L 324.8984 64.085904 
L 330.651804 58.635348 
L 336.405209 54.274903 
L 342.158614 50.459514 
L 347.912018 47.18918 
" clip-path="url(#pe59eee3309)" style="fill: none; stroke: #234990; stroke-width: 1.5; stroke-linecap: round"/>
   </g>
   <g id="line2d_44">
    <path d="M 345.994217 62.702569 
L 353.665423 58.893059 
L 361.336629 56.17198 
L 369.007835 53.450901 
L 376.679041 51.274038 
L 384.350247 49.641391 
L 392.021454 48.008743 
L 399.69266 46.376096 
L 407.363866 44.743449 
L 415.035072 43.655017 
L 422.706278 42.566586 
" clip-path="url(#pe59eee3309)" style="fill: none; stroke: #e23726; stroke-width: 1.5; stroke-linecap: round"/>
   </g>
   <g id="patch_8">
    <path d="M 276.953361 218.209587 
L 276.953361 28.645892 
" style="fill: none; stroke: #262626; stroke-width: 1.25; stroke-linejoin: miter; stroke-linecap: square"/>
   </g>
   <g id="patch_9">
    <path d="M 430.377484 218.209587 
L 430.377484 28.645892 
" style="fill: none; stroke: #262626; stroke-width: 1.25; stroke-linejoin: miter; stroke-linecap: square"/>
   </g>
   <g id="patch_10">
    <path d="M 276.953361 218.209587 
L 430.377484 218.209587 
" style="fill: none; stroke: #262626; stroke-width: 1.25; stroke-linejoin: miter; stroke-linecap: square"/>
   </g>
   <g id="patch_11">
    <path d="M 276.953361 28.645892 
L 430.377484 28.645892 
" style="fill: none; stroke: #262626; stroke-width: 1.25; stroke-linejoin: miter; stroke-linecap: square"/>
   </g>
   <g id="text_27">
    <!-- \textbf{Würzburg} -->
    <g style="fill: #262626" transform="translate(322.33138 22.645892)scale(0.14 -0.14)">
     <defs>
      <path id="CMSSBX10-57" d="M 6464 4109 
C 6490 4198 6490 4224 6490 4230 
C 6490 4416 6317 4416 6227 4416 
L 6093 4416 
C 5965 4416 5786 4416 5709 4135 
L 5030 1629 
C 4941 1304 4883 1094 4826 814 
L 4819 814 
C 4787 986 4787 999 4634 1559 
L 3942 4135 
C 3872 4383 3744 4416 3558 4416 
L 3136 4416 
C 3002 4416 2822 4416 2746 4135 
L 2182 2048 
L 2022 1419 
C 1952 1120 1901 916 1888 814 
L 1882 814 
C 1830 1145 1677 1705 1568 2106 
L 1018 4141 
C 941 4416 755 4416 634 4416 
L 416 4416 
C 326 4416 154 4416 154 4230 
C 154 4224 154 4198 179 4109 
L 1229 267 
C 1299 0 1478 0 1613 0 
L 2035 0 
C 2170 0 2349 0 2426 293 
L 3098 2780 
C 3194 3123 3238 3301 3302 3607 
L 3309 3607 
C 3386 3238 3424 3079 3539 2665 
L 4192 267 
C 4262 0 4442 0 4570 0 
L 5030 0 
C 5165 0 5344 0 5414 267 
L 6464 4109 
z
" transform="scale(0.015625)"/>
      <path id="CMSSBX10-7f" d="M 934 4480 
C 730 4480 627 4441 627 4185 
L 627 4038 
C 627 3801 717 3743 934 3743 
L 1222 3743 
C 1530 3743 1530 3903 1530 4108 
C 1530 4326 1530 4480 1222 4480 
L 934 4480 
z
M 2579 3743 
C 2784 3743 2886 3782 2886 4038 
L 2886 4185 
C 2886 4422 2797 4480 2579 4480 
L 2291 4480 
C 1984 4480 1984 4319 1984 4115 
C 1984 3897 1984 3743 2291 3743 
L 2579 3743 
z
" transform="scale(0.015625)"/>
      <path id="CMSSBX10-75" d="M 3200 2636 
C 3200 2841 3155 2944 2893 2944 
L 2637 2944 
C 2394 2944 2330 2860 2330 2636 
L 2330 1115 
C 2330 692 2106 326 1651 326 
C 1293 326 1254 416 1254 756 
L 1254 2636 
C 1254 2841 1210 2944 947 2944 
L 691 2944 
C 461 2944 384 2873 384 2636 
L 384 814 
C 384 128 755 -64 1421 -64 
C 1594 -64 2048 -64 2349 480 
L 2349 313 
C 2349 108 2394 6 2656 6 
L 2893 6 
C 3136 6 3200 89 3200 313 
L 3200 2636 
z
" transform="scale(0.015625)"/>
      <path id="CMSSBX10-7a" d="M 2726 2457 
C 2790 2540 2803 2572 2803 2675 
C 2803 2944 2605 2944 2496 2944 
L 602 2944 
C 518 2944 294 2944 294 2700 
C 294 2463 499 2463 672 2463 
C 877 2463 1395 2476 1600 2476 
L 1837 2476 
L 275 486 
C 211 403 198 371 198 268 
C 198 0 397 0 506 0 
L 2515 0 
C 2598 0 2822 0 2822 236 
C 2822 480 2624 480 2438 480 
C 2118 480 1779 467 1459 467 
L 1165 467 
L 2726 2457 
z
" transform="scale(0.015625)"/>
     </defs>
     <use xlink:href="#CMSSBX10-57" transform="scale(0.996264)"/>
     <use xlink:href="#CMSSBX10-7f" transform="translate(104.054817 0)scale(0.996264)"/>
     <use xlink:href="#CMSSBX10-75" transform="translate(103.501335 0)scale(0.996264)"/>
     <use xlink:href="#CMSSBX10-72" transform="translate(159.403123 0)scale(0.996264)"/>
     <use xlink:href="#CMSSBX10-7a" transform="translate(196.486534 0)scale(0.996264)"/>
     <use xlink:href="#CMSSBX10-62" transform="translate(243.94773 0)scale(0.996264)"/>
     <use xlink:href="#CMSSBX10-75" transform="translate(299.849518 0)scale(0.996264)"/>
     <use xlink:href="#CMSSBX10-72" transform="translate(355.751306 0)scale(0.996264)"/>
     <use xlink:href="#CMSSBX10-67" transform="translate(392.834716 0)scale(0.996264)"/>
    </g>
   </g>
  </g>
  <g id="text_28">
   <!-- \textbf{Picking Rate per hour} -->
   <g style="fill: #262626" transform="translate(161.253317 257.973141)scale(0.12 -0.12)">
    <defs>
     <path id="CMSSBX10-50" d="M 1523 1728 
L 2496 1728 
C 3501 1728 4102 2150 4102 3052 
C 4102 3999 3475 4416 2490 4416 
L 890 4416 
C 659 4416 582 4345 582 4108 
L 582 308 
C 582 76 653 0 890 0 
L 1216 0 
C 1459 0 1523 83 1523 308 
L 1523 1728 
z
M 2291 3865 
C 3130 3865 3213 3490 3213 3052 
C 3213 2633 3142 2233 2285 2233 
L 1504 2233 
L 1504 3865 
L 2291 3865 
z
" transform="scale(0.015625)"/>
     <path id="CMSSBX10-63" d="M 2925 326 
C 2925 396 2899 694 2886 778 
C 2886 797 2874 862 2810 862 
C 2784 862 2771 862 2707 797 
C 2598 700 2298 435 1773 435 
C 1107 435 1107 1089 1107 1504 
C 1107 2028 1139 2572 1792 2572 
C 2208 2572 2381 2469 2611 2274 
C 2688 2203 2701 2203 2726 2203 
C 2790 2203 2803 2261 2810 2287 
C 2822 2339 2886 2700 2886 2732 
C 2886 2790 2842 2815 2733 2867 
C 2426 3007 2234 3072 1786 3072 
C 832 3072 237 2623 237 1491 
C 237 416 787 -64 1754 -64 
C 1926 -64 2310 -58 2739 160 
C 2918 256 2925 262 2925 326 
z
" transform="scale(0.015625)"/>
     <path id="CMSSBX10-6b" d="M 2003 1730 
L 2989 2640 
C 3066 2710 3085 2729 3085 2780 
C 3085 2913 2957 2913 2867 2913 
L 2496 2913 
C 2381 2913 2259 2913 2112 2780 
L 1190 1928 
L 1190 4109 
C 1190 4313 1146 4416 883 4416 
L 749 4416 
C 518 4416 442 4345 442 4109 
L 442 306 
C 442 76 512 0 749 0 
L 864 0 
C 1107 0 1171 83 1171 306 
L 1171 967 
L 1472 1241 
L 2304 159 
C 2413 19 2458 0 2643 0 
L 2950 0 
C 3040 0 3181 0 3181 140 
C 3181 153 3181 198 3117 280 
L 2003 1730 
z
" transform="scale(0.015625)"/>
     <path id="CMSSBX10-52" d="M 3091 2028 
C 3494 2124 4102 2367 4102 3158 
C 4102 4416 2714 4416 2426 4416 
L 890 4416 
C 659 4416 582 4345 582 4108 
L 582 305 
C 582 76 653 0 890 0 
L 1197 0 
C 1440 0 1504 83 1504 305 
L 1504 1971 
L 2214 1971 
L 3264 153 
C 3354 0 3424 0 3565 0 
L 3942 0 
C 4070 0 4179 0 4179 191 
L 3091 2028 
z
M 1504 2432 
L 1504 3865 
L 2336 3865 
C 3078 3865 3213 3572 3213 3151 
C 3213 2776 3123 2432 2336 2432 
L 1504 2432 
z
" transform="scale(0.015625)"/>
     <path id="CMSSBX10-65" d="M 2758 1388 
C 2906 1388 3066 1395 3066 1683 
C 3066 2520 2682 3072 1728 3072 
C 704 3072 198 2494 198 1510 
C 198 448 806 -64 1811 -64 
C 2054 -64 2419 -32 2842 179 
C 2982 249 3027 268 3027 345 
C 3027 390 3008 578 3002 630 
C 2976 831 2970 837 2912 837 
C 2886 837 2874 837 2803 772 
C 2426 442 2042 396 1837 396 
C 1114 396 1037 973 1018 1388 
L 2758 1388 
z
M 1024 1728 
C 1043 2124 1171 2611 1728 2611 
C 2240 2611 2336 2234 2355 1728 
L 1024 1728 
z
" transform="scale(0.015625)"/>
     <path id="CMSSBX10-70" d="M 1261 256 
C 1549 -64 1901 -64 1990 -64 
C 3347 -64 3347 1164 3347 1484 
C 3347 1798 3347 3008 2189 3008 
C 1811 3008 1472 2854 1242 2636 
C 1242 2873 1152 2937 934 2937 
L 698 2937 
C 467 2937 390 2867 390 2630 
L 390 -912 
C 390 -1140 461 -1216 698 -1216 
L 954 -1216 
C 1197 -1216 1261 -1133 1261 -912 
L 1261 256 
z
M 1261 2297 
C 1331 2361 1542 2508 1818 2508 
C 2470 2508 2477 1753 2477 1471 
C 2477 1215 2477 396 1754 396 
C 1606 396 1491 448 1414 505 
C 1261 614 1261 646 1261 761 
L 1261 2297 
z
" transform="scale(0.015625)"/>
     <path id="CMSSBX10-68" d="M 3200 2085 
C 3200 2745 2918 3008 2266 3008 
C 1626 3008 1331 2566 1242 2386 
L 1235 2386 
L 1235 4113 
C 1235 4313 1190 4416 928 4416 
L 691 4416 
C 461 4416 384 4345 384 4113 
L 384 307 
C 384 76 454 0 691 0 
L 947 0 
C 1190 0 1254 83 1254 307 
L 1254 1725 
C 1254 2284 1626 2547 1958 2547 
C 2266 2547 2330 2399 2330 2072 
L 2330 307 
C 2330 102 2374 0 2637 0 
L 2893 0 
C 3136 0 3200 83 3200 307 
L 3200 2085 
z
" transform="scale(0.015625)"/>
     <path id="CMSSBX10-6f" d="M 3315 1458 
C 3315 2520 2803 3072 1760 3072 
C 691 3072 198 2500 198 1458 
C 198 403 749 -64 1754 -64 
C 2758 -64 3315 396 3315 1458 
z
M 1760 435 
C 1069 435 1069 1018 1069 1536 
C 1069 2034 1069 2611 1754 2611 
C 2445 2611 2445 2041 2445 1536 
C 2445 1024 2445 435 1760 435 
z
" transform="scale(0.015625)"/>
    </defs>
    <use xlink:href="#CMSSBX10-50" transform="scale(0.996264)"/>
    <use xlink:href="#CMSSBX10-69" transform="translate(70.015609 0)scale(0.996264)"/>
    <use xlink:href="#CMSSBX10-63" transform="translate(95.475828 0)scale(0.996264)"/>
    <use xlink:href="#CMSSBX10-6b" transform="translate(144.182339 0)scale(0.996264)"/>
    <use xlink:href="#CMSSBX10-69" transform="translate(197.03997 0)scale(0.996264)"/>
    <use xlink:href="#CMSSBX10-6e" transform="translate(222.500189 0)scale(0.996264)"/>
    <use xlink:href="#CMSSBX10-67" transform="translate(278.401976 0)scale(0.996264)"/>
    <use xlink:href="#CMSSBX10-52" transform="translate(369.726684 0)scale(0.996264)"/>
    <use xlink:href="#CMSSBX10-61" transform="translate(439.742293 0)scale(0.996264)"/>
    <use xlink:href="#CMSSBX10-74" transform="translate(492.046488 0)scale(0.996264)"/>
    <use xlink:href="#CMSSBX10-65" transform="translate(532.312392 0)scale(0.996264)"/>
    <use xlink:href="#CMSSBX10-70" transform="translate(619.762728 0)scale(0.996264)"/>
    <use xlink:href="#CMSSBX10-65" transform="translate(678.708672 0)scale(0.996264)"/>
    <use xlink:href="#CMSSBX10-72" transform="translate(729.629125 0)scale(0.996264)"/>
    <use xlink:href="#CMSSBX10-68" transform="translate(803.242419 0)scale(0.996264)"/>
    <use xlink:href="#CMSSBX10-6f" transform="translate(859.144207 0)scale(0.996264)"/>
    <use xlink:href="#CMSSBX10-75" transform="translate(913.939031 0)scale(0.996264)"/>
    <use xlink:href="#CMSSBX10-72" transform="translate(969.840819 0)scale(0.996264)"/>
   </g>
  </g>
  <g id="legend_1">
   <g id="patch_12">
    <path d="M 3 272.997634 
L 68.933699 272.997634 
Q 70.933699 272.997634 70.933699 270.997634 
L 70.933699 242.186099 
Q 70.933699 240.186099 68.933699 240.186099 
L 3 240.186099 
Q 1 240.186099 1 242.186099 
L 1 270.997634 
Q 1 272.997634 3 272.997634 
z
" style="fill: #ffffff; opacity: 0.8; stroke: #cccccc; stroke-linejoin: miter"/>
   </g>
   <g id="line2d_45">
    <path d="M 2 244.686099 
L 12 244.686099 
L 22 244.686099 
" style="fill: none; stroke: #207720; stroke-width: 1.5; stroke-linecap: round"/>
   </g>
   <g id="text_29">
    <!-- In Store -->
    <g style="fill: #262626" transform="translate(30 248.186099)scale(0.1 -0.1)">
     <defs>
      <path id="CMSS17-49" d="M 1094 4416 
L 557 4416 
L 557 0 
L 1094 0 
L 1094 4416 
z
" transform="scale(0.015625)"/>
      <path id="CMSS17-6e" d="M 2618 1878 
C 2618 2283 2522 2816 1798 2816 
C 1389 2816 1120 2604 941 2386 
L 941 2783 
L 474 2783 
L 474 0 
L 960 0 
L 960 1556 
C 960 1962 1114 2425 1549 2425 
C 2112 2425 2131 2045 2131 1826 
L 2131 0 
L 2618 0 
L 2618 1878 
z
" transform="scale(0.015625)"/>
      <path id="CMSS17-53" d="M 2797 4230 
C 2515 4396 2208 4544 1690 4544 
C 864 4544 333 3934 333 3309 
C 333 3064 403 2787 653 2504 
C 902 2220 1184 2143 1542 2053 
C 1690 2014 1939 1943 1984 1924 
C 2342 1782 2515 1454 2515 1144 
C 2515 738 2202 307 1645 307 
C 1453 307 890 339 358 829 
L 269 320 
C 794 -64 1363 -128 1651 -128 
C 2438 -128 3002 494 3002 1202 
C 3002 1460 2925 1789 2656 2092 
C 2394 2381 2163 2446 1638 2588 
C 1338 2665 1146 2717 986 2916 
C 877 3058 819 3193 819 3367 
C 819 3728 1126 4121 1690 4121 
C 1971 4121 2336 4063 2707 3715 
L 2797 4230 
z
" transform="scale(0.015625)"/>
      <path id="CMSS17-74" d="M 1069 2380 
L 1901 2380 
L 1901 2752 
L 1069 2752 
L 1069 3520 
L 614 3520 
L 614 2752 
L 109 2752 
L 109 2380 
L 602 2380 
L 602 751 
C 602 384 685 -64 1107 -64 
C 1427 -64 1722 25 2003 172 
L 1901 551 
C 1747 416 1562 339 1363 339 
C 1082 339 1069 699 1069 860 
L 1069 2380 
z
" transform="scale(0.015625)"/>
      <path id="CMSS17-6f" d="M 2829 1356 
C 2829 2175 2221 2816 1504 2816 
C 768 2816 173 2156 173 1356 
C 173 544 787 -64 1498 -64 
C 2227 -64 2829 563 2829 1356 
z
M 1504 339 
C 1050 339 659 710 659 1407 
C 659 2150 1114 2425 1498 2425 
C 1914 2425 2342 2124 2342 1407 
C 2342 684 1926 339 1504 339 
z
" transform="scale(0.015625)"/>
      <path id="CMSS17-72" d="M 954 1369 
C 954 1974 1395 2379 1958 2392 
L 1958 2816 
C 1549 2809 1165 2604 934 2270 
L 934 2783 
L 480 2783 
L 480 0 
L 954 0 
L 954 1369 
z
" transform="scale(0.015625)"/>
      <path id="CMSS17-65" d="M 2502 1375 
C 2502 1587 2490 2001 2285 2347 
C 2061 2713 1696 2816 1421 2816 
C 755 2816 192 2184 192 1363 
C 192 579 774 -64 1510 -64 
C 1798 -64 2150 19 2470 249 
C 2470 275 2458 414 2451 421 
C 2451 433 2432 629 2432 655 
C 2125 408 1773 326 1517 326 
C 1107 326 666 667 646 1375 
L 2502 1375 
z
M 698 1728 
C 781 2086 1062 2425 1421 2425 
C 1517 2425 1965 2412 2080 1728 
L 698 1728 
z
" transform="scale(0.015625)"/>
     </defs>
     <use xlink:href="#CMSS17-49" transform="scale(0.996264)"/>
     <use xlink:href="#CMSS17-6e" transform="translate(25.783926 0)scale(0.996264)"/>
     <use xlink:href="#CMSS17-53" transform="translate(105.217981 0)scale(0.996264)"/>
     <use xlink:href="#CMSS17-74" transform="translate(157.266498 0)scale(0.996264)"/>
     <use xlink:href="#CMSS17-6f" transform="translate(191.098064 0)scale(0.996264)"/>
     <use xlink:href="#CMSS17-72" transform="translate(235.339234 0)scale(0.996264)"/>
     <use xlink:href="#CMSS17-65" transform="translate(267.249006 0)scale(0.996264)"/>
    </g>
   </g>
   <g id="line2d_46">
    <path d="M 2 255.623277 
L 12 255.623277 
L 22 255.623277 
" style="fill: none; stroke: #234990; stroke-width: 1.5; stroke-linecap: round"/>
   </g>
   <g id="text_30">
    <!-- Darkstore -->
    <g style="fill: #262626" transform="translate(30 259.123277)scale(0.1 -0.1)">
     <defs>
      <path id="CMSS17-44" d="M 570 4416 
L 570 0 
L 2144 0 
C 3194 0 4000 981 4000 2169 
C 4000 3396 3194 4416 2144 4416 
L 570 4416 
z
M 1094 358 
L 1094 4057 
L 2003 4057 
C 2861 4057 3475 3275 3475 2169 
C 3475 1108 2867 358 2003 358 
L 1094 358 
z
" transform="scale(0.015625)"/>
      <path id="CMSS17-61" d="M 2406 1789 
C 2406 2399 1978 2816 1402 2816 
C 1120 2816 813 2764 461 2559 
L 499 2133 
C 659 2250 934 2438 1395 2438 
C 1722 2438 1920 2185 1920 1782 
L 1920 1536 
C 896 1504 256 1209 256 711 
C 256 452 416 -64 947 -64 
C 1043 -64 1562 -52 1933 224 
L 1933 -13 
L 2406 -13 
L 2406 1789 
z
M 1920 824 
C 1920 711 1920 559 1728 446 
C 1562 339 1350 326 1261 326 
C 941 326 723 503 723 723 
C 723 1165 1722 1209 1920 1216 
L 1920 824 
z
" transform="scale(0.015625)"/>
      <path id="CMSS17-6b" d="M 1696 1686 
L 2688 2735 
L 2074 2735 
L 954 1552 
L 954 4416 
L 480 4416 
L 480 0 
L 947 0 
L 947 891 
L 1376 1342 
L 2278 0 
L 2822 0 
L 1696 1686 
z
" transform="scale(0.015625)"/>
      <path id="CMSS17-73" d="M 2061 2623 
C 1683 2803 1389 2816 1197 2816 
C 742 2816 198 2655 198 2009 
C 198 1363 902 1222 1094 1183 
C 1389 1126 1715 1062 1715 742 
C 1715 339 1254 339 1171 339 
C 915 339 563 409 243 639 
L 166 211 
C 531 0 883 -64 1178 -64 
C 1965 -64 2163 416 2163 780 
C 2163 1094 1984 1305 1862 1401 
C 1651 1567 1574 1587 1050 1695 
C 960 1708 646 1779 646 2067 
C 646 2431 1050 2431 1139 2431 
C 1555 2431 1811 2303 1984 2207 
L 2061 2623 
z
" transform="scale(0.015625)"/>
     </defs>
     <use xlink:href="#CMSS17-44" transform="scale(0.996264)"/>
     <use xlink:href="#CMSS17-61" transform="translate(67.542842 0)scale(0.996264)"/>
     <use xlink:href="#CMSS17-72" transform="translate(109.862308 0)scale(0.996264)"/>
     <use xlink:href="#CMSS17-6b" transform="translate(141.772081 0)scale(0.996264)"/>
     <use xlink:href="#CMSS17-73" transform="translate(187.37457 0)scale(0.996264)"/>
     <use xlink:href="#CMSS17-74" transform="translate(223.288112 0)scale(0.996264)"/>
     <use xlink:href="#CMSS17-6f" transform="translate(257.119679 0)scale(0.996264)"/>
     <use xlink:href="#CMSS17-72" transform="translate(301.360848 0)scale(0.996264)"/>
     <use xlink:href="#CMSS17-65" transform="translate(333.270621 0)scale(0.996264)"/>
    </g>
   </g>
   <g id="line2d_47">
    <path d="M 2 266.560456 
L 12 266.560456 
L 22 266.560456 
" style="fill: none; stroke: #e23726; stroke-width: 1.5; stroke-linecap: round"/>
   </g>
   <g id="text_31">
    <!-- FC -->
    <g style="fill: #262626" transform="translate(30 270.060456)scale(0.1 -0.1)">
     <defs>
      <path id="CMSS17-46" d="M 2918 1984 
L 2918 2374 
L 1101 2374 
L 1101 3993 
L 1882 3993 
C 1958 3993 2035 3987 2112 3987 
L 3168 3987 
L 3168 4403 
L 563 4403 
L 563 0 
L 1101 0 
L 1101 1984 
L 2918 1984 
z
" transform="scale(0.015625)"/>
      <path id="CMSS17-43" d="M 3501 705 
C 3072 416 2874 332 2355 332 
C 1459 332 934 1304 934 2191 
C 934 3137 1472 4070 2381 4070 
C 2790 4070 3059 3954 3386 3748 
L 3475 4255 
C 3168 4409 2778 4480 2387 4480 
C 1158 4480 397 3343 397 2191 
C 397 924 1299 -77 2323 -77 
C 2874 -77 3066 -32 3539 268 
L 3501 705 
z
" transform="scale(0.015625)"/>
     </defs>
     <use xlink:href="#CMSS17-46" transform="scale(0.996264)"/>
     <use xlink:href="#CMSS17-43" transform="translate(50.687105 0)scale(0.996264)"/>
    </g>
   </g>
  </g>
  <g id="legend_2">
   <g id="line2d_48">
    <path d="M 286.774 259.566231 
L 296.77 259.566231 
L 306.766 259.566231 
" style="fill: none; stroke-dasharray: 4.81,2.08; stroke-dashoffset: 0; stroke: #808080; stroke-width: 1.3"/>
   </g>
   <g id="text_32">
    <!-- Assumed Base Picking Rate -->
    <g style="fill: #262626" transform="translate(314.7628 263.064831)scale(0.09996 -0.09996)">
     <defs>
      <path id="CMSS17-41" d="M 2272 4416 
L 1722 4416 
L 166 0 
L 653 0 
L 1101 1280 
L 2816 1280 
L 3270 0 
L 3827 0 
L 2272 4416 
z
M 2694 1638 
L 1222 1638 
C 1530 2530 1914 3638 1958 3924 
L 1965 3924 
C 2010 3663 2138 3281 2246 2956 
L 2694 1638 
z
" transform="scale(0.015625)"/>
      <path id="CMSS17-75" d="M 2618 2752 
L 2131 2752 
L 2131 976 
C 2131 500 1786 307 1421 307 
C 998 307 960 448 960 712 
L 960 2752 
L 474 2752 
L 474 680 
C 474 179 646 -64 1088 -64 
C 1306 -64 1798 -13 2144 307 
L 2144 -13 
L 2618 -13 
L 2618 2752 
z
" transform="scale(0.015625)"/>
      <path id="CMSS17-6d" d="M 4288 1878 
C 4288 2309 4179 2816 3462 2816 
C 2982 2816 2694 2515 2566 2328 
C 2451 2668 2182 2816 1798 2816 
C 1363 2816 1088 2566 941 2386 
L 941 2783 
L 474 2783 
L 474 0 
L 960 0 
L 960 1556 
C 960 1936 1101 2425 1555 2425 
C 2138 2425 2138 2013 2138 1826 
L 2138 0 
L 2624 0 
L 2624 1556 
C 2624 1936 2765 2425 3219 2425 
C 3802 2425 3802 2013 3802 1826 
L 3802 0 
L 4288 0 
L 4288 1878 
z
" transform="scale(0.015625)"/>
      <path id="CMSS17-64" d="M 2611 4416 
L 2138 4416 
L 2138 2495 
C 1939 2662 1613 2816 1254 2816 
C 672 2816 211 2179 211 1375 
C 211 572 666 -64 1235 -64 
C 1677 -64 1971 172 2125 307 
L 2125 -13 
L 2611 -13 
L 2611 4416 
z
M 2125 851 
C 2125 760 2125 663 1926 488 
C 1798 378 1645 326 1498 326 
C 1152 326 698 585 698 1369 
C 698 2185 1210 2425 1562 2425 
C 1798 2425 1990 2308 2125 2114 
L 2125 851 
z
" transform="scale(0.015625)"/>
      <path id="CMSS17-42" d="M 570 4416 
L 570 0 
L 2163 0 
C 3034 0 3667 575 3667 1200 
C 3667 1684 3251 2175 2502 2316 
C 3334 2559 3501 3039 3501 3311 
C 3501 3880 2874 4416 1997 4416 
L 570 4416 
z
M 1088 2496 
L 1088 4057 
L 1824 4057 
C 2483 4057 3002 3722 3002 3305 
C 3002 2925 2592 2496 1766 2496 
L 1088 2496 
z
M 1088 358 
L 1088 2105 
L 1939 2105 
C 2630 2105 3162 1678 3162 1206 
C 3162 772 2694 358 1984 358 
L 1088 358 
z
" transform="scale(0.015625)"/>
      <path id="CMSS17-50" d="M 2106 1856 
C 2874 1856 3501 2447 3501 3139 
C 3501 3818 2899 4416 2067 4416 
L 570 4416 
L 570 0 
L 1107 0 
L 1107 1856 
L 2106 1856 
z
M 1926 4057 
C 2669 4057 2995 3598 2995 3139 
C 2995 2711 2694 2227 1926 2227 
L 1094 2227 
L 1094 4057 
L 1926 4057 
z
" transform="scale(0.015625)"/>
      <path id="CMSS17-69" d="M 979 4224 
L 442 4224 
L 442 3686 
L 979 3686 
L 979 4224 
z
M 947 2752 
L 474 2752 
L 474 0 
L 947 0 
L 947 2752 
z
" transform="scale(0.015625)"/>
      <path id="CMSS17-63" d="M 2464 2540 
C 2464 2585 2170 2713 2093 2739 
C 1882 2816 1613 2816 1542 2816 
C 710 2816 211 2092 211 1363 
C 211 595 768 -64 1517 -64 
C 1946 -64 2253 76 2502 243 
L 2464 665 
C 2189 454 1869 339 1523 339 
C 1024 339 698 774 698 1369 
C 698 1830 909 2412 1549 2412 
C 1901 2412 2099 2342 2394 2143 
L 2464 2540 
z
" transform="scale(0.015625)"/>
      <path id="CMSS17-67" d="M 2848 2816 
C 2483 2809 2170 2739 1914 2617 
C 1702 2783 1485 2816 1338 2816 
C 781 2816 358 2356 358 1824 
C 358 1481 550 1222 563 1209 
C 448 1049 384 876 384 684 
C 384 460 474 300 544 211 
C 211 6 166 -308 166 -429 
C 166 -896 749 -1280 1498 -1280 
C 2253 -1280 2835 -896 2835 -423 
C 2835 460 1856 467 1587 467 
L 1069 467 
C 973 467 717 467 717 793 
C 717 921 774 1004 781 1011 
C 877 940 1075 832 1338 832 
C 1869 832 2310 1279 2310 1824 
C 2310 2128 2170 2349 2112 2425 
L 2131 2425 
C 2150 2425 2419 2444 2515 2444 
C 2720 2444 2739 2438 2918 2419 
L 2848 2816 
z
M 1338 1184 
C 1120 1184 813 1317 813 1824 
C 813 2375 1165 2463 1331 2463 
C 1549 2463 1856 2330 1856 1824 
C 1856 1272 1504 1184 1338 1184 
z
M 1581 0 
C 1734 0 2381 0 2381 -436 
C 2381 -711 1984 -928 1504 -928 
C 1018 -928 621 -717 621 -429 
C 621 -397 621 0 1062 0 
L 1581 0 
z
" transform="scale(0.015625)"/>
      <path id="CMSS17-52" d="M 2522 2099 
L 2534 2105 
C 3533 2450 3539 3125 3539 3244 
C 3539 3838 2925 4416 2003 4416 
L 570 4416 
L 570 0 
L 1094 0 
L 1094 2041 
L 2035 2041 
L 3168 0 
L 3706 0 
L 2522 2099 
z
M 1094 2432 
L 1094 4057 
L 1933 4057 
C 2746 4057 3034 3607 3034 3244 
C 3034 2907 2778 2432 1933 2432 
L 1094 2432 
z
" transform="scale(0.015625)"/>
     </defs>
     <use xlink:href="#CMSS17-41" transform="scale(0.996264)"/>
     <use xlink:href="#CMSS17-73" transform="translate(62.217855 0)scale(0.996264)"/>
     <use xlink:href="#CMSS17-73" transform="translate(98.131397 0)scale(0.996264)"/>
     <use xlink:href="#CMSS17-75" transform="translate(134.044939 0)scale(0.996264)"/>
     <use xlink:href="#CMSS17-6d" transform="translate(182.249882 0)scale(0.996264)"/>
     <use xlink:href="#CMSS17-65" transform="translate(256.479136 0)scale(0.996264)"/>
     <use xlink:href="#CMSS17-64" transform="translate(298.117959 0)scale(0.996264)"/>
     <use xlink:href="#CMSS17-42" transform="translate(377.552014 0)scale(0.996264)"/>
     <use xlink:href="#CMSS17-61" transform="translate(439.890055 0)scale(0.996264)"/>
     <use xlink:href="#CMSS17-73" transform="translate(484.811975 0)scale(0.996264)"/>
     <use xlink:href="#CMSS17-65" transform="translate(520.725517 0)scale(0.996264)"/>
     <use xlink:href="#CMSS17-50" transform="translate(593.593452 0)scale(0.996264)"/>
     <use xlink:href="#CMSS17-69" transform="translate(653.329038 0)scale(0.996264)"/>
     <use xlink:href="#CMSS17-63" transform="translate(675.509761 0)scale(0.996264)"/>
     <use xlink:href="#CMSS17-6b" transform="translate(717.148583 0)scale(0.996264)"/>
     <use xlink:href="#CMSS17-69" transform="translate(762.751073 0)scale(0.996264)"/>
     <use xlink:href="#CMSS17-6e" transform="translate(784.931796 0)scale(0.996264)"/>
     <use xlink:href="#CMSS17-67" transform="translate(833.136739 0)scale(0.996264)"/>
     <use xlink:href="#CMSS17-52" transform="translate(911.209475 0)scale(0.996264)"/>
     <use xlink:href="#CMSS17-61" transform="translate(971.62563 0)scale(0.996264)"/>
     <use xlink:href="#CMSS17-74" transform="translate(1016.547551 0)scale(0.996264)"/>
     <use xlink:href="#CMSS17-65" transform="translate(1050.379117 0)scale(0.996264)"/>
    </g>
   </g>
  </g>
 </g>
 <defs>
  <clipPath id="p2429c0b834">
   <rect x="69.410113" y="28.645892" width="153.424123" height="189.563695"/>
  </clipPath>
  <clipPath id="pe59eee3309">
   <rect x="276.953361" y="28.645892" width="153.424123" height="189.563695"/>
  </clipPath>
 </defs>
</svg>
